<svg xmlns="http://www.w3.org/2000/svg" xmlns:xlink="http://www.w3.org/1999/xlink" viewBox="0 0 782 601.2"><defs><style>.cls-1{fill:url(#Degradado_sin_nombre_9);}.cls-2{fill:url(#Degradado_sin_nombre_6);}.cls-3{fill:url(#Degradado_sin_nombre_12);}.cls-4{fill:url(#Degradado_sin_nombre_12-2);}.cls-5{fill:url(#Degradado_sin_nombre_6-2);}.cls-6{fill:url(#Degradado_sin_nombre_6-3);}.cls-7{fill:url(#Degradado_sin_nombre_9-2);}.cls-8{fill:url(#Degradado_sin_nombre_9-3);}.cls-9{fill:url(#Degradado_sin_nombre_9-4);}.cls-10{isolation:isolate;}.cls-11{fill:#363a3a;}.cls-12{fill:#fff;}.cls-13{fill:url(#Degradado_sin_nombre_10);}.cls-14{fill:url(#Degradado_sin_nombre_11);}.cls-15{fill:url(#Degradado_sin_nombre_14);}.cls-16{fill:url(#Degradado_sin_nombre_14-2);}.cls-17{fill:url(#Degradado_sin_nombre_14-3);}</style><linearGradient id="Degradado_sin_nombre_9" x1="-123.73" y1="828.76" x2="-123.73" y2="830.15" gradientTransform="matrix(782, 0, 0, -122, 97147.53, 101238.77)" gradientUnits="userSpaceOnUse"><stop offset="0" stop-color="#d1d0d1"/><stop offset="1" stop-color="#f0f2f1"/></linearGradient><linearGradient id="Degradado_sin_nombre_6" x1="-124.15" y1="829.32" x2="-123.15" y2="829.32" gradientTransform="matrix(515, 0, 0, -119, 63935.76, 98892)" gradientUnits="userSpaceOnUse"><stop offset="0" stop-color="#2880b6"/><stop offset="1" stop-color="#1b3456"/></linearGradient><linearGradient id="Degradado_sin_nombre_12" x1="-123.89" y1="829.32" x2="-122.89" y2="829.32" gradientTransform="matrix(247, 0, 0, -119, 31134.61, 98892)" gradientUnits="userSpaceOnUse"><stop offset="0" stop-color="#1a6977"/><stop offset="1" stop-color="#3daeab"/></linearGradient><linearGradient id="Degradado_sin_nombre_12-2" x1="-123.89" y1="829.32" x2="-122.89" y2="829.32" gradientTransform="matrix(247, 0, 0, -119, 31134.61, 99030)" xlink:href="#Degradado_sin_nombre_12"/><linearGradient id="Degradado_sin_nombre_6-2" x1="-123.89" y1="829.32" x2="-122.89" y2="829.32" gradientTransform="matrix(251, 0, 0, -119, 31097.16, 99030)" xlink:href="#Degradado_sin_nombre_6"/><linearGradient id="Degradado_sin_nombre_6-3" x1="-123.89" y1="829.32" x2="-122.89" y2="829.32" gradientTransform="matrix(251.47, 0, 0, -118.58, 31422.49, 98680.04)" xlink:href="#Degradado_sin_nombre_6"/><linearGradient id="Degradado_sin_nombre_9-2" x1="-123.89" y1="829.32" x2="-122.89" y2="829.32" gradientTransform="matrix(251.47, 0, 0, -118.58, 31155.52, 98798.46)" xlink:href="#Degradado_sin_nombre_9"/><linearGradient id="Degradado_sin_nombre_9-3" x1="-123.89" y1="829.32" x2="-122.89" y2="829.32" gradientTransform="matrix(251.47, 0, 0, -118.58, 31422.49, 98798.46)" xlink:href="#Degradado_sin_nombre_9"/><linearGradient id="Degradado_sin_nombre_9-4" x1="-123.89" y1="829.32" x2="-122.89" y2="829.32" gradientTransform="matrix(247, 0, 0, -118, 31134.61, 98319.07)" xlink:href="#Degradado_sin_nombre_9"/><linearGradient id="Degradado_sin_nombre_10" x1="-123.63" y1="829.16" x2="-122.63" y2="829.16" gradientTransform="matrix(165, 0, 0, -46, 20749.74, 38307.54)" gradientUnits="userSpaceOnUse"><stop offset="0" stop-color="#1b3456" stop-opacity="0"/><stop offset="0.37" stop-color="#2880b6"/></linearGradient><linearGradient id="Degradado_sin_nombre_11" x1="-123.64" y1="829.16" x2="-122.64" y2="829.16" gradientTransform="matrix(166, 0, 0, -46, 21140.13, 38307.54)" gradientUnits="userSpaceOnUse"><stop offset="0" stop-color="#1a6977" stop-opacity="0"/><stop offset="0.43" stop-color="#6ac3c6"/></linearGradient><linearGradient id="Degradado_sin_nombre_14" x1="-123.39" y1="829.09" x2="-123.39" y2="829.93" gradientTransform="matrix(251.64, 0, 0, -78.04, 31177.14, 65278.5)" gradientUnits="userSpaceOnUse"><stop offset="0" stop-color="#2b4768"/><stop offset="0.34" stop-color="#3f6db4"/><stop offset="0.93" stop-color="#b8d0ee"/></linearGradient><linearGradient id="Degradado_sin_nombre_14-2" x1="-123.39" y1="829.09" x2="-123.39" y2="829.91" gradientTransform="matrix(251.64, 0, 0, -78.04, 31443.94, 65278.5)" xlink:href="#Degradado_sin_nombre_14"/><linearGradient id="Degradado_sin_nombre_14-3" x1="-123.39" y1="829.08" x2="-123.39" y2="830.14" gradientTransform="matrix(247.55, 0, 0, -78.04, 31202.11, 65278.5)" xlink:href="#Degradado_sin_nombre_14"/></defs><title>BenAnalitica</title><g id="Capa_2" data-name="Capa 2"><g id="Capa_1-2" data-name="Capa 1"><g id="Grupo_299" data-name="Grupo 299"><rect id="Rectángulo_104" data-name="Rectángulo 104" class="cls-1" width="782" height="122" rx="7.72"/><path id="Rectángulo_105" data-name="Rectángulo 105" class="cls-2" d="M7.72,143H507.28a7.72,7.72,0,0,1,7.72,7.72h0V254.28a7.72,7.72,0,0,1-7.72,7.72H7.72A7.72,7.72,0,0,1,0,254.28H0V150.72A7.72,7.72,0,0,1,7.72,143Z"/><rect id="Rectángulo_106" data-name="Rectángulo 106" class="cls-3" x="535" y="143" width="247" height="119" rx="7.72"/><path id="Rectángulo_107" data-name="Rectángulo 107" class="cls-4" d="M542.72,281H774.28a7.72,7.72,0,0,1,7.72,7.72h0V400H535V288.72a7.72,7.72,0,0,1,7.72-7.72Z"/><path id="Rectángulo_108" data-name="Rectángulo 108" class="cls-5" d="M7.72,281H243.28a7.72,7.72,0,0,1,7.72,7.72V400H0V288.72A7.72,7.72,0,0,1,7.72,281Z"/><path id="Rectángulo_109" data-name="Rectángulo 109" class="cls-6" d="M275,281.27H511a7.71,7.71,0,0,1,7.72,7.72h0V399.85H267.24V289a7.72,7.72,0,0,1,7.72-7.72Z"/><rect id="Rectángulo_110" data-name="Rectángulo 110" class="cls-7" x="0.28" y="399.69" width="251.47" height="118.58"/><rect id="Rectángulo_111" data-name="Rectángulo 111" class="cls-8" x="267.24" y="399.69" width="251.47" height="118.58"/><rect id="Rectángulo_112" data-name="Rectángulo 112" class="cls-9" x="535" y="400" width="247" height="118"/><g id="Beneficios" class="cls-10"><g class="cls-10"><path class="cls-11" d="M359.65,63c0,2.38-1.76,3.74-5.27,3.74h-6.44v-14h6c3.13,0,4.93,1.32,4.93,3.6a3.25,3.25,0,0,1-2.14,3.18A3.34,3.34,0,0,1,359.65,63Zm-10.23-9V59h4.46c2.25,0,3.55-.86,3.55-2.54s-1.3-2.54-3.55-2.54Zm8.75,8.92c0-1.82-1.34-2.62-3.81-2.62h-4.94v5.26h4.94C356.83,65.49,358.17,64.69,358.17,62.85Z"/><path class="cls-11" d="M371.89,61.89h-8.81a3.89,3.89,0,0,0,4.14,3.66,4.18,4.18,0,0,0,3.23-1.38l.8.92a5.57,5.57,0,0,1-9.59-3.64,5.13,5.13,0,1,1,10.25,0C371.91,61.57,371.89,61.73,371.89,61.89Zm-8.81-1.06h7.46a3.74,3.74,0,0,0-7.46,0Z"/><path class="cls-11" d="M384.49,60.61v6.1h-1.43v-6c0-2.22-1.16-3.36-3.16-3.36a3.45,3.45,0,0,0-3.68,3.8v5.52H374.8V56.19h1.36v1.94a4.42,4.42,0,0,1,4-2C382.72,56.11,384.49,57.59,384.49,60.61Z"/><path class="cls-11" d="M397.54,61.89h-8.8a3.89,3.89,0,0,0,4.14,3.66,4.15,4.15,0,0,0,3.22-1.38l.8.92a5.56,5.56,0,0,1-9.58-3.64,5.07,5.07,0,0,1,5.14-5.34,5,5,0,0,1,5.1,5.34C397.56,61.57,397.54,61.73,397.54,61.89Zm-8.8-1.06h7.46a3.74,3.74,0,0,0-7.46,0Z"/><path class="cls-11" d="M403.88,51.77a3.33,3.33,0,0,1,2.1.66l-.48,1.06a2.41,2.41,0,0,0-1.56-.52c-1.22,0-1.86.68-1.86,2v1.24h3.24v1.2h-3.2v9.32H400.7V57.39h-1.88v-1.2h1.88v-1.3A2.9,2.9,0,0,1,403.88,51.77Zm6.72,1.08a1,1,0,0,1-1,1,1,1,0,1,1,0-2A1,1,0,0,1,410.6,52.85Zm-1.76,3.34h1.42V66.71h-1.42Z"/><path class="cls-11" d="M413.16,61.45a5.18,5.18,0,0,1,5.42-5.34,4.59,4.59,0,0,1,4.12,2.08l-1.06.72a3.58,3.58,0,0,0-3.06-1.56,4.1,4.1,0,0,0,0,8.2A3.56,3.56,0,0,0,421.64,64l1.06.72a4.64,4.64,0,0,1-4.12,2.08A5.19,5.19,0,0,1,413.16,61.45Z"/><path class="cls-11" d="M425.16,52.87a1,1,0,0,1,1-1,1,1,0,0,1,1,1,1,1,0,0,1-2.08,0Zm.32,3.32h1.42V66.71h-1.42Z"/><path class="cls-11" d="M429.8,61.45a5.35,5.35,0,1,1,5.36,5.36A5.17,5.17,0,0,1,429.8,61.45Zm9.26,0a3.91,3.91,0,1,0-3.9,4.1A3.84,3.84,0,0,0,439.06,61.45Z"/><path class="cls-11" d="M441.94,65.51l.64-1.12a6.35,6.35,0,0,0,3.74,1.18c2,0,2.82-.68,2.82-1.72,0-2.74-6.82-.58-6.82-4.74,0-1.72,1.48-3,4.16-3a7.13,7.13,0,0,1,3.72,1l-.62,1.14a5.39,5.39,0,0,0-3.1-.9c-1.9,0-2.74.74-2.74,1.74,0,2.84,6.82.7,6.82,4.74,0,1.82-1.6,3-4.34,3A7,7,0,0,1,441.94,65.51Z"/></g></g><g id="Tangible" class="cls-10"><g class="cls-10"><path class="cls-12" d="M216.23,216h-4.92v-1.28h11.33V216h-4.93v12.72h-1.48Z"/><path class="cls-12" d="M232.06,222.21v6.52H230.7v-1.64a4,4,0,0,1-3.63,1.74c-2.38,0-3.84-1.24-3.84-3.06,0-1.62,1-3,4.06-3h3.34v-.64c0-1.8-1-2.78-3-2.78a5.36,5.36,0,0,0-3.5,1.24l-.64-1.06a6.68,6.68,0,0,1,4.28-1.42C230.51,218.13,232.06,219.49,232.06,222.21Zm-1.43,3.36v-1.72h-3.3c-2,0-2.7.8-2.7,1.88s1,2,2.66,2A3.36,3.36,0,0,0,230.63,225.57Z"/><path class="cls-12" d="M245.6,222.63v6.1h-1.43v-6c0-2.22-1.16-3.36-3.16-3.36a3.45,3.45,0,0,0-3.68,3.8v5.52h-1.42V218.21h1.36v1.94a4.42,4.42,0,0,1,4-2C243.83,218.13,245.6,219.61,245.6,222.63Z"/><path class="cls-12" d="M259.24,218.21v9.24c0,3.62-1.78,5.26-5.27,5.26a7.34,7.34,0,0,1-4.9-1.62l.72-1.08a6.26,6.26,0,0,0,4.14,1.44c2.66,0,3.89-1.22,3.89-3.82v-1.34a4.76,4.76,0,0,1-4.11,2,5.1,5.1,0,1,1,0-10.2,4.76,4.76,0,0,1,4.17,2.1v-2Zm-1.38,5a4,4,0,1,0-4,3.86A3.77,3.77,0,0,0,257.86,223.21Z"/><path class="cls-12" d="M262.89,214.89a1,1,0,0,1,1-1,1,1,0,0,1,1,1,1,1,0,0,1-2.08,0Zm.32,3.32h1.42v10.52h-1.42Z"/><path class="cls-12" d="M279.25,223.47a5.11,5.11,0,0,1-5.24,5.36,4.56,4.56,0,0,1-4.06-2.18v2.08h-1.36V213.89H270v6.32a4.59,4.59,0,0,1,4-2.08A5.09,5.09,0,0,1,279.25,223.47Zm-1.42,0a3.92,3.92,0,1,0-3.92,4.1A3.86,3.86,0,0,0,277.83,223.47Z"/><path class="cls-12" d="M282.15,213.89h1.42v14.84h-1.42Z"/><path class="cls-12" d="M296.7,223.91h-8.81a3.89,3.89,0,0,0,4.14,3.66,4.15,4.15,0,0,0,3.22-1.38l.8.92a5.56,5.56,0,0,1-9.58-3.64,5.07,5.07,0,0,1,5.14-5.34,5,5,0,0,1,5.1,5.34C296.71,223.59,296.7,223.75,296.7,223.91Zm-8.81-1.06h7.46a3.74,3.74,0,0,0-7.46,0Z"/></g></g><g id="Definido" class="cls-10"><g class="cls-10"><path class="cls-12" d="M84.49,332.29h5.7c4.48,0,7.5,2.88,7.5,7s-3,7-7.5,7h-5.7ZM90.11,345c3.72,0,6.12-2.36,6.12-5.72s-2.4-5.72-6.12-5.72H86V345Z"/><path class="cls-12" d="M109.87,341.47h-8.8a3.89,3.89,0,0,0,4.14,3.66,4.15,4.15,0,0,0,3.22-1.38l.8.92A5.56,5.56,0,0,1,99.65,341a5.07,5.07,0,0,1,5.14-5.34,5,5,0,0,1,5.1,5.34C109.89,341.15,109.87,341.31,109.87,341.47Zm-8.8-1.06h7.46a3.74,3.74,0,0,0-7.46,0Z"/><path class="cls-12" d="M116.21,331.35a3.33,3.33,0,0,1,2.1.66l-.48,1.06a2.41,2.41,0,0,0-1.56-.52c-1.22,0-1.86.68-1.86,2v1.24h3.24V337h-3.2v9.32H113V337h-1.88v-1.2H113v-1.3A2.9,2.9,0,0,1,116.21,331.35Zm6.72,1.08a1,1,0,1,1-1-1A1,1,0,0,1,122.93,332.43Zm-1.76,3.34h1.42v10.52h-1.42Z"/><path class="cls-12" d="M136.23,340.19v6.1h-1.42v-6c0-2.22-1.16-3.36-3.16-3.36a3.45,3.45,0,0,0-3.68,3.8v5.52h-1.42V335.77h1.36v1.94a4.42,4.42,0,0,1,4-2C134.47,335.69,136.23,337.17,136.23,340.19Z"/><path class="cls-12" d="M139.77,332.45a1,1,0,0,1,1-1,1,1,0,0,1,1,1,1,1,0,0,1-2.08,0Zm.32,3.32h1.42v10.52h-1.42Z"/><path class="cls-12" d="M155.07,331.45v14.84h-1.36v-2.08a4.56,4.56,0,0,1-4.06,2.18,5.35,5.35,0,0,1,0-10.7,4.59,4.59,0,0,1,4,2.08v-6.32Zm-1.4,9.58a3.91,3.91,0,1,0-3.9,4.1A3.85,3.85,0,0,0,153.67,341Z"/><path class="cls-12" d="M158,341a5.35,5.35,0,1,1,5.36,5.36A5.17,5.17,0,0,1,158,341Zm9.26,0a3.91,3.91,0,1,0-3.9,4.1A3.84,3.84,0,0,0,167.23,341Z"/></g></g><g id="Reduce_2_pasos_en_el_proceso_de_aprobación_de_préstamo" data-name="Reduce 2 pasos en el proceso de aprobación de préstamo" class="cls-10"><g class="cls-10"><path class="cls-11" d="M22.3,426.34l-3.2-4.5a10,10,0,0,1-1.12.06H14.22v4.44H12.74v-14H18c3.56,0,5.72,1.8,5.72,4.8a4.34,4.34,0,0,1-3.2,4.41l3.42,4.8Zm-.08-9.21c0-2.24-1.48-3.52-4.28-3.52H14.22v7h3.72C20.74,420.64,22.22,419.34,22.22,417.13Z"/><path class="cls-11" d="M36.06,421.52h-8.8a3.89,3.89,0,0,0,4.14,3.66,4.15,4.15,0,0,0,3.22-1.38l.8.92a5.18,5.18,0,0,1-4.06,1.72,5.21,5.21,0,0,1-5.52-5.36A5.08,5.08,0,0,1,31,415.73a5,5,0,0,1,5.1,5.35C36.08,421.2,36.06,421.36,36.06,421.52Zm-8.8-1.06h7.46a3.74,3.74,0,0,0-7.46,0Z"/><path class="cls-11" d="M48.58,411.49v14.85H47.22v-2.08a4.56,4.56,0,0,1-4.06,2.18,5.36,5.36,0,0,1,0-10.71,4.6,4.6,0,0,1,4,2.09v-6.33Zm-1.4,9.59a3.91,3.91,0,1,0-3.9,4.1A3.86,3.86,0,0,0,47.18,421.08Z"/><path class="cls-11" d="M62,415.81v10.53H60.66v-1.92a4.18,4.18,0,0,1-3.78,2c-2.68,0-4.44-1.5-4.44-4.52v-6.11h1.42v6c0,2.24,1.16,3.38,3.16,3.38,2.2,0,3.58-1.42,3.58-3.82v-5.53Z"/><path class="cls-11" d="M64.94,421.08a5.19,5.19,0,0,1,5.42-5.35,4.58,4.58,0,0,1,4.12,2.09l-1.06.72A3.56,3.56,0,0,0,70.36,417a4.11,4.11,0,0,0,0,8.21,3.56,3.56,0,0,0,3.06-1.54l1.06.72a4.64,4.64,0,0,1-4.12,2.08A5.19,5.19,0,0,1,64.94,421.08Z"/><path class="cls-11" d="M86.24,421.52h-8.8a3.89,3.89,0,0,0,4.14,3.66,4.15,4.15,0,0,0,3.22-1.38l.8.92A5.56,5.56,0,0,1,76,421.08a5.08,5.08,0,0,1,5.14-5.35,5,5,0,0,1,5.1,5.35C86.26,421.2,86.24,421.36,86.24,421.52Zm-8.8-1.06H84.9a3.74,3.74,0,0,0-7.46,0Z"/><path class="cls-11" d="M103,425.06v1.28H93.2v-1l5.82-5.7c1.58-1.57,1.88-2.5,1.88-3.47,0-1.62-1.14-2.62-3.28-2.62a4.75,4.75,0,0,0-3.82,1.56l-1-.88a6.29,6.29,0,0,1,5-2c2.84,0,4.64,1.44,4.64,3.79,0,1.34-.42,2.54-2.3,4.38l-4.76,4.68Z"/><path class="cls-11" d="M121.66,421.08a5.09,5.09,0,0,1-5.24,5.36,4.59,4.59,0,0,1-4-2.08v5.86H111V415.81h1.36v2.09a4.59,4.59,0,0,1,4.06-2.17A5.1,5.1,0,0,1,121.66,421.08Zm-1.42,0a3.92,3.92,0,1,0-3.92,4.1A3.88,3.88,0,0,0,120.24,421.08Z"/><path class="cls-11" d="M132.44,419.82v6.52h-1.36V424.7a4,4,0,0,1-3.62,1.74c-2.38,0-3.84-1.24-3.84-3.06,0-1.62,1-3,4.06-3H131v-.64c0-1.8-1-2.79-3-2.79a5.37,5.37,0,0,0-3.5,1.25l-.64-1.06a6.69,6.69,0,0,1,4.28-1.43C130.9,415.73,132.44,417.09,132.44,419.82ZM131,423.18v-1.72h-3.3c-2,0-2.7.8-2.7,1.88s1,2,2.66,2A3.37,3.37,0,0,0,131,423.18Z"/><path class="cls-11" d="M134.84,425.14l.64-1.12a6.35,6.35,0,0,0,3.74,1.18c2,0,2.82-.68,2.82-1.72,0-2.74-6.82-.58-6.82-4.74,0-1.73,1.48-3,4.16-3a7,7,0,0,1,3.72,1l-.62,1.14a5.39,5.39,0,0,0-3.1-.9c-1.9,0-2.74.74-2.74,1.74,0,2.84,6.82.7,6.82,4.74,0,1.82-1.6,3-4.34,3A7,7,0,0,1,134.84,425.14Z"/><path class="cls-11" d="M145,421.08a5.35,5.35,0,1,1,5.36,5.36A5.18,5.18,0,0,1,145,421.08Zm9.26,0a3.91,3.91,0,1,0-3.9,4.1A3.84,3.84,0,0,0,154.28,421.08Z"/><path class="cls-11" d="M157.16,425.14l.64-1.12a6.35,6.35,0,0,0,3.74,1.18c2,0,2.82-.68,2.82-1.72,0-2.74-6.82-.58-6.82-4.74,0-1.73,1.48-3,4.16-3a7,7,0,0,1,3.72,1l-.62,1.14a5.39,5.39,0,0,0-3.1-.9c-1.9,0-2.74.74-2.74,1.74,0,2.84,6.82.7,6.82,4.74,0,1.82-1.6,3-4.34,3A7,7,0,0,1,157.16,425.14Z"/><path class="cls-11" d="M182.8,421.52H174a3.89,3.89,0,0,0,4.14,3.66,4.15,4.15,0,0,0,3.22-1.38l.8.92a5.56,5.56,0,0,1-9.58-3.64,5.08,5.08,0,0,1,5.14-5.35,5,5,0,0,1,5.1,5.35C182.82,421.2,182.8,421.36,182.8,421.52Zm-8.8-1.06h7.46a3.74,3.74,0,0,0-7.46,0Z"/><path class="cls-11" d="M195.4,420.24v6.1H194v-6c0-2.22-1.16-3.37-3.16-3.37a3.46,3.46,0,0,0-3.68,3.81v5.52h-1.42V415.81h1.36v1.95a4.41,4.41,0,0,1,4-2C193.64,415.73,195.4,417.22,195.4,420.24Z"/></g><g class="cls-10"><path class="cls-11" d="M21.6,445.52H12.8a3.89,3.89,0,0,0,4.14,3.66,4.15,4.15,0,0,0,3.22-1.38l.8.92a5.18,5.18,0,0,1-4.06,1.72,5.21,5.21,0,0,1-5.52-5.36,5.08,5.08,0,0,1,5.14-5.35,5,5,0,0,1,5.1,5.35C21.62,445.2,21.6,445.36,21.6,445.52Zm-8.8-1.06h7.46a3.74,3.74,0,0,0-7.46,0Z"/><path class="cls-11" d="M24.52,435.49h1.42v14.85H24.52Z"/><path class="cls-11" d="M45.8,445.08a5.09,5.09,0,0,1-5.24,5.36,4.59,4.59,0,0,1-4-2.08v5.86H35.14V439.81H36.5v2.09a4.59,4.59,0,0,1,4.06-2.17A5.1,5.1,0,0,1,45.8,445.08Zm-1.42,0a3.92,3.92,0,1,0-3.92,4.1A3.88,3.88,0,0,0,44.38,445.08Z"/><path class="cls-11" d="M54,439.73v1.39c-.12,0-.24,0-.34,0-2.2,0-3.54,1.41-3.54,3.89v5.36H48.7V439.81h1.36v2.07A4,4,0,0,1,54,439.73Z"/><path class="cls-11" d="M55.4,445.08a5.35,5.35,0,1,1,5.36,5.36A5.18,5.18,0,0,1,55.4,445.08Zm9.26,0a3.91,3.91,0,1,0-3.9,4.1A3.84,3.84,0,0,0,64.66,445.08Z"/><path class="cls-11" d="M67.94,445.08a5.19,5.19,0,0,1,5.42-5.35,4.58,4.58,0,0,1,4.12,2.09l-1.06.72A3.56,3.56,0,0,0,73.36,441a4.11,4.11,0,0,0,0,8.21,3.56,3.56,0,0,0,3.06-1.54l1.06.72a4.64,4.64,0,0,1-4.12,2.08A5.19,5.19,0,0,1,67.94,445.08Z"/><path class="cls-11" d="M89.24,445.52h-8.8a3.89,3.89,0,0,0,4.14,3.66,4.15,4.15,0,0,0,3.22-1.38l.8.92A5.56,5.56,0,0,1,79,445.08a5.08,5.08,0,0,1,5.14-5.35,5,5,0,0,1,5.1,5.35C89.26,445.2,89.24,445.36,89.24,445.52Zm-8.8-1.06H87.9a3.74,3.74,0,0,0-7.46,0Z"/><path class="cls-11" d="M90.7,449.14l.64-1.12a6.35,6.35,0,0,0,3.74,1.18c2,0,2.82-.68,2.82-1.72,0-2.74-6.82-.58-6.82-4.74,0-1.73,1.48-3,4.16-3a7,7,0,0,1,3.72,1l-.62,1.14a5.39,5.39,0,0,0-3.1-.9c-1.9,0-2.74.74-2.74,1.74,0,2.84,6.82.7,6.82,4.74,0,1.82-1.6,3-4.34,3A7,7,0,0,1,90.7,449.14Z"/><path class="cls-11" d="M100.88,445.08a5.35,5.35,0,1,1,5.36,5.36A5.18,5.18,0,0,1,100.88,445.08Zm9.26,0a3.91,3.91,0,1,0-3.9,4.1A3.84,3.84,0,0,0,110.14,445.08Z"/><path class="cls-11" d="M129.32,435.49v14.85H128v-2.08a4.56,4.56,0,0,1-4.06,2.18,5.36,5.36,0,0,1,0-10.71,4.6,4.6,0,0,1,4,2.09v-6.33Zm-1.4,9.59a3.91,3.91,0,1,0-3.9,4.1A3.86,3.86,0,0,0,127.92,445.08Z"/><path class="cls-11" d="M142.44,445.52h-8.8a3.89,3.89,0,0,0,4.14,3.66A4.15,4.15,0,0,0,141,447.8l.8.92a5.56,5.56,0,0,1-9.58-3.64,5.08,5.08,0,0,1,5.14-5.35,5,5,0,0,1,5.1,5.35C142.46,445.2,142.44,445.36,142.44,445.52Zm-8.8-1.06h7.46a3.74,3.74,0,0,0-7.46,0Z"/></g><g class="cls-10"><path class="cls-11" d="M20.38,467.82v6.52H19V472.7a4,4,0,0,1-3.62,1.74c-2.38,0-3.84-1.24-3.84-3.06,0-1.62,1-3,4.06-3H19v-.64c0-1.8-1-2.79-3-2.79a5.37,5.37,0,0,0-3.5,1.25l-.64-1.06a6.69,6.69,0,0,1,4.28-1.43C18.84,463.73,20.38,465.09,20.38,467.82ZM19,471.18v-1.72h-3.3c-2,0-2.7.8-2.7,1.88s1,2,2.66,2A3.37,3.37,0,0,0,19,471.18Z"/><path class="cls-11" d="M34.9,469.08a5.09,5.09,0,0,1-5.24,5.36,4.59,4.59,0,0,1-4-2.08v5.86H24.24V463.81H25.6v2.09a4.59,4.59,0,0,1,4.06-2.17A5.1,5.1,0,0,1,34.9,469.08Zm-1.42,0a3.92,3.92,0,1,0-3.92,4.1A3.88,3.88,0,0,0,33.48,469.08Z"/><path class="cls-11" d="M43.1,463.73v1.39c-.12,0-.24,0-.34,0-2.2,0-3.54,1.41-3.54,3.89v5.36H37.8V463.81h1.36v2.07A4,4,0,0,1,43.1,463.73Z"/><path class="cls-11" d="M44.5,469.08a5.35,5.35,0,1,1,5.36,5.36A5.18,5.18,0,0,1,44.5,469.08Zm9.26,0a3.91,3.91,0,1,0-3.9,4.1A3.84,3.84,0,0,0,53.76,469.08Z"/><path class="cls-11" d="M68.76,469.08a5.11,5.11,0,0,1-5.24,5.36,4.56,4.56,0,0,1-4.06-2.18v2.08H58.1V459.49h1.42v6.33a4.6,4.6,0,0,1,4-2.09A5.1,5.1,0,0,1,68.76,469.08Zm-1.42,0a3.92,3.92,0,1,0-3.92,4.1A3.87,3.87,0,0,0,67.34,469.08Z"/><path class="cls-11" d="M79.54,467.82v6.52H78.18V472.7a4,4,0,0,1-3.62,1.74c-2.38,0-3.84-1.24-3.84-3.06,0-1.62,1-3,4.06-3h3.34v-.64c0-1.8-1-2.79-3-2.79a5.37,5.37,0,0,0-3.5,1.25L71,465.16a6.69,6.69,0,0,1,4.28-1.43C78,463.73,79.54,465.09,79.54,467.82Zm-1.42,3.36v-1.72h-3.3c-2,0-2.7.8-2.7,1.88s1,2,2.66,2A3.37,3.37,0,0,0,78.12,471.18Z"/><path class="cls-11" d="M82.38,469.08a5.19,5.19,0,0,1,5.42-5.35,4.58,4.58,0,0,1,4.12,2.09l-1.06.72A3.56,3.56,0,0,0,87.8,465a4.11,4.11,0,0,0,0,8.21,3.56,3.56,0,0,0,3.06-1.54l1.06.72a4.64,4.64,0,0,1-4.12,2.08A5.19,5.19,0,0,1,82.38,469.08Z"/><path class="cls-11" d="M94.38,460.49a1,1,0,0,1,1-1,1,1,0,0,1,1,1,1,1,0,0,1-2.08,0Zm.32,3.32h1.42v10.53H94.7Z"/><path class="cls-11" d="M99,469.08a5.35,5.35,0,1,1,5.36,5.36A5.18,5.18,0,0,1,99,469.08Zm9.26,0a3.91,3.91,0,1,0-3.9,4.1A3.84,3.84,0,0,0,108.28,469.08Zm-2.48-9.37h1.9l-3.24,2.48h-1.4Z"/><path class="cls-11" d="M122.3,468.24v6.1h-1.42v-6c0-2.22-1.16-3.37-3.16-3.37a3.46,3.46,0,0,0-3.68,3.81v5.52h-1.42V463.81H114v1.95a4.41,4.41,0,0,1,4-2C120.54,463.73,122.3,465.22,122.3,468.24Z"/><path class="cls-11" d="M141,459.49v14.85h-1.36v-2.08a4.56,4.56,0,0,1-4.06,2.18,5.36,5.36,0,0,1,0-10.71,4.6,4.6,0,0,1,4,2.09v-6.33Zm-1.4,9.59a3.91,3.91,0,1,0-3.9,4.1A3.86,3.86,0,0,0,139.6,469.08Z"/><path class="cls-11" d="M154.12,469.52h-8.8a3.89,3.89,0,0,0,4.14,3.66,4.15,4.15,0,0,0,3.22-1.38l.8.92a5.56,5.56,0,0,1-9.58-3.64,5.08,5.08,0,0,1,5.14-5.35,5,5,0,0,1,5.1,5.35C154.14,469.2,154.12,469.36,154.12,469.52Zm-8.8-1.06h7.46a3.74,3.74,0,0,0-7.46,0Z"/></g><g class="cls-10"><path class="cls-11" d="M23.1,493.08a5.09,5.09,0,0,1-5.24,5.36,4.59,4.59,0,0,1-4-2.08v5.86H12.44V487.81H13.8v2.09a4.59,4.59,0,0,1,4.06-2.17A5.1,5.1,0,0,1,23.1,493.08Zm-1.42,0a3.92,3.92,0,1,0-3.92,4.1A3.88,3.88,0,0,0,21.68,493.08Z"/><path class="cls-11" d="M31.3,487.73v1.39c-.12,0-.24,0-.34,0-2.2,0-3.54,1.41-3.54,3.89v5.36H26V487.81h1.36v2.07A4,4,0,0,1,31.3,487.73Z"/><path class="cls-11" d="M42.92,493.52h-8.8a3.89,3.89,0,0,0,4.14,3.66,4.15,4.15,0,0,0,3.22-1.38l.8.92a5.18,5.18,0,0,1-4.06,1.72,5.21,5.21,0,0,1-5.52-5.36,5.08,5.08,0,0,1,5.14-5.35,5,5,0,0,1,5.1,5.35C42.94,493.2,42.92,493.36,42.92,493.52Zm-8.8-1.06h7.46a3.74,3.74,0,0,0-7.46,0Zm3.82-6.27h-1.4l2.74-2.48h1.9Z"/><path class="cls-11" d="M44.38,497.14,45,496a6.35,6.35,0,0,0,3.74,1.18c2,0,2.82-.68,2.82-1.72,0-2.74-6.82-.58-6.82-4.74,0-1.73,1.48-3,4.16-3a7,7,0,0,1,3.72,1L52,489.86a5.39,5.39,0,0,0-3.1-.9c-1.9,0-2.74.74-2.74,1.74,0,2.84,6.82.7,6.82,4.74,0,1.82-1.6,3-4.34,3A7,7,0,0,1,44.38,497.14Z"/><path class="cls-11" d="M61.16,497.7a3.38,3.38,0,0,1-2.22.74,2.79,2.79,0,0,1-3.08-3.06V489H54v-1.2h1.88v-2.3h1.42v2.3h3.2V489h-3.2v6.29a1.68,1.68,0,0,0,1.82,1.92,2.35,2.35,0,0,0,1.56-.54Z"/><path class="cls-11" d="M71.68,491.82v6.52H70.32V496.7a4,4,0,0,1-3.62,1.74c-2.38,0-3.84-1.24-3.84-3.06,0-1.62,1-3,4.06-3h3.34v-.64c0-1.8-1-2.79-3-2.79a5.37,5.37,0,0,0-3.5,1.25l-.64-1.06a6.69,6.69,0,0,1,4.28-1.43C70.14,487.73,71.68,489.09,71.68,491.82Zm-1.42,3.36v-1.72H67c-2,0-2.7.8-2.7,1.88s1,2,2.66,2A3.37,3.37,0,0,0,70.26,495.18Z"/><path class="cls-11" d="M92.9,492.24v6.1H91.48v-6c0-2.22-1.12-3.37-3-3.37-2.16,0-3.52,1.41-3.52,3.81v5.52H83.52v-6c0-2.22-1.12-3.37-3-3.37-2.14,0-3.52,1.41-3.52,3.81v5.52H75.54V487.81H76.9v1.93a4.24,4.24,0,0,1,3.86-2A3.77,3.77,0,0,1,84.5,490a4.57,4.57,0,0,1,4.16-2.23C91.22,487.73,92.9,489.22,92.9,492.24Z"/><path class="cls-11" d="M95.74,493.08a5.35,5.35,0,1,1,5.36,5.36A5.18,5.18,0,0,1,95.74,493.08Zm9.26,0a3.91,3.91,0,1,0-3.9,4.1A3.84,3.84,0,0,0,105,493.08Z"/></g></g><g id="Incrementa_las_ventas_Rapidez_y_facilidad_en_el_reporteador" data-name="Incrementa las ventas Rapidez y facilidad en el reporteador" class="cls-10"><g class="cls-10"><path class="cls-11" d="M290.78,412.33h1.48v14h-1.48Z"/><path class="cls-11" d="M306.2,420.24v6.1h-1.42v-6c0-2.22-1.16-3.37-3.16-3.37a3.46,3.46,0,0,0-3.68,3.81v5.52h-1.42V415.81h1.36v1.95a4.41,4.41,0,0,1,4-2C304.44,415.73,306.2,417.22,306.2,420.24Z"/><path class="cls-11" d="M309,421.08a5.19,5.19,0,0,1,5.42-5.35,4.58,4.58,0,0,1,4.12,2.09l-1.06.72a3.56,3.56,0,0,0-3.06-1.57,4.11,4.11,0,0,0,0,8.21,3.56,3.56,0,0,0,3.06-1.54l1.06.72a4.64,4.64,0,0,1-4.12,2.08A5.19,5.19,0,0,1,309,421.08Z"/><path class="cls-11" d="M326.66,415.73v1.39c-.12,0-.24,0-.34,0-2.2,0-3.54,1.41-3.54,3.89v5.36h-1.42V415.81h1.36v2.07A4,4,0,0,1,326.66,415.73Z"/><path class="cls-11" d="M338.28,421.52h-8.8a3.89,3.89,0,0,0,4.14,3.66,4.15,4.15,0,0,0,3.22-1.38l.8.92a5.56,5.56,0,0,1-9.58-3.64,5.08,5.08,0,0,1,5.14-5.35,5,5,0,0,1,5.1,5.35C338.3,421.2,338.28,421.36,338.28,421.52Zm-8.8-1.06h7.46a3.74,3.74,0,0,0-7.46,0Z"/><path class="cls-11" d="M358.56,420.24v6.1h-1.42v-6c0-2.22-1.12-3.37-3-3.37-2.16,0-3.52,1.41-3.52,3.81v5.52h-1.42v-6c0-2.22-1.12-3.37-3-3.37-2.14,0-3.52,1.41-3.52,3.81v5.52H341.2V415.81h1.36v1.93a4.24,4.24,0,0,1,3.86-2,3.77,3.77,0,0,1,3.74,2.23,4.57,4.57,0,0,1,4.16-2.23C356.88,415.73,358.56,417.22,358.56,420.24Z"/><path class="cls-11" d="M371.62,421.52h-8.8a3.89,3.89,0,0,0,4.14,3.66,4.15,4.15,0,0,0,3.22-1.38l.8.92a5.56,5.56,0,0,1-9.58-3.64,5.08,5.08,0,0,1,5.14-5.35,5,5,0,0,1,5.1,5.35C371.64,421.2,371.62,421.36,371.62,421.52Zm-8.8-1.06h7.46a3.74,3.74,0,0,0-7.46,0Z"/><path class="cls-11" d="M384.22,420.24v6.1H382.8v-6c0-2.22-1.16-3.37-3.16-3.37a3.46,3.46,0,0,0-3.68,3.81v5.52h-1.42V415.81h1.36v1.95a4.41,4.41,0,0,1,4-2C382.46,415.73,384.22,417.22,384.22,420.24Z"/><path class="cls-11" d="M393.62,425.7a3.38,3.38,0,0,1-2.22.74,2.79,2.79,0,0,1-3.08-3.06V417h-1.88v-1.2h1.88v-2.3h1.42v2.3h3.2V417h-3.2v6.29a1.68,1.68,0,0,0,1.82,1.92,2.35,2.35,0,0,0,1.56-.54Z"/><path class="cls-11" d="M404.14,419.82v6.52h-1.36V424.7a4,4,0,0,1-3.62,1.74c-2.38,0-3.84-1.24-3.84-3.06,0-1.62,1-3,4.06-3h3.34v-.64c0-1.8-1-2.79-3-2.79a5.37,5.37,0,0,0-3.5,1.25l-.64-1.06a6.69,6.69,0,0,1,4.28-1.43C402.6,415.73,404.14,417.09,404.14,419.82Zm-1.42,3.36v-1.72h-3.3c-2,0-2.7.8-2.7,1.88s1,2,2.66,2A3.37,3.37,0,0,0,402.72,423.18Z"/><path class="cls-11" d="M413.24,411.49h1.42v14.85h-1.42Z"/><path class="cls-11" d="M426.56,419.82v6.52H425.2V424.7a4,4,0,0,1-3.62,1.74c-2.38,0-3.84-1.24-3.84-3.06,0-1.62,1-3,4.06-3h3.34v-.64c0-1.8-1-2.79-3-2.79a5.37,5.37,0,0,0-3.5,1.25l-.64-1.06a6.69,6.69,0,0,1,4.28-1.43C425,415.73,426.56,417.09,426.56,419.82Zm-1.42,3.36v-1.72h-3.3c-2,0-2.7.8-2.7,1.88s1,2,2.66,2A3.37,3.37,0,0,0,425.14,423.18Z"/><path class="cls-11" d="M429,425.14l.64-1.12a6.35,6.35,0,0,0,3.74,1.18c2,0,2.82-.68,2.82-1.72,0-2.74-6.82-.58-6.82-4.74,0-1.73,1.48-3,4.16-3a7,7,0,0,1,3.72,1l-.62,1.14a5.39,5.39,0,0,0-3.1-.9c-1.9,0-2.74.74-2.74,1.74,0,2.84,6.82.7,6.82,4.74,0,1.82-1.6,3-4.34,3A7,7,0,0,1,429,425.14Z"/></g><g class="cls-10"><path class="cls-11" d="M299.32,439.81l-4.68,10.53h-1.46l-4.66-10.53H290l3.94,9,4-9Z"/><path class="cls-11" d="M310.18,445.52h-8.8a3.89,3.89,0,0,0,4.14,3.66,4.15,4.15,0,0,0,3.22-1.38l.8.92a5.56,5.56,0,0,1-9.58-3.64,5.08,5.08,0,0,1,5.14-5.35,5,5,0,0,1,5.1,5.35C310.2,445.2,310.18,445.36,310.18,445.52Zm-8.8-1.06h7.46a3.74,3.74,0,0,0-7.46,0Z"/><path class="cls-11" d="M322.78,444.24v6.1h-1.42v-6c0-2.22-1.16-3.37-3.16-3.37a3.46,3.46,0,0,0-3.68,3.81v5.52H313.1V439.81h1.36v1.95a4.41,4.41,0,0,1,4-2C321,439.73,322.78,441.22,322.78,444.24Z"/><path class="cls-11" d="M332.18,449.7a3.38,3.38,0,0,1-2.22.74,2.79,2.79,0,0,1-3.08-3.06V441H325v-1.2h1.88v-2.3h1.42v2.3h3.2V441h-3.2v6.29a1.68,1.68,0,0,0,1.82,1.92,2.35,2.35,0,0,0,1.56-.54Z"/><path class="cls-11" d="M342.7,443.82v6.52h-1.36V448.7a4,4,0,0,1-3.62,1.74c-2.38,0-3.84-1.24-3.84-3.06,0-1.62,1-3,4.06-3h3.34v-.64c0-1.8-1-2.79-3-2.79a5.37,5.37,0,0,0-3.5,1.25l-.64-1.06a6.69,6.69,0,0,1,4.28-1.43C341.16,439.73,342.7,441.09,342.7,443.82Zm-1.42,3.36v-1.72H338c-2,0-2.7.8-2.7,1.88s1,2,2.66,2A3.37,3.37,0,0,0,341.28,447.18Z"/><path class="cls-11" d="M345.1,449.14l.64-1.12a6.35,6.35,0,0,0,3.74,1.18c2,0,2.82-.68,2.82-1.72,0-2.74-6.82-.58-6.82-4.74,0-1.73,1.48-3,4.16-3a7,7,0,0,1,3.72,1l-.62,1.14a5.39,5.39,0,0,0-3.1-.9c-1.9,0-2.74.74-2.74,1.74,0,2.84,6.82.7,6.82,4.74,0,1.82-1.6,3-4.34,3A7,7,0,0,1,345.1,449.14Z"/></g><g class="cls-10"><path class="cls-11" d="M300.34,474.34l-3.2-4.5a10,10,0,0,1-1.12.06h-3.76v4.44h-1.48v-14H296c3.56,0,5.72,1.8,5.72,4.8a4.34,4.34,0,0,1-3.2,4.41l3.42,4.8Zm-.08-9.21c0-2.24-1.48-3.52-4.28-3.52h-3.72v7H296C298.78,468.64,300.26,467.34,300.26,465.13Z"/><path class="cls-11" d="M312.78,467.82v6.52h-1.36V472.7a4,4,0,0,1-3.62,1.74c-2.38,0-3.84-1.24-3.84-3.06,0-1.62,1-3,4.06-3h3.34v-.64c0-1.8-1-2.79-3-2.79a5.37,5.37,0,0,0-3.5,1.25l-.64-1.06a6.69,6.69,0,0,1,4.28-1.43C311.24,463.73,312.78,465.09,312.78,467.82Zm-1.42,3.36v-1.72h-3.3c-2,0-2.7.8-2.7,1.88s1,2,2.66,2A3.37,3.37,0,0,0,311.36,471.18Z"/><path class="cls-11" d="M327.3,469.08a5.09,5.09,0,0,1-5.24,5.36,4.59,4.59,0,0,1-4-2.08v5.86h-1.42V463.81H318v2.09a4.59,4.59,0,0,1,4.06-2.17A5.1,5.1,0,0,1,327.3,469.08Zm-1.42,0a3.92,3.92,0,1,0-3.92,4.1A3.88,3.88,0,0,0,325.88,469.08Z"/><path class="cls-11" d="M329.88,460.49a1,1,0,0,1,1-1,1,1,0,0,1,1,1,1,1,0,0,1-2.08,0Zm.32,3.32h1.42v10.53H330.2Z"/><path class="cls-11" d="M345.18,459.49v14.85h-1.36v-2.08a4.56,4.56,0,0,1-4.06,2.18,5.36,5.36,0,0,1,0-10.71,4.6,4.6,0,0,1,4,2.09v-6.33Zm-1.4,9.59a3.91,3.91,0,1,0-3.9,4.1A3.86,3.86,0,0,0,343.78,469.08Z"/><path class="cls-11" d="M358.3,469.52h-8.8a3.89,3.89,0,0,0,4.14,3.66,4.15,4.15,0,0,0,3.22-1.38l.8.92a5.56,5.56,0,0,1-9.58-3.64,5.08,5.08,0,0,1,5.14-5.35,5,5,0,0,1,5.1,5.35C358.32,469.2,358.3,469.36,358.3,469.52Zm-8.8-1.06H357a3.74,3.74,0,0,0-7.46,0Z"/><path class="cls-11" d="M368.54,473.16v1.18H360v-.94L366.6,465h-6.5v-1.2h8.32v.95l-6.62,8.4Z"/><path class="cls-11" d="M385.42,463.81l-5.26,11.79c-.88,2.06-2,2.72-3.5,2.72a3.6,3.6,0,0,1-2.56-1l.66-1.06a2.63,2.63,0,0,0,1.92.8c.94,0,1.58-.44,2.18-1.76l.46-1-4.7-10.51h1.48l4,8.95,4-8.95Z"/><path class="cls-11" d="M394.28,462.57v1.24h3.24V465h-3.2v9.33H392.9V465H391v-1.2h1.88v-1.3a2.9,2.9,0,0,1,3.18-3.12,3.33,3.33,0,0,1,2.1.66l-.48,1.06a2.41,2.41,0,0,0-1.56-.52C394.92,460.59,394.28,461.27,394.28,462.57Z"/><path class="cls-11" d="M407.18,467.82v6.52h-1.36V472.7a4,4,0,0,1-3.62,1.74c-2.38,0-3.84-1.24-3.84-3.06,0-1.62,1-3,4.06-3h3.34v-.64c0-1.8-1-2.79-3-2.79a5.37,5.37,0,0,0-3.5,1.25l-.64-1.06a6.69,6.69,0,0,1,4.28-1.43C405.64,463.73,407.18,465.09,407.18,467.82Zm-1.42,3.36v-1.72h-3.3c-2,0-2.7.8-2.7,1.88s1,2,2.66,2A3.37,3.37,0,0,0,405.76,471.18Z"/><path class="cls-11" d="M410,469.08a5.19,5.19,0,0,1,5.42-5.35,4.58,4.58,0,0,1,4.12,2.09l-1.06.72a3.56,3.56,0,0,0-3.06-1.57,4.11,4.11,0,0,0,0,8.21,3.56,3.56,0,0,0,3.06-1.54l1.06.72a4.64,4.64,0,0,1-4.12,2.08A5.19,5.19,0,0,1,410,469.08Z"/><path class="cls-11" d="M422,460.49a1,1,0,0,1,1-1,1,1,0,0,1,1,1,1,1,0,0,1-2.08,0Zm.32,3.32h1.42v10.53h-1.42Z"/><path class="cls-11" d="M427.72,459.49h1.42v14.85h-1.42Z"/><path class="cls-11" d="M432.78,460.49a1,1,0,0,1,1-1,1,1,0,0,1,1,1,1,1,0,0,1-2.08,0Zm.32,3.32h1.42v10.53H433.1Z"/><path class="cls-11" d="M448.08,459.49v14.85h-1.36v-2.08a4.56,4.56,0,0,1-4.06,2.18,5.36,5.36,0,0,1,0-10.71,4.6,4.6,0,0,1,4,2.09v-6.33Zm-1.4,9.59a3.91,3.91,0,1,0-3.9,4.1A3.86,3.86,0,0,0,446.68,469.08Z"/><path class="cls-11" d="M460,467.82v6.52h-1.36V472.7a4,4,0,0,1-3.62,1.74c-2.38,0-3.84-1.24-3.84-3.06,0-1.62,1-3,4.06-3h3.34v-.64c0-1.8-1-2.79-3-2.79a5.37,5.37,0,0,0-3.5,1.25l-.64-1.06a6.69,6.69,0,0,1,4.28-1.43C458.44,463.73,460,465.09,460,467.82Zm-1.42,3.36v-1.72h-3.3c-2,0-2.7.8-2.7,1.88s1,2,2.66,2A3.37,3.37,0,0,0,458.56,471.18Z"/><path class="cls-11" d="M473.48,459.49v14.85h-1.36v-2.08a4.56,4.56,0,0,1-4.06,2.18,5.36,5.36,0,0,1,0-10.71,4.6,4.6,0,0,1,4,2.09v-6.33Zm-1.4,9.59a3.91,3.91,0,1,0-3.9,4.1A3.86,3.86,0,0,0,472.08,469.08Z"/></g><g class="cls-10"><path class="cls-11" d="M299.64,493.52h-8.8a3.89,3.89,0,0,0,4.14,3.66,4.15,4.15,0,0,0,3.22-1.38l.8.92a5.56,5.56,0,0,1-9.58-3.64,5.08,5.08,0,0,1,5.14-5.35,5,5,0,0,1,5.1,5.35C299.66,493.2,299.64,493.36,299.64,493.52Zm-8.8-1.06h7.46a3.74,3.74,0,0,0-7.46,0Z"/><path class="cls-11" d="M312.24,492.24v6.1h-1.42v-6c0-2.22-1.16-3.37-3.16-3.37a3.46,3.46,0,0,0-3.68,3.81v5.52h-1.42V487.81h1.36v1.95a4.41,4.41,0,0,1,4-2C310.48,487.73,312.24,489.22,312.24,492.24Z"/><path class="cls-11" d="M330.5,493.52h-8.8a3.89,3.89,0,0,0,4.14,3.66,4.15,4.15,0,0,0,3.22-1.38l.8.92a5.56,5.56,0,0,1-9.58-3.64,5.08,5.08,0,0,1,5.14-5.35,5,5,0,0,1,5.1,5.35C330.52,493.2,330.5,493.36,330.5,493.52Zm-8.8-1.06h7.46a3.74,3.74,0,0,0-7.46,0Z"/><path class="cls-11" d="M333.42,483.49h1.42v14.85h-1.42Z"/><path class="cls-11" d="M349.34,487.73v1.39c-.12,0-.24,0-.34,0-2.2,0-3.54,1.41-3.54,3.89v5.36H344V487.81h1.36v2.07A4,4,0,0,1,349.34,487.73Z"/><path class="cls-11" d="M361,493.52h-8.8a3.89,3.89,0,0,0,4.14,3.66,4.15,4.15,0,0,0,3.22-1.38l.8.92a5.56,5.56,0,0,1-9.58-3.64,5.08,5.08,0,0,1,5.14-5.35,5,5,0,0,1,5.1,5.35C361,493.2,361,493.36,361,493.52Zm-8.8-1.06h7.46a3.74,3.74,0,0,0-7.46,0Z"/><path class="cls-11" d="M374.54,493.08a5.09,5.09,0,0,1-5.24,5.36,4.59,4.59,0,0,1-4-2.08v5.86h-1.42V487.81h1.36v2.09a4.59,4.59,0,0,1,4.06-2.17A5.1,5.1,0,0,1,374.54,493.08Zm-1.42,0a3.92,3.92,0,1,0-3.92,4.1A3.88,3.88,0,0,0,373.12,493.08Z"/><path class="cls-11" d="M376.38,493.08a5.35,5.35,0,1,1,5.36,5.36A5.18,5.18,0,0,1,376.38,493.08Zm9.26,0a3.91,3.91,0,1,0-3.9,4.1A3.84,3.84,0,0,0,385.64,493.08Z"/><path class="cls-11" d="M395.28,487.73v1.39c-.12,0-.24,0-.34,0-2.2,0-3.54,1.41-3.54,3.89v5.36H390V487.81h1.36v2.07A4,4,0,0,1,395.28,487.73Z"/><path class="cls-11" d="M403.84,497.7a3.38,3.38,0,0,1-2.22.74,2.79,2.79,0,0,1-3.08-3.06V489h-1.88v-1.2h1.88v-2.3H400v2.3h3.2V489H400v6.29a1.68,1.68,0,0,0,1.82,1.92,2.35,2.35,0,0,0,1.56-.54Z"/><path class="cls-11" d="M415.2,493.52h-8.8a3.89,3.89,0,0,0,4.14,3.66,4.15,4.15,0,0,0,3.22-1.38l.8.92a5.56,5.56,0,0,1-9.58-3.64,5.08,5.08,0,0,1,5.14-5.35,5,5,0,0,1,5.1,5.35C415.22,493.2,415.2,493.36,415.2,493.52Zm-8.8-1.06h7.46a3.74,3.74,0,0,0-7.46,0Z"/><path class="cls-11" d="M425.76,491.82v6.52H424.4V496.7a4,4,0,0,1-3.62,1.74c-2.38,0-3.84-1.24-3.84-3.06,0-1.62,1-3,4.06-3h3.34v-.64c0-1.8-1-2.79-3-2.79a5.37,5.37,0,0,0-3.5,1.25l-.64-1.06a6.69,6.69,0,0,1,4.28-1.43C424.22,487.73,425.76,489.09,425.76,491.82Zm-1.42,3.36v-1.72H421c-2,0-2.7.8-2.7,1.88s1,2,2.66,2A3.37,3.37,0,0,0,424.34,495.18Z"/><path class="cls-11" d="M439.26,483.49v14.85H437.9v-2.08a4.56,4.56,0,0,1-4.06,2.18,5.36,5.36,0,0,1,0-10.71,4.6,4.6,0,0,1,4,2.09v-6.33Zm-1.4,9.59a3.91,3.91,0,1,0-3.9,4.1A3.86,3.86,0,0,0,437.86,493.08Z"/><path class="cls-11" d="M442.16,493.08a5.35,5.35,0,1,1,5.36,5.36A5.18,5.18,0,0,1,442.16,493.08Zm9.26,0a3.91,3.91,0,1,0-3.9,4.1A3.84,3.84,0,0,0,451.42,493.08Z"/><path class="cls-11" d="M461.06,487.73v1.39c-.12,0-.24,0-.34,0-2.2,0-3.54,1.41-3.54,3.89v5.36h-1.42V487.81h1.36v2.07A4,4,0,0,1,461.06,487.73Z"/></g></g><g id="Mejor_marca_Imagen_ESI_mejorado_" data-name="Mejor marca Imagen ESI mejorado " class="cls-10"><g class="cls-10"><path class="cls-11" d="M602.79,422.56v14h-1.42v-11.2l-5.5,9.42h-.7l-5.5-9.36v11.14h-1.42v-14h1.22l6.08,10.38,6-10.38Z"/><path class="cls-11" d="M616.21,431.74h-8.8a3.89,3.89,0,0,0,4.14,3.66,4.15,4.15,0,0,0,3.22-1.38l.8.92A5.56,5.56,0,0,1,606,431.3a5.07,5.07,0,0,1,5.14-5.34,5,5,0,0,1,5.1,5.34C616.23,431.42,616.21,431.58,616.21,431.74Zm-8.8-1.06h7.46a3.74,3.74,0,0,0-7.46,0Z"/><path class="cls-11" d="M615.35,439.86l.5-1.08a2.46,2.46,0,0,0,1.64.54c1.12,0,1.74-.68,1.74-2V426h1.42v11.3a2.88,2.88,0,0,1-3.08,3.2A3.46,3.46,0,0,1,615.35,439.86Zm3.56-17.14a1,1,0,0,1,1-1,1,1,0,0,1,1,1,1,1,0,0,1-2.08,0Z"/><path class="cls-11" d="M623.55,431.3a5.35,5.35,0,1,1,5.36,5.36A5.17,5.17,0,0,1,623.55,431.3Zm9.26,0a3.91,3.91,0,1,0-3.9,4.1A3.84,3.84,0,0,0,632.81,431.3Z"/><path class="cls-11" d="M642.45,426v1.38l-.34,0c-2.2,0-3.54,1.4-3.54,3.88v5.36h-1.42V426h1.36v2.06A4,4,0,0,1,642.45,426Z"/><path class="cls-11" d="M667.77,430.46v6.1h-1.42v-6c0-2.22-1.12-3.36-3-3.36-2.16,0-3.52,1.4-3.52,3.8v5.52h-1.42v-6c0-2.22-1.12-3.36-3-3.36-2.14,0-3.52,1.4-3.52,3.8v5.52h-1.42V426h1.36V428a4.25,4.25,0,0,1,3.86-2,3.78,3.78,0,0,1,3.74,2.22,4.58,4.58,0,0,1,4.16-2.22C666.09,426,667.77,427.44,667.77,430.46Z"/><path class="cls-11" d="M679.57,430v6.52h-1.36v-1.64a4,4,0,0,1-3.62,1.74c-2.38,0-3.84-1.24-3.84-3.06,0-1.62,1-3,4.06-3h3.34V430c0-1.8-1-2.78-3-2.78a5.36,5.36,0,0,0-3.5,1.24l-.64-1.06a6.68,6.68,0,0,1,4.28-1.42C678,426,679.57,427.32,679.57,430Zm-1.42,3.36v-1.72h-3.3c-2,0-2.7.8-2.7,1.88s1,2,2.66,2A3.37,3.37,0,0,0,678.15,433.4Z"/><path class="cls-11" d="M688.73,426v1.38l-.34,0c-2.2,0-3.54,1.4-3.54,3.88v5.36h-1.42V426h1.36v2.06A4,4,0,0,1,688.73,426Z"/><path class="cls-11" d="M690.13,431.3a5.18,5.18,0,0,1,5.42-5.34,4.59,4.59,0,0,1,4.12,2.08l-1.06.72a3.58,3.58,0,0,0-3.06-1.56,4.1,4.1,0,0,0,0,8.2,3.56,3.56,0,0,0,3.06-1.54l1.06.72a4.64,4.64,0,0,1-4.12,2.08A5.19,5.19,0,0,1,690.13,431.3Z"/><path class="cls-11" d="M710.39,430v6.52H709v-1.64a4,4,0,0,1-3.62,1.74c-2.38,0-3.84-1.24-3.84-3.06,0-1.62,1-3,4.06-3H709V430c0-1.8-1-2.78-3-2.78a5.36,5.36,0,0,0-3.5,1.24l-.64-1.06a6.68,6.68,0,0,1,4.28-1.42C708.85,426,710.39,427.32,710.39,430ZM709,433.4v-1.72h-3.3c-2,0-2.7.8-2.7,1.88s1,2,2.66,2A3.37,3.37,0,0,0,709,433.4Z"/></g><g class="cls-10"><path class="cls-11" d="M588.25,446.56h1.48v14h-1.48Z"/><path class="cls-11" d="M611.35,454.46v6.1h-1.42v-6c0-2.22-1.12-3.36-3-3.36-2.16,0-3.52,1.4-3.52,3.8v5.52H602v-6c0-2.22-1.12-3.36-3-3.36-2.14,0-3.52,1.4-3.52,3.8v5.52H594V450h1.36V452a4.25,4.25,0,0,1,3.86-2,3.78,3.78,0,0,1,3.74,2.22,4.58,4.58,0,0,1,4.16-2.22C609.67,450,611.35,451.44,611.35,454.46Z"/><path class="cls-11" d="M623.15,454v6.52h-1.36v-1.64a4,4,0,0,1-3.62,1.74c-2.38,0-3.84-1.24-3.84-3.06,0-1.62,1-3,4.06-3h3.34V454c0-1.8-1-2.78-3-2.78a5.36,5.36,0,0,0-3.5,1.24l-.64-1.06a6.68,6.68,0,0,1,4.28-1.42C621.61,450,623.15,451.32,623.15,454Zm-1.42,3.36v-1.72h-3.3c-2,0-2.7.8-2.7,1.88s1,2,2.66,2A3.37,3.37,0,0,0,621.73,457.4Z"/><path class="cls-11" d="M636.79,450v9.24c0,3.62-1.78,5.26-5.26,5.26a7.34,7.34,0,0,1-4.9-1.62l.72-1.08a6.26,6.26,0,0,0,4.14,1.44c2.66,0,3.88-1.22,3.88-3.82v-1.34a4.73,4.73,0,0,1-4.1,2,5.1,5.1,0,1,1,0-10.2,4.75,4.75,0,0,1,4.16,2.1v-2Zm-1.38,5a4,4,0,1,0-4,3.86A3.76,3.76,0,0,0,635.41,455Z"/><path class="cls-11" d="M649.93,455.74h-8.8a3.89,3.89,0,0,0,4.14,3.66,4.15,4.15,0,0,0,3.22-1.38l.8.92a5.56,5.56,0,0,1-9.58-3.64,5.07,5.07,0,0,1,5.14-5.34,5,5,0,0,1,5.1,5.34C650,455.42,649.93,455.58,649.93,455.74Zm-8.8-1.06h7.46a3.74,3.74,0,0,0-7.46,0Z"/><path class="cls-11" d="M662.53,454.46v6.1h-1.42v-6c0-2.22-1.16-3.36-3.16-3.36a3.45,3.45,0,0,0-3.68,3.8v5.52h-1.42V450h1.36V452a4.42,4.42,0,0,1,4-2C660.77,450,662.53,451.44,662.53,454.46Z"/></g><g class="cls-10"><path class="cls-11" d="M598.15,483.28v1.28h-9.9v-14h9.6v1.28h-8.12v5H597v1.26h-7.24v5.2Z"/><path class="cls-11" d="M600.29,482.86l.58-1.14a6.87,6.87,0,0,0,4.62,1.7c2.62,0,3.76-1.1,3.76-2.48,0-3.84-8.62-1.48-8.62-6.66,0-2.06,1.6-3.84,5.16-3.84a7.9,7.9,0,0,1,4.34,1.24l-.5,1.18a7.21,7.21,0,0,0-3.84-1.16c-2.56,0-3.7,1.14-3.7,2.54,0,3.84,8.62,1.52,8.62,6.62,0,2.06-1.64,3.82-5.22,3.82A7.59,7.59,0,0,1,600.29,482.86Z"/><path class="cls-11" d="M613.93,470.56h1.48v14h-1.48Z"/><path class="cls-11" d="M642.27,478.46v6.1h-1.42v-6c0-2.22-1.12-3.36-3-3.36-2.16,0-3.52,1.4-3.52,3.8v5.52h-1.42v-6c0-2.22-1.12-3.36-3-3.36-2.14,0-3.52,1.4-3.52,3.8v5.52h-1.42V474h1.36V476a4.25,4.25,0,0,1,3.86-2,3.78,3.78,0,0,1,3.74,2.22A4.58,4.58,0,0,1,638,474C640.59,474,642.27,475.44,642.27,478.46Z"/><path class="cls-11" d="M655.33,479.74h-8.8a3.89,3.89,0,0,0,4.14,3.66,4.15,4.15,0,0,0,3.22-1.38l.8.92a5.56,5.56,0,0,1-9.58-3.64,5.07,5.07,0,0,1,5.14-5.34,5,5,0,0,1,5.1,5.34C655.35,479.42,655.33,479.58,655.33,479.74Zm-8.8-1.06H654a3.74,3.74,0,0,0-7.46,0Z"/><path class="cls-11" d="M654.47,487.86l.5-1.08a2.46,2.46,0,0,0,1.64.54c1.12,0,1.74-.68,1.74-2V474h1.42v11.3a2.88,2.88,0,0,1-3.08,3.2A3.46,3.46,0,0,1,654.47,487.86ZM658,470.72a1,1,0,0,1,1-1,1,1,0,0,1,1,1,1,1,0,0,1-2.08,0Z"/><path class="cls-11" d="M662.67,479.3a5.35,5.35,0,1,1,5.36,5.36A5.17,5.17,0,0,1,662.67,479.3Zm9.26,0a3.91,3.91,0,1,0-3.9,4.1A3.84,3.84,0,0,0,671.93,479.3Z"/><path class="cls-11" d="M681.57,474v1.38l-.34,0c-2.2,0-3.54,1.4-3.54,3.88v5.36h-1.42V474h1.36v2.06A4,4,0,0,1,681.57,474Z"/><path class="cls-11" d="M692.05,478v6.52h-1.36v-1.64a4,4,0,0,1-3.62,1.74c-2.38,0-3.84-1.24-3.84-3.06,0-1.62,1-3,4.06-3h3.34V478c0-1.8-1-2.78-3-2.78a5.36,5.36,0,0,0-3.5,1.24l-.64-1.06a6.68,6.68,0,0,1,4.28-1.42C690.51,474,692.05,475.32,692.05,478Zm-1.42,3.36v-1.72h-3.3c-2,0-2.7.8-2.7,1.88s1,2,2.66,2A3.37,3.37,0,0,0,690.63,481.4Z"/><path class="cls-11" d="M705.55,469.72v14.84h-1.36v-2.08a4.56,4.56,0,0,1-4.06,2.18,5.35,5.35,0,0,1,0-10.7,4.59,4.59,0,0,1,4,2.08v-6.32Zm-1.4,9.58a3.91,3.91,0,1,0-3.9,4.1A3.85,3.85,0,0,0,704.15,479.3Z"/><path class="cls-11" d="M708.45,479.3a5.35,5.35,0,1,1,5.36,5.36A5.17,5.17,0,0,1,708.45,479.3Zm9.26,0a3.91,3.91,0,1,0-3.9,4.1A3.84,3.84,0,0,0,717.71,479.3Z"/></g></g><g id="Exceptuado" class="cls-10"><g class="cls-10"><path class="cls-12" d="M334.55,345.17v1.28h-9.9v-14h9.6v1.28h-8.12v5h7.24V340h-7.24v5.21Z"/><path class="cls-12" d="M344.13,346.45,340.79,342l-3.36,4.41h-1.6L340,341l-4-5.12h1.6l3.16,4.12,3.16-4.12h1.56l-4,5.12,4.2,5.41Z"/><path class="cls-12" d="M346.67,341.19a5.18,5.18,0,0,1,5.42-5.35,4.59,4.59,0,0,1,4.12,2.08l-1.06.72a3.58,3.58,0,0,0-3.06-1.56,4.11,4.11,0,0,0,0,8.21,3.56,3.56,0,0,0,3.06-1.54l1.06.72a4.64,4.64,0,0,1-4.12,2.08A5.19,5.19,0,0,1,346.67,341.19Z"/><path class="cls-12" d="M368,341.62h-8.8a3.9,3.9,0,0,0,4.14,3.67,4.15,4.15,0,0,0,3.22-1.38l.8.92a5.56,5.56,0,0,1-9.58-3.64,5.07,5.07,0,0,1,5.14-5.35,5,5,0,0,1,5.1,5.35C368,341.31,368,341.46,368,341.62Zm-8.8-1.05h7.46a3.74,3.74,0,0,0-7.46,0Z"/><path class="cls-12" d="M381.55,341.19a5.09,5.09,0,0,1-5.24,5.36,4.59,4.59,0,0,1-4-2.08v5.86h-1.42V335.92h1.36V338a4.58,4.58,0,0,1,4.06-2.16A5.09,5.09,0,0,1,381.55,341.19Zm-1.42,0a3.92,3.92,0,1,0-3.92,4.1A3.88,3.88,0,0,0,380.13,341.19Z"/><path class="cls-12" d="M390,345.81a3.38,3.38,0,0,1-2.22.74,2.79,2.79,0,0,1-3.08-3.06v-6.37h-1.88v-1.2h1.88v-2.3h1.42v2.3h3.2v1.2h-3.2v6.29a1.68,1.68,0,0,0,1.82,1.92,2.35,2.35,0,0,0,1.56-.54Z"/><path class="cls-12" d="M402.05,335.92v10.53h-1.36v-1.92a4.18,4.18,0,0,1-3.78,2c-2.68,0-4.44-1.5-4.44-4.52v-6.11h1.42v6c0,2.24,1.16,3.38,3.16,3.38,2.2,0,3.58-1.42,3.58-3.82v-5.53Z"/><path class="cls-12" d="M414,339.92v6.53h-1.36v-1.64a4,4,0,0,1-3.62,1.74c-2.38,0-3.84-1.24-3.84-3.06,0-1.63,1-3,4.06-3h3.34v-.64c0-1.8-1-2.78-3-2.78a5.36,5.36,0,0,0-3.5,1.24l-.64-1.06a6.68,6.68,0,0,1,4.28-1.42C412.43,335.84,414,337.2,414,339.92Zm-1.42,3.36v-1.71h-3.3c-2,0-2.7.79-2.7,1.88s1,2,2.66,2A3.36,3.36,0,0,0,412.55,343.28Z"/><path class="cls-12" d="M427.47,331.6v14.85h-1.36v-2.08a4.56,4.56,0,0,1-4.06,2.18,5.36,5.36,0,0,1,0-10.71,4.59,4.59,0,0,1,4,2.08V331.6Zm-1.4,9.59a3.91,3.91,0,1,0-3.9,4.1A3.85,3.85,0,0,0,426.07,341.19Z"/><path class="cls-12" d="M430.37,341.19a5.35,5.35,0,1,1,5.36,5.36A5.18,5.18,0,0,1,430.37,341.19Zm9.26,0a3.91,3.91,0,1,0-3.9,4.1A3.84,3.84,0,0,0,439.63,341.19Z"/></g></g><g id="Exceptuado_o_Anticipado" data-name="Exceptuado o Anticipado" class="cls-10"><g class="cls-10"><path class="cls-12" d="M600.26,339.19v1.28h-9.9v-14H600v1.28h-8.12v5h7.24V334h-7.24v5.2Z"/><path class="cls-12" d="M609.84,340.47l-3.34-4.4-3.36,4.4h-1.6l4.16-5.4-4-5.12h1.6l3.16,4.12,3.16-4.12h1.56l-4,5.12,4.2,5.4Z"/><path class="cls-12" d="M612.38,335.21a5.18,5.18,0,0,1,5.42-5.34,4.59,4.59,0,0,1,4.12,2.08l-1.06.72a3.58,3.58,0,0,0-3.06-1.56,4.1,4.1,0,0,0,0,8.2,3.56,3.56,0,0,0,3.06-1.54l1.06.72a4.64,4.64,0,0,1-4.12,2.08A5.19,5.19,0,0,1,612.38,335.21Z"/><path class="cls-12" d="M633.68,335.65h-8.8a3.89,3.89,0,0,0,4.14,3.66,4.15,4.15,0,0,0,3.22-1.38l.8.92a5.56,5.56,0,0,1-9.58-3.64,5.07,5.07,0,0,1,5.14-5.34,5,5,0,0,1,5.1,5.34C633.7,335.33,633.68,335.49,633.68,335.65Zm-8.8-1.06h7.46a3.74,3.74,0,0,0-7.46,0Z"/><path class="cls-12" d="M647.26,335.21a5.09,5.09,0,0,1-5.24,5.36,4.59,4.59,0,0,1-4-2.08v5.86H636.6V330H638V332a4.58,4.58,0,0,1,4.06-2.16A5.09,5.09,0,0,1,647.26,335.21Zm-1.42,0a3.92,3.92,0,1,0-3.92,4.1A3.87,3.87,0,0,0,645.84,335.21Z"/><path class="cls-12" d="M655.7,339.83a3.38,3.38,0,0,1-2.22.74,2.79,2.79,0,0,1-3.08-3.06v-6.36h-1.88V330h1.88v-2.3h1.42V330H655v1.2h-3.2v6.28a1.68,1.68,0,0,0,1.82,1.92,2.35,2.35,0,0,0,1.56-.54Z"/><path class="cls-12" d="M667.76,330v10.52H666.4v-1.92a4.18,4.18,0,0,1-3.78,2c-2.68,0-4.44-1.5-4.44-4.52V330h1.42v6c0,2.24,1.16,3.38,3.16,3.38,2.2,0,3.58-1.42,3.58-3.82V330Z"/><path class="cls-12" d="M679.68,334v6.52h-1.36v-1.64a4,4,0,0,1-3.62,1.74c-2.38,0-3.84-1.24-3.84-3.06,0-1.62,1-3,4.06-3h3.34v-.64c0-1.8-1-2.78-3-2.78a5.36,5.36,0,0,0-3.5,1.24l-.64-1.06a6.68,6.68,0,0,1,4.28-1.42C678.14,329.87,679.68,331.23,679.68,334Zm-1.42,3.36v-1.72H675c-2,0-2.7.8-2.7,1.88s1,2,2.66,2A3.37,3.37,0,0,0,678.26,337.31Z"/><path class="cls-12" d="M693.18,325.63v14.84h-1.36v-2.08a4.56,4.56,0,0,1-4.06,2.18,5.35,5.35,0,0,1,0-10.7,4.59,4.59,0,0,1,4,2.08v-6.32Zm-1.4,9.58a3.91,3.91,0,1,0-3.9,4.1A3.85,3.85,0,0,0,691.78,335.21Z"/><path class="cls-12" d="M696.08,335.21a5.35,5.35,0,1,1,5.36,5.36A5.17,5.17,0,0,1,696.08,335.21Zm9.26,0a3.91,3.91,0,1,0-3.9,4.1A3.84,3.84,0,0,0,705.34,335.21Z"/><path class="cls-12" d="M713.86,335.21a5.35,5.35,0,1,1,5.36,5.36A5.17,5.17,0,0,1,713.86,335.21Zm9.26,0a3.91,3.91,0,1,0-3.9,4.1A3.84,3.84,0,0,0,723.12,335.21Z"/></g><g class="cls-10"><path class="cls-12" d="M613.11,360.73h-7.8l-1.68,3.74h-1.54l6.4-14H610l6.4,14h-1.56Zm-.54-1.2L609.21,352l-3.36,7.52Z"/><path class="cls-12" d="M628.05,358.37v6.1h-1.42v-6c0-2.22-1.16-3.36-3.16-3.36a3.45,3.45,0,0,0-3.68,3.8v5.52h-1.42V354h1.36v1.94a4.42,4.42,0,0,1,4-2C626.29,353.87,628.05,355.35,628.05,358.37Z"/><path class="cls-12" d="M637.45,363.83a3.38,3.38,0,0,1-2.22.74,2.79,2.79,0,0,1-3.08-3.06v-6.36h-1.88V354h1.88v-2.3h1.42V354h3.2v1.2h-3.2v6.28a1.68,1.68,0,0,0,1.82,1.92,2.35,2.35,0,0,0,1.56-.54Z"/><path class="cls-12" d="M639.71,350.63a1,1,0,0,1,1-1,1,1,0,0,1,1,1,1,1,0,0,1-2.08,0ZM640,354h1.42v10.52H640Z"/><path class="cls-12" d="M644.35,359.21a5.18,5.18,0,0,1,5.42-5.34,4.59,4.59,0,0,1,4.12,2.08l-1.06.72a3.58,3.58,0,0,0-3.06-1.56,4.1,4.1,0,0,0,0,8.2,3.56,3.56,0,0,0,3.06-1.54l1.06.72a4.64,4.64,0,0,1-4.12,2.08A5.19,5.19,0,0,1,644.35,359.21Z"/><path class="cls-12" d="M656.35,350.63a1,1,0,0,1,1-1,1,1,0,0,1,1,1,1,1,0,0,1-2.08,0Zm.32,3.32h1.42v10.52h-1.42Z"/><path class="cls-12" d="M672.71,359.21a5.09,5.09,0,0,1-5.24,5.36,4.59,4.59,0,0,1-4-2.08v5.86h-1.42V354h1.36V356a4.58,4.58,0,0,1,4.06-2.16A5.09,5.09,0,0,1,672.71,359.21Zm-1.42,0a3.92,3.92,0,1,0-3.92,4.1A3.87,3.87,0,0,0,671.29,359.21Z"/><path class="cls-12" d="M683.49,358v6.52h-1.36v-1.64a4,4,0,0,1-3.62,1.74c-2.38,0-3.84-1.24-3.84-3.06,0-1.62,1-3,4.06-3h3.34v-.64c0-1.8-1-2.78-3-2.78a5.36,5.36,0,0,0-3.5,1.24l-.64-1.06a6.68,6.68,0,0,1,4.28-1.42C682,353.87,683.49,355.23,683.49,358Zm-1.42,3.36v-1.72h-3.3c-2,0-2.7.8-2.7,1.88s1,2,2.66,2A3.37,3.37,0,0,0,682.07,361.31Z"/><path class="cls-12" d="M697,349.63v14.84h-1.36v-2.08a4.56,4.56,0,0,1-4.06,2.18,5.35,5.35,0,0,1,0-10.7,4.59,4.59,0,0,1,4,2.08v-6.32Zm-1.4,9.58a3.91,3.91,0,1,0-3.9,4.1A3.85,3.85,0,0,0,695.59,359.21Z"/><path class="cls-12" d="M699.89,359.21a5.35,5.35,0,1,1,5.36,5.36A5.17,5.17,0,0,1,699.89,359.21Zm9.26,0a3.91,3.91,0,1,0-3.9,4.1A3.84,3.84,0,0,0,709.15,359.21Z"/></g></g><g id="Intangible" class="cls-10"><g class="cls-10"><path class="cls-12" d="M599.93,214.73h1.49v14h-1.49Z"/><path class="cls-12" d="M615.36,222.63v6.1h-1.42v-6c0-2.22-1.16-3.36-3.16-3.36a3.45,3.45,0,0,0-3.69,3.8v5.52h-1.42V218.21H607v1.94a4.43,4.43,0,0,1,4-2C613.6,218.13,615.36,219.61,615.36,222.63Z"/><path class="cls-12" d="M624.75,228.09a3.35,3.35,0,0,1-2.21.74,2.79,2.79,0,0,1-3.09-3.06v-6.36h-1.88v-1.2h1.88v-2.3h1.42v2.3h3.21v1.2h-3.21v6.28a1.68,1.68,0,0,0,1.82,1.92,2.31,2.31,0,0,0,1.56-.54Z"/><path class="cls-12" d="M635.28,222.21v6.52h-1.36v-1.64a4,4,0,0,1-3.63,1.74c-2.38,0-3.84-1.24-3.84-3.06,0-1.62,1-3,4.06-3h3.35v-.64c0-1.8-1-2.78-3-2.78a5.36,5.36,0,0,0-3.5,1.24l-.64-1.06a6.68,6.68,0,0,1,4.28-1.42C633.74,218.13,635.28,219.49,635.28,222.21Zm-1.42,3.36v-1.72h-3.31c-2,0-2.7.8-2.7,1.88s1,2,2.66,2A3.39,3.39,0,0,0,633.86,225.57Z"/><path class="cls-12" d="M648.82,222.63v6.1H647.4v-6c0-2.22-1.16-3.36-3.17-3.36a3.45,3.45,0,0,0-3.68,3.8v5.52h-1.42V218.21h1.36v1.94a4.43,4.43,0,0,1,4-2C647.06,218.13,648.82,219.61,648.82,222.63Z"/><path class="cls-12" d="M662.46,218.21v9.24c0,3.62-1.79,5.26-5.27,5.26a7.34,7.34,0,0,1-4.9-1.62L653,230a6.26,6.26,0,0,0,4.14,1.44c2.67,0,3.89-1.22,3.89-3.82v-1.34a4.74,4.74,0,0,1-4.11,2,5.1,5.1,0,1,1,0-10.2,4.76,4.76,0,0,1,4.17,2.1v-2Zm-1.38,5a4,4,0,1,0-4,3.86A3.77,3.77,0,0,0,661.08,223.21Z"/><path class="cls-12" d="M666.11,214.89a1,1,0,0,1,1-1,1,1,0,0,1,1,1,1,1,0,0,1-2.08,0Zm.32,3.32h1.42v10.52h-1.42Z"/><path class="cls-12" d="M682.48,223.47a5.11,5.11,0,0,1-5.25,5.36,4.56,4.56,0,0,1-4.06-2.18v2.08h-1.36V213.89h1.42v6.32a4.59,4.59,0,0,1,4-2.08A5.09,5.09,0,0,1,682.48,223.47Zm-1.43,0a3.92,3.92,0,1,0-3.92,4.1A3.86,3.86,0,0,0,681.05,223.47Z"/><path class="cls-12" d="M685.37,213.89h1.42v14.84h-1.42Z"/><path class="cls-12" d="M699.92,223.91h-8.81a3.89,3.89,0,0,0,4.14,3.66,4.15,4.15,0,0,0,3.22-1.38l.81.92a5.57,5.57,0,0,1-9.59-3.64,5.13,5.13,0,1,1,10.25,0C699.94,223.59,699.92,223.75,699.92,223.91Zm-8.81-1.06h7.47a3.74,3.74,0,0,0-7.47,0Z"/></g></g><rect id="Rectángulo_113" data-name="Rectángulo 113" class="cls-13" x="350" y="143" width="165" height="46" rx="7.72"/><rect id="Rectángulo_114" data-name="Rectángulo 114" class="cls-14" x="616" y="143" width="166" height="46" rx="7.72"/><g id="Duro" class="cls-10"><g class="cls-10"><path class="cls-12" d="M434.31,156.46H440c4.49,0,7.51,2.88,7.51,7s-3,7-7.51,7h-5.7Zm5.62,12.73c3.73,0,6.13-2.36,6.13-5.72s-2.4-5.73-6.13-5.73h-4.14v11.45Z"/><path class="cls-12" d="M460,159.94v10.53h-1.36v-1.92a4.18,4.18,0,0,1-3.78,2c-2.68,0-4.44-1.5-4.44-4.52v-6.11h1.42v6c0,2.24,1.16,3.38,3.16,3.38,2.2,0,3.58-1.42,3.58-3.82v-5.53Z"/><path class="cls-12" d="M469.29,159.86v1.39c-.12,0-.24,0-.34,0-2.2,0-3.54,1.41-3.54,3.89v5.36H464V159.94h1.36V162A4,4,0,0,1,469.29,159.86Z"/><path class="cls-12" d="M470.69,165.21a5.36,5.36,0,1,1,5.36,5.36A5.18,5.18,0,0,1,470.69,165.21Zm9.27,0a3.92,3.92,0,1,0-3.91,4.1A3.85,3.85,0,0,0,480,165.21Z"/></g></g><g id="Suave" class="cls-10"><g class="cls-10"><path class="cls-12" d="M699.77,168.77l.58-1.14a6.87,6.87,0,0,0,4.62,1.7c2.62,0,3.77-1.1,3.77-2.48,0-3.84-8.63-1.48-8.63-6.67,0-2.06,1.6-3.84,5.16-3.84a7.94,7.94,0,0,1,4.35,1.24l-.5,1.18a7.24,7.24,0,0,0-3.85-1.16c-2.56,0-3.7,1.14-3.7,2.54,0,3.85,8.63,1.53,8.63,6.63,0,2.06-1.65,3.82-5.23,3.82A7.59,7.59,0,0,1,699.77,168.77Z"/><path class="cls-12" d="M722.59,159.94v10.53h-1.36v-1.92a4.18,4.18,0,0,1-3.78,2c-2.68,0-4.44-1.5-4.44-4.52v-6.11h1.42v6c0,2.24,1.16,3.38,3.16,3.38,2.2,0,3.58-1.42,3.58-3.82v-5.53Z"/><path class="cls-12" d="M734.51,164v6.52h-1.36v-1.64a4,4,0,0,1-3.62,1.74c-2.38,0-3.84-1.24-3.84-3.06,0-1.62,1-3,4.06-3h3.34v-.64c0-1.8-1-2.79-3-2.79a5.41,5.41,0,0,0-3.5,1.24l-.64-1.05a6.63,6.63,0,0,1,4.28-1.43C733,159.86,734.51,161.22,734.51,164Zm-1.42,3.36v-1.72h-3.3c-2,0-2.7.8-2.7,1.88s1,2,2.66,2A3.37,3.37,0,0,0,733.09,167.31Z"/><path class="cls-12" d="M747,159.94l-4.68,10.53h-1.46l-4.66-10.53h1.48l3.94,9,4-9Z"/><path class="cls-12" d="M757.88,165.65h-8.81a3.89,3.89,0,0,0,4.14,3.66,4.15,4.15,0,0,0,3.22-1.38l.8.92a5.56,5.56,0,0,1-9.58-3.64,5.08,5.08,0,0,1,5.14-5.35,5,5,0,0,1,5.1,5.35C757.89,165.33,757.88,165.49,757.88,165.65Zm-8.81-1.06h7.46a3.74,3.74,0,0,0-7.46,0Z"/></g></g><path id="Trazado_295" data-name="Trazado 295" class="cls-15" d="M210.58,599.15V582.67H0V540.76H210.58V525.21a2,2,0,0,1,3.48-1.46l37,36.52a2,2,0,0,1,0,2.89h0l-37,37.42a2,2,0,0,1-3.5-1.44Z"/><path id="Trazado_296" data-name="Trazado 296" class="cls-16" d="M477.38,599.15V582.67H266.8V540.76H477.38V525.21a2,2,0,0,1,3.48-1.46l37,36.52a2,2,0,0,1,0,2.89h0l-37,37.42a2,2,0,0,1-3.5-1.44Z"/><path id="Trazado_297" data-name="Trazado 297" class="cls-17" d="M740.09,599.15V582.67H533.6V540.76H740.09V525.21a2,2,0,0,1,3.48-1.46l37,36.52a2,2,0,0,1,0,2.89h0l-37,37.42a2,2,0,0,1-3.5-1.44Z"/><g id="Término_Corto" data-name="Término Corto" class="cls-10"><g class="cls-10"><path class="cls-12" d="M37.12,553.34H32.2v-1.28H43.52v1.28H38.6v12.73H37.12Z"/><path class="cls-12" d="M53.64,561.25h-8.8A3.89,3.89,0,0,0,49,564.91a4.15,4.15,0,0,0,3.22-1.38l.8.92a5.18,5.18,0,0,1-4.06,1.72,5.21,5.21,0,0,1-5.52-5.36,5.07,5.07,0,0,1,5.14-5.35,5,5,0,0,1,5.1,5.35C53.66,560.93,53.64,561.09,53.64,561.25Zm-8.8-1.06H52.3a3.74,3.74,0,0,0-7.46,0Zm3.82-6.27h-1.4L50,551.44h1.9Z"/><path class="cls-12" d="M61.86,555.46v1.38l-.34,0c-2.2,0-3.54,1.4-3.54,3.89v5.36H56.56V555.54h1.36v2.06A4,4,0,0,1,61.86,555.46Z"/><path class="cls-12" d="M81.79,560v6.1H80.37v-6c0-2.23-1.12-3.37-3-3.37-2.16,0-3.52,1.4-3.52,3.81v5.52H72.4v-6c0-2.23-1.12-3.37-3-3.37-2.14,0-3.52,1.4-3.52,3.81v5.52H64.42V555.54h1.36v1.93a4.24,4.24,0,0,1,3.86-2,3.78,3.78,0,0,1,3.74,2.22,4.58,4.58,0,0,1,4.16-2.22C80.11,555.46,81.79,556.94,81.79,560Z"/><path class="cls-12" d="M85.32,552.22a1,1,0,0,1,1-1,1,1,0,0,1,1,1,1,1,0,0,1-2.08,0Zm.32,3.32h1.42v10.53H85.64Z"/><path class="cls-12" d="M100.7,560v6.1H99.28v-6c0-2.23-1.16-3.37-3.16-3.37a3.45,3.45,0,0,0-3.68,3.81v5.52H91V555.54h1.36v1.94a4.42,4.42,0,0,1,4-2C98.94,555.46,100.7,556.94,100.7,560Z"/><path class="cls-12" d="M103.54,560.81a5.35,5.35,0,1,1,5.36,5.36A5.18,5.18,0,0,1,103.54,560.81Zm9.26,0a3.91,3.91,0,1,0-3.9,4.1A3.84,3.84,0,0,0,112.8,560.81Z"/><path class="cls-12" d="M121.44,559.06a7,7,0,0,1,7.34-7.12,6.78,6.78,0,0,1,5.12,2l-.94.94a5.55,5.55,0,0,0-4.14-1.66,5.81,5.81,0,1,0,0,11.61,5.49,5.49,0,0,0,4.14-1.68l.94.94a6.81,6.81,0,0,1-5.14,2.06A7,7,0,0,1,121.44,559.06Z"/><path class="cls-12" d="M135.24,560.81a5.35,5.35,0,1,1,5.36,5.36A5.18,5.18,0,0,1,135.24,560.81Zm9.26,0a3.91,3.91,0,1,0-3.9,4.1A3.84,3.84,0,0,0,144.5,560.81Z"/><path class="cls-12" d="M154.14,555.46v1.38l-.34,0c-2.2,0-3.54,1.4-3.54,3.89v5.36h-1.42V555.54h1.36v2.06A4,4,0,0,1,154.14,555.46Z"/><path class="cls-12" d="M162.7,565.43a3.38,3.38,0,0,1-2.22.74,2.79,2.79,0,0,1-3.08-3.06v-6.37h-1.88v-1.2h1.88v-2.3h1.42v2.3H162v1.2h-3.2V563a1.68,1.68,0,0,0,1.82,1.92,2.35,2.35,0,0,0,1.56-.54Z"/><path class="cls-12" d="M163.84,560.81a5.35,5.35,0,1,1,5.36,5.36A5.18,5.18,0,0,1,163.84,560.81Zm9.26,0a3.91,3.91,0,1,0-3.9,4.1A3.84,3.84,0,0,0,173.1,560.81Z"/></g></g><g id="Término_Medio" data-name="Término Medio" class="cls-10"><g class="cls-10"><path class="cls-12" d="M308,553.34h-4.92v-1.28h11.32v1.28h-4.92v12.73H308Z"/><path class="cls-12" d="M324.53,561.25h-8.8a3.89,3.89,0,0,0,4.14,3.66,4.15,4.15,0,0,0,3.22-1.38l.8.92a5.56,5.56,0,0,1-9.58-3.64,5.07,5.07,0,0,1,5.14-5.35,5,5,0,0,1,5.1,5.35C324.55,560.93,324.53,561.09,324.53,561.25Zm-8.8-1.06h7.46a3.74,3.74,0,0,0-7.46,0Zm3.82-6.27h-1.4l2.74-2.48h1.9Z"/><path class="cls-12" d="M332.75,555.46v1.38l-.34,0c-2.2,0-3.54,1.4-3.54,3.89v5.36h-1.42V555.54h1.36v2.06A4,4,0,0,1,332.75,555.46Z"/><path class="cls-12" d="M352.67,560v6.1h-1.42v-6c0-2.23-1.12-3.37-3-3.37-2.16,0-3.52,1.4-3.52,3.81v5.52h-1.42v-6c0-2.23-1.12-3.37-3-3.37-2.14,0-3.52,1.4-3.52,3.81v5.52h-1.42V555.54h1.36v1.93a4.24,4.24,0,0,1,3.86-2,3.78,3.78,0,0,1,3.74,2.22,4.58,4.58,0,0,1,4.16-2.22C351,555.46,352.67,556.94,352.67,560Z"/><path class="cls-12" d="M356.21,552.22a1,1,0,0,1,1-1,1,1,0,0,1,1,1,1,1,0,0,1-2.08,0Zm.32,3.32H358v10.53h-1.42Z"/><path class="cls-12" d="M371.59,560v6.1h-1.42v-6c0-2.23-1.16-3.37-3.16-3.37a3.45,3.45,0,0,0-3.68,3.81v5.52h-1.42V555.54h1.36v1.94a4.42,4.42,0,0,1,4-2C369.83,555.46,371.59,556.94,371.59,560Z"/><path class="cls-12" d="M374.43,560.81a5.35,5.35,0,1,1,5.36,5.36A5.18,5.18,0,0,1,374.43,560.81Zm9.26,0a3.91,3.91,0,1,0-3.9,4.1A3.84,3.84,0,0,0,383.69,560.81Z"/><path class="cls-12" d="M408.11,552.06v14h-1.42V554.86l-5.5,9.43h-.7l-5.5-9.37v11.15h-1.42v-14h1.22l6.08,10.39,6-10.39Z"/><path class="cls-12" d="M421.53,561.25h-8.8a3.89,3.89,0,0,0,4.14,3.66,4.15,4.15,0,0,0,3.22-1.38l.8.92a5.56,5.56,0,0,1-9.58-3.64,5.07,5.07,0,0,1,5.14-5.35,5,5,0,0,1,5.1,5.35C421.55,560.93,421.53,561.09,421.53,561.25Zm-8.8-1.06h7.46a3.74,3.74,0,0,0-7.46,0Z"/><path class="cls-12" d="M434.05,551.22v14.85h-1.36V564a4.56,4.56,0,0,1-4.06,2.18,5.36,5.36,0,0,1,0-10.71,4.58,4.58,0,0,1,4,2.09v-6.33Zm-1.4,9.59a3.91,3.91,0,1,0-3.9,4.1A3.85,3.85,0,0,0,432.65,560.81Z"/><path class="cls-12" d="M437.69,552.22a1,1,0,0,1,1-1,1,1,0,0,1,1,1,1,1,0,0,1-2.08,0Zm.32,3.32h1.42v10.53H438Z"/><path class="cls-12" d="M442.33,560.81a5.35,5.35,0,1,1,5.36,5.36A5.18,5.18,0,0,1,442.33,560.81Zm9.26,0a3.91,3.91,0,1,0-3.9,4.1A3.84,3.84,0,0,0,451.59,560.81Z"/></g></g><g id="Término_Largo" data-name="Término Largo" class="cls-10"><g class="cls-10"><path class="cls-12" d="M574.81,553.34h-4.92v-1.28h11.32v1.28h-4.92v12.73h-1.48Z"/><path class="cls-12" d="M591.33,561.25h-8.8a3.89,3.89,0,0,0,4.14,3.66,4.15,4.15,0,0,0,3.22-1.38l.8.92a5.56,5.56,0,0,1-9.58-3.64,5.07,5.07,0,0,1,5.14-5.35,5,5,0,0,1,5.1,5.35C591.35,560.93,591.33,561.09,591.33,561.25Zm-8.8-1.06H590a3.74,3.74,0,0,0-7.46,0Zm3.82-6.27H585l2.74-2.48h1.9Z"/><path class="cls-12" d="M599.55,555.46v1.38l-.34,0c-2.2,0-3.54,1.4-3.54,3.89v5.36h-1.42V555.54h1.36v2.06A4,4,0,0,1,599.55,555.46Z"/><path class="cls-12" d="M619.47,560v6.1h-1.42v-6c0-2.23-1.12-3.37-3-3.37-2.16,0-3.52,1.4-3.52,3.81v5.52h-1.42v-6c0-2.23-1.12-3.37-3-3.37-2.14,0-3.52,1.4-3.52,3.81v5.52h-1.42V555.54h1.36v1.93a4.24,4.24,0,0,1,3.86-2,3.78,3.78,0,0,1,3.74,2.22,4.58,4.58,0,0,1,4.16-2.22C617.79,555.46,619.47,556.94,619.47,560Z"/><path class="cls-12" d="M623,552.22a1,1,0,0,1,1-1,1,1,0,0,1,1,1,1,1,0,0,1-2.08,0Zm.32,3.32h1.42v10.53h-1.42Z"/><path class="cls-12" d="M638.39,560v6.1H637v-6c0-2.23-1.16-3.37-3.16-3.37a3.45,3.45,0,0,0-3.68,3.81v5.52h-1.42V555.54h1.36v1.94a4.42,4.42,0,0,1,4-2C636.63,555.46,638.39,556.94,638.39,560Z"/><path class="cls-12" d="M641.23,560.81a5.35,5.35,0,1,1,5.36,5.36A5.18,5.18,0,0,1,641.23,560.81Zm9.26,0a3.91,3.91,0,1,0-3.9,4.1A3.84,3.84,0,0,0,650.49,560.81Z"/><path class="cls-12" d="M660.37,552.06h1.48v12.73h7.84v1.28h-9.32Z"/><path class="cls-12" d="M679.83,559.55v6.52h-1.36v-1.64a4,4,0,0,1-3.62,1.74c-2.38,0-3.84-1.24-3.84-3.06,0-1.62,1-3,4.06-3h3.34v-.64c0-1.81-1-2.79-3-2.79a5.36,5.36,0,0,0-3.5,1.24l-.64-1.06a6.68,6.68,0,0,1,4.28-1.42C678.29,555.46,679.83,556.82,679.83,559.55Zm-1.42,3.36v-1.72h-3.3c-2,0-2.7.8-2.7,1.88s1,2,2.66,2A3.37,3.37,0,0,0,678.41,562.91Z"/><path class="cls-12" d="M689,555.46v1.38l-.34,0c-2.2,0-3.54,1.4-3.54,3.89v5.36h-1.42V555.54h1.36v2.06A4,4,0,0,1,689,555.46Z"/><path class="cls-12" d="M701.19,555.54v9.25c0,3.62-1.78,5.26-5.26,5.26a7.34,7.34,0,0,1-4.9-1.62l.72-1.08a6.26,6.26,0,0,0,4.14,1.44c2.66,0,3.88-1.22,3.88-3.82v-1.34a4.73,4.73,0,0,1-4.1,2,5.11,5.11,0,1,1,0-10.21,4.75,4.75,0,0,1,4.16,2.1v-2Zm-1.38,5a4,4,0,1,0-4,3.86A3.76,3.76,0,0,0,699.81,560.55Z"/><path class="cls-12" d="M704.11,560.81a5.35,5.35,0,1,1,5.36,5.36A5.18,5.18,0,0,1,704.11,560.81Zm9.26,0a3.91,3.91,0,1,0-3.9,4.1A3.84,3.84,0,0,0,713.37,560.81Z"/></g></g></g></g></g></svg>