<svg xmlns="http://www.w3.org/2000/svg" viewBox="0 0 911.61 377.13"><defs><style>.cls-1{isolation:isolate;}.cls-2,.cls-3,.cls-4{fill:none;stroke-linecap:round;stroke-width:4px;}.cls-2{stroke:#426fb5;}.cls-3{stroke:#3daeab;}.cls-4{stroke:#efe34d;}.cls-5{fill:#426fb5;}.cls-6{fill:#3daeab;}.cls-7{fill:#efe34d;}.cls-8{fill:#f07e17;}</style></defs><title>Recurso 7</title><g id="Capa_2" data-name="Capa 2"><g id="Capa_1-2" data-name="Capa 1"><g id="Grupo_300" data-name="Grupo 300"><g id="Datos" class="cls-1"><g class="cls-1"><path d="M0,92.13H5.73c4.12,0,7,2.48,7,6.3s-2.83,6.3-6.95,6.3H0Zm5.58,10.21c2.5,0,4.14-1.5,4.14-3.91s-1.64-3.91-4.14-3.91H2.92v7.82Z"/><path d="M23.24,99.2v5.53H20.61v-1.2a3.18,3.18,0,0,1-2.95,1.35c-2.27,0-3.62-1.26-3.62-2.94S15.25,99,18.2,99h2.23c0-1.2-.72-1.91-2.23-1.91a4.7,4.7,0,0,0-2.79.9l-1-2a7.42,7.42,0,0,1,4.18-1.17C21.53,94.9,23.24,96.27,23.24,99.2Zm-2.81,2.47v-1H18.5c-1.31,0-1.72.49-1.72,1.13s.59,1.18,1.58,1.18A2.07,2.07,0,0,0,20.43,101.67Z"/><path d="M32,104.26a4,4,0,0,1-2.28.62c-2.29,0-3.62-1.17-3.62-3.48v-4h-1.5V95.26h1.5V92.9h2.81v2.36h2.41v2.16H28.93v3.94a1.13,1.13,0,0,0,1.2,1.28,1.87,1.87,0,0,0,1.14-.36Z"/><path d="M32.58,99.89a5,5,0,0,1,5.33-5,5,5,0,1,1,0,10A5,5,0,0,1,32.58,99.89Zm7.8,0a2.49,2.49,0,1,0-2.47,2.68A2.44,2.44,0,0,0,40.38,99.89Z"/><path d="M44.15,103.83l.94-2a6.61,6.61,0,0,0,3.37.94c1.29,0,1.78-.34,1.78-.88,0-1.59-5.85,0-5.85-3.84,0-1.83,1.65-3.13,4.48-3.13a8,8,0,0,1,3.73.85l-.94,2A5.56,5.56,0,0,0,48.87,97c-1.26,0-1.8.39-1.8.9,0,1.65,5.85,0,5.85,3.87,0,1.8-1.67,3.08-4.57,3.08A8.27,8.27,0,0,1,44.15,103.83Z"/></g></g><g id="Cualitativo" class="cls-1"><g class="cls-1"><path d="M230.42,29.78c0-3.8,2.92-6.52,6.84-6.52a6.52,6.52,0,0,1,5.19,2.23l-1.87,1.73a4.06,4.06,0,0,0-3.17-1.47,3.87,3.87,0,0,0-4,4,3.87,3.87,0,0,0,4,4,4,4,0,0,0,3.17-1.49l1.87,1.73a6.93,6.93,0,0,1-12-4.27Z"/><path d="M253.72,26.39v9.69h-2.67V34.93a3.92,3.92,0,0,1-3,1.3c-2.43,0-4.14-1.37-4.14-4.36V26.39h2.81v5.06c0,1.62.72,2.34,2,2.34s2.24-.82,2.24-2.61V26.39Z"/><path d="M264.89,30.55v5.53h-2.63v-1.2a3.18,3.18,0,0,1-2.95,1.35c-2.27,0-3.62-1.27-3.62-2.94s1.21-2.9,4.16-2.9h2.23c0-1.21-.72-1.91-2.23-1.91a4.72,4.72,0,0,0-2.79.9l-1-2a7.44,7.44,0,0,1,4.18-1.17C263.18,26.25,264.89,27.62,264.89,30.55ZM262.08,33V32h-1.92c-1.32,0-1.73.49-1.73,1.13s.59,1.17,1.58,1.17A2.06,2.06,0,0,0,262.08,33Z"/><path d="M267.43,22.72h2.81V36.08h-2.81Z"/><path d="M272.5,23.48a1.61,1.61,0,0,1,1.75-1.57A1.58,1.58,0,0,1,276,23.42a1.76,1.76,0,0,1-3.5.06Zm.35,2.91h2.81v9.69h-2.81Z"/><path d="M284.51,35.61a4,4,0,0,1-2.28.62c-2.29,0-3.62-1.18-3.62-3.48v-4h-1.5V26.61h1.5V24.25h2.81v2.36h2.41v2.16h-2.41v3.94a1.13,1.13,0,0,0,1.2,1.28,1.87,1.87,0,0,0,1.14-.36Z"/><path d="M294.67,30.55v5.53H292v-1.2a3.2,3.2,0,0,1-3,1.35c-2.26,0-3.62-1.27-3.62-2.94s1.21-2.9,4.16-2.9h2.24c0-1.21-.72-1.91-2.24-1.91a4.74,4.74,0,0,0-2.79.9l-1-2A7.38,7.38,0,0,1,290,26.25C293,26.25,294.67,27.62,294.67,30.55ZM291.86,33V32h-1.93c-1.31,0-1.73.49-1.73,1.13s.6,1.17,1.59,1.17A2.08,2.08,0,0,0,291.86,33Z"/><path d="M303.45,35.61a4,4,0,0,1-2.29.62c-2.28,0-3.62-1.18-3.62-3.48v-4h-1.49V26.61h1.49V24.25h2.81v2.36h2.41v2.16h-2.41v3.94A1.13,1.13,0,0,0,301.56,34a1.84,1.84,0,0,0,1.13-.36Z"/><path d="M304.69,23.48a1.6,1.6,0,0,1,1.74-1.57,1.58,1.58,0,0,1,1.75,1.51,1.75,1.75,0,0,1-3.49.06Zm.34,2.91h2.81v9.69H305Z"/><path d="M320.06,26.39,316,36.08h-2.9L309,26.39h2.9L314.59,33l2.77-6.59Z"/><path d="M320.22,31.24a5.33,5.33,0,1,1,5.33,5A5,5,0,0,1,320.22,31.24Zm7.8,0a2.48,2.48,0,1,0-4.95,0,2.48,2.48,0,1,0,4.95,0Z"/></g></g><g id="Cuantitativo" class="cls-1"><g class="cls-1"><path d="M222.27,166.13c0-3.8,2.92-6.52,6.85-6.52a6.51,6.51,0,0,1,5.18,2.23l-1.87,1.73a4.06,4.06,0,0,0-3.17-1.47,4,4,0,0,0,0,8.06,4,4,0,0,0,3.17-1.49l1.87,1.73a6.93,6.93,0,0,1-12-4.27Z"/><path d="M245.57,162.74v9.69H242.9v-1.15a3.9,3.9,0,0,1-3,1.3c-2.43,0-4.14-1.37-4.14-4.36v-5.48h2.8v5.06c0,1.62.72,2.34,2,2.34s2.23-.82,2.23-2.61v-4.79Z"/><path d="M256.75,166.9v5.53h-2.63v-1.2a3.2,3.2,0,0,1-3,1.35c-2.26,0-3.62-1.27-3.62-2.94s1.21-2.9,4.16-2.9h2.24c0-1.21-.72-1.91-2.24-1.91a4.74,4.74,0,0,0-2.79.9l-1-2a7.38,7.38,0,0,1,4.17-1.17C255,162.6,256.75,164,256.75,166.9Zm-2.81,2.47v-1H252c-1.31,0-1.73.49-1.73,1.13s.6,1.18,1.59,1.18A2.09,2.09,0,0,0,253.94,169.37Z"/><path d="M269.18,166.89v5.54h-2.8v-5.11c0-1.57-.72-2.29-2-2.29s-2.32.83-2.32,2.61v4.79h-2.81v-9.69H262v1.14a4.24,4.24,0,0,1,3.21-1.28C267.46,162.6,269.18,163.93,269.18,166.89Z"/><path d="M278,172a4,4,0,0,1-2.29.62c-2.29,0-3.62-1.18-3.62-3.48v-4h-1.49V163h1.49V160.6h2.81V163h2.41v2.16h-2.41v3.94a1.13,1.13,0,0,0,1.21,1.28,1.86,1.86,0,0,0,1.13-.36Z"/><path d="M279.21,159.83a1.6,1.6,0,0,1,1.74-1.57,1.58,1.58,0,0,1,1.75,1.51,1.75,1.75,0,0,1-3.49.06Zm.34,2.91h2.81v9.69h-2.81Z"/><path d="M291.21,172a4,4,0,0,1-2.28.62c-2.29,0-3.62-1.18-3.62-3.48v-4h-1.5V163h1.5V160.6h2.81V163h2.41v2.16h-2.41v3.94a1.13,1.13,0,0,0,1.2,1.28,1.87,1.87,0,0,0,1.14-.36Z"/><path d="M301.37,166.9v5.53h-2.63v-1.2a3.18,3.18,0,0,1-2.95,1.35c-2.27,0-3.62-1.27-3.62-2.94s1.2-2.9,4.16-2.9h2.23c0-1.21-.72-1.91-2.23-1.91a4.7,4.7,0,0,0-2.79.9l-1-2a7.41,7.41,0,0,1,4.17-1.17C299.66,162.6,301.37,164,301.37,166.9Zm-2.81,2.47v-1h-1.93c-1.31,0-1.73.49-1.73,1.13s.6,1.18,1.59,1.18A2.09,2.09,0,0,0,298.56,169.37Z"/><path d="M310.15,172a4,4,0,0,1-2.29.62c-2.28,0-3.61-1.18-3.61-3.48v-4h-1.5V163h1.5V160.6h2.8V163h2.42v2.16h-2.42v3.94a1.13,1.13,0,0,0,1.21,1.28,1.84,1.84,0,0,0,1.13-.36Z"/><path d="M311.39,159.83a1.6,1.6,0,0,1,1.75-1.57,1.57,1.57,0,0,1,1.74,1.51,1.75,1.75,0,0,1-3.49.06Zm.34,2.91h2.81v9.69h-2.81Z"/><path d="M326.77,162.74l-4.09,9.69h-2.9l-4.07-9.69h2.9l2.68,6.59,2.77-6.59Z"/><path d="M326.92,167.59a5.34,5.34,0,1,1,5.33,5A5,5,0,0,1,326.92,167.59Zm7.8,0a2.48,2.48,0,1,0-2.47,2.68A2.45,2.45,0,0,0,334.72,167.59Z"/></g></g><g id="Datos_Discretos" data-name="Datos Discretos" class="cls-1"><g class="cls-1"><path d="M475.79,92.13h5.72c4.13,0,6.95,2.48,6.95,6.3s-2.82,6.3-6.95,6.3h-5.72Zm5.58,10.21c2.5,0,4.14-1.5,4.14-3.91s-1.64-3.91-4.14-3.91h-2.66v7.82Z"/><path d="M499,99.2v5.53H496.4v-1.2a3.18,3.18,0,0,1-2.95,1.35c-2.27,0-3.62-1.26-3.62-2.94S491,99,494,99h2.23c0-1.2-.72-1.91-2.23-1.91a4.7,4.7,0,0,0-2.79.9l-1-2a7.42,7.42,0,0,1,4.18-1.17C497.32,94.9,499,96.27,499,99.2Zm-2.81,2.47v-1h-1.93c-1.31,0-1.73.49-1.73,1.13s.6,1.18,1.59,1.18A2.07,2.07,0,0,0,496.22,101.67Z"/><path d="M507.81,104.26a4,4,0,0,1-2.28.62c-2.29,0-3.62-1.17-3.62-3.48v-4h-1.5V95.26h1.5V92.9h2.8v2.36h2.42v2.16h-2.42v3.94a1.14,1.14,0,0,0,1.21,1.28,1.87,1.87,0,0,0,1.14-.36Z"/><path d="M508.37,99.89a5.33,5.33,0,1,1,5.33,5A5,5,0,0,1,508.37,99.89Zm7.79,0a2.48,2.48,0,1,0-2.46,2.68A2.44,2.44,0,0,0,516.16,99.89Z"/><path d="M519.94,103.83l.94-2a6.61,6.61,0,0,0,3.37.94c1.29,0,1.78-.34,1.78-.88,0-1.59-5.85,0-5.85-3.84,0-1.83,1.65-3.13,4.48-3.13a8,8,0,0,1,3.73.85l-.94,2a5.56,5.56,0,0,0-2.79-.72c-1.26,0-1.8.39-1.8.9,0,1.65,5.85,0,5.85,3.87,0,1.8-1.67,3.08-4.57,3.08A8.27,8.27,0,0,1,519.94,103.83Z"/><path d="M535.73,92.13h5.72c4.13,0,6.95,2.48,6.95,6.3s-2.82,6.3-6.95,6.3h-5.72Zm5.58,10.21c2.5,0,4.14-1.5,4.14-3.91s-1.64-3.91-4.14-3.91h-2.67v7.82Z"/><path d="M550.06,92.13a1.61,1.61,0,0,1,1.74-1.57,1.58,1.58,0,0,1,1.75,1.51,1.75,1.75,0,0,1-3.49.06Zm.34,2.92h2.81v9.68H550.4Z"/><path d="M554.88,103.83l.94-2a6.57,6.57,0,0,0,3.36.94c1.3,0,1.78-.34,1.78-.88,0-1.59-5.85,0-5.85-3.84,0-1.83,1.66-3.13,4.49-3.13a7.92,7.92,0,0,1,3.72.85l-.93,2A5.58,5.58,0,0,0,559.6,97c-1.26,0-1.8.39-1.8.9,0,1.65,5.85,0,5.85,3.87,0,1.8-1.68,3.08-4.58,3.08A8.26,8.26,0,0,1,554.88,103.83Z"/><path d="M564.65,99.89c0-2.92,2.25-5,5.4-5a4.44,4.44,0,0,1,4.34,2.47l-2.18,1.17A2.4,2.4,0,0,0,570,97.21a2.68,2.68,0,0,0,0,5.36,2.36,2.36,0,0,0,2.17-1.33l2.18,1.19a4.49,4.49,0,0,1-4.34,2.45C566.9,104.88,564.65,102.81,564.65,99.89Z"/><path d="M582,94.9v2.59c-.23,0-.41,0-.63,0a2.38,2.38,0,0,0-2.57,2.7v4.57H576V95.05h2.68v1.27A3.94,3.94,0,0,1,582,94.9Z"/><path d="M593,100.68h-7.33a2.59,2.59,0,0,0,2.78,1.95,3.3,3.3,0,0,0,2.43-.94l1.49,1.62a5.06,5.06,0,0,1-4,1.57c-3.35,0-5.53-2.11-5.53-5a4.93,4.93,0,0,1,5.16-5,4.8,4.8,0,0,1,5.05,5C593.1,100.14,593.06,100.45,593,100.68ZM585.68,99h4.77a2.42,2.42,0,0,0-4.77,0Z"/><path d="M601.21,104.26a4,4,0,0,1-2.28.62c-2.29,0-3.62-1.17-3.62-3.48v-4h-1.5V95.26h1.5V92.9h2.81v2.36h2.41v2.16h-2.41v3.94a1.13,1.13,0,0,0,1.2,1.28,1.87,1.87,0,0,0,1.14-.36Z"/><path d="M601.77,99.89a5.33,5.33,0,1,1,5.33,5A5,5,0,0,1,601.77,99.89Zm7.8,0a2.49,2.49,0,1,0-2.47,2.68A2.44,2.44,0,0,0,609.57,99.89Z"/><path d="M613.34,103.83l.94-2a6.61,6.61,0,0,0,3.37.94c1.29,0,1.78-.34,1.78-.88,0-1.59-5.85,0-5.85-3.84,0-1.83,1.65-3.13,4.48-3.13a8,8,0,0,1,3.73.85l-.94,2a5.56,5.56,0,0,0-2.79-.72c-1.26,0-1.8.39-1.8.9,0,1.65,5.85,0,5.85,3.87,0,1.8-1.67,3.08-4.57,3.08A8.27,8.27,0,0,1,613.34,103.83Z"/></g></g><g id="Datos_Continuos" data-name="Datos Continuos" class="cls-1"><g class="cls-1"><path d="M470,227.53h5.73c4.12,0,6.95,2.48,6.95,6.3s-2.83,6.3-6.95,6.3H470Zm5.58,10.2c2.51,0,4.15-1.49,4.15-3.9s-1.64-3.91-4.15-3.91h-2.66v7.81Z"/><path d="M493.2,234.6v5.53h-2.63v-1.21a3.18,3.18,0,0,1-2.95,1.35c-2.27,0-3.62-1.26-3.62-2.93s1.21-2.9,4.16-2.9h2.23c0-1.21-.72-1.91-2.23-1.91a4.63,4.63,0,0,0-2.79.9l-1-2a7.42,7.42,0,0,1,4.18-1.17C491.49,230.3,493.2,231.67,493.2,234.6Zm-2.81,2.47v-1h-1.92c-1.32,0-1.73.48-1.73,1.13s.59,1.17,1.58,1.17A2.06,2.06,0,0,0,490.39,237.07Z"/><path d="M502,239.66a4,4,0,0,1-2.29.61c-2.29,0-3.62-1.17-3.62-3.47v-4h-1.49v-2.16h1.49V228.3h2.81v2.36h2.41v2.16h-2.41v3.94A1.13,1.13,0,0,0,500.1,238a1.93,1.93,0,0,0,1.13-.36Z"/><path d="M502.54,235.29a5.33,5.33,0,1,1,5.33,5C504.79,240.27,502.54,238.2,502.54,235.29Zm7.8,0a2.48,2.48,0,1,0-2.47,2.68A2.45,2.45,0,0,0,510.34,235.29Z"/><path d="M514.12,239.23l.93-2a6.63,6.63,0,0,0,3.37.94c1.3,0,1.78-.34,1.78-.88,0-1.59-5.85,0-5.85-3.84,0-1.84,1.66-3.13,4.48-3.13a8,8,0,0,1,3.73.84l-.94,2a5.53,5.53,0,0,0-2.79-.72c-1.26,0-1.8.4-1.8.9,0,1.66,5.85.06,5.85,3.87,0,1.8-1.67,3.08-4.57,3.08A8.33,8.33,0,0,1,514.12,239.23Z"/><path d="M529.11,233.83c0-3.8,2.92-6.52,6.84-6.52a6.52,6.52,0,0,1,5.19,2.23l-1.88,1.73a4,4,0,0,0-3.16-1.48,4,4,0,1,0,0,8.07,4,4,0,0,0,3.16-1.49l1.88,1.72a6.93,6.93,0,0,1-12-4.26Z"/><path d="M541.83,235.29c0-2.92,2.26-5,5.34-5a5,5,0,1,1,0,10C544.09,240.27,541.83,238.2,541.83,235.29Zm7.8,0a2.48,2.48,0,1,0-2.46,2.68A2.45,2.45,0,0,0,549.63,235.29Z"/><path d="M564.25,234.58v5.55h-2.81V235c0-1.57-.72-2.29-2-2.29s-2.33.83-2.33,2.61v4.79h-2.8v-9.69H557v1.14a4.22,4.22,0,0,1,3.2-1.28C562.52,230.3,564.25,231.63,564.25,234.58Z"/><path d="M573,239.66a4,4,0,0,1-2.29.61c-2.28,0-3.61-1.17-3.61-3.47v-4h-1.5v-2.16h1.5V228.3h2.8v2.36h2.42v2.16h-2.42v3.94a1.13,1.13,0,0,0,1.21,1.28,2,2,0,0,0,1.14-.36Z"/><path d="M574.27,227.53A1.6,1.6,0,0,1,576,226a1.57,1.57,0,0,1,1.74,1.51,1.75,1.75,0,0,1-3.49.06Zm.34,2.91h2.81v9.69h-2.81Z"/><path d="M589.93,234.58v5.55h-2.81V235c0-1.57-.71-2.29-2-2.29s-2.32.83-2.32,2.61v4.79H580v-9.69h2.68v1.14a4.24,4.24,0,0,1,3.21-1.28C588.21,230.3,589.93,231.63,589.93,234.58Z"/><path d="M602.23,230.44v9.69h-2.67V239a3.92,3.92,0,0,1-3,1.29c-2.44,0-4.14-1.37-4.14-4.35v-5.48h2.8v5.06c0,1.62.72,2.34,2,2.34s2.23-.83,2.23-2.61v-4.79Z"/><path d="M604.12,235.29a5.33,5.33,0,1,1,5.32,5A5,5,0,0,1,604.12,235.29Zm7.79,0a2.48,2.48,0,1,0-2.47,2.68A2.45,2.45,0,0,0,611.91,235.29Z"/><path d="M615.69,239.23l.93-2a6.63,6.63,0,0,0,3.37.94c1.3,0,1.78-.34,1.78-.88,0-1.59-5.85,0-5.85-3.84,0-1.84,1.66-3.13,4.49-3.13a8,8,0,0,1,3.72.84l-.93,2a5.58,5.58,0,0,0-2.79-.72c-1.26,0-1.8.4-1.8.9,0,1.66,5.85.06,5.85,3.87,0,1.8-1.68,3.08-4.58,3.08A8.36,8.36,0,0,1,615.69,239.23Z"/></g></g><g id="_5_niños_96_trabajadores_3_laptops" data-name=" 5 niños 96 trabajadores 3 laptops" class="cls-1"><g class="cls-1"><path d="M759.11,9.13a2.25,2.25,0,1,1,4.5,0,2.25,2.25,0,1,1-4.5,0Z"/><path d="M774.81,10.21c0,2.23-1.64,4.18-5.24,4.18A8.73,8.73,0,0,1,764.76,13l1.15-2.24a6.09,6.09,0,0,0,3.59,1.14c1.45,0,2.35-.61,2.35-1.64s-.64-1.64-2.93-1.64H765.7l.64-7.09H774V3.91h-5.25l-.2,2.39h1C773.33,6.3,774.81,8,774.81,10.21Z"/><path d="M791.58,8.62v5.55h-2.81V9.06c0-1.57-.72-2.29-2-2.29s-2.32.83-2.32,2.61v4.79h-2.81V4.48h2.68V5.62a4.24,4.24,0,0,1,3.21-1.28C789.85,4.34,791.58,5.67,791.58,8.62Z"/><path d="M793.78,1.57A1.6,1.6,0,0,1,795.52,0a1.58,1.58,0,0,1,1.75,1.51,1.75,1.75,0,0,1-3.49.06Zm.34,2.91h2.81v9.69h-2.81Z"/><path d="M809.44,8.62v5.55h-2.81V9.06c0-1.57-.72-2.29-2-2.29s-2.33.83-2.33,2.61v4.79h-2.8V4.48h2.68V5.62a4.22,4.22,0,0,1,3.2-1.28C807.71,4.34,809.44,5.67,809.44,8.62Zm-7-5.45h-1.42c0-1.6.84-2.63,2.11-2.63s1.87,1.15,2.51,1.15.83-.38.87-1H808c0,1.55-.84,2.57-2.1,2.57S804,2.16,803.33,2.16C802.85,2.16,802.51,2.52,802.47,3.17Z"/><path d="M811.36,9.33a5.33,5.33,0,1,1,5.33,5C813.61,14.31,811.36,12.24,811.36,9.33Zm7.8,0a2.48,2.48,0,1,0-4.95,0,2.48,2.48,0,1,0,4.95,0Z"/><path d="M822.93,13.27l.94-2a6.63,6.63,0,0,0,3.37.94c1.3,0,1.78-.34,1.78-.88,0-1.59-5.85,0-5.85-3.84,0-1.83,1.66-3.13,4.48-3.13a8,8,0,0,1,3.73.85l-.94,2a5.53,5.53,0,0,0-2.79-.72c-1.26,0-1.8.4-1.8.9,0,1.66,5.85.06,5.85,3.88,0,1.8-1.67,3.07-4.57,3.07A8.37,8.37,0,0,1,822.93,13.27Z"/></g><g class="cls-1"><path d="M759.11,30.13a2.25,2.25,0,1,1,4.5,0,2.25,2.25,0,1,1-4.5,0Z"/><path d="M775.35,28.6c0,4.36-2.61,6.79-6.43,6.79a6.71,6.71,0,0,1-3.49-.87l1.08-2.14a4,4,0,0,0,2.36.63c2.08,0,3.45-1.24,3.54-3.67a4.34,4.34,0,0,1-3.13,1.13c-2.43,0-4.34-1.55-4.34-3.93,0-2.57,2.11-4.19,4.77-4.19C773.2,22.35,775.35,24.53,775.35,28.6Zm-3.26-2.2c0-1.08-.81-1.87-2.2-1.87a1.89,1.89,0,1,0,0,3.76A2,2,0,0,0,772.09,26.4Z"/><path d="M787.16,31.19c0,2.58-2.11,4.2-4.78,4.2-3.47,0-5.63-2.18-5.63-6.25,0-4.36,2.63-6.79,6.43-6.79a6.91,6.91,0,0,1,3.51.86l-1.08,2.15a4.15,4.15,0,0,0-2.36-.63c-2.11,0-3.46,1.24-3.55,3.65a4.25,4.25,0,0,1,3.12-1.11C785.25,27.27,787.16,28.81,787.16,31.19Zm-2.83.14a1.9,1.9,0,0,0-2.14-1.89A2,2,0,0,0,780,31.33c0,1.09.81,1.88,2.21,1.88A1.89,1.89,0,0,0,784.33,31.33Z"/><path d="M800.15,34.7a4,4,0,0,1-2.29.61c-2.28,0-3.62-1.17-3.62-3.47v-4h-1.49V25.7h1.49V23.34h2.81V25.7h2.42v2.16h-2.42V31.8a1.13,1.13,0,0,0,1.21,1.28,1.84,1.84,0,0,0,1.13-.36Z"/><path d="M807.75,25.34v2.59c-.24,0-.42,0-.63,0a2.38,2.38,0,0,0-2.58,2.7v4.57h-2.81V25.48h2.69v1.28A3.91,3.91,0,0,1,807.75,25.34Z"/><path d="M817.93,29.64v5.53h-2.62V34a3.18,3.18,0,0,1-3,1.35c-2.27,0-3.62-1.26-3.62-2.93s1.21-2.9,4.16-2.9h2.24c0-1.21-.72-1.91-2.24-1.91a4.65,4.65,0,0,0-2.79.9l-1-2a7.44,7.44,0,0,1,4.18-1.17C816.22,25.34,817.93,26.71,817.93,29.64Zm-2.8,2.47v-1H813.2c-1.31,0-1.73.48-1.73,1.13s.6,1.17,1.59,1.17A2.08,2.08,0,0,0,815.13,32.11Z"/><path d="M831,30.33a4.7,4.7,0,0,1-4.82,5,3.76,3.76,0,0,1-3.05-1.26v1.12h-2.68V21.81h2.81v4.7a3.77,3.77,0,0,1,2.92-1.17A4.7,4.7,0,0,1,831,30.33Zm-2.84,0a2.48,2.48,0,1,0-4.94,0,2.48,2.48,0,1,0,4.94,0Z"/><path d="M841.3,29.64v5.53h-2.63V34a3.16,3.16,0,0,1-2.95,1.35c-2.27,0-3.62-1.26-3.62-2.93s1.2-2.9,4.16-2.9h2.23c0-1.21-.72-1.91-2.23-1.91a4.63,4.63,0,0,0-2.79.9l-1-2a7.42,7.42,0,0,1,4.18-1.17C839.59,25.34,841.3,26.71,841.3,29.64Zm-2.81,2.47v-1h-1.93c-1.31,0-1.73.48-1.73,1.13s.6,1.17,1.59,1.17A2.06,2.06,0,0,0,838.49,32.11Z"/><path d="M840.86,38.27l.76-2a2,2,0,0,0,1.19.34c.7,0,1.15-.45,1.15-1.4V25.48h2.81v9.67a3.37,3.37,0,0,1-3.66,3.66A4.17,4.17,0,0,1,840.86,38.27Zm2.76-15.7A1.6,1.6,0,0,1,845.36,21a1.58,1.58,0,0,1,1.75,1.51,1.75,1.75,0,0,1-3.49.06Z"/><path d="M857.93,29.64v5.53H855.3V34a3.16,3.16,0,0,1-2.95,1.35c-2.27,0-3.62-1.26-3.62-2.93s1.21-2.9,4.16-2.9h2.23c0-1.21-.72-1.91-2.23-1.91a4.63,4.63,0,0,0-2.79.9l-1-2a7.42,7.42,0,0,1,4.18-1.17C856.22,25.34,857.93,26.71,857.93,29.64Zm-2.81,2.47v-1h-1.93c-1.31,0-1.72.48-1.72,1.13s.59,1.17,1.58,1.17A2.06,2.06,0,0,0,855.12,32.11Z"/><path d="M870.44,21.81V35.17h-2.68V34.05a3.72,3.72,0,0,1-3,1.26,4.71,4.71,0,0,1-4.84-5,4.71,4.71,0,0,1,4.84-5,3.73,3.73,0,0,1,2.9,1.17v-4.7Zm-2.75,8.52a2.49,2.49,0,1,0-5,0,2.49,2.49,0,1,0,5,0Z"/><path d="M872.31,30.33a5.33,5.33,0,1,1,5.33,5C874.56,35.31,872.31,33.24,872.31,30.33Zm7.8,0a2.49,2.49,0,1,0-5,0,2.49,2.49,0,1,0,5,0Z"/><path d="M890.83,25.34v2.59c-.23,0-.41,0-.63,0a2.37,2.37,0,0,0-2.57,2.7v4.57h-2.81V25.48h2.68v1.28A3.94,3.94,0,0,1,890.83,25.34Z"/><path d="M901.85,31.12h-7.33a2.58,2.58,0,0,0,2.77,1.94,3.3,3.3,0,0,0,2.44-.93l1.49,1.62a5.09,5.09,0,0,1-4,1.56c-3.35,0-5.53-2.1-5.53-5a4.94,4.94,0,0,1,5.17-5,4.79,4.79,0,0,1,5,5C901.9,30.58,901.87,30.88,901.85,31.12Zm-7.36-1.64h4.77a2.31,2.31,0,0,0-2.38-2A2.29,2.29,0,0,0,894.49,29.48Z"/><path d="M902.84,34.27l.93-2a6.63,6.63,0,0,0,3.37.94c1.3,0,1.78-.34,1.78-.88,0-1.59-5.85,0-5.85-3.84,0-1.83,1.66-3.13,4.48-3.13a8,8,0,0,1,3.73.85l-.94,2a5.53,5.53,0,0,0-2.79-.72c-1.26,0-1.8.4-1.8.9,0,1.66,5.86.06,5.86,3.88,0,1.8-1.68,3.07-4.58,3.07A8.33,8.33,0,0,1,902.84,34.27Z"/></g><g class="cls-1"><path d="M759.11,51.13a2.25,2.25,0,1,1,4.5,0,2.25,2.25,0,1,1-4.5,0Z"/><path d="M774.23,52.32c0,2.12-1.64,4.07-5.22,4.07A8.73,8.73,0,0,1,764.2,55l1.14-2.24a6.1,6.1,0,0,0,3.6,1.14c1.46,0,2.36-.6,2.36-1.62s-.71-1.55-2.36-1.55H767.6V48.84l2.6-2.93h-5.37V43.57h8.83v1.89l-2.85,3.24C773.08,49.06,774.23,50.46,774.23,52.32Z"/><path d="M781.27,42.81h2.81V56.17h-2.81Z"/><path d="M795.25,50.64v5.53h-2.62V55a3.19,3.19,0,0,1-3,1.35c-2.27,0-3.62-1.26-3.62-2.93s1.21-2.9,4.16-2.9h2.24c0-1.21-.72-1.91-2.24-1.91a4.65,4.65,0,0,0-2.79.9l-1-2a7.44,7.44,0,0,1,4.18-1.17C793.54,46.34,795.25,47.71,795.25,50.64Zm-2.8,2.47v-1h-1.93c-1.32,0-1.73.48-1.73,1.13s.59,1.17,1.59,1.17A2.08,2.08,0,0,0,792.45,53.11Z"/><path d="M808.34,51.33a4.7,4.7,0,0,1-4.82,5,3.74,3.74,0,0,1-2.92-1.17v4.52h-2.81V46.48h2.68V47.6a3.76,3.76,0,0,1,3-1.26A4.7,4.7,0,0,1,808.34,51.33Zm-2.84,0A2.48,2.48,0,1,0,803,54,2.45,2.45,0,0,0,805.5,51.33Z"/><path d="M816.46,55.7a4,4,0,0,1-2.29.61c-2.29,0-3.62-1.17-3.62-3.47v-4h-1.49V46.7h1.49V44.34h2.81V46.7h2.41v2.16h-2.41V52.8a1.13,1.13,0,0,0,1.21,1.28,1.84,1.84,0,0,0,1.13-.36Z"/><path d="M817,51.33a5.34,5.34,0,1,1,5.33,5C819.26,56.31,817,54.24,817,51.33Zm7.8,0A2.48,2.48,0,1,0,822.34,54,2.45,2.45,0,0,0,824.81,51.33Z"/><path d="M840.08,51.33a4.7,4.7,0,0,1-4.83,5,3.74,3.74,0,0,1-2.92-1.17v4.52h-2.81V46.48h2.69V47.6a3.74,3.74,0,0,1,3-1.26A4.71,4.71,0,0,1,840.08,51.33Zm-2.85,0A2.47,2.47,0,1,0,834.76,54,2.45,2.45,0,0,0,837.23,51.33Z"/><path d="M841,55.27l.93-2a6.63,6.63,0,0,0,3.37.94c1.3,0,1.78-.34,1.78-.88,0-1.59-5.85,0-5.85-3.84,0-1.83,1.66-3.13,4.48-3.13a8,8,0,0,1,3.73.85l-.94,2a5.53,5.53,0,0,0-2.79-.72c-1.26,0-1.8.4-1.8.9,0,1.66,5.86.06,5.86,3.88,0,1.8-1.68,3.07-4.58,3.07A8.33,8.33,0,0,1,841,55.27Z"/></g></g><g id="_3.25_kg_1.32_millas_7.25_pulgadas" data-name=" 3.25 kg 1.32 millas 7.25 pulgadas" class="cls-1"><g class="cls-1"><path d="M759.11,283.74a2.25,2.25,0,1,1,4.5,0,2.25,2.25,0,1,1-4.5,0Z"/><path d="M774.23,284.92c0,2.13-1.64,4.07-5.22,4.07a8.65,8.65,0,0,1-4.81-1.35l1.14-2.23a6.09,6.09,0,0,0,3.6,1.13c1.46,0,2.36-.59,2.36-1.62s-.71-1.54-2.36-1.54H767.6v-1.93l2.6-2.94h-5.37v-2.34h8.83v1.89l-2.85,3.24C773.08,281.66,774.23,283.07,774.23,284.92Z"/><path d="M775.49,287.16a1.75,1.75,0,0,1,3.49,0,1.75,1.75,0,1,1-3.49,0Z"/><path d="M789.89,286.4v2.38h-9.52v-1.89l4.86-4.6c1.11-1.06,1.31-1.71,1.31-2.32,0-1-.68-1.56-2-1.56a3.06,3.06,0,0,0-2.61,1.26l-2.13-1.37a5.86,5.86,0,0,1,5-2.34c2.8,0,4.68,1.44,4.68,3.72,0,1.23-.35,2.34-2.11,4l-2.9,2.74Z"/><path d="M800.62,284.82c0,2.23-1.64,4.17-5.24,4.17a8.68,8.68,0,0,1-4.81-1.35l1.15-2.23a6.09,6.09,0,0,0,3.59,1.13c1.46,0,2.36-.61,2.36-1.63s-.65-1.64-2.94-1.64h-3.22l.65-7.1h7.68v2.34h-5.25l-.2,2.4h1C799.14,280.91,800.62,282.58,800.62,284.82Z"/><path d="M811.65,285l-1.35,1.33v2.47h-2.81V275.42h2.81V283l4.11-3.89h3.34l-4,4.1,4.39,5.59h-3.4Z"/><path d="M829,279.09v8.07c0,3.6-1.94,5.25-5.44,5.25a8,8,0,0,1-4.75-1.33l1.12-2a5.73,5.73,0,0,0,3.42,1.1c2,0,2.84-.9,2.84-2.64v-.42a4,4,0,0,1-3.06,1.21,4.68,4.68,0,1,1,0-9.36,3.92,3.92,0,0,1,3.21,1.38v-1.24Zm-2.77,4.54a2.56,2.56,0,1,0-2.54,2.37A2.35,2.35,0,0,0,826.18,283.63Z"/></g><g class="cls-1"><path d="M759.11,304.74a2.25,2.25,0,1,1,4.5,0,2.25,2.25,0,1,1-4.5,0Z"/><path d="M769.77,297.17v12.61h-2.92V299.51h-2.52v-2.34Z"/><path d="M771.87,308.16a1.75,1.75,0,0,1,3.49,0,1.75,1.75,0,1,1-3.49,0Z"/><path d="M786.17,305.92c0,2.13-1.64,4.07-5.23,4.07a8.59,8.59,0,0,1-4.8-1.35l1.13-2.23a6.12,6.12,0,0,0,3.6,1.13c1.46,0,2.36-.59,2.36-1.62s-.7-1.54-2.36-1.54h-1.33v-1.93l2.59-2.94h-5.36v-2.34h8.82v1.89l-2.85,3.24C785,302.66,786.17,304.07,786.17,305.92Z"/><path d="M796.84,307.4v2.38h-9.53v-1.89l4.86-4.6c1.12-1.06,1.32-1.71,1.32-2.32,0-1-.68-1.56-2-1.56a3.07,3.07,0,0,0-2.61,1.26l-2.12-1.37a5.84,5.84,0,0,1,5-2.34c2.81,0,4.68,1.44,4.68,3.72,0,1.23-.34,2.34-2.1,4l-2.9,2.74Z"/><path d="M820.1,304.23v5.55h-2.81v-5.12c0-1.56-.7-2.28-1.84-2.28s-2.14.81-2.14,2.54v4.86H810.5v-5.12c0-1.56-.67-2.28-1.84-2.28s-2.12.81-2.12,2.54v4.86h-2.81v-9.69h2.68v1.12a3.92,3.92,0,0,1,3.05-1.26,3.6,3.6,0,0,1,3.18,1.58,4.37,4.37,0,0,1,3.5-1.58C818.44,300,820.1,301.28,820.1,304.23Z"/><path d="M822.27,297.17a1.6,1.6,0,0,1,1.75-1.56,1.57,1.57,0,0,1,1.74,1.51,1.75,1.75,0,0,1-3.49.05Zm.34,2.92h2.81v9.69h-2.81Z"/><path d="M828,296.42h2.81v13.36H828Z"/><path d="M833.45,296.42h2.81v13.36h-2.81Z"/><path d="M847.44,304.25v5.53h-2.63v-1.21a3.19,3.19,0,0,1-3,1.35c-2.26,0-3.61-1.26-3.61-2.93s1.2-2.9,4.16-2.9h2.23c0-1.21-.72-1.91-2.23-1.91a4.68,4.68,0,0,0-2.8.9l-1-2a7.38,7.38,0,0,1,4.17-1.17C845.73,300,847.44,301.31,847.44,304.25Zm-2.81,2.47v-1H842.7c-1.31,0-1.73.48-1.73,1.13s.6,1.17,1.59,1.17A2.08,2.08,0,0,0,844.63,306.72Z"/><path d="M849,308.88l.93-2a6.63,6.63,0,0,0,3.37.94c1.3,0,1.78-.35,1.78-.89,0-1.58-5.85,0-5.85-3.83,0-1.84,1.66-3.13,4.48-3.13a8,8,0,0,1,3.73.84l-.94,2a5.53,5.53,0,0,0-2.79-.72c-1.26,0-1.8.4-1.8.9,0,1.66,5.85,0,5.85,3.87,0,1.8-1.67,3.08-4.57,3.08A8.33,8.33,0,0,1,849,308.88Z"/></g><g class="cls-1"><path d="M759.11,325.74a2.25,2.25,0,1,1,4.5,0,2.25,2.25,0,1,1-4.5,0Z"/><path d="M775,318.17v1.89l-4.68,10.72h-3.17l4.52-10.23h-4.18v2.05h-2.59v-4.43Z"/><path d="M775.29,329.16a1.75,1.75,0,0,1,3.49,0,1.75,1.75,0,1,1-3.49,0Z"/><path d="M789.69,328.4v2.38h-9.52v-1.89l4.86-4.6c1.12-1.06,1.31-1.71,1.31-2.32,0-1-.68-1.56-2-1.56a3.07,3.07,0,0,0-2.61,1.26l-2.13-1.37a5.86,5.86,0,0,1,5-2.34c2.81,0,4.68,1.44,4.68,3.72,0,1.23-.34,2.34-2.11,4l-2.9,2.74Z"/><path d="M800.42,326.82c0,2.23-1.64,4.17-5.24,4.17a8.68,8.68,0,0,1-4.81-1.35l1.16-2.23a6,6,0,0,0,3.58,1.13c1.46,0,2.36-.61,2.36-1.63s-.65-1.64-2.94-1.64h-3.22l.65-7.1h7.69v2.34h-5.26l-.2,2.4h1C798.94,322.91,800.42,324.58,800.42,326.82Z"/><path d="M817.84,325.93a4.7,4.7,0,0,1-4.82,5,3.77,3.77,0,0,1-2.92-1.17v4.52h-2.81V321.09H810v1.12a3.74,3.74,0,0,1,3-1.26A4.7,4.7,0,0,1,817.84,325.93Zm-2.84,0a2.47,2.47,0,1,0-2.47,2.69A2.44,2.44,0,0,0,815,325.93Z"/><path d="M829.47,321.09v9.69h-2.66v-1.16a3.92,3.92,0,0,1-3,1.3c-2.43,0-4.14-1.37-4.14-4.36v-5.47h2.81v5.06c0,1.62.72,2.34,2,2.34s2.23-.83,2.23-2.61v-4.79Z"/><path d="M832.08,317.42h2.81v13.36h-2.81Z"/><path d="M847.49,321.09v8.07c0,3.6-1.94,5.25-5.44,5.25a8,8,0,0,1-4.75-1.33l1.12-2a5.73,5.73,0,0,0,3.42,1.1c2,0,2.84-.9,2.84-2.64v-.42a4,4,0,0,1-3.06,1.21,4.68,4.68,0,1,1,0-9.36,3.92,3.92,0,0,1,3.21,1.38v-1.24Zm-2.77,4.54a2.56,2.56,0,1,0-2.54,2.37A2.35,2.35,0,0,0,844.72,325.63Z"/><path d="M858.67,325.25v5.53H856v-1.21a3.18,3.18,0,0,1-2.95,1.35c-2.27,0-3.62-1.26-3.62-2.93s1.2-2.9,4.16-2.9h2.23c0-1.21-.72-1.91-2.23-1.91a4.68,4.68,0,0,0-2.8.9l-1-2A7.41,7.41,0,0,1,854,321C857,321,858.67,322.31,858.67,325.25Zm-2.81,2.47v-1h-1.93c-1.31,0-1.73.48-1.73,1.13s.6,1.17,1.59,1.17A2.08,2.08,0,0,0,855.86,327.72Z"/><path d="M871.18,317.42v13.36H868.5v-1.12a3.73,3.73,0,0,1-3,1.26,5,5,0,0,1,0-10,3.69,3.69,0,0,1,2.9,1.17v-4.7Zm-2.76,8.51a2.48,2.48,0,1,0-2.46,2.69A2.45,2.45,0,0,0,868.42,325.93Z"/><path d="M882.34,325.25v5.53h-2.63v-1.21a3.19,3.19,0,0,1-3,1.35c-2.26,0-3.61-1.26-3.61-2.93s1.2-2.9,4.16-2.9h2.23c0-1.21-.72-1.91-2.23-1.91a4.68,4.68,0,0,0-2.8.9l-1-2a7.41,7.41,0,0,1,4.17-1.17C880.63,321,882.34,322.31,882.34,325.25Zm-2.81,2.47v-1H877.6c-1.31,0-1.73.48-1.73,1.13s.6,1.17,1.59,1.17A2.08,2.08,0,0,0,879.53,327.72Z"/><path d="M883.94,329.88l.93-2a6.63,6.63,0,0,0,3.37.94c1.3,0,1.78-.35,1.78-.89,0-1.58-5.85,0-5.85-3.83,0-1.84,1.66-3.13,4.48-3.13a8,8,0,0,1,3.73.84l-.94,2a5.53,5.53,0,0,0-2.79-.72c-1.26,0-1.8.4-1.8.9,0,1.66,5.86,0,5.86,3.87,0,1.8-1.68,3.08-4.58,3.08A8.33,8.33,0,0,1,883.94,329.88Z"/></g></g><line id="Línea_11" data-name="Línea 11" class="cls-2" x1="30.14" y1="134.33" x2="111.19" y2="134.33"/><line id="Línea_12" data-name="Línea 12" class="cls-2" x1="183.66" y1="68.54" x2="111.19" y2="134.33"/><line id="Línea_13" data-name="Línea 13" class="cls-2" x1="111.19" y1="134.33" x2="183.66" y2="214.42"/><line id="Línea_14" data-name="Línea 14" class="cls-2" x1="183.66" y1="68.54" x2="291.4" y2="68.54"/><line id="Línea_15" data-name="Línea 15" class="cls-2" x1="183.66" y1="214.42" x2="291.4" y2="214.42"/><line id="Línea_16" data-name="Línea 16" class="cls-3" x1="291.4" y1="214.42" x2="372.45" y2="214.42"/><line id="Línea_21" data-name="Línea 21" class="cls-4" x1="552.66" y1="135.28" x2="633.71" y2="135.28"/><line id="Línea_17" data-name="Línea 17" class="cls-3" x1="444.91" y1="135.28" x2="372.45" y2="214.42"/><line id="Línea_22" data-name="Línea 22" class="cls-4" x1="678.52" y1="92.37" x2="633.71" y2="135.28"/><line id="Línea_18" data-name="Línea 18" class="cls-3" x1="372.45" y1="214.42" x2="444.91" y2="269.72"/><line id="Línea_19" data-name="Línea 19" class="cls-3" x1="444.91" y1="135.28" x2="552.66" y2="135.28"/><line id="Línea_20" data-name="Línea 20" class="cls-3" x1="444.91" y1="269.72" x2="552.66" y2="269.72"/><line id="Línea_23" data-name="Línea 23" class="cls-4" x1="678.52" y1="92.37" x2="830.12" y2="92.37"/><line id="Línea_24" data-name="Línea 24" class="cls-4" x1="552.66" y1="269.72" x2="633.71" y2="269.72"/><line id="Línea_25" data-name="Línea 25" class="cls-4" x1="678.52" y1="366.98" x2="633.71" y2="269.72"/><line id="Línea_26" data-name="Línea 26" class="cls-4" x1="678.52" y1="366.98" x2="830.12" y2="366.98"/><ellipse id="Elipse_114" data-name="Elipse 114" class="cls-5" cx="29.43" cy="134.13" rx="11.5" ry="11"/><ellipse id="Elipse_115" data-name="Elipse 115" class="cls-6" cx="290.43" cy="69.13" rx="11.5" ry="11"/><ellipse id="Elipse_116" data-name="Elipse 116" class="cls-6" cx="290.43" cy="214.13" rx="11.5" ry="12"/><ellipse id="Elipse_117" data-name="Elipse 117" class="cls-7" cx="548.43" cy="134.13" rx="11.5" ry="11"/><ellipse id="Elipse_118" data-name="Elipse 118" class="cls-7" cx="548.43" cy="269.13" rx="11.5" ry="12"/><ellipse id="Elipse_119" data-name="Elipse 119" class="cls-8" cx="829.93" cy="91.13" rx="12" ry="11"/><ellipse id="Elipse_120" data-name="Elipse 120" class="cls-8" cx="817.93" cy="366.13" rx="12" ry="11"/></g></g></g></svg>