<svg xmlns="http://www.w3.org/2000/svg" width="36.548" height="36.549" viewBox="0 0 36.548 36.549">
  <g id="telephone" transform="translate(-0.006)">
    <g id="Grupo_805" data-name="Grupo 805" transform="translate(0.006)">
      <path id="Trazado_3472" data-name="Trazado 3472" d="M27.792,66.806a2.561,2.561,0,0,0-3.871,0c-.905.9-1.81,1.795-2.7,2.708a.533.533,0,0,1-.745.137c-.586-.319-1.209-.578-1.772-.928a28.077,28.077,0,0,1-6.769-6.16,16.036,16.036,0,0,1-2.426-3.886.557.557,0,0,1,.137-.715c.905-.875,1.787-1.772,2.677-2.67a2.571,2.571,0,0,0-.008-3.962c-.707-.715-1.415-1.415-2.122-2.13-.73-.73-1.453-1.468-2.19-2.19a2.577,2.577,0,0,0-3.871.008c-.913.9-1.787,1.818-2.715,2.7A4.407,4.407,0,0,0,.032,52.691a12.6,12.6,0,0,0,.974,5.423,32.952,32.952,0,0,0,5.849,9.743,36.193,36.193,0,0,0,11.986,9.378,17.335,17.335,0,0,0,6.64,1.932,4.866,4.866,0,0,0,4.175-1.59c.776-.867,1.65-1.658,2.472-2.487a2.587,2.587,0,0,0,.015-3.94Q29.975,68.97,27.792,66.806Z" transform="translate(-0.006 -42.628)" fill="#003b68"/>
      <path id="Trazado_3473" data-name="Trazado 3473" d="M246.1,106.815l2.806-.479A12.6,12.6,0,0,0,238.249,96l-.4,2.822a9.736,9.736,0,0,1,8.244,7.993Z" transform="translate(-219.764 -88.699)" fill="#003b68"/>
      <path id="Trazado_3474" data-name="Trazado 3474" d="M255.014,5.917A20.693,20.693,0,0,0,243.149,0l-.4,2.822A18.057,18.057,0,0,1,258.033,17.63l2.806-.479A20.845,20.845,0,0,0,255.014,5.917Z" transform="translate(-224.292)" fill="#003b68"/>
    </g>
  </g>
</svg>
