<svg xmlns="http://www.w3.org/2000/svg" width="26.724" height="45.97" viewBox="0 0 26.724 45.97">
  <path id="Trazado_3475" data-name="Trazado 3475" d="M482.842,1164.008c.18.064.361.126.54.192a3.141,3.141,0,0,1,2.041,2.854c0,.089,0,.18,0,.269q0,19.66,0,39.32a3.118,3.118,0,0,1-2.2,3.183,3.582,3.582,0,0,1-1.014.145q-10.145.012-20.288,0a3.107,3.107,0,0,1-3.212-3.2c-.015-2.124,0-4.249,0-6.374v-32.543c0-2.273.5-3.025,2.586-3.853Zm.391,40.21v-35.25H460.9v35.25Zm-9.623,2.639a1.542,1.542,0,1,0-1.551,1.57A1.546,1.546,0,0,0,473.609,1206.858Zm-1.495-40.608c-1.046,0-2.093,0-3.14,0-.278,0-.544.034-.547.373s.269.375.544.375q3.1,0,6.189,0c.274,0,.548-.03.547-.372s-.264-.377-.544-.376C474.147,1166.253,473.13,1166.249,472.114,1166.249Z" transform="translate(-458.704 -1164.008)" fill="#003b68"/>
</svg>
