<?xml version="1.0"?>
<svg xmlns="http://www.w3.org/2000/svg" height="512px" viewBox="-115 0 512 512" width="512px"><g><path d="m248.308594 0c-18.855469 0-194.988282 0-214.664063 0-18.550781 0-33.644531 15.09375-33.644531 33.644531v310.292969c0 4.171875 3.378906 7.550781 7.550781 7.550781 4.167969 0 7.550781-3.378906 7.550781-7.550781v-310.292969c0-10.226562 8.316407-18.542969 18.542969-18.542969h28.636719l6.398438 32.753907c1.257812 6.394531 6.898437 11.035156 13.410156 11.035156h118.675781c6.671875 0 12.332031-4.769531 13.460937-11.339844l5.597657-32.449219h28.484375c10.230468 0 18.554687 8.316407 18.554687 18.542969v444.710938c0 10.226562-8.324219 18.542969-18.554687 18.542969h-214.664063c-10.226562 0-18.542969-8.316407-18.542969-18.542969v-104.21875c0-4.167969-3.382812-7.550781-7.550781-7.550781-4.171875 0-7.550781 3.382812-7.550781 7.550781v104.21875c0 18.550781 15.09375 33.644531 33.644531 33.644531h214.664063c18.554687 0 33.652344-15.09375 33.652344-33.644531v-444.710938c0-18.550781-15.097657-33.644531-33.652344-33.644531zm-48.753906 43.789062h-116.28125l-5.605469-28.6875h126.832031zm0 0" data-original="#000000" class="active-path" data-old_color="#000000" fill="#083E63"/><path d="m180.660156 69.261719h-132.921875c-11.308593 0-20.511719 9.203125-20.511719 20.511719v374.734374c0 11.308594 9.203126 20.511719 20.511719 20.511719h186.484375c11.3125 0 20.511719-9.203125 20.511719-20.511719v-374.734374c0-11.308594-9.199219-20.511719-20.511719-20.511719h-26.382812c-4.167969 0-7.550782 3.378906-7.550782 7.546875 0 4.171875 3.382813 7.550781 7.550782 7.550781h26.382812c2.984375 0 5.414063 2.429687 5.414063 5.414063v374.734374c0 2.984376-2.429688 5.414063-5.414063 5.414063h-186.484375c-2.984375 0-5.414062-2.429687-5.414062-5.414063v-374.734374c0-2.984376 2.429687-5.414063 5.414062-5.414063h132.921875c4.167969 0 7.550782-3.378906 7.550782-7.550781 0-4.167969-3.382813-7.546875-7.550782-7.546875zm0 0" data-original="#000000" class="active-path" data-old_color="#000000" fill="#083E63"/><path d="m188.460938 29.746094c0 4.171875-3.382813 7.550781-7.550782 7.550781-4.171875 0-7.550781-3.378906-7.550781-7.550781 0-4.167969 3.378906-7.546875 7.550781-7.546875 4.167969 0 7.550782 3.378906 7.550782 7.546875zm0 0" data-original="#000000" class="active-path" data-old_color="#000000" fill="#083E63"/><path d="m98.664062 36.652344h50.113282c4.171875 0 7.550781-3.378906 7.550781-7.550782 0-4.171874-3.378906-7.550781-7.550781-7.550781h-50.113282c-4.171874 0-7.550781 3.378907-7.550781 7.550781 0 4.171876 3.378907 7.550782 7.550781 7.550782zm0 0" data-original="#000000" class="active-path" data-old_color="#000000" fill="#083E63"/><path d="m219 166.234375h-88.761719v-18.625c0-8.96875-7.296875-16.265625-16.265625-16.265625h-14.09375c-8.980468 0-16.277344 7.296875-16.277344 16.265625v18.625h-20.636718c-4.167969 0-7.550782 3.382813-7.550782 7.550781 0 4.175782 3.382813 7.550782 7.550782 7.550782h20.636718v18.621093c0 8.980469 7.296876 16.277344 16.277344 16.277344h14.09375c8.96875 0 16.265625-7.296875 16.265625-16.277344v-18.621093h88.761719c4.167969 0 7.550781-3.375 7.550781-7.550782 0-4.167968-3.382812-7.550781-7.550781-7.550781zm-103.859375 33.722656c0 .65625-.523437 1.179688-1.167969 1.179688h-14.09375c-.65625 0-1.179687-.523438-1.179687-1.179688 0-15.367187 0-34.660156 0-52.347656 0-.644531.523437-1.167969 1.179687-1.167969h14.09375c.644532 0 1.167969.523438 1.167969 1.167969zm0 0" data-original="#000000" class="active-path" data-old_color="#000000" fill="#083E63"/><path d="m219 262.210938h-5.105469v-18.625c0-8.976563-7.308593-16.277344-16.277343-16.277344h-14.09375c-8.980469 0-16.277344 7.300781-16.277344 16.277344v18.625h-104.28125c-4.167969 0-7.550782 3.371093-7.550782 7.550781 0 4.167969 3.382813 7.550781 7.550782 7.550781h104.28125v18.621094c0 8.972656 7.296875 16.269531 16.277344 16.269531h14.09375c8.96875 0 16.277343-7.296875 16.277343-16.269531v-18.621094h5.105469c4.167969 0 7.550781-3.382812 7.550781-7.550781 0-4.179688-3.382812-7.550781-7.550781-7.550781zm-20.203125 33.722656c0 .644531-.535156 1.167968-1.179687 1.167968h-14.09375c-.644532 0-1.175782-.523437-1.175782-1.167968 0-10.804688 0-41.535156 0-52.347656 0-.652344.53125-1.175782 1.175782-1.175782h14.09375c.644531 0 1.179687.523438 1.179687 1.175782zm0 0" data-original="#000000" class="active-path" data-old_color="#000000" fill="#083E63"/><path d="m133.933594 408.179688h14.09375c8.96875 0 16.277344-7.308594 16.277344-16.277344v-18.625h54.695312c4.167969 0 7.550781-3.382813 7.550781-7.546875 0-4.167969-3.382812-7.550781-7.550781-7.550781h-54.695312v-18.625c0-8.96875-7.308594-16.277344-16.277344-16.277344h-14.09375c-8.96875 0-16.277344 7.308594-16.277344 16.277344v18.625h-54.691406c-4.167969 0-7.550782 3.382812-7.550782 7.550781 0 4.164062 3.382813 7.546875 7.550782 7.546875h54.691406v18.625c0 8.96875 7.308594 16.277344 16.277344 16.277344zm-1.175782-68.625c0-.644532.53125-1.175782 1.175782-1.175782h14.09375c.644531 0 1.179687.53125 1.179687 1.175782v52.347656c0 .644531-.535156 1.179687-1.179687 1.179687h-14.09375c-.644532 0-1.175782-.535156-1.175782-1.179687 0-10.804688 0-41.535156 0-52.347656zm0 0" data-original="#000000" class="active-path" data-old_color="#000000" fill="#083E63"/></g> </svg>
