<svg xmlns="http://www.w3.org/2000/svg" width="41.885" height="41.885" viewBox="0 0 41.885 41.885">
  <g id="chat" transform="translate(0.25 0.25)">
    <path id="Trazado_3476" data-name="Trazado 3476" d="M39.315,95.856H37.936v-20a.69.69,0,0,0-1.379,0V93.1H4.828V70.335a.69.69,0,0,1,.69-.69H22.762a.69.69,0,0,0,0-1.379H5.518a2.069,2.069,0,0,0-2.069,2.069V95.856H2.069A2.069,2.069,0,0,0,0,97.925c0,3.83,2.907,6.208,7.587,6.208H33.8c4.68,0,7.587-2.378,7.587-6.208A2.069,2.069,0,0,0,39.315,95.856ZM4.828,94.476H36.556v1.379H4.828ZM14.263,99.3l-.828-2.069H20V99.3Zm7.12-2.069h6.568L27.123,99.3h-5.74ZM33.8,102.753H7.587c-1.456,0-6.208-.348-6.208-4.828a.69.69,0,0,1,.69-.69h9.879l1.034,2.58a1.372,1.372,0,0,0,1.279.868H27.123a1.372,1.372,0,0,0,1.281-.868l1.032-2.581h9.879a.69.69,0,0,1,.69.69C40.005,102.408,35.254,102.753,33.8,102.753Zm0,0" transform="translate(0 -62.748)" fill="#003b68" stroke="#003b68" stroke-width="0.5"/>
    <path id="Trazado_3477" data-name="Trazado 3477" d="M158.2,144.239a2.587,2.587,0,0,0,1.068-1.449,2.635,2.635,0,0,0,.089-2,1.732,1.732,0,0,0-.942-.978c-.023-.009-.046-.019-.069-.026a3.644,3.644,0,0,0-3.547-3.251h-1.2a3.644,3.644,0,0,0-3.547,3.256l-.1.037a1.716,1.716,0,0,0-.913.966,2.669,2.669,0,0,0,.111,2.049,2.484,2.484,0,0,0,1.045,1.4,5.233,5.233,0,0,0,1.073,2.032v.444a2.23,2.23,0,0,1-1.495,1.862,1.779,1.779,0,0,1-.329.069l-1.634.207a3.072,3.072,0,0,0-2.75,3.069v1.166a1.41,1.41,0,0,0,1.58,1.379H162.11a1.409,1.409,0,0,0,1.579-1.379v-1.166a3.071,3.071,0,0,0-2.749-3.073l-1.99-.207a1.572,1.572,0,0,1-.321-.069.366.366,0,0,0-.044-.012c-.927-.3-1.793-1.186-1.793-1.846v-.086A5.161,5.161,0,0,0,158.2,144.239Zm-7.413-1.25a2.881,2.881,0,0,1-.391-.748,1.269,1.269,0,0,1-.069-.937.435.435,0,0,1,.1-.159.69.69,0,0,0,.986-.621v-.362a2.246,2.246,0,0,1,2.181-2.248h1.2a2.245,2.245,0,0,1,2.187,2.245v.362a.69.69,0,0,0,.987.621.453.453,0,0,1,.1.159,1.33,1.33,0,0,1-.094.992,2.022,2.022,0,0,1-.4.7.69.69,0,0,0-.648.573,3.688,3.688,0,0,1-1.3,2.233c-.007.006-.017.01-.024.017a2.327,2.327,0,0,1-1.411.5,3.128,3.128,0,0,1-2.738-2.751A.723.723,0,0,0,150.791,142.989Zm11.519,8.934v1.143a.734.734,0,0,1-.2.023H146.646a.763.763,0,0,1-.2-.023v-1.143a1.7,1.7,0,0,1,1.527-1.7l1.627-.207a2.464,2.464,0,0,0,.258-.041,9.494,9.494,0,0,0,8.689-.011,2.709,2.709,0,0,0,.27.054l1.98.207A1.693,1.693,0,0,1,162.31,151.923Zm-5.4-2.714a8.279,8.279,0,0,1-2.712.431,8.367,8.367,0,0,1-2.782-.458,3.591,3.591,0,0,0,1.163-1.876,3.567,3.567,0,0,0,2.966.127A3.772,3.772,0,0,0,156.91,149.209Zm0,0" transform="translate(-133.34 -125.499)" fill="#003b68" stroke="#003b68" stroke-width="0.5"/>
    <path id="Trazado_3478" data-name="Trazado 3478" d="M322.374,0h-13.8A1.379,1.379,0,0,0,307.2,1.379V9.656a1.38,1.38,0,0,0,1.379,1.38h.69v.781a1.38,1.38,0,0,0,2.145,1.151l2.891-1.931h8.07a1.38,1.38,0,0,0,1.379-1.38V1.379A1.379,1.379,0,0,0,322.374,0Zm0,9.656H314.3a1.377,1.377,0,0,0-.766.232l-2.89,1.929v-.781a1.38,1.38,0,0,0-1.379-1.38h-.69V1.379h13.8Zm0,0" transform="translate(-282.368)" fill="#003b68" stroke="#003b68" stroke-width="0.5"/>
    <path id="Trazado_3479" data-name="Trazado 3479" d="M342.022,35.512h9.656a.69.69,0,1,0,0-1.379h-9.656a.69.69,0,1,0,0,1.379Zm0,0" transform="translate(-313.742 -31.374)" fill="#003b68" stroke="#003b68" stroke-width="0.5"/>
    <path id="Trazado_3480" data-name="Trazado 3480" d="M342.022,69.645h9.656a.69.69,0,1,0,0-1.379h-9.656a.69.69,0,1,0,0,1.379Zm0,0" transform="translate(-313.742 -62.748)" fill="#003b68" stroke="#003b68" stroke-width="0.5"/>
    <path id="Trazado_3481" data-name="Trazado 3481" d="M385.379,444.424a.69.69,0,1,1-.69-.69A.69.69,0,0,1,385.379,444.424Zm0,0" transform="translate(-352.961 -407.867)" fill="#003b68" stroke="#003b68" stroke-width="0.5"/>
    <path id="Trazado_3482" data-name="Trazado 3482" d="M419.512,444.424a.69.69,0,1,1-.69-.69A.69.69,0,0,1,419.512,444.424Zm0,0" transform="translate(-384.335 -407.867)" fill="#003b68" stroke="#003b68" stroke-width="0.5"/>
  </g>
</svg>
