<?xml version="1.0"?>
<svg xmlns="http://www.w3.org/2000/svg" id="Capa_1" enable-background="new 0 0 509.469 509.469" height="512px" viewBox="0 0 509.469 509.469" width="512px"><g><path id="XMLID_190_" d="m509.469 392.185v-359.117h-509.469v359.118h238.661v53.791h-238.661v30.424h509.469v-30.424h-240.384v-53.791h240.384zm-30.425-135.486h-177.297l15.907-15.907v-177.3h161.389v193.207zm-448.62-193.207h256.806v164.698l-58.934 58.933h250.748v74.638h-242.487c-8.881-14.809-21.087-27.406-35.744-36.762-13.603-8.683-28.844-14.246-44.734-16.42v-6.929c43.877-7.279 77.441-45.489 77.441-91.398v-28.769c0-51.393-41.564-93.203-92.654-93.203-51.089 0-92.653 41.811-92.653 93.203v28.769c0 45.909 33.564 84.119 77.441 91.398v6.929c-15.891 2.174-31.132 7.737-44.735 16.42-14.657 9.355-26.862 21.953-35.744 36.762h-14.751zm48.214 133.203h23.987c20.099 0 37.427-8.305 48.615-15.45 10.216 10.162 23.359 15.45 38.73 15.45h13.126v13.557c0 34.314-27.916 62.229-62.229 62.229s-62.229-27.916-62.229-62.229zm1.847-30.424c6.758-27.291 31.267-47.567 60.382-47.567s53.624 20.276 60.382 47.567h-11.279c-10.198 0-17.176-4.238-22.624-13.741l-9.602-16.748-14.038 13.253c-.182.172-18.879 17.236-41.08 17.236zm60.381 171.689c22.121 0 42.574 8.736 57.51 23.799h-115.019c14.936-15.062 35.389-23.799 57.509-23.799z" data-original="#000000" class="active-path" data-old_color="#000000" fill="#083E63"/><path id="XMLID_208_" d="m131.494 250.853h19.424c8.401 0 15.212-6.811 15.212-15.212s-6.811-15.212-15.212-15.212h-19.424c-8.401 0-15.212 6.811-15.212 15.212s6.811 15.212 15.212 15.212z" data-original="#000000" class="active-path" data-old_color="#000000" fill="#083E63"/><path id="XMLID_216_" d="m331.667 213.86v30.793h135.264v-30.793c0-17.708-8.482-33.858-21.879-44.119 4.948-7.984 7.858-17.35 8.02-27.375h.022v-15.212c0-29.814-24.132-54.07-53.796-54.07s-53.796 24.255-53.796 54.07v15.212h.022c.162 10.027 3.073 19.394 8.022 27.378-13.396 10.263-21.879 26.416-21.879 44.116zm104.84.368h-74.416v-.368c0-10.257 6.294-19.357 15.487-23.173 6.648 2.946 13.993 4.596 21.72 4.596s15.072-1.65 21.719-4.596c9.196 3.816 15.489 12.912 15.489 23.173v.368zm-37.209-110.72c7.165 0 13.589 3.28 17.879 8.433h-35.758c4.29-5.153 10.714-8.433 17.879-8.433zm23.35 38.857c-.464 12.481-10.756 22.493-23.35 22.493s-22.886-10.012-23.35-22.493z" data-original="#000000" class="active-path" data-old_color="#000000" fill="#083E63"/></g> </svg>
