<svg xmlns="http://www.w3.org/2000/svg" width="40.548" height="40.549" viewBox="0 0 40.548 40.549">
  <g id="telephone" transform="translate(-0.006)">
    <g id="Grupo_366" data-name="Grupo 366" transform="translate(0.006)">
      <path id="Trazado_634" data-name="Trazado 634" d="M30.833,69.068a2.841,2.841,0,0,0-4.295,0c-1,1-2.008,1.991-3,3a.592.592,0,0,1-.827.152c-.65-.354-1.342-.641-1.966-1.029a31.15,31.15,0,0,1-7.51-6.835,17.792,17.792,0,0,1-2.692-4.312.618.618,0,0,1,.152-.793c1-.97,1.983-1.966,2.97-2.962a2.852,2.852,0,0,0-.008-4.4c-.785-.793-1.569-1.569-2.354-2.363-.81-.81-1.612-1.629-2.43-2.43a2.859,2.859,0,0,0-4.295.008c-1.013,1-1.983,2.017-3.012,3a4.89,4.89,0,0,0-1.536,3.3,13.978,13.978,0,0,0,1.08,6.016A36.558,36.558,0,0,0,7.6,70.233a40.154,40.154,0,0,0,13.3,10.4,19.232,19.232,0,0,0,7.366,2.143A5.4,5.4,0,0,0,32.9,81.016c.861-.962,1.831-1.839,2.742-2.759a2.871,2.871,0,0,0,.017-4.371Q33.255,71.469,30.833,69.068Z" transform="translate(-0.006 -42.244)" fill="#187d89"/>
      <path id="Trazado_635" data-name="Trazado 635" d="M247,108l3.114-.532A13.976,13.976,0,0,0,238.293,96l-.439,3.13A10.8,10.8,0,0,1,247,108Z" transform="translate(-217.785 -87.9)" fill="#187d89"/>
      <path id="Trazado_636" data-name="Trazado 636" d="M256.356,6.565A22.958,22.958,0,0,0,243.193,0l-.439,3.13a20.033,20.033,0,0,1,16.952,16.429l3.114-.532A23.127,23.127,0,0,0,256.356,6.565Z" transform="translate(-222.271)" fill="#187d89"/>
    </g>
  </g>
</svg>
