<svg xmlns="http://www.w3.org/2000/svg" width="49.522" height="63.141" viewBox="0 0 49.522 63.141">
  <g id="Sz6HCN.tif" transform="translate(-196.5 -252.38)">
    <g id="Grupo_237" data-name="Grupo 237" transform="translate(197 253.112)">
      <path id="Trazado_236" data-name="Trazado 236" d="M197,311.608a31.269,31.269,0,0,1,3.215-3.26,41.875,41.875,0,0,1,4.993-3.149,4.68,4.68,0,0,1,2.567-.822c1.54.2,2.138-.568,2.8-1.7,1.884-3.221,2.252-6.771,2.406-10.371.082-1.909-.045-3.83.088-5.734.165-2.358,1.548-4.147,3.233-4.469a4.2,4.2,0,0,1,4.64,2.9,24.7,24.7,0,0,1,1.224,6.38,33.7,33.7,0,0,1-.283,5.06c.54-.271.938-.432,1.3-.656,4.912-3.067,9.812-6.153,14.733-9.207a10.787,10.787,0,0,1,2.328-1.124,3.933,3.933,0,0,1,4.608,1.463,3.852,3.852,0,0,1-.575,4.654,19.135,19.135,0,0,1-3.17,2.389c-1.581,1.058-3.209,2.044-4.922,3.128a4.365,4.365,0,0,1,1.89,4.913c2.871,1.943,3.3,3.268,2.069,6.389.158.175.343.384.534.587,1.979,2.112,1.783,4.822-.613,6.411-5.551,3.68-11.183,7.24-16.719,10.941-1.1.734-1.8,2.05-2.89,2.806-2.232,1.551-4.6,2.9-6.912,4.343-.188.117-.354.268-.53.4h-2.436c-1.018-.823-2.34-1.454-3-2.5-3.613-5.722-7.064-11.546-10.571-17.335Zm25.9,12.53c5.419-3.526,10.754-7,16.083-10.475a2.216,2.216,0,0,0,.6-.618,1.847,1.847,0,0,0-1.065-2.9c-2.433-.717-2.394-.74-.569-2.66a2.537,2.537,0,0,0,.618-2.111,2.583,2.583,0,0,0-1.8-1.278c-2.02-.326-2.032-.342-1.013-2.248a2.507,2.507,0,0,0,.1-2.078c-.3-.512-1.191-.71-1.853-.969-.6-.234-1.24-.364-1.863-.539.4-.565.684-1.306,1.222-1.664,2.556-1.7,5.185-3.287,7.781-4.925,2.019-1.273,2.677-2.568,1.9-3.69-.74-1.07-2.1-1.018-4.037.192q-8.764,5.485-17.522,10.981c-.559.349-1.159.633-2.065,1.122a14.33,14.33,0,0,1-.072-1.8,58.239,58.239,0,0,0,.748-7.235,19.626,19.626,0,0,0-1.276-5.811,2.417,2.417,0,0,0-2.031-1.2,2.656,2.656,0,0,0-1.523,1.825,18.174,18.174,0,0,0-.245,4.143c.089,5.413-.46,10.66-3.747,15.2Zm-1.934,1.389a19.1,19.1,0,0,0-.9-1.924q-4.986-8.031-10.013-16.036c-1.046-1.661-2.087-1.891-3.794-.861-1.981,1.194-3.937,2.431-5.88,3.686-1.574,1.016-2.045,2.4-1.083,4.01q4.9,8.187,10,16.256a2.627,2.627,0,0,0,3.79.927c2.189-1.3,4.364-2.626,6.453-4.075A7.385,7.385,0,0,0,220.964,325.528Z" transform="translate(-197 -271.973)" fill="#187d89" stroke="#187d89" stroke-width="1"/>
      <path id="Trazado_237" data-name="Trazado 237" d="M267.187,266.459a4.623,4.623,0,0,1-.879-1.1c-.885-2.058-1.77-4.123-2.478-6.245-.164-.492.37-1.217.583-1.834.552.272,1.4.4,1.605.84.975,2.078,1.816,4.222,2.621,6.374A1.359,1.359,0,0,1,267.187,266.459Z" transform="translate(-240.551 -255.831)" fill="#187d89" stroke="#187d89" stroke-width="1"/>
      <path id="Trazado_238" data-name="Trazado 238" d="M305.745,273.219c-1.149-.061-1.761-1.083-1.188-1.874,1.459-2.013,2.98-3.985,4.59-5.878a1.644,1.644,0,0,1,1.624-.137,1.663,1.663,0,0,1,.273,1.62c-1.4,1.982-2.931,3.873-4.456,5.764A2.511,2.511,0,0,1,305.745,273.219Z" transform="translate(-266.983 -260.977)" fill="#187d89" stroke="#187d89" stroke-width="1"/>
      <path id="Trazado_239" data-name="Trazado 239" d="M291.57,257.889a24.3,24.3,0,0,1-.06,3.634c-.074.486-.806.872-1.239,1.3-.406-.462-1.137-.907-1.162-1.389a64.721,64.721,0,0,1,0-6.934c.026-.484.764-.929,1.173-1.392.43.436,1.149.824,1.231,1.318A21.413,21.413,0,0,1,291.57,257.889Z" transform="translate(-256.992 -253.112)" fill="#187d89" stroke="#187d89" stroke-width="1"/>
    </g>
  </g>
</svg>
