<svg id="left-arrow" xmlns="http://www.w3.org/2000/svg" width="48" height="39.868" viewBox="0 0 48 39.868">
  <g id="Grupo_284" data-name="Grupo 284" transform="translate(0 0)">
    <path id="Trazado_276" data-name="Trazado 276" d="M2.7,57.844l-.075.016H34.742l-10.1-10.119a2.652,2.652,0,0,1,0-3.728l1.571-1.572a2.628,2.628,0,0,1,3.71,0L47.234,59.746a2.646,2.646,0,0,1,0,3.723L29.926,80.777a2.63,2.63,0,0,1-3.71,0l-1.571-1.572a2.6,2.6,0,0,1-.766-1.854,2.522,2.522,0,0,1,.766-1.82L34.856,65.355H2.662A2.72,2.72,0,0,1,0,62.662V60.439A2.668,2.668,0,0,1,2.7,57.844Z" transform="translate(0 -41.674)" fill="#215072"/>
  </g>
</svg>
