<svg xmlns="http://www.w3.org/2000/svg" xmlns:xlink="http://www.w3.org/1999/xlink" viewBox="0 0 487.39 486.51"><defs><style>.cls-1{fill:url(#Degradado_sin_nombre_13);}.cls-2{fill:#bdc9f4;}.cls-3{fill:url(#Degradado_sin_nombre_2);}.cls-4{fill:#8c86e8;}.cls-5{fill:url(#Degradado_sin_nombre_20);}.cls-6{fill:url(#Degradado_sin_nombre_4);}.cls-7{fill:url(#Degradado_sin_nombre_5);}.cls-8{fill:url(#Degradado_sin_nombre_17);}.cls-9{fill:url(#Degradado_sin_nombre_17-2);}.cls-10{fill:url(#Degradado_sin_nombre_8);}.cls-11{fill:url(#Degradado_sin_nombre_17-3);}.cls-12{fill:url(#Degradado_sin_nombre_20-2);}.cls-13{fill:url(#Degradado_sin_nombre_20-3);}.cls-14{fill:url(#Degradado_sin_nombre_20-4);}.cls-15{fill:url(#Degradado_sin_nombre_20-5);}.cls-16{fill:url(#Degradado_sin_nombre_17-4);}.cls-17{fill:url(#Degradado_sin_nombre_17-5);}.cls-18{fill:url(#Degradado_sin_nombre_17-6);}.cls-19{fill:url(#Degradado_sin_nombre_17-7);}.cls-20{fill:url(#Degradado_sin_nombre_18);}.cls-21{fill:url(#Degradado_sin_nombre_20-6);}.cls-22{fill:#9e9df0;}.cls-23{fill:url(#Degradado_sin_nombre_20-7);}</style><linearGradient id="Degradado_sin_nombre_13" x1="-322.63" y1="656.97" x2="-322.51" y2="657.02" gradientTransform="matrix(487.38, 0, 0, -281.41, 157719.48, 185169.97)" gradientUnits="userSpaceOnUse"><stop offset="0" stop-color="#4f6cc6"/><stop offset="0.52" stop-color="#6089ce"/><stop offset="1" stop-color="#73a9d8"/></linearGradient><linearGradient id="Degradado_sin_nombre_2" x1="-322.85" y1="656.23" x2="-322.88" y2="656.31" gradientTransform="matrix(333.64, 0, 0, -257.12, 108021.82, 169132.54)" gradientUnits="userSpaceOnUse"><stop offset="0" stop-color="#0065aa"/><stop offset="1" stop-color="#aad3ff"/></linearGradient><linearGradient id="Degradado_sin_nombre_20" x1="-323.01" y1="656.31" x2="-322.95" y2="656.97" gradientTransform="matrix(150.27, 0, 0, -125.74, 48849.54, 82878.67)" gradientUnits="userSpaceOnUse"><stop offset="0" stop-color="#a4cecb"/><stop offset="1" stop-color="#44a5a6"/></linearGradient><linearGradient id="Degradado_sin_nombre_4" x1="-323.01" y1="656.69" x2="-322.94" y2="656.57" gradientTransform="matrix(150.27, 0, 0, -125.74, 48849.17, 82878.7)" gradientUnits="userSpaceOnUse"><stop offset="0" stop-color="#5d29f9"/><stop offset="1" stop-color="#ccc0fc"/></linearGradient><linearGradient id="Degradado_sin_nombre_5" x1="-307.34" y1="662.37" x2="-309.09" y2="661.53" gradientTransform="matrix(36.7, 0, 0, -17.92, 11897.16, 12009.06)" gradientUnits="userSpaceOnUse"><stop offset="0" stop-color="#8fffe1"/><stop offset="1" stop-color="#1d29c1"/></linearGradient><linearGradient id="Degradado_sin_nombre_17" x1="-295.56" y1="655.57" x2="-294.56" y2="655.57" gradientTransform="matrix(24.7, 0, 0, -24.7, 7996.65, 16459.82)" gradientUnits="userSpaceOnUse"><stop offset="0" stop-color="#1671b7"/><stop offset="1" stop-color="#97ccf2"/></linearGradient><linearGradient id="Degradado_sin_nombre_17-2" x1="-288.86" y1="656.71" x2="-290.01" y2="656.71" gradientTransform="matrix(20.57, 0, 0, -180.46, 6661.98, 118682.46)" xlink:href="#Degradado_sin_nombre_17"/><linearGradient id="Degradado_sin_nombre_8" x1="-306.39" y1="633.79" x2="-307.07" y2="634.68" gradientTransform="matrix(16.35, 0, 0, -9.86, 5296.29, 6527.12)" gradientUnits="userSpaceOnUse"><stop offset="0" stop-color="#3129f9"/><stop offset="1" stop-color="#8fffe1"/></linearGradient><linearGradient id="Degradado_sin_nombre_17-3" x1="-297.95" y1="633.81" x2="-298.8" y2="634.57" gradientTransform="matrix(16.35, 0, 0, -14.63, 5295.95, 9647.91)" xlink:href="#Degradado_sin_nombre_17"/><linearGradient id="Degradado_sin_nombre_20-2" x1="-316.86" y1="651.73" x2="-319.95" y2="654.25" gradientTransform="matrix(54.61, 0, 0, -67.7, 17858.95, 44638.79)" xlink:href="#Degradado_sin_nombre_20"/><linearGradient id="Degradado_sin_nombre_20-3" x1="-320.68" y1="653.44" x2="-322.15" y2="655.46" gradientTransform="matrix(112.29, 0, 0, -89.38, 36497.33, 58834.04)" xlink:href="#Degradado_sin_nombre_20"/><linearGradient id="Degradado_sin_nombre_20-4" x1="-321.57" y1="654.12" x2="-322.68" y2="656.05" gradientTransform="matrix(169.6, 0, 0, -121.17, 55019.44, 79684.05)" xlink:href="#Degradado_sin_nombre_20"/><linearGradient id="Degradado_sin_nombre_20-5" x1="-321.93" y1="654.39" x2="-322.85" y2="656.26" gradientTransform="matrix(235.56, 0, 0, -158.62, 76329.62, 104244.41)" xlink:href="#Degradado_sin_nombre_20"/><linearGradient id="Degradado_sin_nombre_17-4" x1="-322.08" y1="655.51" x2="-323.45" y2="657.12" gradientTransform="matrix(224.47, 0, 0, -150.81, 72754.26, 99119.29)" xlink:href="#Degradado_sin_nombre_17"/><linearGradient id="Degradado_sin_nombre_17-5" x1="-321.71" y1="655.14" x2="-323.63" y2="657.29" gradientTransform="matrix(159.81, 0, 0, -113.41, 51861.77, 74587.86)" xlink:href="#Degradado_sin_nombre_17"/><linearGradient id="Degradado_sin_nombre_17-6" x1="-320.87" y1="654.5" x2="-323.89" y2="657.45" gradientTransform="matrix(101.66, 0, 0, -82.67, 33070.2, 54436.19)" xlink:href="#Degradado_sin_nombre_17"/><linearGradient id="Degradado_sin_nombre_17-7" x1="-317.8" y1="653.35" x2="-324.03" y2="657.27" gradientTransform="matrix(49.35, 0, 0, -62.22, 16167.57, 41041.75)" xlink:href="#Degradado_sin_nombre_17"/><linearGradient id="Degradado_sin_nombre_18" x1="-318.28" y1="650.38" x2="-319" y2="651.7" gradientTransform="matrix(10.24, 0, 0, -12.91, 3643.58, 8725.69)" gradientUnits="userSpaceOnUse"><stop offset="0" stop-color="#9073fa"/><stop offset="1" stop-color="#fbf5ff"/></linearGradient><linearGradient id="Degradado_sin_nombre_20-6" x1="-321.57" y1="654.04" x2="-321.63" y2="654.16" gradientTransform="matrix(80.63, 0, 0, -73.27, 26166.61, 48409.13)" xlink:href="#Degradado_sin_nombre_20"/><linearGradient id="Degradado_sin_nombre_20-7" x1="-314.89" y1="648.45" x2="-315.09" y2="648.67" gradientTransform="matrix(25.13, 0, 0, -41.44, 8274.94, 27528.37)" xlink:href="#Degradado_sin_nombre_20"/></defs><title>Recurso 20</title><g id="Capa_2" data-name="Capa 2"><g id="Capa_1-2" data-name="Capa 1"><g id="Grupo_548" data-name="Grupo 548"><path id="Trazado_2996-2" data-name="Trazado 2996-2" class="cls-1" d="M0,348.26l.19-33.43,32.66-.17,171.63-99.49c25.62-14.85,70.41-13.07,100,4l158.31,91c1.3.74,2.53,1.51,3.73,2.29l20.82-.11v31h0c-.2,9.2-5.86,18-17.24,24.57L282.89,476.44c-25.61,14.85-70.4,13.07-100-4l-158.3-91C8.08,372-.24,359.78,0,348.26Z"/><path id="Trazado_2997" data-name="Trazado 2997" class="cls-2" d="M282.9,445.46,470.12,336.93c25.62-14.85,22.36-40.7-7.28-57.74l-158.31-91c-29.64-17-74.43-18.82-100-4L17.27,292.71c-25.62,14.85-22.36,40.7,7.28,57.74l158.31,91C212.5,458.53,257.29,460.31,282.9,445.46Z"/><path id="Trazado_2998" data-name="Trazado 2998" class="cls-3" d="M74.15,227.37,223.77,139c2.87-1.67,5.5-1.84,7.57-.78h0l.1.06L395.9,233,230.64,394.63,67,300.34c-2.76-1.31-4.55-4.79-4.56-9.85l-.19-40.3C62.24,241.4,67.57,231.18,74.15,227.37Z"/><path id="Trazado_2999" data-name="Trazado 2999" class="cls-4" d="M238.29,393.9l149.62-88.42c6.58-3.82,11.91-14,11.9-22.83l-.2-40.3c0-8.79-5.36-12.82-11.95-9L238,321.77c-6.58,3.82-11.91,14-11.9,22.83l.19,40.3C226.35,393.69,231.7,397.72,238.29,393.9Z"/><path id="Trazado_3000" data-name="Trazado 3000" class="cls-5" d="M246.43,375.32l135-79.94c4.22-2.45,7.63-9,7.62-14.61V257.19c0-5.63-3.44-8.21-7.65-5.76l-135,79.95c-4.22,2.44-7.63,9-7.62,14.61v23.57C238.8,375.19,242.22,377.77,246.43,375.32Z"/><path id="Trazado_3001" data-name="Trazado 3001" class="cls-6" d="M368.79,288.77c4.22-2.44,7.63-9,7.62-14.61V254.35l5-2.89c4.21-2.44,7.64.13,7.65,5.76V280.8c0,5.62-3.4,12.16-7.62,14.61l-135,79.94c-4.21,2.45-7.64-.13-7.65-5.76v-3.76Z"/><g id="Grupo_547" data-name="Grupo 547"><g id="Grupo_545" data-name="Grupo 545"><path id="Trazado_3002" data-name="Trazado 3002" class="cls-7" d="M81.73,275.15h0A5.92,5.92,0,0,0,77.39,268l-24.86-6.08a5.92,5.92,0,0,0-7.16,4.34h0a5.92,5.92,0,0,0,4.34,7.16h0l24.86,6.08a5.92,5.92,0,0,0,7.15-4.34Z"/></g><circle id="Elipse_122" data-name="Elipse 122" class="cls-8" cx="40.87" cy="264.57" r="12.35"/><g id="Grupo_546" data-name="Grupo 546"><path id="Trazado_3003" data-name="Trazado 3003" class="cls-9" d="M32.69,80.14H49l2.12,174c0,3.58-4.61,6.49-10.29,6.49s-10.29-2.9-10.29-6.49Z"/><ellipse id="Elipse_123" data-name="Elipse 123" class="cls-10" cx="40.87" cy="80.14" rx="8.17" ry="4.93"/><path id="Trazado_3004" data-name="Trazado 3004" class="cls-11" d="M32.69,75.21c0,2.73,3.66,4.93,8.18,4.93S49,77.94,49,75.21s-3.66-9.69-8.17-9.69S32.69,72.49,32.69,75.21Z"/></g></g><path id="Trazado_3005" data-name="Trazado 3005" class="cls-12" d="M249.82,168.28l-.08-.05,0,0c-4.08-.9-9.08,0-14.5,3.14-13.92,8-25.23,27.05-25.13,42.48,0,5.92,1.77,10.4,4.67,13.22h0l.05,0a19.39,19.39,0,0,0,6.89,3.79l8.58,4.71,34.44-59.42-9.45-5.07A11.73,11.73,0,0,0,249.82,168.28Z"/><path id="Trazado_3006" data-name="Trazado 3006" class="cls-13" d="M281.45,116.79c-9-4.8-24.72-8.58-46.07,3.22-23.16,12.8-40.44,38-50.17,55.23-5.1,9-4.11,18.57,2,19.82l3.18,1.75,8.48,4.74,52.82-60a28.63,28.63,0,0,1,15.27,3c3.84,2,9.48-.85,13.6-6.82l0-.06c1.49-2.16,2.6-4.46-1.07-9.63L294.22,125Z"/><path id="Trazado_3007" data-name="Trazado 3007" class="cls-14" d="M309.55,64.86c-13.2-7-38.69-13.73-74.32,4.71-38.92,20.2-65.88,59.32-79,82-5.15,8.87-4.29,18.52,1.73,20.14.44.12,3.65,2.13,4.12,2.16l9,5,41.63-56.66,57.57-34.93a54.82,54.82,0,0,1,27.06,6.59c3.9,2.15,9.74-.94,13.76-7.23l.06-.1.2-.34,3.68-.09,7.43-12.21-7.29-5.68Z"/><path id="Trazado_3008" data-name="Trazado 3008" class="cls-15" d="M351,20.53,340.5,13C325.85,3,290.75-12.1,234.28,16.75l-1.75.91c-59.69,31.21-97,85.21-113.23,113.06-4,6.92-5.1,13.12-2.22,16.88l2.9,2.92,1.66.93a22.82,22.82,0,0,0,4.08,2l9.73,5.14L152.63,135l70.76-81.37L263,32.28c32.59-9,53.55.55,63.13,7,3.71,2.5,9.48-.23,13.53-6.35h0a24.2,24.2,0,0,0,3.71-9.35Z"/><path id="Trazado_3009" data-name="Trazado 3009" class="cls-16" d="M350.2,40.33c-4,6.09-9.69,8.82-13.35,6.36-11.91-8-41.81-20.87-90.38,4.86l-1.5.8c-50.88,27.57-81.83,73.65-94.54,95.92-4.08,7.15-10.66,11.47-15.55,10.17h0c-6.11-1.63-7-11.22-1.84-20.16C149,110.6,185.8,56.88,244.6,25.66l1.73-.91C302-4.13,336.58,10.67,351,20.52c4.45,3,4.08,12.34-.8,19.79Z"/><path id="Trazado_3010" data-name="Trazado 3010" class="cls-17" d="M321.94,93.73c-4,6.26-9.72,9.34-13.57,7.23-10-5.48-31.48-12.62-61.28,3.35l-1.05.57c-29.77,16.41-50.28,47-60,64.05-4,7-10.32,11.15-15,9.89h0c-5.93-1.58-6.78-11.07-1.7-19.88,13-22.51,39.55-61.26,77.89-81.47,36.94-19.4,62.84-10.72,75.2-3.62,4.69,2.69,4.47,12.05-.42,19.77Z"/><path id="Trazado_3011" data-name="Trazado 3011" class="cls-18" d="M200,201.85h-.06c-6-1.21-7-10.69-2-19.66,9.59-17.1,26.63-42.2,49.45-55,21-11.8,36.49-8.1,45.4-3.37,5.07,2.69,4.69,12.77-.81,20.81l0,.06c-4.06,5.94-9.62,8.76-13.4,6.82-6.16-3.16-16.93-5.76-31,2.29-14.9,8.51-26.64,26.23-33.24,38.07C210.51,198.6,204.5,202.76,200,201.85Z"/><path id="Trazado_3012" data-name="Trazado 3012" class="cls-19" d="M271.74,191.17c.07,15-10.75,33.73-24.28,41.9-13.69,8.27-25,2.65-25.07-12.65s11.06-34.27,24.77-42.24S271.67,176.15,271.74,191.17Z"/><path id="Trazado_3013" data-name="Trazado 3013" class="cls-20" d="M367.81,273.89a11.3,11.3,0,0,1-5,8.7c-2.84,1.71-5.18.55-5.2-2.63a11.18,11.18,0,0,1,5.14-8.76C365.52,269.56,367.8,270.77,367.81,273.89Z"/><path id="Trazado_3014" data-name="Trazado 3014" class="cls-21" d="M100.72,279.81l8.88-5.19h0l66.91,38.3V326.7l-12.1,21.19-66.6-38.38c-1.12-.53-1.85-1.94-1.85-4l-.08-16.4C95.87,285.52,98,281.36,100.72,279.81Z"/><path id="Trazado_3015" data-name="Trazado 3015" class="cls-22" d="M167.42,318.23l9.09-5.31v29.41l-9,5.26c-2.68,1.55-4.86-.09-4.87-3.66l-.07-16.4C162.57,324,164.74,319.79,167.42,318.23Z"/><path id="Trazado_3016" data-name="Trazado 3016" class="cls-23" d="M174.38,321.89l8.88-5.19h0l11.41,6.47V337l-12.1,21.19-11.09-6.55c-1.13-.54-1.85-1.95-1.86-4l-.08-16.4C169.54,327.6,171.7,323.44,174.38,321.89Z"/><path id="Trazado_3017" data-name="Trazado 3017" class="cls-22" d="M185.58,328.49l9.09-5.32v29.42l-9,5.25c-2.68,1.56-4.85-.08-4.86-3.66l-.08-16.4C180.73,334.2,182.9,330,185.58,328.49Z"/></g></g></g></svg>