<svg xmlns="http://www.w3.org/2000/svg" width="47.612" height="53.761" viewBox="0 0 47.612 53.761">
  <g id="Grupo_187" data-name="Grupo 187" transform="translate(-289.047 -1323.553)">
    <g id="Grupo_184" data-name="Grupo 184">
      <path id="Trazado_101" data-name="Trazado 101" d="M318.558,1356.239a7.685,7.685,0,0,1-3.92,2.091v1.827a1.761,1.761,0,0,1-1.8,1.8,1.656,1.656,0,0,1-1.238-.516,1.767,1.767,0,0,1-.5-1.282v-1.65a10.214,10.214,0,0,1-2.9-.678,9.283,9.283,0,0,1-2.55-1.59,2.074,2.074,0,0,1-.8-1.563,1.654,1.654,0,0,1,.5-1.192,1.622,1.622,0,0,1,1.208-.516,1.565,1.565,0,0,1,1,.352,10.443,10.443,0,0,0,1.739,1.165,5.731,5.731,0,0,0,1.8.574v-5.746q-5.923-1.09-5.923-5.923a5.319,5.319,0,0,1,1.65-4.022,7.427,7.427,0,0,1,4.273-1.93v-.972a1.763,1.763,0,0,1,1.8-1.8,1.656,1.656,0,0,1,1.238.516,1.766,1.766,0,0,1,.5,1.282v1.09a8.475,8.475,0,0,1,4.126,1.827,1.967,1.967,0,0,1,.855,1.561,1.662,1.662,0,0,1-.5,1.194,1.59,1.59,0,0,1-1.178.516,1.293,1.293,0,0,1-.8-.266,7.629,7.629,0,0,0-2.505-1.267v5.451a8.552,8.552,0,0,1,4.155,1.99,5.922,5.922,0,0,1-.235,7.677Zm-9.283-11.419a4.319,4.319,0,0,0,1.827.957v-4.892a3.462,3.462,0,0,0-1.827.855,2.05,2.05,0,0,0-.619,1.5A2.109,2.109,0,0,0,309.275,1344.82Zm6.748,9.047a1.813,1.813,0,0,0,.531-1.253,2.254,2.254,0,0,0-.472-1.429,3.517,3.517,0,0,0-1.444-1.017v4.627A3.865,3.865,0,0,0,316.023,1353.867Z" fill="#377c86" stroke="#377c86" stroke-width="1"/>
    </g>
    <g id="Grupo_186" data-name="Grupo 186">
      <g id="Grupo_185" data-name="Grupo 185">
        <path id="Trazado_102" data-name="Trazado 102" d="M327.957,1365.09a23.258,23.258,0,1,0-3.173,2.279l7.646,8.779a1.929,1.929,0,0,0,1.463.666,1.945,1.945,0,0,0,1.463-3.223Zm-34.525-17.731a19.421,19.421,0,1,1,19.421,19.421A19.44,19.44,0,0,1,293.432,1347.359Z" fill="#377c86" stroke="#377c86" stroke-width="1"/>
      </g>
    </g>
  </g>
</svg>
