<svg xmlns="http://www.w3.org/2000/svg" width="57.558" height="56.647" viewBox="0 0 57.558 56.647">
  <g id="Grupo_197" data-name="Grupo 197" transform="translate(-284.155 -1448.853)">
    <g id="Grupo_190" data-name="Grupo 190">
      <g id="Grupo_189" data-name="Grupo 189">
        <g id="Grupo_188" data-name="Grupo 188">
          <path id="Trazado_103" data-name="Trazado 103" d="M319.852,1449.616l-1.269,1.269,1.16,1.161H304.857v1.8h14.886l-1.16,1.161,1.269,1.269,3.327-3.327Z" fill="#377c86" stroke="#377c86" stroke-miterlimit="10" stroke-width="1"/>
        </g>
      </g>
    </g>
    <g id="Grupo_193" data-name="Grupo 193">
      <g id="Grupo_192" data-name="Grupo 192">
        <g id="Grupo_191" data-name="Grupo 191">
          <path id="Trazado_104" data-name="Trazado 104" d="M321.91,1458.328H307.023l1.161-1.161-1.269-1.269-3.327,3.327,3.327,3.327,1.269-1.269-1.161-1.161H321.91Z" fill="#377c86" stroke="#377c86" stroke-miterlimit="10" stroke-width="1"/>
        </g>
      </g>
    </g>
    <g id="Grupo_196" data-name="Grupo 196">
      <g id="Grupo_195" data-name="Grupo 195">
        <g id="Grupo_194" data-name="Grupo 194">
          <path id="Trazado_105" data-name="Trazado 105" d="M323.312,1493.654l-5.89-1.071v-.465a8.994,8.994,0,0,0,4.318-6.041,3.6,3.6,0,0,0,2.862-3.515V1473.7a5.617,5.617,0,0,0-.758-2.8H341.05l-1.5-5.245a4.508,4.508,0,0,0-3.577-3.2l-2.4-.4v-.631a5.322,5.322,0,0,0,1.8-3.993v-2.693a5.385,5.385,0,0,0-10.771,0v2.693a5.323,5.323,0,0,0,1.8,3.993v.631l-2.4.4a4.508,4.508,0,0,0-3.577,3.2l-.559,1.955a10.991,10.991,0,0,0-14.1-.823l-.323-1.132a4.508,4.508,0,0,0-3.577-3.2l-2.4-.4v-.631a5.325,5.325,0,0,0,1.795-3.993v-2.693a5.385,5.385,0,1,0-10.77,0v2.693a5.323,5.323,0,0,0,1.795,3.993v.631l-2.4.4a4.508,4.508,0,0,0-3.577,3.2l-1.5,5.244h17.545a10.975,10.975,0,0,0-1.1,4.768v6.9a3.6,3.6,0,0,0,2.863,3.515,8.989,8.989,0,0,0,4.318,6.041v.465l-5.89,1.07a6.259,6.259,0,0,0-4.894,4.377l-2.091,6.97H330.3l-2.09-6.97A6.256,6.256,0,0,0,323.312,1493.654Zm-1.4-9.547v-3.091a1.78,1.78,0,0,1,0,3.091Zm.239-17.966a2.709,2.709,0,0,1,2.146-1.916l3.9-.648v-3.023l-.356-.269a3.559,3.559,0,0,1-1.439-2.854v-2.693a3.59,3.59,0,1,1,7.18,0v2.693a3.561,3.561,0,0,1-1.438,2.854l-.357.268v3.023l3.9.649a2.7,2.7,0,0,1,2.147,1.916l.844,2.958H322.226a5.586,5.586,0,0,0-.788-.469ZM287.2,1469.1l.844-2.957a2.707,2.707,0,0,1,2.146-1.916l3.9-.648v-3.023l-.356-.269a3.559,3.559,0,0,1-1.439-2.854v-2.693a3.59,3.59,0,1,1,7.18,0v2.693a3.561,3.561,0,0,1-1.438,2.854l-.357.268v3.023l3.9.649a2.7,2.7,0,0,1,2.147,1.916l.56,1.961a11.155,11.155,0,0,0-.832,1Zm16.76,15.009a1.779,1.779,0,0,1,0-3.091Zm0-6.033v1.025a3.568,3.568,0,0,0-.9.372v-3.809a9.256,9.256,0,0,1,15.8-6.544l.792.792.241.059a3.837,3.837,0,0,1,2.911,3.728v5.774a3.526,3.526,0,0,0-.9-.372v-1.025h-2.847a7.807,7.807,0,0,1-6.215-3.106l-.713-.953-1.784,1.784a7.722,7.722,0,0,1-5.494,2.275Zm1.795,6.283v-4.529a9.5,9.5,0,0,0,5.866-2.76l.349-.349a9.616,9.616,0,0,0,7.094,3.15h1.052v4.488a7.18,7.18,0,0,1-14.361,0Zm4.564,8.584a8.95,8.95,0,0,0,5.233,0l-2.617,1.962Zm1.25,3.181-1.832,1.831-1.188-3.564.572-.1Zm5.181-1.837.571.1-1.189,3.564-1.832-1.83Zm-18.764,8.92,1.4-4.659a4.465,4.465,0,0,1,3.5-3.125l3.887-.707,2.187,6.563,3.981-3.983,3.983,3.982,2.187-6.563,3.886.707a4.467,4.467,0,0,1,3.5,3.125l1.4,4.66Z" fill="#377c86" stroke="#377c86" stroke-miterlimit="10" stroke-width="1"/>
        </g>
      </g>
    </g>
  </g>
</svg>
