<svg xmlns="http://www.w3.org/2000/svg" width="48.697" height="48.693" viewBox="0 0 48.697 48.693">
  <g id="Grupo_802" data-name="Grupo 802" transform="translate(-477.519 459.155)">
    <path id="Trazado_3416" data-name="Trazado 3416" d="M479.366-410.712a5.781,5.781,0,0,1-1.094-.837,2.044,2.044,0,0,1-.475-1.144c-.049-1.817-.022-3.635-.022-5.51H521.1l-18.887-39.275c.852-.392,1.653-.836,2.5-1.136a3.692,3.692,0,0,1,4.592,2.007c1.42,2.915,2.817,5.841,4.223,8.763q5.968,12.407,11.931,24.818c.2.418.338.867.5,1.3v1.224a4.352,4.352,0,0,1-2.79,3.1c-.114.045-.21.289-.212.441-.017,1.283-.006,2.566-.013,3.85a3.656,3.656,0,0,1-.068.7,2.481,2.481,0,0,1-1.529,1.7Zm-.09-5.972c0,1.295-.015,2.548.009,3.8a.68.68,0,0,0,.7.689c.156.013.313.008.47.008h39.8c.141,0,.283.005.423,0a.73.73,0,0,0,.765-.774c.015-.517,0-1.035,0-1.552,0-.715,0-1.43,0-2.166ZM504.2-456.82l18.306,38.059c.336-.172.64-.3.915-.473a2.277,2.277,0,0,0,.7-3.106Q518.563-433.9,513-445.457q-2.5-5.208-5.01-10.415a2.209,2.209,0,0,0-2.312-1.419A9.153,9.153,0,0,0,504.2-456.82Z" transform="translate(0)" fill="#003b68" stroke="#003b68" stroke-width="0.5"/>
    <path id="Trazado_3417" data-name="Trazado 3417" d="M501.863-347.894v-27.038h22.551v27.038Zm1.517-25.543V-349.4h19.533v-24.041Z" transform="translate(-21.071 -73.365)" fill="#003b68" stroke="#003b68" stroke-width="0.5"/>
    <path id="Trazado_3418" data-name="Trazado 3418" d="M501.934-111H503.4v1.448h-1.462Z" transform="translate(-21.133 -304.166)" fill="#003b68" stroke="#003b68" stroke-width="0.5"/>
    <path id="Trazado_3419" data-name="Trazado 3419" d="M527.432-110.934v1.433h-1.463v-1.433Z" transform="translate(-42.151 -304.226)" fill="#003b68" stroke="#003b68" stroke-width="0.5"/>
    <path id="Trazado_3420" data-name="Trazado 3420" d="M549.868-109.488v-1.429h1.462v1.429Z" transform="translate(-63.05 -304.241)" fill="#003b68" stroke="#003b68" stroke-width="0.5"/>
    <path id="Trazado_3421" data-name="Trazado 3421" d="M525.867-337.464v-13.479h16.525v13.479Zm7.727-3.832,3.553-5.9,3.738,6.213v-8.461h-9.043a5.387,5.387,0,0,1-4.451,4.466v4.942l3.744-3.75Zm6.744,2.335-3.192-5.32-3.19,5.32Zm-11.84.03a25.3,25.3,0,0,1,2.624.02,1.352,1.352,0,0,0,1.615-.953c.015-.041.027-.083,0,0l-1.655-1.65Zm-1.117-7.664a3.458,3.458,0,0,0,2.846-2.844h-2.846Z" transform="translate(-42.062 -94.343)" fill="#003b68" stroke="#003b68" stroke-width="0.5"/>
    <path id="Trazado_3422" data-name="Trazado 3422" d="M525.864-229.5v-1.432h10.5v1.432Z" transform="translate(-42.059 -199.287)" fill="#003b68" stroke="#003b68" stroke-width="0.5"/>
    <path id="Trazado_3423" data-name="Trazado 3423" d="M525.865-205.5v-1.432h5.982v1.432Z" transform="translate(-42.06 -220.278)" fill="#003b68" stroke="#003b68" stroke-width="0.5"/>
  </g>
</svg>
