<svg xmlns="http://www.w3.org/2000/svg" width="49.299" height="49.299" viewBox="0 0 49.299 49.299">
  <g id="Grupo_803" data-name="Grupo 803" transform="translate(-14.149 486.45)">
    <path id="Trazado_3430" data-name="Trazado 3430" d="M63.2-482.769v41.937a.8.8,0,0,0-.082.163,4.051,4.051,0,0,1-4.121,3.266q-20.205,0-40.41-.005a4.583,4.583,0,0,1-1.221-.159,4.049,4.049,0,0,1-2.964-4.116q0-20.11,0-40.22c0-.127,0-.254,0-.381a4.054,4.054,0,0,1,1.031-2.552,4.731,4.731,0,0,1,2.4-1.365H59.767c.116.039.231.083.349.116a4.09,4.09,0,0,1,2.852,2.606C63.056-483.246,63.122-483.005,63.2-482.769Zm-47.175,4.718v.53q0,17.891,0,35.781a2.47,2.47,0,0,0,2.719,2.714H58.859a2.467,2.467,0,0,0,2.715-2.718q0-17.891,0-35.781v-.526Zm45.552-1.67c0-.718,0-1.383,0-2.047a2.491,2.491,0,0,0-2.815-2.808H30.7q-6.074,0-12.147,0A2.331,2.331,0,0,0,16.1-482.62a22.741,22.741,0,0,0-.025,2.9Z" fill="#003b68" stroke="#003b68" stroke-width="0.5"/>
    <path id="Trazado_3431" data-name="Trazado 3431" d="M82.633-374.342a16.337,16.337,0,0,1,16.244-16.283,16.338,16.338,0,0,1,16.3,16.274,16.347,16.347,0,0,1-16.266,16.265A16.353,16.353,0,0,1,82.633-374.342Zm1.679-.89a1.184,1.184,0,0,0,.233.06c1.842,0,3.685,0,5.527.01.311,0,.316-.182.323-.4a28.06,28.06,0,0,1,.764-5.655.429.429,0,0,0-.267-.56c-.82-.448-1.622-.932-2.422-1.416-.264-.16-.5-.364-.775-.566A14.6,14.6,0,0,0,84.312-375.232Zm25.871-8.436c-1.173.678-2.3,1.319-3.408,1.99-.1.061-.13.326-.11.486.239,1.855.508,3.706.73,5.563.044.37.144.475.509.472,1.7-.018,3.4-.007,5.1-.009.151,0,.3-.021.5-.035A14.556,14.556,0,0,0,110.183-383.668Zm0,18.616A14.526,14.526,0,0,0,113.5-373.5H107.59c-.327,2.082-.649,4.112-.955,6.145a.408.408,0,0,0,.155.333C107.891-366.372,109-365.735,110.183-365.052Zm-25.876-8.453a14.474,14.474,0,0,0,3.328,8.46c1.119-.659,2.158-1.3,3.224-1.881a.493.493,0,0,0,.291-.626c-.265-1.834-.5-3.671-.752-5.507-.02-.15-.035-.3-.052-.446Zm8.446-7.359a25.288,25.288,0,0,0-.716,5.426c0,.088.241.259.371.261,1.76.017,3.52.005,5.28.018.317,0,.407-.108.4-.412-.013-1.141-.005-2.283-.005-3.425v-.895Zm12.309.044c-1.713.267-3.335.531-4.96.763-.313.045-.39.159-.388.448.011,1.332.016,2.664,0,4-.005.357.106.459.459.455,1.728-.017,3.456-.007,5.184-.009a4.283,4.283,0,0,0,.43-.045A26.48,26.48,0,0,0,105.063-380.82Zm-12.28,13.091a18.1,18.1,0,0,1,5.012-.94c.318-.012.292-.222.292-.43q0-2.049,0-4.1a1.969,1.969,0,0,0-.048-.308H92.023A26.473,26.473,0,0,0,92.783-367.729Zm6.938-5.783c0,1.543,0,3.034,0,4.525,0,.306.185.311.406.322a17.97,17.97,0,0,1,4.487.8c.129.04.265.062.425.1a26.617,26.617,0,0,0,.744-5.746Zm-1.666,13.667v-7.2a15.179,15.179,0,0,0-4.588.84.4.4,0,0,0-.136.361,12.318,12.318,0,0,0,2.747,4.79A4.625,4.625,0,0,0,98.055-359.845Zm1.694-.072c1.943-.27,4.033-3.4,4.78-6.233a15.272,15.272,0,0,0-4.78-.9Zm-1.7-28.892a3.917,3.917,0,0,0-2.034,1.2,12.837,12.837,0,0,0-2.7,4.718c-.1.268,0,.373.257.429.959.213,1.91.459,2.874.647.519.1,1.057.108,1.6.158Zm1.7,7.143a16.334,16.334,0,0,0,4.558-.826.39.39,0,0,0,.172-.34,11.5,11.5,0,0,0-3.051-5.086,13.282,13.282,0,0,0-1.68-1.069Zm-5.43-6.544A13.86,13.86,0,0,0,88.79-384.9l2.884,1.757A16.866,16.866,0,0,1,94.325-388.211Zm14.692,24.393-2.884-1.774a16.886,16.886,0,0,1-2.645,5.074A13.846,13.846,0,0,0,109.017-363.818ZM103.488-388.2a17.1,17.1,0,0,1,2.658,5.075l2.87-1.785A13.937,13.937,0,0,0,103.488-388.2Zm-14.7,24.383a13.7,13.7,0,0,0,5.527,3.283,16.822,16.822,0,0,1-2.65-5.057Z" transform="translate(-60.104 -84.189)" fill="#003b68" stroke="#003b68" stroke-width="0.5"/>
    <path id="Trazado_3432" data-name="Trazado 3432" d="M158.735-457.327H145.344a3.986,3.986,0,0,1-.523-.013.8.8,0,0,1-.716-.766.817.817,0,0,1,.7-.831,3.147,3.147,0,0,1,.476-.014h26.924a3.783,3.783,0,0,1,.429.008.807.807,0,0,1,.734.8.79.79,0,0,1-.721.807,4.015,4.015,0,0,1-.476.009Z" transform="translate(-114.252 -24)" fill="#003b68" stroke="#003b68" stroke-width="0.5"/>
    <path id="Trazado_3433" data-name="Trazado 3433" d="M49.824-457.348c-.095,0-.19,0-.284,0a.809.809,0,0,1-.888-.783.816.816,0,0,1,.883-.839c.237-.007.474-.011.711,0a.806.806,0,0,1,.818.809.8.8,0,0,1-.813.808c-.142.009-.284,0-.427,0Z" transform="translate(-30.172 -23.98)" fill="#003b68" stroke="#003b68" stroke-width="0.5"/>
    <path id="Trazado_3434" data-name="Trazado 3434" d="M111.638-458.1a.81.81,0,0,1-.841.785.809.809,0,0,1-.773-.806.827.827,0,0,1,.819-.814A.822.822,0,0,1,111.638-458.1Z" transform="translate(-84.232 -24.02)" fill="#003b68" stroke="#003b68" stroke-width="0.5"/>
    <path id="Trazado_3435" data-name="Trazado 3435" d="M84.272-458.1a.8.8,0,0,1-.811.809.819.819,0,0,1-.8-.776.837.837,0,0,1,.795-.84A.812.812,0,0,1,84.272-458.1Z" transform="translate(-60.126 -24.039)" fill="#003b68" stroke="#003b68" stroke-width="0.5"/>
  </g>
</svg>
