<svg xmlns="http://www.w3.org/2000/svg" width="60" height="60" viewBox="0 0 60 60">
  <g id="Picture" transform="translate(-2 -2)">
    <path id="Trazado_3436" data-name="Trazado 3436" d="M57,2H7A5.006,5.006,0,0,0,2,7V43a5.006,5.006,0,0,0,5,5H24v6H14a4,4,0,0,0,0,8H50a4,4,0,0,0,0-8H40V48H57a5.006,5.006,0,0,0,5-5V7A5.006,5.006,0,0,0,57,2ZM52,58a2,2,0,0,1-2,2H14a2,2,0,0,1,0-4H50A2,2,0,0,1,52,58ZM38,54H26V48H38ZM60,43a3,3,0,0,1-3,3H7a3,3,0,0,1-3-3V7A3,3,0,0,1,7,4H57a3,3,0,0,1,3,3Z" fill="#003b68"/>
    <path id="Trazado_3437" data-name="Trazado 3437" d="M57,6H7A1,1,0,0,0,6,7V41a1,1,0,0,0,1,1H57a1,1,0,0,0,1-1V7A1,1,0,0,0,57,6ZM56,8v4H8V8ZM8,14H31V40H8ZM33,40V14H56V40Z" fill="#003b68"/>
    <path id="Trazado_3438" data-name="Trazado 3438" d="M10,9h2v2H10Z" fill="#003b68"/>
    <path id="Trazado_3439" data-name="Trazado 3439" d="M14,9h2v2H14Z" fill="#003b68"/>
    <path id="Trazado_3440" data-name="Trazado 3440" d="M18,9h2v2H18Z" fill="#003b68"/>
    <path id="Trazado_3441" data-name="Trazado 3441" d="M53,16H36a1,1,0,0,0-1,1V27a1,1,0,0,0,1,1H53a1,1,0,0,0,1-1V17A1,1,0,0,0,53,16Zm-1,2v7.4l-3.219-4.024a1,1,0,0,0-1.562,0l-1.6,2-2.851-3.959a.994.994,0,0,0-1.62,0L37,25.224V18Zm-4.488,8-.676-.94L48,23.6,49.919,26Zm-2.464,0H38.9l3.06-4.284Z" fill="#003b68"/>
    <path id="Trazado_3442" data-name="Trazado 3442" d="M35,30h2v2H35Z" fill="#003b68"/>
    <path id="Trazado_3443" data-name="Trazado 3443" d="M39,30h8v2H39Z" fill="#003b68"/>
    <path id="Trazado_3444" data-name="Trazado 3444" d="M49,30h5v2H49Z" fill="#003b68"/>
    <path id="Trazado_3445" data-name="Trazado 3445" d="M35,33h2v2H35Z" fill="#003b68"/>
    <path id="Trazado_3446" data-name="Trazado 3446" d="M39,33H54v2H39Z" fill="#003b68"/>
    <path id="Trazado_3447" data-name="Trazado 3447" d="M10,16h3v2H10Z" fill="#003b68"/>
    <path id="Trazado_3448" data-name="Trazado 3448" d="M15,16h4v2H15Z" fill="#003b68"/>
    <path id="Trazado_3449" data-name="Trazado 3449" d="M21,16h2v2H21Z" fill="#003b68"/>
    <path id="Trazado_3450" data-name="Trazado 3450" d="M12,19h2v2H12Z" fill="#003b68"/>
    <path id="Trazado_3451" data-name="Trazado 3451" d="M16,19h4v2H16Z" fill="#003b68"/>
    <path id="Trazado_3452" data-name="Trazado 3452" d="M22,19h3v2H22Z" fill="#003b68"/>
    <path id="Trazado_3453" data-name="Trazado 3453" d="M14,22h5v2H14Z" fill="#003b68"/>
    <path id="Trazado_3454" data-name="Trazado 3454" d="M21,22h6v2H21Z" fill="#003b68"/>
    <path id="Trazado_3455" data-name="Trazado 3455" d="M10,30h2v2H10Z" fill="#003b68"/>
    <path id="Trazado_3456" data-name="Trazado 3456" d="M14,30h7v2H14Z" fill="#003b68"/>
    <path id="Trazado_3457" data-name="Trazado 3457" d="M12,33h2v2H12Z" fill="#003b68"/>
    <path id="Trazado_3458" data-name="Trazado 3458" d="M16,33h4v2H16Z" fill="#003b68"/>
    <path id="Trazado_3459" data-name="Trazado 3459" d="M22,33h2v2H22Z" fill="#003b68"/>
    <path id="Trazado_3460" data-name="Trazado 3460" d="M15,36h5v2H15Z" fill="#003b68"/>
    <path id="Trazado_3461" data-name="Trazado 3461" d="M22,36h6v2H22Z" fill="#003b68"/>
    <path id="Trazado_3462" data-name="Trazado 3462" d="M12,26h2v2H12Z" fill="#003b68"/>
    <path id="Trazado_3463" data-name="Trazado 3463" d="M16,26h8v2H16Z" fill="#003b68"/>
    <path id="Trazado_3464" data-name="Trazado 3464" d="M26,26h2v2H26Z" fill="#003b68"/>
    <path id="Trazado_3465" data-name="Trazado 3465" d="M35,36H54v2H35Z" fill="#003b68"/>
  </g>
</svg>
