<?xml version="1.0"?>
<svg xmlns="http://www.w3.org/2000/svg" xmlns:xlink="http://www.w3.org/1999/xlink" version="1.1" id="Capa_1" x="0px" y="0px" width="512px" height="512px" viewBox="0 0 520.047 520.047" style="enable-background:new 0 0 520.047 520.047;" xml:space="preserve"><g><g>
	<path d="M154.303,265.578h45.584V278h-60.477v-37.075h14.892V265.578z M238.822,302.087c5.845,0.155,11.938,0.24,18.258,0.24   c8.483,0,16.58-0.153,24.147-0.41v-36.328h-42.399v36.498H238.822z M351.313,265.578h-31.162V278h46.057v-37.075h-14.895V265.578z    M154.303,144.313h197.01v61.401h14.895v-72.581H139.411v72.575h14.892V144.313z M433.962,362.591v10.435   c28.812,0.94,49.595,3.611,49.595,6.753c0,3.95-32.521,7.135-72.643,7.135c-40.121,0-72.646-3.185-72.646-7.135   c0-2.824,16.776-5.253,41.062-6.411v-10.782h-86.086V217.729h226.804v144.863H433.962z M505.142,350.175V228.905H308.138v121.271   H505.142z M0,217.729h226.803v144.863h-86.087v10.435c28.812,0.94,49.595,3.611,49.595,6.753c0,3.95-32.523,7.135-72.642,7.135   c-40.121,0-72.644-3.185-72.644-7.135c0-2.824,16.777-5.253,41.063-6.411v-10.782H0V217.729z M14.892,350.175H211.9V228.905H14.892   V350.175z" data-original="#000000" class="active-path" data-old_color="#000000" fill="#083E63"/>
</g></g> </svg>
