<?xml version="1.0"?>
<svg xmlns="http://www.w3.org/2000/svg" id="icons" enable-background="new 0 0 64 64" height="512px" viewBox="0 0 64 64" width="512px" class=""><g><path d="m36.001 42.996c0-2.206-1.794-4-4-4s-4 1.794-4 4 1.794 4 4 4 4-1.794 4-4zm-6 0c0-1.103.897-2 2-2s2 .897 2 2-.897 2-2 2-2-.897-2-2z" data-original="#000000" class="active-path" data-old_color="#000000" fill="#083E63"/><path d="m33.031 42.995c0-.553-.448-1-1-1h-.011c-.552 0-.994.447-.994 1s.452 1 1.005 1c.552 0 1-.447 1-1z" data-original="#000000" class="active-path" data-old_color="#000000" fill="#083E63"/><path d="m40 53.994h-4.999c-.553 0-1 .447-1 1s.447 1 1 1h4.999c.553 0 1-.447 1-1s-.447-1-1-1z" data-original="#000000" class="active-path" data-old_color="#000000" fill="#083E63"/><path d="m48.115 10.031c-2.947-5.932-9.054-10.03-16.115-10.03-8.9 0-16.293 6.501-17.729 14.999h-.271c-6.065 0-11 4.935-11 11v3.971c0 6.064 4.935 10.999 11 10.999h5v16.025l-.001.248c0 .039.001.079.001.118v3.638c0 1.654 1.346 3 3 3h20.002c1.654 0 3-1.346 3-3v-4.004-16.025h2.498c7.444 0 13.5-6.056 13.5-13.499v-3.971c0-7.236-5.727-13.145-12.885-13.469zm-34.115 28.939c-3.889 0-7.2-2.483-8.455-5.944 2.02 2.426 5.06 3.974 8.455 3.974h5v.999.972h-5zm29.002-2.981c0 .004-.002.007-.002.01s.002.006.002.01v1.989 1.967c0 .002-.001.003-.001.005s.001.003.001.005v17.021c0 .552-.448 1-1 1h-11.559l-3.823-4.206 1.557-1.557c1.179.49 2.47.764 3.824.764 5.514 0 10-4.486 10-10s-4.486-10-10-10-10 4.486-10 10c0 3.416 1.724 6.435 4.345 8.239l-1.072 1.072-4.274-4.702v-9.608-.001-5.004c0-.552.448-1 1-1h20.002c.552 0 1 .448 1 1zm-22.002 14.591 2.857 3.144-.563.563c-.391.391-.391 1.023 0 1.414.195.195.451.293.707.293s.512-.098.707-.293l.496-.496 2.536 2.79h-6.722c-.012-.092-.017-.215-.019-.341v-7.074zm9.708-2.293c-.391-.391-1.023-.391-1.414 0l-1.5 1.5c-2.272-1.412-3.793-3.925-3.793-6.791 0-4.411 3.589-8 8-8s8 3.589 8 8-3.589 8-8 8c-.784 0-1.541-.118-2.258-.33l.965-.965c.391-.39.391-1.023 0-1.414zm11.294 13.712h-20.002c-.552 0-1-.448-1-1v-1.004h21.002c.353 0 .686-.072 1-.185v1.188c0 .553-.448 1.001-1 1.001zm5.498-23.029h-2.498v-.972-.999h2.498c4.34 0 8.197-2.067 10.669-5.259-1.7 4.231-5.838 7.23-10.669 7.23zm0-3.971h-2.498v-2.006c0-1.654-1.346-3-3-3h-20.002c-1.654 0-3 1.346-3 3v2.006h-5c-4.963 0-9-4.037-9-8.999 0-4.963 4.037-9 9-9h.051c-.019.333-.051.663-.051 1.001 0 .553.447 1 1 1s1-.447 1-1c0-8.822 7.178-16 16-16s16 7.178 16 16c0 .553.447 1 1 1s1-.447 1-1c0-2.066-.367-4.044-1.011-5.894 5.638.735 10.011 5.558 10.011 11.393 0 6.341-5.159 11.499-11.5 11.499z" data-original="#000000" class="active-path" data-old_color="#000000" fill="#083E63"/><path d="m37.628 10.98c-.43-.346-1.059-.277-1.405.153s-.277 1.06.153 1.405c1.667 1.34 2.623 3.33 2.623 5.461 0 3.859-3.141 7-7 7s-7-3.141-7-7c0-3.05 1.965-5.644 4.692-6.601-.33.44-.242 1.066.198 1.397.181.136.392.201.601.201.304 0 .604-.138.8-.398l1.504-1.997s0 0 0-.001c.001 0 .001 0 .002-.001.021-.027.024-.06.042-.089.041-.067.076-.135.101-.212.006-.02.021-.036.026-.057.009-.034.002-.07.007-.105.007-.047.027-.089.027-.138 0-.029-.015-.054-.017-.082-.002-.02.005-.039.003-.058-.006-.035-.026-.066-.035-.101-.019-.075-.039-.147-.074-.215-.008-.015-.008-.032-.017-.047-.016-.027-.045-.046-.063-.072-.048-.067-.099-.129-.162-.182-.015-.013-.021-.03-.037-.042-.001-.001-.001-.001-.002-.002l-2.002-1.499c-.442-.333-1.07-.239-1.4.201-.331.442-.24 1.069.201 1.4l.085.063c-3.739 1.093-6.479 4.547-6.479 8.634 0 4.963 4.037 9 9 9s9-4.037 9-9c-.001-2.736-1.229-5.295-3.372-7.016z" data-original="#000000" class="active-path" data-old_color="#000000" fill="#083E63"/></g> </svg>
