<?xml version="1.0"?>
<svg xmlns="http://www.w3.org/2000/svg" id="_x33_0" enable-background="new 0 0 64 64" height="512px" viewBox="0 0 64 64" width="512px"><g><path d="m51 42.414 7.414-7.414-10.414-10.414v2.828l7.586 7.586-4.586 4.586z" data-original="#000000" class="active-path" data-old_color="#000000" fill="#187D89"/><path d="m36 24.586-10.414 10.414 7.414 7.414v-2.828l-4.586-4.586 7.586-7.586z" data-original="#000000" class="active-path" data-old_color="#000000" fill="#187D89"/><path d="m32 18h20.001v2h-20.001z" data-original="#000000" class="active-path" data-old_color="#000000" fill="#187D89"/><path d="m9 39h6v4h-6z" data-original="#000000" class="active-path" data-old_color="#000000" fill="#187D89"/><path d="m11 21.685v-7.685c0-2.757 2.243-5 5-5h15c2.757 0 5 2.243 5 5v2h12v-6c0-3.859-3.141-7-7-7h-29c-3.859 0-7 3.141-7 7v11.685c.911-.434 1.926-.685 3-.685s2.089.251 3 .685z" data-original="#000000" class="active-path" data-old_color="#000000" fill="#187D89"/><path d="m43 28h3v-6h-8v6h3v9h2z" data-original="#000000" class="active-path" data-old_color="#000000" fill="#187D89"/><path d="m49 37h-6v4h-2v-4h-6v14h14z" data-original="#000000" class="active-path" data-old_color="#000000" fill="#187D89"/><path d="m8 35c-1.074 0-2.089-.251-3-.685v16.685h14v-14.479l-5.637-4.031c-1.285 1.532-3.211 2.51-5.363 2.51zm1 14h-2v-2h2zm4 0h-2v-2h2zm4 0h-2v-2h2zm0-4h-10v-8h10z" data-original="#000000" class="active-path" data-old_color="#000000" fill="#187D89"/><path d="m3 53v2h1 56 1v-2z" data-original="#000000" class="active-path" data-old_color="#000000" fill="#187D89"/><circle cx="8" cy="28" r="1" data-original="#000000" class="active-path" data-old_color="#000000" fill="#187D89"/><path d="m5 57h54v4.001h-54z" data-original="#000000" class="active-path" data-old_color="#000000" fill="#187D89"/><path d="m8 33c2.757 0 5-2.243 5-5s-2.243-5-5-5-5 2.243-5 5 2.243 5 5 5zm0-8c1.654 0 3 1.346 3 3s-1.346 3-3 3-3-1.346-3-3 1.346-3 3-3z" data-original="#000000" class="active-path" data-old_color="#000000" fill="#187D89"/></g> </svg>
