<?xml version="1.0"?>
<svg xmlns="http://www.w3.org/2000/svg" height="512px" viewBox="0 0 496.46996 496" width="512px"><g><path d="m380.5 207.308594c0-95.777344-77.644531-173.417969-173.421875-173.417969s-173.417969 77.640625-173.417969 173.417969 77.640625 173.421875 173.417969 173.421875c95.730469-.109375 173.308594-77.6875 173.421875-173.421875zm-330.324219 0c0-86.652344 70.25-156.902344 156.902344-156.902344 86.65625 0 156.902344 70.25 156.902344 156.902344 0 86.65625-70.246094 156.90625-156.902344 156.90625-86.613281-.101563-156.804687-70.289063-156.902344-156.90625zm0 0" data-original="#000000" class="active-path" data-old_color="#000000" fill="#187D89"/><path d="m445.578125 399.101562-.015625-.023437-.023438-.019531-17.492187-17.492188c-3.085937-3.109375-7.289063-4.855468-11.667969-4.84375h-.015625c-1.429687.019532-2.851562.226563-4.226562.613282l-20.753907-20.753907c1.535157-5.671875-.070312-11.734375-4.214843-15.902343l-12.695313-12.75c63.03125-87.414063 48.351563-208.582032-33.730468-278.414063-82.082032-69.832031-204.035157-64.90625-280.21875 11.316406-76.183594 76.222657-81.046876 198.179688-11.171876 280.226563 69.871094 82.046875 191.046876 96.664062 278.429688 33.589844l12.664062 12.75c4.128907 4.214843 10.230469 5.832031 15.902344 4.210937l20.753906 20.757813c-1.617187 5.671874.003907 11.777343 4.222657 15.898437l17.507812 17.503906.015625.023438.023438.015625 40.855468 40.855468c8.300782 8.558594 20.566407 11.976563 32.097657 8.949219 11.53125-3.027343 20.535156-12.03125 23.5625-23.5625 3.027343-11.527343-.394531-23.796875-8.949219-32.09375zm-428.433594-191.792968c-.0625-83.683594 54.65625-157.550782 134.730469-181.875 80.074219-24.320313 166.632812 6.628906 213.125 76.210937 46.496094 69.582031 41.972656 161.394531-11.136719 226.066407-.199219.246093-.402343.484374-.601562.726562-7.535157 9.074219-15.890625 17.433594-24.960938 24.972656-.296875.246094-.59375.496094-.890625.742188-56.753906 46.582031-135.28125 56.257812-201.644531 24.851562-66.363281-31.410156-108.664063-98.273437-108.621094-171.695312zm327.066407 154.148437c1.574218-1.402343 3.113281-2.835937 4.644531-4.285156 2.789062-2.640625 5.503906-5.355469 8.144531-8.148437 1.433594-1.515626 2.855469-3.039063 4.242188-4.597657 1-1.121093 2.082031-2.164062 3.058593-3.308593l11.175781 11.226562.015626.023438-23.355469 23.355468v.003906l-11.183594-11.253906c1.125-.960937 2.152344-2.03125 3.257813-3.015625zm37.117187 8.425781 17.515625 17.515626-11.675781 11.675781-17.515625-17.515625zm35.035156 23.351563 11.679688 11.683594-23.355469 23.355469-11.679688-11.683594zm58.394531 81.753906c-6.535156 6.238281-16.820312 6.238281-23.355468 0l-35.035156-35.039062 23.351562-23.351563 35.039062 35.035156c3.097657 3.09375 4.835938 7.296876 4.835938 11.675782s-1.738281 8.582031-4.835938 11.679687zm0 0" data-original="#000000" class="active-path" data-old_color="#000000" fill="#187D89"/><path d="m246.722656 320.28125c4.179688-6.363281 9.132813-12.175781 14.75-17.308594 13.0625-10.425781 19.835938-26.84375 17.929688-43.449218 9.390625-6.695313 15.785156-16.796876 17.820312-28.144532 3.257813-28.058594-4.425781-31.65625-7.320312-33.011718-1.742188-.816407-3.640625-1.253907-5.566406-1.28125.011718-1.351563-.023438-2.847657-.03125-4.257813 18.816406-8.835937 30.128906-21.09375 30.128906-35.066406 0-16.929688-16.3125-31.515625-44.707032-40.585938-2.128906-11.070312-5.453124-21.878906-9.90625-32.238281-2-4.441406-5.855468-7.777344-10.539062-9.117188-4.683594-1.339843-9.722656-.546874-13.765625 2.167969-1.308594.878907-2.734375 1.929688-4.292969 3.066407-6.707031 6.035156-15.164062 9.765624-24.144531 10.640624-8.976563-.875-17.441406-4.605468-24.144531-10.644531-1.554688-1.136719-2.984375-2.183593-4.292969-3.0625-4.042969-2.714843-9.078125-3.507812-13.757813-2.171875-4.683593 1.339844-8.535156 4.675782-10.53125 9.113282-4.460937 10.359374-7.785156 21.171874-9.917968 32.246093-28.398438 9.070313-44.710938 23.65625-44.710938 40.585938 0 13.972656 11.316406 26.230469 30.132813 35.0625-.007813 1.40625-.046875 2.898437-.035157 4.25-1.925781.03125-3.820312.472656-5.5625 1.292969-2.898437 1.355468-10.582031 4.953124-7.292968 33.289062 2.097656 11.242188 8.472656 21.234375 17.792968 27.863281-1.910156 16.605469 4.863282 33.023438 17.925782 43.453125 5.621094 5.132813 10.574218 10.945313 14.75 17.308594 6.621094 9.414062 13.46875 19.15625 29.855468 19.15625h19.578126c16.390624 0 23.234374-9.742188 29.855468-19.15625zm-100.011718-112.574219c-.15625-2.753906-.296876-5.558593-.34375-8.585937 14.089843 4.121094 28.601562 6.648437 43.257812 7.53125.792969.058594 1.585938.109375 2.382812.160156 1.910157.113281 3.816407.226562 5.761719.296875.355469.011719.699219.050781 1.054688.0625v12.195313c-7.816407 3.339843-16.289063 4.863281-24.777344 4.457031-11.296875-.25-21.648437-6.355469-27.335937-16.117188zm68.625-.535156c.359374-.011719.699218-.050781 1.054687-.0625 1.945313-.070313 3.851563-.183594 5.761719-.296875.800781-.050781 1.589844-.101562 2.382812-.160156 14.65625-.882813 29.167969-3.410156 43.257813-7.53125-.046875 3.027344-.183594 5.832031-.34375 8.585937-5.691407 9.761719-16.042969 15.863281-27.335938 16.117188-8.488281.398437-16.953125-1.113281-24.777343-4.425781zm-45.886719-115.457031c1.128906.757812 2.363281 1.660156 3.703125 2.640625 9.480468 8.21875 21.402344 13.089843 33.925781 13.859375 12.523437-.769532 24.449219-5.636719 33.929687-13.855469 1.335938-.984375 2.570313-1.886719 3.773438-2.605469 4.714844 11.183594 8.039062 22.90625 9.898438 34.902344.292968 1.792969.523437 3.570312.746093 5.347656.160157 1.253906.34375 2.488282.472657 3.769532.242187 2.40625.390624 4.78125.507812 7.140624.03125.648438.105469 1.277344.128906 1.929688-12.707031 6.859375-26.65625 11.121094-41.03125 12.535156-2.734375.246094-5.546875.382813-8.425781.382813-7.980469-.03125-15.929687-1.035157-23.671875-2.988281-8.976562-2.234376-17.636719-5.574219-25.785156-9.949219.019531-.644531.09375-1.265625.125-1.90625.121094-2.371094.269531-4.75.511718-7.164063.128907-1.273437.3125-2.5.472657-3.746094.222656-1.777343.457031-3.558593.742187-5.351562 1.859375-12.019531 5.210938-23.757812 9.976563-34.941406zm-53.207031 66.046875c0-7.703125 9.652343-15.925781 25.417968-22.195313-.050781.546875-.03125 1.070313-.074218 1.613282-.335938 4.066406-.570313 8.167968-.570313 12.324218 0 2.761719 1.378906 5.339844 3.675781 6.871094 18.796875 11.492188 40.355469 17.679688 62.386719 17.902344 22.03125-.222656 43.589844-6.410156 62.386719-17.902344 2.296875-1.53125 3.679687-4.109375 3.679687-6.871094 0-4.15625-.238281-8.257812-.570312-12.328125-.042969-.542969-.027344-1.0625-.074219-1.609375 15.765625 6.269532 25.417969 14.492188 25.417969 22.195313s-9.523438 15.867187-25.410157 22.148437c-1.097656.4375-2.261718.832032-3.402343 1.246094-16.484375 5.574219-33.691407 8.726562-51.082031 9.351562-.488282.023438-.964844.066407-1.457032.089844-3.109375.128906-6.273437.191406-9.488281.195313-3.214844.003906-6.375-.0625-9.484375-.195313-.496094-.023437-.972656-.066406-1.460938-.089844-17.390624-.625-34.597656-3.777343-51.082031-9.351562-1.136719-.414062-2.304687-.808594-3.398437-1.246094-15.890625-6.28125-25.410156-14.4375-25.410156-22.148437zm64.699218 153.015625c-4.914062-7.4375-10.746094-14.226563-17.355468-20.210938-13.265626-11.660156-12.804688-21.03125-12.160157-34l.066407-1.335937c.136718-2.929688-1.289063-5.714844-3.742188-7.316407-.488281-.320312-1.011719-.585937-1.558594-.789062-6.625-3.761719-11.308594-10.195312-12.855468-17.652344-.492188-4.269531-.667969-8.570312-.527344-12.863281 8.695312 14.535156 24.304687 23.519531 41.238281 23.734375 11.386719.519531 22.726563-1.75 33.03125-6.617188 10.308594 4.867188 21.648437 7.136719 33.035156 6.617188 16.933594-.21875 32.542969-9.203125 41.234375-23.738281.140625 4.183593-.019531 8.367187-.480468 12.527343-1.464844 7.59375-6.179688 14.167969-12.902344 17.992188-.546875.203125-1.066406.46875-1.554688.789062-2.457031 1.601563-3.878906 4.386719-3.742187 7.316407l.066406 1.335937c.644531 12.964844 1.101563 22.339844-12.164063 34-6.609374 5.984375-12.441406 12.773438-17.355468 20.210938-6.480469 9.226562-8.894532 12.144531-16.347656 12.144531h-19.578126c-7.453124 0-9.863281-2.917969-16.347656-12.144531zm0 0" data-original="#000000" class="active-path" data-old_color="#000000" fill="#187D89"/><path d="m237.699219 275.828125c-3.210938-3.21875-8.417969-3.246094-11.660157-.058594-2.890624 2.992188-6.621093 5.039063-10.703124 5.863281-4.558594 0-8.257813 3.695313-8.257813 8.257813s3.699219 8.257813 8.257813 8.257813c8.476562-.824219 16.386718-4.605469 22.355468-10.675782 3.21875-3.214844 3.21875-8.429687.007813-11.644531zm0 0" data-original="#000000" class="active-path" data-old_color="#000000" fill="#187D89"/></g> </svg>
