<svg xmlns="http://www.w3.org/2000/svg" width="45.349" height="49.122" viewBox="0 0 45.349 49.122">
  <g id="Grupo_370" data-name="Grupo 370" transform="translate(0)">
    <path id="Trazado_694" data-name="Trazado 694" d="M-1448.785,2054.113a3.281,3.281,0,0,0-3.163-3.274,3.35,3.35,0,0,0-3.493,2.94,9.374,9.374,0,0,0,0,1.054v3.719a4.92,4.92,0,0,1-.066.72h-31.859l-.161-.144v-5.035a3.285,3.285,0,0,0-3.264-3.274,3.326,3.326,0,0,0-3.284,3.359v8.513a3.272,3.272,0,0,0,1.875,3,3.576,3.576,0,0,0,1.177.131h38.975a5.439,5.439,0,0,0,1.526-.118,3.271,3.271,0,0,0,1.8-2.921C-1448.766,2059.849-1448.766,2056.968-1448.785,2054.113Z" transform="translate(1494.075 -2016.71)" fill="#007f8d" fill-rule="evenodd"/>
    <path id="Trazado_695" data-name="Trazado 695" d="M-1478.414,2025.19l10.628,10.634c.19.183.367.393.576.576a1.446,1.446,0,0,0,1.919,0,4.067,4.067,0,0,0,.406-.426l10.961-10.935a4.285,4.285,0,0,0,.537-.615,1.133,1.133,0,0,0-.367-1.559,1.206,1.206,0,0,0-.393-.151,2.653,2.653,0,0,0-.923.242h-5.056v-20.875a8.56,8.56,0,0,0,0-1.281,2.489,2.489,0,0,0-2.143-2.073h-7.9a2.526,2.526,0,0,0-2.394,2.4v20.3a4.731,4.731,0,0,1-.1,1.31.8.8,0,0,1-.864-.439h-3.687a1.082,1.082,0,0,1-.943.439,1.14,1.14,0,0,0-1.02,1.247,1.14,1.14,0,0,0,.234.586A6.126,6.126,0,0,0-1478.414,2025.19Z" transform="translate(1488.937 -1998.729)" fill="#007f8d" fill-rule="evenodd"/>
  </g>
</svg>
