<svg id="Grupo_564" data-name="Grupo 564" xmlns="http://www.w3.org/2000/svg" width="57.385" height="57.596" viewBox="0 0 57.385 57.596">
  <path id="Trazado_710" data-name="Trazado 710" d="M-1456.017,2910.064h-.046a1.165,1.165,0,0,0-.851.324,1.165,1.165,0,0,0-.36.835V2918a.873.873,0,0,1-.872.873.872.872,0,0,1-.872-.873v-11.5a1.246,1.246,0,0,0-1.246-1.246,1.246,1.246,0,0,0-1.245,1.246V2918a.873.873,0,0,1-.872.873.872.872,0,0,1-.872-.873v-13.21a1.175,1.175,0,0,0-.324-.855,1.131,1.131,0,0,0-.826-.354h-.05a1.2,1.2,0,0,0-.851.355,1.2,1.2,0,0,0-.35.854c0,.828.01,1.84.01,2.934,0,.028.023.057.023.085v1.053c0,.015-.022.032-.023.046,0,.981-.02,2-.02,2.978,0,3.145,0,5.868,0,6.134a.886.886,0,0,1-.872.885h0a.887.887,0,0,1-.87-.893c0-.261,0-2.992,0-6.134v-4.124a1.213,1.213,0,0,0-1.238-1.16,1.213,1.213,0,0,0-1.186,1.213l-.01,13.2a.871.871,0,0,1-.565.814.873.873,0,0,1-.962-.24l-1.688-1.92a2.278,2.278,0,0,0-3.182-.224l-.034.024-.037.025,5.669,10.157a4.825,4.825,0,0,0,4.228,2.463h6.767a4.829,4.829,0,0,0,4.839-4.814c.006-5.84.012-12.345,0-16.065a1.185,1.185,0,0,0-.36-.84A1.184,1.184,0,0,0-1456.017,2910.064Z" transform="translate(1493.814 -2874.52)" fill="#003b68"/>
  <path id="Trazado_711" data-name="Trazado 711" d="M-1489.955,2882.512l-.006-.006-3.337-3.337a.872.872,0,0,1,0-1.233.872.872,0,0,1,1.233,0l8.135,8.134a1.214,1.214,0,0,0,1.717,0,1.214,1.214,0,0,0,0-1.718l-8.134-8.134a.872.872,0,0,1,0-1.233.871.871,0,0,1,1.234,0l8.133,8.134,0,0,1.2,1.2a1.212,1.212,0,0,0,1.714,0l.034-.034a1.214,1.214,0,0,0,0-1.714l-2.076-2.076-.061-.059-.744-.745-.029-.03-2.149-2.148c-2.2-2.2-4.1-4.1-4.286-4.286a.873.873,0,0,1,0-1.234.872.872,0,0,1,1.234.005c.182.184,2.082,2.083,4.282,4.281l2.961,2.96a1.211,1.211,0,0,0,1.692-.059,1.212,1.212,0,0,0-.017-1.693l-9.328-9.342a.872.872,0,0,1-.177-.977.871.871,0,0,1,.85-.51l2.551.163a2.279,2.279,0,0,0,2.407-2.092c0-.014,0-.029,0-.043l.007-.047-11.2-3.181a4.846,4.846,0,0,0-4.745,1.234l-4.785,4.785a4.846,4.846,0,0,0,0,6.84c4.133,4.141,8.762,8.778,11.383,11.387a1.215,1.215,0,0,0,1.712,0l.033-.033a1.214,1.214,0,0,0,0-1.714Z" transform="translate(1503.041 -2859.918)" fill="#003b68"/>
  <path id="Trazado_712" data-name="Trazado 712" d="M-1434.863,2860.612a4.845,4.845,0,0,0-6.839,0c-4.142,4.133-8.779,8.762-11.387,11.384a1.213,1.213,0,0,0,0,1.711l.033.033a1.213,1.213,0,0,0,1.714,0l4.8-4.8a.872.872,0,0,1,1.233,0,.872.872,0,0,1,0,1.234l-8.134,8.133a1.215,1.215,0,0,0,0,1.718,1.214,1.214,0,0,0,1.718,0l8.134-8.133a.87.87,0,0,1,1.233,0,.871.871,0,0,1,0,1.233l-5.879,5.88,0,0-3.459,3.459a1.211,1.211,0,0,0,0,1.714l.035.035a1.213,1.213,0,0,0,1.713,0l2.077-2.078.058-.06.744-.745.03-.028,2.067-2.068c2.242-2.243,4.177-4.18,4.367-4.368a.872.872,0,0,1,.847-.229.873.873,0,0,1,.617.622.873.873,0,0,1-.235.845l-4.362,4.363-2.878,2.88a1.213,1.213,0,0,0,.058,1.692,1.212,1.212,0,0,0,1.693-.017l9.342-9.328a.872.872,0,0,1,.976-.177.871.871,0,0,1,.51.85l-.162,2.55a2.277,2.277,0,0,0,2.092,2.408l.043,0,.048.007,3.18-11.2a4.844,4.844,0,0,0-1.234-4.745Z" transform="translate(1486.044 -2859.197)" fill="#003b68"/>
</svg>
