<svg id="Grupo_565" data-name="Grupo 565" xmlns="http://www.w3.org/2000/svg" width="44.811" height="44.817" viewBox="0 0 44.811 44.817">
  <path id="Trazado_713" data-name="Trazado 713" d="M-1484.967,3103.177v-37.984a.575.575,0,0,0,.059-.117,3.939,3.939,0,0,1,4.2-3.3q10.981,0,21.962-.007a4.3,4.3,0,0,1,3.245,1.349q1.649,1.691,3.34,3.342a4.247,4.247,0,0,1,1.333,3.208c-.019,3.208-.006,6.417-.006,9.625v.441l.128.045a4.644,4.644,0,0,1,.3-.373c1.2-1.207,2.394-2.433,3.626-3.612a3.9,3.9,0,0,1,5.45.078,3.926,3.926,0,0,1-.088,5.674q-4.537,4.559-9.095,9.095a1.02,1.02,0,0,0-.333.8q.017,5.577,0,11.155a3.931,3.931,0,0,1-2.953,3.867c-.153.041-.306.085-.459.127h-27.306c-.1-.03-.191-.065-.287-.088a3.875,3.875,0,0,1-2.756-2.213A9.684,9.684,0,0,1-1484.967,3103.177Zm23.631-38.772h-19.478a1.352,1.352,0,0,0-1.526,1.536q0,18.245,0,36.489a1.353,1.353,0,0,0,1.528,1.534H-1455a1.352,1.352,0,0,0,1.539-1.522q0-4.179,0-8.357c0-.123-.01-.246-.015-.352a8.157,8.157,0,0,1-.876.419c-1.709.581-3.427,1.138-5.135,1.721a1.382,1.382,0,0,1-1.543-.248,1.388,1.388,0,0,1-.259-1.578c.584-1.708,1.133-3.429,1.724-5.134a2.417,2.417,0,0,1,.547-.872q2.61-2.65,5.256-5.262a.918.918,0,0,0,.309-.719c-.011-3.106-.006-6.213-.008-9.319,0-.141-.012-.283-.02-.459h-.5c-1.983,0-3.967,0-5.95,0a1.316,1.316,0,0,1-1.4-1.393c-.008-.977,0-1.954,0-2.931Zm8.642,24.62,6.222-6.213-1.716-1.717-6.225,6.212Zm-.788-19.39a1.255,1.255,0,0,0-.366-1.131q-1.85-1.858-3.708-3.708a1.259,1.259,0,0,0-1.132-.368v5.207Zm9.013,11.251c.433-.432.9-.867,1.333-1.339a1.288,1.288,0,0,0-.039-1.812,1.3,1.3,0,0,0-1.815-.025c-.47.431-.913.892-1.348,1.319Zm-13.54,11.636.075.091c1.1-.569,2.517-.48,3.315-1.569l-1.875-1.867a3.666,3.666,0,0,0-.656.836C-1457.481,3090.832-1457.728,3091.683-1458.008,3092.522Z" transform="translate(1484.967 -3061.773)" fill="#003b68"/>
  <path id="Trazado_714" data-name="Trazado 714" d="M-1466.4,3081.832q4.525,0,9.051,0a1.307,1.307,0,0,1,1.279,1.851,1.292,1.292,0,0,1-1.264.773h-4.9q-6.558,0-13.116,0a2.618,2.618,0,0,1-.564-.036,1.316,1.316,0,0,1-1.03-1.421,1.323,1.323,0,0,1,1.361-1.165Q-1470.987,3081.826-1466.4,3081.832Z" transform="translate(1482.199 -3068.697)" fill="#003b68"/>
  <path id="Trazado_715" data-name="Trazado 715" d="M-1469.116,3092.476c-2.142,0-4.284,0-6.426,0a1.308,1.308,0,0,1-1.28-1.851,1.349,1.349,0,0,1,1.351-.776q5.442.01,10.884,0c.641,0,1.283,0,1.924,0a1.33,1.33,0,0,1,1.468,1.326,1.326,1.326,0,0,1-1.452,1.3Q-1465.882,3092.479-1469.116,3092.476Z" transform="translate(1482.2 -3071.464)" fill="#003b68"/>
  <path id="Trazado_716" data-name="Trazado 716" d="M-1469.021,3097.871q3.17,0,6.338,0a1.334,1.334,0,0,1,1.49,1.3,1.329,1.329,0,0,1-1.473,1.321q-6.4,0-12.807,0a1.333,1.333,0,0,1-1.469-1.326,1.332,1.332,0,0,1,1.453-1.3Q-1472.256,3097.867-1469.021,3097.871Z" transform="translate(1482.197 -3074.233)" fill="#003b68"/>
  <path id="Trazado_717" data-name="Trazado 717" d="M-1469.019,3105.89c2.142,0,4.284-.005,6.426,0a1.3,1.3,0,0,1,1.257,1.891,1.347,1.347,0,0,1-1.331.736q-5.18-.009-10.36,0c-.83,0-1.661,0-2.491,0a1.327,1.327,0,0,1-1.424-1.328,1.325,1.325,0,0,1,1.411-1.3C-1473.361,3105.887-1471.19,3105.89-1469.019,3105.89Z" transform="translate(1482.197 -3077.001)" fill="#003b68"/>
  <path id="Trazado_718" data-name="Trazado 718" d="M-1455.655,3120.812c-1.266,0-2.533,0-3.8,0a1.332,1.332,0,0,1-1.448-1.3,1.325,1.325,0,0,1,1.428-1.321q3.823,0,7.646,0a1.32,1.32,0,0,1,1.426,1.323,1.326,1.326,0,0,1-1.449,1.3C-1453.121,3120.815-1454.388,3120.812-1455.655,3120.812Z" transform="translate(1476.661 -3081.246)" fill="#003b68"/>
</svg>
