<?xml version="1.0"?>
<svg xmlns="http://www.w3.org/2000/svg" id="router" enable-background="new 0 0 300 300" height="512px" viewBox="0 0 300 300" width="512px" class=""><g><g><path d="m214.98 94.436c-6.315 0-12.267 2.437-16.772 6.873-1.575 1.55-1.595 4.083-.045 5.657 1.551 1.575 4.084 1.593 5.656.044 3-2.953 6.959-4.574 11.163-4.574h.129c4.251.034 8.235 1.721 11.218 4.75.783.795 1.816 1.194 2.851 1.194 1.014 0 2.027-.383 2.806-1.149 1.575-1.55 1.595-4.083.045-5.657-4.481-4.553-10.468-7.087-16.856-7.138-.066.001-.13 0-.195 0z" data-original="#000000" class="active-path" data-old_color="#000000" fill="#083E63"/><path d="m240.993 96.619c1.017 0 2.033-.385 2.813-1.157 1.57-1.554 1.584-4.086.03-5.657-7.625-7.706-17.795-11.981-28.637-12.039-10.812-.018-21.056 4.111-28.762 11.736-1.57 1.554-1.584 4.086-.03 5.657 1.556 1.57 4.088 1.583 5.657.03 6.146-6.082 14.277-9.424 22.916-9.424h.177c8.704.046 16.869 3.479 22.991 9.666.783.792 1.815 1.188 2.845 1.188z" data-original="#000000" class="active-path" data-old_color="#000000" fill="#083E63"/><path d="m257.459 77.737c-22.396-23.42-59.67-24.251-83.089-1.857-1.597 1.527-1.653 4.059-.126 5.656 1.525 1.597 4.058 1.653 5.655.126 20.23-19.348 52.43-18.628 71.778 1.604.785.822 1.838 1.235 2.892 1.235.993 0 1.988-.368 2.764-1.109 1.596-1.526 1.653-4.058.126-5.655z" data-original="#000000" class="active-path" data-old_color="#000000" fill="#083E63"/><path d="m241.291 175.209h-17.072v-53.815c0-5.514-4.486-10-10-10s-10 4.486-10 10v53.815h-108v-53.815c0-5.514-4.486-10-10-10s-10 4.486-10 10v53.815h-17.072c-8.231 0-14.929 6.696-14.929 14.928v50.328c0 8.231 6.697 14.929 14.929 14.929h182.144c8.231 0 14.928-6.697 14.928-14.929v-50.328c0-8.232-6.697-14.928-14.928-14.928zm-29.072-53.815c0-1.103.897-2 2-2s2 .897 2 2v53.815h-4zm-128 0c0-1.103.897-2 2-2s2 .897 2 2v53.815h-4zm164 119.071c0 3.82-3.107 6.929-6.928 6.929h-182.144c-3.82 0-6.929-3.108-6.929-6.929v-50.328c0-3.82 3.108-6.928 6.929-6.928h182.144c3.82 0 6.928 3.107 6.928 6.928z" data-original="#000000" class="active-path" data-old_color="#000000" fill="#083E63"/><circle cx="176.076" cy="215.301" r="4.511" data-original="#000000" class="active-path" data-old_color="#000000" fill="#083E63"/><circle cx="194.123" cy="215.301" r="4.511" data-original="#000000" class="active-path" data-old_color="#000000" fill="#083E63"/><circle cx="212.169" cy="215.301" r="4.511" data-original="#000000" class="active-path" data-old_color="#000000" fill="#083E63"/><circle cx="46.219" cy="89.394" r="4.787" data-original="#000000" class="active-path" data-old_color="#000000" fill="#083E63"/><circle cx="46.219" cy="69.394" r="4.787" data-original="#000000" class="active-path" data-old_color="#000000" fill="#083E63"/><circle cx="46.219" cy="49.394" r="4.787" data-original="#000000" class="active-path" data-old_color="#000000" fill="#083E63"/></g></g> </svg>
