<svg xmlns="http://www.w3.org/2000/svg" width="48.575" height="54.01" viewBox="0 0 48.575 54.01">
  <g id="support" transform="translate(-25.75 0.25)">
    <g id="Grupo_372" data-name="Grupo 372" transform="translate(60.489 41.386)">
      <g id="Grupo_371" data-name="Grupo 371">
        <path id="Trazado_665" data-name="Trazado 665" d="M357.045,396a1.045,1.045,0,1,0,1.045,1.045A1.045,1.045,0,0,0,357.045,396Z" transform="translate(-356 -396)" fill="#083e63" stroke="#083e63" stroke-width="0.5"/>
      </g>
    </g>
    <g id="Grupo_374" data-name="Grupo 374" transform="translate(26)">
      <g id="Grupo_373" data-name="Grupo 373" transform="translate(0)">
        <path id="Trazado_666" data-name="Trazado 666" d="M64.107,38.007,59.14,36.351l-1.783-3.567a11.447,11.447,0,0,0,3.1-6.055l.222-1.333h1.9a3.139,3.139,0,0,0,3.135-3.135V15.677a15.677,15.677,0,0,0-31.353,0v6.584a3.14,3.14,0,0,0,2.09,2.956v1.225a3.139,3.139,0,0,0,3.135,3.135H40.5a11.338,11.338,0,0,0,1.753,2.715c.148.17.3.335.46.5l-1.782,3.565-4.967,1.656C30.192,39.933,26,46.013,26,52.464a1.045,1.045,0,0,0,1.045,1.045H73.03a1.045,1.045,0,0,0,1.045-1.045C74.075,46.013,69.883,39.933,64.107,38.007Zm-.483-15.746a1.046,1.046,0,0,1-1.045,1.045h-1.6c.266-2.058.443-4.248.514-6.4,0-.061,0-.12.006-.18h2.121ZM37.5,23.306a1.046,1.046,0,0,1-1.045-1.045V16.722h2.121q.005.164.011.329v.011h0c.073,2.1.248,4.231.508,6.243H37.5Zm2.09,4.18a1.046,1.046,0,0,1-1.045-1.045V25.4H39.4l.222,1.333c.042.253.095.506.155.757ZM38.543,14.632H36.491a13.587,13.587,0,0,1,27.093,0H61.532A10.585,10.585,0,0,0,50.973,4.18H49.1A10.585,10.585,0,0,0,38.543,14.632ZM49.1,6.271h1.871a8.5,8.5,0,0,1,8.471,8.508c0,.329,0,.615-.008.876,0,0,0,.007,0,.01l-1.307-.187a16.793,16.793,0,0,1-9.442-4.721,1.045,1.045,0,0,0-.739-.306,9.455,9.455,0,0,0-7.27,3.439A8.5,8.5,0,0,1,49.1,6.271Zm-7.16,21.216a59.737,59.737,0,0,1-1.254-10.143l1.407-1.876a7.356,7.356,0,0,1,5.44-2.915,18.9,18.9,0,0,0,10.3,4.994l1.539.22c-.1,2.183-.313,4.373-.614,6.387v0c-.1.648-.171,1.064-.364,2.229a8.877,8.877,0,0,1-6.3,7.139,8.223,8.223,0,0,1-9.231-3.948h2.131a3.14,3.14,0,0,0,2.956,2.09h2.09a3.135,3.135,0,0,0,0-6.271h-2.09a3.137,3.137,0,0,0-2.957,2.09Zm5.917,8.154a10.483,10.483,0,0,0,3.887.088L49.9,37.68Zm.6,3.56-3.315,3.506a39.821,39.821,0,0,1-2.34-5.426l1.245-2.49Zm7.382-4.764,1.422,2.844a39.81,39.81,0,0,1-2.34,5.428l-3.548-3.548Zm-8.943-5.9a1.045,1.045,0,0,1,1.045-1.045h2.09a1.045,1.045,0,1,1,0,2.09h-2.09A1.046,1.046,0,0,1,46.9,28.531ZM28.132,51.419c.414-5.177,3.86-9.883,8.5-11.43l4.4-1.466A41.9,41.9,0,0,0,44,44.976l.006.011h0a41.905,41.905,0,0,0,2.861,4.368l1.286,2.064Zm21.905-.932L48.62,48.212q-.024-.038-.051-.074a39.849,39.849,0,0,1-2.355-3.518l3.727-3.942,3.927,3.927a39.8,39.8,0,0,1-2.363,3.532C51.455,48.206,51.527,48.1,50.037,50.488Zm1.882.932,1.286-2.064a41.891,41.891,0,0,0,2.881-4.4l.015-.028,0,0a41.86,41.86,0,0,0,2.943-6.4l4.4,1.466c4.637,1.546,8.083,6.252,8.5,11.43Z" transform="translate(-26)" fill="#083e63" stroke="#083e63" stroke-width="0.5"/>
      </g>
    </g>
    <g id="Grupo_376" data-name="Grupo 376" transform="translate(64.161 43.381)">
      <g id="Grupo_375" data-name="Grupo 375">
        <path id="Trazado_667" data-name="Trazado 667" d="M395.78,418.9a10.45,10.45,0,0,0-2.959-3.592,1.045,1.045,0,0,0-1.275,1.657,8.347,8.347,0,0,1,2.363,2.869,1.045,1.045,0,0,0,1.87-.934Z" transform="translate(-391.139 -415.088)" fill="#083e63" stroke="#083e63" stroke-width="0.5"/>
      </g>
    </g>
  </g>
</svg>
