<svg xmlns="http://www.w3.org/2000/svg" width="29.15" height="60.539" viewBox="0 0 29.15 60.539">
  <g id="remote-control" transform="translate(-149.284 -0.001)">
    <path id="Trazado_637" data-name="Trazado 637" d="M214.791,65.19a2.452,2.452,0,0,0,0-3.821,10.481,10.481,0,0,0-13.315,0,2.452,2.452,0,0,0,0,3.821,3.471,3.471,0,0,0,4.413,0,3.537,3.537,0,0,1,4.49,0A3.47,3.47,0,0,0,214.791,65.19Zm-2.964-1.254a5.82,5.82,0,0,0-7.387,0,1.192,1.192,0,0,1-1.516,0,.842.842,0,0,1,0-1.312,8.2,8.2,0,0,1,10.418,0,.842.842,0,0,1,0,1.312A1.192,1.192,0,0,1,211.826,63.936Z" transform="translate(-44.274 -52.009)" fill="#083e63"/>
    <path id="Trazado_638" data-name="Trazado 638" d="M176.064,7.672a9.936,9.936,0,0,1,12.636,0,3.47,3.47,0,0,0,4.413,0,2.452,2.452,0,0,0,0-3.82,16.875,16.875,0,0,0-21.461,0,2.452,2.452,0,0,0,0,3.821A3.47,3.47,0,0,0,176.064,7.672ZM173.1,5.106a14.6,14.6,0,0,1,18.564,0,.842.842,0,0,1,0,1.312,1.192,1.192,0,0,1-1.516,0,12.214,12.214,0,0,0-15.533,0,1.192,1.192,0,0,1-1.516,0A.842.842,0,0,1,173.1,5.106Z" transform="translate(-18.523 0)" fill="#083e63"/>
    <path id="Trazado_639" data-name="Trazado 639" d="M236.587,116.61c-1.957-.174-3.617,1.27-3.415,2.956A2.983,2.983,0,0,0,236.277,122a2.885,2.885,0,0,0,3.1-2.972A2.96,2.96,0,0,0,236.587,116.61Zm-.31,3.616a1.027,1.027,0,0,1-1.067-.842.845.845,0,0,1,.309-.74,1.113,1.113,0,0,1,1.825.564A.991.991,0,0,1,236.277,120.226Z" transform="translate(-72.417 -102.809)" fill="#083e63"/>
    <path id="Trazado_640" data-name="Trazado 640" d="M180.433,434.484a3.3,3.3,0,0,0-2.446.759,2.408,2.408,0,0,0-.871,2.112,2.9,2.9,0,0,0,3.017,2.365,3.258,3.258,0,0,0,2.245-.863,2.413,2.413,0,0,0,.771-2.024A2.875,2.875,0,0,0,180.433,434.484Zm.424,3.184a1.038,1.038,0,0,1-.725.278.942.942,0,0,1-.979-.772.774.774,0,0,1,.283-.678,1.058,1.058,0,0,1,.691-.252c.032,0,.064,0,.1,0a.926.926,0,0,1,.885.766A.781.781,0,0,1,180.857,437.668Z" transform="translate(-24.017 -383.099)" fill="#083e63"/>
    <path id="Trazado_641" data-name="Trazado 641" d="M236.841,439.72a3.258,3.258,0,0,0,2.245-.863,2.413,2.413,0,0,0,.771-2.024,2.875,2.875,0,0,0-2.714-2.349,3.3,3.3,0,0,0-2.446.759,2.408,2.408,0,0,0-.871,2.113,2.9,2.9,0,0,0,3.017,2.365Zm-.7-3.224a1.058,1.058,0,0,1,.691-.252c.032,0,.064,0,.1,0a.926.926,0,0,1,.885.766.782.782,0,0,1-.253.654,1.037,1.037,0,0,1-.725.278.942.942,0,0,1-.979-.772A.775.775,0,0,1,236.144,436.5Z" transform="translate(-72.981 -383.099)" fill="#083e63"/>
    <path id="Trazado_642" data-name="Trazado 642" d="M293.848,434.484a3.3,3.3,0,0,0-2.446.759,2.408,2.408,0,0,0-.871,2.113,2.9,2.9,0,0,0,3.017,2.365,3.259,3.259,0,0,0,2.245-.863,2.413,2.413,0,0,0,.77-2.024A2.875,2.875,0,0,0,293.848,434.484Zm.424,3.184a1.037,1.037,0,0,1-.725.278.942.942,0,0,1-.979-.772.775.775,0,0,1,.283-.678,1.057,1.057,0,0,1,.691-.252c.032,0,.064,0,.1,0a.926.926,0,0,1,.885.766A.781.781,0,0,1,294.272,437.668Z" transform="translate(-121.943 -383.099)" fill="#083e63"/>
    <path id="Trazado_643" data-name="Trazado 643" d="M183.148,381.51a2.875,2.875,0,0,0-2.714-2.349,3.3,3.3,0,0,0-2.446.759,2.408,2.408,0,0,0-.871,2.112,2.9,2.9,0,0,0,3.017,2.365,3.258,3.258,0,0,0,2.245-.863,2.413,2.413,0,0,0,.77-2.024Zm-2.29.835a1.038,1.038,0,0,1-.725.278.942.942,0,0,1-.979-.772.774.774,0,0,1,.283-.678,1.058,1.058,0,0,1,.691-.252c.032,0,.064,0,.1,0a.926.926,0,0,1,.885.766A.781.781,0,0,1,180.857,382.345Z" transform="translate(-24.017 -334.318)" fill="#083e63"/>
    <path id="Trazado_644" data-name="Trazado 644" d="M237.141,379.161a3.3,3.3,0,0,0-2.446.759,2.408,2.408,0,0,0-.871,2.113,2.9,2.9,0,0,0,3.017,2.365,3.258,3.258,0,0,0,2.245-.863,2.413,2.413,0,0,0,.771-2.024A2.875,2.875,0,0,0,237.141,379.161Zm.424,3.184a1.038,1.038,0,0,1-.725.278.942.942,0,0,1-.979-.772.774.774,0,0,1,.283-.678,1.058,1.058,0,0,1,.691-.252c.032,0,.064,0,.1,0a.926.926,0,0,1,.885.766A.781.781,0,0,1,237.564,382.345Z" transform="translate(-72.98 -334.318)" fill="#083e63"/>
    <path id="Trazado_645" data-name="Trazado 645" d="M296.563,381.509a2.875,2.875,0,0,0-2.714-2.349,3.3,3.3,0,0,0-2.446.759,2.408,2.408,0,0,0-.871,2.113,2.9,2.9,0,0,0,3.017,2.365,3.259,3.259,0,0,0,2.245-.863A2.413,2.413,0,0,0,296.563,381.509Zm-2.29.835a1.037,1.037,0,0,1-.725.278.942.942,0,0,1-.979-.772.775.775,0,0,1,.283-.678,1.057,1.057,0,0,1,.691-.252c.032,0,.064,0,.1,0a.926.926,0,0,1,.885.766A.781.781,0,0,1,294.272,382.345Z" transform="translate(-121.943 -334.318)" fill="#083e63"/>
    <path id="Trazado_646" data-name="Trazado 646" d="M183.148,326.186a2.875,2.875,0,0,0-2.714-2.349,3.3,3.3,0,0,0-2.446.759,2.408,2.408,0,0,0-.871,2.112,2.9,2.9,0,0,0,3.017,2.365,3.259,3.259,0,0,0,2.245-.863,2.413,2.413,0,0,0,.77-2.024Zm-2.29.836a1.038,1.038,0,0,1-.725.278.942.942,0,0,1-.979-.772.774.774,0,0,1,.283-.678,1.058,1.058,0,0,1,.691-.252c.032,0,.064,0,.1,0a.926.926,0,0,1,.885.766A.781.781,0,0,1,180.857,327.021Z" transform="translate(-24.017 -285.535)" fill="#083e63"/>
    <path id="Trazado_647" data-name="Trazado 647" d="M239.855,326.186a2.875,2.875,0,0,0-2.714-2.349,3.3,3.3,0,0,0-2.446.759,2.408,2.408,0,0,0-.871,2.113,2.9,2.9,0,0,0,3.017,2.365,3.259,3.259,0,0,0,2.245-.863A2.413,2.413,0,0,0,239.855,326.186Zm-2.291.836a1.038,1.038,0,0,1-.725.278.942.942,0,0,1-.979-.772.774.774,0,0,1,.283-.678,1.058,1.058,0,0,1,.691-.252c.032,0,.064,0,.1,0a.926.926,0,0,1,.885.766A.781.781,0,0,1,237.564,327.021Z" transform="translate(-72.98 -285.535)" fill="#083e63"/>
    <path id="Trazado_648" data-name="Trazado 648" d="M237.141,238.665a3.3,3.3,0,0,0-2.446.759,2.408,2.408,0,0,0-.871,2.112,2.9,2.9,0,0,0,3.017,2.365,3.259,3.259,0,0,0,2.245-.863,2.413,2.413,0,0,0,.771-2.025A2.876,2.876,0,0,0,237.141,238.665Zm.424,3.184a1.037,1.037,0,0,1-.725.278.942.942,0,0,1-.979-.772.774.774,0,0,1,.283-.678,1.057,1.057,0,0,1,.692-.252c.032,0,.064,0,.1,0a.926.926,0,0,1,.885.766A.781.781,0,0,1,237.564,241.85Z" transform="translate(-72.98 -210.434)" fill="#083e63"/>
    <path id="Trazado_649" data-name="Trazado 649" d="M293.848,323.838a3.3,3.3,0,0,0-2.446.759,2.408,2.408,0,0,0-.871,2.113,2.9,2.9,0,0,0,3.017,2.365,3.259,3.259,0,0,0,2.245-.863,2.413,2.413,0,0,0,.77-2.024,2.875,2.875,0,0,0-2.715-2.349Zm.424,3.184a1.038,1.038,0,0,1-.725.278.942.942,0,0,1-.979-.772.775.775,0,0,1,.283-.678,1.057,1.057,0,0,1,.691-.252c.032,0,.064,0,.1,0a.926.926,0,0,1,.885.766A.781.781,0,0,1,294.272,327.022Z" transform="translate(-121.943 -285.536)" fill="#083e63"/>
    <path id="Trazado_650" data-name="Trazado 650" d="M204.773,236.793a1.139,1.139,0,0,0-1.448,0l-1.581,1.369a1.6,1.6,0,0,0,0,2.494l1.581,1.369a1.14,1.14,0,0,0,1.448,0,.805.805,0,0,0,0-1.254l-1.573-1.362,1.573-1.362A.805.805,0,0,0,204.773,236.793Z" transform="translate(-44.781 -208.566)" fill="#083e63"/>
    <path id="Trazado_651" data-name="Trazado 651" d="M238.03,207.877l-1.581-1.369a2.27,2.27,0,0,0-2.881,0l-1.581,1.369a.805.805,0,0,0,0,1.254,1.139,1.139,0,0,0,1.448,0l1.573-1.362,1.573,1.362a1.14,1.14,0,0,0,1.449,0A.805.805,0,0,0,238.03,207.877Z" transform="translate(-71.15 -181.636)" fill="#083e63"/>
    <path id="Trazado_652" data-name="Trazado 652" d="M231.987,288.489l1.581,1.369a2.27,2.27,0,0,0,2.881,0l1.581-1.369a.805.805,0,0,0,0-1.254,1.14,1.14,0,0,0-1.449,0l-1.573,1.362-1.573-1.362a1.14,1.14,0,0,0-1.449,0A.805.805,0,0,0,231.987,288.489Z" transform="translate(-71.15 -253.044)" fill="#083e63"/>
    <path id="Trazado_653" data-name="Trazado 653" d="M283.877,236.793a1.14,1.14,0,0,0-1.449,0,.805.805,0,0,0,0,1.254L284,239.409l-1.573,1.362a.805.805,0,0,0,0,1.254,1.14,1.14,0,0,0,1.448,0l1.581-1.369a1.6,1.6,0,0,0,0-2.494Z" transform="translate(-114.702 -208.566)" fill="#083e63"/>
    <path id="Trazado_654" data-name="Trazado 654" d="M278.193,357.36a.963.963,0,0,0-1.024.887v13.33a2.5,2.5,0,0,1-2.652,2.3h-7.485a.9.9,0,1,0,0,1.774h7.485c2.592,0,4.7-1.826,4.7-4.069v-13.33A.963.963,0,0,0,278.193,357.36Z" transform="translate(-100.783 -315.107)" fill="#083e63"/>
    <path id="Trazado_655" data-name="Trazado 655" d="M173.734,182.7h-19.75c-2.592,0-4.7,1.826-4.7,4.069v30.8c0,2.244,2.108,4.069,4.7,4.069h7.485a.9.9,0,1,0,0-1.774h-7.485a2.5,2.5,0,0,1-2.652-2.3v-30.8a2.5,2.5,0,0,1,2.652-2.3h19.75a2.5,2.5,0,0,1,2.652,2.3V200.1a1.035,1.035,0,0,0,2.049,0v-13.33C178.434,184.529,176.326,182.7,173.734,182.7Z" transform="translate(0 -161.1)" fill="#083e63"/>
  </g>
</svg>
