<svg xmlns="http://www.w3.org/2000/svg" width="41.667" height="41.667" viewBox="0 0 41.667 41.667">
  <g id="focus" transform="translate(0.25 0.25)">
    <path id="Trazado_668" data-name="Trazado 668" d="M60.11,132.427l.386-.63-.386-.63a23.2,23.2,0,0,0-4.634-5.123,20.9,20.9,0,0,0-27.373,0,23.421,23.421,0,0,0-4.67,5.12l-.394.636.394.636a23.421,23.421,0,0,0,4.67,5.12,20.9,20.9,0,0,0,27.373,0A23.186,23.186,0,0,0,60.11,132.427Zm-6.242,3.323a18.483,18.483,0,0,1-24.164,0,22.759,22.759,0,0,1-3.778-3.95,22.761,22.761,0,0,1,3.778-3.95,18.483,18.483,0,0,1,24.164,0,22.463,22.463,0,0,1,3.75,3.953A22.467,22.467,0,0,1,53.869,135.75Zm0,0" transform="translate(-21.187 -111.214)" fill="#083e63" stroke="#083e63" stroke-width="0.5"/>
    <path id="Trazado_669" data-name="Trazado 669" d="M173.114,165.867a7.247,7.247,0,1,0,7.247,7.247A7.255,7.255,0,0,0,173.114,165.867Zm0,12.082a4.835,4.835,0,1,1,4.835-4.835A4.841,4.841,0,0,1,173.114,177.949Zm0,0" transform="translate(-152.531 -152.531)" fill="#083e63" stroke="#083e63" stroke-width="0.5"/>
    <path id="Trazado_670" data-name="Trazado 670" d="M2.412,2.412H7.447V0H0V7.357H2.412Zm0,0" fill="#083e63" stroke="#083e63" stroke-width="0.5"/>
    <path id="Trazado_671" data-name="Trazado 671" d="M419.375,0V2.412h5.035V7.357h2.412V0Zm0,0" transform="translate(-385.655)" fill="#083e63" stroke="#083e63" stroke-width="0.5"/>
    <path id="Trazado_672" data-name="Trazado 672" d="M2.412,420.5H0v7.357H7.447v-2.412H2.412Zm0,0" transform="translate(0 -386.69)" fill="#083e63" stroke="#083e63" stroke-width="0.5"/>
    <path id="Trazado_673" data-name="Trazado 673" d="M424.41,425.445h-5.035v2.412h7.447V420.5H424.41Zm0,0" transform="translate(-385.655 -386.69)" fill="#083e63" stroke="#083e63" stroke-width="0.5"/>
  </g>
</svg>
