<svg xmlns="http://www.w3.org/2000/svg" width="61.266" height="44.225" viewBox="0 0 61.266 44.225">
  <g id="Grupo_372" data-name="Grupo 372" transform="translate(0 1.5)">
    <g id="_36" data-name="36">
      <g id="Grupo_371" data-name="Grupo 371">
        <path id="Trazado_696" data-name="Trazado 696" d="M-1475.876,2235.486h18.437a.877.877,0,0,0,.877-.877.877.877,0,0,0-.877-.877h-18.437a.877.877,0,0,0-.877.877A.877.877,0,0,0-1475.876,2235.486Z" transform="translate(1494.308 -2231.403)" fill="#008396"/>
        <path id="Trazado_697" data-name="Trazado 697" d="M-1501.059,2248.584h18.438a.878.878,0,0,0,.877-.877.877.877,0,0,0-.877-.877h-18.437a.877.877,0,0,0-.877.877A.877.877,0,0,0-1501.059,2248.584Z" transform="translate(1503.001 -2235.925)" fill="#008396"/>
        <path id="Trazado_698" data-name="Trazado 698" d="M-1493.038,2262.83a.878.878,0,0,0,.877.877h18.437a.878.878,0,0,0,.877-.877.877.877,0,0,0-.877-.877h-18.437A.878.878,0,0,0-1493.038,2262.83Z" transform="translate(1499.929 -2241.145)" fill="#008396"/>
        <path id="Trazado_699" data-name="Trazado 699" d="M-1486.119,2278.862h-16.567a.877.877,0,0,0-.877.877.877.877,0,0,0,.877.877h16.567a.877.877,0,0,0,.877-.877A.877.877,0,0,0-1486.119,2278.862Z" transform="translate(1503.562 -2246.982)" fill="#008396"/>
        <path id="Trazado_700" data-name="Trazado 700" d="M-1433.928,2239.759a4.791,4.791,0,0,0,4.791-4.791,4.791,4.791,0,0,0-4.791-4.791,4.792,4.792,0,0,0-4.792,4.791A4.792,4.792,0,0,0-1433.928,2239.759Z" transform="translate(1481.179 -2230.176)" fill="none" stroke="#008396" stroke-width="3"/>
        <path id="Trazado_701" data-name="Trazado 701" d="M-1438.387,2242.119c-2.751,3.854-6.435,4.3-10.4,1.947-.271-.161-1.468-.82-1.733-.978-6.377-3.786-12.747-2.3-17.019,3.681-1.815,2.545,2.383,4.956,4.178,2.441,2.207-3.091,5.013-3.985,8.083-3.006-1.571,2.729-2.946,5.44-4.885,9.292s-6.221,6.929-10.335,4.523c-2.969-1.735-5.646,2.53-2.686,4.26a12.143,12.143,0,0,0,15.565-3,2.58,2.58,0,0,0,.375.166,31.076,31.076,0,0,1,7.444,4.408c1.1.9,2.981,5.5,4.1,7.814,1.357,2.8,5.741.762,4.379-2.054-1.269-2.623-3.4-7.855-5.058-9.18a41.685,41.685,0,0,0-6.113-4.16q2.227-4.312,4.656-8.513c5.185,1.589,10.114-.283,13.623-5.2C-1432.393,2242.016-1436.591,2239.6-1438.387,2242.119Z" transform="translate(1493.52 -2233.916)" fill="none" stroke="#008396" stroke-width="3"/>
      </g>
    </g>
  </g>
</svg>
