<svg xmlns="http://www.w3.org/2000/svg" width="47.489" height="41.731" viewBox="0 0 47.489 41.731">
  <g id="Grupo_182" data-name="Grupo 182" transform="translate(-286.292 -1148.012)">
    <g id="Grupo_180" data-name="Grupo 180">
      <path id="Trazado_98" data-name="Trazado 98" d="M333.106,1177.6a3.077,3.077,0,0,0-2.509-2.227v-17.638h1.537a.768.768,0,0,0,.768-.769v-7.685a.768.768,0,0,0-.768-.768H298.319a.768.768,0,0,0-.768.768v7.685a.768.768,0,0,0,.768.769h1.537v15.37h-.768a9.89,9.89,0,0,0-5.38,1.575V1170.8a.768.768,0,0,0-.768-.768h-5.38a.768.768,0,0,0-.768.768v17.676a.768.768,0,0,0,.768.769h5.38a.768.768,0,0,0,.768-.769v-3.88a9.909,9.909,0,0,0,5.38,1.575h12.619a10.15,10.15,0,0,0,2.589-.342l16.639-4.457A3.086,3.086,0,0,0,333.106,1177.6Zm-34.018-27.55h32.277v6.148H299.088Zm2.3,7.685H329.06v17.77l-8.919,2.392a3.089,3.089,0,0,0-2.033-1.784l-10.355-2.778a7,7,0,0,0-1.787-.23h-4.573Zm-9.222,29.972h-3.842v-16.139h3.842Zm38.365-7.821-16.636,4.457a8.544,8.544,0,0,1-2.193.29H299.088a8.4,8.4,0,0,1-5.072-1.691l-.308-.231v-6.148l.308-.231a8.389,8.389,0,0,1,5.072-1.69h6.878a5.447,5.447,0,0,1,1.392.18l10.352,2.775a1.552,1.552,0,0,1,1.129,1.324.628.628,0,0,0,.031.093.825.825,0,0,0-.021.1,1.314,1.314,0,0,1-.05.369,1.538,1.538,0,0,1-1.482,1.137,1.5,1.5,0,0,1-.4-.051l-6.533-1.751a.768.768,0,1,0-.4,1.484l6.533,1.752a3.114,3.114,0,0,0,.8.1,3.068,3.068,0,0,0,2.957-2.258,2.7,2.7,0,0,0,.087-.471l9.369-2.512c.067-.017.139-.034.208-.046a1.537,1.537,0,0,1,1.682,1.131,1.479,1.479,0,0,1,.051.4A1.537,1.537,0,0,1,330.536,1179.885Z" fill="#007f8d" stroke="#007f8d" stroke-miterlimit="10" stroke-width="1"/>
    </g>
    <g id="Grupo_181" data-name="Grupo 181">
      <path id="Trazado_99" data-name="Trazado 99" d="M311.384,1160.808h7.685a.768.768,0,1,0,0-1.537h-7.685a.768.768,0,0,0,0,1.537Z" fill="#007f8d" stroke="#007f8d" stroke-miterlimit="10" stroke-width="1"/>
    </g>
  </g>
</svg>
