<svg xmlns="http://www.w3.org/2000/svg" xmlns:xlink="http://www.w3.org/1999/xlink" viewBox="0 0 163.47 41.41"><defs><style>.cls-1{fill:url(#Degradado_sin_nombre_6);}.cls-2{fill:#fff;}</style><linearGradient id="Degradado_sin_nombre_6" x1="81.73" x2="81.73" y2="41.41" gradientUnits="userSpaceOnUse"><stop offset="0" stop-color="#266677"/><stop offset="1" stop-color="#42a5bd"/></linearGradient></defs><title>Recurso 17</title><g id="Capa_2" data-name="Capa 2"><g id="Capa_1-2" data-name="Capa 1"><rect class="cls-1" width="163.47" height="41.41" rx="1.79"/><path class="cls-2" d="M51.43,15.67H47.85l-.68,1.65H45.34l3.43-7.7h1.76L54,17.32H52.11Zm-.57-1.35-1.22-3-1.22,3Z"/><path class="cls-2" d="M58.33,11.32V12.9l-.38,0a1.45,1.45,0,0,0-1.58,1.65v2.79H54.66V11.4H56.3v.78A2.38,2.38,0,0,1,58.33,11.32Z"/><path class="cls-2" d="M65.31,11.4v8.06H63.59V16.7a2.28,2.28,0,0,1-1.77.71,2.88,2.88,0,0,1-3-3.05,2.87,2.87,0,0,1,3-3,2.28,2.28,0,0,1,1.85.77V11.4Zm-1.69,3a1.52,1.52,0,1,0-3,0,1.52,1.52,0,1,0,3,0Z"/><path class="cls-2" d="M72.85,11.4v5.92H71.22v-.7a2.53,2.53,0,0,1-4.36-1.87V11.4h1.71v3.09c0,1,.44,1.44,1.2,1.44s1.37-.51,1.37-1.6V11.4Z"/><path class="cls-2" d="M74.24,9.62a1,1,0,0,1,1.06-1,1,1,0,0,1,1.07.93,1.07,1.07,0,0,1-2.13,0Zm.21,1.78h1.71v5.92H74.45Z"/><path class="cls-2" d="M81.57,17a2.44,2.44,0,0,1-1.39.37A2,2,0,0,1,78,15.29V12.86h-.92V11.54H78V10.09h1.71v1.45h1.48v1.32H79.68v2.41a.7.7,0,0,0,.74.78,1.16,1.16,0,0,0,.69-.22Z"/><path class="cls-2" d="M88.12,14.85H83.64A1.59,1.59,0,0,0,85.34,16a2,2,0,0,0,1.48-.58l.92,1a3.1,3.1,0,0,1-2.45,1,3.07,3.07,0,0,1-3.37-3.05,3,3,0,0,1,3.15-3,2.92,2.92,0,0,1,3.08,3.06C88.15,14.52,88.13,14.7,88.12,14.85Zm-4.5-1h2.92a1.42,1.42,0,0,0-1.46-1.24A1.4,1.4,0,0,0,83.62,13.85Z"/><path class="cls-2" d="M88.86,14.36a3.05,3.05,0,0,1,3.3-3,2.71,2.71,0,0,1,2.65,1.5l-1.33.72a1.49,1.49,0,0,0-1.33-.82,1.52,1.52,0,0,0-1.56,1.64A1.52,1.52,0,0,0,92.15,16a1.46,1.46,0,0,0,1.33-.81l1.33.72a2.74,2.74,0,0,1-2.65,1.5A3.05,3.05,0,0,1,88.86,14.36Z"/><path class="cls-2" d="M99.7,17a2.46,2.46,0,0,1-1.39.37,2,2,0,0,1-2.22-2.12V12.86h-.91V11.54h.91V10.09h1.72v1.45h1.47v1.32H97.81v2.41a.7.7,0,0,0,.74.78,1.18,1.18,0,0,0,.69-.22Z"/><path class="cls-2" d="M106.63,11.4v5.92H105v-.7a2.41,2.41,0,0,1-1.84.79,2.36,2.36,0,0,1-2.53-2.66V11.4h1.71v3.09c0,1,.44,1.44,1.2,1.44s1.37-.51,1.37-1.6V11.4Z"/><path class="cls-2" d="M111.9,11.32V12.9l-.38,0a1.45,1.45,0,0,0-1.58,1.65v2.79h-1.71V11.4h1.64v.78A2.37,2.37,0,0,1,111.9,11.32Z"/><path class="cls-2" d="M118.13,13.94v3.38h-1.61v-.73a2,2,0,0,1-1.8.82c-1.39,0-2.21-.77-2.21-1.79s.73-1.77,2.54-1.77h1.36c0-.74-.44-1.17-1.36-1.17a2.86,2.86,0,0,0-1.71.55l-.61-1.2a4.55,4.55,0,0,1,2.55-.71C117.08,11.32,118.13,12.15,118.13,13.94Zm-1.72,1.51v-.6h-1.18c-.8,0-1,.29-1,.69s.36.71,1,.71A1.26,1.26,0,0,0,116.41,15.45Z"/><path class="cls-2" d="M57.83,22.36v8.16H56.19v-.68a2.26,2.26,0,0,1-1.85.77,2.87,2.87,0,0,1-3-3.05,2.86,2.86,0,0,1,3-3,2.3,2.3,0,0,1,1.78.71V22.36Zm-1.68,5.2a1.52,1.52,0,1,0-3,0,1.52,1.52,0,1,0,3,0Z"/><path class="cls-2" d="M65.18,28.05H60.7a1.59,1.59,0,0,0,1.7,1.19,2,2,0,0,0,1.48-.58l.92,1a3.1,3.1,0,0,1-2.45,1A3.07,3.07,0,0,1,59,27.56a3,3,0,0,1,3.15-3,2.93,2.93,0,0,1,3.08,3.07C65.21,27.72,65.19,27.9,65.18,28.05Zm-4.5-1H63.6a1.43,1.43,0,0,0-1.46-1.24A1.4,1.4,0,0,0,60.68,27.05Z"/><path class="cls-2" d="M76.65,22.82v7.7H75.19l-3.84-4.67v4.67H69.59v-7.7h1.47l3.83,4.68V22.82Z"/><path class="cls-2" d="M84.12,28.05H79.64a1.6,1.6,0,0,0,1.7,1.19,2,2,0,0,0,1.48-.58l.92,1a3.1,3.1,0,0,1-2.45,1,3.07,3.07,0,0,1-3.37-3.05,3,3,0,0,1,3.15-3,2.93,2.93,0,0,1,3.08,3.07C84.15,27.72,84.13,27.9,84.12,28.05Zm-4.5-1h2.92a1.48,1.48,0,0,0-2.92,0Z"/><path class="cls-2" d="M91.4,24.6v4.93c0,2.2-1.18,3.21-3.32,3.21a4.85,4.85,0,0,1-2.9-.81l.68-1.23a3.52,3.52,0,0,0,2.09.67c1.21,0,1.74-.55,1.74-1.62V29.5a2.45,2.45,0,0,1-1.87.74,2.86,2.86,0,1,1,0-5.72,2.4,2.4,0,0,1,2,.84V24.6Zm-1.69,2.78a1.56,1.56,0,1,0-1.55,1.45A1.44,1.44,0,0,0,89.71,27.38Z"/><path class="cls-2" d="M92.56,27.56a3.26,3.26,0,1,1,3.25,3.05A3,3,0,0,1,92.56,27.56Zm4.76,0a1.52,1.52,0,1,0-3,0,1.52,1.52,0,1,0,3,0Z"/><path class="cls-2" d="M99.76,27.56a3.06,3.06,0,0,1,3.3-3,2.69,2.69,0,0,1,2.65,1.5l-1.33.72a1.48,1.48,0,0,0-1.33-.82,1.64,1.64,0,0,0,0,3.28,1.45,1.45,0,0,0,1.33-.81l1.33.72a2.73,2.73,0,0,1-2.65,1.5A3.06,3.06,0,0,1,99.76,27.56Z"/><path class="cls-2" d="M106.49,22.82a1,1,0,0,1,1.07-1,1,1,0,0,1,1.07.93,1.07,1.07,0,0,1-2.14,0Zm.21,1.78h1.72v5.92H106.7Z"/><path class="cls-2" d="M109.57,27.56a3.26,3.26,0,1,1,3.26,3.05A3,3,0,0,1,109.57,27.56Zm4.77,0a1.52,1.52,0,1,0-3,0,1.52,1.52,0,1,0,3,0Z"/></g></g></svg>