<svg xmlns="http://www.w3.org/2000/svg" xmlns:xlink="http://www.w3.org/1999/xlink" viewBox="0 0 163.47 41.41"><defs><style>.cls-1{fill:url(#Degradado_sin_nombre_6);}.cls-2{fill:#fff;}</style><linearGradient id="Degradado_sin_nombre_6" x1="81.73" x2="81.73" y2="41.41" gradientUnits="userSpaceOnUse"><stop offset="0" stop-color="#266677"/><stop offset="1" stop-color="#42a5bd"/></linearGradient></defs><title>Recurso 18</title><g id="Capa_2" data-name="Capa 2"><g id="Capa_1-2" data-name="Capa 1"><rect class="cls-1" width="163.47" height="41.41" rx="1.79"/><path class="cls-2" d="M51.19,15.67H47.61l-.68,1.65H45.1l3.44-7.7H50.3l3.44,7.7H51.87Zm-.56-1.35-1.22-3-1.23,3Z"/><path class="cls-2" d="M58.1,11.32V12.9l-.39,0a1.45,1.45,0,0,0-1.57,1.65v2.79H54.42V11.4h1.64v.78A2.39,2.39,0,0,1,58.1,11.32Z"/><path class="cls-2" d="M65.07,11.4v8.06H63.35V16.7a2.28,2.28,0,0,1-1.77.71,2.88,2.88,0,0,1-3-3.05,2.87,2.87,0,0,1,3-3,2.28,2.28,0,0,1,1.85.77V11.4Zm-1.68,3a1.52,1.52,0,1,0-3,0,1.52,1.52,0,1,0,3,0Z"/><path class="cls-2" d="M72.62,11.4v5.92H71v-.7a2.53,2.53,0,0,1-4.37-1.87V11.4h1.72v3.09c0,1,.44,1.44,1.2,1.44s1.36-.51,1.36-1.6V11.4Z"/><path class="cls-2" d="M74,9.62a1,1,0,0,1,1.07-1,1,1,0,0,1,1.07.93,1.07,1.07,0,0,1-2.14,0Zm.21,1.78h1.72v5.92H74.21Z"/><path class="cls-2" d="M81.34,17a2.48,2.48,0,0,1-1.4.37,2,2,0,0,1-2.21-2.12V12.86h-.91V11.54h.91V10.09h1.72v1.45h1.47v1.32H79.45v2.41a.69.69,0,0,0,.73.78,1.19,1.19,0,0,0,.7-.22Z"/><path class="cls-2" d="M87.88,14.85H83.41A1.58,1.58,0,0,0,85.1,16a2,2,0,0,0,1.49-.58l.91,1a3.45,3.45,0,0,1-5.82-2.09,3,3,0,0,1,3.16-3,2.93,2.93,0,0,1,3.08,3.07A3.91,3.91,0,0,1,87.88,14.85Zm-4.5-1H86.3a1.48,1.48,0,0,0-2.92,0Z"/><path class="cls-2" d="M88.62,14.36a3.05,3.05,0,0,1,3.3-3,2.71,2.71,0,0,1,2.65,1.5l-1.33.72a1.48,1.48,0,0,0-1.33-.82,1.52,1.52,0,0,0-1.55,1.64A1.51,1.51,0,0,0,91.91,16a1.45,1.45,0,0,0,1.33-.81l1.33.72a2.74,2.74,0,0,1-2.65,1.5A3.05,3.05,0,0,1,88.62,14.36Z"/><path class="cls-2" d="M99.47,17a2.5,2.5,0,0,1-1.4.37,2,2,0,0,1-2.21-2.12V12.86h-.92V11.54h.92V10.09h1.71v1.45h1.48v1.32H97.57v2.41a.7.7,0,0,0,.74.78,1.16,1.16,0,0,0,.69-.22Z"/><path class="cls-2" d="M106.4,11.4v5.92h-1.63v-.7a2.53,2.53,0,0,1-4.37-1.87V11.4h1.72v3.09c0,1,.44,1.44,1.2,1.44s1.36-.51,1.36-1.6V11.4Z"/><path class="cls-2" d="M111.66,11.32V12.9l-.38,0a1.45,1.45,0,0,0-1.57,1.65v2.79H108V11.4h1.64v.78A2.38,2.38,0,0,1,111.66,11.32Z"/><path class="cls-2" d="M117.89,14v3.37h-1.61v-.73a1.94,1.94,0,0,1-1.8.82c-1.39,0-2.21-.77-2.21-1.79s.74-1.77,2.54-1.77h1.36c0-.74-.44-1.17-1.36-1.17a2.81,2.81,0,0,0-1.7.55l-.62-1.2a4.57,4.57,0,0,1,2.55-.71C116.85,11.32,117.89,12.15,117.89,14Zm-1.72,1.5v-.6H115c-.81,0-1.06.29-1.06.69s.36.72,1,.72A1.26,1.26,0,0,0,116.17,15.45Z"/><path class="cls-2" d="M48.5,22.36v8.16H46.87v-.68a2.28,2.28,0,0,1-1.85.77,2.88,2.88,0,0,1-3-3.05,2.87,2.87,0,0,1,3-3,2.29,2.29,0,0,1,1.77.71V22.36Zm-1.68,5.2a1.52,1.52,0,1,0-3,0,1.52,1.52,0,1,0,3,0Z"/><path class="cls-2" d="M55.85,28.05H51.37a1.6,1.6,0,0,0,1.7,1.19,2,2,0,0,0,1.48-.58l.92,1a3.45,3.45,0,0,1-5.82-2.09,3,3,0,0,1,3.16-3,2.93,2.93,0,0,1,3.08,3.06C55.89,27.72,55.86,27.9,55.85,28.05Zm-4.5-1h2.92a1.48,1.48,0,0,0-2.92,0Z"/><path class="cls-2" d="M61.86,24.27H59.39V22.82H66.1v1.45H63.64v6.25H61.86Z"/><path class="cls-2" d="M72.1,28.05H67.62a1.59,1.59,0,0,0,1.7,1.19,2,2,0,0,0,1.48-.58l.91,1a3.45,3.45,0,0,1-5.82-2.09,3,3,0,0,1,3.16-3,2.92,2.92,0,0,1,3.08,3.06C72.13,27.72,72.11,27.9,72.1,28.05Zm-4.5-1h2.91a1.47,1.47,0,0,0-2.91,0Z"/><path class="cls-2" d="M72.84,27.56a3.05,3.05,0,0,1,3.3-3A2.71,2.71,0,0,1,78.79,26l-1.33.72a1.5,1.5,0,0,0-1.34-.82,1.64,1.64,0,0,0,0,3.28,1.47,1.47,0,0,0,1.34-.81l1.33.72a2.74,2.74,0,0,1-2.65,1.5A3.05,3.05,0,0,1,72.84,27.56Z"/><path class="cls-2" d="M85.83,27.13v3.39H84.11V27.4c0-1-.44-1.4-1.2-1.4s-1.42.51-1.42,1.6v2.92H79.78V24.6h1.64v.7a2.56,2.56,0,0,1,2-.78A2.32,2.32,0,0,1,85.83,27.13Z"/><path class="cls-2" d="M87,27.56a3.26,3.26,0,1,1,3.26,3.05A3,3,0,0,1,87,27.56Zm4.77,0a1.52,1.52,0,1,0-3,0,1.52,1.52,0,1,0,3,0Z"/><path class="cls-2" d="M94.65,22.36h1.72v8.16H94.65Z"/><path class="cls-2" d="M97.52,27.56a3.26,3.26,0,1,1,3.26,3.05A3,3,0,0,1,97.52,27.56Zm4.76,0a1.52,1.52,0,1,0-3,0,1.52,1.52,0,1,0,3,0Z"/><path class="cls-2" d="M111.27,24.6v4.93c0,2.2-1.19,3.21-3.32,3.21a4.88,4.88,0,0,1-2.91-.81l.69-1.23a3.5,3.5,0,0,0,2.09.67c1.21,0,1.73-.55,1.73-1.62V29.5a2.45,2.45,0,0,1-1.87.74,2.86,2.86,0,1,1,0-5.72,2.37,2.37,0,0,1,2,.84V24.6Zm-1.69,2.78A1.56,1.56,0,1,0,108,28.83,1.45,1.45,0,0,0,109.58,27.38Z"/><path class="cls-2" d="M114.21,22.26h1.84l-2,1.58h-1.34Zm-1.35,2.34h1.72v5.92h-1.72Z"/><path class="cls-2" d="M121.41,27.14v3.38h-1.6v-.74a2,2,0,0,1-1.81.83c-1.38,0-2.21-.77-2.21-1.79s.74-1.77,2.54-1.77h1.37c0-.74-.44-1.17-1.37-1.17a2.81,2.81,0,0,0-1.7.55l-.62-1.2a4.57,4.57,0,0,1,2.55-.71C120.37,24.52,121.41,25.35,121.41,27.14Zm-1.71,1.51v-.6h-1.18c-.81,0-1.06.29-1.06.69s.36.71,1,.71A1.27,1.27,0,0,0,119.7,28.65Z"/></g></g></svg>