<svg xmlns="http://www.w3.org/2000/svg" xmlns:xlink="http://www.w3.org/1999/xlink" viewBox="0 0 109.52 29.27"><defs><style>.cls-1{fill:url(#Degradado_sin_nombre_6);}.cls-2{fill:#fff;}</style><linearGradient id="Degradado_sin_nombre_6" x1="54.76" x2="54.76" y2="29.27" gradientUnits="userSpaceOnUse"><stop offset="0" stop-color="#266677"/><stop offset="1" stop-color="#42a5bd"/></linearGradient></defs><title>Recurso 16</title><g id="Capa_2" data-name="Capa 2"><g id="Capa_1-2" data-name="Capa 1"><rect class="cls-1" width="109.52" height="29.27" rx="1.79"/><path class="cls-2" d="M25.66,17.3H24.41v1.62H22.67V17.3H18.52V16.1l3.63-4.88H24l-3.36,4.63h2.06V14.41h1.69v1.44h1.25Z"/><path class="cls-2" d="M26.35,17.93a1.07,1.07,0,0,1,2.14,0,1.07,1.07,0,1,1-2.14,0Z"/><path class="cls-2" d="M32.89,11.22h1.78v7.7H32.89Z"/><path class="cls-2" d="M42.42,15.53v3.39H40.71V15.79c0-.95-.44-1.39-1.2-1.39s-1.42.5-1.42,1.59v2.93H36.37V13H38v.69a2.63,2.63,0,0,1,2-.78A2.32,2.32,0,0,1,42.42,15.53Z"/><path class="cls-2" d="M43.77,11.22a1.07,1.07,0,1,1,1.06.95A1,1,0,0,1,43.77,11.22ZM44,13h1.72v5.92H44Z"/><path class="cls-2" d="M46.84,16a3.07,3.07,0,0,1,3.31-3.05,2.72,2.72,0,0,1,2.65,1.51l-1.33.71a1.49,1.49,0,0,0-1.34-.81A1.52,1.52,0,0,0,48.58,16a1.52,1.52,0,0,0,1.55,1.64,1.46,1.46,0,0,0,1.34-.82l1.33.73A2.74,2.74,0,0,1,50.15,19,3.07,3.07,0,0,1,46.84,16Z"/><path class="cls-2" d="M53.58,11.22a1,1,0,0,1,1.06-1,1,1,0,0,1,1.07.92,1,1,0,0,1-1.07,1A1,1,0,0,1,53.58,11.22ZM53.79,13H55.5v5.92H53.79Z"/><path class="cls-2" d="M62.33,15.54v3.38h-1.6v-.74a2,2,0,0,1-1.81.83c-1.38,0-2.21-.77-2.21-1.8s.74-1.77,2.54-1.77h1.37c0-.73-.44-1.16-1.37-1.16a2.85,2.85,0,0,0-1.7.55l-.62-1.2a4.58,4.58,0,0,1,2.55-.72C61.29,12.91,62.33,13.75,62.33,15.54Zm-1.71,1.51v-.61H59.44c-.8,0-1.06.3-1.06.7s.37.71,1,.71A1.27,1.27,0,0,0,60.62,17.05Z"/><path class="cls-2" d="M67.7,18.63a2.4,2.4,0,0,1-1.4.38,2,2,0,0,1-2.21-2.13V14.45h-.91V13.13h.91V11.69h1.72v1.44h1.47v1.32H65.81v2.41a.69.69,0,0,0,.74.78,1.12,1.12,0,0,0,.69-.22Z"/><path class="cls-2" d="M68.46,11.22a1,1,0,0,1,1.07-1,1,1,0,0,1,1.06.92,1.07,1.07,0,0,1-2.13,0ZM68.67,13h1.72v5.92H68.67Z"/><path class="cls-2" d="M77.85,13l-2.49,5.92H73.59L71.1,13h1.77l1.64,4,1.69-4Z"/><path class="cls-2" d="M83.6,15.54v3.38H82v-.74a1.94,1.94,0,0,1-1.8.83C78.8,19,78,18.24,78,17.21s.73-1.77,2.54-1.77h1.36c0-.73-.44-1.16-1.36-1.16a2.86,2.86,0,0,0-1.71.55l-.61-1.2a4.53,4.53,0,0,1,2.55-.72C82.55,12.91,83.6,13.75,83.6,15.54Zm-1.72,1.51v-.61H80.7c-.8,0-1,.3-1,.7s.36.71,1,.71A1.26,1.26,0,0,0,81.88,17.05Z"/><path class="cls-2" d="M84.58,18.37l.57-1.23a4.06,4.06,0,0,0,2.06.57c.79,0,1.08-.21,1.08-.54,0-1-3.57,0-3.57-2.34,0-1.13,1-1.92,2.74-1.92a4.92,4.92,0,0,1,2.28.52l-.58,1.22a3.37,3.37,0,0,0-1.7-.44c-.77,0-1.1.24-1.1.55,0,1,3.57,0,3.57,2.37,0,1.1-1,1.88-2.79,1.88A5.1,5.1,0,0,1,84.58,18.37Z"/></g></g></svg>