<svg xmlns="http://www.w3.org/2000/svg" xmlns:xlink="http://www.w3.org/1999/xlink" viewBox="0 0 109.52 29.27"><defs><style>.cls-1{fill:url(#Degradado_sin_nombre_6);}.cls-2{fill:#fff;}</style><linearGradient id="Degradado_sin_nombre_6" x1="54.76" x2="54.76" y2="29.27" gradientUnits="userSpaceOnUse"><stop offset="0" stop-color="#266677"/><stop offset="1" stop-color="#42a5bd"/></linearGradient></defs><title>Recurso 14</title><g id="Capa_2" data-name="Capa 2"><g id="Capa_1-2" data-name="Capa 1"><rect class="cls-1" width="109.52" height="29.27" rx="1.79"/><path class="cls-2" d="M36.8,17.68v1.45H31V18l3-2.8c.68-.65.8-1.05.8-1.42,0-.6-.41-1-1.23-1a1.89,1.89,0,0,0-1.59.77l-1.3-.83a3.57,3.57,0,0,1,3.06-1.43c1.71,0,2.86.88,2.86,2.27A3.09,3.09,0,0,1,35.26,16l-1.77,1.67Z"/><path class="cls-2" d="M37.59,18.14a1.07,1.07,0,0,1,2.14,0,1.07,1.07,0,1,1-2.14,0Z"/><path class="cls-2" d="M51.13,19.13V14.51l-2.26,3.81h-.81L45.8,14.61v4.52H44.13v-7.7H45.6l2.88,4.78,2.84-4.78h1.46l0,7.7Z"/><path class="cls-2" d="M54.3,11.43a1,1,0,0,1,1.07-1,1,1,0,0,1,1.06.93,1.07,1.07,0,0,1-2.13,0Zm.21,1.78h1.72v5.92H54.51Z"/><path class="cls-2" d="M57.25,18.58l.57-1.23a4.06,4.06,0,0,0,2.06.57c.79,0,1.09-.21,1.09-.54,0-1-3.58,0-3.58-2.34,0-1.12,1-1.92,2.74-1.92a4.89,4.89,0,0,1,2.28.52l-.57,1.22a3.43,3.43,0,0,0-1.71-.44c-.77,0-1.1.24-1.1.55,0,1,3.58,0,3.58,2.37,0,1.1-1,1.88-2.8,1.88A5.1,5.1,0,0,1,57.25,18.58Z"/><path class="cls-2" d="M63.45,11.43a1,1,0,0,1,1.07-1,1,1,0,0,1,1.07.93,1.07,1.07,0,0,1-2.14,0Zm.21,1.78h1.72v5.92H63.66Z"/><path class="cls-2" d="M66.53,16.17a3.26,3.26,0,1,1,3.26,3A3.05,3.05,0,0,1,66.53,16.17Zm4.77,0a1.52,1.52,0,1,0-3,0,1.52,1.52,0,1,0,3,0Zm-1-5.3H72.1l-2,1.58H68.76Z"/><path class="cls-2" d="M80.23,15.74v3.39H78.51V16c0-1-.44-1.4-1.2-1.4s-1.42.5-1.42,1.59v2.93H74.18V13.21h1.64v.69a2.6,2.6,0,0,1,2-.78A2.33,2.33,0,0,1,80.23,15.74Z"/></g></g></svg>