<svg xmlns="http://www.w3.org/2000/svg" xmlns:xlink="http://www.w3.org/1999/xlink" viewBox="0 0 109.52 29.27"><defs><style>.cls-1{fill:url(#Degradado_sin_nombre_6);}.cls-2{fill:#fff;}</style><linearGradient id="Degradado_sin_nombre_6" x1="54.76" x2="54.76" y2="29.27" gradientUnits="userSpaceOnUse"><stop offset="0" stop-color="#266677"/><stop offset="1" stop-color="#42a5bd"/></linearGradient></defs><title>Recurso 15</title><g id="Capa_2" data-name="Capa 2"><g id="Capa_1-2" data-name="Capa 1"><rect class="cls-1" width="109.52" height="29.27" rx="1.79"/><path class="cls-2" d="M28.18,15.87c0,1.3-1,2.48-3.19,2.48a5.29,5.29,0,0,1-2.94-.82l.69-1.37a3.71,3.71,0,0,0,2.21.7c.89,0,1.44-.37,1.44-1S26,14.92,25,14.92h-.82V13.74L25.72,12H22.44V10.52h5.39v1.16l-1.74,2A2.19,2.19,0,0,1,28.18,15.87Z"/><path class="cls-2" d="M29,17.23a1.07,1.07,0,0,1,2.13,0,1.07,1.07,0,1,1-2.13,0Z"/><path class="cls-2" d="M35,14.37a4,4,0,0,1,4.21-4,4,4,0,1,1,0,8A4,4,0,0,1,35,14.37Zm6.62,0a2.41,2.41,0,1,0-4.82,0,2.41,2.41,0,1,0,4.82,0Z"/><path class="cls-2" d="M51.09,15.26a2.87,2.87,0,0,1-3,3,2.26,2.26,0,0,1-1.85-.77v.68H44.65V10.06h1.71v2.87a2.31,2.31,0,0,1,1.78-.71A2.86,2.86,0,0,1,51.09,15.26Zm-1.74,0a1.51,1.51,0,1,0-3,0,1.51,1.51,0,1,0,3,0Z"/><path class="cls-2" d="M50.42,20.12l.46-1.25a1.28,1.28,0,0,0,.73.21c.43,0,.7-.27.7-.86V12.3H54v5.91a2.05,2.05,0,0,1-2.23,2.24A2.52,2.52,0,0,1,50.42,20.12Zm1.68-9.6a1,1,0,0,1,1.07-1,1,1,0,0,1,1.07.93,1.07,1.07,0,0,1-2.14,0Z"/><path class="cls-2" d="M61.38,15.75H56.9a1.58,1.58,0,0,0,1.69,1.19,2,2,0,0,0,1.49-.58l.91,1a3.45,3.45,0,0,1-5.82-2.09,3,3,0,0,1,3.16-3,2.92,2.92,0,0,1,3.08,3.06C61.41,15.42,61.39,15.6,61.38,15.75Zm-4.5-1h2.91a1.47,1.47,0,0,0-2.91,0Z"/><path class="cls-2" d="M66.37,17.94a2.46,2.46,0,0,1-1.39.37,2,2,0,0,1-2.22-2.12V13.76h-.91V12.44h.91V11h1.72v1.45H66v1.32H64.48v2.4a.69.69,0,0,0,.74.79,1.18,1.18,0,0,0,.69-.22Z"/><path class="cls-2" d="M67.13,10.52a1,1,0,0,1,1.07-1,1,1,0,0,1,1.07.93,1.07,1.07,0,0,1-2.14,0Zm.21,1.78h1.72v5.92H67.34Z"/><path class="cls-2" d="M76.52,12.3,74,18.22H72.26L69.77,12.3h1.77l1.64,4,1.69-4Z"/><path class="cls-2" d="M76.62,15.26a3.26,3.26,0,1,1,3.26,3A3,3,0,0,1,76.62,15.26Zm4.77,0a1.52,1.52,0,1,0-3,0,1.52,1.52,0,1,0,3,0Z"/><path class="cls-2" d="M83.7,17.67l.57-1.23a4.06,4.06,0,0,0,2.06.57c.79,0,1.08-.21,1.08-.54,0-1-3.57,0-3.57-2.34,0-1.12,1-1.91,2.74-1.91a4.92,4.92,0,0,1,2.28.51L88.28,14a3.37,3.37,0,0,0-1.7-.44c-.77,0-1.1.25-1.1.55,0,1,3.57,0,3.57,2.37,0,1.1-1,1.88-2.79,1.88A5.1,5.1,0,0,1,83.7,17.67Z"/></g></g></svg>