<svg xmlns="http://www.w3.org/2000/svg" xmlns:xlink="http://www.w3.org/1999/xlink" viewBox="0 0 163.53 44"><defs><style>.cls-1{fill:#183a68;}.cls-2{fill:url(#Degradado_sin_nombre_5);}.cls-3{fill:#fff;}</style><linearGradient id="Degradado_sin_nombre_5" x1="22.5" y1="22" x2="186.03" y2="22" gradientUnits="userSpaceOnUse"><stop offset="0" stop-color="#183a68"/><stop offset="1" stop-color="#4484bf"/></linearGradient></defs><title>Recurso 9</title><g id="Capa_2" data-name="Capa 2"><g id="Capa_1-2" data-name="Capa 1"><path class="cls-1" d="M0,0H152.14a11.39,11.39,0,0,1,11.39,11.39V44a0,0,0,0,1,0,0H0a0,0,0,0,1,0,0V0A0,0,0,0,1,0,0Z"/><polygon class="cls-2" points="0 44 163.53 44 103.49 0 0 0 0 44"/><path class="cls-3" d="M46.92,17.8H43l-.74,1.8h-2L44,11.21H46L49.7,19.6h-2Zm-.61-1.47L45,13.12l-1.34,3.21Z"/><path class="cls-3" d="M54.46,13.06v1.72l-.42,0a1.58,1.58,0,0,0-1.72,1.8v3H50.45V13.15h1.79V14A2.6,2.6,0,0,1,54.46,13.06Z"/><path class="cls-3" d="M62.06,13.15v8.78H60.19v-3a2.47,2.47,0,0,1-1.93.78A3.14,3.14,0,0,1,55,16.38a3.13,3.13,0,0,1,3.22-3.32,2.49,2.49,0,0,1,2,.83v-.74Zm-1.83,3.23a1.66,1.66,0,1,0-3.3,0,1.65,1.65,0,1,0,3.3,0Z"/><path class="cls-3" d="M70.3,13.15V19.6H68.52v-.76a2.61,2.61,0,0,1-2,.86,2.57,2.57,0,0,1-2.76-2.9V13.15h1.87v3.37c0,1.08.48,1.56,1.31,1.56s1.48-.55,1.48-1.74V13.15Z"/><path class="cls-3" d="M71.81,11.21A1.07,1.07,0,0,1,73,10.16a1.06,1.06,0,0,1,1.17,1,1.17,1.17,0,0,1-2.33,0ZM72,13.15h1.87V19.6H72Z"/><path class="cls-3" d="M79.81,19.29a2.61,2.61,0,0,1-1.52.41,2.13,2.13,0,0,1-2.41-2.32V14.73h-1V13.29h1V11.72h1.87v1.57h1.61v1.44H77.75v2.63a.75.75,0,0,0,.8.85,1.23,1.23,0,0,0,.76-.24Z"/><path class="cls-3" d="M87,16.9H82.07a1.72,1.72,0,0,0,1.85,1.3,2.2,2.2,0,0,0,1.62-.62l1,1.08a3.39,3.39,0,0,1-2.66,1c-2.23,0-3.68-1.4-3.68-3.32a3.28,3.28,0,0,1,3.44-3.32A3.2,3.2,0,0,1,87,16.4C87,16.55,87,16.75,87,16.9Zm-4.9-1.09h3.17a1.61,1.61,0,0,0-3.17,0Z"/><path class="cls-3" d="M87.76,16.38a3.33,3.33,0,0,1,3.6-3.32,3,3,0,0,1,2.89,1.64l-1.45.78a1.62,1.62,0,0,0-1.45-.89,1.66,1.66,0,0,0-1.7,1.79,1.65,1.65,0,0,0,1.7,1.78,1.59,1.59,0,0,0,1.45-.88l1.45.79a3,3,0,0,1-2.89,1.63A3.34,3.34,0,0,1,87.76,16.38Z"/><path class="cls-3" d="M99.59,19.29a2.64,2.64,0,0,1-1.52.41,2.13,2.13,0,0,1-2.41-2.32V14.73h-1V13.29h1V11.72h1.87v1.57h1.6v1.44h-1.6v2.63a.75.75,0,0,0,.8.85,1.2,1.2,0,0,0,.75-.24Z"/><path class="cls-3" d="M107.15,13.15V19.6h-1.78v-.76a2.61,2.61,0,0,1-2,.86,2.57,2.57,0,0,1-2.76-2.9V13.15h1.87v3.37c0,1.08.48,1.56,1.31,1.56s1.49-.55,1.49-1.74V13.15Z"/><path class="cls-3" d="M112.9,13.06v1.72l-.42,0a1.59,1.59,0,0,0-1.72,1.8v3h-1.87V13.15h1.79V14A2.6,2.6,0,0,1,112.9,13.06Z"/><path class="cls-3" d="M119.69,15.92V19.6h-1.75v-.8a2.12,2.12,0,0,1-2,.9c-1.51,0-2.41-.84-2.41-2s.8-1.93,2.77-1.93h1.49c0-.8-.48-1.27-1.49-1.27a3.13,3.13,0,0,0-1.86.6l-.67-1.31a5,5,0,0,1,2.78-.77C118.55,13.06,119.69,14,119.69,15.92Zm-1.87,1.64V16.9h-1.29c-.87,0-1.15.33-1.15.76s.4.78,1.06.78A1.39,1.39,0,0,0,117.82,17.56Z"/><path class="cls-3" d="M120.76,19l.62-1.34a4.45,4.45,0,0,0,2.25.62c.86,0,1.18-.22,1.18-.58,0-1.06-3.89,0-3.89-2.56,0-1.22,1.1-2.08,3-2.08a5.28,5.28,0,0,1,2.48.56L125.76,15a3.69,3.69,0,0,0-1.86-.48c-.84,0-1.2.26-1.2.6,0,1.1,3.9,0,3.9,2.58,0,1.2-1.12,2.05-3,2.05A5.48,5.48,0,0,1,120.76,19Z"/><path class="cls-3" d="M46.63,32.44V34H40.12V25.61h6.35v1.56H42.06V29H46V30.5H42.06v1.94Z"/><path class="cls-3" d="M59,30.31V34H57.08V30.6c0-1.05-.47-1.53-1.23-1.53s-1.43.54-1.43,1.7V34H52.55V30.6c0-1.05-.44-1.53-1.22-1.53s-1.41.54-1.41,1.7V34H48V27.55h1.79v.74a2.62,2.62,0,0,1,2-.83A2.39,2.39,0,0,1,54,28.51a2.91,2.91,0,0,1,2.33-1.05C57.84,27.46,59,28.34,59,30.31Z"/><path class="cls-3" d="M67.66,30.78a3.13,3.13,0,0,1-3.21,3.32,2.5,2.5,0,0,1-2-.78v3H60.63V27.55h1.79v.74a2.51,2.51,0,0,1,2-.83A3.13,3.13,0,0,1,67.66,30.78Zm-1.89,0a1.65,1.65,0,1,0-3.29,0,1.65,1.65,0,1,0,3.29,0Z"/><path class="cls-3" d="M72.92,27.46v1.72l-.42,0A1.59,1.59,0,0,0,70.78,31v3H68.91V27.55H70.7v.85A2.61,2.61,0,0,1,72.92,27.46Z"/><path class="cls-3" d="M80.26,31.3H75.38a1.72,1.72,0,0,0,1.85,1.3A2.2,2.2,0,0,0,78.85,32l1,1.08a3.39,3.39,0,0,1-2.66,1c-2.23,0-3.68-1.4-3.68-3.32a3.28,3.28,0,0,1,3.44-3.32A3.2,3.2,0,0,1,80.3,30.8C80.3,31,80.27,31.15,80.26,31.3Zm-4.9-1.09h3.17a1.61,1.61,0,0,0-3.17,0Z"/><path class="cls-3" d="M80.93,33.4l.62-1.34a4.44,4.44,0,0,0,2.24.62c.87,0,1.19-.22,1.19-.58,0-1.06-3.9,0-3.9-2.56,0-1.22,1.1-2.08,3-2.08a5.28,5.28,0,0,1,2.48.56l-.62,1.33a3.71,3.71,0,0,0-1.86-.48c-.84,0-1.2.26-1.2.6,0,1.1,3.9,0,3.9,2.58,0,1.2-1.12,2.05-3,2.05A5.48,5.48,0,0,1,80.93,33.4Z"/><path class="cls-3" d="M93.63,30.32V34H91.88v-.8a2.12,2.12,0,0,1-2,.9c-1.51,0-2.41-.84-2.41-2s.8-1.93,2.77-1.93h1.49c0-.8-.48-1.27-1.49-1.27a3.13,3.13,0,0,0-1.86.6l-.67-1.31a5,5,0,0,1,2.78-.77C92.49,27.46,93.63,28.37,93.63,30.32ZM91.76,32V31.3H90.48c-.88,0-1.16.33-1.16.76s.4.78,1.06.78A1.39,1.39,0,0,0,91.76,32Z"/><path class="cls-3" d="M99.33,27.46v1.72l-.42,0A1.58,1.58,0,0,0,97.2,31v3H95.33V27.55h1.78v.85A2.62,2.62,0,0,1,99.33,27.46Z"/><path class="cls-3" d="M100.22,25.61a1.07,1.07,0,0,1,1.16-1.05,1.06,1.06,0,0,1,1.17,1,1.17,1.17,0,0,1-2.33,0Zm.23,1.94h1.87V34h-1.87Z"/><path class="cls-3" d="M109.77,30.32V34H108v-.8a2.12,2.12,0,0,1-2,.9c-1.51,0-2.41-.84-2.41-2s.8-1.93,2.77-1.93h1.49c0-.8-.48-1.27-1.49-1.27a3.13,3.13,0,0,0-1.86.6l-.67-1.31a5,5,0,0,1,2.78-.77C108.63,27.46,109.77,28.37,109.77,30.32ZM107.9,32V31.3h-1.28c-.88,0-1.16.33-1.16.76s.4.78,1.06.78A1.39,1.39,0,0,0,107.9,32Z"/><path class="cls-3" d="M111.46,25.1h1.88V34h-1.88Z"/><path class="cls-3" d="M121.36,31.3h-4.88a1.72,1.72,0,0,0,1.85,1.3A2.2,2.2,0,0,0,120,32l1,1.08a3.39,3.39,0,0,1-2.66,1c-2.23,0-3.68-1.4-3.68-3.32A3.28,3.28,0,0,1,118,27.46a3.2,3.2,0,0,1,3.36,3.34C121.4,31,121.37,31.15,121.36,31.3Zm-4.9-1.09h3.17a1.61,1.61,0,0,0-3.17,0Z"/><path class="cls-3" d="M122,33.4l.62-1.34a4.44,4.44,0,0,0,2.24.62c.87,0,1.19-.22,1.19-.58,0-1.06-3.9,0-3.9-2.56,0-1.22,1.11-2.08,3-2.08a5.28,5.28,0,0,1,2.48.56L127,29.35a3.71,3.71,0,0,0-1.86-.48c-.84,0-1.2.26-1.2.6,0,1.1,3.9,0,3.9,2.58,0,1.2-1.12,2.05-3.05,2.05A5.48,5.48,0,0,1,122,33.4Z"/></g></g></svg>