<svg xmlns="http://www.w3.org/2000/svg" xmlns:xlink="http://www.w3.org/1999/xlink" viewBox="0 0 500.82 41.92"><defs><style>.cls-1{fill:#183a68;}.cls-2{fill:url(#Degradado_sin_nombre_5);}.cls-3{fill:#fff;}</style><linearGradient id="Degradado_sin_nombre_5" x1="68.91" y1="20.96" x2="569.73" y2="20.96" gradientUnits="userSpaceOnUse"><stop offset="0" stop-color="#183a68"/><stop offset="1" stop-color="#4484bf"/></linearGradient></defs><title>Recurso 5</title><g id="Capa_2" data-name="Capa 2"><g id="Capa_1-2" data-name="Capa 1"><path class="cls-1" d="M0,0H489.43a11.39,11.39,0,0,1,11.39,11.39V41.92a0,0,0,0,1,0,0H0a0,0,0,0,1,0,0V0A0,0,0,0,1,0,0Z"/><polygon class="cls-2" points="0 41.92 500.82 41.92 437.95 0 0 0 0 41.92"/><path class="cls-3" d="M196.89,22.26h1.63v3.13a5.3,5.3,0,0,1-3.11,1,4,4,0,1,1,0-8,4.1,4.1,0,0,1,3.22,1.33l-1.14,1.06a2.62,2.62,0,0,0-2-.87,2.47,2.47,0,1,0,0,4.93,2.85,2.85,0,0,0,1.39-.33Z"/><path class="cls-3" d="M205.81,23.76h-4.48A1.59,1.59,0,0,0,203,25a2,2,0,0,0,1.48-.57l.92,1a3.13,3.13,0,0,1-2.44.95,3.07,3.07,0,0,1-3.38-3,3,3,0,0,1,3.15-3.05,2.93,2.93,0,0,1,3.09,3.07C205.85,23.43,205.82,23.62,205.81,23.76Zm-4.5-1h2.92a1.48,1.48,0,0,0-2.92,0Z"/><path class="cls-3" d="M206.42,25.68l.57-1.23a4.07,4.07,0,0,0,2.06.58c.79,0,1.08-.21,1.08-.54,0-1-3.57,0-3.57-2.35,0-1.12,1-1.91,2.74-1.91a4.89,4.89,0,0,1,2.28.51L211,22a3.37,3.37,0,0,0-1.7-.44c-.77,0-1.1.24-1.1.55,0,1,3.57,0,3.57,2.36,0,1.1-1,1.88-2.79,1.88A5,5,0,0,1,206.42,25.68Z"/><path class="cls-3" d="M216.65,26a2.5,2.5,0,0,1-1.4.37A2,2,0,0,1,213,24.2V21.77h-.92V20.45H213V19h1.71v1.44h1.48v1.32h-1.48v2.41a.7.7,0,0,0,.74.78,1.16,1.16,0,0,0,.69-.22Z"/><path class="cls-3" d="M217.4,18.53a1,1,0,0,1,1.07-1,1,1,0,0,1,1.07.92,1.07,1.07,0,0,1-2.14,0Zm.21,1.79h1.72v5.92h-1.72Z"/><path class="cls-3" d="M220.49,23.28a3.26,3.26,0,1,1,3.25,3A3,3,0,0,1,220.49,23.28Zm4.76,0a1.52,1.52,0,1,0-3,0,1.52,1.52,0,1,0,3,0ZM224.2,18h1.85l-2,1.59h-1.34Z"/><path class="cls-3" d="M234.18,22.85v3.39h-1.72V23.11c0-1-.44-1.4-1.19-1.4s-1.42.51-1.42,1.6v2.93h-1.72V20.32h1.64V21a2.57,2.57,0,0,1,2-.78A2.32,2.32,0,0,1,234.18,22.85Z"/><path class="cls-3" d="M244.87,18.07v8.17h-1.64v-.69a2.25,2.25,0,0,1-1.84.77,2.87,2.87,0,0,1-3-3,2.88,2.88,0,0,1,3-3.05,2.29,2.29,0,0,1,1.77.71V18.07Zm-1.68,5.21a1.52,1.52,0,1,0-3,0,1.52,1.52,0,1,0,3,0Z"/><path class="cls-3" d="M252.22,23.76h-4.48a1.58,1.58,0,0,0,1.7,1.19,2,2,0,0,0,1.48-.57l.92,1a3.15,3.15,0,0,1-2.45.95,3.06,3.06,0,0,1-3.37-3,3,3,0,0,1,3.15-3.05,2.93,2.93,0,0,1,3.08,3.07C252.25,23.43,252.23,23.62,252.22,23.76Zm-4.5-1h2.92a1.41,1.41,0,0,0-1.46-1.23A1.4,1.4,0,0,0,247.72,22.76Z"/><path class="cls-3" d="M253.4,18.07h1.71v8.17H253.4Z"/><path class="cls-3" d="M266.27,23.28a2.88,2.88,0,0,1-2.95,3,2.3,2.3,0,0,1-1.78-.71v2.76h-1.72v-8h1.64V21a2.3,2.3,0,0,1,1.86-.77A2.88,2.88,0,0,1,266.27,23.28Zm-1.74,0a1.51,1.51,0,1,0-3,0,1.51,1.51,0,1,0,3,0Z"/><path class="cls-3" d="M271.09,20.23v1.58l-.39,0a1.45,1.45,0,0,0-1.57,1.65v2.8h-1.72V20.32h1.64v.78A2.4,2.4,0,0,1,271.09,20.23Z"/><path class="cls-3" d="M271.61,23.28a3.26,3.26,0,1,1,3.26,3A3,3,0,0,1,271.61,23.28Zm4.77,0a1.52,1.52,0,1,0-3,0,1.52,1.52,0,1,0,3,0Z"/><path class="cls-3" d="M285,20.32l-2.68,6.28a2.44,2.44,0,0,1-2.45,1.86,2.66,2.66,0,0,1-1.65-.54l.63-1.22a1.5,1.5,0,0,0,1,.37c.47,0,.73-.21,1-.74l0,0-2.57-6H280l1.67,4,1.67-4Z"/><path class="cls-3" d="M291.27,23.76h-4.48a1.58,1.58,0,0,0,1.7,1.19,2,2,0,0,0,1.48-.57l.92,1a3.15,3.15,0,0,1-2.45.95,3.06,3.06,0,0,1-3.37-3,3,3,0,0,1,3.15-3.05,2.93,2.93,0,0,1,3.08,3.07C291.3,23.43,291.28,23.62,291.27,23.76Zm-4.5-1h2.92a1.41,1.41,0,0,0-1.46-1.23A1.4,1.4,0,0,0,286.77,22.76Z"/><path class="cls-3" d="M292,23.28a3.05,3.05,0,0,1,3.3-3.05A2.72,2.72,0,0,1,298,21.74l-1.33.71a1.48,1.48,0,0,0-1.33-.81,1.52,1.52,0,0,0-1.56,1.64,1.52,1.52,0,0,0,1.56,1.63,1.46,1.46,0,0,0,1.33-.81l1.33.73a2.75,2.75,0,0,1-2.65,1.49A3.05,3.05,0,0,1,292,23.28Z"/><path class="cls-3" d="M302.85,26a2.46,2.46,0,0,1-1.39.37,2,2,0,0,1-2.22-2.12V21.77h-.91V20.45h.91V19H301v1.44h1.47v1.32H301v2.41a.7.7,0,0,0,.74.78,1.18,1.18,0,0,0,.69-.22Z"/><path class="cls-3" d="M303.19,23.28a3.26,3.26,0,1,1,3.26,3A3,3,0,0,1,303.19,23.28Zm4.77,0a1.52,1.52,0,1,0-3,0,1.52,1.52,0,1,0,3,0Z"/></g></g></svg>