<svg xmlns="http://www.w3.org/2000/svg" xmlns:xlink="http://www.w3.org/1999/xlink" viewBox="0 0 155.78 41.92"><defs><style>.cls-1{fill:#183a68;}.cls-2{fill:url(#Degradado_sin_nombre_5);}.cls-3{fill:#fff;}</style><linearGradient id="Degradado_sin_nombre_5" x1="21.43" y1="20.96" x2="177.22" y2="20.96" gradientUnits="userSpaceOnUse"><stop offset="0" stop-color="#183a68"/><stop offset="1" stop-color="#4484bf"/></linearGradient></defs><title>Recurso 1</title><g id="Capa_2" data-name="Capa 2"><g id="Capa_1-2" data-name="Capa 1"><path class="cls-1" d="M0,0H144.39a11.39,11.39,0,0,1,11.39,11.39V41.92a0,0,0,0,1,0,0H0a0,0,0,0,1,0,0V0A0,0,0,0,1,0,0Z"/><polygon class="cls-2" points="0 41.92 155.78 41.92 98.59 0 0 0 0 41.92"/><path class="cls-3" d="M18.21,24.8v1.43h-6v-7.7h5.83V20H14v1.68h3.57V23H14V24.8Z"/><path class="cls-3" d="M18.89,25.68l.57-1.23a4.06,4.06,0,0,0,2.06.57c.79,0,1.09-.2,1.09-.53,0-1-3.58,0-3.58-2.35,0-1.12,1-1.91,2.74-1.91a4.74,4.74,0,0,1,2.28.52L23.48,22a3.43,3.43,0,0,0-1.71-.44c-.77,0-1.1.24-1.1.55,0,1,3.58,0,3.58,2.36,0,1.1-1,1.88-2.8,1.88A5,5,0,0,1,18.89,25.68Z"/><path class="cls-3" d="M29.12,26a2.48,2.48,0,0,1-1.4.37,2,2,0,0,1-2.21-2.12V21.77H24.6V20.45h.91V19h1.72v1.44H28.7v1.32H27.23v2.41A.69.69,0,0,0,28,25a1.19,1.19,0,0,0,.7-.22Z"/><path class="cls-3" d="M33.76,20.23v1.58l-.38,0a1.46,1.46,0,0,0-1.58,1.65v2.79H30.09V20.32h1.64v.78A2.35,2.35,0,0,1,33.76,20.23Z"/><path class="cls-3" d="M40,22.86v3.37H38.38V25.5a1.93,1.93,0,0,1-1.8.82c-1.39,0-2.21-.77-2.21-1.79s.73-1.77,2.54-1.77h1.36c0-.74-.44-1.17-1.36-1.17a2.86,2.86,0,0,0-1.71.55l-.61-1.2a4.53,4.53,0,0,1,2.55-.71C38.94,20.23,40,21.06,40,22.86Zm-1.72,1.5v-.6H37.09c-.8,0-1.05.3-1.05.69s.36.72,1,.72A1.27,1.27,0,0,0,38.27,24.36Z"/><path class="cls-3" d="M45.36,26a2.5,2.5,0,0,1-1.4.37,2,2,0,0,1-2.21-2.12V21.77h-.92V20.45h.92V19h1.71v1.44h1.48v1.32H43.46v2.41a.7.7,0,0,0,.74.78,1.16,1.16,0,0,0,.69-.22Z"/><path class="cls-3" d="M51.9,23.76H47.42A1.59,1.59,0,0,0,49.12,25a2,2,0,0,0,1.48-.57l.92,1a3.13,3.13,0,0,1-2.45.95,3.06,3.06,0,0,1-3.37-3,3,3,0,0,1,3.15-3.05,2.93,2.93,0,0,1,3.08,3.07C51.93,23.43,51.91,23.62,51.9,23.76Zm-4.5-1h2.92a1.42,1.42,0,0,0-1.46-1.23A1.4,1.4,0,0,0,47.4,22.76Z"/><path class="cls-3" d="M59.18,20.32v4.92c0,2.2-1.19,3.22-3.32,3.22a4.85,4.85,0,0,1-2.9-.82l.68-1.23a3.5,3.5,0,0,0,2.09.67c1.21,0,1.74-.55,1.74-1.62v-.25A2.42,2.42,0,0,1,55.6,26a2.86,2.86,0,1,1,0-5.72,2.34,2.34,0,0,1,1.95.85v-.76Zm-1.69,2.77a1.56,1.56,0,1,0-1.55,1.45A1.44,1.44,0,0,0,57.49,23.09Z"/><path class="cls-3" d="M60.57,18.53a1,1,0,0,1,1.07-1,1,1,0,0,1,1.06.92,1.07,1.07,0,0,1-2.13,0Zm.21,1.79h1.71v5.91H60.78Z"/><path class="cls-3" d="M69.32,22.86v3.37h-1.6V25.5a2,2,0,0,1-1.81.82c-1.38,0-2.21-.77-2.21-1.79s.74-1.77,2.54-1.77h1.37c0-.74-.44-1.17-1.37-1.17a2.85,2.85,0,0,0-1.7.55l-.62-1.2a4.58,4.58,0,0,1,2.56-.71C68.28,20.23,69.32,21.06,69.32,22.86Zm-1.71,1.5v-.6H66.43c-.8,0-1.06.3-1.06.69s.37.72,1,.72A1.27,1.27,0,0,0,67.61,24.36Z"/><path class="cls-3" d="M80,18.07v8.16H78.38v-.68a2.28,2.28,0,0,1-1.85.77,2.88,2.88,0,0,1-3-3,2.88,2.88,0,0,1,3-3.05,2.29,2.29,0,0,1,1.77.71V18.07Zm-1.69,5.21a1.52,1.52,0,1,0-3,0,1.51,1.51,0,1,0,3,0Z"/><path class="cls-3" d="M87.36,23.76H82.89A1.57,1.57,0,0,0,84.58,25a2,2,0,0,0,1.49-.57l.91,1a3.13,3.13,0,0,1-2.44.95,3.07,3.07,0,0,1-3.38-3,3,3,0,0,1,3.16-3.05A2.93,2.93,0,0,1,87.4,23.3C87.4,23.43,87.37,23.62,87.36,23.76Zm-4.5-1h2.92a1.48,1.48,0,0,0-2.92,0Z"/><path class="cls-3" d="M98.84,18.53v7.7H97.37l-3.84-4.67v4.67H91.77v-7.7h1.48l3.83,4.68V18.53Z"/><path class="cls-3" d="M106.31,23.76h-4.48A1.57,1.57,0,0,0,103.52,25a2,2,0,0,0,1.49-.57l.91,1a3.11,3.11,0,0,1-2.44.95,3.07,3.07,0,0,1-3.38-3,3,3,0,0,1,3.16-3.05,2.93,2.93,0,0,1,3.08,3.07C106.34,23.43,106.32,23.62,106.31,23.76Zm-4.5-1h2.91a1.48,1.48,0,0,0-2.91,0Z"/><path class="cls-3" d="M113.59,20.32v4.92c0,2.2-1.19,3.22-3.32,3.22a4.87,4.87,0,0,1-2.91-.82l.68-1.23a3.52,3.52,0,0,0,2.09.67c1.21,0,1.74-.55,1.74-1.62v-.25A2.42,2.42,0,0,1,110,26a2.86,2.86,0,1,1,0-5.72,2.35,2.35,0,0,1,2,.85v-.76Zm-1.7,2.77a1.56,1.56,0,1,0-1.55,1.45A1.44,1.44,0,0,0,111.89,23.09Z"/><path class="cls-3" d="M114.74,23.28a3.26,3.26,0,1,1,3.26,3A3,3,0,0,1,114.74,23.28Zm4.77,0a1.52,1.52,0,1,0-3,0,1.52,1.52,0,1,0,3,0Z"/><path class="cls-3" d="M122,23.28a3.05,3.05,0,0,1,3.3-3.05,2.72,2.72,0,0,1,2.65,1.51l-1.33.71a1.47,1.47,0,0,0-1.33-.81,1.51,1.51,0,0,0-1.55,1.64,1.51,1.51,0,0,0,1.55,1.63,1.45,1.45,0,0,0,1.33-.81l1.33.73a2.75,2.75,0,0,1-2.65,1.49A3.05,3.05,0,0,1,122,23.28Z"/><path class="cls-3" d="M128.68,18.53a1,1,0,0,1,1.07-1,1,1,0,0,1,1.06.92,1.07,1.07,0,0,1-2.13,0Zm.21,1.79h1.71v5.91h-1.71Z"/><path class="cls-3" d="M131.76,23.28a3.26,3.26,0,1,1,3.26,3A3,3,0,0,1,131.76,23.28Zm4.76,0a1.52,1.52,0,1,0-3,0,1.51,1.51,0,1,0,3,0Z"/><path class="cls-3" d="M138.83,25.68l.57-1.23a4.06,4.06,0,0,0,2.06.57c.79,0,1.09-.2,1.09-.53,0-1-3.57,0-3.57-2.35,0-1.12,1-1.91,2.73-1.91a4.74,4.74,0,0,1,2.28.52L143.42,22a3.41,3.41,0,0,0-1.71-.44c-.77,0-1.1.24-1.1.55,0,1,3.58,0,3.58,2.36,0,1.1-1,1.88-2.79,1.88A5,5,0,0,1,138.83,25.68Z"/></g></g></svg>