<svg xmlns="http://www.w3.org/2000/svg" xmlns:xlink="http://www.w3.org/1999/xlink" viewBox="0 0 155.64 41.92"><defs><style>.cls-1{fill:#183a68;}.cls-2{fill:url(#Degradado_sin_nombre_5);}.cls-3{fill:#fff;}</style><linearGradient id="Degradado_sin_nombre_5" x1="21.41" y1="20.96" x2="177.05" y2="20.96" gradientUnits="userSpaceOnUse"><stop offset="0" stop-color="#183a68"/><stop offset="1" stop-color="#4484bf"/></linearGradient></defs><title>Recurso 3</title><g id="Capa_2" data-name="Capa 2"><g id="Capa_1-2" data-name="Capa 1"><path class="cls-1" d="M0,0H144.24a11.39,11.39,0,0,1,11.39,11.39V41.92a0,0,0,0,1,0,0H0a0,0,0,0,1,0,0V0A0,0,0,0,1,0,0Z"/><polygon class="cls-2" points="0 41.92 155.64 41.92 98.5 0 0 0 0 41.92"/><path class="cls-3" d="M21.58,21.33c0,1.71-1.29,2.78-3.35,2.78H16.68v2.12H14.9v-7.7h3.33C20.29,18.53,21.58,19.6,21.58,21.33Zm-1.81,0c0-.85-.55-1.34-1.64-1.34H16.68v2.67h1.45C19.22,22.66,19.77,22.16,19.77,21.33Z"/><path class="cls-3" d="M26.39,20.23v1.58l-.38,0a1.45,1.45,0,0,0-1.57,1.65v2.79H22.72V20.32h1.64v.78A2.36,2.36,0,0,1,26.39,20.23Z"/><path class="cls-3" d="M26.92,23.28a3,3,0,0,1,3.26-3.05,3.05,3.05,0,1,1,0,6.09A3,3,0,0,1,26.92,23.28Zm4.77,0a1.52,1.52,0,1,0-3,0,1.52,1.52,0,1,0,3,0Z"/><path class="cls-3" d="M34.13,23.28a3.05,3.05,0,0,1,3.3-3.05,2.72,2.72,0,0,1,2.65,1.51l-1.33.71a1.48,1.48,0,0,0-1.33-.81,1.51,1.51,0,0,0-1.55,1.64,1.51,1.51,0,0,0,1.55,1.63,1.46,1.46,0,0,0,1.33-.81l1.33.73a2.75,2.75,0,0,1-2.65,1.49A3.05,3.05,0,0,1,34.13,23.28Z"/><path class="cls-3" d="M46.76,23.76H42.28A1.57,1.57,0,0,0,44,25a2,2,0,0,0,1.49-.57l.91,1a3.13,3.13,0,0,1-2.44.95,3.07,3.07,0,0,1-3.38-3,3,3,0,0,1,3.16-3.05,2.93,2.93,0,0,1,3.08,3.07C46.79,23.43,46.77,23.62,46.76,23.76Zm-4.5-1h2.91a1.48,1.48,0,0,0-2.91,0Z"/><path class="cls-3" d="M47.36,25.68l.57-1.23A4.06,4.06,0,0,0,50,25c.79,0,1.09-.2,1.09-.53,0-1-3.58,0-3.58-2.35,0-1.12,1-1.91,2.74-1.91a4.74,4.74,0,0,1,2.28.52L52,22a3.43,3.43,0,0,0-1.71-.44c-.77,0-1.1.24-1.1.55,0,1,3.58,0,3.58,2.36,0,1.1-1,1.88-2.8,1.88A5,5,0,0,1,47.36,25.68Z"/><path class="cls-3" d="M53.33,23.28a3.26,3.26,0,1,1,3.26,3A3,3,0,0,1,53.33,23.28Zm4.77,0a1.52,1.52,0,1,0-3,0,1.52,1.52,0,1,0,3,0Z"/><path class="cls-3" d="M60.41,25.68,61,24.45A4.05,4.05,0,0,0,63,25c.8,0,1.09-.2,1.09-.53,0-1-3.57,0-3.57-2.35,0-1.12,1-1.91,2.74-1.91a4.8,4.8,0,0,1,2.28.52L65,22a3.37,3.37,0,0,0-1.7-.44c-.77,0-1.1.24-1.1.55,0,1,3.57,0,3.57,2.36,0,1.1-1,1.88-2.79,1.88A5,5,0,0,1,60.41,25.68Z"/><path class="cls-3" d="M75.81,20.32,73.13,26.6a2.44,2.44,0,0,1-2.45,1.86A2.61,2.61,0,0,1,69,27.92l.63-1.22a1.5,1.5,0,0,0,1,.37c.48,0,.74-.21,1-.74l0,0-2.57-6h1.77l1.66,4,1.68-4Z"/><path class="cls-3" d="M81.34,20H78.87V18.53h6.71V20H83.12v6.24H81.34Z"/><path class="cls-3" d="M91.58,23.76H87.1A1.58,1.58,0,0,0,88.8,25a2,2,0,0,0,1.48-.57l.92,1a3.15,3.15,0,0,1-2.45.95,3.07,3.07,0,0,1-3.38-3,3,3,0,0,1,3.16-3.05,2.93,2.93,0,0,1,3.08,3.07C91.61,23.43,91.59,23.62,91.58,23.76Zm-4.5-1H90a1.42,1.42,0,0,0-1.46-1.23A1.4,1.4,0,0,0,87.08,22.76Z"/><path class="cls-3" d="M92.32,23.28a3.05,3.05,0,0,1,3.3-3.05,2.72,2.72,0,0,1,2.65,1.51l-1.33.71a1.48,1.48,0,0,0-1.33-.81,1.52,1.52,0,0,0-1.56,1.64,1.52,1.52,0,0,0,1.56,1.63,1.46,1.46,0,0,0,1.33-.81l1.33.73a2.75,2.75,0,0,1-2.65,1.49A3.05,3.05,0,0,1,92.32,23.28Z"/><path class="cls-3" d="M105.31,22.85v3.38h-1.72V23.11c0-1-.44-1.4-1.2-1.4s-1.42.51-1.42,1.6v2.92H99.26V20.32h1.64V21a2.56,2.56,0,0,1,1.95-.78A2.32,2.32,0,0,1,105.31,22.85Z"/><path class="cls-3" d="M106.48,23.28a3.26,3.26,0,1,1,3.26,3A3,3,0,0,1,106.48,23.28Zm4.77,0a1.52,1.52,0,1,0-3,0,1.52,1.52,0,1,0,3,0Z"/><path class="cls-3" d="M114.13,18.07h1.71v8.16h-1.71Z"/><path class="cls-3" d="M117,23.28a3.26,3.26,0,1,1,3.26,3A3,3,0,0,1,117,23.28Zm4.76,0a1.52,1.52,0,1,0-3,0,1.51,1.51,0,1,0,3,0Z"/><path class="cls-3" d="M130.75,20.32v4.92c0,2.2-1.19,3.22-3.32,3.22a4.91,4.91,0,0,1-2.91-.82l.69-1.23a3.5,3.5,0,0,0,2.09.67c1.21,0,1.73-.55,1.73-1.62v-.25a2.42,2.42,0,0,1-1.87.74,2.86,2.86,0,1,1,0-5.72,2.35,2.35,0,0,1,2,.85v-.76Zm-1.69,2.77a1.56,1.56,0,1,0-1.56,1.45A1.44,1.44,0,0,0,129.06,23.09Z"/><path class="cls-3" d="M133.69,18h1.84l-2,1.59H132.2Zm-1.35,2.35h1.72v5.91h-1.72Z"/><path class="cls-3" d="M140.89,22.86v3.37h-1.6V25.5a2,2,0,0,1-1.81.82c-1.38,0-2.21-.77-2.21-1.79s.74-1.77,2.54-1.77h1.37c0-.74-.44-1.17-1.37-1.17a2.83,2.83,0,0,0-1.7.55l-.62-1.2a4.57,4.57,0,0,1,2.55-.71C139.85,20.23,140.89,21.06,140.89,22.86Zm-1.71,1.5v-.6H138c-.8,0-1.06.3-1.06.69s.37.72,1,.72A1.28,1.28,0,0,0,139.18,24.36Z"/></g></g></svg>