<svg xmlns="http://www.w3.org/2000/svg" xmlns:xlink="http://www.w3.org/1999/xlink" viewBox="0 0 500.82 41.92"><defs><style>.cls-1{fill:#183a68;}.cls-2{fill:url(#Degradado_sin_nombre_5);}.cls-3{fill:#fff;}</style><linearGradient id="Degradado_sin_nombre_5" x1="68.91" y1="20.96" x2="569.73" y2="20.96" gradientUnits="userSpaceOnUse"><stop offset="0" stop-color="#183a68"/><stop offset="1" stop-color="#4484bf"/></linearGradient></defs><title>Recurso 4</title><g id="Capa_2" data-name="Capa 2"><g id="Capa_1-2" data-name="Capa 1"><path class="cls-1" d="M0,0H489.43a11.39,11.39,0,0,1,11.39,11.39V41.92a0,0,0,0,1,0,0H0a0,0,0,0,1,0,0V0A0,0,0,0,1,0,0Z"/><polygon class="cls-2" points="0 41.92 500.82 41.92 437.95 0 0 0 0 41.92"/><path class="cls-3" d="M200.93,22.26h1.63v3.13a5.3,5.3,0,0,1-3.11,1,4,4,0,1,1,0-8,4.09,4.09,0,0,1,3.22,1.33l-1.14,1.06a2.62,2.62,0,0,0-2-.87,2.47,2.47,0,1,0,0,4.93,2.84,2.84,0,0,0,1.38-.33Z"/><path class="cls-3" d="M209.85,23.76h-4.47A1.57,1.57,0,0,0,207.07,25a2,2,0,0,0,1.49-.57l.91,1a3.13,3.13,0,0,1-2.44.95,3.07,3.07,0,0,1-3.38-3,3,3,0,0,1,3.16-3.05,2.93,2.93,0,0,1,3.08,3.07C209.89,23.43,209.86,23.62,209.85,23.76Zm-4.5-1h2.92a1.48,1.48,0,0,0-2.92,0Z"/><path class="cls-3" d="M210.46,25.68l.57-1.23a4.07,4.07,0,0,0,2.06.58c.79,0,1.09-.21,1.09-.54,0-1-3.58,0-3.58-2.35,0-1.12,1-1.91,2.74-1.91a4.89,4.89,0,0,1,2.28.51L215.05,22a3.43,3.43,0,0,0-1.71-.44c-.77,0-1.1.24-1.1.55,0,1,3.58,0,3.58,2.36,0,1.1-1,1.88-2.8,1.88A5,5,0,0,1,210.46,25.68Z"/><path class="cls-3" d="M220.69,26a2.48,2.48,0,0,1-1.4.37,2,2,0,0,1-2.21-2.12V21.77h-.91V20.45h.91V19h1.72v1.44h1.47v1.32H218.8v2.41a.69.69,0,0,0,.73.78,1.19,1.19,0,0,0,.7-.22Z"/><path class="cls-3" d="M221.45,18.53a1,1,0,0,1,1.06-1,1,1,0,0,1,1.07.92,1.07,1.07,0,0,1-2.13,0Zm.21,1.79h1.71v5.92h-1.71Z"/><path class="cls-3" d="M224.53,23.28a3.26,3.26,0,1,1,3.25,3A3,3,0,0,1,224.53,23.28Zm4.76,0a1.52,1.52,0,1,0-3,0,1.51,1.51,0,1,0,3,0Zm-1-5.31h1.84l-2,1.59h-1.34Z"/><path class="cls-3" d="M238.22,22.85v3.39h-1.71V23.11c0-1-.44-1.4-1.2-1.4s-1.42.51-1.42,1.6v2.93h-1.72V20.32h1.64V21a2.58,2.58,0,0,1,2-.78A2.32,2.32,0,0,1,238.22,22.85Z"/><path class="cls-3" d="M248.91,18.07v8.17h-1.63v-.69a2.28,2.28,0,0,1-1.85.77,2.87,2.87,0,0,1-3-3,2.88,2.88,0,0,1,3-3.05,2.29,2.29,0,0,1,1.77.71V18.07Zm-1.68,5.21a1.52,1.52,0,1,0-3,0,1.51,1.51,0,1,0,3,0Z"/><path class="cls-3" d="M256.26,23.76h-4.48a1.59,1.59,0,0,0,1.7,1.19,2,2,0,0,0,1.48-.57l.92,1a3.13,3.13,0,0,1-2.44.95,3.07,3.07,0,0,1-3.38-3,3,3,0,0,1,3.15-3.05,2.93,2.93,0,0,1,3.09,3.07C256.3,23.43,256.27,23.62,256.26,23.76Zm-4.5-1h2.92a1.48,1.48,0,0,0-2.92,0Z"/><path class="cls-3" d="M257.44,18.07h1.71v8.17h-1.71Z"/><path class="cls-3" d="M263.42,23.28a3.06,3.06,0,0,1,3.3-3.05,2.7,2.7,0,0,1,2.65,1.51l-1.33.71a1.47,1.47,0,0,0-1.33-.81,1.51,1.51,0,0,0-1.55,1.64,1.51,1.51,0,0,0,1.55,1.63A1.45,1.45,0,0,0,268,24.1l1.33.73a2.73,2.73,0,0,1-2.65,1.49A3.06,3.06,0,0,1,263.42,23.28Z"/><path class="cls-3" d="M275.6,22.86v3.38H274V25.5a1.93,1.93,0,0,1-1.8.82c-1.39,0-2.21-.77-2.21-1.79s.74-1.77,2.54-1.77h1.36c0-.74-.44-1.17-1.36-1.17a2.86,2.86,0,0,0-1.71.55l-.61-1.2a4.55,4.55,0,0,1,2.55-.71C274.56,20.23,275.6,21.06,275.6,22.86Zm-1.72,1.51v-.61h-1.17c-.81,0-1.06.3-1.06.69s.36.72,1,.72A1.26,1.26,0,0,0,273.88,24.37Z"/><path class="cls-3" d="M287.15,22.85v3.39h-1.72V23.11c0-1-.42-1.4-1.12-1.4s-1.31.5-1.31,1.55v3h-1.71V23.11c0-1-.41-1.4-1.13-1.4s-1.29.5-1.29,1.55v3h-1.72V20.32h1.64V21a2.38,2.38,0,0,1,1.86-.77,2.22,2.22,0,0,1,2,1,2.64,2.64,0,0,1,2.13-1A2.29,2.29,0,0,1,287.15,22.85Z"/><path class="cls-3" d="M295.14,23.28a2.88,2.88,0,0,1-2.95,3,2.3,2.3,0,0,1-1.86-.77v.69h-1.64V18.07h1.72v2.87a2.3,2.3,0,0,1,1.78-.71A2.88,2.88,0,0,1,295.14,23.28Zm-1.74,0a1.52,1.52,0,1,0-3,0,1.51,1.51,0,1,0,3,0Z"/><path class="cls-3" d="M296.07,18.53a1,1,0,0,1,1.07-1,1,1,0,0,1,1.06.92,1.07,1.07,0,0,1-2.13,0Zm.21,1.79H298v5.92h-1.72Z"/><path class="cls-3" d="M299.15,23.28a3.26,3.26,0,1,1,3.26,3A3,3,0,0,1,299.15,23.28Zm4.76,0a1.52,1.52,0,1,0-3,0,1.51,1.51,0,1,0,3,0Z"/></g></g></svg>