<svg xmlns="http://www.w3.org/2000/svg" viewBox="0 0 467.88 29.27"><defs><style>.cls-1{fill:#005493;}.cls-2{fill:#fff;}.cls-3{fill:none;stroke:#f1892d;stroke-linecap:round;stroke-linejoin:round;}</style></defs><title>Recurso 6</title><g id="Capa_2" data-name="Capa 2"><g id="Capa_1-2" data-name="Capa 1"><rect class="cls-1" width="109.52" height="29.27" rx="1.79"/><rect class="cls-1" x="117.39" width="109.52" height="29.27" rx="1.79"/><rect class="cls-1" x="235.27" width="109.52" height="29.27" rx="1.79"/><rect class="cls-1" x="354.35" width="113.52" height="29.27" rx="1.79"/><path class="cls-2" d="M21.3,12.55h3.18c2.29,0,3.86,1.38,3.86,3.49s-1.57,3.5-3.86,3.5H21.3Zm3.1,5.66A2.09,2.09,0,0,0,26.7,16a2.09,2.09,0,0,0-2.3-2.16H22.92v4.33Z"/><path class="cls-2" d="M29.76,12.55a.89.89,0,0,1,1-.87.88.88,0,0,1,1,.84,1,1,0,0,1-1.94,0ZM30,14.17h1.56v5.37H30Z"/><path class="cls-2" d="M38.22,16.47v3.07H36.76v-.67a1.77,1.77,0,0,1-1.64.75c-1.26,0-2-.7-2-1.63s.67-1.61,2.31-1.61h1.24c0-.67-.4-1-1.24-1a2.52,2.52,0,0,0-1.55.5l-.56-1.09a4.14,4.14,0,0,1,2.32-.65C37.27,14.09,38.22,14.85,38.22,16.47Zm-1.56,1.37v-.55H35.59c-.73,0-1,.27-1,.63s.33.65.88.65A1.15,1.15,0,0,0,36.66,17.84Z"/><path class="cls-2" d="M45.74,14.17v4.47c0,2-1.08,2.92-3,2.92a4.43,4.43,0,0,1-2.64-.74l.62-1.12a3.22,3.22,0,0,0,1.9.61c1.1,0,1.58-.5,1.58-1.47v-.23a2.21,2.21,0,0,1-1.7.67,2.6,2.6,0,1,1,0-5.19,2.16,2.16,0,0,1,1.78.77v-.69ZM44.2,16.68a1.42,1.42,0,0,0-2.83,0,1.42,1.42,0,0,0,2.83,0Z"/><path class="cls-2" d="M53.19,16.46v3.08H51.63V16.7c0-.87-.4-1.27-1.09-1.27s-1.29.46-1.29,1.45v2.66H47.69V14.17h1.49v.62a2.39,2.39,0,0,1,1.78-.7A2.11,2.11,0,0,1,53.19,16.46Z"/><path class="cls-2" d="M54.76,16.85a3,3,0,1,1,3,2.77A2.77,2.77,0,0,1,54.76,16.85Zm4.33,0a1.38,1.38,0,1,0-2.75,0,1.38,1.38,0,1,0,2.75,0Zm-1-4.81h1.68L58,13.48H56.79Z"/><path class="cls-2" d="M61.69,19l.52-1.12a3.68,3.68,0,0,0,1.87.52c.72,0,1-.19,1-.49,0-.88-3.25,0-3.25-2.12,0-1,.92-1.74,2.49-1.74a4.42,4.42,0,0,1,2.07.47l-.52,1.11a3.11,3.11,0,0,0-1.55-.41c-.7,0-1,.23-1,.5,0,.92,3.25,0,3.25,2.15,0,1-.93,1.71-2.54,1.71A4.62,4.62,0,0,1,61.69,19Z"/><path class="cls-2" d="M71.49,19.28a2.23,2.23,0,0,1-1.27.34,1.77,1.77,0,0,1-2-1.93v-2.2h-.83v-1.2h.83V13h1.56v1.31h1.34v1.2H69.77v2.18a.63.63,0,0,0,.67.71,1.05,1.05,0,0,0,.63-.2Z"/><path class="cls-2" d="M72.68,12.55a.89.89,0,0,1,1-.87.88.88,0,0,1,1,.84,1,1,0,0,1-1.94,0Zm.19,1.62h1.56v5.37H72.87Z"/><path class="cls-2" d="M76,16.85a2.78,2.78,0,0,1,3-2.76,2.47,2.47,0,0,1,2.41,1.37l-1.21.64A1.33,1.33,0,0,0,79,15.37a1.37,1.37,0,0,0-1.41,1.48A1.38,1.38,0,0,0,79,18.34a1.32,1.32,0,0,0,1.21-.74l1.21.66A2.5,2.5,0,0,1,79,19.62,2.78,2.78,0,0,1,76,16.85Z"/><path class="cls-2" d="M82.32,16.85a3,3,0,1,1,3,2.77A2.77,2.77,0,0,1,82.32,16.85Zm4.33,0a1.38,1.38,0,1,0-2.75,0,1.38,1.38,0,1,0,2.75,0Z"/><path class="cls-2" d="M153.27,6.06h3.18c2.29,0,3.86,1.38,3.86,3.5s-1.57,3.49-3.86,3.49h-3.18Zm3.1,5.66a2.08,2.08,0,0,0,2.3-2.16,2.09,2.09,0,0,0-2.3-2.17h-1.48v4.33Z"/><path class="cls-2" d="M161.73,6.06a.89.89,0,0,1,1-.87.88.88,0,0,1,1,.84,1,1,0,0,1-1.94,0Zm.19,1.62h1.56v5.37h-1.56Z"/><path class="cls-2" d="M164.91,12.55l.52-1.12a3.59,3.59,0,0,0,1.87.52c.72,0,1-.19,1-.49,0-.88-3.25,0-3.25-2.12,0-1,.92-1.74,2.49-1.74a4.42,4.42,0,0,1,2.07.47l-.52,1.11a3.09,3.09,0,0,0-1.55-.4c-.7,0-1,.22-1,.5,0,.92,3.25,0,3.25,2.14,0,1-.93,1.71-2.54,1.71A4.62,4.62,0,0,1,164.91,12.55Z"/><path class="cls-2" d="M176.48,10.81h-4.07A1.44,1.44,0,0,0,174,11.88a1.86,1.86,0,0,0,1.35-.51l.83.89a3.14,3.14,0,0,1-5.29-1.89,2.74,2.74,0,0,1,2.87-2.77,2.66,2.66,0,0,1,2.8,2.79C176.51,10.5,176.49,10.67,176.48,10.81Zm-4.09-.91H175a1.34,1.34,0,0,0-2.65,0Z"/><path class="cls-2" d="M183.55,10v3.07H182V10.22c0-.87-.4-1.27-1.09-1.27s-1.29.46-1.29,1.45v2.65h-1.56V7.68h1.49v.63a2.36,2.36,0,0,1,1.78-.71A2.11,2.11,0,0,1,183.55,10Zm-3.87-3h-.79c0-.89.47-1.46,1.17-1.46s1,.64,1.4.64.46-.21.48-.54h.79c0,.86-.47,1.43-1.17,1.43s-1-.63-1.4-.63S179.7,6.59,179.68,7Z"/><path class="cls-2" d="M185.12,10.37a3,3,0,1,1,3,2.76A2.77,2.77,0,0,1,185.12,10.37Zm4.33,0a1.38,1.38,0,1,0-2.75,0,1.38,1.38,0,1,0,2.75,0Z"/><path class="cls-2" d="M147.83,22.36l.55-1.22a4,4,0,0,0,2.31.73c1,0,1.35-.32,1.35-.75,0-1.3-4.07-.41-4.07-3,0-1.19,1-2.18,2.95-2.18a4.7,4.7,0,0,1,2.43.62l-.5,1.23a4,4,0,0,0-1.94-.55c-1,0-1.33.36-1.33.8,0,1.29,4.07.4,4.07,3,0,1.17-1,2.17-3,2.17A5,5,0,0,1,147.83,22.36Z"/><path class="cls-2" d="M154.75,20.37a3,3,0,1,1,3,2.76A2.77,2.77,0,0,1,154.75,20.37Zm4.33,0a1.38,1.38,0,1,0-2.75,0,1.38,1.38,0,1,0,2.75,0Z"/><path class="cls-2" d="M162.2,15.64h1.56v7.41H162.2Z"/><path class="cls-2" d="M171.13,17.68v5.37h-1.48v-.64a2.18,2.18,0,0,1-1.67.72,2.14,2.14,0,0,1-2.3-2.42v-3h1.56v2.81c0,.89.4,1.29,1.09,1.29s1.24-.45,1.24-1.44V17.68Z"/><path class="cls-2" d="M172.68,20.37a2.78,2.78,0,0,1,3-2.77A2.47,2.47,0,0,1,178.09,19l-1.21.65a1.34,1.34,0,0,0-1.21-.74,1.38,1.38,0,0,0-1.41,1.49,1.37,1.37,0,0,0,1.41,1.48,1.33,1.33,0,0,0,1.21-.73l1.21.65a2.5,2.5,0,0,1-2.41,1.36A2.78,2.78,0,0,1,172.68,20.37Z"/><path class="cls-2" d="M179.3,16.06a.89.89,0,0,1,1-.87.88.88,0,0,1,1,.84,1,1,0,0,1-1.94,0Zm.19,1.62h1.56v5.37h-1.56Z"/><path class="cls-2" d="M182.6,20.37a3,3,0,1,1,3,2.76A2.77,2.77,0,0,1,182.6,20.37Zm4.33,0a1.38,1.38,0,1,0-2.75,0,1.38,1.38,0,1,0,2.75,0Zm-1-4.82h1.68L185.85,17h-1.22Z"/><path class="cls-2" d="M195.55,20v3.07H194V20.22c0-.87-.4-1.27-1.09-1.27s-1.29.46-1.29,1.45v2.65h-1.56V17.68h1.49v.63a2.36,2.36,0,0,1,1.78-.71A2.11,2.11,0,0,1,195.55,20Z"/><path class="cls-2" d="M366.31,11.28h1.62v7h-1.62Z"/><path class="cls-2" d="M379.06,15.2v3.08H377.5V15.44c0-.87-.39-1.27-1-1.27s-1.18.45-1.18,1.41v2.7h-1.56V15.44c0-.87-.37-1.27-1-1.27s-1.18.45-1.18,1.41v2.7H370V12.9h1.49v.62a2.18,2.18,0,0,1,1.69-.7,2,2,0,0,1,1.77.88,2.4,2.4,0,0,1,1.93-.88A2.08,2.08,0,0,1,379.06,15.2Z"/><path class="cls-2" d="M386.83,15.59a2.61,2.61,0,0,1-2.68,2.77,2.09,2.09,0,0,1-1.62-.65v2.5H381V12.9h1.49v.62a2.09,2.09,0,0,1,1.69-.7A2.61,2.61,0,0,1,386.83,15.59Zm-1.58,0a1.37,1.37,0,1,0-2.74,0,1.37,1.37,0,1,0,2.74,0Z"/><path class="cls-2" d="M388.37,10.86h1.56v7.42h-1.56Z"/><path class="cls-2" d="M397.12,16h-4.07a1.43,1.43,0,0,0,1.54,1.08,1.82,1.82,0,0,0,1.35-.52l.82.9a3.13,3.13,0,0,1-5.28-1.9,2.74,2.74,0,0,1,2.87-2.77,2.66,2.66,0,0,1,2.79,2.79C397.14,15.73,397.12,15.9,397.12,16ZM393,15.12h2.65a1.34,1.34,0,0,0-2.65,0Z"/><path class="cls-2" d="M407.77,15.2v3.08h-1.56V15.44c0-.87-.39-1.27-1-1.27s-1.19.45-1.19,1.41v2.7h-1.55V15.44c0-.87-.37-1.27-1-1.27s-1.18.45-1.18,1.41v2.7h-1.56V12.9h1.49v.62a2.18,2.18,0,0,1,1.69-.7,2,2,0,0,1,1.76.88,2.42,2.42,0,0,1,1.94-.88A2.08,2.08,0,0,1,407.77,15.2Z"/><path class="cls-2" d="M415,16h-4.06a1.43,1.43,0,0,0,1.54,1.08,1.8,1.8,0,0,0,1.34-.52l.83.9a3.13,3.13,0,0,1-5.28-1.9,2.74,2.74,0,0,1,2.87-2.77A2.66,2.66,0,0,1,415,15.61C415,15.73,415,15.9,415,16Zm-4.08-.91h2.65A1.29,1.29,0,0,0,412.22,14,1.27,1.27,0,0,0,410.89,15.12Z"/><path class="cls-2" d="M422,15.2v3.08h-1.56V15.44c0-.87-.4-1.27-1.08-1.27s-1.29.46-1.29,1.45v2.66h-1.56V12.9H418v.63a2.34,2.34,0,0,1,1.78-.71A2.11,2.11,0,0,1,422,15.2Z"/><path class="cls-2" d="M427.42,18a2.17,2.17,0,0,1-1.26.34,1.77,1.77,0,0,1-2-1.93V14.22h-.83V13h.83V11.71h1.56V13H427v1.2h-1.33v2.19a.63.63,0,0,0,.67.71,1,1,0,0,0,.62-.2Z"/><path class="cls-2" d="M433.56,15.21v3.07H432.1v-.67a1.76,1.76,0,0,1-1.63.75c-1.26,0-2-.7-2-1.63s.67-1.61,2.31-1.61H432c0-.67-.39-1.06-1.23-1.06a2.59,2.59,0,0,0-1.55.5l-.56-1.09a4.14,4.14,0,0,1,2.32-.65C432.61,12.82,433.56,13.58,433.56,15.21ZM432,16.58V16h-1.06c-.73,0-1,.27-1,.63s.33.65.88.65A1.14,1.14,0,0,0,432,16.58Z"/><path class="cls-2" d="M435.14,15.59a2.78,2.78,0,0,1,3-2.77,2.47,2.47,0,0,1,2.4,1.37l-1.21.65a1.33,1.33,0,0,0-1.2-.74,1.38,1.38,0,0,0-1.41,1.49,1.38,1.38,0,0,0,1.41,1.49,1.31,1.31,0,0,0,1.2-.74l1.21.66a2.49,2.49,0,0,1-2.4,1.36A2.78,2.78,0,0,1,435.14,15.59Z"/><path class="cls-2" d="M441.76,11.28a.89.89,0,0,1,1-.87.88.88,0,0,1,1,.84,1,1,0,0,1-1.94,0ZM442,12.9h1.56v5.38H442Z"/><path class="cls-2" d="M445.06,15.59a3,3,0,1,1,3,2.77A2.77,2.77,0,0,1,445.06,15.59Zm4.32,0a1.37,1.37,0,1,0-2.74,0,1.37,1.37,0,1,0,2.74,0Zm-.94-4.82h1.67l-1.8,1.44h-1.22Z"/><path class="cls-2" d="M458,15.2v3.08h-1.56V15.44c0-.87-.4-1.27-1.08-1.27s-1.29.46-1.29,1.45v2.66h-1.56V12.9H454v.63a2.34,2.34,0,0,1,1.78-.71A2.11,2.11,0,0,1,458,15.2Z"/><path class="cls-2" d="M261.53,12.55h3.18c2.29,0,3.86,1.38,3.86,3.49s-1.57,3.5-3.86,3.5h-3.18Zm3.1,5.66a2.09,2.09,0,0,0,2.3-2.17,2.09,2.09,0,0,0-2.3-2.16h-1.48v4.33Z"/><path class="cls-2" d="M275.42,17.29h-4.07a1.43,1.43,0,0,0,1.54,1.08,1.82,1.82,0,0,0,1.35-.52l.83.9a3.14,3.14,0,0,1-5.29-1.9,2.74,2.74,0,0,1,2.87-2.76,2.66,2.66,0,0,1,2.8,2.78C275.45,17,275.43,17.16,275.42,17.29Zm-4.09-.91H274a1.34,1.34,0,0,0-2.65,0Z"/><path class="cls-2" d="M276.47,19l.52-1.12a3.68,3.68,0,0,0,1.87.52c.72,0,1-.19,1-.49,0-.88-3.25,0-3.25-2.12,0-1,.92-1.74,2.49-1.74a4.42,4.42,0,0,1,2.07.47l-.52,1.11a3.11,3.11,0,0,0-1.55-.41c-.7,0-1,.23-1,.5,0,.92,3.25,0,3.25,2.15,0,1-.93,1.71-2.54,1.71A4.62,4.62,0,0,1,276.47,19Z"/><path class="cls-2" d="M287.56,16.47v3.07H286.1v-.67a1.77,1.77,0,0,1-1.64.75c-1.26,0-2-.7-2-1.63s.67-1.61,2.31-1.61H286c0-.67-.4-1-1.24-1a2.52,2.52,0,0,0-1.55.5l-.56-1.09a4.14,4.14,0,0,1,2.32-.65C286.61,14.09,287.56,14.85,287.56,16.47ZM286,17.84v-.55h-1.07c-.73,0-1,.27-1,.63s.33.65.88.65A1.15,1.15,0,0,0,286,17.84Z"/><path class="cls-2" d="M292.81,14.09v1.44a2.16,2.16,0,0,0-.35,0A1.32,1.32,0,0,0,291,17v2.54h-1.56V14.17H291v.7A2.19,2.19,0,0,1,292.81,14.09Z"/><path class="cls-2" d="M297.58,14.09v1.44a2.16,2.16,0,0,0-.35,0A1.32,1.32,0,0,0,295.8,17v2.54h-1.56V14.17h1.49v.7A2.19,2.19,0,0,1,297.58,14.09Z"/><path class="cls-2" d="M298.56,16.85a3,3,0,1,1,3,2.77A2.77,2.77,0,0,1,298.56,16.85Zm4.33,0a1.38,1.38,0,1,0-2.75,0,1.38,1.38,0,1,0,2.75,0Z"/><path class="cls-2" d="M306,12.13h1.56v7.41H306Z"/><path class="cls-2" d="M309.52,12.13h1.56v7.41h-1.56Z"/><path class="cls-2" d="M312.63,16.85a3,3,0,1,1,3,2.77A2.77,2.77,0,0,1,312.63,16.85Zm4.33,0a1.38,1.38,0,1,0-2.75,0,1.38,1.38,0,1,0,2.75,0Z"/><path class="cls-3" d="M102.43,11a11,11,0,0,1,8.15-8c5.88-1.36,10.63,2.19,13.48,8.27"/><line class="cls-3" x1="124.05" y1="11.38" x2="120.14" y2="9.2"/><line class="cls-3" x1="124.05" y1="11.38" x2="124.54" y2="7.03"/><path class="cls-3" d="M124.54,16.74a10.94,10.94,0,0,1-8.14,8c-5.89,1.36-10.63-2.19-13.49-8.27"/><line class="cls-3" x1="102.92" y1="16.33" x2="106.84" y2="18.51"/><line class="cls-3" x1="102.92" y1="16.33" x2="102.43" y2="20.68"/><path class="cls-3" d="M220.88,11A11,11,0,0,1,229,3c5.88-1.36,10.63,2.19,13.48,8.27"/><line class="cls-3" x1="242.5" y1="11.38" x2="238.59" y2="9.2"/><line class="cls-3" x1="242.5" y1="11.38" x2="242.99" y2="7.03"/><path class="cls-3" d="M243,16.74a10.92,10.92,0,0,1-8.14,8c-5.89,1.36-10.63-2.19-13.49-8.27"/><line class="cls-3" x1="221.38" y1="16.33" x2="225.29" y2="18.51"/><line class="cls-3" x1="221.38" y1="16.33" x2="220.88" y2="20.68"/><path class="cls-3" d="M338.53,11a10.94,10.94,0,0,1,8.14-8c5.89-1.36,10.64,2.19,13.49,8.27"/><line class="cls-3" x1="360.15" y1="11.38" x2="356.23" y2="9.2"/><line class="cls-3" x1="360.15" y1="11.38" x2="360.64" y2="7.03"/><path class="cls-3" d="M360.64,16.74a10.94,10.94,0,0,1-8.14,8c-5.89,1.36-10.64-2.19-13.49-8.27"/><line class="cls-3" x1="339.02" y1="16.33" x2="342.94" y2="18.51"/><line class="cls-3" x1="339.02" y1="16.33" x2="338.53" y2="20.68"/></g></g></svg>