<svg xmlns="http://www.w3.org/2000/svg" xmlns:xlink="http://www.w3.org/1999/xlink" viewBox="0 0 109.52 29.27"><defs><style>.cls-1{fill:url(#Degradado_sin_nombre_6);}.cls-2{fill:#fff;}</style><linearGradient id="Degradado_sin_nombre_6" x1="54.76" x2="54.76" y2="29.27" gradientUnits="userSpaceOnUse"><stop offset="0" stop-color="#266677"/><stop offset="1" stop-color="#42a5bd"/></linearGradient></defs><title>Recurso 13</title><g id="Capa_2" data-name="Capa 2"><g id="Capa_1-2" data-name="Capa 1"><rect class="cls-1" width="109.52" height="29.27" rx="1.79"/><path class="cls-2" d="M35.64,11.22v7.7H33.86V12.65H32.32V11.22Z"/><path class="cls-2" d="M36.92,17.93a1.07,1.07,0,0,1,2.14,0,1.07,1.07,0,1,1-2.14,0Z"/><path class="cls-2" d="M50.86,11.22l-3.33,7.7H45.77l-3.32-7.7h1.92l2.35,5.5,2.37-5.5Z"/><path class="cls-2" d="M51.28,11.22a1,1,0,0,1,1.07-1,1,1,0,0,1,1.07.92,1.08,1.08,0,0,1-2.14,0ZM51.49,13h1.72v5.92H51.49Z"/><path class="cls-2" d="M54.23,18.37l.57-1.23a4.06,4.06,0,0,0,2.06.57c.79,0,1.09-.21,1.09-.54,0-1-3.58,0-3.58-2.34,0-1.13,1-1.92,2.74-1.92a4.89,4.89,0,0,1,2.28.52l-.57,1.22a3.43,3.43,0,0,0-1.71-.44c-.77,0-1.1.24-1.1.55,0,1,3.58,0,3.58,2.37,0,1.1-1,1.88-2.8,1.88A5.1,5.1,0,0,1,54.23,18.37Z"/><path class="cls-2" d="M60.43,11.22a1,1,0,0,1,1.07-1,1,1,0,0,1,1.07.92,1.08,1.08,0,0,1-2.14,0ZM60.64,13h1.72v5.92H60.64Z"/><path class="cls-2" d="M63.51,16A3.26,3.26,0,1,1,66.77,19,3.05,3.05,0,0,1,63.51,16Zm4.77,0a1.52,1.52,0,1,0-3,0,1.52,1.52,0,1,0,3,0Zm-1-5.3h1.85l-2,1.58H65.74Z"/><path class="cls-2" d="M77.21,15.53v3.39H75.49V15.79c0-.95-.44-1.39-1.2-1.39s-1.42.5-1.42,1.59v2.93H71.16V13H72.8v.69a2.6,2.6,0,0,1,2-.78A2.33,2.33,0,0,1,77.21,15.53Z"/></g></g></svg>