<svg id="help" xmlns="http://www.w3.org/2000/svg" width="54.877" height="54.877" viewBox="0 0 54.877 54.877">
  <path id="Trazado_330" data-name="Trazado 330" d="M54.877,37.139a17.78,17.78,0,0,0-12.99-17.094A20.954,20.954,0,1,0,2.906,31.605L.077,41.831,10.3,39a20.876,20.876,0,0,0,9.741,2.884,17.744,17.744,0,0,0,26.12,10.525L54.8,54.8l-2.389-8.635A17.675,17.675,0,0,0,54.877,37.139ZM10.811,35.526,4.689,37.22,6.382,31.1,6,30.494a17.733,17.733,0,1,1,5.418,5.418ZM50.189,50.189l-4.543-1.257-.607.395A14.529,14.529,0,0,1,23.37,41.768a20.994,20.994,0,0,0,18.4-18.4,14.529,14.529,0,0,1,7.558,21.67l-.395.607Zm0,0" fill="#183f42"/>
  <path id="Trazado_331" data-name="Trazado 331" d="M180.5,271h3.215v3.215H180.5Zm0,0" transform="translate(-161.154 -241.954)" fill="#183f42"/>
  <path id="Trazado_332" data-name="Trazado 332" d="M145.146,96.431A3.182,3.182,0,0,1,144.1,98.8l-3.777,3.457v3.923h3.215v-2.507l2.732-2.5A6.431,6.431,0,1,0,135.5,96.431h3.215a3.215,3.215,0,1,1,6.431,0Zm0,0" transform="translate(-120.977 -80.354)" fill="#183f42"/>
</svg>
