<svg xmlns="http://www.w3.org/2000/svg" width="54.705" height="54.92" viewBox="0 0 54.705 54.92">
  <path id="audience" d="M52.02,27.247A5.895,5.895,0,0,0,49.269,17.6v-.976A8.043,8.043,0,0,0,45.584,9.87a5.9,5.9,0,1,0-8.72,0A8.111,8.111,0,0,0,34.788,11.8a8.113,8.113,0,0,0-2.075-1.935,5.9,5.9,0,1,0-8.721,0A8.109,8.109,0,0,0,21.917,11.8a8.113,8.113,0,0,0-2.075-1.935,5.9,5.9,0,1,0-8.72,0,8.043,8.043,0,0,0-3.685,6.756V17.6a5.895,5.895,0,0,0-2.751,9.645A8.043,8.043,0,0,0,1,34v6.436a1.609,1.609,0,0,0,1.609,1.609h.536v10.19A2.685,2.685,0,0,0,5.827,54.92h6.436a2.685,2.685,0,0,0,2.682-2.682V42.048h1.073v10.19A2.685,2.685,0,0,0,18.7,54.92h6.436a2.685,2.685,0,0,0,2.682-2.682V42.048h1.073v10.19A2.685,2.685,0,0,0,31.57,54.92h6.436a2.685,2.685,0,0,0,2.682-2.682V42.048h1.073v10.19a2.685,2.685,0,0,0,2.682,2.682h6.436a2.685,2.685,0,0,0,2.682-2.682V42.048H54.1a1.609,1.609,0,0,0,1.609-1.609V34A8.043,8.043,0,0,0,52.02,27.247Zm.467,11.583H42.833V34a4.827,4.827,0,1,1,9.654,0Zm-12.872,0H29.962V34a4.827,4.827,0,1,1,9.654,0Zm-12.872,0H17.09V34a4.827,4.827,0,1,1,9.654,0ZM13.4,27.247a5.892,5.892,0,0,0,1.372-2.576h1.409a5.892,5.892,0,0,0,1.372,2.576,8.109,8.109,0,0,0-2.076,1.935A8.111,8.111,0,0,0,13.4,27.247Zm5.831-3.971a2.682,2.682,0,1,1,2.682,2.682A2.685,2.685,0,0,1,19.235,23.276Zm7.041,3.971a5.892,5.892,0,0,0,1.372-2.576h1.409a5.892,5.892,0,0,0,1.372,2.576,8.109,8.109,0,0,0-2.076,1.935,8.111,8.111,0,0,0-2.077-1.935Zm5.831-3.971a2.682,2.682,0,1,1,2.682,2.682A2.685,2.685,0,0,1,32.107,23.276Zm7.041,3.971a5.892,5.892,0,0,0,1.372-2.576h1.409A5.892,5.892,0,0,0,43.3,27.247a8.109,8.109,0,0,0-2.076,1.935,8.111,8.111,0,0,0-2.077-1.935Zm11.194-3.971a2.682,2.682,0,1,1-2.682-2.682A2.685,2.685,0,0,1,50.342,23.276ZM38.543,5.9a2.682,2.682,0,1,1,2.682,2.682A2.685,2.685,0,0,1,38.543,5.9ZM36.4,16.626a4.827,4.827,0,1,1,9.654,0V17.6s0,0,0,0a5.923,5.923,0,0,0-4,3.849l0,0H40.4l0,0a5.923,5.923,0,0,0-4-3.848l0,0v-.972ZM25.671,5.9a2.682,2.682,0,1,1,2.682,2.682A2.685,2.685,0,0,1,25.671,5.9ZM23.526,16.626a4.827,4.827,0,0,1,9.654,0V17.6a5.923,5.923,0,0,0-4,3.85H27.526a5.923,5.923,0,0,0-4-3.85v-.976ZM12.8,5.9a2.682,2.682,0,1,1,2.682,2.682A2.685,2.685,0,0,1,12.8,5.9ZM10.654,16.626a4.827,4.827,0,0,1,9.654,0V17.6l0,0a5.923,5.923,0,0,0-4,3.847l0,0H14.658l0,0a5.923,5.923,0,0,0-4-3.849v-.976Zm-4.291,6.65a2.682,2.682,0,1,1,2.682,2.682A2.685,2.685,0,0,1,6.363,23.276ZM4.218,34a4.827,4.827,0,1,1,9.654,0V38.83H4.218Zm7.509,17.7H6.363V42.048h5.363Zm12.872,0H19.235V42.048H24.6Zm12.872,0H32.107V42.048H37.47Zm12.872,0H44.979V42.048h5.363Z" transform="translate(-1)" fill="#183f42"/>
</svg>
