<svg xmlns="http://www.w3.org/2000/svg" xmlns:xlink="http://www.w3.org/1999/xlink" viewBox="0 0 383 190"><defs><style>.cls-1{fill:url(#Degradado_sin_nombre_9);}.cls-2{fill:url(#Degradado_sin_nombre_2);}.cls-3{fill:#fff;}.cls-4{isolation:isolate;}.cls-5{fill:#3a3f3d;}</style><linearGradient id="Degradado_sin_nombre_9" x1="-32.96" y1="616.49" x2="-33.62" y2="617.35" gradientTransform="matrix(275, 0, 0, -111, 9399.64, 68572.64)" gradientUnits="userSpaceOnUse"><stop offset="0" stop-color="#006b7a"/><stop offset="1" stop-color="#00a5a3"/></linearGradient><linearGradient id="Degradado_sin_nombre_2" x1="-34.07" y1="617.51" x2="-33.31" y2="616.86" gradientTransform="matrix(190, 0, 0, -190, 6498.23, 117361.02)" gradientUnits="userSpaceOnUse"><stop offset="0" stop-color="#00ada9"/><stop offset="1" stop-color="#006a79"/></linearGradient></defs><title>Recurso 2</title><g id="Capa_2" data-name="Capa 2"><g id="Capa_1-2" data-name="Capa 1"><g id="Grupo_348" data-name="Grupo 348"><path id="Rectángulo_16" data-name="Rectángulo 16" class="cls-1" d="M163.5,39h164A55.5,55.5,0,0,1,383,94.5h0A55.5,55.5,0,0,1,327.5,150h-164A55.5,55.5,0,0,1,108,94.5h0A55.5,55.5,0,0,1,163.5,39Z"/><circle id="Elipse_3" data-name="Elipse 3" class="cls-2" cx="95" cy="95" r="95"/><circle id="Elipse_4-3" data-name="Elipse 4-3" class="cls-3" cx="94.5" cy="94.5" r="76.5"/><g id="Centro_de_Operaciones_de_Seguridad_SOC_" data-name="Centro de Operaciones de Seguridad SOC " class="cls-4"><g class="cls-4"><path class="cls-3" d="M229.32,59.7c0-3.8,2.91-6.52,6.84-6.52a6.48,6.48,0,0,1,5.18,2.23l-1.87,1.73a4.07,4.07,0,0,0-3.17-1.48,4,4,0,0,0,0,8.07,4,4,0,0,0,3.17-1.49L241.34,64a6.92,6.92,0,0,1-12-4.27Z"/><path class="cls-3" d="M252.2,62h-7.33a2.57,2.57,0,0,0,2.77,1.94,3.26,3.26,0,0,0,2.43-.93l1.5,1.62a5.09,5.09,0,0,1-4,1.56c-3.35,0-5.53-2.1-5.53-5a4.94,4.94,0,0,1,5.17-5,4.8,4.8,0,0,1,5,5C252.25,61.41,252.21,61.71,252.2,62Zm-7.37-1.64h4.77a2.42,2.42,0,0,0-4.77,0Z"/><path class="cls-3" d="M264,60.45V66h-2.81V60.89c0-1.57-.72-2.29-2-2.29s-2.32.83-2.32,2.61V66h-2.81V56.31h2.68v1.14A4.24,4.24,0,0,1,260,56.17C262.29,56.17,264,57.5,264,60.45Z"/><path class="cls-3" d="M272.81,65.53a4,4,0,0,1-2.29.61c-2.29,0-3.62-1.17-3.62-3.47v-4h-1.49V56.53h1.49V54.17h2.81v2.36h2.41v2.16h-2.41v3.94a1.13,1.13,0,0,0,1.21,1.28,1.93,1.93,0,0,0,1.13-.36Z"/><path class="cls-3" d="M280.4,56.17v2.59c-.23,0-.41,0-.63,0a2.37,2.37,0,0,0-2.57,2.7V66h-2.81V56.31h2.68v1.28A3.94,3.94,0,0,1,280.4,56.17Z"/><path class="cls-3" d="M281.26,61.16a5.33,5.33,0,1,1,5.33,5C283.51,66.14,281.26,64.07,281.26,61.16Zm7.8,0a2.48,2.48,0,1,0-2.47,2.68A2.45,2.45,0,0,0,289.06,61.16Z"/><path class="cls-3" d="M308.73,52.64V66h-2.68V64.88a3.71,3.71,0,0,1-3,1.26,5,5,0,0,1,0-10,3.74,3.74,0,0,1,2.9,1.17v-4.7ZM306,61.16a2.48,2.48,0,1,0-2.47,2.68A2.46,2.46,0,0,0,306,61.16Z"/><path class="cls-3" d="M320.76,62h-7.33a2.58,2.58,0,0,0,2.77,1.94,3.26,3.26,0,0,0,2.43-.93l1.5,1.62a5.09,5.09,0,0,1-4,1.56c-3.35,0-5.53-2.1-5.53-5a4.94,4.94,0,0,1,5.17-5,4.79,4.79,0,0,1,5,5C320.81,61.41,320.78,61.71,320.76,62Zm-7.37-1.64h4.78a2.42,2.42,0,0,0-4.78,0Z"/></g><g class="cls-4"><path class="cls-3" d="M201.69,81.7c0-3.75,2.91-6.52,6.89-6.52s6.9,2.75,6.9,6.52-2.94,6.52-6.9,6.52S201.69,85.44,201.69,81.7Zm10.84,0a3.95,3.95,0,1,0-3.95,4A3.85,3.85,0,0,0,212.53,81.7Z"/><path class="cls-3" d="M228,83.16a4.7,4.7,0,0,1-4.82,5A3.74,3.74,0,0,1,220.28,87v4.52h-2.81V78.31h2.68v1.12a3.77,3.77,0,0,1,3-1.26A4.7,4.7,0,0,1,228,83.16Zm-2.84,0a2.47,2.47,0,1,0-2.47,2.68A2.45,2.45,0,0,0,225.18,83.16Z"/><path class="cls-3" d="M239.33,84H232a2.58,2.58,0,0,0,2.77,1.94A3.26,3.26,0,0,0,237.2,85l1.5,1.62a5.09,5.09,0,0,1-4,1.56c-3.35,0-5.53-2.1-5.53-5a4.94,4.94,0,0,1,5.17-5,4.8,4.8,0,0,1,5,5C239.38,83.41,239.34,83.71,239.33,84ZM232,82.31h4.77a2.42,2.42,0,0,0-4.77,0Z"/><path class="cls-3" d="M247.26,78.17v2.59c-.23,0-.41,0-.63,0a2.38,2.38,0,0,0-2.57,2.7V88h-2.81V78.31h2.68v1.28A3.94,3.94,0,0,1,247.26,78.17Z"/><path class="cls-3" d="M257.45,82.47V88h-2.63V86.79a3.16,3.16,0,0,1-2.95,1.35c-2.27,0-3.62-1.26-3.62-2.93s1.21-2.9,4.16-2.9h2.23c0-1.21-.72-1.91-2.23-1.91a4.63,4.63,0,0,0-2.79.9l-1-2a7.42,7.42,0,0,1,4.18-1.17C255.74,78.17,257.45,79.54,257.45,82.47Zm-2.81,2.47V84h-1.92c-1.32,0-1.73.48-1.73,1.13s.59,1.17,1.58,1.17A2.06,2.06,0,0,0,254.64,84.94Z"/><path class="cls-3" d="M259.38,83.16c0-2.92,2.25-5,5.4-5a4.46,4.46,0,0,1,4.34,2.47l-2.18,1.17a2.42,2.42,0,0,0-2.18-1.34,2.69,2.69,0,0,0,0,5.37,2.39,2.39,0,0,0,2.18-1.33l2.18,1.19a4.51,4.51,0,0,1-4.34,2.44C261.63,88.14,259.38,86.07,259.38,83.16Z"/><path class="cls-3" d="M270.39,75.4a1.6,1.6,0,0,1,1.75-1.57,1.57,1.57,0,0,1,1.74,1.51,1.75,1.75,0,0,1-3.49.06Zm.34,2.91h2.81V88h-2.81Z"/><path class="cls-3" d="M275.43,83.16a5.33,5.33,0,1,1,5.33,5C277.68,88.14,275.43,86.07,275.43,83.16Zm7.8,0a2.48,2.48,0,1,0-2.47,2.68A2.45,2.45,0,0,0,283.23,83.16Z"/><path class="cls-3" d="M297.84,82.45V88H295V82.89c0-1.57-.72-2.29-2-2.29s-2.32.83-2.32,2.61V88h-2.81V78.31h2.68v1.14a4.24,4.24,0,0,1,3.21-1.28C296.12,78.17,297.84,79.5,297.84,82.45Z"/><path class="cls-3" d="M309.92,84h-7.33a2.58,2.58,0,0,0,2.78,1.94A3.29,3.29,0,0,0,307.8,85l1.49,1.62a5.08,5.08,0,0,1-4,1.56c-3.35,0-5.53-2.1-5.53-5a4.93,4.93,0,0,1,5.16-5,4.8,4.8,0,0,1,5.05,5C310,83.41,309.94,83.71,309.92,84Zm-7.36-1.64h4.77a2.42,2.42,0,0,0-4.77,0Z"/><path class="cls-3" d="M310.91,87.1l.94-2a6.57,6.57,0,0,0,3.36.94c1.3,0,1.78-.34,1.78-.88,0-1.59-5.85,0-5.85-3.84,0-1.83,1.66-3.13,4.49-3.13a7.92,7.92,0,0,1,3.72.85l-.93,2a5.58,5.58,0,0,0-2.79-.72c-1.26,0-1.8.4-1.8.9,0,1.66,5.85.06,5.85,3.88,0,1.8-1.68,3.07-4.58,3.07A8.36,8.36,0,0,1,310.91,87.1Z"/><path class="cls-3" d="M336.36,74.64V88h-2.68V86.88a3.71,3.71,0,0,1-3,1.26,5,5,0,0,1,0-10,3.75,3.75,0,0,1,2.9,1.17v-4.7Zm-2.75,8.52a2.48,2.48,0,1,0-2.47,2.68A2.46,2.46,0,0,0,333.61,83.16Z"/><path class="cls-3" d="M348.39,84h-7.33a2.58,2.58,0,0,0,2.77,1.94,3.26,3.26,0,0,0,2.43-.93l1.5,1.62a5.09,5.09,0,0,1-4,1.56c-3.35,0-5.53-2.1-5.53-5a4.94,4.94,0,0,1,5.17-5,4.8,4.8,0,0,1,5,5C348.44,83.41,348.41,83.71,348.39,84ZM341,82.31h4.77a2.42,2.42,0,0,0-4.77,0Z"/></g><g class="cls-4"><path class="cls-3" d="M227,108.76l1-2.2a7.41,7.41,0,0,0,4.15,1.31c1.73,0,2.44-.57,2.44-1.34,0-2.36-7.33-.74-7.33-5.42,0-2.15,1.73-3.93,5.31-3.93a8.43,8.43,0,0,1,4.37,1.12l-.9,2.21a7.06,7.06,0,0,0-3.49-1c-1.73,0-2.39.65-2.39,1.44,0,2.32,7.32.72,7.32,5.35,0,2.11-1.74,3.91-5.34,3.91A9.05,9.05,0,0,1,227,108.76Z"/><path class="cls-3" d="M248.7,106h-7.33a2.57,2.57,0,0,0,2.77,1.94,3.26,3.26,0,0,0,2.43-.93l1.5,1.62a5.09,5.09,0,0,1-4,1.56c-3.35,0-5.53-2.1-5.53-5a4.94,4.94,0,0,1,5.17-5,4.8,4.8,0,0,1,5,5C248.75,105.41,248.71,105.71,248.7,106Zm-7.37-1.64h4.77a2.42,2.42,0,0,0-4.77,0Z"/><path class="cls-3" d="M260.61,100.31v8.07c0,3.6-1.94,5.26-5.44,5.26a7.94,7.94,0,0,1-4.75-1.34l1.12-2a5.84,5.84,0,0,0,3.42,1.1c2,0,2.84-.9,2.84-2.65v-.41a4,4,0,0,1-3.06,1.2,4.68,4.68,0,1,1,0-9.36,3.89,3.89,0,0,1,3.21,1.39v-1.25Zm-2.77,4.54a2.56,2.56,0,1,0-2.54,2.38A2.36,2.36,0,0,0,257.84,104.85Z"/><path class="cls-3" d="M273,100.31V110h-2.67v-1.15a3.94,3.94,0,0,1-3,1.29c-2.43,0-4.15-1.36-4.15-4.35v-5.48H266v5.06c0,1.62.72,2.34,2,2.34s2.23-.83,2.23-2.61v-4.79Z"/><path class="cls-3" d="M281.6,100.17v2.59c-.24,0-.42,0-.63,0a2.38,2.38,0,0,0-2.58,2.7V110h-2.8v-9.69h2.68v1.28A3.91,3.91,0,0,1,281.6,100.17Z"/><path class="cls-3" d="M282.93,97.4a1.6,1.6,0,0,1,1.75-1.57,1.57,1.57,0,0,1,1.74,1.51,1.75,1.75,0,0,1-3.49.06Zm.34,2.91h2.81V110h-2.81Z"/><path class="cls-3" d="M298.56,96.64V110h-2.69v-1.12a3.71,3.71,0,0,1-3,1.26,5,5,0,0,1,0-10,3.73,3.73,0,0,1,2.9,1.17v-4.7Zm-2.76,8.52a2.48,2.48,0,1,0-2.47,2.68A2.46,2.46,0,0,0,295.8,105.16Z"/><path class="cls-3" d="M309.72,104.47V110h-2.63v-1.21a3.18,3.18,0,0,1-3,1.35c-2.27,0-3.62-1.26-3.62-2.93s1.21-2.9,4.16-2.9h2.24c0-1.21-.72-1.91-2.24-1.91a4.67,4.67,0,0,0-2.79.9l-1-2a7.44,7.44,0,0,1,4.18-1.17C308,100.17,309.72,101.54,309.72,104.47Zm-2.81,2.47v-1H305c-1.31,0-1.73.48-1.73,1.13s.6,1.17,1.59,1.17A2.08,2.08,0,0,0,306.91,106.94Z"/><path class="cls-3" d="M322.23,96.64V110h-2.69v-1.12a3.71,3.71,0,0,1-3,1.26,5,5,0,0,1,0-10,3.74,3.74,0,0,1,2.9,1.17v-4.7Zm-2.76,8.52a2.48,2.48,0,1,0-2.47,2.68A2.46,2.46,0,0,0,319.47,105.16Z"/></g><g class="cls-4"><path class="cls-3" d="M249.94,127.07a15.22,15.22,0,0,1,2.25-8.43h2.69a17.37,17.37,0,0,0,0,16.85h-2.69A15.31,15.31,0,0,1,249.94,127.07Z"/><path class="cls-3" d="M255.56,130.76l1-2.2a7.45,7.45,0,0,0,4.16,1.31c1.73,0,2.43-.57,2.43-1.34,0-2.36-7.33-.74-7.33-5.42,0-2.15,1.73-3.93,5.31-3.93a8.44,8.44,0,0,1,4.38,1.12l-.9,2.21a7.08,7.08,0,0,0-3.49-1c-1.73,0-2.4.65-2.4,1.44,0,2.32,7.33.72,7.33,5.35,0,2.11-1.75,3.91-5.35,3.91A9,9,0,0,1,255.56,130.76Z"/><path class="cls-3" d="M267.24,125.7c0-3.75,2.92-6.52,6.9-6.52s6.89,2.75,6.89,6.52-2.93,6.52-6.89,6.52S267.24,129.44,267.24,125.7Zm10.84,0a3.95,3.95,0,1,0-3.94,4A3.85,3.85,0,0,0,278.08,125.7Z"/><path class="cls-3" d="M282.43,125.7c0-3.8,2.92-6.52,6.85-6.52a6.51,6.51,0,0,1,5.18,2.23l-1.87,1.73a4.07,4.07,0,0,0-3.17-1.48,4,4,0,0,0,0,8.07,4,4,0,0,0,3.17-1.49l1.87,1.73a6.93,6.93,0,0,1-12-4.27Z"/><path class="cls-3" d="M295.11,135.49a17.3,17.3,0,0,0,0-16.85h2.68a16.77,16.77,0,0,1,0,16.85Z"/></g></g><g id="SOC" class="cls-4"><g class="cls-4"><path class="cls-5" d="M51.82,106.24l2.2-4.88a16.47,16.47,0,0,0,9.24,2.92c3.84,0,5.4-1.28,5.4-3,0-5.24-16.28-1.64-16.28-12,0-4.76,3.84-8.72,11.8-8.72A18.78,18.78,0,0,1,73.9,83l-2,4.92a15.81,15.81,0,0,0-7.76-2.2c-3.84,0-5.32,1.44-5.32,3.2,0,5.16,16.28,1.6,16.28,11.88,0,4.68-3.88,8.68-11.88,8.68C58.78,109.48,54.3,108.16,51.82,106.24Z"/><path class="cls-5" d="M77.78,95c0-8.32,6.48-14.48,15.32-14.48S108.41,86.64,108.41,95s-6.51,14.48-15.31,14.48S77.78,103.32,77.78,95Zm24.08,0a8.76,8.76,0,1,0-8.76,9A8.54,8.54,0,0,0,101.86,95Z"/><path class="cls-5" d="M111.54,95c0-8.44,6.48-14.48,15.2-14.48,4.84,0,8.87,1.76,11.51,5l-4.16,3.84a9,9,0,0,0-7-3.28,9,9,0,0,0,0,17.92,8.89,8.89,0,0,0,7-3.32l4.16,3.84c-2.64,3.24-6.67,5-11.55,5C118,109.48,111.54,103.44,111.54,95Z"/></g></g></g></g></g></svg>