<svg xmlns="http://www.w3.org/2000/svg" xmlns:xlink="http://www.w3.org/1999/xlink" viewBox="0 0 383 190"><defs><style>.cls-1{fill:url(#Degradado_sin_nombre_7);}.cls-2{fill:url(#Degradado_sin_nombre_8);}.cls-3{fill:#fff;}.cls-4{isolation:isolate;}.cls-5{fill:#3a3f3d;}</style><linearGradient id="Degradado_sin_nombre_7" x1="-552.96" y1="384.49" x2="-553.62" y2="385.35" gradientTransform="matrix(275, 0, 0, -111, 152399.64, 42823.64)" gradientUnits="userSpaceOnUse"><stop offset="0" stop-color="#db9222"/><stop offset="1" stop-color="#f4e338"/></linearGradient><linearGradient id="Degradado_sin_nombre_8" x1="-554.07" y1="385.51" x2="-553.31" y2="384.86" gradientTransform="matrix(190, 0, 0, -190, 105298.23, 73281.02)" gradientUnits="userSpaceOnUse"><stop offset="0" stop-color="#f5e539"/><stop offset="1" stop-color="#db9222"/></linearGradient></defs><title>Recurso 5</title><g id="Capa_2" data-name="Capa 2"><g id="Capa_1-2" data-name="Capa 1"><g id="Grupo_245" data-name="Grupo 245"><path id="Rectángulo_55-2" data-name="Rectángulo 55-2" class="cls-1" d="M163.5,42h164A55.5,55.5,0,0,1,383,97.5h0A55.5,55.5,0,0,1,327.5,153h-164A55.5,55.5,0,0,1,108,97.5h0A55.5,55.5,0,0,1,163.5,42Z"/><circle id="Elipse_11-2" data-name="Elipse 11-2" class="cls-2" cx="95" cy="95" r="95"/><circle id="Elipse_12-4" data-name="Elipse 12-4" class="cls-3" cx="94.5" cy="94.5" r="76.5"/><g id="Mesa_de_Servicios" data-name="Mesa de Servicios" class="cls-4"><g class="cls-4"><path class="cls-3" d="M246,99l0-8.4-4.12,6.92H240.4l-4.1-6.74V99h-3V85h2.68l5.24,8.7,5.16-8.7H249l0,14Z"/><path class="cls-3" d="M262.62,94.5h-8.14a2.87,2.87,0,0,0,3.08,2.16,3.65,3.65,0,0,0,2.7-1l1.66,1.8a5.64,5.64,0,0,1-4.44,1.74c-3.72,0-6.14-2.34-6.14-5.54a5.48,5.48,0,0,1,5.74-5.54,5.33,5.33,0,0,1,5.6,5.58C262.68,93.9,262.64,94.24,262.62,94.5Zm-8.18-1.82h5.3a2.69,2.69,0,0,0-5.3,0Z"/><path class="cls-3" d="M263.72,98l1-2.24a7.36,7.36,0,0,0,3.74,1c1.44,0,2-.38,2-1,0-1.76-6.5,0-6.5-4.26,0-2,1.84-3.48,5-3.48a8.85,8.85,0,0,1,4.14.94l-1,2.22a6.18,6.18,0,0,0-3.1-.8c-1.4,0-2,.44-2,1,0,1.84,6.5.06,6.5,4.3,0,2-1.86,3.42-5.08,3.42A9.24,9.24,0,0,1,263.72,98Z"/><path class="cls-3" d="M284.9,92.86V99H282V97.66a3.53,3.53,0,0,1-3.28,1.5c-2.52,0-4-1.4-4-3.26s1.34-3.22,4.62-3.22h2.48c0-1.34-.8-2.12-2.48-2.12a5.17,5.17,0,0,0-3.1,1l-1.12-2.18a8.27,8.27,0,0,1,4.64-1.3C283,88.08,284.9,89.6,284.9,92.86Zm-3.12,2.74V94.5h-2.14c-1.46,0-1.92.54-1.92,1.26s.66,1.3,1.76,1.3A2.3,2.3,0,0,0,281.78,95.6Z"/><path class="cls-3" d="M304.34,84.16V99h-3V97.76a4.14,4.14,0,0,1-3.36,1.4,5.54,5.54,0,0,1,0-11.08,4.13,4.13,0,0,1,3.22,1.3V84.16Zm-3.06,9.46a2.76,2.76,0,1,0-2.74,3A2.73,2.73,0,0,0,301.28,93.62Z"/><path class="cls-3" d="M317.7,94.5h-8.14a2.87,2.87,0,0,0,3.08,2.16,3.65,3.65,0,0,0,2.7-1l1.66,1.8a5.64,5.64,0,0,1-4.44,1.74c-3.72,0-6.14-2.34-6.14-5.54a5.48,5.48,0,0,1,5.74-5.54,5.33,5.33,0,0,1,5.6,5.58C317.76,93.9,317.72,94.24,317.7,94.5Zm-8.18-1.82h5.3a2.69,2.69,0,0,0-5.3,0Z"/></g><g class="cls-4"><path class="cls-3" d="M228.64,121.62l1.1-2.44a8.23,8.23,0,0,0,4.62,1.46c1.92,0,2.7-.64,2.7-1.5,0-2.62-8.14-.82-8.14-6,0-2.38,1.92-4.36,5.9-4.36a9.39,9.39,0,0,1,4.86,1.24l-1,2.46a7.91,7.91,0,0,0-3.88-1.1c-1.92,0-2.66.72-2.66,1.6,0,2.58,8.14.8,8.14,5.94,0,2.34-1.94,4.34-5.94,4.34A10,10,0,0,1,228.64,121.62Z"/><path class="cls-3" d="M252.76,118.5h-8.14a2.87,2.87,0,0,0,3.08,2.16,3.65,3.65,0,0,0,2.7-1l1.66,1.8a5.64,5.64,0,0,1-4.44,1.74c-3.72,0-6.14-2.34-6.14-5.54a5.48,5.48,0,0,1,5.74-5.54,5.33,5.33,0,0,1,5.6,5.58C252.82,117.9,252.78,118.24,252.76,118.5Zm-8.18-1.82h5.3a2.69,2.69,0,0,0-5.3,0Z"/><path class="cls-3" d="M261.58,112.08V115c-.26,0-.46,0-.7,0-1.72,0-2.86.94-2.86,3V123H254.9V112.24h3v1.42A4.34,4.34,0,0,1,261.58,112.08Z"/><path class="cls-3" d="M274.5,112.24,270,123h-3.22l-4.52-10.76h3.22l3,7.32,3.08-7.32Z"/><path class="cls-3" d="M275.4,109a1.78,1.78,0,0,1,1.94-1.74,1.75,1.75,0,0,1,1.94,1.68,1.95,1.95,0,0,1-3.88.06Zm.38,3.24h3.12V123h-3.12Z"/><path class="cls-3" d="M281,117.62c0-3.24,2.5-5.54,6-5.54a4.94,4.94,0,0,1,4.82,2.74l-2.42,1.3a2.68,2.68,0,0,0-2.42-1.48,3,3,0,0,0,0,6,2.65,2.65,0,0,0,2.42-1.48l2.42,1.32a5,5,0,0,1-4.82,2.72C283.5,123.16,281,120.86,281,117.62Z"/><path class="cls-3" d="M293.24,109a1.78,1.78,0,0,1,1.94-1.74,1.75,1.75,0,0,1,1.94,1.68,1.95,1.95,0,0,1-3.88.06Zm.38,3.24h3.12V123h-3.12Z"/><path class="cls-3" d="M298.84,117.62c0-3.24,2.5-5.54,5.92-5.54s5.9,2.3,5.9,5.54-2.48,5.54-5.9,5.54S298.84,120.86,298.84,117.62Zm8.66,0a2.76,2.76,0,1,0-2.74,3A2.72,2.72,0,0,0,307.5,117.62Z"/><path class="cls-3" d="M311.7,122l1-2.24a7.36,7.36,0,0,0,3.74,1c1.44,0,2-.38,2-1,0-1.76-6.5,0-6.5-4.26,0-2,1.84-3.48,5-3.48a8.85,8.85,0,0,1,4.14.94l-1,2.22a6.18,6.18,0,0,0-3.1-.8c-1.4,0-2,.44-2,1,0,1.84,6.5.06,6.5,4.3,0,2-1.86,3.42-5.08,3.42A9.24,9.24,0,0,1,311.7,122Z"/></g></g><g id="Grupo_240" data-name="Grupo 240"><g id="Grupo_239" data-name="Grupo 239"><g id="Grupo_238" data-name="Grupo 238"><path id="Trazado_238" data-name="Trazado 238" class="cls-5" d="M117.88,112.65l-8-2.69-2.9-5.78a18.6,18.6,0,0,0,5-9.82l.36-2.17h3.08a5.08,5.08,0,0,0,5.09-5.08V76.43a25.43,25.43,0,0,0-50.86,0V87.11A5.1,5.1,0,0,0,73,91.9v2A5.1,5.1,0,0,0,78.11,99H79.6a18.6,18.6,0,0,0,2.84,4.4c.24.27.49.54.75.8L80.3,110l-8.06,2.68c-9.37,3.13-16.17,13-16.17,23.45a1.7,1.7,0,0,0,1.7,1.7h74.59a1.7,1.7,0,0,0,1.7-1.7C134.05,125.64,127.25,115.77,117.88,112.65Zm-.78-25.54a1.7,1.7,0,0,1-1.7,1.7h-2.58c.43-3.34.71-6.89.83-10.39a2.71,2.71,0,0,1,0-.29h3.44Zm-42.38,1.7a1.7,1.7,0,0,1-1.7-1.7v-9h3.44c0,.18,0,.36,0,.54v0h0c.12,3.4.4,6.86.82,10.12H74.72Zm3.39,6.78a1.7,1.7,0,0,1-1.7-1.7v-1.7H77.8l.36,2.17c.07.41.16.82.26,1.22ZM76.42,74.74H73.09a22,22,0,0,1,44,0h-3.33a17.19,17.19,0,0,0-17.13-17h-3a17.17,17.17,0,0,0-17.12,17ZM93.54,61.18h3A13.77,13.77,0,0,1,110.32,75c0,.54,0,1,0,1.43h0l-2.13-.3a27.25,27.25,0,0,1-15.31-7.65,1.7,1.7,0,0,0-1.2-.5,15.29,15.29,0,0,0-11.79,5.58A13.78,13.78,0,0,1,93.54,61.17ZM81.93,95.59c-.85-2.82-1.82-11.13-2-16.45l2.28-3A11.9,11.9,0,0,1,91,71.37a30.68,30.68,0,0,0,16.7,8.1l2.5.35c-.17,3.54-.51,7.1-1,10.36h0c-.15,1-.28,1.73-.59,3.62-.9,5.38-4.92,10.25-10.22,11.58a13.34,13.34,0,0,1-15-6.4h3.45a5.09,5.09,0,0,0,4.8,3.39h3.39a5.09,5.09,0,0,0,0-10.17h-3.4a5.09,5.09,0,0,0-4.8,3.39Zm9.6,13.23a17.16,17.16,0,0,0,6.31.14l-3,3.17Zm1,5.77-5.38,5.69a65.79,65.79,0,0,1-3.8-8.8l2-4Zm12-7.73,2.31,4.61a64.69,64.69,0,0,1-3.8,8.8l-5.75-5.75ZM90,97.28a1.7,1.7,0,0,1,1.7-1.7h3.39a1.7,1.7,0,0,1,.25,3.4H91.68a1.7,1.7,0,0,1-1.7-1.7ZM59.53,134.41c.67-8.4,6.26-16,13.78-18.54l7.14-2.38A67.48,67.48,0,0,0,85.28,124v0h0a65.79,65.79,0,0,0,4.64,7.08L92,134.41Zm35.53-1.51-2.3-3.69-.08-.12a64.5,64.5,0,0,1-3.82-5.71l6-6.39,6.37,6.37a66.54,66.54,0,0,1-3.84,5.73c-.08.1,0-.07-2.38,3.81Zm3.06,1.51,2.08-3.35a65.84,65.84,0,0,0,4.67-7.14l0,0h0a67.16,67.16,0,0,0,4.77-10.38l7.14,2.38c7.52,2.51,13.11,10.14,13.78,18.54Z"/></g></g></g></g></g></g></svg>