<svg xmlns="http://www.w3.org/2000/svg" xmlns:xlink="http://www.w3.org/1999/xlink" viewBox="0 0 383 190"><defs><style>.cls-1{fill:url(#Degradado_sin_nombre_4);}.cls-2{fill:url(#Degradado_sin_nombre_2);}.cls-3{fill:#fff;}.cls-4{isolation:isolate;}.cls-5{fill:#3a3f3d;}</style><linearGradient id="Degradado_sin_nombre_4" x1="-693.81" y1="764.47" x2="-694.48" y2="765.33" gradientTransform="matrix(275, 0, 0, -111, 191133.84, 84997.8)" gradientUnits="userSpaceOnUse"><stop offset="0" stop-color="#c86835"/><stop offset="1" stop-color="#f28a1d"/></linearGradient><linearGradient id="Degradado_sin_nombre_2" x1="-693.37" y1="765.49" x2="-692.62" y2="764.85" gradientTransform="matrix(190, 0, 0, -190, 131766, 145478.94)" gradientUnits="userSpaceOnUse"><stop offset="0" stop-color="#f28b1d"/><stop offset="1" stop-color="#c76736"/></linearGradient></defs><title>Recurso 4</title><g id="Capa_2" data-name="Capa 2"><g id="Capa_1-2" data-name="Capa 1"><path id="Rectángulo_55" data-name="Rectángulo 55" class="cls-1" d="M163.5,39h164A55.5,55.5,0,0,1,383,94.5h0A55.5,55.5,0,0,1,327.5,150h-164A55.5,55.5,0,0,1,108,94.5h0A55.5,55.5,0,0,1,163.5,39Z"/><circle id="Elipse_11" data-name="Elipse 11" class="cls-2" cx="95" cy="95" r="95"/><circle id="Elipse_12-2" data-name="Elipse 12-2" class="cls-3" cx="94.5" cy="94.5" r="76.5"/><g id="Ciberseguridad" class="cls-4"><g class="cls-4"><path class="cls-3" d="M201.1,94c0-4.22,3.24-7.24,7.6-7.24a7.23,7.23,0,0,1,5.76,2.48l-2.08,1.92a4.5,4.5,0,0,0-3.52-1.64,4.48,4.48,0,0,0,0,9,4.46,4.46,0,0,0,3.52-1.66l2.08,1.92a7.19,7.19,0,0,1-5.78,2.5C204.34,101.24,201.1,98.22,201.1,94Z"/><path class="cls-3" d="M216,87A1.78,1.78,0,0,1,218,85.26a1.75,1.75,0,0,1,1.94,1.68A1.95,1.95,0,0,1,216,87Zm.38,3.24h3.12V101h-3.12Z"/><path class="cls-3" d="M234.16,95.62a5.23,5.23,0,0,1-5.36,5.54,4.18,4.18,0,0,1-3.38-1.4V101h-3V86.16h3.12v5.22a4.18,4.18,0,0,1,3.24-1.3A5.23,5.23,0,0,1,234.16,95.62Zm-3.16,0a2.75,2.75,0,1,0-2.74,3A2.72,2.72,0,0,0,231,95.62Z"/><path class="cls-3" d="M246.72,96.5h-8.14a2.87,2.87,0,0,0,3.08,2.16,3.65,3.65,0,0,0,2.7-1l1.66,1.8a5.64,5.64,0,0,1-4.44,1.74c-3.72,0-6.14-2.34-6.14-5.54a5.48,5.48,0,0,1,5.74-5.54,5.33,5.33,0,0,1,5.6,5.58C246.78,95.9,246.74,96.24,246.72,96.5Zm-8.18-1.82h5.3a2.69,2.69,0,0,0-5.3,0Z"/><path class="cls-3" d="M255.54,90.08V93c-.26,0-.46,0-.7,0-1.72,0-2.86.94-2.86,3V101h-3.12V90.24h3v1.42A4.34,4.34,0,0,1,255.54,90.08Z"/><path class="cls-3" d="M256.4,100l1-2.24a7.36,7.36,0,0,0,3.74,1c1.44,0,2-.38,2-1,0-1.76-6.5,0-6.5-4.26,0-2,1.84-3.48,5-3.48a8.85,8.85,0,0,1,4.14.94l-1,2.22a6.18,6.18,0,0,0-3.1-.8c-1.4,0-2,.44-2,1,0,1.84,6.5.06,6.5,4.3,0,2-1.86,3.42-5.08,3.42A9.24,9.24,0,0,1,256.4,100Z"/><path class="cls-3" d="M278.54,96.5H270.4a2.87,2.87,0,0,0,3.08,2.16,3.65,3.65,0,0,0,2.7-1l1.66,1.8a5.64,5.64,0,0,1-4.44,1.74c-3.72,0-6.14-2.34-6.14-5.54A5.48,5.48,0,0,1,273,90.08a5.33,5.33,0,0,1,5.6,5.58C278.6,95.9,278.56,96.24,278.54,96.5Zm-8.18-1.82h5.3a2.69,2.69,0,0,0-5.3,0Z"/><path class="cls-3" d="M291.78,90.24v9c0,4-2.16,5.84-6,5.84a8.86,8.86,0,0,1-5.28-1.48l1.24-2.24a6.43,6.43,0,0,0,3.8,1.22c2.2,0,3.16-1,3.16-2.94v-.46a4.43,4.43,0,0,1-3.4,1.34,5.2,5.2,0,1,1,0-10.4,4.32,4.32,0,0,1,3.56,1.54V90.24Zm-3.08,5a2.84,2.84,0,1,0-2.82,2.64A2.61,2.61,0,0,0,288.7,95.28Z"/><path class="cls-3" d="M305.52,90.24V101h-3V99.72a4.35,4.35,0,0,1-3.34,1.44c-2.7,0-4.6-1.52-4.6-4.84V90.24h3.12v5.62c0,1.8.8,2.6,2.18,2.6s2.48-.92,2.48-2.9V90.24Z"/><path class="cls-3" d="M315.1,90.08V93c-.26,0-.46,0-.7,0-1.72,0-2.86.94-2.86,3V101h-3.12V90.24h3v1.42A4.34,4.34,0,0,1,315.1,90.08Z"/><path class="cls-3" d="M316.58,87a1.78,1.78,0,0,1,1.94-1.74,1.75,1.75,0,0,1,1.94,1.68,1.95,1.95,0,0,1-3.88.06Zm.38,3.24h3.12V101H317Z"/><path class="cls-3" d="M333.94,86.16V101h-3V99.76a4.14,4.14,0,0,1-3.36,1.4,5.54,5.54,0,0,1,0-11.08,4.13,4.13,0,0,1,3.22,1.3V86.16Zm-3.06,9.46a2.76,2.76,0,1,0-2.74,3A2.73,2.73,0,0,0,330.88,95.62Z"/><path class="cls-3" d="M346.34,94.86V101h-2.92V99.66a3.53,3.53,0,0,1-3.28,1.5c-2.52,0-4-1.4-4-3.26s1.34-3.22,4.62-3.22h2.48c0-1.34-.8-2.12-2.48-2.12a5.17,5.17,0,0,0-3.1,1l-1.12-2.18a8.27,8.27,0,0,1,4.64-1.3C344.44,90.08,346.34,91.6,346.34,94.86Zm-3.12,2.74V96.5h-2.14c-1.46,0-1.92.54-1.92,1.26s.66,1.3,1.76,1.3A2.3,2.3,0,0,0,343.22,97.6Z"/><path class="cls-3" d="M360.24,86.16V101h-3V99.76a4.14,4.14,0,0,1-3.36,1.4,5.54,5.54,0,0,1,0-11.08,4.13,4.13,0,0,1,3.22,1.3V86.16Zm-3.06,9.46a2.76,2.76,0,1,0-2.74,3A2.73,2.73,0,0,0,357.18,95.62Z"/></g></g><g id="Grupo_237" data-name="Grupo 237"><path id="Trazado_236" data-name="Trazado 236" class="cls-5" d="M134.32,56.63c-10.81,0-30.47-2.2-36.63-10.31a2.79,2.79,0,0,0-3.84-.9,2.71,2.71,0,0,0-.75.68c-7.26,8.11-27,10.53-38.58,10.53a2.88,2.88,0,0,0-2.88,2.89h0v46.28c0,20.85,24,33.58,42.17,37.54,2.35.51,43.4-9.89,43.4-37.54V59.53a2.9,2.9,0,0,0-2.88-2.9Zm-2.88,49.18c0,21.72-32.15,30.53-37,31.74-4.87-1.21-37-10-37-31.74V62.39C79.65,61.87,90.75,55.46,95.16,52c8.89,7.87,24.44,10.13,36.28,10.41v43.42Z"/><path id="Trazado_237" data-name="Trazado 237" class="cls-5" d="M80,82.57v8.78H77.13a2.88,2.88,0,0,0-2.88,2.89h0v23.14a2.9,2.9,0,0,0,2.88,2.9h34.58a2.9,2.9,0,0,0,2.89-2.9h0V94.24a2.89,2.89,0,0,0-2.89-2.89H85.79V82.57a8.64,8.64,0,0,1,17.27,0,2.88,2.88,0,1,0,5.76,0v0a14.4,14.4,0,0,0-28.8,0Zm28.81,31.92H80V97.13h28.82Z"/><ellipse id="Elipse_96" data-name="Elipse 96" class="cls-5" cx="94.42" cy="105.81" rx="2.88" ry="2.89"/></g></g></g></svg>