<svg xmlns="http://www.w3.org/2000/svg" xmlns:xlink="http://www.w3.org/1999/xlink" viewBox="0 0 383 190"><defs><style>.cls-1{fill:url(#Degradado_sin_nombre_3);}.cls-2{fill:url(#Degradado_sin_nombre_4);}.cls-3{fill:#fff;}.cls-4{isolation:isolate;}.cls-5{fill:#3a3f3d;}</style><linearGradient id="Degradado_sin_nombre_3" x1="-552.96" y1="616.49" x2="-553.62" y2="617.35" gradientTransform="matrix(275, 0, 0, -111, 152399.64, 68575.64)" gradientUnits="userSpaceOnUse"><stop offset="0" stop-color="#096862"/><stop offset="1" stop-color="#01977d"/></linearGradient><linearGradient id="Degradado_sin_nombre_4" x1="-554.07" y1="617.51" x2="-553.31" y2="616.86" gradientTransform="matrix(190, 0, 0, -190, 105298.23, 117361.02)" gradientUnits="userSpaceOnUse"><stop offset="0" stop-color="#009d81"/><stop offset="1" stop-color="#096862"/></linearGradient></defs><title>Recurso 3</title><g id="Capa_2" data-name="Capa 2"><g id="Capa_1-2" data-name="Capa 1"><g id="Grupo_349" data-name="Grupo 349"><path id="Rectángulo_16-2" data-name="Rectángulo 16-2" class="cls-1" d="M163.5,42h164A55.5,55.5,0,0,1,383,97.5h0A55.5,55.5,0,0,1,327.5,153h-164A55.5,55.5,0,0,1,108,97.5h0A55.5,55.5,0,0,1,163.5,42Z"/><circle id="Elipse_3-2" data-name="Elipse 3-2" class="cls-2" cx="95" cy="95" r="95"/><circle id="Elipse_4-4" data-name="Elipse 4-4" class="cls-3" cx="94.5" cy="94.5" r="76.5"/><g id="Centro_de_Operaciones_de_Redes_NOC_" data-name="Centro de Operaciones de Redes NOC " class="cls-4"><g class="cls-4"><path class="cls-3" d="M229.32,74.7c0-3.8,2.91-6.52,6.84-6.52a6.48,6.48,0,0,1,5.18,2.23l-1.87,1.73a4.07,4.07,0,0,0-3.17-1.48,4,4,0,0,0,0,8.07,4,4,0,0,0,3.17-1.49L241.34,79a6.92,6.92,0,0,1-12-4.27Z"/><path class="cls-3" d="M252.2,77h-7.33a2.57,2.57,0,0,0,2.77,1.94,3.26,3.26,0,0,0,2.43-.93l1.5,1.62a5.09,5.09,0,0,1-4,1.56c-3.35,0-5.53-2.1-5.53-5a4.94,4.94,0,0,1,5.17-5,4.8,4.8,0,0,1,5,5C252.25,76.41,252.21,76.71,252.2,77Zm-7.37-1.64h4.77a2.42,2.42,0,0,0-4.77,0Z"/><path class="cls-3" d="M264,75.45V81h-2.81V75.89c0-1.57-.72-2.29-2-2.29s-2.32.83-2.32,2.61V81h-2.81V71.31h2.68v1.14A4.24,4.24,0,0,1,260,71.17C262.29,71.17,264,72.5,264,75.45Z"/><path class="cls-3" d="M272.81,80.53a4,4,0,0,1-2.29.61c-2.29,0-3.62-1.17-3.62-3.47v-4h-1.49V71.53h1.49V69.17h2.81v2.36h2.41v2.16h-2.41v3.94a1.13,1.13,0,0,0,1.21,1.28,1.93,1.93,0,0,0,1.13-.36Z"/><path class="cls-3" d="M280.4,71.17v2.59c-.23,0-.41,0-.63,0a2.37,2.37,0,0,0-2.57,2.7V81h-2.81V71.31h2.68v1.28A3.94,3.94,0,0,1,280.4,71.17Z"/><path class="cls-3" d="M281.26,76.16a5.33,5.33,0,1,1,5.33,5C283.51,81.14,281.26,79.07,281.26,76.16Zm7.8,0a2.48,2.48,0,1,0-2.47,2.68A2.45,2.45,0,0,0,289.06,76.16Z"/><path class="cls-3" d="M308.73,67.64V81h-2.68V79.88a3.71,3.71,0,0,1-3,1.26,5,5,0,0,1,0-10,3.74,3.74,0,0,1,2.9,1.17v-4.7ZM306,76.16a2.48,2.48,0,1,0-2.47,2.68A2.46,2.46,0,0,0,306,76.16Z"/><path class="cls-3" d="M320.76,77h-7.33a2.58,2.58,0,0,0,2.77,1.94,3.26,3.26,0,0,0,2.43-.93l1.5,1.62a5.09,5.09,0,0,1-4,1.56c-3.35,0-5.53-2.1-5.53-5a4.94,4.94,0,0,1,5.17-5,4.79,4.79,0,0,1,5,5C320.81,76.41,320.78,76.71,320.76,77Zm-7.36-1.64h4.77a2.31,2.31,0,0,0-2.38-2A2.29,2.29,0,0,0,313.4,75.31Z"/></g><g class="cls-4"><path class="cls-3" d="M201.69,96.7c0-3.75,2.91-6.52,6.89-6.52s6.9,2.75,6.9,6.52-2.94,6.52-6.9,6.52S201.69,100.44,201.69,96.7Zm10.84,0a3.95,3.95,0,1,0-3.95,4A3.85,3.85,0,0,0,212.53,96.7Z"/><path class="cls-3" d="M228,98.16a4.7,4.7,0,0,1-4.82,5,3.74,3.74,0,0,1-2.92-1.17v4.52h-2.81V93.31h2.68v1.12a3.77,3.77,0,0,1,3-1.26A4.7,4.7,0,0,1,228,98.16Zm-2.84,0a2.47,2.47,0,1,0-2.47,2.68A2.45,2.45,0,0,0,225.18,98.16Z"/><path class="cls-3" d="M239.33,99H232a2.57,2.57,0,0,0,2.77,1.94,3.26,3.26,0,0,0,2.43-.93l1.5,1.62a5.09,5.09,0,0,1-4,1.56c-3.35,0-5.53-2.1-5.53-5a4.94,4.94,0,0,1,5.17-5,4.8,4.8,0,0,1,5,5C239.38,98.41,239.35,98.71,239.33,99ZM232,97.31h4.77a2.42,2.42,0,0,0-4.77,0Z"/><path class="cls-3" d="M247.26,93.17v2.59c-.23,0-.41,0-.63,0a2.38,2.38,0,0,0-2.57,2.7V103h-2.81V93.31h2.68v1.28A3.94,3.94,0,0,1,247.26,93.17Z"/><path class="cls-3" d="M257.45,97.47V103h-2.63v-1.21a3.16,3.16,0,0,1-2.95,1.35c-2.27,0-3.62-1.26-3.62-2.93s1.21-2.9,4.16-2.9h2.23c0-1.21-.72-1.91-2.23-1.91a4.63,4.63,0,0,0-2.79.9l-1-2a7.42,7.42,0,0,1,4.18-1.17C255.74,93.17,257.45,94.54,257.45,97.47Zm-2.81,2.47V99h-1.92c-1.32,0-1.73.48-1.73,1.13s.59,1.17,1.58,1.17A2.06,2.06,0,0,0,254.64,99.94Z"/><path class="cls-3" d="M259.38,98.16c0-2.92,2.25-5,5.4-5a4.46,4.46,0,0,1,4.34,2.47l-2.18,1.17a2.42,2.42,0,0,0-2.18-1.34,2.69,2.69,0,0,0,0,5.37,2.39,2.39,0,0,0,2.18-1.33l2.18,1.19a4.51,4.51,0,0,1-4.34,2.44C261.63,103.14,259.38,101.07,259.38,98.16Z"/><path class="cls-3" d="M270.39,90.4a1.6,1.6,0,0,1,1.75-1.57,1.57,1.57,0,0,1,1.74,1.51,1.75,1.75,0,0,1-3.49.06Zm.34,2.91h2.81V103h-2.81Z"/><path class="cls-3" d="M275.43,98.16a5.33,5.33,0,1,1,5.33,5C277.68,103.14,275.43,101.07,275.43,98.16Zm7.8,0a2.48,2.48,0,1,0-2.47,2.68A2.45,2.45,0,0,0,283.23,98.16Z"/><path class="cls-3" d="M297.84,97.45V103H295V97.89c0-1.57-.72-2.29-2-2.29s-2.32.83-2.32,2.61V103h-2.81V93.31h2.68v1.14a4.26,4.26,0,0,1,3.21-1.28C296.12,93.17,297.84,94.5,297.84,97.45Z"/><path class="cls-3" d="M309.92,99h-7.33a2.58,2.58,0,0,0,2.78,1.94,3.29,3.29,0,0,0,2.43-.93l1.49,1.62a5.09,5.09,0,0,1-4,1.56c-3.34,0-5.52-2.1-5.52-5a4.93,4.93,0,0,1,5.17-5,4.8,4.8,0,0,1,5,5C310,98.41,309.94,98.71,309.92,99Zm-7.36-1.64h4.77a2.42,2.42,0,0,0-4.77,0Z"/><path class="cls-3" d="M310.91,102.1l.94-2a6.57,6.57,0,0,0,3.36.94c1.3,0,1.78-.34,1.78-.88,0-1.59-5.85,0-5.85-3.84,0-1.83,1.66-3.13,4.49-3.13a7.92,7.92,0,0,1,3.72.85l-.93,2a5.58,5.58,0,0,0-2.79-.72c-1.26,0-1.8.4-1.8.9,0,1.66,5.85.06,5.85,3.88,0,1.8-1.68,3.07-4.58,3.07A8.36,8.36,0,0,1,310.91,102.1Z"/><path class="cls-3" d="M336.36,89.64V103h-2.68v-1.12a3.71,3.71,0,0,1-3,1.26,5,5,0,0,1,0-10,3.74,3.74,0,0,1,2.9,1.17v-4.7Zm-2.75,8.52a2.48,2.48,0,1,0-2.47,2.68A2.46,2.46,0,0,0,333.61,98.16Z"/><path class="cls-3" d="M348.39,99h-7.33a2.58,2.58,0,0,0,2.77,1.94,3.26,3.26,0,0,0,2.43-.93l1.5,1.62a5.09,5.09,0,0,1-4,1.56c-3.35,0-5.53-2.1-5.53-5a4.94,4.94,0,0,1,5.17-5,4.8,4.8,0,0,1,5,5C348.44,98.41,348.41,98.71,348.39,99ZM341,97.31h4.77a2.42,2.42,0,0,0-4.77,0Z"/></g><g class="cls-4"><path class="cls-3" d="M225.1,125l-2.43-3.51H220V125h-2.91V112.4h5.45c3.37,0,5.48,1.74,5.48,4.57a4.1,4.1,0,0,1-2.6,4l2.83,4Zm-2.74-10.23H220v4.4h2.38c1.78,0,2.68-.83,2.68-2.2S224.14,114.77,222.36,114.77Z"/><path class="cls-3" d="M239.53,121h-7.32a2.57,2.57,0,0,0,2.77,1.94,3.29,3.29,0,0,0,2.43-.93l1.49,1.62a5.08,5.08,0,0,1-4,1.56c-3.35,0-5.53-2.1-5.53-5a4.93,4.93,0,0,1,5.17-5,4.8,4.8,0,0,1,5,5C239.59,120.41,239.55,120.71,239.53,121Zm-7.36-1.64h4.77a2.42,2.42,0,0,0-4.77,0Z"/><path class="cls-3" d="M251.32,111.64V125h-2.68v-1.12a3.71,3.71,0,0,1-3,1.26,5,5,0,0,1,0-10,3.74,3.74,0,0,1,2.9,1.17v-4.7Zm-2.75,8.52a2.48,2.48,0,1,0-2.47,2.68A2.46,2.46,0,0,0,248.57,120.16Z"/><path class="cls-3" d="M263.35,121H256a2.58,2.58,0,0,0,2.77,1.94,3.26,3.26,0,0,0,2.43-.93l1.5,1.62a5.09,5.09,0,0,1-4,1.56c-3.35,0-5.53-2.1-5.53-5a4.94,4.94,0,0,1,5.17-5,4.8,4.8,0,0,1,5,5C263.4,120.41,263.37,120.71,263.35,121ZM256,119.31h4.77a2.42,2.42,0,0,0-4.77,0Z"/><path class="cls-3" d="M264.33,124.1l.94-2a6.63,6.63,0,0,0,3.37.94c1.29,0,1.78-.34,1.78-.88,0-1.59-5.85,0-5.85-3.84,0-1.83,1.66-3.13,4.48-3.13a8,8,0,0,1,3.73.85l-.94,2a5.56,5.56,0,0,0-2.79-.72c-1.26,0-1.8.4-1.8.9,0,1.66,5.85.06,5.85,3.88,0,1.8-1.67,3.07-4.57,3.07A8.37,8.37,0,0,1,264.33,124.1Z"/><path class="cls-3" d="M279.94,120.07a15.22,15.22,0,0,1,2.25-8.43h2.68a17.44,17.44,0,0,0,0,16.85h-2.68A15.31,15.31,0,0,1,279.94,120.07Z"/><path class="cls-3" d="M298.11,112.4V125h-2.4l-6.28-7.65V125h-2.88V112.4H289l6.27,7.65V112.4Z"/><path class="cls-3" d="M300.3,118.7c0-3.75,2.92-6.52,6.89-6.52s6.9,2.75,6.9,6.52-2.93,6.52-6.9,6.52S300.3,122.44,300.3,118.7Zm10.84,0a3.95,3.95,0,1,0-3.95,4A3.85,3.85,0,0,0,311.14,118.7Z"/><path class="cls-3" d="M315.49,118.7c0-3.8,2.92-6.52,6.84-6.52a6.52,6.52,0,0,1,5.19,2.23l-1.87,1.73a4.07,4.07,0,0,0-3.17-1.48,4,4,0,1,0,0,8.07,4,4,0,0,0,3.17-1.49l1.87,1.73a6.93,6.93,0,0,1-12-4.27Z"/><path class="cls-3" d="M328.16,128.49a17.23,17.23,0,0,0,0-16.85h2.68a16.77,16.77,0,0,1,0,16.85Z"/></g></g><g id="NOC" class="cls-4"><g class="cls-4"><path class="cls-5" d="M76.3,81v28H71L57,92v17h-6.4V81H56L69.9,98V81Z"/><path class="cls-5" d="M81.18,95c0-8.32,6.48-14.48,15.32-14.48S111.81,86.64,111.81,95s-6.51,14.48-15.31,14.48S81.18,103.32,81.18,95Zm24.08,0a8.76,8.76,0,1,0-8.76,9A8.54,8.54,0,0,0,105.26,95Z"/><path class="cls-5" d="M114.94,95c0-8.44,6.48-14.48,15.2-14.48,4.84,0,8.88,1.76,11.51,5l-4.15,3.84a9,9,0,0,0-7-3.28,9,9,0,0,0,0,17.92,8.92,8.92,0,0,0,7-3.32l4.15,3.84c-2.63,3.24-6.67,5-11.55,5C121.42,109.48,114.94,103.44,114.94,95Z"/></g></g></g></g></g></svg>