<svg xmlns="http://www.w3.org/2000/svg" xmlns:xlink="http://www.w3.org/1999/xlink" viewBox="0 0 383 190"><defs><style>.cls-1{fill:url(#Degradado_sin_nombre_6);}.cls-2{fill:url(#Degradado_sin_nombre_4);}.cls-3{fill:#fff;}.cls-4{isolation:isolate;}.cls-5{fill:#3e413f;}</style><linearGradient id="Degradado_sin_nombre_6" x1="-272.02" y1="739.55" x2="-272.69" y2="740.41" gradientTransform="matrix(275, 0, 0, -111, 75141.83, 82232.06)" gradientUnits="userSpaceOnUse"><stop offset="0" stop-color="#b1683b"/><stop offset="1" stop-color="#e08a28"/></linearGradient><linearGradient id="Degradado_sin_nombre_4" x1="-272.1" y1="740.8" x2="-271.34" y2="740.15" gradientTransform="matrix(190, 0, 0, -190, 51724.03, 140786.42)" gradientUnits="userSpaceOnUse"><stop offset="0" stop-color="#e18b28"/><stop offset="1" stop-color="#af673c"/></linearGradient></defs><title>Recurso 1</title><g id="Capa_2" data-name="Capa 2"><g id="Capa_1-2" data-name="Capa 1"><g id="Grupo_241" data-name="Grupo 241"><path id="Rectángulo_55" data-name="Rectángulo 55" class="cls-1" d="M163.5,39h164A55.5,55.5,0,0,1,383,94.5h0A55.5,55.5,0,0,1,327.5,150h-164A55.5,55.5,0,0,1,108,94.5h0A55.5,55.5,0,0,1,163.5,39Z"/><circle id="Elipse_11" data-name="Elipse 11" class="cls-2" cx="95" cy="95" r="95"/><circle id="Elipse_12-2" data-name="Elipse 12-2" class="cls-3" cx="94.5" cy="94.5" r="76.5"/><g id="Seguridad" class="cls-4"><g class="cls-4"><path class="cls-3" d="M227.65,99.62l1.1-2.44a8.23,8.23,0,0,0,4.62,1.46c1.92,0,2.7-.64,2.7-1.5,0-2.62-8.14-.82-8.14-6,0-2.38,1.92-4.36,5.9-4.36A9.39,9.39,0,0,1,238.69,88l-1,2.46a7.91,7.91,0,0,0-3.88-1.1c-1.92,0-2.66.72-2.66,1.6,0,2.58,8.14.8,8.14,5.94,0,2.34-1.94,4.34-5.94,4.34A10,10,0,0,1,227.65,99.62Z"/><path class="cls-3" d="M251.77,96.5h-8.14a2.87,2.87,0,0,0,3.08,2.16,3.65,3.65,0,0,0,2.7-1l1.66,1.8a5.64,5.64,0,0,1-4.44,1.74c-3.72,0-6.14-2.34-6.14-5.54a5.48,5.48,0,0,1,5.74-5.54,5.33,5.33,0,0,1,5.6,5.58C251.83,95.9,251.79,96.24,251.77,96.5Zm-8.18-1.82h5.3a2.69,2.69,0,0,0-5.3,0Z"/><path class="cls-3" d="M265,90.24v9c0,4-2.16,5.84-6,5.84a8.86,8.86,0,0,1-5.28-1.48l1.24-2.24a6.43,6.43,0,0,0,3.8,1.22c2.2,0,3.16-1,3.16-2.94v-.46a4.43,4.43,0,0,1-3.4,1.34,5.2,5.2,0,1,1,0-10.4,4.32,4.32,0,0,1,3.56,1.54V90.24Zm-3.08,5a2.84,2.84,0,1,0-2.82,2.64A2.61,2.61,0,0,0,261.93,95.28Z"/><path class="cls-3" d="M278.75,90.24V101h-3V99.72a4.35,4.35,0,0,1-3.34,1.44c-2.7,0-4.6-1.52-4.6-4.84V90.24H271v5.62c0,1.8.8,2.6,2.18,2.6s2.48-.92,2.48-2.9V90.24Z"/><path class="cls-3" d="M288.33,90.08V93c-.26,0-.46,0-.7,0-1.72,0-2.86.94-2.86,3V101h-3.12V90.24h3v1.42A4.34,4.34,0,0,1,288.33,90.08Z"/><path class="cls-3" d="M289.81,87a1.78,1.78,0,0,1,1.94-1.74,1.75,1.75,0,0,1,1.94,1.68,1.95,1.95,0,0,1-3.88.06Zm.38,3.24h3.12V101h-3.12Z"/><path class="cls-3" d="M307.17,86.16V101h-3V99.76a4.14,4.14,0,0,1-3.36,1.4,5.54,5.54,0,0,1,0-11.08,4.13,4.13,0,0,1,3.22,1.3V86.16Zm-3.06,9.46a2.76,2.76,0,1,0-2.74,3A2.73,2.73,0,0,0,304.11,95.62Z"/><path class="cls-3" d="M319.57,94.86V101h-2.92V99.66a3.53,3.53,0,0,1-3.28,1.5c-2.52,0-4-1.4-4-3.26s1.34-3.22,4.62-3.22h2.48c0-1.34-.8-2.12-2.48-2.12a5.17,5.17,0,0,0-3.1,1l-1.12-2.18a8.27,8.27,0,0,1,4.64-1.3C317.67,90.08,319.57,91.6,319.57,94.86Zm-3.12,2.74V96.5h-2.14c-1.46,0-1.92.54-1.92,1.26s.66,1.3,1.76,1.3A2.3,2.3,0,0,0,316.45,97.6Z"/><path class="cls-3" d="M333.47,86.16V101h-3V99.76a4.14,4.14,0,0,1-3.36,1.4,5.54,5.54,0,0,1,0-11.08,4.13,4.13,0,0,1,3.22,1.3V86.16Zm-3.06,9.46a2.76,2.76,0,1,0-2.74,3A2.73,2.73,0,0,0,330.41,95.62Z"/></g></g><g id="Grupo_237" data-name="Grupo 237"><path id="Trazado_236" data-name="Trazado 236" class="cls-5" d="M134.32,56.63c-10.81,0-30.47-2.2-36.63-10.31a2.79,2.79,0,0,0-3.84-.9,2.71,2.71,0,0,0-.75.68c-7.26,8.11-27,10.53-38.58,10.53a2.88,2.88,0,0,0-2.88,2.89h0v46.28c0,20.85,24,33.58,42.17,37.54,2.35.51,43.4-9.89,43.4-37.54V59.53a2.9,2.9,0,0,0-2.88-2.9Zm-2.88,49.18c0,21.72-32.15,30.53-37,31.74-4.87-1.21-37-10-37-31.74V62.38c22.25-.51,33.35-6.92,37.76-10.4,8.89,7.87,24.44,10.13,36.28,10.4v43.43Z"/><path id="Trazado_237" data-name="Trazado 237" class="cls-5" d="M80,82.57v8.78H77.13a2.88,2.88,0,0,0-2.88,2.89h0v23.14a2.9,2.9,0,0,0,2.88,2.9h34.58a2.9,2.9,0,0,0,2.89-2.9h0V94.24a2.89,2.89,0,0,0-2.89-2.89H85.79V82.57a8.64,8.64,0,0,1,17.27,0,2.88,2.88,0,1,0,5.76,0v0a14.4,14.4,0,0,0-28.8,0Zm28.81,31.92H80V97.13h28.82Z"/><ellipse id="Elipse_96" data-name="Elipse 96" class="cls-5" cx="94.42" cy="105.81" rx="2.88" ry="2.89"/></g></g></g></g></svg>