<svg xmlns="http://www.w3.org/2000/svg" width="34.01" height="39.438" viewBox="0 0 34.01 39.438">
  <g id="Grupo_367" data-name="Grupo 367" transform="translate(-284.525 368.5)">
    <path id="Trazado_656" data-name="Trazado 656" d="M541.171-368c.215.059.434.1.643.179a3.616,3.616,0,0,1,2.613,3.286,23.232,23.232,0,0,1-.027,4.046,3.679,3.679,0,0,1-3.922,3.3,3.724,3.724,0,0,1-3.62-3.486,26,26,0,0,1,.031-4.009,3.632,3.632,0,0,1,3.06-3.252,1.072,1.072,0,0,0,.17-.066Zm-2.132,5.4c0,.525-.008,1.05,0,1.575a1.6,1.6,0,0,0,1.618,1.652,1.588,1.588,0,0,0,1.592-1.64q.024-1.575,0-3.151a1.577,1.577,0,0,0-1.6-1.629,1.587,1.587,0,0,0-1.612,1.655C539.031-363.63,539.039-363.117,539.039-362.6Z" transform="translate(-226.506)" fill="#083e63" stroke="#083e63" stroke-width="1"/>
    <path id="Trazado_657" data-name="Trazado 657" d="M439.151-368a9.033,9.033,0,0,1,1.418.546,3.664,3.664,0,0,1,1.862,3.15,1.107,1.107,0,0,1-.97,1.184,1.1,1.1,0,0,1-1.222-.961c-.031-.184-.027-.377-.076-.556a1.587,1.587,0,0,0-1.642-1.158,1.509,1.509,0,0,0-1.482,1.382c-.052,1.21-.055,2.427,0,3.637a1.529,1.529,0,0,0,1.622,1.4,1.09,1.09,0,0,1,1,1.511,1.064,1.064,0,0,1-1.029.681,3.741,3.741,0,0,1-3.8-3.5,27.393,27.393,0,0,1,.049-4.084,3.612,3.612,0,0,1,3.053-3.172A1.1,1.1,0,0,0,438.1-368Z" transform="translate(-134.696)" fill="#083e63" stroke="#083e63" stroke-width="1"/>
    <path id="Trazado_658" data-name="Trazado 658" d="M363.478-368a1.435,1.435,0,0,1,.81,1.492c-.022,2.687-.008,5.375-.01,8.062a1.139,1.139,0,0,1-.94,1.254,1.116,1.116,0,0,1-1.273-1.181c-.007-1.787,0-3.575,0-5.362v-.394l-.085-.035c-.249.256-.493.518-.748.767a1.116,1.116,0,0,1-1.636.063,1.108,1.108,0,0,1,.089-1.633c.863-.869,1.727-1.738,2.6-2.6a5.057,5.057,0,0,1,.593-.437Z" transform="translate(-66.756)" fill="#083e63" stroke="#083e63" stroke-width="1"/>
    <path id="Trazado_659" data-name="Trazado 659" d="M368.328-222.269a17.322,17.322,0,0,1-.168,2.46,3.734,3.734,0,0,1-4.085,2.928,3.719,3.719,0,0,1-3.4-3.465,26.791,26.791,0,0,1,.043-4.117,3.7,3.7,0,0,1,3.735-3.223,3.739,3.739,0,0,1,3.754,3.209,18.211,18.211,0,0,1,.015,2.206Zm-5.473,0c0,.525-.009,1.05,0,1.575a1.586,1.586,0,0,0,1.594,1.635,1.576,1.576,0,0,0,1.614-1.614q.03-1.593,0-3.188a1.567,1.567,0,0,0-1.613-1.611,1.574,1.574,0,0,0-1.6,1.629C362.846-223.325,362.855-222.8,362.855-222.274Z" transform="translate(-67.963 -126.267)" fill="#083e63" stroke="#083e63" stroke-width="1"/>
    <path id="Trazado_660" data-name="Trazado 660" d="M544.6-222.286a17.569,17.569,0,0,1-.161,2.461,3.742,3.742,0,0,1-4.111,2.942,3.735,3.735,0,0,1-3.387-3.521,28.773,28.773,0,0,1,.054-4.08,3.7,3.7,0,0,1,3.754-3.2,3.74,3.74,0,0,1,3.731,3.192,18.387,18.387,0,0,1,.014,2.206Zm-2.257.034c0-.525.009-1.05,0-1.575a1.579,1.579,0,0,0-1.613-1.651,1.576,1.576,0,0,0-1.6,1.663q-.016,1.538,0,3.075a1.587,1.587,0,0,0,1.593,1.674,1.594,1.594,0,0,0,1.62-1.687C542.35-221.251,542.343-221.752,542.343-222.252Z" transform="translate(-226.595 -126.267)" fill="#083e63" stroke="#083e63" stroke-width="1"/>
    <path id="Trazado_661" data-name="Trazado 661" d="M309.524-86.662c0-.613-.025-1.227,0-1.839a3.759,3.759,0,0,1,3.863-3.554,3.756,3.756,0,0,1,3.731,3.654q.039,1.763,0,3.528a3.768,3.768,0,0,1-3.755,3.634,3.773,3.773,0,0,1-3.837-3.547C309.5-85.41,309.524-86.037,309.524-86.662Zm5.413.047c0-.538.007-1.076,0-1.613a1.6,1.6,0,0,0-1.606-1.633,1.6,1.6,0,0,0-1.615,1.656q-.009,1.557,0,3.114a1.586,1.586,0,0,0,1.582,1.649,1.6,1.6,0,0,0,1.639-1.635C314.944-85.589,314.937-86.1,314.937-86.615Z" transform="translate(-21.975 -248.323)" fill="#083e63" stroke="#083e63" stroke-width="1"/>
    <path id="Trazado_662" data-name="Trazado 662" d="M463.244-223.863c-.249.255-.494.515-.748.764a1.107,1.107,0,0,1-1.635.07,1.105,1.105,0,0,1,.085-1.634c.872-.879,1.752-1.751,2.626-2.629a1.1,1.1,0,0,1,1.293-.313,1.107,1.107,0,0,1,.679,1.112q0,4.2,0,8.407a1.1,1.1,0,0,1-1.112,1.2,1.108,1.108,0,0,1-1.1-1.213c-.005-1.777,0-3.553,0-5.33v-.4Z" transform="translate(-157.882 -126.255)" fill="#083e63" stroke="#083e63" stroke-width="1"/>
    <path id="Trazado_663" data-name="Trazado 663" d="M287.788-223.863c-.248.258-.489.523-.744.773a1.1,1.1,0,0,1-1.634.054,1.093,1.093,0,0,1,.075-1.605c.88-.888,1.769-1.768,2.651-2.655a1.088,1.088,0,0,1,1.259-.317,1.111,1.111,0,0,1,.706,1.131q0,4.2,0,8.4a1.1,1.1,0,0,1-1.118,1.194,1.107,1.107,0,0,1-1.094-1.219c-.006-1.763,0-3.527,0-5.291v-.41Z" transform="translate(0 -126.255)" fill="#083e63" stroke="#083e63" stroke-width="1"/>
    <path id="Trazado_664" data-name="Trazado 664" d="M415.335-88.294c-.245.264-.481.537-.737.789a1.118,1.118,0,0,1-1.608.058,1.093,1.093,0,0,1,.043-1.605c.887-.9,1.783-1.785,2.674-2.679a1.09,1.09,0,0,1,1.262-.3,1.105,1.105,0,0,1,.7,1.134c0,1.9,0,3.8,0,5.7a1.11,1.11,0,0,1-1.109,1.2,1.11,1.11,0,0,1-1.1-1.21c-.009-.874,0-1.749,0-2.624q0-.2,0-.4Z" transform="translate(-114.795 -248.261)" fill="#083e63" stroke="#083e63" stroke-width="1"/>
  </g>
</svg>
