<svg xmlns="http://www.w3.org/2000/svg" width="48.565" height="49.316" viewBox="0 0 48.565 49.316">
  <g id="key" transform="translate(-3.478 0.5)">
    <g id="Grupo_287" data-name="Grupo 287" transform="translate(3.978)">
      <g id="Grupo_286" data-name="Grupo 286">
        <path id="Trazado_287" data-name="Trazado 287" d="M35.213,0A16.341,16.341,0,0,0,19.941,22.125L4.327,37.74a1.19,1.19,0,0,0-.349.841v8.544a1.19,1.19,0,0,0,1.19,1.19h7.041a1.19,1.19,0,0,0,.841-.348L15.423,45.6a1.19,1.19,0,0,0,.349-.842V41.843h2.91a1.19,1.19,0,0,0,1.19-1.19V39.487h1.166a1.19,1.19,0,0,0,1.19-1.19V35.736H24.79a1.19,1.19,0,0,0,.841-.349L29.417,31.6A16.332,16.332,0,1,0,35.213,0Zm0,30.28a13.844,13.844,0,0,1-5.6-1.17,1.19,1.19,0,0,0-1.309.238l-.011.01-4,4H21.039a1.19,1.19,0,0,0-1.19,1.19v2.561H18.683a1.19,1.19,0,0,0-1.19,1.19v1.166h-2.91a1.19,1.19,0,0,0-1.19,1.19v3.61l-1.675,1.673H6.358V44.254L20.9,29.709a1.071,1.071,0,0,0-1.515-1.515L6.358,41.225v-2.15L22.183,23.249l.01-.01a1.19,1.19,0,0,0,.239-1.309A13.953,13.953,0,1,1,35.213,30.28Z" transform="translate(-3.978)" fill="#648b50" stroke="#648b50" stroke-width="1"/>
      </g>
    </g>
    <g id="Grupo_289" data-name="Grupo 289" transform="translate(35.726 6.902)">
      <g id="Grupo_288" data-name="Grupo 288">
        <path id="Trazado_288" data-name="Trazado 288" d="M344.859,73.144a4.458,4.458,0,1,0,4.458,4.458A4.463,4.463,0,0,0,344.859,73.144Zm0,6.535a2.078,2.078,0,1,1,2.078-2.078A2.08,2.08,0,0,1,344.859,79.679Z" transform="translate(-340.401 -73.144)" fill="#648b50" stroke="#648b50" stroke-width="1"/>
      </g>
    </g>
  </g>
</svg>
