<svg xmlns="http://www.w3.org/2000/svg" width="55.154" height="59.39" viewBox="0 0 55.154 59.39">
  <g id="vault" transform="translate(-14.577 -10.75)">
    <path id="Trazado_289" data-name="Trazado 289" d="M66.124,11.25H18.184a3.111,3.111,0,0,0-3.107,3.107V62.3A3.11,3.11,0,0,0,18.15,65.4v3.27a.969.969,0,0,0,.969.969h6.59a.969.969,0,0,0,.969-.969V65.406H57.63v3.265a.969.969,0,0,0,.969.969h6.59a.969.969,0,0,0,.969-.969V65.4A3.11,3.11,0,0,0,69.231,62.3V14.357a3.111,3.111,0,0,0-3.107-3.107ZM24.74,67.7H20.087v-2.3H24.74Zm34.827,0v-2.3H64.22v2.3ZM67.294,62.3a1.171,1.171,0,0,1-1.17,1.17H18.184a1.171,1.171,0,0,1-1.17-1.17V14.357a1.171,1.171,0,0,1,1.17-1.17h47.94a1.171,1.171,0,0,1,1.17,1.17Z" transform="translate(0 0)" fill="#648b50" stroke="#648b50" stroke-width="1"/>
    <path id="Trazado_290" data-name="Trazado 290" d="M62.889,42.379a.94.94,0,0,0-.067-.082,1.029,1.029,0,0,0-.081-.066,11.774,11.774,0,0,0-16.536,0,1.03,1.03,0,0,0-.081.066.94.94,0,0,0-.067.082,11.773,11.773,0,0,0,0,16.537.965.965,0,0,0,.065.079.935.935,0,0,0,.078.064,11.773,11.773,0,0,0,16.542,0A.934.934,0,0,0,62.819,59a.965.965,0,0,0,.065-.079,11.773,11.773,0,0,0,0-16.537ZM62.1,56.9l-1.784-1.784a7.321,7.321,0,0,0,1.455-3.5h2.524A9.821,9.821,0,0,1,62.1,56.9ZM44.651,51.615h2.524a7.321,7.321,0,0,0,1.455,3.5L46.846,56.9a9.821,9.821,0,0,1-2.194-5.288Zm2.194-7.226,1.784,1.785a7.321,7.321,0,0,0-1.455,3.5H44.651A9.824,9.824,0,0,1,46.846,44.389Zm7.627,11.689A5.432,5.432,0,1,1,59.9,50.646,5.432,5.432,0,0,1,54.473,56.078ZM58.945,44.8a7.321,7.321,0,0,0-3.5-1.455V40.825a9.829,9.829,0,0,1,5.289,2.2ZM53.5,43.349A7.321,7.321,0,0,0,50,44.8L48.215,43.02a9.829,9.829,0,0,1,5.289-2.2ZM50,56.489a7.331,7.331,0,0,0,3.5,1.455v2.524a9.827,9.827,0,0,1-5.289-2.194Zm5.442,1.455a7.331,7.331,0,0,0,3.5-1.455l1.784,1.784a9.827,9.827,0,0,1-5.289,2.194Zm6.329-8.266a7.321,7.321,0,0,0-1.455-3.5L62.1,44.389a9.824,9.824,0,0,1,2.194,5.289Z" transform="translate(-12.319 -12.32)" fill="#648b50" stroke="#648b50" stroke-width="1"/>
    <path id="Trazado_291" data-name="Trazado 291" d="M62.117,55.957a2.333,2.333,0,1,0,2.333,2.333A2.333,2.333,0,0,0,62.117,55.957Zm0,2.73a.4.4,0,1,1,.4-.4A.4.4,0,0,1,62.117,58.687Z" transform="translate(-19.963 -19.963)" fill="#648b50" stroke="#648b50" stroke-width="1"/>
    <path id="Trazado_292" data-name="Trazado 292" d="M67.19,39.714H66.5V25.558a.969.969,0,0,0-.969-.969H24.574a.969.969,0,0,0-.969.969v3.31a3.01,3.01,0,0,0-2.038,2.844v4.133a3.01,3.01,0,0,0,2.038,2.844V49.878a3.01,3.01,0,0,0-2.038,2.844v4.133A3.01,3.01,0,0,0,23.605,59.7v3.31a.969.969,0,0,0,.969.969H65.53a.969.969,0,0,0,.969-.969V48.852h.692a.969.969,0,0,0,.969-.969v-7.2a.969.969,0,0,0-.969-.969Zm-.969,7.2H63.478V41.651H66.22Zm-42.715-15.2a1.07,1.07,0,0,1,2.14,0v4.133a1.07,1.07,0,0,1-1.068,1.07h0a1.071,1.071,0,0,1-1.069-1.07Zm0,21.009a1.07,1.07,0,1,1,2.14,0v4.133a1.07,1.07,0,1,1-2.14,0ZM64.559,62.04H25.545V59.7a3.01,3.01,0,0,0,2.038-2.844V52.721a3.01,3.01,0,0,0-2.038-2.844V38.689a3.01,3.01,0,0,0,2.038-2.844V31.712a3.009,3.009,0,0,0-2.038-2.844V26.526H64.559V39.714H62.511a.969.969,0,0,0-.969.969v7.2a.969.969,0,0,0,.969.969h2.048Z" transform="translate(-2.898 -5.956)" fill="#648b50" stroke="#648b50" stroke-width="1"/>
  </g>
</svg>
