<?xml version="1.0"?>
<svg xmlns="http://www.w3.org/2000/svg" height="512px" viewBox="0 0 479.98735 479" width="512px" class=""><g><path d="m159.992188 464.398438h160v16h-160zm0 0" data-original="#000000" class="active-path" data-old_color="#000000" fill="#083E63"/><path d="m327.992188 144.398438c0 48.601562-39.398438 88-88 88-48.597657 0-88-39.398438-88-88 0-48.601563 39.402343-88 88-88 48.601562 0 88 39.398437 88 88zm0 0" data-original="#000000" class="active-path" data-old_color="#000000" fill="#083E63"/><path d="m239.992188 407.597656 112.800781-203.199218c9.601562-18.402344 15.199219-39.203126 15.199219-60 0-70.402344-57.597657-128-128-128-70.398438 0-128 57.597656-128 128 0 20.796874 5.601562 41.597656 15.203124 60zm0-367.199218c57.601562 0 104 46.398437 104 104 0 57.597656-46.398438 104-104 104-57.597657 0-104-46.402344-104-104 0-57.601563 46.402343-104 104-104zm0 0" data-original="#000000" class="active-path" data-old_color="#000000" fill="#083E63"/><path d="m431.992188 256.398438v25.597656c-12.796876 4.800781-19.199219 18.402344-14.398438 30.402344 4.800781 12.796874 18.398438 19.199218 30.398438 14.398437 12.800781-4.800781 19.203124-18.398437 14.402343-30.398437-2.402343-7.203126-8-12-14.402343-14.402344v-25.597656c0-13.601563-10.398438-24-24-24h-40v16h40c4.800781 0 8 3.199218 8 8zm8 40c4.800781 0 8 3.199218 8 8 0 4.796874-3.199219 8-8 8-4.796876 0-8-3.203126-8-8 0-4.800782 3.203124-8 8-8zm0 0" data-original="#000000" class="active-path" data-old_color="#000000" fill="#083E63"/><path d="m431.992188 408.398438c-10.398438 0-19.199219 6.398437-22.398438 16h-105.601562c-4.796876 0-8-3.203126-8-8v-16h-16v16c0 13.597656 10.402343 24 24 24h105.601562c4.800781 12.796874 18.398438 19.199218 30.398438 14.398437 12.800781-4.800781 19.203124-18.398437 14.402343-30.398437-3.199219-9.601563-12-16-22.402343-16zm0 32c-4.796876 0-8-3.203126-8-8 0-4.800782 3.203124-8 8-8 4.800781 0 8 3.199218 8 8 0 4.796874-3.199219 8-8 8zm0 0" data-original="#000000" class="active-path" data-old_color="#000000" fill="#083E63"/><path d="m455.992188 344.398438c-10.398438 0-19.199219 6.398437-22.398438 16h-41.601562c-4.796876 0-8-3.203126-8-8v-24c0-13.601563-10.398438-24-24-24h-24v16h24c4.800781 0 8 3.199218 8 8v24c0 13.597656 10.402343 24 24 24h41.601562c4.800781 12.796874 18.398438 19.199218 30.398438 14.398437 12.800781-4.800781 19.203124-18.398437 14.402343-30.398437-3.199219-9.601563-12-16-22.402343-16zm0 32c-4.796876 0-8-3.203126-8-8 0-4.800782 3.203124-8 8-8 4.800781 0 8 3.199218 8 8 0 4.796874-3.199219 8-8 8zm0 0" data-original="#000000" class="active-path" data-old_color="#000000" fill="#083E63"/><path d="m463.992188 80.398438v-33.601563c12.800781-4.800781 19.203124-18.398437 14.402343-30.398437s-17.601562-19.203126-30.402343-14.402344c-12.796876 4.800781-19.199219 18.402344-14.398438 30.402344 2.398438 7.199218 8 12 14.398438 14.398437v33.601563c0 4.796874-3.199219 8-8 8h-40v16h40c13.601562 0 24-10.402344 24-24zm-8-64c4.800781 0 8 3.199218 8 8 0 4.796874-3.199219 8-8 8-4.796876 0-8-3.203126-8-8 0-4.800782 3.203124-8 8-8zm0 0" data-original="#000000" class="active-path" data-old_color="#000000" fill="#083E63"/><path d="m463.992188 169.996094v-17.597656c0-13.601563-10.398438-24-24-24h-40v16h40c4.800781 0 8 3.199218 8 8v17.597656c-12.796876 4.800781-19.199219 18.402344-14.398438 30.402344 4.800781 12.796874 18.398438 19.199218 30.398438 14.398437s19.203124-18.398437 14.402343-30.398437c-2.402343-6.402344-7.199219-12-14.402343-14.402344zm-8 30.402344c-4.796876 0-8-3.203126-8-8 0-4.800782 3.203124-8 8-8 4.800781 0 8 3.199218 8 8 0 4.796874-3.199219 8-8 8zm0 0" data-original="#000000" class="active-path" data-old_color="#000000" fill="#083E63"/><path d="m55.992188 240.398438h40v-16h-40c-13.597657 0-24 10.398437-24 24v33.597656c-12.796876 4.800781-19.199219 18.402344-14.398438 30.402344 4.800781 12.796874 18.398438 19.199218 30.398438 14.398437 12.800781-4.800781 19.203124-18.398437 14.402343-30.398437-2.402343-7.203126-8-12-14.402343-14.402344v-33.597656c0-4.800782 3.203124-8 8-8zm-16 72c-4.796876 0-8-3.203126-8-8 0-4.800782 3.203124-8 8-8 4.800781 0 8 3.199218 8 8 0 4.796874-3.199219 8-8 8zm0 0" data-original="#000000" class="active-path" data-old_color="#000000" fill="#083E63"/><path d="m199.992188 416.398438v-16h-16v16c0 4.796874-3.199219 8-8 8h-105.597657c-4.800781-12.800782-18.402343-19.203126-30.402343-14.402344-12 4.800781-19.199219 17.601562-14.398438 30.402344 4.800781 12.796874 18.398438 19.199218 30.398438 14.398437 7.203124-2.398437 12-8 14.402343-14.398437h105.597657c13.601562 0 24-10.402344 24-24zm-152 24c-4.796876 0-8-3.203126-8-8 0-4.800782 3.203124-8 8-8 4.800781 0 8 3.199218 8 8 0 4.796874-3.199219 8-8 8zm0 0" data-original="#000000" class="active-path" data-old_color="#000000" fill="#083E63"/><path d="m46.394531 376.398438h41.597657c13.601562 0 24-10.402344 24-24v-24c0-4.800782 3.203124-8 8-8h24v-16h-24c-13.597657 0-24 10.398437-24 24v24c0 4.796874-3.199219 8-8 8h-41.597657c-4.800781-12.800782-18.402343-19.203126-30.402343-14.402344-12 4.800781-19.199219 17.601562-14.398438 30.402344 4.800781 12.796874 18.398438 19.199218 30.398438 14.398437 6.402343-2.398437 12-7.199219 14.402343-14.398437zm-30.402343-8c0-4.800782 3.203124-8 8-8 4.800781 0 8 3.199218 8 8 0 4.796874-3.199219 8-8 8-4.796876 0-8-3.203126-8-8zm0 0" data-original="#000000" class="active-path" data-old_color="#000000" fill="#083E63"/><path d="m15.992188 46.796875v33.601563c0 13.597656 10.402343 24 24 24h40v-16h-40c-4.796876 0-8-3.203126-8-8v-33.601563c12.800781-4 19.203124-18.398437 14.402343-30.398437s-17.601562-19.203126-30.402343-14.402344c-12.796876 4.800781-19.199219 17.601562-14.398438 30.402344 2.398438 6.398437 7.199219 12 14.398438 14.398437zm8-30.398437c4.800781 0 8 3.199218 8 8 0 4.796874-3.199219 8-8 8-4.796876 0-8-3.203126-8-8 0-4.800782 3.203124-8 8-8zm0 0" data-original="#000000" class="active-path" data-old_color="#000000" fill="#083E63"/><path d="m23.992188 208.398438c13.601562 0 24-10.402344 24-24 0-10.402344-6.398438-19.203126-16-22.402344v-17.597656c0-4.800782 3.203124-8 8-8h40v-16h-40c-13.597657 0-24 10.398437-24 24v17.597656c-12.796876 4-19.199219 18.402344-14.398438 30.402344 3.199219 9.597656 12 16 22.398438 16zm0-32c4.800781 0 8 3.199218 8 8 0 4.796874-3.199219 8-8 8-4.796876 0-8-3.203126-8-8 0-4.800782 3.203124-8 8-8zm0 0" data-original="#000000" class="active-path" data-old_color="#000000" fill="#083E63"/></g> </svg>
