<?xml version="1.0"?>
<svg xmlns="http://www.w3.org/2000/svg" id="icons" enable-background="new 0 0 64 64" height="512px" viewBox="0 0 64 64" width="512px"><g><path d="m20.991 36.005h.011c1.648 0 2.993-1.341 2.999-2.989.006-1.654-1.335-3.005-2.999-3.011-1.649 0-2.995 1.341-3.001 2.989-.003.802.307 1.557.872 2.125.565.569 1.317.883 2.118.886zm.014-4c.552.002.998.452.996 1.003-.002.55-.45.997-.999.997v1l-.003-1c-.268-.001-.52-.105-.708-.296-.188-.189-.291-.44-.29-.707.002-.55.451-.997 1.004-.997z" data-original="#000000" class="active-path" data-old_color="#000000" fill="#083E63"/><path d="m35.551 34.882c.145.073.298.107.449.107.365 0 .718-.201.894-.55l1.008-1.997c.249-.493.051-1.094-.442-1.343-.492-.249-1.094-.051-1.343.442l-1.008 1.997c-.25.494-.051 1.095.442 1.344z" data-original="#000000" class="active-path" data-old_color="#000000" fill="#083E63"/><path d="m39.55 34.896c.145.073.299.107.45.107.365 0 .718-.201.894-.549l1.008-1.996c.249-.493.051-1.095-.441-1.344s-1.095-.05-1.344.441l-1.008 1.996c-.25.494-.051 1.095.441 1.345z" data-original="#000000" class="active-path" data-old_color="#000000" fill="#083E63"/><path d="m43.551 34.91c.145.073.298.107.449.107.365 0 .718-.201.894-.55l1.008-1.997c.249-.493.051-1.094-.442-1.343-.492-.249-1.094-.051-1.343.442l-1.008 1.997c-.25.495-.051 1.095.442 1.344z" data-original="#000000" class="active-path" data-old_color="#000000" fill="#083E63"/><path d="m50.001 29.005c0-1.654-1.346-3-3-3h-30c-1.654 0-3 1.346-3 3v8c0 .771.301 1.468.78 2-.479.532-.78 1.229-.78 2v8c0 .771.301 1.468.78 2-.479.532-.78 1.229-.78 2v8c0 1.654 1.346 3 3 3h30c1.654 0 3-1.346 3-3v-8c0-.771-.301-1.468-.78-2 .479-.532.78-1.229.78-2v-8c0-.771-.301-1.468-.78-2 .479-.532.78-1.229.78-2zm-34 0c0-.552.448-1 1-1h30c.552 0 1 .448 1 1v8c0 .552-.448 1-1 1h-30c-.552 0-1-.448-1-1zm32 12v8c0 .552-.448 1-1 1h-30c-.552 0-1-.448-1-1v-8c0-.552.448-1 1-1h30c.552 0 1 .448 1 1zm0 20c0 .552-.448 1-1 1h-30c-.552 0-1-.448-1-1v-8c0-.552.448-1 1-1h30c.552 0 1 .448 1 1z" data-original="#000000" class="active-path" data-old_color="#000000" fill="#083E63"/><path d="m20.991 48.005h.011c1.648 0 2.993-1.341 2.999-2.989.006-1.654-1.335-3.005-2.999-3.011-1.649 0-2.995 1.341-3.001 2.989-.003.802.307 1.557.872 2.125.565.569 1.317.883 2.118.886zm.014-4c.552.002.998.452.996 1.003-.002.55-.45.997-.999.997v1l-.003-1c-.268-.001-.52-.105-.708-.296-.188-.189-.291-.44-.29-.707.002-.55.451-.997 1.004-.997z" data-original="#000000" class="active-path" data-old_color="#000000" fill="#083E63"/><path d="m35.551 46.882c.145.073.298.107.449.107.365 0 .718-.201.894-.55l1.008-1.997c.249-.493.051-1.094-.442-1.343-.492-.249-1.094-.051-1.343.442l-1.008 1.997c-.25.494-.051 1.095.442 1.344z" data-original="#000000" class="active-path" data-old_color="#000000" fill="#083E63"/><path d="m39.55 46.896c.145.073.299.107.45.107.365 0 .718-.201.894-.549l1.008-1.996c.249-.493.051-1.095-.441-1.344s-1.095-.05-1.344.441l-1.008 1.996c-.25.494-.051 1.095.441 1.345z" data-original="#000000" class="active-path" data-old_color="#000000" fill="#083E63"/><path d="m43.551 46.91c.145.073.298.107.449.107.365 0 .718-.201.894-.55l1.008-1.997c.249-.493.051-1.094-.442-1.343-.492-.249-1.094-.051-1.343.442l-1.008 1.997c-.25.495-.051 1.095.442 1.344z" data-original="#000000" class="active-path" data-old_color="#000000" fill="#083E63"/><path d="m21.002 54.005c-1.649 0-2.995 1.341-3.001 2.989-.003.802.307 1.557.872 2.125.564.568 1.317.883 2.118.886h.011c1.648 0 2.993-1.341 2.999-2.989.006-1.655-1.335-3.005-2.999-3.011zm0 4v1l-.003-1c-.268-.001-.52-.105-.708-.296-.188-.189-.291-.44-.29-.707.002-.55.451-.997 1.004-.997.552.002.998.452.996 1.003-.002.55-.45.997-.999.997z" data-original="#000000" class="active-path" data-old_color="#000000" fill="#083E63"/><path d="m37.459 55.1c-.492-.249-1.094-.051-1.343.442l-1.008 1.997c-.249.493-.051 1.094.442 1.343.145.073.298.107.449.107.365 0 .718-.201.894-.55l1.008-1.997c.249-.493.051-1.093-.442-1.342z" data-original="#000000" class="active-path" data-old_color="#000000" fill="#083E63"/><path d="m41.46 55.114c-.492-.248-1.095-.05-1.344.441l-1.008 1.996c-.249.493-.051 1.095.441 1.344.145.073.299.107.45.107.365 0 .718-.201.894-.549l1.008-1.996c.249-.492.051-1.094-.441-1.343z" data-original="#000000" class="active-path" data-old_color="#000000" fill="#083E63"/><path d="m45.459 55.128c-.492-.249-1.094-.051-1.343.442l-1.008 1.997c-.249.493-.051 1.094.442 1.343.145.073.298.107.449.107.365 0 .718-.201.894-.55l1.008-1.997c.249-.492.051-1.093-.442-1.342z" data-original="#000000" class="active-path" data-old_color="#000000" fill="#083E63"/><path d="m41 .995c0-.553-.447-1-1-1h-4-7.998c-.001 0-.001 0-.001 0h-4c-.553 0-1 .447-1 1v5c0 .024.012.045.014.068.005.068.021.132.04.198.018.062.033.121.061.177.027.055.064.102.102.15.043.056.085.108.138.154.018.016.026.037.046.052l3.602 2.706v9.506c0 .013.007.024.008.037.024 2.735 2.254 4.955 4.995 4.955s4.971-2.22 4.995-4.955c.001-.013.008-.024.008-.037 0-.014-.008-.025-.008-.039v-9.466l3.601-2.706c.02-.015.028-.036.046-.052.053-.046.095-.099.137-.154.038-.05.075-.096.102-.15.028-.056.044-.115.062-.177.019-.066.035-.13.04-.198-.002-.024.01-.044.01-.069zm-11.998 17.012v-16.012h1.999v7c0 .553.447 1 1 1s1-.447 1-1v-7h1.999v16.012zm-4.001-12.512v-3.5h2.001v5.004zm7.004 16.504c-1.299 0-2.397-.835-2.813-1.992h5.627c-.417 1.157-1.515 1.992-2.814 1.992zm4.995-20.004h2v3.5l-2 1.503z" data-original="#000000" class="active-path" data-old_color="#000000" fill="#083E63"/><path d="m51.001 14.529 2.555-1.703c.31-.206.45-.555.428-.899.003-.031.018-.058.018-.089v-1.844c0-.553-.447-1-1-1h-3-6-3c-.553 0-1 .447-1 1v1.844c0 .031.015.058.018.089-.022.345.118.693.428.899l2.555 1.703v5.47c0 2.206 1.794 4 4 4s4-1.794 4-4v-5.47zm-6-3.535h1v3c0 .553.447 1 1 1s1-.447 1-1v-3h1v8.001h-4zm6 0h1v.465l-1 .667zm-9 .465v-.465h1v1.132zm5 10.54c-.738 0-1.377-.407-1.724-1.004h3.447c-.346.597-.985 1.004-1.723 1.004z" data-original="#000000" class="active-path" data-old_color="#000000" fill="#083E63"/><path d="m12.999 19.999c0 2.206 1.794 4 4 4s4-1.794 4-4v-5.47l2.555-1.703c.31-.206.45-.555.428-.899.003-.031.018-.058.018-.089v-1.844c0-.553-.447-1-1-1h-3-6-3c-.553 0-1 .447-1 1v1.844c0 .031.015.058.018.089-.022.345.118.693.428.899l2.555 1.703v5.47zm4-5.005c.553 0 1-.447 1-1v-3h1v8.001h-4v-8.001h1v3c0 .553.447 1 1 1zm0 7.005c-.738 0-1.377-.407-1.724-1.004h3.447c-.346.597-.985 1.004-1.723 1.004zm4-11.005h1v.465l-1 .667zm-9 .465v-.465h1v1.132z" data-original="#000000" class="active-path" data-old_color="#000000" fill="#083E63"/></g> </svg>
