<svg xmlns="http://www.w3.org/2000/svg" width="50.152" height="50.125" viewBox="0 0 50.152 50.125">
  <g id="stDMhC.tif" transform="translate(27.996 -286.126)">
    <g id="Grupo_363" data-name="Grupo 363" transform="translate(-27.996 286.126)">
      <path id="Trazado_616" data-name="Trazado 616" d="M-24.431,429.166c-2.847-1.194-3.565-2.285-3.565-5.421q0-6.569,0-13.137c0-2.478,1.133-4.206,3.2-4.757a4.439,4.439,0,0,1,5.172,2.273,1.514,1.514,0,0,0,1.157.5c4.045.036,8.09.031,12.135.014.791,0,1.464.08,1.809.938.334.829-.133,1.337-.647,1.842-.471.464-.955.915-1.5,1.441l2.977,2.5c-.035-.286-.008-.45-.075-.554-1.031-1.6-.36-2.664.815-3.948a6.333,6.333,0,0,1,5.524-2.265c3.365.2,6.751.042,10.128.062a1.147,1.147,0,0,0,1.209-.674,4.111,4.111,0,0,1,4.46-2.226,4.132,4.132,0,0,1,3.574,3.068c.056.173.141.338.213.506V425.6a5.177,5.177,0,0,1-3.566,3.566H16.806a5.469,5.469,0,0,1-3.076-2.54,1.037,1.037,0,0,0-.8-.363q-15.853-.027-31.706,0a1.04,1.04,0,0,0-.8.359,5.534,5.534,0,0,1-3.074,2.544Zm37.717-17.61c-4.121,0-8.166-.021-12.211.013A2.306,2.306,0,0,0-.78,414.45c.7,1.751,1.461,3.483,2.071,5.265a1.939,1.939,0,0,1-.282,1.6,1.9,1.9,0,0,1-1.479.355c-.387-.045-.747-.449-1.088-.732-2.483-2.063-4.951-4.145-7.44-6.2-1.451-1.2-1.532-1.487-.718-3.111H-19.13v11.654H13.286Zm-38.374,5.795c0,2.339-.006,4.678,0,7.016,0,1.131.577,1.86,1.448,1.887.9.027,1.513-.658,1.517-1.8q.023-7.016,0-14.033c0-1.2-.561-1.818-1.494-1.806s-1.465.648-1.47,1.832C-25.095,412.747-25.087,415.049-25.088,417.351Zm44.334.066c0-2.3.007-4.6,0-6.9-.006-1.26-.542-1.911-1.522-1.9-.934.015-1.444.632-1.446,1.848q-.017,6.961,0,13.921c0,1.2.543,1.851,1.447,1.865s1.517-.737,1.521-1.929C19.252,422.02,19.246,419.718,19.246,417.417Z" transform="translate(27.996 -379.041)" fill="#083e63"/>
      <path id="Trazado_617" data-name="Trazado 617" d="M80.792,289.1c0,.481.034.965-.005,1.442a1.334,1.334,0,0,1-1.429,1.372,1.309,1.309,0,0,1-1.448-1.346,26.988,26.988,0,0,1,0-3.106,1.439,1.439,0,0,1,2.869-.026C80.836,287.987,80.79,288.547,80.792,289.1Z" transform="translate(-54.269 -286.126)" fill="#083e63"/>
      <path id="Trazado_618" data-name="Trazado 618" d="M80.792,328.777c0,.481.027.964-.006,1.442a1.383,1.383,0,0,1-1.414,1.417,1.348,1.348,0,0,1-1.465-1.355,26.832,26.832,0,0,1,0-3.106,1.3,1.3,0,0,1,1.459-1.33,1.327,1.327,0,0,1,1.42,1.378C80.823,327.739,80.792,328.259,80.792,328.777Z" transform="translate(-54.266 -316.992)" fill="#083e63"/>
      <path id="Trazado_619" data-name="Trazado 619" d="M3.76,303.571c-.484.544-.765,1.137-1.182,1.256a1.8,1.8,0,0,1-1.568-.291,13.461,13.461,0,0,1-1.8-3.156,1.734,1.734,0,0,1,.568-1.495c.321-.263,1.282-.312,1.474-.07C2.149,300.951,2.882,302.219,3.76,303.571Z" transform="translate(6.886 -296.643)" fill="#083e63"/>
      <path id="Trazado_620" data-name="Trazado 620" d="M80.792,368.127a14.081,14.081,0,0,1-.012,1.553,1.442,1.442,0,0,1-2.869-.031,27.4,27.4,0,0,1,0-3.106,1.355,1.355,0,0,1,1.451-1.373,1.383,1.383,0,0,1,1.429,1.4C80.823,367.089,80.794,367.609,80.792,368.127Z" transform="translate(-54.268 -347.55)" fill="#083e63"/>
      <path id="Trazado_621" data-name="Trazado 621" d="M155.542,301.14a41.748,41.748,0,0,1-2.456,3.719,1.619,1.619,0,0,1-1.571-.064,1.834,1.834,0,0,1-.466-1.625,11.491,11.491,0,0,1,1.721-2.95,1.745,1.745,0,0,1,1.542-.362C154.761,299.994,155.063,300.61,155.542,301.14Z" transform="translate(-111.098 -296.758)" fill="#083e63"/>
      <path id="Trazado_622" data-name="Trazado 622" d="M40.265,367.87c.22.2.821.517,1.042,1,.534,1.18,2,2.083,1.323,3.652a1.38,1.38,0,0,1-2.386.187,18.739,18.739,0,0,1-1.635-2.88C38.176,368.876,38.863,367.906,40.265,367.87Z" transform="translate(-23.663 -349.649)" fill="#083e63"/>
      <path id="Trazado_623" data-name="Trazado 623" d="M20.173,333.722c.113.027.5.006.588.158a42.584,42.584,0,0,1,2.148,3.988c.1.215-.461.968-.841,1.092a1.638,1.638,0,0,1-1.465-.282,15.43,15.43,0,0,1-1.862-3.111C18.334,334.652,19.052,333.755,20.173,333.722Z" transform="translate(-8.234 -323.113)" fill="#083e63"/>
      <path id="Trazado_624" data-name="Trazado 624" d="M132.464,339.532a1.452,1.452,0,0,1-1.508-2.084,11.858,11.858,0,0,1,1.64-2.738,1.917,1.917,0,0,1,1.728-.4,1.658,1.658,0,0,1,.708,1.485,23.364,23.364,0,0,1-1.953,3.419C132.947,339.425,132.576,339.478,132.464,339.532Z" transform="translate(-95.402 -323.52)" fill="#083e63"/>
      <path id="Trazado_625" data-name="Trazado 625" d="M115.924,369.619a41.45,41.45,0,0,1-2.431,3.7,1.615,1.615,0,0,1-1.57-.039,1.806,1.806,0,0,1-.5-1.6,11.42,11.42,0,0,1,1.717-2.942,1.773,1.773,0,0,1,1.547-.415C115.134,368.45,115.438,369.078,115.924,369.619Z" transform="translate(-80.31 -349.972)" fill="#083e63"/>
    </g>
  </g>
</svg>
