<svg xmlns="http://www.w3.org/2000/svg" width="51" height="51.658" viewBox="0 0 51 51.658">
  <g id="VUprH5.tif" transform="translate(26.569 -285.985)">
    <g id="Grupo_364" data-name="Grupo 364" transform="translate(-26.569 285.985)">
      <path id="Trazado_626" data-name="Trazado 626" d="M-25.979,337.642a7.786,7.786,0,0,1-.561-2c-.041-7.3-.027-14.607-.025-21.911,0-1.835.2-2.028,2.047-2.03h1.549c0-1.288-.01-2.532,0-3.775.014-1.293.334-1.619,1.637-1.632,1.759-.017,3.518-.023,5.277,0a1.009,1.009,0,0,0,1.189-.854c1.837-5.792,5.7-9.332,11.768-10.307.733-.118.911-.443.9-1.132-.039-2.1-.023-4.206-.01-6.309.009-1.438.271-1.7,1.658-1.708q3.5-.013,7,0C7.645,286,8,286.366,8,287.575c.009,1.53-.02,3.06.01,4.589.02,1.021-.423,1.457-1.445,1.443C4.433,293.577,2.3,293.6.043,293.6l-.056,1.277c1.118.257,2.177.419,3.182.745a13.76,13.76,0,0,1,9.416,9.508,1.387,1.387,0,0,0,1.663,1.183c1.68-.064,3.365,0,5.047-.022,1.054-.013,1.549.472,1.537,1.523-.014,1.254,0,2.508,0,3.892.693,0,1.292-.005,1.891,0,1.382.014,1.7.3,1.7,1.687.014,3.327,0,6.654,0,9.98,0,4.13.025,8.26-.026,12.389a7.122,7.122,0,0,1-.56,1.88Zm32.327-2.337v-1.184q0-4.534,0-9.067c0-1.377-.076-2.762.053-4.127.039-.413.651-.772,1-1.156a6.909,6.909,0,0,1,1.079,1.1c.157.249.046.671.046,1.015q0,6.083,0,12.166v1.225H22.121V314.077H-24.263V335.3h13.6V334c0-4.209.007-8.417-.005-12.625,0-.8.129-1.562,1.07-1.576.923-.013,1.125.7,1.122,1.527-.017,4.247-.008,8.493-.008,12.74V335.3h2.621V333.99c0-2.6-.01-5.2.006-7.8.008-1.263.317-1.578,1.547-1.587q3.214-.024,6.427,0c1.3.008,1.6.317,1.609,1.649.015,2.142,0,4.285,0,6.427v2.633Zm4.143-29.082c-.8-5.246-6.461-9.234-12.623-8.979-4.749.2-10.2,4.836-10.476,8.979Zm-31.137,5.4H18.5v-3.058H-20.647Zm22.1,23.68v-8.363H-3.618V335.3ZM.011,291.346H5.706v-2.985H.011Z" transform="translate(26.569 -285.985)" fill="#083e63"/>
      <path id="Trazado_627" data-name="Trazado 627" d="M.219,415.786c.994,0,1.989.011,2.983-.005.848-.014,1.3.383,1.3,1.229.013,1.529,0,3.059.007,4.589a1.151,1.151,0,0,1-1.269,1.292c-2.026.021-4.054.028-6.08-.006a1.158,1.158,0,0,1-1.254-1.311c.014-1.529,0-3.059.005-4.589a1.067,1.067,0,0,1,1.205-1.2C-1.846,415.786-.814,415.788.219,415.786Zm-2,4.776H2.237v-2.538H-1.777Z" transform="translate(9.25 -385.983)" fill="#083e63"/>
      <path id="Trazado_628" data-name="Trazado 628" d="M139.908,415.789c1.032,0,2.065,0,3.1,0a1.071,1.071,0,0,1,1.208,1.2c.006,1.529-.006,3.059.006,4.588a1.16,1.16,0,0,1-1.256,1.31c-2.026.034-4.053.026-6.079.006a1.149,1.149,0,0,1-1.267-1.292c0-1.529,0-3.059.005-4.588.005-.851.459-1.24,1.3-1.228C137.92,415.8,138.914,415.787,139.908,415.789Zm2,2.254h-4.021v2.507h4.021Z" transform="translate(-98.383 -385.985)" fill="#083e63"/>
      <path id="Trazado_629" data-name="Trazado 629" d="M.227,459.842c.993,0,1.987.012,2.98,0a1.118,1.118,0,0,1,1.3,1.232c.014,1.528.006,3.056.006,4.584a1.138,1.138,0,0,1-1.277,1.273c-2.025.01-4.05.019-6.074-.006a1.144,1.144,0,0,1-1.249-1.3q.017-2.235,0-4.47c-.008-.917.435-1.323,1.335-1.31C-1.76,459.853-.766,459.842.227,459.842Zm2.051,4.8v-2.53H-1.774v2.53Z" transform="translate(9.249 -419.926)" fill="#083e63"/>
      <path id="Trazado_630" data-name="Trazado 630" d="M139.9,459.84c.993,0,1.987.013,2.98,0,.9-.015,1.342.4,1.337,1.311q-.014,2.235,0,4.47a1.148,1.148,0,0,1-1.253,1.3c-2.024.026-4.049.017-6.074.006a1.136,1.136,0,0,1-1.273-1.275c0-1.528-.007-3.056,0-4.584a1.113,1.113,0,0,1,1.3-1.229C137.913,459.852,138.907,459.84,139.9,459.84Zm-2.048,4.772h4.063V462.1h-4.063Z" transform="translate(-98.382 -419.924)" fill="#083e63"/>
      <path id="Trazado_631" data-name="Trazado 631" d="M70.1,415.786c.994,0,1.988.01,2.982,0,.914-.013,1.319.426,1.309,1.33q-.025,2.237,0,4.474a1.15,1.15,0,0,1-1.259,1.3q-3.039.044-6.079,0a1.146,1.146,0,0,1-1.245-1.312c.013-1.529.007-3.059,0-4.588a1.058,1.058,0,0,1,1.192-1.2C68.034,415.784,69.067,415.787,70.1,415.786Zm-2.234,4.774H72.3c-.1-.9-.055-2.343-.307-2.4a8.973,8.973,0,0,0-3.7-.036C68,418.19,68.009,419.65,67.865,420.56Z" transform="translate(-44.599 -385.984)" fill="#083e63"/>
      <path id="Trazado_632" data-name="Trazado 632" d="M45.441,418.38c-.764.5-1.167.972-1.607,1.009a.9.9,0,0,1-.99-1.173,1.558,1.558,0,0,1,1.112-.923C44.332,417.275,44.735,417.832,45.441,418.38Z" transform="translate(-26.872 -387.147)" fill="#083e63"/>
      <path id="Trazado_633" data-name="Trazado 633" d="M119.617,418.263c-.793.453-1.28.956-1.642.878a1.59,1.59,0,0,1-.96-1.1.874.874,0,0,1,1.16-.987C118.6,417.161,118.934,417.665,119.617,418.263Z" transform="translate(-84.041 -386.933)" fill="#083e63"/>
    </g>
  </g>
</svg>
