<svg xmlns="http://www.w3.org/2000/svg" width="24.098" height="43.163" viewBox="0 0 24.098 43.163">
  <g id="Grupo_183" data-name="Grupo 183" transform="translate(-297.864 -1232.682)">
    <path id="Trazado_100" data-name="Trazado 100" d="M319.538,1266.8a12.141,12.141,0,0,1-6.2,3.309V1273a2.788,2.788,0,0,1-2.844,2.844,2.622,2.622,0,0,1-1.957-.816,2.8,2.8,0,0,1-.793-2.028v-2.61a16.216,16.216,0,0,1-4.591-1.072,14.684,14.684,0,0,1-4.032-2.517,3.274,3.274,0,0,1-1.258-2.471,2.627,2.627,0,0,1,.792-1.888,2.573,2.573,0,0,1,1.911-.815,2.47,2.47,0,0,1,1.585.56,16.646,16.646,0,0,0,2.75,1.841,9.127,9.127,0,0,0,2.843.909v-9.09q-9.367-1.725-9.369-9.37a8.417,8.417,0,0,1,2.611-6.362,11.758,11.758,0,0,1,6.758-3.052v-1.539a2.788,2.788,0,0,1,2.844-2.843,2.62,2.62,0,0,1,1.957.816,2.8,2.8,0,0,1,.793,2.027v1.724a13.42,13.42,0,0,1,6.525,2.891,3.109,3.109,0,0,1,1.352,2.471,2.632,2.632,0,0,1-.792,1.887,2.518,2.518,0,0,1-1.865.816,2.046,2.046,0,0,1-1.259-.42,12.047,12.047,0,0,0-3.961-2v8.623q4.521,1.073,6.572,3.146t2.051,6.083A8.32,8.32,0,0,1,319.538,1266.8Zm-14.683-18.063a6.811,6.811,0,0,0,2.89,1.515v-7.737a5.468,5.468,0,0,0-2.89,1.352,3.237,3.237,0,0,0-.978,2.377A3.328,3.328,0,0,0,304.855,1248.739Zm10.675,14.311a2.873,2.873,0,0,0,.839-1.981,3.574,3.574,0,0,0-.746-2.261,5.619,5.619,0,0,0-2.284-1.608v7.318A6.108,6.108,0,0,0,315.53,1263.05Z" fill="#083e63"/>
  </g>
</svg>
