<svg xmlns="http://www.w3.org/2000/svg" width="54.585" height="54.663" viewBox="0 0 54.585 54.663">
  <g id="sketch" transform="translate(0.333 0.291)">
    <g id="Grupo_302" data-name="Grupo 302" transform="translate(4.5 9.121)">
      <g id="Grupo_301" data-name="Grupo 301">
        <path id="Trazado_323" data-name="Trazado 323" d="M46.039,85.179a3.375,3.375,0,0,0-3.375,3.375v9h2.25v-9a1.125,1.125,0,0,1,1.125-1.125h27v-2.25Z" transform="translate(-42.664 -85.179)" fill="#164060" stroke="#164060" stroke-width="0.5"/>
      </g>
    </g>
    <g id="Grupo_304" data-name="Grupo 304" transform="translate(4.5 30.497)">
      <g id="Grupo_303" data-name="Grupo 303">
        <path id="Trazado_324" data-name="Trazado 324" d="M46.039,300.221a1.125,1.125,0,0,1-1.125-1.125V287.845h-2.25V299.1a3.375,3.375,0,0,0,3.375,3.375H57.29v-2.25Z" transform="translate(-42.664 -287.845)" fill="#164060" stroke="#164060" stroke-width="0.5"/>
      </g>
    </g>
    <g id="Grupo_306" data-name="Grupo 306" transform="translate(0 18.121)">
      <g id="Grupo_305" data-name="Grupo 305" transform="translate(0)">
        <path id="Trazado_325" data-name="Trazado 325" d="M35.672,198.166,8.349,170.843a1.125,1.125,0,0,0-1.591,0L.329,177.272a1.125,1.125,0,0,0,0,1.591l27.323,27.323a1.124,1.124,0,0,0,1.591,0l6.428-6.428A1.125,1.125,0,0,0,35.672,198.166ZM28.448,203.8,2.716,178.067l4.838-4.838,25.732,25.732Z" transform="translate(0 -170.514)" fill="#164060" stroke="#164060" stroke-width="0.5"/>
      </g>
    </g>
    <g id="Grupo_308" data-name="Grupo 308" transform="translate(32.626 42.872)">
      <g id="Grupo_307" data-name="Grupo 307">
        <path id="Trazado_326" data-name="Trazado 326" d="M326.207,405.179H309.331v2.25h12.375v5.625a1.125,1.125,0,0,0,1.125,1.125h3.375a4.5,4.5,0,1,0,0-9Zm0,6.75h-2.25v-4.5h2.25a2.25,2.25,0,0,1,0,4.5Z" transform="translate(-309.331 -405.179)" fill="#164060" stroke="#164060" stroke-width="0.5"/>
      </g>
    </g>
    <g id="Grupo_310" data-name="Grupo 310" transform="translate(43.877 9.121)">
      <g id="Grupo_309" data-name="Grupo 309">
        <path id="Trazado_327" data-name="Trazado 327" d="M421.623,85.179H416v2.25h5.625a2.25,2.25,0,0,1,2.25,2.25v33.751h2.25V89.679A4.5,4.5,0,0,0,421.623,85.179Z" transform="translate(-415.998 -85.179)" fill="#164060" stroke="#164060" stroke-width="0.5"/>
      </g>
    </g>
    <g id="Grupo_312" data-name="Grupo 312" transform="translate(17.205 31.951)">
      <g id="Grupo_311" data-name="Grupo 311">
        <rect id="Rectángulo_101" data-name="Rectángulo 101" width="4.774" height="2.25" transform="translate(0 3.375) rotate(-45)" fill="#164060" stroke="#164060" stroke-width="0.5"/>
      </g>
    </g>
    <g id="Grupo_314" data-name="Grupo 314" transform="translate(12.705 27.451)">
      <g id="Grupo_313" data-name="Grupo 313">
        <rect id="Rectángulo_102" data-name="Rectángulo 102" width="4.774" height="2.25" transform="translate(0 3.375) rotate(-45)" fill="#164060" stroke="#164060" stroke-width="0.5"/>
      </g>
    </g>
    <g id="Grupo_316" data-name="Grupo 316" transform="translate(21.703 36.451)">
      <g id="Grupo_315" data-name="Grupo 315">
        <rect id="Rectángulo_103" data-name="Rectángulo 103" width="4.774" height="2.25" transform="translate(0 3.375) rotate(-45)" fill="#164060" stroke="#164060" stroke-width="0.5"/>
      </g>
    </g>
    <g id="Grupo_318" data-name="Grupo 318" transform="translate(26.205 40.954)">
      <g id="Grupo_317" data-name="Grupo 317">
        <rect id="Rectángulo_104" data-name="Rectángulo 104" width="4.774" height="2.25" transform="translate(0 3.375) rotate(-45)" fill="#164060" stroke="#164060" stroke-width="0.5"/>
      </g>
    </g>
    <g id="Grupo_320" data-name="Grupo 320" transform="translate(8.202 22.951)">
      <g id="Grupo_319" data-name="Grupo 319">
        <rect id="Rectángulo_105" data-name="Rectángulo 105" width="4.774" height="2.25" transform="translate(0 3.375) rotate(-45)" fill="#164060" stroke="#164060" stroke-width="0.5"/>
      </g>
    </g>
    <g id="Grupo_322" data-name="Grupo 322" transform="translate(24.834 0.153)">
      <g id="Grupo_321" data-name="Grupo 321" transform="translate(0 0)">
        <path id="Trazado_328" data-name="Trazado 328" d="M259.149,2.649l-1.555-1.555a3.4,3.4,0,0,0-4.7,0L235.785,18.2a1.125,1.125,0,0,0,0,1.591l4.666,4.666a1.124,1.124,0,0,0,1.591,0L259.149,7.351l0,0A3.323,3.323,0,0,0,259.149,2.649Zm-1.59,3.11L241.246,22.072,238.172,19,254.485,2.685a1.1,1.1,0,0,1,1.519,0l1.556,1.554h0A1.075,1.075,0,0,1,257.56,5.759Z" transform="translate(-235.456 -0.153)" fill="#164060" stroke="#164060" stroke-width="0.5"/>
      </g>
    </g>
    <g id="Grupo_324" data-name="Grupo 324" transform="translate(22.5 18.642)">
      <g id="Grupo_323" data-name="Grupo 323">
        <path id="Trazado_329" data-name="Trazado 329" d="M221.091,179.406l-4.856,1.621,1.621-4.864-2.138-.712-2.333,7a1.125,1.125,0,0,0,1.068,1.481,1.143,1.143,0,0,0,.351-.054l7-2.333Z" transform="translate(-213.328 -175.451)" fill="#164060" stroke="#164060" stroke-width="0.5"/>
      </g>
    </g>
    <g id="Grupo_326" data-name="Grupo 326" transform="translate(39.16 4.204)">
      <g id="Grupo_325" data-name="Grupo 325">
        <rect id="Rectángulo_106" data-name="Rectángulo 106" width="2.25" height="6.598" transform="translate(0 1.591) rotate(-45)" fill="#164060" stroke="#164060" stroke-width="0.5"/>
      </g>
    </g>
    <g id="Grupo_328" data-name="Grupo 328" transform="translate(23.626 24.871)">
      <g id="Grupo_327" data-name="Grupo 327">
        <rect id="Rectángulo_107" data-name="Rectángulo 107" width="16.876" height="2.25" fill="#164060" stroke="#164060" stroke-width="0.5"/>
      </g>
    </g>
    <g id="Grupo_330" data-name="Grupo 330" transform="translate(42.752 24.871)">
      <g id="Grupo_329" data-name="Grupo 329">
        <rect id="Rectángulo_108" data-name="Rectángulo 108" width="2.25" height="2.25" fill="#164060" stroke="#164060" stroke-width="0.5"/>
      </g>
    </g>
    <g id="Grupo_332" data-name="Grupo 332" transform="translate(47.252 24.871)">
      <g id="Grupo_331" data-name="Grupo 331">
        <rect id="Rectángulo_109" data-name="Rectángulo 109" width="2.25" height="2.25" fill="#164060" stroke="#164060" stroke-width="0.5"/>
      </g>
    </g>
  </g>
</svg>
