<svg id="automatic" xmlns="http://www.w3.org/2000/svg" width="58" height="58" viewBox="0 0 58 58">
  <path id="Trazado_317" data-name="Trazado 317" d="M53.469,270.239v-6.911A5.689,5.689,0,0,0,51.2,258.8v-5.67A1.133,1.133,0,0,0,50.07,252H45.539a1.133,1.133,0,0,0-1.133,1.133v5.67a5.69,5.69,0,0,0-2.266,4.525v6.8H34.664v-6.8A5.689,5.689,0,0,0,32.4,258.8v-5.67A1.133,1.133,0,0,0,31.266,252H26.734a1.133,1.133,0,0,0-1.133,1.133v5.67a5.689,5.689,0,0,0-2.266,4.525v6.8H15.859v-6.8a5.69,5.69,0,0,0-2.266-4.525v-5.67A1.133,1.133,0,0,0,12.461,252H7.93A1.133,1.133,0,0,0,6.8,253.133v5.67a5.689,5.689,0,0,0-2.266,4.525v6.911a5.664,5.664,0,0,0,1.133,11.214H52.336a5.664,5.664,0,0,0,1.133-11.214Zm-6.683,4.417h-1.02a1.133,1.133,0,1,0,0,2.266h1.02a5.639,5.639,0,0,0,1.022,2.266H33.528a5.639,5.639,0,0,0,1.022-2.266h1.021a1.133,1.133,0,0,0,0-2.266H34.55a5.639,5.639,0,0,0-1.022-2.266h14.28A5.639,5.639,0,0,0,46.786,274.656Zm-22.314-2.266a5.64,5.64,0,0,0-1.022,2.266H11.214a5.639,5.639,0,0,0-1.022-2.266Zm-13.258,4.531H23.45a5.646,5.646,0,0,0,1.022,2.266H10.192A5.633,5.633,0,0,0,11.214,276.922ZM25.6,275.789a3.4,3.4,0,1,1,3.4,3.4A3.4,3.4,0,0,1,25.6,275.789Zm23.336-21.523v2.266H46.672v-2.266Zm-4.531,9.062a3.419,3.419,0,0,1,1.7-2.941,1.133,1.133,0,0,0,.563-.979V258.8h2.266v.611a1.133,1.133,0,0,0,.563.979,3.419,3.419,0,0,1,1.7,2.941v6.8h-6.8Zm-18.8,0a3.419,3.419,0,0,1,1.7-2.941,1.133,1.133,0,0,0,.563-.979v-5.142h2.266v5.142a1.133,1.133,0,0,0,.563.979,3.419,3.419,0,0,1,1.7,2.941v6.8H25.6ZM8.5,260.387a1.133,1.133,0,0,0,.563-.979v-5.142h2.266v5.142a1.133,1.133,0,0,0,.563.979,3.419,3.419,0,0,1,1.7,2.941v6.8H6.8v-6.8A3.419,3.419,0,0,1,8.5,260.387Zm-6.234,15.4a3.4,3.4,0,1,1,3.4,3.4A3.4,3.4,0,0,1,2.266,275.789Zm50.07,3.4a3.4,3.4,0,1,1,3.4-3.4A3.4,3.4,0,0,1,52.336,279.188Zm0,0" transform="translate(0 -223.453)" fill="#164060"/>
  <path id="Trazado_318" data-name="Trazado 318" d="M247.129,452a1.133,1.133,0,0,0,0,2.266h0a1.133,1.133,0,0,0,0-2.266Zm0,0" transform="translate(-218.129 -400.797)" fill="#164060"/>
  <path id="Trazado_319" data-name="Trazado 319" d="M42.262,453.133a1.133,1.133,0,1,0-1.133,1.133h0A1.132,1.132,0,0,0,42.262,453.133Zm0,0" transform="translate(-35.465 -400.797)" fill="#164060"/>
  <path id="Trazado_320" data-name="Trazado 320" d="M453.129,452a1.133,1.133,0,0,0,0,2.266h0a1.133,1.133,0,0,0,0-2.266Zm0,0" transform="translate(-400.793 -400.797)" fill="#164060"/>
  <path id="Trazado_321" data-name="Trazado 321" d="M132.125,2.266h2.833V3.4a3.4,3.4,0,0,0,3.4,3.4V18.125a2.268,2.268,0,0,0,2.266,2.266h1.133v3.4a1.133,1.133,0,0,0,1.133,1.133h1.133v.34a1.133,1.133,0,0,0,2.266,0v-.34h1.133a1.133,1.133,0,0,0,1.133-1.133v-3.4h1.133a2.268,2.268,0,0,0,2.266-2.266V6.8a3.4,3.4,0,0,0,3.4-3.4V2.266h7.93a1.133,1.133,0,0,0,0-2.266H132.125a1.133,1.133,0,1,0,0,2.266Zm14.161,20.391H144.02V20.391h2.266Zm3.4-4.531h-9.062V6.8h9.063ZM137.224,2.266h15.859V3.4a1.134,1.134,0,0,1-1.133,1.133H138.356A1.134,1.134,0,0,1,137.224,3.4Zm0,0" transform="translate(-116.153)" fill="#164060"/>
  <path id="Trazado_322" data-name="Trazado 322" d="M350.137,452h0a1.133,1.133,0,1,0,1.134,1.133A1.132,1.132,0,0,0,350.136,452Zm0,0" transform="translate(-309.468 -400.797)" fill="#164060"/>
</svg>
