<svg xmlns="http://www.w3.org/2000/svg" width="54.046" height="44.321" viewBox="0 0 54.046 44.321">
  <path id="folder" d="M50.827,19.646h-2.2V11.689H23.442L19.021,5.5H2.415A2.419,2.419,0,0,0,0,7.915V46.539H.005a2.257,2.257,0,0,0,2.262,2.282H41.839a2.245,2.245,0,0,0,2.166-1.6L53.046,22.43v-.156A2.368,2.368,0,0,0,50.827,19.646Zm-3.97-6.189v6.189H39.784V16.993a.884.884,0,1,0-1.768,0v2.652H33.6V16.993a.884.884,0,0,0-1.768,0v2.652h-4.42V16.993a.884.884,0,1,0-1.768,0v2.652h-4.42V16.993a.884.884,0,0,0-1.768,0v2.652H15.03V16.993a.884.884,0,1,0-1.768,0v2.652H11.255a2.268,2.268,0,0,0-.373.031,2.23,2.23,0,0,0-1.793,1.572l-.28.769L4.42,34.05V18.761h5.3v-5.3H46.857ZM5.671,16.993l2.286-2.286v2.286Zm-3.9-9.078a.648.648,0,0,1,.647-.647h15.7l3.157,4.42H8.475L2.652,17.511V38.8l-.884,2.412ZM42.321,46.684a.5.5,0,0,1-.482.369H2.268a.488.488,0,0,1-.4-.2.479.479,0,0,1-.109-.361l.889-2.438h0l8.1-22.2.023-.072a.5.5,0,0,1,.482-.369H50.827c.336,0,.422.483.444.724Z" transform="translate(0.5 -5)" fill="#183f42" stroke="#183f42" stroke-width="1"/>
</svg>
