<svg xmlns="http://www.w3.org/2000/svg" width="52.584" height="49.807" viewBox="0 0 52.584 49.807">
  <g id="promotion" transform="translate(0.518 0.503)">
    <path id="Trazado_298" data-name="Trazado 298" d="M123.474,291.455a1.007,1.007,0,1,0-1.376-.369A1.008,1.008,0,0,0,123.474,291.455Zm0,0" transform="translate(-109.681 -260.412)" fill="#183f42" stroke="#183f42" stroke-width="1"/>
    <path id="Trazado_299" data-name="Trazado 299" d="M9.667,58.1l5.072,8.785a4.028,4.028,0,1,0,6.977-4.028L18.694,57.62l2.616-1.511a1.007,1.007,0,0,0,.369-1.376l-1.31-2.268,19.29-3.784a3.021,3.021,0,0,0,2.449-4.527l-3.347-5.8,2.139-3.24a1.008,1.008,0,0,0,.032-1.059l-2.014-3.489a1.009,1.009,0,0,0-.933-.5l-3.875.232-3.716-6.436a3,3,0,0,0-2.579-1.51h-.039a3,3,0,0,0-2.544,1.393L12.078,40.508,3.525,45.446A7.05,7.05,0,0,0,9.667,58.1Zm10.3,5.764a2.014,2.014,0,0,1-3.489,2.014l-5.035-8.723,3.489-2.014Zm-2.284-7.986L16.68,54.131l1.744-1.007,1.007,1.744Zm19.8-23.758,1.392,2.411-1.241,1.88-2.4-4.155ZM26.918,24.853a1.007,1.007,0,0,1,1.732.02L40.364,45.162a1.007,1.007,0,0,1-.847,1.51,3.7,3.7,0,0,0-.552.094L26.573,25.3C26.834,24.97,26.867,24.937,26.918,24.853Zm-1.685,2.159L36.875,47.175l-17.57,3.446-5.342-9.253ZM2.689,54.069A5.032,5.032,0,0,1,4.532,47.19l7.849-4.532,5.035,8.722L9.568,55.912A5.042,5.042,0,0,1,2.689,54.069Zm0,0" transform="translate(0 -20.104)" fill="#183f42" stroke="#183f42" stroke-width="1"/>
    <path id="Trazado_300" data-name="Trazado 300" d="M49.057,310.077a1.007,1.007,0,0,0-1.376-.369l-1.744,1.007a1.008,1.008,0,0,1-1.376-.369,1.007,1.007,0,0,0-1.744,1.007,3.025,3.025,0,0,0,4.127,1.106l1.744-1.007A1.007,1.007,0,0,0,49.057,310.077Zm0,0" transform="translate(-38.384 -278.396)" fill="#183f42" stroke="#183f42" stroke-width="1"/>
    <path id="Trazado_301" data-name="Trazado 301" d="M442.4,42.608l-5.612,3.123a1.007,1.007,0,1,0,.98,1.76l5.611-3.123a1.007,1.007,0,0,0-.979-1.76Zm0,0" transform="translate(-392.338 -38.202)" fill="#183f42" stroke="#183f42" stroke-width="1"/>
    <path id="Trazado_302" data-name="Trazado 302" d="M445.222,137.7l-3.891-1.042a1.007,1.007,0,1,0-.521,1.945l3.891,1.042a1.007,1.007,0,1,0,.521-1.945Zm0,0" transform="translate(-395.745 -122.862)" fill="#183f42" stroke="#183f42" stroke-width="1"/>
    <path id="Trazado_303" data-name="Trazado 303" d="M384.571.747l-1.044,3.891a1.007,1.007,0,1,0,1.946.522l1.043-3.891a1.007,1.007,0,1,0-1.945-.522Zm0,0" transform="translate(-344.871)" fill="#183f42" stroke="#183f42" stroke-width="1"/>
  </g>
</svg>
