<svg xmlns="http://www.w3.org/2000/svg" width="116.047" height="117.981" viewBox="0 0 116.047 117.981">
  <g id="bullhorn" transform="translate(-2 -1)">
    <path id="Trazado_342" data-name="Trazado 342" d="M69.694,74.551H65.826V55.6a1.934,1.934,0,1,0-3.868,0V74.551H11.671V35.868H27.762a1.934,1.934,0,0,0,0-3.868H9.736A1.934,1.934,0,0,0,7.8,33.934V74.551H3.934A1.934,1.934,0,0,0,2,76.485v3.868a9.671,9.671,0,0,0,9.671,9.671H61.958a9.671,9.671,0,0,0,9.671-9.671V76.485A1.934,1.934,0,0,0,69.694,74.551Zm-1.934,5.8a5.8,5.8,0,0,1-5.8,5.8H58.089V84.221a1.934,1.934,0,1,0-3.868,0v1.934H19.407V84.221a1.934,1.934,0,1,0-3.868,0v1.934H11.671a5.8,5.8,0,0,1-5.8-5.8V78.419H67.76Z" transform="translate(0 28.958)" fill="#164060"/>
    <path id="Trazado_343" data-name="Trazado 343" d="M58.671,9.868h3.868a1.934,1.934,0,1,0,0-3.868H58.671a5.8,5.8,0,0,0-5.8,5.8v1.934H50.934a1.934,1.934,0,1,0,0,3.868h1.934v5.8a1.934,1.934,0,1,0,3.868,0V17.6h1.934a1.934,1.934,0,1,0,0-3.868H56.736V11.8A1.934,1.934,0,0,1,58.671,9.868Z" transform="translate(43.904 4.671)" fill="#164060"/>
    <path id="Trazado_344" data-name="Trazado 344" d="M73.012,2H49.8A5.8,5.8,0,0,0,44,7.8v3.868a1.934,1.934,0,1,0,3.868,0V7.8A1.934,1.934,0,0,1,49.8,5.868H73.012A1.934,1.934,0,0,1,74.946,7.8V31.012a1.934,1.934,0,0,1-1.934,1.934H49.8a1.934,1.934,0,0,1-1.934-1.934v-11.6a1.934,1.934,0,1,0-3.868,0v11.6a5.8,5.8,0,0,0,5.8,5.8H73.012a5.8,5.8,0,0,0,5.8-5.8V7.8a5.8,5.8,0,0,0-5.8-5.8Z" transform="translate(39.233 0.934)" fill="#164060"/>
    <path id="Trazado_345" data-name="Trazado 345" d="M49,45.736A7.736,7.736,0,1,0,56.736,38,7.736,7.736,0,0,0,49,45.736Zm11.6,0a3.868,3.868,0,1,1-3.868-3.868A3.868,3.868,0,0,1,60.6,45.736Z" transform="translate(43.904 34.562)" fill="#164060"/>
    <path id="Trazado_346" data-name="Trazado 346" d="M73.012,33H49.8A5.8,5.8,0,0,0,44,38.8V62.012a5.8,5.8,0,0,0,5.8,5.8H73.012a5.8,5.8,0,0,0,5.8-5.8V58.144a1.934,1.934,0,0,0-3.868,0v3.868a1.934,1.934,0,0,1-1.934,1.934H49.8a1.934,1.934,0,0,1-1.934-1.934V38.8A1.934,1.934,0,0,1,49.8,36.868H73.012A1.934,1.934,0,0,1,74.946,38.8v11.6a1.934,1.934,0,1,0,3.868,0V38.8a5.8,5.8,0,0,0-5.8-5.8Z" transform="translate(39.233 29.892)" fill="#164060"/>
    <path id="Trazado_347" data-name="Trazado 347" d="M24.909,21.18a1.924,1.924,0,0,0,1.9.077l11.6-5.8a1.934,1.934,0,0,0,0-3.443L26.8,6.21A1.934,1.934,0,0,0,24,7.931v11.6A1.934,1.934,0,0,0,24.909,21.18Zm2.959-10.115,5.338,2.669L27.868,16.4Z" transform="translate(20.551 4.673)" fill="#164060"/>
    <path id="Trazado_348" data-name="Trazado 348" d="M35.407,35.814A17.407,17.407,0,1,0,18,18.407,17.407,17.407,0,0,0,35.407,35.814Zm0-30.946A13.539,13.539,0,1,1,21.868,18.407,13.539,13.539,0,0,1,35.407,4.868Z" transform="translate(14.946 0)" fill="#164060"/>
    <path id="Trazado_349" data-name="Trazado 349" d="M37.934,28.6a1.934,1.934,0,0,0,1.547-.774l5.8-7.736a1.934,1.934,0,1,0-3.095-2.321l-5.8,7.736A1.934,1.934,0,0,0,37.934,28.6Z" transform="translate(31.76 14.946)" fill="#164060"/>
    <path id="Trazado_350" data-name="Trazado 350" d="M39.387,30.9a1.934,1.934,0,0,0,2.708.387l7.736-5.8a1.934,1.934,0,1,0-2.321-3.095l-7.736,5.8A1.934,1.934,0,0,0,39.387,30.9Z" transform="translate(34.562 19.616)" fill="#164060"/>
    <path id="Trazado_351" data-name="Trazado 351" d="M55.637,29.569a1.934,1.934,0,0,0-2.321-1.547l-9.671,1.934a1.944,1.944,0,1,0,.387,3.868h.387L54.09,31.89a1.934,1.934,0,0,0,1.547-2.321Z" transform="translate(37.267 25.199)" fill="#164060"/>
    <path id="Trazado_352" data-name="Trazado 352" d="M3.934,45.814H27.144a1.934,1.934,0,0,0,1.934-1.934V12.934A1.934,1.934,0,0,0,27.144,11H3.934A1.934,1.934,0,0,0,2,12.934V43.88A1.934,1.934,0,0,0,3.934,45.814ZM5.868,14.868H25.209V41.946H5.868Z" transform="translate(0 9.341)" fill="#164060"/>
    <path id="Trazado_353" data-name="Trazado 353" d="M13.8,15H9.934a1.934,1.934,0,0,0,0,3.868H13.8A1.934,1.934,0,0,0,13.8,15Z" transform="translate(5.605 13.078)" fill="#164060"/>
    <path id="Trazado_354" data-name="Trazado 354" d="M15.671,19H7.934a1.934,1.934,0,0,0,0,3.868h7.736a1.934,1.934,0,0,0,0-3.868Z" transform="translate(3.736 16.814)" fill="#164060"/>
    <path id="Trazado_355" data-name="Trazado 355" d="M15.671,23H7.934a1.934,1.934,0,0,0,0,3.868h7.736a1.934,1.934,0,0,0,0-3.868Z" transform="translate(3.736 20.551)" fill="#164060"/>
    <path id="Trazado_356" data-name="Trazado 356" d="M61.422,34.022a1.941,1.941,0,1,0-3.365,1.934l8.529,14.757L35.64,62.318h-.29l-5.029,2.9-3.346,1.934a3.862,3.862,0,0,1-5.28-1.412l-3.868-6.692a3.868,3.868,0,0,1,1.451-5.106l6.692-3.868L30.8,58.45a1.941,1.941,0,0,0,3.365-1.934L29.18,47.89,53.453,27.871l.793,1.373a1.941,1.941,0,0,0,3.365-1.934l-1.934-3.346a1.96,1.96,0,0,0-2.921-.522L25.679,45.762,17.44,50.52a7.736,7.736,0,0,0-3.559,8.762l-1.934,1.1a5.8,5.8,0,0,0,2.9,10.831,5.919,5.919,0,0,0,2.9-.774l1.934-1.1a7.5,7.5,0,0,0,3.385,2.011,7.33,7.33,0,0,0,2.031.271,7.62,7.62,0,0,0,3.868-1.044l1.683-.967,3.868,6.711a5.8,5.8,0,1,0,10.038-5.8l-3.52-6.131L70.048,53.5a1.94,1.94,0,0,0,1.006-2.766ZM15.738,67.076A1.932,1.932,0,1,1,13.8,63.73l1.683-.967,1.934,3.346Zm25.453,5.416a1.932,1.932,0,0,1-3.346,1.934l-3.868-6.711,3.211-1.837h.155Z" transform="translate(6.57 20.553)" fill="#164060"/>
  </g>
</svg>
