<svg xmlns="http://www.w3.org/2000/svg" xmlns:xlink="http://www.w3.org/1999/xlink" viewBox="0 0 383 190"><defs><style>.cls-1{fill:url(#Degradado_sin_nombre_5);}.cls-2{fill:url(#Degradado_sin_nombre_6);}.cls-3{fill:#fff;}.cls-4{isolation:isolate;}.cls-5{fill:#3a3f3d;}</style><linearGradient id="Degradado_sin_nombre_5" x1="-775.15" y1="510.27" x2="-775.82" y2="511.14" gradientTransform="matrix(275, 0, 0, -111, 213504.29, 56785.34)" gradientUnits="userSpaceOnUse"><stop offset="0" stop-color="#096862"/><stop offset="1" stop-color="#01977d"/></linearGradient><linearGradient id="Degradado_sin_nombre_6" x1="-776.36" y1="511.68" x2="-775.6" y2="511.03" gradientTransform="matrix(190, 0, 0, -190, 147533.3, 97254.36)" gradientUnits="userSpaceOnUse"><stop offset="0" stop-color="#009d81"/><stop offset="1" stop-color="#096862"/></linearGradient></defs><title>Recurso 23</title><g id="Capa_2" data-name="Capa 2"><g id="Capa_1-2" data-name="Capa 1"><g id="Grupo_244" data-name="Grupo 244"><path id="Rectángulo_16-3" data-name="Rectángulo 16-3" class="cls-1" d="M163.5,42h164A55.5,55.5,0,0,1,383,97.5h0A55.5,55.5,0,0,1,327.5,153h-164A55.5,55.5,0,0,1,108,97.5h0A55.5,55.5,0,0,1,163.5,42Z"/><circle id="Elipse_3-3" data-name="Elipse 3-3" class="cls-2" cx="95" cy="95" r="95"/><circle id="Elipse_4-6" data-name="Elipse 4-6" class="cls-3" cx="94.5" cy="94.5" r="76.5"/><g id="Colaboración" class="cls-4"><g class="cls-4"><path class="cls-3" d="M206.61,92c0-4.22,3.24-7.24,7.6-7.24A7.23,7.23,0,0,1,220,87.24l-2.08,1.92a4.5,4.5,0,0,0-3.52-1.64,4.48,4.48,0,0,0,0,9,4.46,4.46,0,0,0,3.52-1.66L220,96.74a7.19,7.19,0,0,1-5.78,2.5C209.85,99.24,206.61,96.22,206.61,92Z"/><path class="cls-3" d="M220.75,93.62c0-3.24,2.5-5.54,5.92-5.54s5.9,2.3,5.9,5.54-2.48,5.54-5.9,5.54S220.75,96.86,220.75,93.62Zm8.66,0a2.76,2.76,0,1,0-2.74,3A2.72,2.72,0,0,0,229.41,93.62Z"/><path class="cls-3" d="M234.65,84.16h3.12V99h-3.12Z"/><path class="cls-3" d="M250.19,92.86V99h-2.92V97.66a3.53,3.53,0,0,1-3.28,1.5c-2.52,0-4-1.4-4-3.26s1.34-3.22,4.62-3.22h2.48c0-1.34-.8-2.12-2.48-2.12a5.17,5.17,0,0,0-3.1,1l-1.12-2.18a8.27,8.27,0,0,1,4.64-1.3C248.29,88.08,250.19,89.6,250.19,92.86Zm-3.12,2.74V94.5h-2.14c-1.46,0-1.92.54-1.92,1.26s.66,1.3,1.76,1.3A2.3,2.3,0,0,0,247.07,95.6Z"/><path class="cls-3" d="M264.73,93.62a5.23,5.23,0,0,1-5.36,5.54,4.18,4.18,0,0,1-3.38-1.4V99h-3V84.16h3.12v5.22a4.18,4.18,0,0,1,3.24-1.3A5.23,5.23,0,0,1,264.73,93.62Zm-3.16,0a2.75,2.75,0,1,0-2.74,3A2.72,2.72,0,0,0,261.57,93.62Z"/><path class="cls-3" d="M266,93.62c0-3.24,2.5-5.54,5.92-5.54s5.9,2.3,5.9,5.54-2.48,5.54-5.9,5.54S266,96.86,266,93.62Zm8.66,0a2.76,2.76,0,1,0-2.74,3A2.72,2.72,0,0,0,274.67,93.62Z"/><path class="cls-3" d="M286.59,88.08V91c-.26,0-.46,0-.7,0-1.72,0-2.86.94-2.86,3V99h-3.12V88.24h3v1.42A4.34,4.34,0,0,1,286.59,88.08Z"/><path class="cls-3" d="M297.91,92.86V99H295V97.66a3.53,3.53,0,0,1-3.28,1.5c-2.52,0-4-1.4-4-3.26s1.34-3.22,4.62-3.22h2.48c0-1.34-.8-2.12-2.48-2.12a5.17,5.17,0,0,0-3.1,1l-1.12-2.18a8.27,8.27,0,0,1,4.64-1.3C296,88.08,297.91,89.6,297.91,92.86Zm-3.12,2.74V94.5h-2.14c-1.46,0-1.92.54-1.92,1.26s.66,1.3,1.76,1.3A2.3,2.3,0,0,0,294.79,95.6Z"/><path class="cls-3" d="M300.05,93.62c0-3.24,2.5-5.54,6-5.54a4.94,4.94,0,0,1,4.82,2.74l-2.42,1.3A2.68,2.68,0,0,0,306,90.64a3,3,0,0,0,0,6,2.65,2.65,0,0,0,2.42-1.48l2.42,1.32a5,5,0,0,1-4.82,2.72C302.55,99.16,300.05,96.86,300.05,93.62Z"/><path class="cls-3" d="M312.29,85a1.78,1.78,0,0,1,1.94-1.74,1.75,1.75,0,0,1,1.94,1.68,1.95,1.95,0,0,1-3.88.06Zm.38,3.24h3.12V99h-3.12Z"/><path class="cls-3" d="M317.89,93.62c0-3.24,2.5-5.54,5.92-5.54s5.9,2.3,5.9,5.54-2.48,5.54-5.9,5.54S317.89,96.86,317.89,93.62Zm8.66,0a2.76,2.76,0,1,0-2.74,3A2.72,2.72,0,0,0,326.55,93.62ZM324.65,84H328l-3.62,2.88H322Z"/><path class="cls-3" d="M342.79,92.84V99h-3.12V93.32c0-1.74-.8-2.54-2.18-2.54s-2.58.92-2.58,2.9V99h-3.12V88.24h3V89.5a4.71,4.71,0,0,1,3.56-1.42C340.87,88.08,342.79,89.56,342.79,92.84Z"/></g></g></g><g id="Grupo_547" data-name="Grupo 547"><g id="Grupo_544" data-name="Grupo 544"><g id="Grupo_543" data-name="Grupo 543"><path id="Trazado_2999" data-name="Trazado 2999" class="cls-5" d="M139,115l-12-11.9a1.75,1.75,0,0,0-2.46,2.48h0l12,11.9A1.75,1.75,0,1,0,139,115Z"/></g></g><g id="Grupo_546" data-name="Grupo 546"><g id="Grupo_545" data-name="Grupo 545"><path id="Trazado_3000" data-name="Trazado 3000" class="cls-5" d="M115.5,114.53l17-17a6.59,6.59,0,0,0-3.18-11.08,6.59,6.59,0,0,0-3.21-8.76,6.34,6.34,0,0,0-1.65-.52,6.58,6.58,0,0,0-4.18-8.31,5.19,5.19,0,0,0-1-.24,6.6,6.6,0,0,0-9.41-7.87l-.16-.18a11.72,11.72,0,0,0-8.52-3.71H87.46a1.76,1.76,0,0,0-1.75,1.75v2.29a8,8,0,0,0,.46,2.66,6.59,6.59,0,0,0-8.79,8.16A6.59,6.59,0,0,0,72,79.36a7.19,7.19,0,0,0,.24.94,6.6,6.6,0,0,0-5.37,7.62,6.72,6.72,0,0,0,.51,1.65,6.59,6.59,0,0,0-4.94,7.91,6.69,6.69,0,0,0,1.76,3.18l3.49,3.49L50.51,121.33a1.75,1.75,0,0,0,0,2.47,1.73,1.73,0,0,0,2.47,0l17.35-17.34a6.58,6.58,0,0,0,9.84-6h.27A6.57,6.57,0,0,0,87,93.88h0a2.17,2.17,0,0,0,0-.26h.27A6.59,6.59,0,0,0,93.88,87h0a2.35,2.35,0,0,0,0-.26h.26A6.58,6.58,0,0,0,99.23,76l11.62-11.61a3.09,3.09,0,0,1,4.37,4.37l-1.71,1.71-6.21,6.21a1.75,1.75,0,0,0,2.47,2.48L116,73a3.09,3.09,0,1,1,4.38,4.37h0L118.65,79l-4.5,4.5A1.75,1.75,0,1,0,116.62,86l4.5-4.5a3.09,3.09,0,1,1,4.37,4.37l-2.35,2.35L121,90.38a1.75,1.75,0,1,0,2.48,2.48l2.15-2.15A3.09,3.09,0,0,1,130,95.08l-17,17a23.7,23.7,0,0,1-16,7,1.72,1.72,0,0,0-1.17.51L80.22,135.25a1.75,1.75,0,0,0,2.48,2.47h0l11.53-11.58a16.2,16.2,0,0,0,9.88,2.54l9,9a1.75,1.75,0,0,0,2.47-2.48h0l-9.59-9.6a1.74,1.74,0,0,0-1.38-.5l-.56,0a12.73,12.73,0,0,1-7.3-1.59l1.13-1.12A27.19,27.19,0,0,0,115.5,114.53ZM75.78,102.91a3.1,3.1,0,0,1-4.38,0l-4.72-4.72a3.09,3.09,0,0,1,4.37-4.38h0l4.73,4.73A3.1,3.1,0,0,1,75.78,102.91Zm6.85-6.85a3.1,3.1,0,0,1-4.38,0l-4.73-4.72L71.17,89a3.1,3.1,0,0,1,4.38-4.38l7.08,7.08h0a3.1,3.1,0,0,1,0,4.37Zm6.84-6.84a3.1,3.1,0,0,1-4.37,0l-8.79-8.79a3.09,3.09,0,0,1,4.37-4.38h0l4,4,4.78,4.78h0a3.1,3.1,0,0,1,0,4.38Zm6.85-6.85a3.1,3.1,0,0,1-4.37,0l-8.79-8.79h0l-1.71-1.71a3.1,3.1,0,0,1,4.38-4.38L96.33,78a3.11,3.11,0,0,1,0,4.38h0Zm.46-8.87L92,68.7a7.93,7.93,0,0,0,1.68.18h0l4.8,0a1.75,1.75,0,0,0,0-3.5h0l-4.8,0h0a4.44,4.44,0,0,1-4.45-4.44h0V60.4h12a8.16,8.16,0,0,1,6,2.59l.07.08Z"/></g></g></g></g></g></svg>