<svg xmlns="http://www.w3.org/2000/svg" xmlns:xlink="http://www.w3.org/1999/xlink" viewBox="0 0 383 190"><defs><style>.cls-1{fill:url(#Degradado_sin_nombre_8);}.cls-2{fill:url(#Degradado_sin_nombre_7);}.cls-3{fill:#fff;}.cls-4{isolation:isolate;}.cls-5{fill:#3a3f3d;}</style><linearGradient id="Degradado_sin_nombre_8" x1="-5.9" y1="-61.98" x2="-6.57" y2="-61.11" gradientTransform="matrix(275, 0, 0, -111, 1960.5, -6737.11)" gradientUnits="userSpaceOnUse"><stop offset="0" stop-color="#354377"/><stop offset="1" stop-color="#4770be"/></linearGradient><linearGradient id="Degradado_sin_nombre_7" x1="-6.13" y1="-59.45" x2="-5.38" y2="-60.1" gradientTransform="matrix(190, 0, 0, -190, 1189.88, -11260.5)" gradientUnits="userSpaceOnUse"><stop offset="0" stop-color="#4770be"/><stop offset="1" stop-color="#344072"/></linearGradient></defs><title>Recurso 21</title><g id="Capa_2" data-name="Capa 2"><g id="Capa_1-2" data-name="Capa 1"><g id="Grupo_807" data-name="Grupo 807"><path id="Rectángulo_16" data-name="Rectángulo 16" class="cls-1" d="M163.5,39h164A55.5,55.5,0,0,1,383,94.5h0A55.5,55.5,0,0,1,327.5,150h-164A55.5,55.5,0,0,1,108,94.5h0A55.5,55.5,0,0,1,163.5,39Z"/><circle id="Elipse_3" data-name="Elipse 3" class="cls-2" cx="95" cy="95" r="95"/><circle id="Elipse_4-2" data-name="Elipse 4-2" class="cls-3" cx="94.5" cy="94.5" r="76.5"/><g id="MultiCloud_Services" data-name="MultiCloud Services" class="cls-4"><g class="cls-4"><path class="cls-3" d="M235.89,99l0-7.56-3.71,6.23h-1.31l-3.69-6.07V99h-2.74V86.4h2.41l4.72,7.83,4.65-7.83h2.39l0,12.6Z"/><path class="cls-3" d="M251.17,89.31V99h-2.66V97.85a3.94,3.94,0,0,1-3,1.29c-2.43,0-4.14-1.36-4.14-4.35V89.31h2.81v5.06c0,1.62.72,2.34,2,2.34s2.23-.82,2.23-2.61V89.31Z"/><path class="cls-3" d="M253.78,85.64h2.81V99h-2.81Z"/><path class="cls-3" d="M266.15,98.53a4,4,0,0,1-2.29.61c-2.29,0-3.62-1.17-3.62-3.47v-4h-1.49V89.53h1.49V87.17h2.81v2.36h2.41v2.16h-2.41v3.94a1.13,1.13,0,0,0,1.21,1.28,1.86,1.86,0,0,0,1.13-.36Z"/><path class="cls-3" d="M267.39,86.4a1.6,1.6,0,0,1,1.74-1.57,1.58,1.58,0,0,1,1.75,1.51,1.75,1.75,0,0,1-3.49.06Zm.34,2.91h2.81V99h-2.81Z"/><path class="cls-3" d="M272.55,92.7c0-3.8,2.92-6.52,6.84-6.52a6.52,6.52,0,0,1,5.19,2.23l-1.87,1.73a4.06,4.06,0,0,0-3.17-1.47,4,4,0,1,0,0,8.06,4,4,0,0,0,3.17-1.49L284.58,97a6.93,6.93,0,0,1-12-4.27Z"/><path class="cls-3" d="M286.34,85.64h2.81V99h-2.81Z"/><path class="cls-3" d="M291,94.16a5.33,5.33,0,1,1,5.33,5C293.29,99.14,291,97.07,291,94.16Zm7.79,0a2.48,2.48,0,1,0-2.46,2.68A2.45,2.45,0,0,0,298.83,94.16Z"/><path class="cls-3" d="M313.31,89.31V99h-2.67V97.85a3.94,3.94,0,0,1-3,1.29c-2.44,0-4.15-1.36-4.15-4.35V89.31h2.81v5.06c0,1.62.72,2.34,2,2.34s2.24-.82,2.24-2.61V89.31Z"/><path class="cls-3" d="M325.78,85.64V99H323.1V97.88a3.73,3.73,0,0,1-3,1.26,5,5,0,0,1,0-10,3.73,3.73,0,0,1,2.9,1.17v-4.7ZM323,94.16a2.48,2.48,0,1,0-2.46,2.68A2.46,2.46,0,0,0,323,94.16Z"/></g><g class="cls-4"><path class="cls-3" d="M236.26,119.76l1-2.2a7.4,7.4,0,0,0,4.16,1.32c1.73,0,2.43-.58,2.43-1.35,0-2.36-7.32-.74-7.32-5.42,0-2.15,1.72-3.93,5.31-3.93a8.43,8.43,0,0,1,4.37,1.12l-.9,2.21a7.06,7.06,0,0,0-3.49-1c-1.73,0-2.39.65-2.39,1.44,0,2.32,7.32.72,7.32,5.35,0,2.11-1.74,3.91-5.34,3.91A9.05,9.05,0,0,1,236.26,119.76Z"/><path class="cls-3" d="M258,117h-7.32a2.57,2.57,0,0,0,2.77,1.94,3.28,3.28,0,0,0,2.43-.93l1.49,1.62a5.08,5.08,0,0,1-4,1.56c-3.35,0-5.53-2.1-5.53-5a4.93,4.93,0,0,1,5.17-5,4.8,4.8,0,0,1,5,5C258,116.41,258,116.72,258,117Zm-7.36-1.64h4.77a2.42,2.42,0,0,0-4.77,0Z"/><path class="cls-3" d="M265.91,111.17v2.59c-.23,0-.41,0-.63,0a2.37,2.37,0,0,0-2.57,2.7V121H259.9v-9.69h2.68v1.28A3.92,3.92,0,0,1,265.91,111.17Z"/><path class="cls-3" d="M277.54,111.31,273.45,121h-2.9l-4.06-9.69h2.9l2.68,6.59,2.77-6.59Z"/><path class="cls-3" d="M278.35,108.4a1.6,1.6,0,0,1,1.74-1.57,1.58,1.58,0,0,1,1.75,1.51,1.75,1.75,0,0,1-3.49.06Zm.34,2.91h2.81V121h-2.81Z"/><path class="cls-3" d="M283.39,116.16c0-2.92,2.25-5,5.4-5a4.45,4.45,0,0,1,4.34,2.47L291,114.81a2.42,2.42,0,0,0-2.18-1.34,2.69,2.69,0,0,0,0,5.37,2.39,2.39,0,0,0,2.18-1.33l2.18,1.19a4.5,4.5,0,0,1-4.34,2.44C285.64,121.14,283.39,119.07,283.39,116.16Z"/><path class="cls-3" d="M304.05,117h-7.32a2.57,2.57,0,0,0,2.77,1.94,3.28,3.28,0,0,0,2.43-.93l1.49,1.62a5.08,5.08,0,0,1-4,1.56c-3.35,0-5.53-2.1-5.53-5a4.93,4.93,0,0,1,5.17-5,4.8,4.8,0,0,1,5,5C304.11,116.41,304.07,116.72,304.05,117Zm-7.36-1.64h4.77a2.42,2.42,0,0,0-4.77,0Z"/><path class="cls-3" d="M305,120.1l.94-2a6.6,6.6,0,0,0,3.36.94c1.3,0,1.79-.34,1.79-.88,0-1.59-5.86,0-5.86-3.84,0-1.83,1.66-3.13,4.49-3.13a8,8,0,0,1,3.73.85l-.94,2a5.58,5.58,0,0,0-2.79-.72c-1.26,0-1.8.4-1.8.9,0,1.66,5.85.06,5.85,3.88,0,1.8-1.67,3.07-4.57,3.07A8.37,8.37,0,0,1,305,120.1Z"/></g></g><g id="Outline"><path id="Trazado_2996" data-name="Trazado 2996" class="cls-5" d="M141,64.18a7.59,7.59,0,0,0-7.58-7.58,6.75,6.75,0,0,0-1.19.1,9.08,9.08,0,0,0-16.92,3.1,6,6,0,0,0-1.86.81,19.72,19.72,0,0,0-29.69-7.74A13.64,13.64,0,0,0,61.4,58.14q-.39,0-.78,0a10.62,10.62,0,1,0,0,21.24h3.12A13.67,13.67,0,0,0,77.31,91.49H94v14.94c-.5-.22-1-.41-1.52-.58v-5.26h-9.1v5.26a15.06,15.06,0,0,0-2.45,1l-3.72-3.72-6.44,6.44,3.72,3.72a15.84,15.84,0,0,0-1,2.45H68.21v3H50v3H68.21v3h5.26a13.48,13.48,0,0,0,1,2.45L70.77,131l6.43,6.44,3.72-3.72a14.66,14.66,0,0,0,2.46,1V140h9.1v-5.26a14.23,14.23,0,0,0,2.45-1l3.72,3.72,5.1-5.1c.32.2.64.39,1,.56V137h9.1v-4.07a9.45,9.45,0,0,0,1.48-.85l3.52,2,4.55-7.89-3.51-2c0-.29,0-.57,0-.86s0-.57,0-.85l1.14-.66h20v-3H122.42l-3.59-6.22-3.52,2a9.45,9.45,0,0,0-1.48-.85V109.7H105l.1-.11-6.43-6.43L97,104.78V91.49h21.24a12.12,12.12,0,0,0,9.46-19.72h5.72A7.6,7.6,0,0,0,141,64.18Zm-33.27,51.67v-3.12h3v3.12l1,.36a7.43,7.43,0,0,1,2.39,1.38l.82.7,2.7-1.56,1.52,2.63-2.7,1.56.19,1a7.17,7.17,0,0,1,0,2.77l-.19,1.05,2.69,1.56L117.72,130,115,128.42l-.81.7a7.47,7.47,0,0,1-2.4,1.38l-1,.36V134h-3v-3.13l-1-.35a7.5,7.5,0,0,1-2.4-1.39l-.82-.7-2.7,1.56-1.51-2.62,2.71-1.56-.2-1.05a7.59,7.59,0,0,1,0-2.77l.2-1-2.71-1.56,1.52-2.63,2.7,1.56.82-.7a7.66,7.66,0,0,1,2.4-1.38Zm-3-5.9v3.81a10.32,10.32,0,0,0-1.48.85l-1.73-1-.15-.3Zm-3.93-.36-3.25,3.25.65,1c.14.23.25.47.38.71l-3.1,5.37a7.56,7.56,0,1,0,0,.7l3.22,1.86c0,.29,0,.57,0,.85s0,.57,0,.86l-3.52,2L99,132.85l-.34.34-3.25-3.25-1,.65a11.88,11.88,0,0,1-3.75,1.56l-1.18.26V137h-3v-4.6l-1.18-.27a12.1,12.1,0,0,1-3.75-1.55l-1-.65-3.25,3.25L75.06,131l3.25-3.25-.65-1A12,12,0,0,1,76.1,123l-.26-1.19h-4.6v-3h4.59l.27-1.18a12.12,12.12,0,0,1,1.56-3.75l.65-1-3.25-3.25,2.14-2.15,3.25,3.25,1-.64a11.88,11.88,0,0,1,3.75-1.56l1.18-.27v-4.59h3v4.59l1.18.27a11.88,11.88,0,0,1,3.75,1.56l1,.64,3.26-3.25Zm-8.32,10.72a4.55,4.55,0,1,1-4.55-4.55h0a4.55,4.55,0,0,1,4.55,4.56h0Zm24.28-57.65h1.52V61.15A6,6,0,0,1,130,59l.53,1.39,1.4-.5a4.34,4.34,0,0,1,1.51-.28,4.55,4.55,0,0,1,.28,9.1h-9.59a12,12,0,0,0-8.93-1.12,19.1,19.1,0,0,0-.64-4,3,3,0,0,1,2.2-1ZM53,68.73a7.6,7.6,0,0,1,7.59-7.58,7.51,7.51,0,0,1,1.56.16l1.44.3L64,60.17a10.59,10.59,0,0,1,17.52-5.29,19.68,19.68,0,0,0-5.15,9.33,13.69,13.69,0,0,0-12.59,12.1H60.62A7.6,7.6,0,0,1,53,68.73Zm65.24,19.73h-41a10.62,10.62,0,0,1,0-21.24h0l1.52,0L79.08,66a16.68,16.68,0,0,1,33.13,2.77c0,.23,0,.46,0,.68L112,72.28l2.33-1.12a9.1,9.1,0,1,1,4,17.3Z"/><path id="Trazado_2997" data-name="Trazado 2997" class="cls-5" d="M109.28,127.91a4.56,4.56,0,1,0-4.55-4.56h0a4.56,4.56,0,0,0,4.55,4.56Zm0-6.07a1.52,1.52,0,1,1-1.52,1.52,1.52,1.52,0,0,1,1.52-1.52Z"/></g></g></g></g></svg>