<svg xmlns="http://www.w3.org/2000/svg" xmlns:xlink="http://www.w3.org/1999/xlink" viewBox="0 0 383 190"><defs><style>.cls-1{fill:url(#Degradado_sin_nombre_3);}.cls-2{fill:url(#Degradado_sin_nombre_4);}.cls-3{fill:#fff;}.cls-4{isolation:isolate;}.cls-5{fill:#3a3f3d;}</style><linearGradient id="Degradado_sin_nombre_3" x1="-376.15" y1="510.27" x2="-376.82" y2="511.14" gradientTransform="matrix(275, 0, 0, -111, 103779.29, 56782.34)" gradientUnits="userSpaceOnUse"><stop offset="0" stop-color="#006b7a"/><stop offset="1" stop-color="#00a5a3"/></linearGradient><linearGradient id="Degradado_sin_nombre_4" x1="-377.36" y1="511.68" x2="-376.6" y2="511.03" gradientTransform="matrix(190, 0, 0, -190, 71723.3, 97254.36)" gradientUnits="userSpaceOnUse"><stop offset="0" stop-color="#00ada9"/><stop offset="1" stop-color="#006a79"/></linearGradient></defs><title>Recurso 22</title><g id="Capa_2" data-name="Capa 2"><g id="Capa_1-2" data-name="Capa 1"><g id="Grupo_357" data-name="Grupo 357"><g id="Grupo_242" data-name="Grupo 242"><path id="Rectángulo_16-2" data-name="Rectángulo 16-2" class="cls-1" d="M163.5,39h164A55.5,55.5,0,0,1,383,94.5h0A55.5,55.5,0,0,1,327.5,150h-164A55.5,55.5,0,0,1,108,94.5h0A55.5,55.5,0,0,1,163.5,39Z"/><circle id="Elipse_3-2" data-name="Elipse 3-2" class="cls-2" cx="95" cy="95" r="95"/><circle id="Elipse_4-5" data-name="Elipse 4-5" class="cls-3" cx="94.5" cy="94.5" r="76.5"/><g id="Redes_Empresariales" data-name="Redes Empresariales" class="cls-4"><g class="cls-4"><path class="cls-3" d="M253.38,86l-2.7-3.9h-3V86h-3.24V72h6.06c3.74,0,6.08,1.94,6.08,5.08a4.55,4.55,0,0,1-2.88,4.42l3.14,4.5Zm-3-11.36H247.7v4.88h2.64c2,0,3-.92,3-2.44S252.32,74.64,250.34,74.64Z"/><path class="cls-3" d="M269.42,81.5h-8.14a2.87,2.87,0,0,0,3.08,2.16,3.65,3.65,0,0,0,2.7-1l1.66,1.8a5.64,5.64,0,0,1-4.44,1.74c-3.72,0-6.14-2.34-6.14-5.54a5.48,5.48,0,0,1,5.74-5.54,5.33,5.33,0,0,1,5.6,5.58C269.48,80.9,269.44,81.24,269.42,81.5Zm-8.18-1.82h5.3a2.69,2.69,0,0,0-5.3,0Z"/><path class="cls-3" d="M282.52,71.16V86h-3V84.76a4.14,4.14,0,0,1-3.36,1.4,5.54,5.54,0,0,1,0-11.08,4.13,4.13,0,0,1,3.22,1.3V71.16Zm-3.06,9.46a2.76,2.76,0,1,0-2.74,3A2.73,2.73,0,0,0,279.46,80.62Z"/><path class="cls-3" d="M295.88,81.5h-8.14a2.87,2.87,0,0,0,3.08,2.16,3.65,3.65,0,0,0,2.7-1l1.66,1.8a5.64,5.64,0,0,1-4.44,1.74c-3.72,0-6.14-2.34-6.14-5.54a5.48,5.48,0,0,1,5.74-5.54,5.33,5.33,0,0,1,5.6,5.58C295.94,80.9,295.9,81.24,295.88,81.5Zm-8.18-1.82H293a2.69,2.69,0,0,0-5.3,0Z"/><path class="cls-3" d="M297,85l1-2.24a7.36,7.36,0,0,0,3.74,1c1.44,0,2-.38,2-1,0-1.76-6.5,0-6.5-4.26,0-2,1.84-3.48,5-3.48a8.85,8.85,0,0,1,4.14.94l-1,2.22a6.18,6.18,0,0,0-3.1-.8c-1.4,0-2,.44-2,1,0,1.84,6.5.06,6.5,4.3,0,2-1.86,3.42-5.08,3.42A9.24,9.24,0,0,1,297,85Z"/></g><g class="cls-4"><path class="cls-3" d="M213.31,107.4V110H202.47V96h10.58v2.6h-7.36v3h6.5v2.52h-6.5v3.24Z"/><path class="cls-3" d="M233.85,103.84V110h-3.12v-5.68c0-1.74-.78-2.54-2-2.54s-2.38.9-2.38,2.82V110h-3.12v-5.68c0-1.74-.74-2.54-2-2.54s-2.36.9-2.36,2.82V110h-3.12V99.24h3v1.24a4.36,4.36,0,0,1,3.38-1.4,4,4,0,0,1,3.54,1.76,4.84,4.84,0,0,1,3.88-1.76C232,99.08,233.85,100.56,233.85,103.84Z"/><path class="cls-3" d="M248.37,104.62a5.23,5.23,0,0,1-5.36,5.54,4.18,4.18,0,0,1-3.24-1.3v5h-3.12V99.24h3v1.24a4.18,4.18,0,0,1,3.38-1.4A5.23,5.23,0,0,1,248.37,104.62Zm-3.16,0a2.75,2.75,0,1,0-2.74,3A2.72,2.72,0,0,0,245.21,104.62Z"/><path class="cls-3" d="M257.13,99.08V102c-.26,0-.46,0-.7,0-1.72,0-2.86.94-2.86,3V110h-3.12V99.24h3v1.42A4.34,4.34,0,0,1,257.13,99.08Z"/><path class="cls-3" d="M269.37,105.5h-8.14a2.87,2.87,0,0,0,3.08,2.16,3.65,3.65,0,0,0,2.7-1l1.66,1.8a5.64,5.64,0,0,1-4.44,1.74c-3.72,0-6.14-2.34-6.14-5.54a5.48,5.48,0,0,1,5.74-5.54,5.33,5.33,0,0,1,5.6,5.58C269.43,104.9,269.39,105.24,269.37,105.5Zm-8.18-1.82h5.3a2.69,2.69,0,0,0-5.3,0Z"/><path class="cls-3" d="M270.47,109l1-2.24a7.36,7.36,0,0,0,3.74,1c1.44,0,2-.38,2-1,0-1.76-6.5,0-6.5-4.26,0-2,1.84-3.48,5-3.48a8.85,8.85,0,0,1,4.14.94l-1,2.22a6.18,6.18,0,0,0-3.1-.8c-1.4,0-2,.44-2,1,0,1.84,6.5.06,6.5,4.3,0,2-1.86,3.42-5.08,3.42A9.24,9.24,0,0,1,270.47,109Z"/><path class="cls-3" d="M291.65,103.86V110h-2.92v-1.34a3.53,3.53,0,0,1-3.28,1.5c-2.52,0-4-1.4-4-3.26s1.34-3.22,4.62-3.22h2.48c0-1.34-.8-2.12-2.48-2.12a5.17,5.17,0,0,0-3.1,1l-1.12-2.18a8.27,8.27,0,0,1,4.64-1.3C289.75,99.08,291.65,100.6,291.65,103.86Zm-3.12,2.74v-1.1h-2.14c-1.46,0-1.92.54-1.92,1.26s.66,1.3,1.76,1.3A2.3,2.3,0,0,0,288.53,106.6Z"/><path class="cls-3" d="M301.15,99.08V102c-.26,0-.46,0-.7,0-1.72,0-2.86.94-2.86,3V110h-3.12V99.24h3v1.42A4.34,4.34,0,0,1,301.15,99.08Z"/><path class="cls-3" d="M302.63,96a1.78,1.78,0,0,1,1.94-1.74,1.75,1.75,0,0,1,1.94,1.68,1.95,1.95,0,0,1-3.88.06Zm.38,3.24h3.12V110H303Z"/><path class="cls-3" d="M318.55,103.86V110h-2.92v-1.34a3.53,3.53,0,0,1-3.28,1.5c-2.52,0-4-1.4-4-3.26s1.34-3.22,4.62-3.22h2.48c0-1.34-.8-2.12-2.48-2.12a5.17,5.17,0,0,0-3.1,1l-1.12-2.18a8.27,8.27,0,0,1,4.64-1.3C316.65,99.08,318.55,100.6,318.55,103.86Zm-3.12,2.74v-1.1h-2.14c-1.46,0-1.92.54-1.92,1.26s.66,1.3,1.76,1.3A2.3,2.3,0,0,0,315.43,106.6Z"/><path class="cls-3" d="M321.37,95.16h3.12V110h-3.12Z"/><path class="cls-3" d="M337.87,105.5h-8.14a2.87,2.87,0,0,0,3.08,2.16,3.65,3.65,0,0,0,2.7-1l1.66,1.8a5.64,5.64,0,0,1-4.44,1.74c-3.72,0-6.14-2.34-6.14-5.54a5.48,5.48,0,0,1,5.74-5.54,5.33,5.33,0,0,1,5.6,5.58C337.93,104.9,337.89,105.24,337.87,105.5Zm-8.18-1.82H335a2.69,2.69,0,0,0-5.3,0Z"/><path class="cls-3" d="M339,109l1-2.24a7.36,7.36,0,0,0,3.74,1c1.44,0,2-.38,2-1,0-1.76-6.5,0-6.5-4.26,0-2,1.84-3.48,5-3.48a8.85,8.85,0,0,1,4.14.94l-1,2.22a6.18,6.18,0,0,0-3.1-.8c-1.4,0-2,.44-2,1,0,1.84,6.5.06,6.5,4.3,0,2-1.86,3.42-5.08,3.42A9.24,9.24,0,0,1,339,109Z"/></g></g></g></g><g id="Grupo_542" data-name="Grupo 542"><g id="Grupo_541" data-name="Grupo 541"><path id="Trazado_2998" data-name="Trazado 2998" class="cls-5" d="M115.73,98.24l-9.17-11.67a19.77,19.77,0,0,0,5.55-12.38h14.2v1.56a7.06,7.06,0,1,0,2.82,0v-3a1.41,1.41,0,0,0-1.41-1.41H112.1A19.7,19.7,0,0,0,108,60.62l2-2h16.63a4.25,4.25,0,1,0,0-2.82H109.35a1.41,1.41,0,0,0-1,.41l-2.28,2.28A19.74,19.74,0,0,0,72.69,71.37H60.83L56.21,61a4.22,4.22,0,1,0-2.93.38l5.34,12a1.41,1.41,0,0,0,1.29.83H72.69a19.74,19.74,0,0,0,5.45,12.26L66.22,98.38A14.12,14.12,0,0,0,62,126.3c.23,0,.46.07.7.09v7.13a1.42,1.42,0,0,0,1.41,1.42h13a4.24,4.24,0,1,0,0-2.83H65.55v-5.72a14.12,14.12,0,0,0,3.82-27.17L80.25,88.34a19.64,19.64,0,0,0,24.18.1l7.84,10a19.75,19.75,0,1,0,3.45-.18ZM132,82.67a4.24,4.24,0,1,1-4.23-4.24A4.23,4.23,0,0,1,132,82.67Zm-1.41-26.84a1.41,1.41,0,1,1-1.41,1.41,1.41,1.41,0,0,1,1.41-1.41ZM54.26,58.65a1.41,1.41,0,1,1,1.41-1.41,1.42,1.42,0,0,1-1.41,1.41h0ZM81.1,132.11a1.42,1.42,0,1,1-1.41,1.42,1.42,1.42,0,0,1,1.41-1.42Zm-11.3-10a11.2,11.2,0,0,1-11.3,0V119.4a5.65,5.65,0,0,1,11.3,0Zm-8.48-14a2.83,2.83,0,1,1,2.82,2.83,2.82,2.82,0,0,1-2.82-2.83Zm11.3-3.26a11.32,11.32,0,0,1,0,15v-.39A8.5,8.5,0,0,0,68.23,112a5.65,5.65,0,1,0-8.18,0,8.48,8.48,0,0,0-4.39,7.42v.39a11.3,11.3,0,0,1,17-15Zm29.66-18.32a16.84,16.84,0,0,1-19.78,0V83.1a4.67,4.67,0,0,1,4.67-4.67H90.3l-2,5.13a1.41,1.41,0,0,0,.32,1.52l2.82,2.83a1.42,1.42,0,0,0,2,0h0l2.83-2.83a1.41,1.41,0,0,0,.31-1.52l-2-5.13h3.14a4.66,4.66,0,0,1,4.66,4.67ZM92.6,63.58a1,1,0,0,0-.13.28c-.72,2.14-4.58,3-7.06,3.19.38-4.74,2.6-7,7-7,4,0,6.22,1.9,6.85,5.85l-4.71-2.83a1.41,1.41,0,0,0-1.93.49Zm1.74,2.7,5,3c-.57,3.46-4.83,6.3-7,6.3a8.92,8.92,0,0,1-6.87-5.72c2.43-.21,6.79-.94,8.82-3.62Zm-.78,17.47-1.17,1.17-1.16-1.18,1.16-2.92Zm5-8.07a9.81,9.81,0,0,0,3.72-7.13c0-9.34-5.37-11.3-9.88-11.3s-9.89,2-9.89,11.3a9.79,9.79,0,0,0,3.72,7.13,7.47,7.47,0,0,0-6.55,7.42V84a17,17,0,1,1,25.43,0V83.1a7.46,7.46,0,0,0-6.55-7.43Zm26.33,56a16.84,16.84,0,0,1-19.78,0V128.3a4.66,4.66,0,0,1,4.66-4.66h3.14l-2,5.12a1.42,1.42,0,0,0,.31,1.53l2.83,2.82a1.41,1.41,0,0,0,2,0h0l2.82-2.82a1.42,1.42,0,0,0,.32-1.53l-2-5.12h3.14a4.66,4.66,0,0,1,4.66,4.66ZM117,111.49h0l5,3c-.57,3.46-4.83,6.3-7,6.3a8.92,8.92,0,0,1-6.87-5.73c2.42-.2,6.79-.94,8.82-3.61Zm-8.94.77h0c.38-4.73,2.61-7,7-7,4,0,6.22,1.9,6.85,5.85l-4.71-2.83a1.42,1.42,0,0,0-2.07.77c-.71,2.13-4.57,3-7.06,3.18ZM116.17,129,115,130.12,113.83,129,115,126Zm11.54.22v-.87a7.46,7.46,0,0,0-6.55-7.42,9.82,9.82,0,0,0,3.73-7.13c0-9.34-5.38-11.3-9.89-11.3s-9.89,2-9.89,11.3a9.79,9.79,0,0,0,3.72,7.13,7.47,7.47,0,0,0-6.55,7.42v.86a17,17,0,1,1,25.43,0Z"/></g></g></g></g></svg>