<svg xmlns="http://www.w3.org/2000/svg" width="53.104" height="51.076" viewBox="0 0 53.104 51.076">
  <g id="Grupo_792" data-name="Grupo 792" transform="translate(-1005.086 -1578.249)">
    <path id="Trazado_3399" data-name="Trazado 3399" d="M1033.5,1191.363a1.52,1.52,0,0,1,1.429-.652c3.375.023,6.75,0,10.125.021a.667.667,0,0,0,.734-.507c.459-1.127.975-2.231,1.5-3.405-.151-.008-.323-.025-.5-.026q-2.62,0-5.24,0a1.014,1.014,0,0,1-1.06-.711.884.884,0,0,1,.345-1.081,1.668,1.668,0,0,1,.855-.234c2.137-.019,4.274-.027,6.411,0a1.313,1.313,0,0,0,1.146-.549,20.092,20.092,0,0,1,10.734-6.78c.455-.116.606-.3.571-.754a13.887,13.887,0,0,1,0-1.576.459.459,0,0,0-.346-.521,3.445,3.445,0,0,1,1.17-6.693q3.662-.057,7.326,0a3.414,3.414,0,0,1,3.423,2.9,3.455,3.455,0,0,1-2.251,3.79.454.454,0,0,0-.343.517c.019.576.03,1.155,0,1.729-.022.371.131.487.467.569a19.751,19.751,0,0,1,8.655,4.526,20.595,20.595,0,0,1,3.772,26.415,1.028,1.028,0,1,1-1.722-1.066,18.53,18.53,0,1,0-18.916,8.279,18.274,18.274,0,0,0,13.128-2.532,3.412,3.412,0,0,1,.307-.179,1,1,0,0,1,1.338.352.971.971,0,0,1-.274,1.35,12.656,12.656,0,0,1-1.208.752,20.568,20.568,0,0,1-27.522-7.205,30.25,30.25,0,0,1-1.51-2.99.669.669,0,0,0-.708-.481c-2.12.019-4.24.01-6.36.007a3.187,3.187,0,0,1-.608-.033.98.98,0,0,1-.779-1,.964.964,0,0,1,.77-.947,3.357,3.357,0,0,1,.658-.047q2.747-.006,5.495,0h.623c-.036-.228-.064-.4-.091-.573-.15-.971-.32-1.939-.439-2.913-.04-.329-.148-.43-.467-.426-1.221.013-2.442.005-3.663,0-.17,0-.341,0-.508-.013a1.009,1.009,0,0,1-.956-1,.989.989,0,0,1,.995-1.012c1.289-.023,2.578-.039,3.866,0,.535.017.679-.156.715-.672.074-1.062.234-2.117.365-3.238h-.569c-3.138,0-6.275-.01-9.412.009a1.509,1.509,0,0,1-1.463-.69Zm31.519-18.6h0c1.187,0,2.374.01,3.561,0a1.434,1.434,0,0,0,1.534-1.42,1.413,1.413,0,0,0-1.53-1.42c-2.374-.013-4.749-.026-7.123.017a1.957,1.957,0,0,0-1.126.467,1.212,1.212,0,0,0-.279,1.452,1.373,1.373,0,0,0,1.35.9C1062.606,1172.77,1063.81,1172.763,1065.015,1172.763Zm-2.411,4.092h4.846v-2.007H1062.6Z" transform="translate(-27.91 410.883)" fill="#008396" stroke="#008396" stroke-width="1"/>
    <path id="Trazado_3400" data-name="Trazado 3400" d="M1033.5,1222.788a3.222,3.222,0,0,1,.759-.6.923.923,0,0,1,1.171.529,1.017,1.017,0,0,1-.343,1.256,1.04,1.04,0,0,1-1.334-.174c-.088-.1-.168-.2-.252-.3Z" transform="translate(-27.91 391.366)" fill="#008396" stroke="#008396" stroke-width="1"/>
    <path id="Trazado_3401" data-name="Trazado 3401" d="M1073.891,1220.818a15.782,15.782,0,1,1,15.793-15.747A15.8,15.8,0,0,1,1073.891,1220.818Zm.013-29.542a13.755,13.755,0,1,0,13.748,13.772A13.775,13.775,0,0,0,1073.9,1191.275Z" transform="translate(-36.767 403.191)" fill="#008396" stroke="#008396" stroke-width="1"/>
    <path id="Trazado_3402" data-name="Trazado 3402" d="M1104.79,1234.889a1.008,1.008,0,1,1-2.015.033,1.008,1.008,0,0,1,2.015-.033Z" transform="translate(-52.829 387.127)" fill="#008396" stroke="#008396" stroke-width="1"/>
    <path id="Trazado_3403" data-name="Trazado 3403" d="M1079.716,1212.477a3.147,3.147,0,0,1-2.971-4.109.672.672,0,0,0-.206-.829c-.606-.567-1.185-1.164-1.766-1.757a1.024,1.024,0,1,1,1.422-1.444c.593.582,1.189,1.162,1.759,1.765a.789.789,0,0,0,.831.232,6.622,6.622,0,0,1,1.945.006.719.719,0,0,0,.745-.187c1.38-1.4,2.774-2.789,4.165-4.18a6.525,6.525,0,0,1,.666-.626,1,1,0,0,1,1.3.1.985.985,0,0,1,.1,1.3,3.3,3.3,0,0,1-.375.413c-1.462,1.464-2.919,2.933-4.394,4.383a.685.685,0,0,0-.206.827A3.141,3.141,0,0,1,1079.716,1212.477Zm.034-4.275a1.108,1.108,0,0,0-1.125,1.116,1.125,1.125,0,0,0,1.089,1.11,1.113,1.113,0,0,0,1.146-1.1A1.092,1.092,0,0,0,1079.75,1208.2Z" transform="translate(-42.605 398.911)" fill="#008396" stroke="#008396" stroke-width="1"/>
    <path id="Trazado_3404" data-name="Trazado 3404" d="M1083.19,1229.323a4.839,4.839,0,0,1,0,.555,1,1,0,0,1-1.026.92.978.978,0,0,1-.981-.907,6.3,6.3,0,0,1,0-1.111,1.009,1.009,0,0,1,1-.955,1.033,1.033,0,0,1,1.015.942A4.711,4.711,0,0,1,1083.19,1229.323Z" transform="translate(-45.051 389.317)" fill="#008396" stroke="#008396" stroke-width="1"/>
    <path id="Trazado_3405" data-name="Trazado 3405" d="M1098.188,1212.348a5.535,5.535,0,0,1,.609,0,1,1,0,0,1,.884.905.918.918,0,0,1-.71,1.032,5.249,5.249,0,0,1-1.509.01.911.911,0,0,1-.726-1.065.964.964,0,0,1,.894-.886c.184-.019.372,0,.558,0Z" transform="translate(-50.654 394.887)" fill="#008396" stroke="#008396" stroke-width="1"/>
    <path id="Trazado_3406" data-name="Trazado 3406" d="M1083.225,1196.795c0,.186.013.373,0,.558a1,1,0,0,1-.963.934.953.953,0,0,1-1.012-.809,5.267,5.267,0,0,1-.006-1.313.954.954,0,0,1,1.042-.834,1,1,0,0,1,.941.956c.012.168,0,.338,0,.507Z" transform="translate(-45.07 401.005)" fill="#008396" stroke="#008396" stroke-width="1"/>
    <path id="Trazado_3407" data-name="Trazado 3407" d="M1065.666,1214.326a5.89,5.89,0,0,1-.658-.042.984.984,0,0,1-.821-.962.97.97,0,0,1,.835-1,6.586,6.586,0,0,1,1.167-.019.966.966,0,0,1,.962,1.031.98.98,0,0,1-.976.969c-.168.014-.339,0-.508,0Z" transform="translate(-38.949 394.905)" fill="#008396" stroke="#008396" stroke-width="1"/>
  </g>
</svg>
