<svg xmlns="http://www.w3.org/2000/svg" width="46.769" height="59.573" viewBox="0 0 46.769 59.573">
  <g id="Grupo_794" data-name="Grupo 794" transform="translate(-630.901 -1699.69)">
    <g id="Grupo_793" data-name="Grupo 793">
      <path id="Trazado_3408" data-name="Trazado 3408" d="M493.659,1363.323H481.616l-5.276-5.276a1.226,1.226,0,0,0-1.734,0l-5.635,5.635a1.225,1.225,0,0,0,0,1.733l5.276,5.275v4.4h-9.194a1.226,1.226,0,0,0-1.226,1.226v2.452h-4.9v-2.452a1.226,1.226,0,0,0-1.226-1.226h-7.356a1.226,1.226,0,0,0-1.226,1.226v7.356a1.226,1.226,0,0,0,1.226,1.226h2.37v10.712a1.226,1.226,0,0,0,1.226,1.225h10.9l-1.181,1.181a1.226,1.226,0,1,0,1.733,1.734l1.721-1.72a7.051,7.051,0,0,0,2.205,2.688,9.916,9.916,0,0,0,4.934,1.889v3.745h-4.9a1.226,1.226,0,0,0-1.226,1.226v7.355a1.226,1.226,0,0,0,1.226,1.226H481.6a1.226,1.226,0,0,0,1.226-1.226v-7.355a1.226,1.226,0,0,0-1.226-1.226h-4.9V1402.6a9.919,9.919,0,0,0,4.934-1.889,7.055,7.055,0,0,0,2.207-2.692l1.723,1.724a1.226,1.226,0,0,0,1.734-1.734l-1.181-1.181h7.543a1.226,1.226,0,0,0,1.226-1.226v-31.056A1.226,1.226,0,0,0,493.659,1363.323Zm-22.086,1.226,3.9-3.9,3.9,3.9-3.9,3.9Zm-5.294,12.99h18.389v4.9H466.279Zm-14.711,4.9v-4.9h4.9v4.9Zm15.551,10.751-1.729-1.729a1.226,1.226,0,0,0-1.734,1.733l1.181,1.181h-9.673v-9.485H457.7a1.226,1.226,0,0,0,1.226-1.226v-2.452h4.9v2.452a1.226,1.226,0,0,0,1.226,1.226h9.194v3.745a9.913,9.913,0,0,0-4.934,1.889A7.057,7.057,0,0,0,467.118,1393.194Zm13.259,15.607v4.9H470.57v-4.9Zm-4.9-8.582c-3.549,0-6.436-2.062-6.436-4.6s2.887-4.6,6.436-4.6,6.436,2.063,6.436,4.6S479.022,1400.219,475.474,1400.219Zm10.642-5.839,1.181-1.181a1.226,1.226,0,0,0-1.733-1.733l-1.733,1.733a7.065,7.065,0,0,0-2.2-2.67,9.913,9.913,0,0,0-4.934-1.889v-3.745h9.195a1.226,1.226,0,0,0,1.226-1.226v-7.355a1.226,1.226,0,0,0-1.226-1.226H476.7v-4.4l4.917-4.917h10.816v28.605Z" transform="translate(182.286 342.606)" fill="#008396" stroke="#008396" stroke-width="1"/>
    </g>
  </g>
</svg>
