<svg xmlns="http://www.w3.org/2000/svg" width="44.337" height="52.815" viewBox="0 0 44.337 52.815">
  <g id="Grupo_795" data-name="Grupo 795" transform="translate(-1016.163 -1703.886)">
    <path id="Trazado_3409" data-name="Trazado 3409" d="M1093.19,1364.078h-29.205a.942.942,0,0,0-.943.942v4.781h-7.634a4.618,4.618,0,0,0-4.613,4.613v36.868a4.618,4.618,0,0,0,4.613,4.612h20.036a4.617,4.617,0,0,0,4.612-4.612v-27.405h13.134a.942.942,0,0,0,.942-.942V1365.02A.942.942,0,0,0,1093.19,1364.078Zm-37.782,7.608h7.634v3.7h-10.363v-.97A2.731,2.731,0,0,1,1055.408,1371.686Zm22.764,36.671h-25.493v-7.786a.923.923,0,0,0,.318-.246l2.885-3.564,2.244,4.49a1.871,1.871,0,0,0,3.425-.18l2.1-5.665,2.312,7.707a1.852,1.852,0,0,0,1.685,1.33c.037,0,.074,0,.111,0a1.85,1.85,0,0,0,1.714-1.133l2.175-5.128,2.1,2.794a1.87,1.87,0,0,0,3.043-.071l1.387-2.041Zm-2.728,5.653h-20.036a2.732,2.732,0,0,1-2.728-2.728v-1.04h25.493v1.04A2.732,2.732,0,0,1,1075.444,1414.009Zm2.728-18.446a.931.931,0,0,0-.1.1l-2.819,4.181-2.1-2.794a1.87,1.87,0,0,0-3.215.385l-2.173,5.131-2.313-7.707a1.87,1.87,0,0,0-3.543-.12l-2.1,5.663-2.244-4.489a1.872,1.872,0,0,0-3.123-.347l-1.765,2.162v-20.466h10.363v5.667a.942.942,0,0,0,.943.942h5.652v4.7a.944.944,0,0,0,.582.871.958.958,0,0,0,.36.072.94.94,0,0,0,.666-.277l5.363-5.363h1.564Zm14.075-13.571h-16.03a.941.941,0,0,0-.666.276l-4.03,4.031v-3.365a.942.942,0,0,0-.943-.942h-5.653v-16.03h27.321Z" transform="translate(-34.132 340.308)" fill="#008396" stroke="#008396" stroke-width="1"/>
    <path id="Trazado_3410" data-name="Trazado 3410" d="M1078.221,1373.318h6.594a.942.942,0,1,0,0-1.885h-6.594a.942.942,0,0,0,0,1.885Z" transform="translate(-43.658 337.662)" fill="#008396" stroke="#008396" stroke-width="1"/>
    <path id="Trazado_3411" data-name="Trazado 3411" d="M1078.221,1379.2h19.784a.942.942,0,1,0,0-1.884h-19.784a.942.942,0,0,0,0,1.884Z" transform="translate(-43.658 335.545)" fill="#008396" stroke="#008396" stroke-width="1"/>
    <path id="Trazado_3412" data-name="Trazado 3412" d="M1078.221,1385.089h19.784a.942.942,0,1,0,0-1.884h-19.784a.942.942,0,0,0,0,1.884Z" transform="translate(-43.658 333.428)" fill="#008396" stroke="#008396" stroke-width="1"/>
  </g>
</svg>
