<svg xmlns="http://www.w3.org/2000/svg" width="50.829" height="57.131" viewBox="0 0 50.829 57.131">
  <g id="strategy" transform="translate(-27.272 0.25)">
    <g id="Grupo_261" data-name="Grupo 261" transform="translate(27.522)">
      <g id="Grupo_260" data-name="Grupo 260" transform="translate(0)">
        <path id="Trazado_264" data-name="Trazado 264" d="M70.939,27.372V48.137H65.276a.944.944,0,0,0-.944.944v5.663H29.41V1.888h41.53v12.27h1.888V.944A.944.944,0,0,0,71.883,0H28.466a.944.944,0,0,0-.944.944V55.687a.944.944,0,0,0,.944.944h36.81a.948.948,0,0,0,.667-.277l6.607-6.607a.944.944,0,0,0,.189-.277c.013-.029.021-.058.031-.088a.947.947,0,0,0,.049-.245c0-.02.011-.038.011-.058V27.372ZM66.22,53.409V50.024H69.6Z" transform="translate(-27.522)" fill="#164060" stroke="#164060" stroke-width="0.5"/>
      </g>
    </g>
    <g id="Grupo_263" data-name="Grupo 263" transform="translate(55.838 15.015)">
      <g id="Grupo_262" data-name="Grupo 262" transform="translate(0)">
        <path id="Trazado_265" data-name="Trazado 265" d="M288.482,128.1a3.015,3.015,0,0,0-4.166,0L267.8,144.615a.944.944,0,0,0-.277.667v2.832a.944.944,0,0,0,.944.944H271.3a.944.944,0,0,0,.667-.277l16.517-16.517A2.95,2.95,0,0,0,288.482,128.1ZM270.907,147.17h-1.5v-1.5l11.8-11.8,1.5,1.5Zm13.133-13.133-1.5-1.5,1.025-1.025,1.5,1.5Zm3.108-3.108-.748.748-1.5-1.5.748-.748a1.084,1.084,0,0,1,1.5,0A1.062,1.062,0,0,1,287.148,130.93Z" transform="translate(-267.522 -127.262)" fill="#164060" stroke="#164060" stroke-width="0.5"/>
      </g>
    </g>
    <g id="Grupo_265" data-name="Grupo 265" transform="translate(32.241 12.27)">
      <g id="Grupo_264" data-name="Grupo 264">
        <path id="Trazado_266" data-name="Trazado 266" d="M71.3,104a3.775,3.775,0,1,0,3.775,3.775A3.775,3.775,0,0,0,71.3,104Zm0,5.663a1.888,1.888,0,1,1,1.888-1.888A1.888,1.888,0,0,1,71.3,109.663Z" transform="translate(-67.522 -104)" fill="#164060" stroke="#164060" stroke-width="0.5"/>
      </g>
    </g>
    <g id="Grupo_267" data-name="Grupo 267" transform="translate(46.676 3.108)">
      <g id="Grupo_266" data-name="Grupo 266">
        <path id="Trazado_267" data-name="Trazado 267" d="M196.864,27.679l-1.335-1.335-2.164,2.164L191.2,26.344l-1.335,1.335,2.164,2.164-2.164,2.164,1.335,1.335,2.164-2.164,2.164,2.164,1.335-1.335L194.7,29.843Z" transform="translate(-189.866 -26.344)" fill="#164060" stroke="#164060" stroke-width="0.5"/>
      </g>
    </g>
    <g id="Grupo_269" data-name="Grupo 269" transform="translate(58.669 11.326)">
      <g id="Grupo_268" data-name="Grupo 268">
        <path id="Trazado_268" data-name="Trazado 268" d="M295.3,96a3.775,3.775,0,1,0,3.775,3.775A3.775,3.775,0,0,0,295.3,96Zm0,5.663a1.888,1.888,0,1,1,1.888-1.888A1.888,1.888,0,0,1,295.3,101.663Z" transform="translate(-291.522 -96)" fill="#164060" stroke="#164060" stroke-width="0.5"/>
      </g>
    </g>
    <g id="Grupo_271" data-name="Grupo 271" transform="translate(35.073 38.698)">
      <g id="Grupo_270" data-name="Grupo 270" transform="translate(0)">
        <path id="Trazado_269" data-name="Trazado 269" d="M95.3,328a3.775,3.775,0,1,0,3.775,3.775A3.775,3.775,0,0,0,95.3,328Zm0,5.663a1.888,1.888,0,1,1,1.888-1.888A1.888,1.888,0,0,1,95.3,333.663Z" transform="translate(-91.522 -328)" fill="#164060" stroke="#164060" stroke-width="0.5"/>
      </g>
    </g>
    <g id="Grupo_273" data-name="Grupo 273" transform="translate(36.293 24.817)">
      <g id="Grupo_272" data-name="Grupo 272" transform="translate(0)">
        <path id="Trazado_270" data-name="Trazado 270" d="M108.864,211.679l-1.335-1.335-2.164,2.164-2.164-2.164-1.335,1.335,2.164,2.164-2.164,2.164,1.335,1.335,2.164-2.164,2.164,2.164,1.335-1.335-2.164-2.164Z" transform="translate(-101.866 -210.344)" fill="#164060" stroke="#164060" stroke-width="0.5"/>
      </g>
    </g>
    <g id="Grupo_275" data-name="Grupo 275" transform="translate(59.89 38.031)">
      <g id="Grupo_274" data-name="Grupo 274">
        <path id="Trazado_271" data-name="Trazado 271" d="M308.864,323.679l-1.335-1.335-2.164,2.164-2.164-2.164-1.335,1.335,2.164,2.164-2.164,2.164,1.335,1.335,2.164-2.164,2.164,2.164,1.335-1.335-2.164-2.164Z" transform="translate(-301.866 -322.344)" fill="#164060" stroke="#164060" stroke-width="0.5"/>
      </g>
    </g>
    <g id="Grupo_277" data-name="Grupo 277" transform="translate(41.629 16.989)">
      <g id="Grupo_276" data-name="Grupo 276" transform="translate(0)">
        <path id="Trazado_272" data-name="Trazado 272" d="M150.2,145.888h1.6V144h-3.775a.944.944,0,0,0-.944.944v3.775h1.888V147.4a13.743,13.743,0,0,1-.7,17.677l1.4,1.27A15.641,15.641,0,0,0,150.2,145.888Z" transform="translate(-147.09 -144)" fill="#164060" stroke="#164060" stroke-width="0.5"/>
      </g>
    </g>
    <g id="Grupo_279" data-name="Grupo 279" transform="translate(46.399 43.417)">
      <g id="Grupo_278" data-name="Grupo 278" transform="translate(0)">
        <path id="Trazado_273" data-name="Trazado 273" d="M191.3,368a3.775,3.775,0,1,0,3.775,3.775A3.775,3.775,0,0,0,191.3,368Zm0,5.663a1.888,1.888,0,1,1,1.888-1.888A1.888,1.888,0,0,1,191.3,373.663Z" transform="translate(-187.522 -368)" fill="#164060" stroke="#164060" stroke-width="0.5"/>
      </g>
    </g>
    <g id="Grupo_281" data-name="Grupo 281" transform="translate(41.68 10.659)">
      <g id="Grupo_280" data-name="Grupo 280">
        <path id="Trazado_274" data-name="Trazado 274" d="M162.347,93.176l-2.832-2.832-1.335,1.335,1.22,1.22H147.522v1.888H159.4l-1.22,1.22,1.335,1.335,2.832-2.832A.944.944,0,0,0,162.347,93.176Z" transform="translate(-147.522 -90.344)" fill="#164060" stroke="#164060" stroke-width="0.5"/>
      </g>
    </g>
    <g id="Grupo_283" data-name="Grupo 283" transform="translate(49.231 18.877)">
      <g id="Grupo_282" data-name="Grupo 282" transform="translate(0)">
        <path id="Trazado_275" data-name="Trazado 275" d="M220.96,160h-3.775v1.888h1.529a26.528,26.528,0,0,0-7.192,18.229v2.536h1.888v-2.536a24.661,24.661,0,0,1,6.607-16.861v1.464H221.9v-3.775A.944.944,0,0,0,220.96,160Z" transform="translate(-211.521 -160)" fill="#164060" stroke="#164060" stroke-width="0.5"/>
      </g>
    </g>
  </g>
</svg>
