<svg xmlns="http://www.w3.org/2000/svg" width="51.184" height="51.194" viewBox="0 0 51.184 51.194">
  <g id="Grupo_351" data-name="Grupo 351" transform="translate(-701.001 -224)">
    <path id="Trazado_365" data-name="Trazado 365" d="M731.047,224.25c.26.223.537.43.779.672q4.433,4.421,8.862,8.846a1.759,1.759,0,0,1,.563,1.355c-.017,4.141-.009,8.282-.01,12.423a3.387,3.387,0,0,1-.015.494.984.984,0,0,1-1.955-.039,4.588,4.588,0,0,1-.008-.495q0-5.593,0-11.185v-.587h-.57c-1.947,0-3.893,0-5.84,0a2.965,2.965,0,0,1-3.092-3.079c-.007-1.947,0-3.893,0-5.84v-.583H704.588c-1.052,0-1.358.3-1.358,1.35q0,22.024,0,44.048c0,1.015.313,1.326,1.333,1.326h8.171V272.4q0-3.539,0-7.077c0-.881.348-1.237,1.224-1.239q2.945-.007,5.889,0c.845,0,1.2.366,1.2,1.215q0,3.539,0,7.077v.556h1.981v-.566q0-6.335,0-12.67c0-.955.329-1.289,1.269-1.29q2.92,0,5.84,0c.844,0,1.2.36,1.2,1.206q0,6.36,0,12.719v.6h1.981v-.574q0-9.775,0-19.549c0-1.022.31-1.334,1.324-1.334q2.871,0,5.741,0c.909,0,1.249.344,1.249,1.26q0,9.775,0,19.549v.631h1.981V258.792c0-.148-.005-.3,0-.445a1.011,1.011,0,0,1,1.005-1.009.99.99,0,0,1,.964,1c.019.841.007,1.683.007,2.524q0,5.741,0,11.482v.577h4.326V246.933H745.6c0,.492,0,.967,0,1.441,0,.825.01,1.65,0,2.475a.966.966,0,0,1-.969,1.03.955.955,0,0,1-1-1q-.021-2.474,0-4.949a.94.94,0,0,1,.993-1c2.111-.012,4.223,0,6.335-.005a1.111,1.111,0,0,1,.982.707v28.609a1.355,1.355,0,0,1-1.346.7q-22.986-.019-45.972-.01a3.015,3.015,0,0,1-3.365-3.353q0-22,0-43.992c0-.148,0-.3,0-.445a2.961,2.961,0,0,1,2.011-2.729c.154-.054.307-.109.461-.164Zm4.29,29.226v19.44h4.3v-19.44Zm-6.006,19.456v-12.51h-4.3v12.51ZM719.048,266.1h-4.3v6.83h4.3Zm18.621-32.344-5.925-5.918c0,1.629-.016,3.323.009,5.016a.953.953,0,0,0,1.049.9c.742.011,1.485,0,2.227,0Z" fill="#164060" stroke="#164060" stroke-width="0.5"/>
    <path id="Trazado_366" data-name="Trazado 366" d="M759.649,278.2a9.119,9.119,0,1,1-10.065-10.052c0-.471,0-.957,0-1.443,0-1,.318-1.308,1.3-1.292A11.807,11.807,0,0,1,762.3,275.882a12.342,12.342,0,0,1,.08,1.283.962.962,0,0,1-1.017,1.031C760.805,278.208,760.246,278.2,759.649,278.2Zm-2.052,0h-6.709c-.995,0-1.3-.3-1.3-1.295q0-3.093,0-6.185V270.2a7.106,7.106,0,1,0,8.013,8Zm2.7-2a9.622,9.622,0,0,0-8.707-8.7v8.7Z" transform="translate(-34.906 -35.727)" fill="#164060" stroke="#164060" stroke-width="0.5"/>
    <path id="Trazado_367" data-name="Trazado 367" d="M752.186,446.866h-9.008a4.755,4.755,0,0,1-.544-.015.97.97,0,0,1-.86-.882.953.953,0,0,1,.649-1,2.341,2.341,0,0,1,.682-.079q9.107-.006,18.214,0a3.134,3.134,0,0,1,.445.014,1,1,0,0,1,.887,1.018.953.953,0,0,1-.962.935c-.907.021-1.815.01-2.722.01Z" transform="translate(-35.171 -191.515)" fill="#164060" stroke="#164060" stroke-width="0.5"/>
    <path id="Trazado_368" data-name="Trazado 368" d="M745.923,481.168c1.006,0,2.012-.006,3.018,0,.7.006,1.13.38,1.14.964a1,1,0,0,1-1.106,1.005q-3.043.021-6.086,0a1,1,0,0,1-1.116-1c0-.583.438-.966,1.131-.972C743.91,481.161,744.916,481.168,745.923,481.168Z" transform="translate(-35.174 -223.005)" fill="#164060" stroke="#164060" stroke-width="0.5"/>
    <path id="Trazado_369" data-name="Trazado 369" d="M1023.288,447.453a1.009,1.009,0,0,1-1.008-.954.986.986,0,1,1,1.971-.046A1,1,0,0,1,1023.288,447.453Z" transform="translate(-278.656 -192.032)" fill="#164060" stroke="#164060" stroke-width="0.5"/>
    <path id="Trazado_370" data-name="Trazado 370" d="M828.306,481.233a.976.976,0,1,1-.031,1.951.976.976,0,1,1,.031-1.951Z" transform="translate(-109.425 -223.064)" fill="#164060" stroke="#164060" stroke-width="0.5"/>
  </g>
</svg>
