<svg xmlns="http://www.w3.org/2000/svg" width="38" height="39.333" viewBox="0 0 38 39.333">
  <g id="controls" transform="translate(0 1)">
    <path id="Trazado_371" data-name="Trazado 371" d="M5.667,9.333a4.67,4.67,0,0,0,4.613-4H36.333a.667.667,0,1,0,0-1.333H10.28A4.664,4.664,0,1,0,5.667,9.333Zm0-8A3.333,3.333,0,1,1,2.333,4.667,3.337,3.337,0,0,1,5.667,1.333Z" fill="#164060" stroke="#164060" stroke-width="2"/>
    <path id="Trazado_372" data-name="Trazado 372" d="M32.333,42a4.67,4.67,0,0,0-4.613,4H1.667a.667.667,0,0,0,0,1.333H27.72A4.664,4.664,0,1,0,32.333,42Zm0,8a3.333,3.333,0,1,1,3.333-3.333A3.337,3.337,0,0,1,32.333,50Z" transform="translate(0 -14)" fill="#164060" stroke="#164060" stroke-width="2"/>
    <path id="Trazado_373" data-name="Trazado 373" d="M36.333,24.862H23.912a4.8,4.8,0,0,0-9.548,0H1.667a.667.667,0,0,0,0,1.333H14.406a4.8,4.8,0,0,0,9.463,0H36.333a.667.667,0,1,0,0-1.333Zm-17.2,4a3.471,3.471,0,1,1,3.471-3.471A3.475,3.475,0,0,1,19.138,28.862Z" transform="translate(0 -6.862)" fill="#164060" stroke="#164060" stroke-width="2"/>
  </g>
</svg>
