<svg xmlns="http://www.w3.org/2000/svg" xmlns:xlink="http://www.w3.org/1999/xlink" viewBox="0 0 724 466.9"><defs><style>.cls-1{fill:#a3f4ab;}.cls-2{fill:none;stroke:#707070;stroke-miterlimit:10;stroke-width:10px;}.cls-3{fill:url(#Degradado_sin_nombre_402);}.cls-4{fill:#aaa;}.cls-5{fill:url(#Degradado_sin_nombre_424);}.cls-6{fill:#55505c;}.cls-7{fill:#736f78;}.cls-8{fill:url(#Degradado_sin_nombre_425);}.cls-9{fill:#6f6c74;}.cls-10{fill:#828085;}.cls-11{fill:#d8d7d9;}.cls-12{fill:url(#Degradado_sin_nombre_423);}.cls-13{fill:url(#Degradado_sin_nombre_424-2);}.cls-14{fill:url(#Degradado_sin_nombre_425-2);}.cls-15{fill:#e7edeb;}.cls-16{fill:#e4f1eb;}.cls-17{fill:#b3bdb8;}.cls-18{fill:#d4dfd9;}.cls-19{fill:#f1f8f5;}.cls-20{fill:#f7fffb;}.cls-21{fill:#cdd8d2;}.cls-22{fill:#e2efe9;}.cls-23{fill:#150d21;}.cls-24{fill:#eaf7f1;}.cls-25{fill:#c1cbc5;}.cls-26{fill:#dde8e2;}.cls-27{fill:#332e3c;}.cls-28{fill:url(#Degradado_sin_nombre_426);}.cls-29{fill:#6fbad6;}.cls-30{fill:#6e9737;}.cls-31{fill:#3d6317;}.cls-32{fill:#1b1525;}.cls-33{fill:#c9f2ff;}.cls-34{fill:#bce651;}.cls-35{fill:#282133;}.cls-36{fill:url(#Degradado_sin_nombre_424-3);}.cls-37{fill:url(#Degradado_sin_nombre_425-3);}.cls-38{fill:url(#Degradado_sin_nombre_423-2);}.cls-39{fill:url(#Degradado_sin_nombre_424-4);}.cls-40{fill:url(#Degradado_sin_nombre_425-4);}.cls-41{fill:url(#Degradado_sin_nombre_426-2);}.cls-42{fill:url(#Degradado_sin_nombre_424-5);}.cls-43{fill:url(#Degradado_sin_nombre_425-5);}.cls-44{fill:url(#Degradado_sin_nombre_423-3);}.cls-45{fill:url(#Degradado_sin_nombre_424-6);}.cls-46{fill:url(#Degradado_sin_nombre_425-6);}.cls-47{fill:url(#Degradado_sin_nombre_426-3);}.cls-48{fill:url(#Degradado_sin_nombre_424-7);}.cls-49{fill:url(#Degradado_sin_nombre_425-7);}.cls-50{fill:url(#Degradado_sin_nombre_423-4);}.cls-51{fill:url(#Degradado_sin_nombre_424-8);}.cls-52{fill:url(#Degradado_sin_nombre_425-8);}.cls-53{fill:url(#Degradado_sin_nombre_426-4);}</style><linearGradient id="Degradado_sin_nombre_402" x1="-650.83" y1="650.29" x2="-649.83" y2="650.29" gradientTransform="matrix(24.41, 0, 0, -24.41, 16250.07, 16114.53)" gradientUnits="userSpaceOnUse"><stop offset="0" stop-color="#00519c"/><stop offset="1" stop-color="#00ba98"/></linearGradient><linearGradient id="Degradado_sin_nombre_424" x1="-1783.9" y1="650.2" x2="-1782.9" y2="650.2" gradientTransform="matrix(6.2, 0, 0, -37.8, 4681.67, 24686.53)" gradientUnits="userSpaceOnUse"><stop offset="0.21" stop-color="#55505c"/><stop offset="1" stop-color="#5a5561"/></linearGradient><linearGradient id="Degradado_sin_nombre_425" x1="-2116.61" y1="650.19" x2="-2115.61" y2="650.19" gradientTransform="matrix(4.81, 0, 0, -40.23, 3807.65, 26226.17)" gradientUnits="userSpaceOnUse"><stop offset="0.21" stop-color="#605a68"/><stop offset="1" stop-color="#655f6d"/></linearGradient><linearGradient id="Degradado_sin_nombre_423" x1="-672.58" y1="650.3" x2="-672.4" y2="650.3" gradientTransform="matrix(34.48, 0, 0, -24.15, 22475.81, 15839.15)" gradientUnits="userSpaceOnUse"><stop offset="0.21" stop-color="#4c4852"/><stop offset="1" stop-color="#423e46"/></linearGradient><linearGradient id="Degradado_sin_nombre_424-2" x1="-1757.72" y1="650.2" x2="-1756.72" y2="650.2" gradientTransform="matrix(6.2, 0, 0, -37.8, 4600.51, 24639.02)" xlink:href="#Degradado_sin_nombre_424"/><linearGradient id="Degradado_sin_nombre_425-2" x1="-2082.96" y1="650.19" x2="-2081.96" y2="650.19" gradientTransform="matrix(4.81, 0, 0, -40.23, 3725.1, 26178.66)" xlink:href="#Degradado_sin_nombre_425"/><linearGradient id="Degradado_sin_nombre_426" x1="-821.84" y1="650.29" x2="-820.84" y2="650.29" gradientTransform="matrix(36.62, 0, 0, -25.22, 23771.48, 16523.7)" gradientUnits="userSpaceOnUse"><stop offset="0.21" stop-color="#504b57"/><stop offset="1" stop-color="#46434b"/></linearGradient><linearGradient id="Degradado_sin_nombre_424-3" x1="-1886.91" y1="650.2" x2="-1885.91" y2="650.2" gradientTransform="matrix(6.2, 0, 0, -37.8, 5000.56, 24691.14)" xlink:href="#Degradado_sin_nombre_424"/><linearGradient id="Degradado_sin_nombre_425-3" x1="-2249.13" y1="650.19" x2="-2248.13" y2="650.19" gradientTransform="matrix(4.81, 0, 0, -40.23, 4126.54, 26230.08)" xlink:href="#Degradado_sin_nombre_425"/><linearGradient id="Degradado_sin_nombre_423-2" x1="-676.92" y1="650.3" x2="-676.74" y2="650.3" gradientTransform="matrix(34.48, 0, 0, -24.15, 22794.78, 15844.4)" xlink:href="#Degradado_sin_nombre_423"/><linearGradient id="Degradado_sin_nombre_424-4" x1="-1860.56" y1="650.2" x2="-1859.56" y2="650.2" gradientTransform="matrix(6.2, 0, 0, -37.8, 4920.02, 24643.63)" xlink:href="#Degradado_sin_nombre_424"/><linearGradient id="Degradado_sin_nombre_425-4" x1="-2215.24" y1="650.19" x2="-2214.24" y2="650.19" gradientTransform="matrix(4.81, 0, 0, -40.23, 4044.61, 26183.92)" xlink:href="#Degradado_sin_nombre_425"/><linearGradient id="Degradado_sin_nombre_426-2" x1="-839.25" y1="650.29" x2="-838.25" y2="650.29" gradientTransform="matrix(36.62, 0, 0, -25.22, 24088.37, 16525.66)" xlink:href="#Degradado_sin_nombre_426"/><linearGradient id="Degradado_sin_nombre_424-5" x1="-1892.34" y1="650.2" x2="-1891.34" y2="650.2" gradientTransform="matrix(6.2, 0, 0, -37.8, 5017.35, 24945.36)" xlink:href="#Degradado_sin_nombre_424"/><linearGradient id="Degradado_sin_nombre_425-5" x1="-2256.1" y1="650.19" x2="-2255.1" y2="650.19" gradientTransform="matrix(4.81, 0, 0, -40.23, 4143.33, 26486.32)" xlink:href="#Degradado_sin_nombre_425"/><linearGradient id="Degradado_sin_nombre_423-3" x1="-670.82" y1="650.3" x2="-670.64" y2="650.3" gradientTransform="matrix(34.48, 0, 0, -24.16, 22811.41, 16102.55)" xlink:href="#Degradado_sin_nombre_423"/><linearGradient id="Degradado_sin_nombre_424-6" x1="-1865.97" y1="650.2" x2="-1864.97" y2="650.2" gradientTransform="matrix(6.2, 0, 0, -37.8, 4936.8, 24899.84)" xlink:href="#Degradado_sin_nombre_424"/><linearGradient id="Degradado_sin_nombre_425-6" x1="-2222.35" y1="650.19" x2="-2221.35" y2="650.19" gradientTransform="matrix(4.81, 0, 0, -40.23, 4061.16, 26439.53)" xlink:href="#Degradado_sin_nombre_425"/><linearGradient id="Degradado_sin_nombre_426-3" x1="-840.17" y1="650.29" x2="-839.17" y2="650.29" gradientTransform="matrix(36.62, 0, 0, -25.22, 24107.16, 16783.85)" xlink:href="#Degradado_sin_nombre_426"/><linearGradient id="Degradado_sin_nombre_424-7" x1="-1788.8" y1="650.2" x2="-1787.8" y2="650.2" gradientTransform="matrix(6.2, 0, 0, -37.8, 4697.54, 24937.39)" xlink:href="#Degradado_sin_nombre_424"/><linearGradient id="Degradado_sin_nombre_425-7" x1="-2122.89" y1="650.19" x2="-2121.89" y2="650.19" gradientTransform="matrix(4.81, 0, 0, -40.23, 3821.91, 26476.4)" xlink:href="#Degradado_sin_nombre_425"/><linearGradient id="Degradado_sin_nombre_423-4" x1="-666.59" y1="650.3" x2="-666.41" y2="650.3" gradientTransform="matrix(34.48, 0, 0, -24.16, 22490.53, 16092.63)" xlink:href="#Degradado_sin_nombre_423"/><linearGradient id="Degradado_sin_nombre_424-8" x1="-1762.65" y1="650.2" x2="-1761.65" y2="650.2" gradientTransform="matrix(6.2, 0, 0, -37.81, 4615.16, 24891.83)" xlink:href="#Degradado_sin_nombre_424"/><linearGradient id="Degradado_sin_nombre_425-8" x1="-2089.34" y1="650.19" x2="-2088.34" y2="650.19" gradientTransform="matrix(4.81, 0, 0, -40.23, 3739.98, 26429.57)" xlink:href="#Degradado_sin_nombre_425"/><linearGradient id="Degradado_sin_nombre_426-4" x1="-822.67" y1="650.29" x2="-821.66" y2="650.29" gradientTransform="matrix(36.62, 0, 0, -25.22, 23786.74, 16773.93)" xlink:href="#Degradado_sin_nombre_426"/></defs><title>Recurso 19</title><g id="Capa_2" data-name="Capa 2"><g id="Capa_1-2" data-name="Capa 1"><g id="Grupo_540" data-name="Grupo 540"><g id="Grupo_490" data-name="Grupo 490"><path id="Trazado_2542" data-name="Trazado 2542" class="cls-1" d="M453.17,16.84c-192.88-22-390.93,60.08-441.31,183-18.55,45.26-15.3,91.28,9.43,133.07,40.49,68.46,133.77,117.21,249.54,130.42a559.7,559.7,0,0,0,63.27,3.56c171.21,0,333.17-77.1,378-186.57,18.55-45.27,15.3-91.29-9.43-133.08C662.23,78.79,568.94,30,453.17,16.84ZM710.11,279.5c-50,122.08-246.95,203.59-439,181.66C156,448,63.32,399.68,23.17,331.81c-24.35-41.18-27.56-86.52-9.28-131.13C58.44,92,219.46,15.45,389.81,15.45A557.24,557.24,0,0,1,452.94,19C568,32.14,660.69,80.5,700.84,148.37,725.19,189.54,728.4,234.89,710.11,279.5Z"/></g><g id="Grupo_491" data-name="Grupo 491"><path id="Trazado_2543" data-name="Trazado 2543" class="cls-1" d="M437.42,54.48c-159.81-18.21-323.9,49.91-365.7,151.89-15.47,37.76-12.76,76.15,7.87,111,33.63,56.86,111,97.35,207,108.3a462.49,462.49,0,0,0,52.35,2.95c141.85,0,276.12-64,313.36-154.84,15.47-37.77,12.75-76.15-7.87-111C610.79,105.92,533.41,65.43,437.42,54.48ZM648.24,272.13C607.12,372.44,445.07,439.37,287.07,421.34c-94.62-10.79-170.78-50.49-203.72-106.18C63.45,281.52,60.83,244.47,75.77,208c36.6-89.3,169-152.14,309.15-152.14a460.84,460.84,0,0,1,52,2.94C531.55,69.62,607.71,109.33,640.65,165c19.91,33.64,22.53,70.68,7.59,107.12Z"/></g><g id="Grupo_492" data-name="Grupo 492"><path id="Trazado_2544" data-name="Trazado 2544" class="cls-1" d="M421.67,92.13C295,77.68,164.79,131.85,131.57,212.9c-12.4,30.26-10.22,61,6.31,89,26.78,45.27,88.26,77.5,164.45,86.18a364.89,364.89,0,0,0,41.4,2.34c112.53,0,219.1-50.89,248.71-123.11,12.4-30.26,10.21-61-6.31-89C559.34,133,497.86,100.82,421.67,92.13ZM586.36,264.78C554.18,343.3,427.17,395.67,303.07,381.53c-74.16-8.46-133.8-39.5-159.54-83-15.44-26.1-17.48-54.85-5.88-83.13,28.64-69.88,132.43-119,242.36-119a358.5,358.5,0,0,1,40.92,2.31c74.16,8.45,133.8,39.48,159.54,83,15.44,26.1,17.48,54.85,5.89,83.13Z"/></g><g id="Grupo_493" data-name="Grupo 493"><path id="Trazado_2545" data-name="Trazado 2545" class="cls-1" d="M405.93,129.78c-93.64-10.74-189.86,29.53-214.5,89.65-9.32,22.75-7.68,45.89,4.75,66.9C216.1,320,261.68,344,318.08,350.39a270,270,0,0,0,30.48,1.73c83.19,0,162.05-37.8,184-91.39,9.32-22.75,7.68-45.88-4.75-66.9C507.9,160.16,462.33,136.21,405.93,129.78ZM524.48,257.42c-23.26,56.74-115.4,94.5-205.4,84.29-53.7-6.12-96.83-28.49-115.37-59.83-11-18.56-12.42-39-4.18-59.13,20.69-50.47,95.87-86,175.59-86a260.56,260.56,0,0,1,29.82,1.68c53.7,6.12,96.83,28.49,115.37,59.83C531.28,216.86,532.72,237.3,524.48,257.42Z"/></g><g id="Grupo_494" data-name="Grupo 494"><path id="Trazado_2546" data-name="Trazado 2546" class="cls-1" d="M390.17,167.42c-60.51-6.87-122.82,19.36-138.89,58.54-6.24,15.24-5.14,30.75,3.19,44.83,13.07,22.1,42.73,37.79,79.36,42a174.46,174.46,0,0,0,19.53,1.1c53.86,0,105-24.68,119.36-59.65,6.25-15.24,5.14-30.75-3.18-44.83C456.47,187.28,426.8,171.6,390.17,167.42Zm72.43,82.65c-14.33,34.95-71.53,58.21-127.54,51.82-33.23-3.8-59.85-17.5-71.18-36.66a38.21,38.21,0,0,1-2.47-35.12c12.72-31.06,59.31-52.88,108.82-52.88a167.08,167.08,0,0,1,18.71,1.05c33.24,3.8,59.85,17.5,71.18,36.67a38.21,38.21,0,0,1,2.47,35.12Z"/></g><g id="Grupo_495" data-name="Grupo 495"><path id="Trazado_2547" data-name="Trazado 2547" class="cls-1" d="M369.49,219c-16.78-1.92-33.55,5.34-38.14,16.53a15.12,15.12,0,0,0,1,13.72c3.8,6.43,11.89,10.79,22.18,12a46.77,46.77,0,0,0,5.42.31c14.86,0,28.63-6.86,32.72-16.84a15.09,15.09,0,0,0-1-13.72C387.87,224.52,379.79,220.16,369.49,219Zm15.84,22.69c-3.2,7.81-16.93,13.12-29.92,11.67-7.58-.87-13.82-4-16.27-8.13a7.2,7.2,0,0,1-.47-6.7c2.84-6.93,13.94-11.91,25.5-11.91a40.77,40.77,0,0,1,4.42.24c7.59.87,13.82,4,16.27,8.13a7.17,7.17,0,0,1,.47,6.7Z"/></g><line id="Línea_28" data-name="Línea 28" class="cls-2" x1="231.5" y1="343.31" x2="500.8" y2="128.94"/><line id="Línea_29" data-name="Línea 29" class="cls-2" x1="225.45" y1="134.69" x2="498.03" y2="344.88"/><circle id="Elipse_121" data-name="Elipse 121" class="cls-3" cx="361.95" cy="239.56" r="12.21"/><g id="Grupo_506" data-name="Grupo 506"><g id="Grupo_505" data-name="Grupo 505"><g id="Grupo_504" data-name="Grupo 504"><path id="Trazado_2548" data-name="Trazado 2548" class="cls-4" d="M169.26,84.33a1.36,1.36,0,0,0-.21-.37l-.06-.07a1.21,1.21,0,0,0-.39-.28l-3-1.71,17-9.55-21.07-6.69-11.29,5.5-7.88-4.55h-.05a1.07,1.07,0,0,0-.5-.07h0a2.09,2.09,0,0,0-.62.15h0l-.31-.17L115.46,52.44h0l-.09,0a.7.7,0,0,0-.35-.06l-.15,0-.15.05a1.58,1.58,0,0,0-.35.16h0a1.65,1.65,0,0,0-1.07.94l0,0a1.65,1.65,0,0,0-.2,1,1.94,1.94,0,0,0,.05.2h0a1.46,1.46,0,0,0,0,.3.84.84,0,0,0,.42.73h0l25,15v0a1.33,1.33,0,0,0,.78,1.24h0l4.78,2.77L128.62,101,131,113l5.54,3.23L161.79,113h0a1.31,1.31,0,0,0,.59.09,4,4,0,0,0,2.7-2.07,3.33,3.33,0,0,0,.48-2.6.14.14,0,0,1,0-.06,1.31,1.31,0,0,0-.21-.36l-.06-.08a1.05,1.05,0,0,0-.39-.27l-3.34-1.93L158.59,85l6.92,4h0a1.48,1.48,0,0,0,.59.08A3.92,3.92,0,0,0,168.81,87a3.36,3.36,0,0,0,.48-2.6A.05.05,0,0,1,169.26,84.33Z"/><g id="Grupo_496" data-name="Grupo 496"><path id="Trazado_2549" data-name="Trazado 2549" class="cls-5" d="M267,87.8v35.93c.15,1-1.11,1.87-2.82,1.87a3.94,3.94,0,0,1-3.14-1.31,1.29,1.29,0,0,1-.22-.56h0V87.8Z"/><path id="Trazado_2550" data-name="Trazado 2550" class="cls-6" d="M261.05,88.35a3.91,3.91,0,0,0,3.14,1.32c1.71,0,3-.84,2.82-1.87a1.21,1.21,0,0,0-.22-.55,3.88,3.88,0,0,0-3.15-1.31,3.81,3.81,0,0,0-2.13.56,1.26,1.26,0,0,0-.57,1.67A1.08,1.08,0,0,0,261.05,88.35Z"/><path id="Trazado_2551" data-name="Trazado 2551" class="cls-7" d="M261.05,88.35a3.91,3.91,0,0,0,3.14,1.32c1.71,0,3-.84,2.82-1.87a1.21,1.21,0,0,0-.22-.55,3.88,3.88,0,0,0-3.15-1.31,3.81,3.81,0,0,0-2.13.56,1.26,1.26,0,0,0-.57,1.67A1.08,1.08,0,0,0,261.05,88.35Z"/><path id="Trazado_2552" data-name="Trazado 2552" class="cls-8" d="M261.52,87h0a.88.88,0,0,1,0-.28l.47-38.5h3.83L266.32,87c.11.8-.87,1.45-2.19,1.45a3.07,3.07,0,0,1-2.44-1,1.25,1.25,0,0,1-.17-.43Z"/><path id="Trazado_2553" data-name="Trazado 2553" class="cls-9" d="M262,48.18v.09a.7.7,0,0,0,.15.34,2.31,2.31,0,0,0,1.94.72,2.76,2.76,0,0,0,.4-.06c.76-.13,1.31-.54,1.34-1v-.17a.68.68,0,0,0-.13-.33.52.52,0,0,0-.1-.11l-.12-.11a1.66,1.66,0,0,0-.32-.22h0A2.72,2.72,0,0,0,263.9,47h-.15a2.89,2.89,0,0,0-1.05.25h0l-.26.17a.88.88,0,0,0-.43.73Z"/><path id="Trazado_2554" data-name="Trazado 2554" class="cls-10" d="M262.53,47.74a.66.66,0,0,0,.11.24,1.34,1.34,0,0,0,.21.2,1.92,1.92,0,0,0,1.19.31l.35,0a1.42,1.42,0,0,0,.63-.27.6.6,0,0,0,.28-.58.51.51,0,0,0-.1-.24l0,0,0,0a1.69,1.69,0,0,0-1.36-.45h0a1.59,1.59,0,0,0-.92.29l-.15.14h0A.65.65,0,0,0,262.53,47.74Z"/><path id="Trazado_2555" data-name="Trazado 2555" class="cls-11" d="M263.77,46.85a.59.59,0,0,1,.13.18,3.94,3.94,0,0,1,.45,1.15c0,.09,0,.18,0,.27a4.48,4.48,0,0,1,.1.82h0l.43,39v.09a2.32,2.32,0,0,1,.49.5,1.39,1.39,0,0,1,.22.55v35.91c.92-.32,1.48-.92,1.38-1.62V87.8a1.21,1.21,0,0,0-.22-.55,2.28,2.28,0,0,0-.48-.5l-.48-38.51v-.16a.64.64,0,0,0-.13-.33.4.4,0,0,0-.1-.12l-.12-.11a2.2,2.2,0,0,0-.3-.19l0,0h0a1.67,1.67,0,0,0-1.36-.46Z"/></g><path id="Trazado_2556" data-name="Trazado 2556" class="cls-12" d="M230.56,139.3l30.74-18.6c.8-.66,2.17,0,3.05,1.45a3.92,3.92,0,0,1,.51,3.37,1.29,1.29,0,0,1-.36.48h0l-30.74,18.6Z"/><g id="Grupo_497" data-name="Grupo 497"><path id="Trazado_2557" data-name="Trazado 2557" class="cls-13" d="M185.85,41V76.9c.16,1-1.11,1.86-2.82,1.86a3.91,3.91,0,0,1-3.14-1.31,1.33,1.33,0,0,1-.22-.55h0V41Z"/><path id="Trazado_2558" data-name="Trazado 2558" class="cls-6" d="M179.89,41.52A4,4,0,0,0,183,42.83c1.7,0,3-.84,2.82-1.86a1.45,1.45,0,0,0-.23-.56,3.94,3.94,0,0,0-3.14-1.31,3.81,3.81,0,0,0-2.13.57,1.24,1.24,0,0,0-.58,1.66,1.18,1.18,0,0,0,.11.19Z"/><path id="Trazado_2559" data-name="Trazado 2559" class="cls-7" d="M179.89,41.52A4,4,0,0,0,183,42.83c1.7,0,3-.84,2.82-1.86a1.45,1.45,0,0,0-.23-.56,3.94,3.94,0,0,0-3.14-1.31,3.81,3.81,0,0,0-2.13.57,1.24,1.24,0,0,0-.58,1.66,1.18,1.18,0,0,0,.11.19Z"/><path id="Trazado_2560" data-name="Trazado 2560" class="cls-14" d="M180.36,40.13h0a1.31,1.31,0,0,1,0-.28l.48-38.5h3.83l.48,38.78c.12.8-.86,1.44-2.18,1.44a3,3,0,0,1-2.44-1,1,1,0,0,1-.17-.43Z"/><path id="Trazado_2561" data-name="Trazado 2561" class="cls-9" d="M180.84,1.34v.1a.74.74,0,0,0,.15.34,2.35,2.35,0,0,0,1.94.72,2.76,2.76,0,0,0,.4-.06c.76-.13,1.31-.54,1.34-1V1.25a.68.68,0,0,0-.13-.33.4.4,0,0,0-.1-.12l-.12-.1A2.35,2.35,0,0,0,184,.47h0A2.71,2.71,0,0,0,182.74.2h-.15a2.89,2.89,0,0,0-1.05.25h0l-.26.16a.89.89,0,0,0-.43.73Z"/><path id="Trazado_2562" data-name="Trazado 2562" class="cls-10" d="M181.37.91a.7.7,0,0,0,.11.23,1,1,0,0,0,.21.2,1.87,1.87,0,0,0,1.19.32l.36,0a1.44,1.44,0,0,0,.62-.27.59.59,0,0,0,.28-.58.52.52,0,0,0-.1-.23s0,0,0,0l0,0A1.67,1.67,0,0,0,182.63,0h0a1.68,1.68,0,0,0-.92.3,1,1,0,0,0-.15.14h0A.63.63,0,0,0,181.37.91Z"/><path id="Trazado_2563" data-name="Trazado 2563" class="cls-11" d="M182.61,0a.8.8,0,0,1,.13.19,3.88,3.88,0,0,1,.45,1.14c0,.1,0,.19,0,.27a4.7,4.7,0,0,1,.1.83h0l.43,39v.09a2.28,2.28,0,0,1,.49.49,1.6,1.6,0,0,1,.22.56V78.53c.92-.32,1.48-.92,1.38-1.63V41a1.29,1.29,0,0,0-.22-.56,2.78,2.78,0,0,0-.48-.49l-.48-38.51V1.25a.64.64,0,0,0-.13-.33.4.4,0,0,0-.1-.12l-.12-.11a1.49,1.49,0,0,0-.3-.18l0,0h0A1.67,1.67,0,0,0,182.63,0Z"/></g><path id="Trazado_2564" data-name="Trazado 2564" class="cls-15" d="M168.82,76.92l39,22.52,31.94,18.44,10.82-6.28L223.32,95.86,179.65,70.64Z"/><path id="Trazado_2565" data-name="Trazado 2565" class="cls-16" d="M256.33,135.64l10.83-6.28L250.6,111.6l-10.83,6.28Z"/><path id="Trazado_2566" data-name="Trazado 2566" class="cls-17" d="M256.34,135.57l10.82-6.2-1.34,9.93L255,145.58Z"/><path id="Trazado_2567" data-name="Trazado 2567" class="cls-18" d="M168.83,76.92l10.82-6.28-15.86-1L153,75.92Z"/><path id="Trazado_2568" data-name="Trazado 2568" class="cls-19" d="M143.06,100.9l32.6,18.83L214,141.86l25.78-24-32-18.44-39-22.52Z"/><path id="Trazado_2569" data-name="Trazado 2569" class="cls-20" d="M175.66,119.73,214,141.86l25.77-24L207.83,99.44Z"/><path id="Trazado_2570" data-name="Trazado 2570" class="cls-21" d="M134.75,102.77l1.77,13.43,38,21.78,42.35,24.28,4-9.79L214,141.86l-38.33-22.13-32.6-18.83Z"/><path id="Trazado_2571" data-name="Trazado 2571" class="cls-22" d="M174.53,120.45V138l42.35,24.28,4-9.79L214,141.87l-38.33-22.14Z"/><path id="Trazado_2572" data-name="Trazado 2572" class="cls-23" d="M217.07,158.65l-9.24-5.33v.78l9,5.19,1,.6,0-.12.2-.52Z"/><path id="Trazado_2573" data-name="Trazado 2573" class="cls-23" d="M206.54,152.58l-8.55-5v.79l8.55,4.93Z"/><path id="Trazado_2574" data-name="Trazado 2574" class="cls-23" d="M196.71,146.9,188.18,142v.78l8.53,4.93Z"/><path id="Trazado_2575" data-name="Trazado 2575" class="cls-23" d="M186.89,141.23l-8.55-4.94v.78l8.55,4.93Z"/><path id="Trazado_2576" data-name="Trazado 2576" class="cls-23" d="M177.06,135.55l-8.55-4.94v.79l8.55,4.93Z"/><path id="Trazado_2577" data-name="Trazado 2577" class="cls-23" d="M167.23,129.86l-8.55-4.93v.78l8.55,4.94Z"/><path id="Trazado_2578" data-name="Trazado 2578" class="cls-23" d="M157.4,124.19l-8.54-4.92V120L157.4,125Z"/><path id="Trazado_2579" data-name="Trazado 2579" class="cls-23" d="M136,111.8l.09.71v.14l1.29.73,10.24,5.92v-.77l-10.35-6Z"/><path id="Trazado_2580" data-name="Trazado 2580" class="cls-23" d="M217.76,157l-9.93-5.74V152l9.67,5.59,1,.6,0-.1.21-.53Z"/><path id="Trazado_2581" data-name="Trazado 2581" class="cls-23" d="M206.54,150.48,198,145.54v.78l8.55,4.93Z"/><path id="Trazado_2582" data-name="Trazado 2582" class="cls-23" d="M196.71,144.79l-8.53-4.92v.78l8.53,4.92Z"/><path id="Trazado_2583" data-name="Trazado 2583" class="cls-23" d="M186.89,139.13l-8.55-4.93V135l8.55,4.94Z"/><path id="Trazado_2584" data-name="Trazado 2584" class="cls-23" d="M177.06,133.46l-8.55-5v.78l8.55,4.94Z"/><path id="Trazado_2585" data-name="Trazado 2585" class="cls-23" d="M167.23,127.77l-8.55-4.93v.77l8.55,4.94Z"/><path id="Trazado_2586" data-name="Trazado 2586" class="cls-23" d="M157.4,122.09l-8.54-4.92V118l8.54,4.92Z"/><path id="Trazado_2587" data-name="Trazado 2587" class="cls-23" d="M135.65,109.54l.08.7,0,.14,1.28.74,10.54,6.09v-.78l-10.66-6.16Z"/><path id="Trazado_2588" data-name="Trazado 2588" class="cls-23" d="M218.45,155.25l-10.62-6.13v.77l10.37,6,1,.59.05-.11.21-.52Z"/><path id="Trazado_2589" data-name="Trazado 2589" class="cls-23" d="M206.54,148.37,198,143.44v.78l8.55,4.93Z"/><path id="Trazado_2590" data-name="Trazado 2590" class="cls-23" d="M196.71,142.7l-8.53-4.92v.77l8.53,4.93Z"/><path id="Trazado_2591" data-name="Trazado 2591" class="cls-23" d="M186.89,137l-8.55-4.94v.78l8.55,4.93Z"/><path id="Trazado_2592" data-name="Trazado 2592" class="cls-23" d="M177.06,131.36l-8.55-4.94v.77l8.55,4.95Z"/><path id="Trazado_2593" data-name="Trazado 2593" class="cls-23" d="M167.23,125.69l-8.55-5v.78l8.55,4.93Z"/><path id="Trazado_2594" data-name="Trazado 2594" class="cls-23" d="M157.4,120l-8.54-4.92v.77l8.54,4.93Z"/><path id="Trazado_2595" data-name="Trazado 2595" class="cls-23" d="M135.34,107.27l.1.71,0,.13,1.27.74,10.85,6.26v-.77l-11-6.33Z"/><path id="Trazado_2596" data-name="Trazado 2596" class="cls-23" d="M219.14,153.56,207.83,147v.79l11,6.38,1,.59,0-.11.22-.51Z"/><path id="Trazado_2597" data-name="Trazado 2597" class="cls-23" d="M206.54,146.28,198,141.34v.79l8.55,4.94Z"/><path id="Trazado_2598" data-name="Trazado 2598" class="cls-23" d="M196.71,140.6l-8.53-4.93v.79l8.53,4.93Z"/><path id="Trazado_2599" data-name="Trazado 2599" class="cls-23" d="M186.89,134.93,178.34,130v.79l8.55,4.94Z"/><path id="Trazado_2600" data-name="Trazado 2600" class="cls-23" d="M177.06,129.25l-8.55-4.93v.79l8.55,4.93Z"/><path id="Trazado_2601" data-name="Trazado 2601" class="cls-23" d="M167.23,123.58l-8.55-4.94v.79l8.55,4.94Z"/><path id="Trazado_2602" data-name="Trazado 2602" class="cls-23" d="M157.4,117.9,148.86,113v.79l8.54,4.93Z"/><path id="Trazado_2603" data-name="Trazado 2603" class="cls-23" d="M135.05,105l.09.69,0,.16,1.28.74L147.58,113v-.79l-11.25-6.49Z"/><path id="Trazado_2604" data-name="Trazado 2604" class="cls-24" d="M256.33,135.57l-35.48,16.9L214,141.87l25.77-24Z"/><path id="Trazado_2605" data-name="Trazado 2605" class="cls-25" d="M256.33,135.57l-35.48,16.9-4,9.79L255,145.57Z"/><path id="Trazado_2606" data-name="Trazado 2606" class="cls-26" d="M168.82,76.92l-25.76,24-8.3,1.86,18.18-26.85Z"/><path id="Trazado_2607" data-name="Trazado 2607" class="cls-27" d="M150.91,105.59l24.7,14.17L204,136.09l7-7a4.07,4.07,0,0,0,0-5.76,3.79,3.79,0,0,0-.85-.64l-20.5-11.84-22.46-13a8.36,8.36,0,0,0-10.14,1.37Z"/><path id="Trazado_2608" data-name="Trazado 2608" class="cls-28" d="M175.61,119.76l28.44,16.33,7-7a4.06,4.06,0,0,0,0-5.75,3.56,3.56,0,0,0-.85-.65l-20.5-11.84Z"/><g id="Grupo_498" data-name="Grupo 498"><path id="Trazado_2609" data-name="Trazado 2609" class="cls-29" d="M156.88,103.72a1.57,1.57,0,0,0,1.24.52c.66,0,1.16-.33,1.1-.74a.43.43,0,0,0-.09-.21,1.55,1.55,0,0,0-1.23-.52,1.52,1.52,0,0,0-.83.22.51.51,0,0,0-.19.73Z"/><path id="Trazado_2610" data-name="Trazado 2610" class="cls-30" d="M163.48,107.56a1.51,1.51,0,0,0,1.23.51c.67,0,1.17-.33,1.11-.73a.85.85,0,0,0-.09-.22,1.73,1.73,0,0,0-2.07-.29.53.53,0,0,0-.27.51A.47.47,0,0,0,163.48,107.56Z"/><path id="Trazado_2611" data-name="Trazado 2611" class="cls-30" d="M170.07,111.39a1.57,1.57,0,0,0,1.24.52c.67,0,1.16-.33,1.1-.73a.58.58,0,0,0-.08-.22,1.54,1.54,0,0,0-1.24-.51,1.52,1.52,0,0,0-.83.22.48.48,0,0,0-.23.65s0,.05,0,.08Z"/><path id="Trazado_2612" data-name="Trazado 2612" class="cls-30" d="M176.67,115.23a1.51,1.51,0,0,0,1.23.51c.67,0,1.17-.33,1.11-.73a.47.47,0,0,0-.09-.22,1.73,1.73,0,0,0-2.07-.29.53.53,0,0,0-.27.51A.47.47,0,0,0,176.67,115.23Z"/><path id="Trazado_2613" data-name="Trazado 2613" class="cls-31" d="M183.26,119.06a1.58,1.58,0,0,0,1.24.52c.67,0,1.16-.33,1.1-.73a.53.53,0,0,0-.08-.22,1.57,1.57,0,0,0-1.24-.52,1.45,1.45,0,0,0-.83.23.48.48,0,0,0-.23.65.43.43,0,0,0,0,.07Z"/><path id="Trazado_2614" data-name="Trazado 2614" class="cls-30" d="M189.86,122.89a1.55,1.55,0,0,0,1.23.52c.67,0,1.16-.33,1.1-.73a.58.58,0,0,0-.08-.22,1.53,1.53,0,0,0-1.24-.51,1.44,1.44,0,0,0-.83.22.49.49,0,0,0-.23.65.18.18,0,0,0,.05.07Z"/><path id="Trazado_2615" data-name="Trazado 2615" class="cls-31" d="M196.46,126.73a1.55,1.55,0,0,0,1.23.52c.67,0,1.16-.33,1.11-.73a.85.85,0,0,0-.09-.22,1.53,1.53,0,0,0-1.24-.51,1.44,1.44,0,0,0-.83.22.5.5,0,0,0-.23.65l.05.07Z"/><path id="Trazado_2616" data-name="Trazado 2616" class="cls-30" d="M203.05,130.57a1.53,1.53,0,0,0,1.24.51c.66,0,1.16-.32,1.1-.73a.4.4,0,0,0-.09-.21,1.55,1.55,0,0,0-1.23-.52,1.52,1.52,0,0,0-.83.22.51.51,0,0,0-.27.51A.58.58,0,0,0,203.05,130.57Z"/></g><g id="Grupo_499" data-name="Grupo 499"><path id="Trazado_2617" data-name="Trazado 2617" class="cls-19" d="M216.86,159.17l-9-5.21v.79l8.77,5.06,1,.59.22-.51,0-.11Z"/><path id="Trazado_2618" data-name="Trazado 2618" class="cls-19" d="M206.54,153.21,198,148.28v.79l8.55,4.93Z"/><path id="Trazado_2619" data-name="Trazado 2619" class="cls-19" d="M196.71,147.54l-8.54-4.92v.77l8.54,4.94Z"/><path id="Trazado_2620" data-name="Trazado 2620" class="cls-19" d="M186.89,141.87l-8.55-4.93v.78l8.55,4.93Z"/><path id="Trazado_2621" data-name="Trazado 2621" class="cls-19" d="M177.06,136.2l-8.55-4.93V132l8.55,4.94Z"/><path id="Trazado_2622" data-name="Trazado 2622" class="cls-19" d="M167.23,130.52l-8.55-4.93v.77l8.55,4.94Z"/><path id="Trazado_2623" data-name="Trazado 2623" class="cls-19" d="M157.4,124.85l-8.54-4.93v.77l8.54,4.92Z"/><path id="Trazado_2624" data-name="Trazado 2624" class="cls-19" d="M136,112.51v.14l.09.7,1.29.74L147.58,120v-.78l-10.27-5.92Z"/></g><g id="Grupo_500" data-name="Grupo 500"><path id="Trazado_2625" data-name="Trazado 2625" class="cls-19" d="M217.55,157.48l-9.72-5.62v.79l9.46,5.46,1,.59.22-.52,0-.1Z"/><path id="Trazado_2626" data-name="Trazado 2626" class="cls-19" d="M206.54,151.12,198,146.18V147l8.55,4.95Z"/><path id="Trazado_2627" data-name="Trazado 2627" class="cls-19" d="M196.71,145.44l-8.54-4.92v.78l8.54,4.92Z"/><path id="Trazado_2628" data-name="Trazado 2628" class="cls-19" d="M186.89,139.78l-8.55-4.95v.78l8.55,4.94Z"/><path id="Trazado_2629" data-name="Trazado 2629" class="cls-19" d="M177.06,134.1l-8.55-4.94v.78l8.55,4.93Z"/><path id="Trazado_2630" data-name="Trazado 2630" class="cls-19" d="M167.23,128.42l-8.55-4.94v.78l8.55,4.93Z"/><path id="Trazado_2631" data-name="Trazado 2631" class="cls-19" d="M157.4,122.74l-8.54-4.92v.76l8.54,4.94Z"/><path id="Trazado_2632" data-name="Trazado 2632" class="cls-19" d="M135.73,110.23l0,.15.09.7,1.28.73,10.45,6v-.77L137,111Z"/></g><g id="Grupo_501" data-name="Grupo 501"><path id="Trazado_2633" data-name="Trazado 2633" class="cls-19" d="M218.23,155.78l-10.4-6v.78L218,156.4l1,.6.21-.53.05-.11Z"/><path id="Trazado_2634" data-name="Trazado 2634" class="cls-19" d="M206.54,149,198,144.09v.78l8.55,4.93Z"/><path id="Trazado_2635" data-name="Trazado 2635" class="cls-19" d="M196.71,143.34l-8.53-4.92v.78l8.53,4.92Z"/><path id="Trazado_2636" data-name="Trazado 2636" class="cls-19" d="M186.89,137.68l-8.55-4.94v.79l8.55,4.93Z"/><path id="Trazado_2637" data-name="Trazado 2637" class="cls-19" d="M177.06,132l-8.55-4.94v.79l8.55,4.94Z"/><path id="Trazado_2638" data-name="Trazado 2638" class="cls-19" d="M167.23,126.32l-8.55-4.93v.79l8.55,4.93Z"/><path id="Trazado_2639" data-name="Trazado 2639" class="cls-19" d="M157.4,120.65l-8.54-4.94v.79l8.54,4.93Z"/><path id="Trazado_2640" data-name="Trazado 2640" class="cls-19" d="M135.44,108l0,.13.08.7,1.29.74,10.75,6.21V115l-10.86-6.27Z"/></g><g id="Grupo_502" data-name="Grupo 502"><path id="Trazado_2641" data-name="Trazado 2641" class="cls-19" d="M218.93,154.08l-11.1-6.41v.77l10.84,6.27,1,.6.21-.53.05-.11Z"/><path id="Trazado_2642" data-name="Trazado 2642" class="cls-19" d="M206.54,146.93,198,142v.78l8.55,4.93Z"/><path id="Trazado_2643" data-name="Trazado 2643" class="cls-19" d="M196.71,141.25l-8.54-4.94v.78l8.54,4.93Z"/><path id="Trazado_2644" data-name="Trazado 2644" class="cls-19" d="M186.89,135.58l-8.55-4.94v.78l8.55,4.93Z"/><path id="Trazado_2645" data-name="Trazado 2645" class="cls-19" d="M177.06,129.9,168.51,125v.77l8.55,4.94Z"/><path id="Trazado_2646" data-name="Trazado 2646" class="cls-19" d="M167.23,124.23l-8.55-4.94v.77l8.55,4.94Z"/><path id="Trazado_2647" data-name="Trazado 2647" class="cls-19" d="M157.4,118.55l-8.54-4.93v.77l8.54,4.93Z"/><path id="Trazado_2648" data-name="Trazado 2648" class="cls-19" d="M135.14,105.69l0,.16.09.68,1.28.74,11.05,6.38v-.77l-11.15-6.44Z"/></g><path id="Trazado_2649" data-name="Trazado 2649" class="cls-21" d="M134.76,102.77l.29,2.23.09.7,0,.15.09.68.1.74.09.71,0,.13.08.71.11.73.08.7,0,.14.09.7.1.72.09.71v.14l.1.69.37,2.85,80.36,46.06.76-1.86.21-.5,0-.12.2-.52.23-.55.22-.52,0-.1.21-.53L219,157l.21-.53.05-.1.21-.52.22-.54.21-.53,0-.11.22-.52.68-1.68L214,141.87l-70.94-41Zm1.57,3-.27-2,6.81-1.53,70.3,40.59,6.36,9.85-.39,1-.22.53,0,.1-.21.52-.23.54-.21.53,0,.11-.23.52-.21.55-.21.52-.05.1-.21.53-.22.55-.22.51,0,.12-.22.52-.3.75-78.69-45.1-.18-1.37-.09-.71,0-.13-.08-.7-.1-.73-.09-.7,0-.14-.09-.7-.1-.72-.09-.71v-.14l-.1-.69-.09-.75-.09-.68,0-.15Z"/><path id="Trazado_2650" data-name="Trazado 2650" class="cls-22" d="M175.66,119.73l-1.12.71,38.63,22.3,6.36,9.86-.39,1-.21.53-.05.11-.21.51-.22.55-.22.53,0,.1-.23.52-.21.55-.21.52-.05.11-.21.53-.22.54-.21.52-.05.11-.21.52-.31.76-41.76-23.94V138l42.35,24.28.75-1.86,0-.06.33-.83.1-.25.23-.55.09-.22.2-.48.18-.46.14-.33.2-.48.1-.26v0l.37-.91.09-.22.21-.53.05-.11.21-.52.68-1.68L214,141.86Z"/><path id="Trazado_2651" data-name="Trazado 2651" class="cls-32" d="M150.91,105.43v3.29a6.17,6.17,0,0,0,3.08,5.33l20.54,11.79,25.37,14.57a2.77,2.77,0,0,0,4.16-2.4v-1.88l-28.4-16.4Z"/><g id="Grupo_503" data-name="Grupo 503"><path id="Trazado_2652" data-name="Trazado 2652" class="cls-33" d="M158,103.3a1.19,1.19,0,0,0-.66.17c-.1.07-.13.14-.13.16a1.13,1.13,0,0,0,.93.37,1,1,0,0,0,.76-.25A.89.89,0,0,0,158,103.3Z"/><path id="Trazado_2653" data-name="Trazado 2653" class="cls-34" d="M164.55,107.13a1.19,1.19,0,0,0-.66.17c-.11.07-.14.14-.13.16a1.16,1.16,0,0,0,.93.38,1,1,0,0,0,.76-.26A.9.9,0,0,0,164.55,107.13Z"/><path id="Trazado_2654" data-name="Trazado 2654" class="cls-34" d="M171.15,111a1.17,1.17,0,0,0-.66.17c-.11.07-.14.14-.14.16a1.13,1.13,0,0,0,.93.37,1,1,0,0,0,.76-.25A.88.88,0,0,0,171.15,111Z"/><path id="Trazado_2655" data-name="Trazado 2655" class="cls-34" d="M177.74,114.8a1.19,1.19,0,0,0-.66.17c-.1.07-.14.14-.13.17a1.17,1.17,0,0,0,.93.37,1,1,0,0,0,.76-.26A.93.93,0,0,0,177.74,114.8Z"/><path id="Trazado_2656" data-name="Trazado 2656" class="cls-34" d="M190.94,122.47a1.2,1.2,0,0,0-.67.17c-.1.07-.14.14-.13.17a1.17,1.17,0,0,0,.93.37,1,1,0,0,0,.76-.26A.92.92,0,0,0,190.94,122.47Z"/><path id="Trazado_2657" data-name="Trazado 2657" class="cls-34" d="M204.13,130.14a1.27,1.27,0,0,0-.66.17c-.11.08-.14.14-.14.17a1.13,1.13,0,0,0,.93.37,1,1,0,0,0,.76-.25A.91.91,0,0,0,204.13,130.14Z"/></g><path id="Trazado_2658" data-name="Trazado 2658" class="cls-19" d="M207.83,99.44l31.94,18.44,10.82-6.28L219.53,93.67Z"/><path id="Trazado_2659" data-name="Trazado 2659" class="cls-35" d="M174.53,125.84l25.37,14.57a2.77,2.77,0,0,0,4.16-2.4v-1.88l-28.4-16.4Z"/></g></g></g><g id="Grupo_517" data-name="Grupo 517"><g id="Grupo_516" data-name="Grupo 516"><g id="Grupo_515" data-name="Grupo 515"><path id="Trazado_2660" data-name="Trazado 2660" class="cls-4" d="M488.15,88.9a1.31,1.31,0,0,0-.21-.36l-.06-.07a1.08,1.08,0,0,0-.39-.28l-3-1.71,17-9.55-21.07-6.7-11.29,5.51-7.88-4.55h-.05a1.21,1.21,0,0,0-.5-.07h0a2.09,2.09,0,0,0-.62.15l-.05,0-.31-.18L434.35,57h0l-.09,0a.7.7,0,0,0-.35-.06l-.15,0-.15,0a1.89,1.89,0,0,0-.36.16h0a1.69,1.69,0,0,0-1.08.94v0a1.65,1.65,0,0,0-.2.95.84.84,0,0,0,.05.2h0a2.91,2.91,0,0,0,0,.3.89.89,0,0,0,.42.73h0l25,15h0a1.32,1.32,0,0,0,.77,1.25h0L463,79.3l-15.44,26.29,2.36,12,5.54,3.22,25.26-3.15h0a1.32,1.32,0,0,0,.59.08,3.93,3.93,0,0,0,2.71-2.06,3.37,3.37,0,0,0,.48-2.6l0-.06a1,1,0,0,0-.2-.36.27.27,0,0,0-.07-.08,1,1,0,0,0-.38-.27l-3.34-1.93-3-20.78,6.93,4h0a1.48,1.48,0,0,0,.59.08,3.94,3.94,0,0,0,2.71-2.07,3.36,3.36,0,0,0,.48-2.6Z"/><g id="Grupo_507" data-name="Grupo 507"><path id="Trazado_2661" data-name="Trazado 2661" class="cls-36" d="M585.9,92.38v35.93c.15,1-1.11,1.87-2.82,1.87a3.91,3.91,0,0,1-3.14-1.32,1.21,1.21,0,0,1-.22-.55h0V92.38Z"/><path id="Trazado_2662" data-name="Trazado 2662" class="cls-6" d="M579.94,92.93a3.91,3.91,0,0,0,3.15,1.31c1.7,0,3-.83,2.81-1.86a1.29,1.29,0,0,0-.22-.56,3.94,3.94,0,0,0-3.14-1.31,3.87,3.87,0,0,0-2.13.57,1.25,1.25,0,0,0-.58,1.67,1.74,1.74,0,0,0,.11.18Z"/><path id="Trazado_2663" data-name="Trazado 2663" class="cls-7" d="M579.94,92.93a3.91,3.91,0,0,0,3.15,1.31c1.7,0,3-.83,2.81-1.86a1.29,1.29,0,0,0-.22-.56,3.94,3.94,0,0,0-3.14-1.31,3.87,3.87,0,0,0-2.13.57,1.25,1.25,0,0,0-.58,1.67,1.74,1.74,0,0,0,.11.18Z"/><path id="Trazado_2664" data-name="Trazado 2664" class="cls-37" d="M580.41,91.54h0a.87.87,0,0,1,0-.28l.47-38.5h3.84l.48,38.78c.11.8-.87,1.44-2.19,1.44a3,3,0,0,1-2.43-1,1.16,1.16,0,0,1-.18-.43Z"/><path id="Trazado_2665" data-name="Trazado 2665" class="cls-9" d="M580.89,52.75v.1a.74.74,0,0,0,.15.34,2.31,2.31,0,0,0,1.94.72,2.76,2.76,0,0,0,.4-.06c.76-.13,1.31-.54,1.34-1v-.17a.68.68,0,0,0-.13-.33l-.1-.12-.12-.1a2.35,2.35,0,0,0-.32-.23h0a2.71,2.71,0,0,0-1.25-.27h-.15a2.89,2.89,0,0,0-1,.25h0l-.26.17a.88.88,0,0,0-.43.73Z"/><path id="Trazado_2666" data-name="Trazado 2666" class="cls-10" d="M581.42,52.32a.7.7,0,0,0,.11.23,1,1,0,0,0,.21.2,1.87,1.87,0,0,0,1.19.32,2.23,2.23,0,0,0,.36,0,1.33,1.33,0,0,0,.62-.27.58.58,0,0,0,.28-.57.51.51,0,0,0-.1-.24l0,0,0,0a1.69,1.69,0,0,0-1.35-.46h0a1.68,1.68,0,0,0-.92.3l-.15.14h0A.63.63,0,0,0,581.42,52.32Z"/><path id="Trazado_2667" data-name="Trazado 2667" class="cls-11" d="M582.66,51.42a.8.8,0,0,1,.13.19,3.88,3.88,0,0,1,.45,1.14c0,.1,0,.19,0,.27a4.7,4.7,0,0,1,.1.83h0l.43,39V93a2.07,2.07,0,0,1,.49.49,1.43,1.43,0,0,1,.22.56v35.91c.92-.32,1.48-.92,1.38-1.63V92.38a1.21,1.21,0,0,0-.22-.55,2.28,2.28,0,0,0-.48-.5l-.48-38.5v-.17a.68.68,0,0,0-.13-.33l-.1-.12-.12-.1a1.53,1.53,0,0,0-.3-.19l0,0h0a1.67,1.67,0,0,0-1.36-.46Z"/></g><path id="Trazado_2668" data-name="Trazado 2668" class="cls-38" d="M549.45,143.88l30.74-18.6c.8-.66,2.17,0,3.06,1.44a4,4,0,0,1,.5,3.37,1.22,1.22,0,0,1-.36.48h0l-30.74,18.6Z"/><g id="Grupo_508" data-name="Grupo 508"><path id="Trazado_2669" data-name="Trazado 2669" class="cls-39" d="M504.75,45.54V81.48c.15,1-1.12,1.86-2.82,1.86A4,4,0,0,1,498.78,82a1.39,1.39,0,0,1-.22-.55h0V45.54Z"/><path id="Trazado_2670" data-name="Trazado 2670" class="cls-6" d="M498.78,46.1a4,4,0,0,0,3.15,1.31c1.7,0,3-.84,2.82-1.87a1.4,1.4,0,0,0-.23-.55,3.94,3.94,0,0,0-3.14-1.31,3.73,3.73,0,0,0-2.13.57,1.24,1.24,0,0,0-.58,1.66Z"/><path id="Trazado_2671" data-name="Trazado 2671" class="cls-7" d="M498.78,46.1a4,4,0,0,0,3.15,1.31c1.7,0,3-.84,2.82-1.87a1.4,1.4,0,0,0-.23-.55,3.94,3.94,0,0,0-3.14-1.31,3.73,3.73,0,0,0-2.13.57,1.24,1.24,0,0,0-.58,1.66Z"/><path id="Trazado_2672" data-name="Trazado 2672" class="cls-40" d="M499.25,44.7h0a1.31,1.31,0,0,1,0-.28l.48-38.5h3.83L504,44.7c.12.8-.86,1.45-2.18,1.45a3.07,3.07,0,0,1-2.44-1,1,1,0,0,1-.17-.43Z"/><path id="Trazado_2673" data-name="Trazado 2673" class="cls-9" d="M499.74,5.92V6a.58.58,0,0,0,.14.34,2.32,2.32,0,0,0,1.94.72,1.34,1.34,0,0,0,.4-.06c.77-.13,1.31-.54,1.34-1V5.82a.72.72,0,0,0-.13-.33.52.52,0,0,0-.1-.11l-.12-.11a2.27,2.27,0,0,0-.32-.22h0a2.59,2.59,0,0,0-1.25-.27h-.15a2.92,2.92,0,0,0-1.05.24h0l-.26.17a.84.84,0,0,0-.42.73Z"/><path id="Trazado_2674" data-name="Trazado 2674" class="cls-10" d="M500.27,5.48a.51.51,0,0,0,.1.24,2,2,0,0,0,.21.2,1.93,1.93,0,0,0,1.19.32l.36,0a1.44,1.44,0,0,0,.62-.27.59.59,0,0,0,.28-.58.44.44,0,0,0-.1-.23s0,0,0,0l0,0a1.66,1.66,0,0,0-1.35-.46h0a1.67,1.67,0,0,0-.92.29l-.15.14h0A.61.61,0,0,0,500.27,5.48Z"/><path id="Trazado_2675" data-name="Trazado 2675" class="cls-11" d="M501.5,4.59a.5.5,0,0,1,.13.19,3.88,3.88,0,0,1,.45,1.14,2.16,2.16,0,0,0,.05.27,5.71,5.71,0,0,1,.09.82V7l.44,39v.1a2,2,0,0,1,.48.49,1.45,1.45,0,0,1,.22.55V83.11c.92-.32,1.48-.92,1.38-1.63V45.55a1.24,1.24,0,0,0-.22-.56,2.73,2.73,0,0,0-.47-.49L503.56,6V5.82a.72.72,0,0,0-.13-.33.52.52,0,0,0-.1-.11l-.12-.11a2.2,2.2,0,0,0-.3-.19l0,0h0a1.67,1.67,0,0,0-1.36-.46Z"/></g><path id="Trazado_2676" data-name="Trazado 2676" class="cls-15" d="M487.71,81.49l39,22.53,31.94,18.43,10.82-6.27-27.27-15.74L498.54,75.22Z"/><path id="Trazado_2677" data-name="Trazado 2677" class="cls-16" d="M575.23,140.22l10.82-6.28-16.56-17.76-10.83,6.27Z"/><path id="Trazado_2678" data-name="Trazado 2678" class="cls-17" d="M575.23,140.14l10.82-6.2-1.34,9.93-10.83,6.28Z"/><path id="Trazado_2679" data-name="Trazado 2679" class="cls-18" d="M487.72,81.5l10.83-6.28-15.87-1L471.85,80.5Z"/><path id="Trazado_2680" data-name="Trazado 2680" class="cls-19" d="M462,105.48l32.6,18.82,38.33,22.14,25.78-24L526.71,104l-39-22.53Z"/><path id="Trazado_2681" data-name="Trazado 2681" class="cls-20" d="M494.55,124.3l38.34,22.14,25.77-24L526.72,104Z"/><path id="Trazado_2682" data-name="Trazado 2682" class="cls-21" d="M453.65,107.34l1.76,13.43,38,21.78,42.35,24.28,4-9.79-6.85-10.6L494.55,124.3,462,105.47Z"/><path id="Trazado_2683" data-name="Trazado 2683" class="cls-22" d="M493.42,125v17.53l42.35,24.28,4-9.78-6.85-10.61L494.55,124.3Z"/><path id="Trazado_2684" data-name="Trazado 2684" class="cls-23" d="M536,163.23l-9.24-5.33v.77l9,5.2,1,.6,0-.12.2-.52Z"/><path id="Trazado_2685" data-name="Trazado 2685" class="cls-23" d="M525.43,157.15l-8.54-4.94V153l8.54,4.93Z"/><path id="Trazado_2686" data-name="Trazado 2686" class="cls-23" d="M515.6,151.48l-8.53-4.93v.77l8.53,4.94Z"/><path id="Trazado_2687" data-name="Trazado 2687" class="cls-23" d="M505.78,145.8l-8.54-4.93v.78l8.54,4.93Z"/><path id="Trazado_2688" data-name="Trazado 2688" class="cls-23" d="M496,140.13l-8.55-4.95V136l8.55,4.94Z"/><path id="Trazado_2689" data-name="Trazado 2689" class="cls-23" d="M486.12,134.44l-8.54-4.93v.78l8.54,4.94Z"/><path id="Trazado_2690" data-name="Trazado 2690" class="cls-23" d="M476.29,128.77l-8.54-4.92v.76l8.54,4.93Z"/><path id="Trazado_2691" data-name="Trazado 2691" class="cls-23" d="M454.84,116.38l.09.71v.14l1.28.73,10.25,5.92v-.78l-10.35-6Z"/><path id="Trazado_2692" data-name="Trazado 2692" class="cls-23" d="M536.65,161.54l-9.93-5.74v.77l9.68,5.59,1,.6,0-.11.21-.53Z"/><path id="Trazado_2693" data-name="Trazado 2693" class="cls-23" d="M525.43,155.06l-8.54-4.95v.78l8.54,4.93Z"/><path id="Trazado_2694" data-name="Trazado 2694" class="cls-23" d="M515.6,149.37l-8.53-4.92v.78l8.53,4.92Z"/><path id="Trazado_2695" data-name="Trazado 2695" class="cls-23" d="M505.78,143.71l-8.54-4.93v.77l8.54,4.94Z"/><path id="Trazado_2696" data-name="Trazado 2696" class="cls-23" d="M496,138l-8.55-4.94v.78l8.55,4.94Z"/><path id="Trazado_2697" data-name="Trazado 2697" class="cls-23" d="M486.12,132.35l-8.54-4.93v.77l8.54,4.94Z"/><path id="Trazado_2698" data-name="Trazado 2698" class="cls-23" d="M476.29,126.67l-8.54-4.92v.78l8.54,4.92Z"/><path id="Trazado_2699" data-name="Trazado 2699" class="cls-23" d="M454.54,114.12l.08.7,0,.14,1.28.74,10.54,6.09V121l-10.66-6.16Z"/><path id="Trazado_2700" data-name="Trazado 2700" class="cls-23" d="M537.34,159.83l-10.62-6.14v.78l10.37,6,1,.59,0-.11.21-.51Z"/><path id="Trazado_2701" data-name="Trazado 2701" class="cls-23" d="M525.43,153,516.89,148v.78l8.54,4.93Z"/><path id="Trazado_2702" data-name="Trazado 2702" class="cls-23" d="M515.6,147.28l-8.53-4.93v.78l8.53,4.92Z"/><path id="Trazado_2703" data-name="Trazado 2703" class="cls-23" d="M505.78,141.61l-8.54-4.93v.78l8.54,4.93Z"/><path id="Trazado_2704" data-name="Trazado 2704" class="cls-23" d="M496,135.94,487.4,131v.78l8.55,4.94Z"/><path id="Trazado_2705" data-name="Trazado 2705" class="cls-23" d="M486.12,130.26l-8.54-4.94v.77l8.54,4.94Z"/><path id="Trazado_2706" data-name="Trazado 2706" class="cls-23" d="M476.29,124.57l-8.54-4.92v.78l8.54,4.92Z"/><path id="Trazado_2707" data-name="Trazado 2707" class="cls-23" d="M454.24,111.85l.09.7,0,.13,1.28.75,10.84,6.26v-.78l-11-6.32Z"/><path id="Trazado_2708" data-name="Trazado 2708" class="cls-23" d="M538,158.13l-11.31-6.53v.79l11,6.38,1,.59.05-.11.21-.52Z"/><path id="Trazado_2709" data-name="Trazado 2709" class="cls-23" d="M525.43,150.86l-8.54-4.94v.79l8.54,4.93Z"/><path id="Trazado_2710" data-name="Trazado 2710" class="cls-23" d="M515.6,145.18l-8.53-4.93V141L515.6,146Z"/><path id="Trazado_2711" data-name="Trazado 2711" class="cls-23" d="M505.78,139.51l-8.54-4.94v.79l8.54,4.94Z"/><path id="Trazado_2712" data-name="Trazado 2712" class="cls-23" d="M496,133.83l-8.55-4.93v.79l8.55,4.93Z"/><path id="Trazado_2713" data-name="Trazado 2713" class="cls-23" d="M486.12,128.15l-8.54-4.93V124l8.54,4.93Z"/><path id="Trazado_2714" data-name="Trazado 2714" class="cls-23" d="M476.29,122.48l-8.54-4.93v.79l8.54,4.93Z"/><path id="Trazado_2715" data-name="Trazado 2715" class="cls-23" d="M453.94,109.58l.1.69v.15l1.28.75,11.14,6.42v-.78l-11.25-6.49Z"/><path id="Trazado_2716" data-name="Trazado 2716" class="cls-24" d="M575.23,140.14l-35.49,16.91-6.85-10.61,25.77-24Z"/><path id="Trazado_2717" data-name="Trazado 2717" class="cls-25" d="M575.23,140.14l-35.49,16.91-4,9.78,38.11-16.68Z"/><path id="Trazado_2718" data-name="Trazado 2718" class="cls-26" d="M487.71,81.5l-25.76,24-8.3,1.87L471.84,80.5Z"/><path id="Trazado_2719" data-name="Trazado 2719" class="cls-27" d="M469.8,110.16l24.7,14.18,28.44,16.33,7-7a4.06,4.06,0,0,0,0-5.76,3.74,3.74,0,0,0-.84-.64l-20.5-11.84-22.46-13A8.35,8.35,0,0,0,476,103.87Z"/><path id="Trazado_2720" data-name="Trazado 2720" class="cls-41" d="M494.5,124.34l28.44,16.33,7-7a4.07,4.07,0,0,0,0-5.76,4,4,0,0,0-.85-.64l-20.5-11.84Z"/><g id="Grupo_509" data-name="Grupo 509"><path id="Trazado_2721" data-name="Trazado 2721" class="cls-29" d="M475.77,108.3a1.53,1.53,0,0,0,1.24.51c.67,0,1.16-.32,1.1-.73a.49.49,0,0,0-.08-.21,1.58,1.58,0,0,0-1.24-.52,1.52,1.52,0,0,0-.83.22.49.49,0,0,0-.23.66l0,.07Z"/><path id="Trazado_2722" data-name="Trazado 2722" class="cls-30" d="M482.37,112.13a1.55,1.55,0,0,0,1.23.52c.67,0,1.17-.33,1.11-.73a.6.6,0,0,0-.09-.22,1.52,1.52,0,0,0-1.23-.51,1.45,1.45,0,0,0-.84.22.53.53,0,0,0-.27.51A.4.4,0,0,0,482.37,112.13Z"/><path id="Trazado_2723" data-name="Trazado 2723" class="cls-30" d="M489,116a1.53,1.53,0,0,0,1.24.51c.66,0,1.16-.32,1.1-.73a.43.43,0,0,0-.09-.21A1.55,1.55,0,0,0,490,115a1.52,1.52,0,0,0-.83.22.51.51,0,0,0-.27.51A.58.58,0,0,0,489,116Z"/><path id="Trazado_2724" data-name="Trazado 2724" class="cls-30" d="M495.56,119.81a1.59,1.59,0,0,0,1.23.51c.67,0,1.17-.33,1.11-.73a.47.47,0,0,0-.09-.22,1.51,1.51,0,0,0-1.23-.51,1.45,1.45,0,0,0-.84.22.48.48,0,0,0-.22.65.16.16,0,0,0,0,.07Z"/><path id="Trazado_2725" data-name="Trazado 2725" class="cls-31" d="M502.16,123.64a1.51,1.51,0,0,0,1.23.51c.67,0,1.16-.32,1.1-.73a.54.54,0,0,0-.08-.21,1.57,1.57,0,0,0-1.24-.52,1.52,1.52,0,0,0-.83.22.5.5,0,0,0-.23.66l.05.07Z"/><path id="Trazado_2726" data-name="Trazado 2726" class="cls-30" d="M508.75,127.48A1.52,1.52,0,0,0,510,128c.67,0,1.17-.33,1.11-.73A.47.47,0,0,0,511,127a1.51,1.51,0,0,0-1.23-.51,1.47,1.47,0,0,0-.84.22.48.48,0,0,0-.22.65l0,.08Z"/><path id="Trazado_2727" data-name="Trazado 2727" class="cls-31" d="M515.35,131.31a1.55,1.55,0,0,0,1.23.52c.67,0,1.17-.33,1.11-.73a.73.73,0,0,0-.09-.22,1.56,1.56,0,0,0-1.23-.52,1.46,1.46,0,0,0-.84.23.49.49,0,0,0-.23.65l.05.07Z"/><path id="Trazado_2728" data-name="Trazado 2728" class="cls-30" d="M521.94,135.15a1.53,1.53,0,0,0,1.24.51c.67,0,1.16-.33,1.1-.73a.47.47,0,0,0-.09-.22,1.71,1.71,0,0,0-2.06-.29.49.49,0,0,0-.23.66A.43.43,0,0,1,521.94,135.15Z"/></g><g id="Grupo_510" data-name="Grupo 510"><path id="Trazado_2729" data-name="Trazado 2729" class="cls-19" d="M535.75,163.75l-9-5.22v.79l8.77,5.07,1,.58.21-.5,0-.12Z"/><path id="Trazado_2730" data-name="Trazado 2730" class="cls-19" d="M525.43,157.79l-8.54-4.93v.79l8.54,4.93Z"/><path id="Trazado_2731" data-name="Trazado 2731" class="cls-19" d="M515.6,152.12l-8.53-4.93V148l8.53,4.93Z"/><path id="Trazado_2732" data-name="Trazado 2732" class="cls-19" d="M505.78,146.45l-8.55-4.93v.78l8.55,4.93Z"/><path id="Trazado_2733" data-name="Trazado 2733" class="cls-19" d="M496,140.78l-8.55-4.94v.78l8.55,4.93Z"/><path id="Trazado_2734" data-name="Trazado 2734" class="cls-19" d="M486.12,135.1l-8.55-4.93v.76l8.55,4.95Z"/><path id="Trazado_2735" data-name="Trazado 2735" class="cls-19" d="M476.29,129.43l-8.54-4.94v.78l8.54,4.92Z"/><path id="Trazado_2736" data-name="Trazado 2736" class="cls-19" d="M454.93,117.09v.14l.1.69,1.28.75,10.15,5.86v-.78l-10.27-5.92Z"/></g><g id="Grupo_511" data-name="Grupo 511"><path id="Trazado_2737" data-name="Trazado 2737" class="cls-19" d="M536.44,162.05l-9.72-5.61v.79l9.46,5.46,1,.59.22-.52,0-.11Z"/><path id="Trazado_2738" data-name="Trazado 2738" class="cls-19" d="M525.43,155.69l-8.54-4.93v.78l8.54,4.94Z"/><path id="Trazado_2739" data-name="Trazado 2739" class="cls-19" d="M515.6,150l-8.53-4.92v.77l8.53,4.93Z"/><path id="Trazado_2740" data-name="Trazado 2740" class="cls-19" d="M505.78,144.36l-8.55-5v.78l8.55,4.94Z"/><path id="Trazado_2741" data-name="Trazado 2741" class="cls-19" d="M496,138.68l-8.55-4.94v.77l8.55,4.94Z"/><path id="Trazado_2742" data-name="Trazado 2742" class="cls-19" d="M486.12,133l-8.55-4.93v.78l8.55,4.93Z"/><path id="Trazado_2743" data-name="Trazado 2743" class="cls-19" d="M476.29,127.32l-8.54-4.92v.76l8.54,4.94Z"/><path id="Trazado_2744" data-name="Trazado 2744" class="cls-19" d="M454.62,114.81l0,.15.09.7,1.28.73,10.45,6v-.76l-10.56-6.1Z"/></g><g id="Grupo_512" data-name="Grupo 512"><path id="Trazado_2745" data-name="Trazado 2745" class="cls-19" d="M537.13,160.36l-10.41-6v.78L536.87,161l1,.6.22-.53,0-.1Z"/><path id="Trazado_2746" data-name="Trazado 2746" class="cls-19" d="M525.43,153.61l-8.54-5v.78l8.54,4.94Z"/><path id="Trazado_2747" data-name="Trazado 2747" class="cls-19" d="M515.6,147.92,507.07,143v.78l8.53,4.92Z"/><path id="Trazado_2748" data-name="Trazado 2748" class="cls-19" d="M505.78,142.26l-8.54-4.95v.79l8.54,4.93Z"/><path id="Trazado_2749" data-name="Trazado 2749" class="cls-19" d="M496,136.57l-8.55-4.93v.79l8.55,4.93Z"/><path id="Trazado_2750" data-name="Trazado 2750" class="cls-19" d="M486.12,130.9,477.58,126v.79l8.54,4.94Z"/><path id="Trazado_2751" data-name="Trazado 2751" class="cls-19" d="M476.29,125.22l-8.54-4.93v.79l8.54,4.93Z"/><path id="Trazado_2752" data-name="Trazado 2752" class="cls-19" d="M454.33,112.55l0,.13.09.71,1.28.74,10.75,6.21v-.79l-10.86-6.27Z"/></g><g id="Grupo_513" data-name="Grupo 513"><path id="Trazado_2753" data-name="Trazado 2753" class="cls-19" d="M537.83,158.66l-11.1-6.42V153l10.84,6.27,1,.6.22-.53,0-.11Z"/><path id="Trazado_2754" data-name="Trazado 2754" class="cls-19" d="M525.43,151.5l-8.54-4.93v.78l8.54,4.93Z"/><path id="Trazado_2755" data-name="Trazado 2755" class="cls-19" d="M515.6,145.83l-8.53-4.94v.78l8.53,4.93Z"/><path id="Trazado_2756" data-name="Trazado 2756" class="cls-19" d="M505.78,140.16l-8.54-4.94V136l8.54,4.93Z"/><path id="Trazado_2757" data-name="Trazado 2757" class="cls-19" d="M496,134.48l-8.55-4.94v.78l8.55,4.93Z"/><path id="Trazado_2758" data-name="Trazado 2758" class="cls-19" d="M486.12,128.8l-8.54-4.93v.76l8.54,5Z"/><path id="Trazado_2759" data-name="Trazado 2759" class="cls-19" d="M476.29,123.13l-8.54-4.94V119l8.54,4.92Z"/><path id="Trazado_2760" data-name="Trazado 2760" class="cls-19" d="M454,110.27v.15l.09.69,1.28.74,11.05,6.38v-.78L455.32,111Z"/></g><path id="Trazado_2761" data-name="Trazado 2761" class="cls-21" d="M453.65,107.34l.29,2.23.1.69v.16l.09.68.1.74.09.71,0,.13.09.7.1.73.09.7,0,.14.09.71.1.71.09.71v.14l.1.7.37,2.85,80.36,46.06.76-1.86.21-.5,0-.12.2-.52.22-.55.22-.52,0-.11.21-.53.22-.54.22-.53,0-.11.22-.51.21-.54.21-.54.05-.1.21-.52.68-1.68-6.85-10.61-70.94-41Zm1.57,3-.27-2,6.81-1.53,70.3,40.59,6.36,9.85-.39,1-.21.53-.05.1-.21.52-.23.54-.21.53,0,.11-.23.52-.21.55-.21.52-.05.1-.21.54-.22.54-.21.51,0,.12-.21.52-.31.75L456.5,120l-.18-1.37-.09-.7,0-.13-.08-.71-.09-.73-.1-.7,0-.14-.09-.71-.1-.71-.09-.71v-.14l-.1-.7-.09-.74-.1-.69V111Z"/><path id="Trazado_2762" data-name="Trazado 2762" class="cls-22" d="M494.55,124.3l-1.12.72,38.63,22.3,6.36,9.85-.39,1-.21.53-.05.1-.21.52-.22.54-.21.53,0,.11-.22.52-.22.55-.21.52,0,.1-.22.53-.22.55-.21.51,0,.12-.21.52-.31.75-41.76-23.94v1.36l42.35,24.28.76-1.86,0-.07.34-.82.1-.25.22-.56.09-.21.2-.49.18-.45.14-.34.2-.48.1-.25v0l.37-.91.09-.22.21-.53.05-.1.21-.52.68-1.69-6.85-10.6Z"/><path id="Trazado_2763" data-name="Trazado 2763" class="cls-32" d="M469.8,110v3.29a6.15,6.15,0,0,0,3.09,5.33l20.53,11.78L518.79,145a2.77,2.77,0,0,0,4.16-2.4v-1.88l-28.4-16.4Z"/><g id="Grupo_514" data-name="Grupo 514"><path id="Trazado_2764" data-name="Trazado 2764" class="cls-33" d="M476.85,107.87a1.25,1.25,0,0,0-.66.17c-.11.08-.14.14-.14.17a1.13,1.13,0,0,0,.93.37,1,1,0,0,0,.76-.25A.91.91,0,0,0,476.85,107.87Z"/><path id="Trazado_2765" data-name="Trazado 2765" class="cls-34" d="M483.44,111.71a1.19,1.19,0,0,0-.66.17c-.11.07-.14.14-.13.16a1.16,1.16,0,0,0,.93.38,1,1,0,0,0,.76-.26A.91.91,0,0,0,483.44,111.71Z"/><path id="Trazado_2766" data-name="Trazado 2766" class="cls-34" d="M490,115.54a1.38,1.38,0,0,0-.66.17c-.11.08-.14.14-.14.17a1.17,1.17,0,0,0,.93.37,1,1,0,0,0,.76-.25A.91.91,0,0,0,490,115.54Z"/><path id="Trazado_2767" data-name="Trazado 2767" class="cls-34" d="M496.63,119.38a1.19,1.19,0,0,0-.66.17c-.1.07-.14.14-.13.17a1.19,1.19,0,0,0,.93.37,1,1,0,0,0,.76-.26A.91.91,0,0,0,496.63,119.38Z"/><path id="Trazado_2768" data-name="Trazado 2768" class="cls-34" d="M509.83,127.05a1.19,1.19,0,0,0-.66.17c-.1.07-.14.14-.14.17a1.17,1.17,0,0,0,.93.37,1,1,0,0,0,.76-.26A.92.92,0,0,0,509.83,127.05Z"/><path id="Trazado_2769" data-name="Trazado 2769" class="cls-34" d="M523,134.72a1.19,1.19,0,0,0-.66.17c-.11.07-.14.14-.14.17a1.17,1.17,0,0,0,.93.37,1,1,0,0,0,.76-.26A.92.92,0,0,0,523,134.72Z"/></g><path id="Trazado_2770" data-name="Trazado 2770" class="cls-19" d="M526.72,104l31.94,18.44,10.82-6.28L538.43,98.25Z"/><path id="Trazado_2771" data-name="Trazado 2771" class="cls-35" d="M493.42,130.42,518.79,145a2.77,2.77,0,0,0,3.79-1,2.8,2.8,0,0,0,.37-1.38v-1.88l-28.4-16.4Z"/></g></g></g><g id="Grupo_528" data-name="Grupo 528"><g id="Grupo_527" data-name="Grupo 527"><g id="Grupo_526" data-name="Grupo 526"><path id="Trazado_2772" data-name="Trazado 2772" class="cls-4" d="M504.93,344.48a1.46,1.46,0,0,0-.2-.37l-.07-.07a1.08,1.08,0,0,0-.39-.28l-3-1.71,17-9.55-21.08-6.7-11.29,5.51L478,326.76h0a1.41,1.41,0,0,0-.5-.07h-.05a2.25,2.25,0,0,0-.62.15h0l-.32-.17-25.33-14.08h0l-.09,0a.7.7,0,0,0-.35-.06l-.15,0-.15.05a1.58,1.58,0,0,0-.35.16h0a1.69,1.69,0,0,0-1.08.94v0a1.65,1.65,0,0,0-.2.95,1.94,1.94,0,0,0,.05.2h0a2.91,2.91,0,0,0,0,.3.88.88,0,0,0,.43.73h0l24.95,15v0a1.33,1.33,0,0,0,.78,1.24h0l4.78,2.76L464.3,361.16l2.37,11.95,5.54,3.22,25.25-3.15h0a1.54,1.54,0,0,0,.6.09,4,4,0,0,0,2.7-2.07,3.37,3.37,0,0,0,.48-2.6.14.14,0,0,1,0-.06,1.31,1.31,0,0,0-.21-.36l-.06-.08a1.05,1.05,0,0,0-.39-.27l-3.34-1.93-3-20.79,6.92,4h0a1.33,1.33,0,0,0,.59.09,3.94,3.94,0,0,0,2.71-2.07,3.37,3.37,0,0,0,.48-2.6Z"/><g id="Grupo_518" data-name="Grupo 518"><path id="Trazado_2773" data-name="Trazado 2773" class="cls-42" d="M602.69,348v35.93c.15,1-1.11,1.86-2.82,1.86a3.91,3.91,0,0,1-3.15-1.31,1.33,1.33,0,0,1-.22-.55h0V348Z"/><path id="Trazado_2774" data-name="Trazado 2774" class="cls-6" d="M596.72,348.5a3.94,3.94,0,0,0,3.15,1.31c1.71,0,3-.83,2.82-1.86a1.43,1.43,0,0,0-.22-.56,4,4,0,0,0-3.15-1.31,3.9,3.9,0,0,0-2.13.57,1.25,1.25,0,0,0-.58,1.67l.11.18Z"/><path id="Trazado_2775" data-name="Trazado 2775" class="cls-7" d="M596.72,348.5a3.94,3.94,0,0,0,3.15,1.31c1.71,0,3-.83,2.82-1.86a1.43,1.43,0,0,0-.22-.56,4,4,0,0,0-3.15-1.31,3.9,3.9,0,0,0-2.13.57,1.25,1.25,0,0,0-.58,1.67l.11.18Z"/><path id="Trazado_2776" data-name="Trazado 2776" class="cls-43" d="M597.2,347.11h0a.88.88,0,0,1,0-.28l.48-38.5h3.83l.48,38.78c.12.8-.86,1.44-2.18,1.44a3,3,0,0,1-2.44-1,1,1,0,0,1-.17-.43Z"/><path id="Trazado_2777" data-name="Trazado 2777" class="cls-9" d="M597.68,308.32v.1a.64.64,0,0,0,.14.34,2.35,2.35,0,0,0,1.94.72,2.57,2.57,0,0,0,.4-.06c.77-.13,1.31-.54,1.35-1v-.16a.79.79,0,0,0-.13-.33.43.43,0,0,0-.11-.12l-.12-.1a1.86,1.86,0,0,0-.32-.23h0a2.68,2.68,0,0,0-1.25-.27h-.15a2.94,2.94,0,0,0-1,.25h0c-.09.06-.18.1-.26.16a.9.9,0,0,0-.42.73Z"/><path id="Trazado_2778" data-name="Trazado 2778" class="cls-10" d="M598.21,307.89a.54.54,0,0,0,.11.23.8.8,0,0,0,.21.2,1.87,1.87,0,0,0,1.19.32,2.11,2.11,0,0,0,.35-.05,1.28,1.28,0,0,0,.62-.27.6.6,0,0,0,.29-.57.53.53,0,0,0-.11-.24v0l0,0a1.64,1.64,0,0,0-1.35-.46h0a1.68,1.68,0,0,0-.92.3.67.67,0,0,0-.15.14h0A.63.63,0,0,0,598.21,307.89Z"/><path id="Trazado_2779" data-name="Trazado 2779" class="cls-11" d="M599.45,307a.76.76,0,0,1,.12.19,3.4,3.4,0,0,1,.45,1.14c0,.1,0,.19.05.27a5.85,5.85,0,0,1,.09.83h0l.44,39v.09a2,2,0,0,1,.48.49,1.62,1.62,0,0,1,.23.56v35.91c.91-.32,1.48-.92,1.37-1.62V348a1.11,1.11,0,0,0-.22-.55,2.23,2.23,0,0,0-.47-.5l-.48-38.51v-.16a.79.79,0,0,0-.13-.33l-.11-.12-.12-.1a1.32,1.32,0,0,0-.29-.19s0,0,0,0h0a1.69,1.69,0,0,0-1.35-.46Z"/></g><path id="Trazado_2780" data-name="Trazado 2780" class="cls-44" d="M566.23,399.45,597,380.85c.8-.66,2.18,0,3.06,1.45a4,4,0,0,1,.51,3.37,1.55,1.55,0,0,1-.36.48h0l-30.74,18.6Z"/><g id="Grupo_519" data-name="Grupo 519"><path id="Trazado_2781" data-name="Trazado 2781" class="cls-45" d="M521.53,301.11v35.94c.15,1-1.11,1.86-2.82,1.86a4,4,0,0,1-3.15-1.31,1.39,1.39,0,0,1-.22-.55h0V301.11Z"/><path id="Trazado_2782" data-name="Trazado 2782" class="cls-6" d="M515.56,301.67a4,4,0,0,0,3.15,1.31c1.71,0,3-.84,2.82-1.87a1.39,1.39,0,0,0-.22-.55,4,4,0,0,0-3.15-1.31,3.73,3.73,0,0,0-2.13.57,1.24,1.24,0,0,0-.58,1.66,1.22,1.22,0,0,0,.12.19Z"/><path id="Trazado_2783" data-name="Trazado 2783" class="cls-7" d="M515.56,301.67a4,4,0,0,0,3.15,1.31c1.71,0,3-.84,2.82-1.87a1.39,1.39,0,0,0-.22-.55,4,4,0,0,0-3.15-1.31,3.73,3.73,0,0,0-2.13.57,1.24,1.24,0,0,0-.58,1.66,1.22,1.22,0,0,0,.12.19Z"/><path id="Trazado_2784" data-name="Trazado 2784" class="cls-46" d="M516,300.27h0a.66.66,0,0,1,0-.28l.48-38.5h3.83l.48,38.79c.12.8-.86,1.44-2.19,1.44a3,3,0,0,1-2.43-1,1.05,1.05,0,0,1-.18-.42h0Z"/><path id="Trazado_2785" data-name="Trazado 2785" class="cls-9" d="M516.52,261.49v.09a.58.58,0,0,0,.14.34,2.32,2.32,0,0,0,1.94.72,1.34,1.34,0,0,0,.4-.06c.77-.13,1.31-.54,1.35-1v-.17a.84.84,0,0,0-.13-.33.57.57,0,0,0-.11-.11.63.63,0,0,0-.12-.11,2.18,2.18,0,0,0-.31-.22h0a2.53,2.53,0,0,0-1.24-.27h-.16a3,3,0,0,0-1,.24h0l-.26.17a.89.89,0,0,0-.42.73Z"/><path id="Trazado_2786" data-name="Trazado 2786" class="cls-10" d="M517.05,261.05a.53.53,0,0,0,.11.24,1.34,1.34,0,0,0,.21.2,2,2,0,0,0,1.19.32l.35-.05a1.47,1.47,0,0,0,.63-.27.63.63,0,0,0,.28-.58.38.38,0,0,0-.11-.23s0,0,0,0l0,0a1.64,1.64,0,0,0-1.35-.46h0a1.67,1.67,0,0,0-.92.29.67.67,0,0,0-.15.14h0A.66.66,0,0,0,517.05,261.05Z"/><path id="Trazado_2787" data-name="Trazado 2787" class="cls-11" d="M518.29,260.16a.62.62,0,0,1,.12.19,3.4,3.4,0,0,1,.45,1.14c0,.09,0,.19,0,.27a4.57,4.57,0,0,1,.09.82v0l.44,39v.1a1.86,1.86,0,0,1,.48.49,1.65,1.65,0,0,1,.23.55v35.92c.91-.32,1.48-.92,1.37-1.63V301.12a1.18,1.18,0,0,0-.22-.56,2.47,2.47,0,0,0-.47-.5l-.48-38.5v-.17a.79.79,0,0,0-.13-.33l-.11-.12-.12-.1a1.81,1.81,0,0,0-.29-.19l0,0h0a1.67,1.67,0,0,0-1.35-.45Z"/></g><path id="Trazado_2788" data-name="Trazado 2788" class="cls-15" d="M504.49,337.06l39,22.53,32,18.43,10.82-6.27L559,356l-43.67-25.22Z"/><path id="Trazado_2789" data-name="Trazado 2789" class="cls-16" d="M592,395.79l10.83-6.28-16.57-17.76L575.44,378Z"/><path id="Trazado_2790" data-name="Trazado 2790" class="cls-17" d="M592,395.71l10.83-6.2-1.35,9.94-10.83,6.27Z"/><path id="Trazado_2791" data-name="Trazado 2791" class="cls-18" d="M504.5,337.07l10.83-6.28-15.87-1-10.83,6.28Z"/><path id="Trazado_2792" data-name="Trazado 2792" class="cls-19" d="M478.73,361.05l32.6,18.83L549.67,402l25.77-24L543.5,359.59l-39-22.53Z"/><path id="Trazado_2793" data-name="Trazado 2793" class="cls-20" d="M511.33,379.88,549.67,402l25.77-24L543.5,359.59Z"/><path id="Trazado_2794" data-name="Trazado 2794" class="cls-21" d="M470.43,362.92l1.77,13.42,38,21.78,42.36,24.28,4-9.78L549.67,402l-38.34-22.14-32.6-18.82Z"/><path id="Trazado_2795" data-name="Trazado 2795" class="cls-22" d="M510.2,380.59v17.54l42.36,24.27,4-9.78L549.67,402l-38.34-22.14Z"/><path id="Trazado_2796" data-name="Trazado 2796" class="cls-23" d="M552.74,418.8l-9.24-5.33v.77l9,5.2,1,.6.05-.12.2-.52Z"/><path id="Trazado_2797" data-name="Trazado 2797" class="cls-23" d="M542.22,412.73l-8.55-5v.79l8.55,4.93Z"/><path id="Trazado_2798" data-name="Trazado 2798" class="cls-23" d="M532.39,407.05l-8.54-4.93v.77l8.54,4.94Z"/><path id="Trazado_2799" data-name="Trazado 2799" class="cls-23" d="M522.57,401.37,514,396.44v.78l8.55,4.93Z"/><path id="Trazado_2800" data-name="Trazado 2800" class="cls-23" d="M512.73,395.7l-8.54-4.95v.79l8.54,4.94Z"/><path id="Trazado_2801" data-name="Trazado 2801" class="cls-23" d="M502.9,390l-8.54-4.93v.78l8.54,4.94Z"/><path id="Trazado_2802" data-name="Trazado 2802" class="cls-23" d="M493.07,384.34l-8.53-4.92v.76l8.53,4.93Z"/><path id="Trazado_2803" data-name="Trazado 2803" class="cls-23" d="M471.62,372l.09.71,0,.14,1.28.73,10.24,5.92v-.78l-10.35-6Z"/><path id="Trazado_2804" data-name="Trazado 2804" class="cls-23" d="M553.44,417.11l-9.94-5.74v.77l9.68,5.59,1,.6,0-.11.21-.53Z"/><path id="Trazado_2805" data-name="Trazado 2805" class="cls-23" d="M542.22,410.63l-8.55-4.95v.78l8.55,4.93Z"/><path id="Trazado_2806" data-name="Trazado 2806" class="cls-23" d="M532.39,404.94,523.85,400v.78l8.54,4.92Z"/><path id="Trazado_2807" data-name="Trazado 2807" class="cls-23" d="M522.57,399.28,514,394.35v.77l8.55,4.94Z"/><path id="Trazado_2808" data-name="Trazado 2808" class="cls-23" d="M512.73,393.6l-8.54-4.94v.78l8.54,4.94Z"/><path id="Trazado_2809" data-name="Trazado 2809" class="cls-23" d="M502.9,387.92,494.36,383v.78l8.54,4.93Z"/><path id="Trazado_2810" data-name="Trazado 2810" class="cls-23" d="M493.07,382.24l-8.53-4.92v.78l8.53,4.92Z"/><path id="Trazado_2811" data-name="Trazado 2811" class="cls-23" d="M471.32,369.69l.09.7,0,.14,1.28.74,10.54,6.09v-.78l-10.65-6.16Z"/><path id="Trazado_2812" data-name="Trazado 2812" class="cls-23" d="M554.12,415.4l-10.62-6.14V410l10.37,6,1,.59.05-.1.21-.52Z"/><path id="Trazado_2813" data-name="Trazado 2813" class="cls-23" d="M542.22,408.52l-8.55-4.93v.78l8.55,4.93Z"/><path id="Trazado_2814" data-name="Trazado 2814" class="cls-23" d="M532.39,402.85l-8.54-4.92v.77l8.54,4.92Z"/><path id="Trazado_2815" data-name="Trazado 2815" class="cls-23" d="M522.57,397.18,514,392.25V393l8.55,4.93Z"/><path id="Trazado_2816" data-name="Trazado 2816" class="cls-23" d="M512.73,391.51l-8.54-4.95v.78l8.54,5Z"/><path id="Trazado_2817" data-name="Trazado 2817" class="cls-23" d="M502.9,385.83l-8.54-4.94v.78l8.54,4.93Z"/><path id="Trazado_2818" data-name="Trazado 2818" class="cls-23" d="M493.07,380.15l-8.53-4.93V376l8.53,4.92Z"/><path id="Trazado_2819" data-name="Trazado 2819" class="cls-23" d="M471,367.42l.09.7,0,.13,1.27.75,10.84,6.26v-.78l-10.95-6.32Z"/><path id="Trazado_2820" data-name="Trazado 2820" class="cls-23" d="M554.82,413.7l-11.32-6.53V408l11.06,6.38,1,.59,0-.11.21-.52Z"/><path id="Trazado_2821" data-name="Trazado 2821" class="cls-23" d="M542.22,406.43l-8.55-4.94v.79l8.55,4.94Z"/><path id="Trazado_2822" data-name="Trazado 2822" class="cls-23" d="M532.39,400.75l-8.54-4.93v.79l8.54,4.93Z"/><path id="Trazado_2823" data-name="Trazado 2823" class="cls-23" d="M522.57,395.08,514,390.14v.79l8.55,4.93Z"/><path id="Trazado_2824" data-name="Trazado 2824" class="cls-23" d="M512.73,389.4l-8.54-4.94v.79l8.54,4.93Z"/><path id="Trazado_2825" data-name="Trazado 2825" class="cls-23" d="M502.9,383.72l-8.54-4.93v.79l8.54,4.93Z"/><path id="Trazado_2826" data-name="Trazado 2826" class="cls-23" d="M493.07,378.05l-8.53-4.93v.79l8.53,4.93Z"/><path id="Trazado_2827" data-name="Trazado 2827" class="cls-23" d="M470.72,365.15l.1.69V366l1.28.75,11.14,6.42v-.78L472,365.89Z"/><path id="Trazado_2828" data-name="Trazado 2828" class="cls-24" d="M592,395.71l-35.48,16.91L549.68,402l25.76-24Z"/><path id="Trazado_2829" data-name="Trazado 2829" class="cls-25" d="M592,395.71l-35.48,16.91-4,9.78,38.11-16.68Z"/><path id="Trazado_2830" data-name="Trazado 2830" class="cls-26" d="M504.5,337.07l-25.77,24-8.3,1.87,18.19-26.86Z"/><path id="Trazado_2831" data-name="Trazado 2831" class="cls-27" d="M486.59,365.73l24.7,14.18,28.43,16.33,7-7a4.09,4.09,0,0,0-.84-6.41L525.37,371l-22.47-13a8.35,8.35,0,0,0-10.14,1.38Z"/><path id="Trazado_2832" data-name="Trazado 2832" class="cls-47" d="M511.29,379.91l28.43,16.33,7-7a4.07,4.07,0,0,0,0-5.76,4.46,4.46,0,0,0-.85-.65L525.37,371Z"/><g id="Grupo_520" data-name="Grupo 520"><path id="Trazado_2833" data-name="Trazado 2833" class="cls-29" d="M492.56,363.87a1.51,1.51,0,0,0,1.23.51c.67,0,1.17-.32,1.11-.73a.67.67,0,0,0-.09-.21,1.56,1.56,0,0,0-1.23-.52,1.53,1.53,0,0,0-.84.22.5.5,0,0,0-.23.65.56.56,0,0,0,.05.08Z"/><path id="Trazado_2834" data-name="Trazado 2834" class="cls-30" d="M499.15,367.71a1.56,1.56,0,0,0,1.24.51c.66,0,1.16-.33,1.1-.73a.47.47,0,0,0-.09-.22,1.51,1.51,0,0,0-1.23-.51,1.44,1.44,0,0,0-.83.22.51.51,0,0,0-.27.51A.58.58,0,0,0,499.15,367.71Z"/><path id="Trazado_2835" data-name="Trazado 2835" class="cls-30" d="M505.75,371.54a1.53,1.53,0,0,0,1.24.51c.67,0,1.16-.32,1.1-.73a.43.43,0,0,0-.09-.21,1.55,1.55,0,0,0-1.23-.52,1.52,1.52,0,0,0-.83.22.51.51,0,0,0-.27.51A.58.58,0,0,0,505.75,371.54Z"/><path id="Trazado_2836" data-name="Trazado 2836" class="cls-30" d="M512.34,375.38a1.54,1.54,0,0,0,1.24.51c.67,0,1.16-.33,1.1-.73a.58.58,0,0,0-.08-.22,1.54,1.54,0,0,0-1.24-.51,1.52,1.52,0,0,0-.83.22.51.51,0,0,0-.27.51A.58.58,0,0,0,512.34,375.38Z"/><path id="Trazado_2837" data-name="Trazado 2837" class="cls-31" d="M518.94,379.21a1.56,1.56,0,0,0,1.23.52c.67,0,1.17-.33,1.11-.74a.43.43,0,0,0-.09-.21,1.55,1.55,0,0,0-1.23-.52,1.46,1.46,0,0,0-.84.23.52.52,0,0,0-.27.5A.73.73,0,0,0,518.94,379.21Z"/><path id="Trazado_2838" data-name="Trazado 2838" class="cls-30" d="M525.54,383.05a1.51,1.51,0,0,0,1.23.51c.67,0,1.16-.32,1.1-.73a.54.54,0,0,0-.08-.21,1.57,1.57,0,0,0-1.24-.52,1.52,1.52,0,0,0-.83.22.53.53,0,0,0-.27.51A.43.43,0,0,0,525.54,383.05Z"/><path id="Trazado_2839" data-name="Trazado 2839" class="cls-31" d="M532.13,386.88a1.56,1.56,0,0,0,1.23.52c.67,0,1.17-.33,1.11-.73a.43.43,0,0,0-.09-.22,1.55,1.55,0,0,0-1.23-.52,1.48,1.48,0,0,0-.84.23.48.48,0,0,0-.22.65.25.25,0,0,0,0,.07Z"/><path id="Trazado_2840" data-name="Trazado 2840" class="cls-30" d="M538.73,390.72a1.51,1.51,0,0,0,1.23.51c.67,0,1.17-.33,1.11-.73a.85.85,0,0,0-.09-.22,1.73,1.73,0,0,0-2.07-.29.49.49,0,0,0-.22.66l0,.07Z"/></g><g id="Grupo_521" data-name="Grupo 521"><path id="Trazado_2841" data-name="Trazado 2841" class="cls-19" d="M552.53,419.32l-9-5.22v.79l8.77,5.06,1,.59.21-.5.05-.12Z"/><path id="Trazado_2842" data-name="Trazado 2842" class="cls-19" d="M542.22,413.36l-8.55-4.93v.79l8.55,4.93Z"/><path id="Trazado_2843" data-name="Trazado 2843" class="cls-19" d="M532.39,407.69l-8.54-4.93v.78l8.54,4.93Z"/><path id="Trazado_2844" data-name="Trazado 2844" class="cls-19" d="M522.57,402,514,397.09v.78l8.55,4.93Z"/><path id="Trazado_2845" data-name="Trazado 2845" class="cls-19" d="M512.73,396.35l-8.54-4.94v.78l8.54,4.93Z"/><path id="Trazado_2846" data-name="Trazado 2846" class="cls-19" d="M502.9,390.67l-8.54-4.93v.76l8.54,4.95Z"/><path id="Trazado_2847" data-name="Trazado 2847" class="cls-19" d="M493.07,385l-8.53-4.94v.78l8.53,4.92Z"/><path id="Trazado_2848" data-name="Trazado 2848" class="cls-19" d="M471.71,372.65l0,.15.09.69,1.28.74,10.15,5.87v-.78L473,373.4Z"/></g><g id="Grupo_522" data-name="Grupo 522"><path id="Trazado_2849" data-name="Trazado 2849" class="cls-19" d="M553.23,417.62,543.5,412v.79l9.47,5.46,1,.59.23-.52,0-.11Z"/><path id="Trazado_2850" data-name="Trazado 2850" class="cls-19" d="M542.22,411.27l-8.55-4.94v.78l8.55,4.94Z"/><path id="Trazado_2851" data-name="Trazado 2851" class="cls-19" d="M532.39,405.59l-8.54-4.92v.78l8.54,4.92Z"/><path id="Trazado_2852" data-name="Trazado 2852" class="cls-19" d="M522.57,399.93,514,395v.78l8.55,4.94Z"/><path id="Trazado_2853" data-name="Trazado 2853" class="cls-19" d="M512.73,394.25l-8.54-4.94v.77l8.54,4.94Z"/><path id="Trazado_2854" data-name="Trazado 2854" class="cls-19" d="M502.9,388.56l-8.54-4.93v.78l8.54,4.93Z"/><path id="Trazado_2855" data-name="Trazado 2855" class="cls-19" d="M493.07,382.89,484.54,378v.76l8.53,4.94Z"/><path id="Trazado_2856" data-name="Trazado 2856" class="cls-19" d="M471.41,370.39l0,.14.1.71,1.28.73,10.44,6v-.76l-10.56-6.1Z"/></g><g id="Grupo_523" data-name="Grupo 523"><path id="Trazado_2857" data-name="Trazado 2857" class="cls-19" d="M553.91,415.93l-10.41-6v.77l10.15,5.87,1,.6.21-.53.05-.11Z"/><path id="Trazado_2858" data-name="Trazado 2858" class="cls-19" d="M542.22,409.18l-8.55-4.94V405l8.55,4.94Z"/><path id="Trazado_2859" data-name="Trazado 2859" class="cls-19" d="M532.39,403.49l-8.54-4.92v.78l8.54,4.92Z"/><path id="Trazado_2860" data-name="Trazado 2860" class="cls-19" d="M522.57,397.83,514,392.89v.78l8.55,4.94Z"/><path id="Trazado_2861" data-name="Trazado 2861" class="cls-19" d="M512.73,392.14l-8.54-4.93V388l8.54,4.93Z"/><path id="Trazado_2862" data-name="Trazado 2862" class="cls-19" d="M502.9,386.47l-8.54-4.93v.78l8.54,4.94Z"/><path id="Trazado_2863" data-name="Trazado 2863" class="cls-19" d="M493.07,380.79l-8.53-4.93v.79l8.53,4.93Z"/><path id="Trazado_2864" data-name="Trazado 2864" class="cls-19" d="M471.11,368.12l0,.13.08.71,1.28.74,10.75,6.2v-.78l-10.85-6.26Z"/></g><g id="Grupo_524" data-name="Grupo 524"><path id="Trazado_2865" data-name="Trazado 2865" class="cls-19" d="M554.6,414.23l-11.1-6.41v.77l10.85,6.27,1,.6.21-.53,0-.11Z"/><path id="Trazado_2866" data-name="Trazado 2866" class="cls-19" d="M542.22,407.07l-8.55-4.93v.78l8.55,4.93Z"/><path id="Trazado_2867" data-name="Trazado 2867" class="cls-19" d="M532.39,401.4l-8.54-4.93v.78l8.54,4.93Z"/><path id="Trazado_2868" data-name="Trazado 2868" class="cls-19" d="M522.57,395.72,514,390.79v.78l8.55,4.93Z"/><path id="Trazado_2869" data-name="Trazado 2869" class="cls-19" d="M512.73,390.05l-8.54-4.93v.77l8.54,4.94Z"/><path id="Trazado_2870" data-name="Trazado 2870" class="cls-19" d="M502.9,384.37l-8.54-4.93v.77l8.54,4.94Z"/><path id="Trazado_2871" data-name="Trazado 2871" class="cls-19" d="M493.07,378.7l-8.53-4.94v.78l8.53,4.92Z"/><path id="Trazado_2872" data-name="Trazado 2872" class="cls-19" d="M470.82,365.84V366l.09.69,1.28.74,11.05,6.38V373l-11.15-6.44Z"/></g><path id="Trazado_2873" data-name="Trazado 2873" class="cls-21" d="M470.43,362.92l.3,2.22.09.7V366l.1.68.09.74.09.71,0,.13.08.7.11.73.08.7,0,.14.1.71.09.72.09.71,0,.14.09.7.38,2.85,80.36,46.06.75-1.86.21-.51.05-.12.2-.51.22-.56.23-.52,0-.1.22-.53.22-.54.21-.53.05-.11.21-.52.21-.54.22-.53,0-.11.21-.52.69-1.68L549.67,402l-70.94-41Zm1.58,3-.27-2.05,6.8-1.53,70.3,40.58,6.36,9.86-.39.95-.21.53-.05.11-.21.52-.22.54-.21.53,0,.11-.22.52-.21.55-.22.52,0,.1-.22.53-.22.54-.21.52,0,.12-.21.52-.31.75L473.28,375.6l-.18-1.36-.1-.71,0-.13-.08-.7-.1-.73-.09-.7,0-.14-.1-.71-.09-.71-.1-.71v-.14l-.09-.7-.1-.74-.09-.68v-.15Z"/><path id="Trazado_2874" data-name="Trazado 2874" class="cls-22" d="M511.33,379.87l-1.12.72,38.64,22.3,6.36,9.85-.39,1-.21.53-.05.1-.21.52-.23.54-.21.53,0,.11-.23.52-.21.55-.21.52-.05.1-.21.53-.23.55-.21.51,0,.12-.22.52-.3.75L510.2,396.76v1.36l42.36,24.28.75-1.86,0-.07.33-.82.1-.25.23-.56.09-.21.2-.49.18-.45.14-.34.19-.48.1-.25,0,0,.37-.91.08-.22.22-.53,0-.1.22-.52.68-1.68L549.68,402Z"/><path id="Trazado_2875" data-name="Trazado 2875" class="cls-32" d="M486.59,365.58v3.29a6.14,6.14,0,0,0,3.08,5.33L510.2,386l25.38,14.57a2.76,2.76,0,0,0,4.15-2.4l0-1.88-28.4-16.4Z"/><g id="Grupo_525" data-name="Grupo 525"><path id="Trazado_2876" data-name="Trazado 2876" class="cls-33" d="M493.63,363.44a1.38,1.38,0,0,0-.66.17c-.11.08-.14.14-.13.17a1.12,1.12,0,0,0,.93.37,1,1,0,0,0,.76-.25A.92.92,0,0,0,493.63,363.44Z"/><path id="Trazado_2877" data-name="Trazado 2877" class="cls-34" d="M500.23,367.28a1.23,1.23,0,0,0-.66.17c-.11.07-.14.14-.14.17a1.13,1.13,0,0,0,.93.37,1,1,0,0,0,.76-.25A.91.91,0,0,0,500.23,367.28Z"/><path id="Trazado_2878" data-name="Trazado 2878" class="cls-34" d="M506.82,371.11a1.38,1.38,0,0,0-.66.17c-.1.08-.14.15-.13.17a1.13,1.13,0,0,0,.93.37,1,1,0,0,0,.76-.25A.92.92,0,0,0,506.82,371.11Z"/><path id="Trazado_2879" data-name="Trazado 2879" class="cls-34" d="M513.42,375a1.19,1.19,0,0,0-.66.17c-.1.07-.14.14-.13.17a1.2,1.2,0,0,0,.93.37,1,1,0,0,0,.76-.26A.9.9,0,0,0,513.42,375Z"/><path id="Trazado_2880" data-name="Trazado 2880" class="cls-34" d="M526.61,382.62a1.19,1.19,0,0,0-.66.17c-.1.07-.14.14-.13.17a1.15,1.15,0,0,0,.93.37,1,1,0,0,0,.76-.26A.93.93,0,0,0,526.61,382.62Z"/><path id="Trazado_2881" data-name="Trazado 2881" class="cls-34" d="M539.8,390.29a1.19,1.19,0,0,0-.66.17c-.1.07-.14.14-.13.17a1.17,1.17,0,0,0,.93.37,1,1,0,0,0,.76-.26A.93.93,0,0,0,539.8,390.29Z"/></g><path id="Trazado_2882" data-name="Trazado 2882" class="cls-19" d="M543.5,359.59l32,18.44,10.82-6.28L555.2,353.82Z"/><path id="Trazado_2883" data-name="Trazado 2883" class="cls-35" d="M510.2,386l25.38,14.57a2.76,2.76,0,0,0,4.15-2.4l0-1.88-28.4-16.4Z"/></g></g></g><g id="Grupo_539" data-name="Grupo 539"><g id="Grupo_538" data-name="Grupo 538"><g id="Grupo_537" data-name="Grupo 537"><path id="Trazado_2884" data-name="Trazado 2884" class="cls-4" d="M184.51,334.56a1.11,1.11,0,0,0-.2-.37l-.07-.07a1.17,1.17,0,0,0-.38-.28l-3-1.71,17-9.55-21.08-6.69-11.28,5.5-7.89-4.55h0a1.22,1.22,0,0,0-.5-.08H157a2.25,2.25,0,0,0-.62.15h0l-.31-.17-25.34-14.09h0l-.09,0a.7.7,0,0,0-.35-.06l-.15,0-.15,0a1.89,1.89,0,0,0-.36.16h0a1.69,1.69,0,0,0-1.08.94v0a1.65,1.65,0,0,0-.2,1,1.94,1.94,0,0,0,0,.2h0a1.46,1.46,0,0,0,0,.3.84.84,0,0,0,.42.73h0l24.95,15v0a1.33,1.33,0,0,0,.78,1.24h0l4.78,2.77-15.44,26.3,2.36,11.94,5.54,3.23L177,363.27h0a1.33,1.33,0,0,0,.59.09,4,4,0,0,0,2.71-2.07,3.36,3.36,0,0,0,.47-2.6.14.14,0,0,0,0-.06,1.31,1.31,0,0,0-.21-.36l-.06-.08a1.05,1.05,0,0,0-.39-.27L176.8,356l-3-20.78,6.92,4h0a1.32,1.32,0,0,0,.59.08,3.92,3.92,0,0,0,2.71-2.07,3.36,3.36,0,0,0,.48-2.6A.33.33,0,0,0,184.51,334.56Z"/><g id="Grupo_529" data-name="Grupo 529"><path id="Trazado_2885" data-name="Trazado 2885" class="cls-48" d="M282.27,338V374c.15,1-1.11,1.87-2.82,1.87a3.94,3.94,0,0,1-3.14-1.31,1.45,1.45,0,0,1-.23-.56h0V338Z"/><path id="Trazado_2886" data-name="Trazado 2886" class="cls-6" d="M276.31,338.58a3.87,3.87,0,0,0,3.14,1.31c1.71,0,3-.83,2.82-1.86a1.33,1.33,0,0,0-.22-.55,3.89,3.89,0,0,0-3.15-1.31,3.81,3.81,0,0,0-2.13.56,1.23,1.23,0,0,0-.46,1.85Z"/><path id="Trazado_2887" data-name="Trazado 2887" class="cls-7" d="M276.31,338.58a3.87,3.87,0,0,0,3.14,1.31c1.71,0,3-.83,2.82-1.86a1.33,1.33,0,0,0-.22-.55,3.89,3.89,0,0,0-3.15-1.31,3.81,3.81,0,0,0-2.13.56,1.23,1.23,0,0,0-.46,1.85Z"/><path id="Trazado_2888" data-name="Trazado 2888" class="cls-49" d="M276.78,337.19h0a1.31,1.31,0,0,1,0-.28l.48-38.5h3.83l.48,38.78c.12.8-.86,1.45-2.18,1.45a3.06,3.06,0,0,1-2.44-1,1,1,0,0,1-.17-.43Z"/><path id="Trazado_2889" data-name="Trazado 2889" class="cls-9" d="M277.26,298.4v.1a.73.73,0,0,0,.14.34,2.33,2.33,0,0,0,2,.72,2.76,2.76,0,0,0,.4-.06c.76-.13,1.3-.54,1.34-1v-.17A.79.79,0,0,0,281,298l-.11-.12a.63.63,0,0,0-.12-.1,1.78,1.78,0,0,0-.31-.23h0a2.64,2.64,0,0,0-1.24-.27H279a2.88,2.88,0,0,0-1,.25h0l-.26.17a.89.89,0,0,0-.42.73Z"/><path id="Trazado_2890" data-name="Trazado 2890" class="cls-10" d="M277.79,298a.7.7,0,0,0,.11.23.8.8,0,0,0,.21.2,1.87,1.87,0,0,0,1.19.32,2,2,0,0,0,.35-.05,1.27,1.27,0,0,0,.63-.27.61.61,0,0,0,.28-.57.44.44,0,0,0-.11-.24v0l0,0a1.7,1.7,0,0,0-1.36-.46h0a1.68,1.68,0,0,0-.92.3.67.67,0,0,0-.15.14h0A.64.64,0,0,0,277.79,298Z"/><path id="Trazado_2891" data-name="Trazado 2891" class="cls-11" d="M279,297.07a1.27,1.27,0,0,1,.13.19,3.65,3.65,0,0,1,.44,1.15,2.56,2.56,0,0,1,0,.27,4.48,4.48,0,0,1,.1.82h0l.43,39v.09a2.32,2.32,0,0,1,.49.5,1.48,1.48,0,0,1,.22.55v35.91c.92-.32,1.48-.92,1.38-1.62V338a1.22,1.22,0,0,0-.23-.55,2.19,2.19,0,0,0-.47-.49l-.48-38.51v-.17A.74.74,0,0,0,281,298a.43.43,0,0,0-.11-.12.65.65,0,0,0-.12-.11,2.9,2.9,0,0,0-.29-.19l0,0h0a1.65,1.65,0,0,0-1.35-.46Z"/></g><path id="Trazado_2892" data-name="Trazado 2892" class="cls-50" d="M245.81,389.53l30.75-18.6c.8-.66,2.17,0,3.05,1.45a4,4,0,0,1,.51,3.37,1.41,1.41,0,0,1-.36.48h0L249,394.83Z"/><g id="Grupo_530" data-name="Grupo 530"><path id="Trazado_2893" data-name="Trazado 2893" class="cls-51" d="M201.11,291.2v35.93c.15,1-1.11,1.87-2.82,1.87a3.91,3.91,0,0,1-3.14-1.32,1.34,1.34,0,0,1-.23-.55h0V291.2Z"/><path id="Trazado_2894" data-name="Trazado 2894" class="cls-6" d="M195.15,291.75a3.94,3.94,0,0,0,3.14,1.31c1.71,0,3-.84,2.82-1.86a1.43,1.43,0,0,0-.22-.56,4,4,0,0,0-3.15-1.31,3.81,3.81,0,0,0-2.13.57,1.34,1.34,0,0,0-.69,1.3A1.4,1.4,0,0,0,195.15,291.75Z"/><path id="Trazado_2895" data-name="Trazado 2895" class="cls-7" d="M195.15,291.75a3.94,3.94,0,0,0,3.14,1.31c1.71,0,3-.84,2.82-1.86a1.43,1.43,0,0,0-.22-.56,4,4,0,0,0-3.15-1.31,3.81,3.81,0,0,0-2.13.57,1.34,1.34,0,0,0-.69,1.3A1.4,1.4,0,0,0,195.15,291.75Z"/><path id="Trazado_2896" data-name="Trazado 2896" class="cls-52" d="M195.62,290.36h0a.66.66,0,0,1,0-.28l.48-38.5h3.83l.48,38.78c.12.8-.86,1.44-2.19,1.44a3,3,0,0,1-2.43-1,1.16,1.16,0,0,1-.18-.43h0Z"/><path id="Trazado_2897" data-name="Trazado 2897" class="cls-9" d="M196.1,251.57v.1a.73.73,0,0,0,.14.34,2.36,2.36,0,0,0,1.95.72l.4-.06c.76-.13,1.3-.54,1.34-1v-.16a.79.79,0,0,0-.13-.33.43.43,0,0,0-.11-.12.65.65,0,0,0-.12-.11,2.44,2.44,0,0,0-.31-.22h0a2.71,2.71,0,0,0-1.25-.27h-.16a2.88,2.88,0,0,0-1,.25h0l-.25.16a.89.89,0,0,0-.43.73Z"/><path id="Trazado_2898" data-name="Trazado 2898" class="cls-10" d="M196.63,251.14a.7.7,0,0,0,.11.23,1,1,0,0,0,.21.2,1.87,1.87,0,0,0,1.19.32l.35,0a1.47,1.47,0,0,0,.63-.27.63.63,0,0,0,.28-.58.41.41,0,0,0-.11-.23s0,0,0,0l0,0a1.67,1.67,0,0,0-1.36-.46h0a1.67,1.67,0,0,0-.92.29.71.71,0,0,0-.15.15h0A.63.63,0,0,0,196.63,251.14Z"/><path id="Trazado_2899" data-name="Trazado 2899" class="cls-11" d="M197.87,250.24a.8.8,0,0,1,.13.19,3.6,3.6,0,0,1,.44,1.14c0,.1,0,.19.05.27a4.59,4.59,0,0,1,.1.83h0l.43,39v.1a2,2,0,0,1,.48.49,1.45,1.45,0,0,1,.23.56v35.91c.92-.31,1.48-.91,1.38-1.62V291.2a1.22,1.22,0,0,0-.23-.55,2.23,2.23,0,0,0-.47-.5l-.48-38.51v-.17a.79.79,0,0,0-.13-.33l-.11-.12a.63.63,0,0,0-.12-.1,1.81,1.81,0,0,0-.29-.19l0,0h0a1.67,1.67,0,0,0-1.36-.46Z"/></g><path id="Trazado_2900" data-name="Trazado 2900" class="cls-15" d="M184.08,327.15l39,22.52L255,368.11l10.82-6.28-27.27-15.74-43.67-25.22Z"/><path id="Trazado_2901" data-name="Trazado 2901" class="cls-16" d="M271.59,385.87l10.83-6.28-16.57-17.76L255,368.1Z"/><path id="Trazado_2902" data-name="Trazado 2902" class="cls-17" d="M271.59,385.8l10.83-6.2-1.35,9.93-10.83,6.28Z"/><path id="Trazado_2903" data-name="Trazado 2903" class="cls-18" d="M184.08,327.15l10.83-6.28-15.87-1-10.83,6.28Z"/><path id="Trazado_2904" data-name="Trazado 2904" class="cls-19" d="M158.31,351.13,190.91,370l38.34,22.13,25.77-24-31.94-18.44-39-22.52Z"/><path id="Trazado_2905" data-name="Trazado 2905" class="cls-20" d="M190.92,370l38.33,22.13,25.78-24-31.95-18.44Z"/><path id="Trazado_2906" data-name="Trazado 2906" class="cls-21" d="M150,353l1.77,13.42,38,21.79,42.35,24.28,4-9.79-6.86-10.61L190.92,370l-32.6-18.83Z"/><path id="Trazado_2907" data-name="Trazado 2907" class="cls-22" d="M189.79,370.67V388.2l42.35,24.28,4-9.78-6.86-10.61L190.92,370Z"/><path id="Trazado_2908" data-name="Trazado 2908" class="cls-23" d="M232.33,408.88l-9.25-5.33v.78l9,5.19,1,.6.05-.12.2-.52Z"/><path id="Trazado_2909" data-name="Trazado 2909" class="cls-23" d="M221.8,402.81l-8.55-4.95v.79l8.55,4.93Z"/><path id="Trazado_2910" data-name="Trazado 2910" class="cls-23" d="M212,397.13l-8.54-4.93V393l8.54,4.93Z"/><path id="Trazado_2911" data-name="Trazado 2911" class="cls-23" d="M202.15,391.46l-8.55-4.94v.78l8.55,4.93Z"/><path id="Trazado_2912" data-name="Trazado 2912" class="cls-23" d="M192.32,385.78l-8.55-4.94v.79l8.55,4.93Z"/><path id="Trazado_2913" data-name="Trazado 2913" class="cls-23" d="M182.48,380.09l-8.54-4.93v.78l8.54,4.94Z"/><path id="Trazado_2914" data-name="Trazado 2914" class="cls-23" d="M172.65,374.42l-8.53-4.92v.76l8.53,4.94Z"/><path id="Trazado_2915" data-name="Trazado 2915" class="cls-23" d="M151.2,362l.1.71v.14l1.28.73,10.25,5.92v-.77l-10.35-6Z"/><path id="Trazado_2916" data-name="Trazado 2916" class="cls-23" d="M233,407.19l-9.94-5.74v.77l9.68,5.59,1,.6,0-.1.22-.53Z"/><path id="Trazado_2917" data-name="Trazado 2917" class="cls-23" d="M221.8,400.71l-8.55-4.94v.77l8.55,4.94Z"/><path id="Trazado_2918" data-name="Trazado 2918" class="cls-23" d="M212,395l-8.54-4.92v.78L212,395.8Z"/><path id="Trazado_2919" data-name="Trazado 2919" class="cls-23" d="M202.15,389.36l-8.55-4.93v.77l8.55,4.94Z"/><path id="Trazado_2920" data-name="Trazado 2920" class="cls-23" d="M192.32,383.69l-8.55-4.95v.78l8.55,4.94Z"/><path id="Trazado_2921" data-name="Trazado 2921" class="cls-23" d="M182.48,378l-8.54-4.93v.77l8.54,4.94Z"/><path id="Trazado_2922" data-name="Trazado 2922" class="cls-23" d="M172.65,372.32l-8.53-4.92v.78l8.53,4.92Z"/><path id="Trazado_2923" data-name="Trazado 2923" class="cls-23" d="M150.91,359.77l.08.7,0,.14,1.29.74,10.53,6.09v-.78l-10.65-6.16Z"/><path id="Trazado_2924" data-name="Trazado 2924" class="cls-23" d="M233.7,405.48l-10.62-6.13v.77l10.38,6,1,.59.05-.11.21-.52Z"/><path id="Trazado_2925" data-name="Trazado 2925" class="cls-23" d="M221.8,398.6l-8.55-4.93v.78l8.55,4.93Z"/><path id="Trazado_2926" data-name="Trazado 2926" class="cls-23" d="M212,392.93,203.43,388v.77l8.54,4.93Z"/><path id="Trazado_2927" data-name="Trazado 2927" class="cls-23" d="M202.15,387.27l-8.55-4.94v.78l8.55,4.93Z"/><path id="Trazado_2928" data-name="Trazado 2928" class="cls-23" d="M192.32,381.59l-8.55-4.94v.77l8.55,4.95Z"/><path id="Trazado_2929" data-name="Trazado 2929" class="cls-23" d="M182.48,375.92,173.94,371v.78l8.54,4.93Z"/><path id="Trazado_2930" data-name="Trazado 2930" class="cls-23" d="M172.65,370.23l-8.53-4.92v.77l8.53,4.93Z"/><path id="Trazado_2931" data-name="Trazado 2931" class="cls-23" d="M150.6,357.5l.1.71,0,.13,1.27.74,10.84,6.26v-.77l-11-6.33Z"/><path id="Trazado_2932" data-name="Trazado 2932" class="cls-23" d="M234.4,403.78l-11.31-6.53V398l11,6.38,1,.59,0-.1.21-.52Z"/><path id="Trazado_2933" data-name="Trazado 2933" class="cls-23" d="M221.8,396.51l-8.55-4.94v.79l8.55,4.94Z"/><path id="Trazado_2934" data-name="Trazado 2934" class="cls-23" d="M212,390.83l-8.54-4.93v.79l8.54,4.93Z"/><path id="Trazado_2935" data-name="Trazado 2935" class="cls-23" d="M202.15,385.16l-8.55-4.94V381l8.55,4.94Z"/><path id="Trazado_2936" data-name="Trazado 2936" class="cls-23" d="M192.32,379.48l-8.55-4.93v.79l8.55,4.93Z"/><path id="Trazado_2937" data-name="Trazado 2937" class="cls-23" d="M182.48,373.81l-8.54-4.94v.79l8.54,4.94Z"/><path id="Trazado_2938" data-name="Trazado 2938" class="cls-23" d="M172.65,368.13l-8.53-4.93V364l8.53,4.93Z"/><path id="Trazado_2939" data-name="Trazado 2939" class="cls-23" d="M150.31,355.23l.09.69v.16l1.29.74,11.14,6.43v-.79L151.59,356Z"/><path id="Trazado_2940" data-name="Trazado 2940" class="cls-24" d="M271.59,385.8l-35.48,16.9-6.85-10.6,25.77-24Z"/><path id="Trazado_2941" data-name="Trazado 2941" class="cls-25" d="M271.59,385.8l-35.48,16.9-4,9.79,38.1-16.69Z"/><path id="Trazado_2942" data-name="Trazado 2942" class="cls-26" d="M184.08,327.15l-25.76,24L150,353l18.18-26.85Z"/><path id="Trazado_2943" data-name="Trazado 2943" class="cls-27" d="M166.17,355.82,190.87,370l28.43,16.33,7-7a4.06,4.06,0,0,0,0-5.75,3.56,3.56,0,0,0-.85-.65L205,361.1l-22.46-13a8.35,8.35,0,0,0-10.14,1.38Z"/><path id="Trazado_2944" data-name="Trazado 2944" class="cls-53" d="M190.87,370l28.43,16.33,7-7a4.07,4.07,0,0,0,0-5.76,3.79,3.79,0,0,0-.85-.64L205,361.1Z"/><g id="Grupo_531" data-name="Grupo 531"><path id="Trazado_2945" data-name="Trazado 2945" class="cls-29" d="M172.14,354a1.55,1.55,0,0,0,1.23.52c.67,0,1.17-.33,1.11-.74a.43.43,0,0,0-.09-.21,1.55,1.55,0,0,0-1.23-.52,1.53,1.53,0,0,0-.84.22.54.54,0,0,0-.27.51A.43.43,0,0,0,172.14,354Z"/><path id="Trazado_2946" data-name="Trazado 2946" class="cls-30" d="M178.73,357.79a1.54,1.54,0,0,0,1.24.51c.67,0,1.16-.33,1.1-.73a.58.58,0,0,0-.08-.22,1.54,1.54,0,0,0-1.24-.51,1.52,1.52,0,0,0-.83.22.51.51,0,0,0-.27.51A.58.58,0,0,0,178.73,357.79Z"/><path id="Trazado_2947" data-name="Trazado 2947" class="cls-30" d="M185.33,361.62a1.56,1.56,0,0,0,1.23.52c.67,0,1.17-.33,1.11-.73a.43.43,0,0,0-.09-.22,1.55,1.55,0,0,0-1.23-.52,1.48,1.48,0,0,0-.84.23.53.53,0,0,0-.27.51A.78.78,0,0,0,185.33,361.62Z"/><path id="Trazado_2948" data-name="Trazado 2948" class="cls-30" d="M191.93,365.46a1.51,1.51,0,0,0,1.23.51c.67,0,1.17-.33,1.11-.73a.85.85,0,0,0-.09-.22,1.56,1.56,0,0,0-1.23-.51,1.53,1.53,0,0,0-.84.22.53.53,0,0,0-.27.51A.47.47,0,0,0,191.93,365.46Z"/><path id="Trazado_2949" data-name="Trazado 2949" class="cls-31" d="M198.52,369.29a1.57,1.57,0,0,0,1.24.52c.67,0,1.16-.33,1.1-.73a.43.43,0,0,0-.09-.22,1.51,1.51,0,0,0-1.23-.51,1.44,1.44,0,0,0-.83.22.48.48,0,0,0-.23.65A.43.43,0,0,0,198.52,369.29Z"/><path id="Trazado_2950" data-name="Trazado 2950" class="cls-30" d="M205.12,373.13a1.51,1.51,0,0,0,1.23.51c.67,0,1.17-.32,1.11-.73a.67.67,0,0,0-.09-.21,1.56,1.56,0,0,0-1.23-.52,1.53,1.53,0,0,0-.84.22.53.53,0,0,0-.27.51A.47.47,0,0,0,205.12,373.13Z"/><path id="Trazado_2951" data-name="Trazado 2951" class="cls-31" d="M211.71,377a1.57,1.57,0,0,0,1.24.52c.67,0,1.16-.33,1.1-.73a.47.47,0,0,0-.09-.22,1.51,1.51,0,0,0-1.23-.51,1.44,1.44,0,0,0-.83.22.51.51,0,0,0-.27.51A.54.54,0,0,0,211.71,377Z"/><path id="Trazado_2952" data-name="Trazado 2952" class="cls-30" d="M218.31,380.8a1.52,1.52,0,0,0,1.23.51c.67,0,1.17-.32,1.11-.73a.4.4,0,0,0-.09-.21,1.55,1.55,0,0,0-1.23-.52,1.53,1.53,0,0,0-.84.22.53.53,0,0,0-.27.51A.85.85,0,0,0,218.31,380.8Z"/></g><g id="Grupo_532" data-name="Grupo 532"><path id="Trazado_2953" data-name="Trazado 2953" class="cls-19" d="M232.11,409.4l-9-5.22V405l8.78,5.07,1,.59.21-.51.05-.12Z"/><path id="Trazado_2954" data-name="Trazado 2954" class="cls-19" d="M221.8,403.44l-8.55-4.93v.79l8.55,4.93Z"/><path id="Trazado_2955" data-name="Trazado 2955" class="cls-19" d="M212,397.77l-8.54-4.92v.77l8.54,4.94Z"/><path id="Trazado_2956" data-name="Trazado 2956" class="cls-19" d="M202.15,392.1l-8.55-4.93V388l8.55,4.93Z"/><path id="Trazado_2957" data-name="Trazado 2957" class="cls-19" d="M192.32,386.43l-8.55-4.93v.77l8.55,4.94Z"/><path id="Trazado_2958" data-name="Trazado 2958" class="cls-19" d="M182.48,380.75l-8.54-4.93v.76l8.54,4.95Z"/><path id="Trazado_2959" data-name="Trazado 2959" class="cls-19" d="M172.65,375.08l-8.53-4.93v.77l8.53,4.92Z"/><path id="Trazado_2960" data-name="Trazado 2960" class="cls-19" d="M151.3,362.74v.14l.09.7,1.29.74,10.15,5.86v-.78l-10.27-5.92Z"/></g><g id="Grupo_533" data-name="Grupo 533"><path id="Trazado_2961" data-name="Trazado 2961" class="cls-19" d="M232.81,407.71l-9.73-5.62v.79l9.47,5.46,1,.59.23-.52,0-.1Z"/><path id="Trazado_2962" data-name="Trazado 2962" class="cls-19" d="M221.8,401.35l-8.55-4.94v.78l8.55,4.95Z"/><path id="Trazado_2963" data-name="Trazado 2963" class="cls-19" d="M212,395.67l-8.54-4.92v.78l8.54,4.92Z"/><path id="Trazado_2964" data-name="Trazado 2964" class="cls-19" d="M202.15,390l-8.55-4.95v.78l8.55,5Z"/><path id="Trazado_2965" data-name="Trazado 2965" class="cls-19" d="M192.32,384.33l-8.55-4.94v.78l8.55,4.93Z"/><path id="Trazado_2966" data-name="Trazado 2966" class="cls-19" d="M182.48,378.65l-8.54-4.94v.78l8.54,4.93Z"/><path id="Trazado_2967" data-name="Trazado 2967" class="cls-19" d="M172.65,373l-8.53-4.92v.76l8.53,4.94Z"/><path id="Trazado_2968" data-name="Trazado 2968" class="cls-19" d="M151,360.47l0,.14.1.7,1.28.73,10.45,6v-.76l-10.57-6.1Z"/></g><g id="Grupo_534" data-name="Grupo 534"><path id="Trazado_2969" data-name="Trazado 2969" class="cls-19" d="M233.49,406l-10.41-6v.78l10.15,5.86,1,.6.21-.53.05-.1Z"/><path id="Trazado_2970" data-name="Trazado 2970" class="cls-19" d="M221.8,399.26l-8.55-4.94v.78L221.8,400Z"/><path id="Trazado_2971" data-name="Trazado 2971" class="cls-19" d="M212,393.58l-8.54-4.93v.78l8.54,4.92Z"/><path id="Trazado_2972" data-name="Trazado 2972" class="cls-19" d="M202.15,387.91,193.6,383v.79l8.55,4.93Z"/><path id="Trazado_2973" data-name="Trazado 2973" class="cls-19" d="M192.32,382.23l-8.55-4.94v.79l8.55,4.94Z"/><path id="Trazado_2974" data-name="Trazado 2974" class="cls-19" d="M182.48,376.55l-8.55-4.93v.79l8.55,4.93Z"/><path id="Trazado_2975" data-name="Trazado 2975" class="cls-19" d="M172.65,370.88l-8.53-4.94v.79l8.53,4.93Z"/><path id="Trazado_2976" data-name="Trazado 2976" class="cls-19" d="M150.7,358.21l0,.13.08.7,1.29.74L162.84,366v-.79L152,358.94Z"/></g><g id="Grupo_535" data-name="Grupo 535"><path id="Trazado_2977" data-name="Trazado 2977" class="cls-19" d="M234.19,404.31l-11.1-6.41v.77l10.84,6.27,1,.6.22-.53,0-.11Z"/><path id="Trazado_2978" data-name="Trazado 2978" class="cls-19" d="M221.8,397.16l-8.55-4.94V393l8.55,4.93Z"/><path id="Trazado_2979" data-name="Trazado 2979" class="cls-19" d="M212,391.48l-8.54-4.93v.77l8.54,4.94Z"/><path id="Trazado_2980" data-name="Trazado 2980" class="cls-19" d="M202.15,385.81l-8.55-4.94v.78l8.55,4.93Z"/><path id="Trazado_2981" data-name="Trazado 2981" class="cls-19" d="M192.32,380.13l-8.55-4.93V376l8.55,4.94Z"/><path id="Trazado_2982" data-name="Trazado 2982" class="cls-19" d="M182.48,374.45l-8.54-4.93v.77l8.54,4.94Z"/><path id="Trazado_2983" data-name="Trazado 2983" class="cls-19" d="M172.65,368.78l-8.53-4.93v.77l8.53,4.92Z"/><path id="Trazado_2984" data-name="Trazado 2984" class="cls-19" d="M150.4,355.92v.16l.1.68,1.28.74,11,6.38v-.77l-11.15-6.44Z"/></g><path id="Trazado_2985" data-name="Trazado 2985" class="cls-21" d="M150,353l.3,2.23.09.7v.15l.1.68.09.74.1.71,0,.13.08.71.11.73.08.7,0,.14.09.7.09.72.1.71v.14l.09.69.38,2.85,80.36,46.06.75-1.86.22-.5,0-.12.2-.52.23-.55.22-.52,0-.11.21-.53.22-.54.21-.53.05-.11.21-.51.21-.55.22-.53,0-.1.22-.52.68-1.68-6.85-10.61-70.94-41Zm1.58,3-.27-2.05,6.81-1.53L228.43,393l6.35,9.85-.38.95-.22.53,0,.11-.22.52-.22.54-.21.53,0,.11-.22.51-.21.56-.21.52-.05.1-.21.53-.22.54-.22.52,0,.12-.22.52-.3.75-78.69-45.11-.18-1.36-.09-.71,0-.13-.08-.71-.09-.73-.1-.69,0-.14-.09-.71-.1-.72-.09-.7v-.14l-.1-.7-.09-.74-.1-.68v-.16Z"/><path id="Trazado_2986" data-name="Trazado 2986" class="cls-22" d="M190.92,370l-1.13.71L228.43,393l6.36,9.86-.39.95-.21.53-.05.11-.21.51-.23.55-.21.53,0,.1-.23.52-.21.55-.21.52-.05.11-.21.53-.22.54-.22.52,0,.11-.22.52-.3.76-41.76-23.94v1.35l42.35,24.28.75-1.86,0-.07.33-.82.1-.25.23-.55.09-.22.2-.48.18-.46.14-.34.19-.48.1-.25,0,0,.37-.91.08-.21.22-.53,0-.11.22-.52.68-1.68-6.85-10.61Z"/><path id="Trazado_2987" data-name="Trazado 2987" class="cls-32" d="M166.17,355.66V359a6.17,6.17,0,0,0,3.08,5.33l20.54,11.79,25.37,14.57a2.77,2.77,0,0,0,4.16-2.4v-1.88L190.93,370Z"/><g id="Grupo_536" data-name="Grupo 536"><path id="Trazado_2988" data-name="Trazado 2988" class="cls-33" d="M173.21,353.53a1.19,1.19,0,0,0-.66.17c-.1.07-.14.14-.13.16a1.13,1.13,0,0,0,.93.37,1,1,0,0,0,.76-.25A.89.89,0,0,0,173.21,353.53Z"/><path id="Trazado_2989" data-name="Trazado 2989" class="cls-34" d="M179.81,357.36a1.19,1.19,0,0,0-.66.17c-.11.07-.14.14-.14.17a1.17,1.17,0,0,0,.93.37,1,1,0,0,0,.76-.26A.92.92,0,0,0,179.81,357.36Z"/><path id="Trazado_2990" data-name="Trazado 2990" class="cls-34" d="M186.4,361.2a1.19,1.19,0,0,0-.66.17c-.1.07-.13.14-.13.16a1.13,1.13,0,0,0,.93.37,1,1,0,0,0,.76-.25A.89.89,0,0,0,186.4,361.2Z"/><path id="Trazado_2991" data-name="Trazado 2991" class="cls-34" d="M193,365a1.19,1.19,0,0,0-.66.17c-.1.07-.14.14-.13.17a1.15,1.15,0,0,0,.93.37,1,1,0,0,0,.76-.26A.93.93,0,0,0,193,365Z"/><path id="Trazado_2992" data-name="Trazado 2992" class="cls-34" d="M206.19,372.7a1.19,1.19,0,0,0-.66.17c-.1.07-.14.14-.13.17a1.17,1.17,0,0,0,.93.37,1,1,0,0,0,.76-.26A.92.92,0,0,0,206.19,372.7Z"/><path id="Trazado_2993" data-name="Trazado 2993" class="cls-34" d="M219.39,380.38a1.2,1.2,0,0,0-.67.17c-.1.07-.13.14-.13.16a1.17,1.17,0,0,0,.93.38,1,1,0,0,0,.76-.26A.88.88,0,0,0,219.39,380.38Z"/></g><path id="Trazado_2994" data-name="Trazado 2994" class="cls-19" d="M223.09,349.67,255,368.11l10.82-6.28L234.79,343.9Z"/><path id="Trazado_2995" data-name="Trazado 2995" class="cls-35" d="M189.79,376.07l25.37,14.58a2.78,2.78,0,0,0,3.79-1,2.87,2.87,0,0,0,.37-1.37v-1.89L190.93,370Z"/></g></g></g></g></g></g></svg>