<svg xmlns="http://www.w3.org/2000/svg" width="59.375" height="53.903" viewBox="0 0 59.375 53.903">
  <g id="support_1_" data-name="support (1)" transform="translate(0.335 -23.212)">
    <g id="Grupo_344" data-name="Grupo 344" transform="translate(53.69 58.517)">
      <g id="Grupo_343" data-name="Grupo 343">
        <path id="Trazado_362" data-name="Trazado 362" d="M472.347,331.864l-2.8-2.78a1.148,1.148,0,1,0-1.618,1.631l2.8,2.78a1.149,1.149,0,0,0,1.618-1.631Z" transform="translate(-467.587 -328.751)" fill="#377c86" stroke="#377c86" stroke-width="0.5"/>
      </g>
    </g>
    <g id="Grupo_346" data-name="Grupo 346" transform="translate(50.83 55.669)">
      <g id="Grupo_345" data-name="Grupo 345">
        <path id="Trazado_363" data-name="Trazado 363" d="M444.637,304.288a1.148,1.148,0,0,0-1.624,0l0,0a1.148,1.148,0,1,0,1.626,0Z" transform="translate(-442.675 -303.952)" fill="#377c86" stroke="#377c86" stroke-width="0.5"/>
      </g>
    </g>
    <g id="Grupo_348" data-name="Grupo 348" transform="translate(0 23.462)">
      <g id="Grupo_347" data-name="Grupo 347">
        <path id="Trazado_364" data-name="Trazado 364" d="M43,61.3,54.142,50.16a4.325,4.325,0,0,0-2.087-7.275,4.329,4.329,0,0,0-3.19-6.089,4.321,4.321,0,0,0-3.371-5.617,4.33,4.33,0,0,0-6.177-5.162l-.111-.119a7.664,7.664,0,0,0-5.592-2.435H24.6a1.149,1.149,0,0,0-1.148,1.148v1.506a5.217,5.217,0,0,0,.3,1.741,4.328,4.328,0,0,0-5.768,5.357A4.328,4.328,0,0,0,14.6,38.833a4.328,4.328,0,0,0-3.187,6.086A4.328,4.328,0,0,0,9.324,52.2l2.291,2.291L.336,65.767A1.148,1.148,0,1,0,1.96,67.391L13.348,56a4.325,4.325,0,0,0,6.46-3.938c.058,0,.116,0,.175,0a4.324,4.324,0,0,0,4.328-4.326c0-.058,0-.117,0-.175.058,0,.115,0,.173,0a4.324,4.324,0,0,0,4.328-4.326c0-.058,0-.117,0-.175.058,0,.115,0,.173,0a4.326,4.326,0,0,0,3.347-7.069l7.624-7.624a2.031,2.031,0,1,1,2.872,2.872L41.695,32.38l-4.078,4.078a1.148,1.148,0,1,0,1.624,1.624L43.319,34a2.031,2.031,0,1,1,2.872,2.872L45.067,38l-2.954,2.954a1.148,1.148,0,1,0,1.624,1.624l2.954-2.954A2.031,2.031,0,1,1,49.563,42.5L48.02,44.04l-1.411,1.411a1.148,1.148,0,1,0,1.624,1.624l1.412-1.412a2.031,2.031,0,0,1,2.871,2.873L41.375,59.677a15.558,15.558,0,0,1-10.469,4.561,1.148,1.148,0,0,0-.772.337L19.842,74.906a1.148,1.148,0,1,0,1.627,1.621l7.57-7.6A10.675,10.675,0,0,0,35.522,70.6l5.925,5.925A1.148,1.148,0,1,0,43.071,74.9l-6.3-6.3a1.149,1.149,0,0,0-.906-.333l-.364.03a8.384,8.384,0,0,1-4.792-1.043l.738-.741A17.845,17.845,0,0,0,43,61.3ZM16.924,53.676a2.031,2.031,0,0,1-2.872,0l-3.1-3.1A2.031,2.031,0,1,1,13.82,47.7l3.1,3.1A2.033,2.033,0,0,1,16.924,53.676Zm4.5-4.5a2.033,2.033,0,0,1-2.872,0l-3.1-3.1L13.9,44.533a2.031,2.031,0,1,1,2.872-2.872l4.646,4.646h0a2.031,2.031,0,0,1,0,2.872Zm4.5-4.5a2.033,2.033,0,0,1-2.872,0l-5.77-5.77a2.031,2.031,0,0,1,2.871-2.873l2.63,2.63,3.141,3.141h0a2.031,2.031,0,0,1,0,2.872Zm4.5-4.5a2.033,2.033,0,0,1-2.872,0l-5.77-5.77,0,0-1.122-1.122a2.031,2.031,0,0,1,2.872-2.872l6.894,6.894a2.031,2.031,0,0,1,0,2.872Zm.3-5.818L27.56,31.214a5.255,5.255,0,0,0,1.1.117h.025l3.152-.015a1.148,1.148,0,0,0-.005-2.3h-.006l-3.152.015H28.66a2.917,2.917,0,0,1-2.917-2.917v-.358h7.87a5.36,5.36,0,0,1,3.911,1.7l.047.05Z" transform="translate(0 -23.462)" fill="#377c86" stroke="#377c86" stroke-width="0.5"/>
      </g>
    </g>
  </g>
</svg>
