<svg xmlns="http://www.w3.org/2000/svg" width="54.962" height="54.963" viewBox="0 0 54.962 54.963">
  <g id="settings" transform="translate(0.318 0.25)">
    <g id="Grupo_336" data-name="Grupo 336" transform="translate(0 18.358)">
      <g id="Grupo_335" data-name="Grupo 335" transform="translate(0)">
        <path id="Trazado_357" data-name="Trazado 357" d="M34.936,193.617c-.572-.344-1.159-.689-1.746-1.028a15.2,15.2,0,0,0,0-3.54c.589-.34,1.176-.685,1.745-1.027a2.293,2.293,0,0,0,.929-2.826h0l-1.251-3.019a2.293,2.293,0,0,0-2.655-1.342c-.645.161-1.3.331-1.961.507a15.2,15.2,0,0,0-2.5-2.5c.176-.657.347-1.316.508-1.961a2.293,2.293,0,0,0-1.342-2.655l-3.019-1.251a2.293,2.293,0,0,0-2.827.929c-.343.571-.689,1.158-1.028,1.746a15.2,15.2,0,0,0-3.54,0c-.34-.59-.686-1.176-1.027-1.745a2.293,2.293,0,0,0-2.827-.929l-3.019,1.251a2.293,2.293,0,0,0-1.342,2.655c.161.646.332,1.306.507,1.961a15.194,15.194,0,0,0-2.5,2.5c-.658-.177-1.318-.347-1.962-.508a2.293,2.293,0,0,0-2.655,1.342L.171,185.2a2.293,2.293,0,0,0,.929,2.826c.571.343,1.158.689,1.746,1.028a15.211,15.211,0,0,0,0,3.54c-.588.339-1.175.685-1.745,1.028a2.293,2.293,0,0,0-.929,2.826l1.251,3.019A2.293,2.293,0,0,0,4.077,200.8c.644-.16,1.3-.331,1.96-.507a15.211,15.211,0,0,0,2.5,2.5c-.176.658-.347,1.317-.508,1.961a2.293,2.293,0,0,0,1.342,2.655l3.019,1.251a2.257,2.257,0,0,0,.864.172,2.293,2.293,0,0,0,1.962-1.1c.341-.567.686-1.153,1.028-1.746a15.228,15.228,0,0,0,3.54,0c.338.586.683,1.172,1.027,1.745a2.293,2.293,0,0,0,2.827.929l3.019-1.251A2.293,2.293,0,0,0,28,204.761c-.16-.641-.33-1.3-.507-1.961a15.21,15.21,0,0,0,2.5-2.5c.656.176,1.316.347,1.961.508a2.293,2.293,0,0,0,2.655-1.342l1.251-3.019A2.293,2.293,0,0,0,34.936,193.617Zm-2.521,4.792c-.62-.155-1.252-.32-1.881-.489a2.275,2.275,0,0,0-2.392.8,12.765,12.765,0,0,1-2.228,2.228,2.274,2.274,0,0,0-.8,2.391c.17.633.334,1.264.489,1.88l-2.775,1.149c-.33-.551-.661-1.113-.984-1.675a2.275,2.275,0,0,0-2.254-1.128,12.779,12.779,0,0,1-3.15,0,2.274,2.274,0,0,0-2.256,1.128c-.327.568-.658,1.131-.984,1.676l-2.775-1.15c.155-.619.319-1.251.489-1.881a2.275,2.275,0,0,0-.8-2.393,12.767,12.767,0,0,1-2.228-2.227,2.274,2.274,0,0,0-2.391-.8c-.629.169-1.261.334-1.88.489l-1.15-2.775c.548-.329,1.111-.659,1.675-.984A2.274,2.274,0,0,0,5.274,192.4a12.781,12.781,0,0,1,0-3.151,2.274,2.274,0,0,0-1.128-2.256c-.563-.324-1.127-.655-1.676-.984l1.15-2.775c.618.155,1.25.319,1.881.489a2.275,2.275,0,0,0,2.393-.8,12.762,12.762,0,0,1,2.227-2.228,2.274,2.274,0,0,0,.8-2.392c-.169-.627-.333-1.259-.489-1.88l2.775-1.149c.328.547.658,1.11.984,1.675a2.274,2.274,0,0,0,2.254,1.128,12.757,12.757,0,0,1,3.151,0,2.274,2.274,0,0,0,2.256-1.128c.324-.563.655-1.127.984-1.676l2.775,1.149c-.155.62-.32,1.252-.489,1.881a2.275,2.275,0,0,0,.8,2.392,12.771,12.771,0,0,1,2.228,2.227,2.274,2.274,0,0,0,2.392.8c.629-.169,1.261-.334,1.88-.489L33.565,186c-.547.328-1.11.659-1.675.984a2.274,2.274,0,0,0-1.128,2.254,12.767,12.767,0,0,1,0,3.151,2.275,2.275,0,0,0,1.128,2.256c.563.324,1.126.655,1.676.984Z" transform="translate(0 -172.801)" fill="#377c86" stroke="#377c86" stroke-width="0.5"/>
      </g>
    </g>
    <g id="Grupo_338" data-name="Grupo 338" transform="translate(9.72 28.079)">
      <g id="Grupo_337" data-name="Grupo 337">
        <path id="Trazado_358" data-name="Trazado 358" d="M107.458,269.416h0a8.308,8.308,0,1,0-4.491,10.842A8.307,8.307,0,0,0,107.458,269.416Zm-5.423,8.592a5.863,5.863,0,1,1,3.173-7.661A5.826,5.826,0,0,1,102.035,278.008Z" transform="translate(-91.494 -264.293)" fill="#377c86" stroke="#377c86" stroke-width="0.5"/>
      </g>
    </g>
    <g id="Grupo_340" data-name="Grupo 340" transform="translate(26.756)">
      <g id="Grupo_339" data-name="Grupo 339">
        <path id="Trazado_359" data-name="Trazado 359" d="M277.845,10.723c-.42-.063-.852-.124-1.287-.182a11.333,11.333,0,0,0-.873-2.106c.266-.348.528-.7.782-1.039a1.94,1.94,0,0,0-.189-2.51L274.6,3.208a1.94,1.94,0,0,0-2.51-.189c-.344.254-.692.516-1.039.781a11.33,11.33,0,0,0-2.106-.873c-.058-.435-.119-.866-.182-1.287A1.94,1.94,0,0,0,266.854,0h-2.375a1.94,1.94,0,0,0-1.908,1.641c-.063.42-.124.852-.182,1.287a11.327,11.327,0,0,0-2.106.873c-.347-.265-.7-.527-1.039-.781a1.94,1.94,0,0,0-2.51.189l-1.679,1.679a1.94,1.94,0,0,0-.189,2.51c.253.342.515.691.781,1.039a11.343,11.343,0,0,0-.873,2.106c-.435.058-.866.119-1.287.182a1.94,1.94,0,0,0-1.641,1.908v2.375a1.94,1.94,0,0,0,1.641,1.908c.42.063.852.124,1.287.182a11.344,11.344,0,0,0,.873,2.106c-.266.348-.528.7-.782,1.039a1.94,1.94,0,0,0,.189,2.51l1.679,1.679a1.94,1.94,0,0,0,2.51.189c.344-.254.692-.516,1.039-.781a11.335,11.335,0,0,0,2.106.873c.058.435.119.866.182,1.287a1.94,1.94,0,0,0,1.908,1.641h2.375A1.94,1.94,0,0,0,268.762,26c.063-.42.124-.852.182-1.287a11.322,11.322,0,0,0,2.106-.873c.347.265.7.527,1.039.782a1.94,1.94,0,0,0,2.51-.189l1.679-1.679a1.94,1.94,0,0,0,.189-2.51c-.253-.343-.516-.691-.781-1.039a11.342,11.342,0,0,0,.873-2.106c.435-.058.866-.119,1.287-.182a1.94,1.94,0,0,0,1.641-1.908V12.632A1.94,1.94,0,0,0,277.845,10.723Zm-.672,3.953c-.382.055-.771.109-1.162.16a1.924,1.924,0,0,0-1.611,1.4,9.006,9.006,0,0,1-.851,2.053,1.924,1.924,0,0,0,.151,2.128c.24.311.477.625.708.935L273.2,22.561c-.311-.232-.624-.469-.935-.709a1.925,1.925,0,0,0-2.128-.151,9.008,9.008,0,0,1-2.053.851,1.923,1.923,0,0,0-1.4,1.611c-.051.391-.1.78-.16,1.162H264.81c-.055-.382-.109-.771-.16-1.161a1.924,1.924,0,0,0-1.4-1.611A9,9,0,0,1,261.2,21.7a1.924,1.924,0,0,0-2.128.151c-.311.239-.624.477-.935.709l-1.212-1.212c.231-.31.469-.623.709-.935a1.925,1.925,0,0,0,.151-2.128,9.009,9.009,0,0,1-.851-2.053,1.924,1.924,0,0,0-1.611-1.4c-.391-.051-.78-.1-1.162-.16V12.962c.382-.055.771-.109,1.162-.16a1.924,1.924,0,0,0,1.611-1.4,9,9,0,0,1,.851-2.053,1.924,1.924,0,0,0-.151-2.128c-.24-.312-.478-.625-.709-.935l1.212-1.212c.311.232.624.469.935.708a1.924,1.924,0,0,0,2.128.151,9.011,9.011,0,0,1,2.053-.851,1.923,1.923,0,0,0,1.4-1.611c.051-.391.1-.78.16-1.162h1.714c.055.382.109.771.16,1.161a1.924,1.924,0,0,0,1.4,1.611,9.007,9.007,0,0,1,2.053.851,1.924,1.924,0,0,0,2.128-.151c.311-.239.624-.477.935-.709l1.212,1.212c-.231.31-.469.623-.709.935a1.925,1.925,0,0,0-.151,2.128,9.016,9.016,0,0,1,.851,2.053,1.924,1.924,0,0,0,1.611,1.4c.391.051.78.1,1.162.16Z" transform="translate(-251.847)" fill="#377c86" stroke="#377c86" stroke-width="0.5"/>
      </g>
    </g>
    <g id="Grupo_342" data-name="Grupo 342" transform="translate(35.646 8.89)">
      <g id="Grupo_341" data-name="Grupo 341">
        <path id="Trazado_360" data-name="Trazado 360" d="M340.453,83.675a4.93,4.93,0,1,0,4.93,4.93A4.935,4.935,0,0,0,340.453,83.675Zm0,7.668a2.738,2.738,0,1,1,2.738-2.738A2.742,2.742,0,0,1,340.453,91.343Z" transform="translate(-335.523 -83.675)" fill="#377c86" stroke="#377c86" stroke-width="0.5"/>
      </g>
    </g>
  </g>
</svg>
