<svg xmlns="http://www.w3.org/2000/svg" width="51.882" height="51.758" viewBox="0 0 51.882 51.758">
  <g id="Grupo_291" data-name="Grupo 291" transform="translate(-147.662 -126.703)">
    <path id="Trazado_294" data-name="Trazado 294" d="M275.692,258.856c-1.231-1.195-4.269-4.242-5.483-5.454-.14-.14-.29-.271-.429-.4a16.533,16.533,0,1,1,4.414-4.417,1.092,1.092,0,0,0,.125.19c1.324,1.331,5.806,5.815,5.806,5.815ZM260.5,253.735a14.465,14.465,0,1,0-14.486-14.53A14.5,14.5,0,0,0,260.5,253.735Zm16.448.754-4.05-4.051-1.358,1.273,4.083,4.177Z" transform="translate(-81.296 -81.09)" fill="#083e63" stroke="#083e63" stroke-width="1"/>
    <path id="Trazado_295" data-name="Trazado 295" d="M187.45,129.3H174.016v.736q0,4.087,0,8.173c0,1.04-.344,1.388-1.372,1.39q-3.814,0-7.628,0c-.995,0-1.349-.357-1.35-1.349q0-4.117,0-8.234v-.7H150.282v37.128c.219.01.451.03.683.03q5.086,0,10.171,0a3.955,3.955,0,0,1,.6.018,1.056,1.056,0,0,1,.9,1.053,1.031,1.031,0,0,1-.913.975,3.827,3.827,0,0,1-.544.018q-5.782,0-11.564,0c-1.149,0-1.46-.317-1.46-1.483q0-19.162,0-38.324c0-1.233.294-1.523,1.54-1.523h38.324c1.191,0,1.493.3,1.493,1.51q0,5.751,0,11.5a3.12,3.12,0,0,1-.031.6,1.034,1.034,0,0,1-1.042.838,1.019,1.019,0,0,1-.977-.907,4.465,4.465,0,0,1-.018-.6q0-5.055,0-10.111ZM171.9,137.5v-8.192h-6.122V137.5Z" transform="translate(0 0)" fill="#083e63" stroke="#083e63" stroke-width="1"/>
    <path id="Trazado_296" data-name="Trazado 296" d="M179.743,291.092c.966,0,1.933-.007,2.9,0a1.052,1.052,0,0,1,1.179,1.017,1.068,1.068,0,0,1-1.167,1.04q-2.96.015-5.919,0a1.069,1.069,0,0,1-1.178-1.029,1.045,1.045,0,0,1,1.166-1.028C177.729,291.085,178.736,291.092,179.743,291.092Z" transform="translate(-23.247 -139.074)" fill="#083e63" stroke="#083e63" stroke-width="1"/>
    <path id="Trazado_297" data-name="Trazado 297" d="M178.639,320.41c-.646,0-1.292.011-1.938,0a1.054,1.054,0,0,1-1.141-1.063,1.038,1.038,0,0,1,1.146-.992q1.968-.016,3.936,0a1.031,1.031,0,0,1,1.113,1.026,1.05,1.05,0,0,1-1.117,1.027C179.971,320.421,179.3,320.409,178.639,320.41Z" transform="translate(-23.25 -162.202)" fill="#083e63" stroke="#083e63" stroke-width="1"/>
  </g>
</svg>
