<svg xmlns="http://www.w3.org/2000/svg" xmlns:xlink="http://www.w3.org/1999/xlink" viewBox="0 0 383 190"><defs><style>.cls-1{fill:url(#Degradado_sin_nombre_12);}.cls-2{fill:url(#Degradado_sin_nombre_2);}.cls-3{fill:#fff;}.cls-4{isolation:isolate;}.cls-5{fill:#3e413f;}</style><linearGradient id="Degradado_sin_nombre_12" x1="22.85" y1="627.32" x2="22.18" y2="628.18" gradientTransform="matrix(275, 0, 0, -111, -5945.71, 69774.34)" gradientUnits="userSpaceOnUse"><stop offset="0" stop-color="#354377"/><stop offset="1" stop-color="#4770be"/></linearGradient><linearGradient id="Degradado_sin_nombre_2" x1="21.64" y1="628.29" x2="22.4" y2="627.64" gradientTransform="matrix(190, 0, 0, -190, -4086.7, 119410.36)" gradientUnits="userSpaceOnUse"><stop offset="0" stop-color="#4770be"/><stop offset="1" stop-color="#344072"/></linearGradient></defs><title>Recurso 13</title><g id="Capa_2" data-name="Capa 2"><g id="Capa_1-2" data-name="Capa 1"><g id="Grupo_243" data-name="Grupo 243"><path id="Rectángulo_16" data-name="Rectángulo 16" class="cls-1" d="M163.5,39h164A55.5,55.5,0,0,1,383,94.5h0A55.5,55.5,0,0,1,327.5,150h-164A55.5,55.5,0,0,1,108,94.5h0A55.5,55.5,0,0,1,163.5,39Z"/><circle id="Elipse_3" data-name="Elipse 3" class="cls-2" cx="95" cy="95" r="95"/><circle id="Elipse_4-4" data-name="Elipse 4-4" class="cls-3" cx="94.5" cy="94.5" r="76.5"/><g id="Data_Center" data-name="Data Center" class="cls-4"><g class="cls-4"><path class="cls-3" d="M219.85,86.4h5.72c4.13,0,7,2.48,7,6.3s-2.82,6.3-7,6.3h-5.72Zm5.58,10.21c2.5,0,4.14-1.5,4.14-3.91s-1.64-3.91-4.14-3.91h-2.66v7.82Z"/><path class="cls-3" d="M243.09,93.47V99h-2.63V97.79a3.16,3.16,0,0,1-3,1.35c-2.27,0-3.62-1.26-3.62-2.93s1.2-2.9,4.16-2.9h2.23c0-1.21-.72-1.91-2.23-1.91a4.63,4.63,0,0,0-2.79.9l-1-2a7.42,7.42,0,0,1,4.18-1.17C241.38,89.17,243.09,90.54,243.09,93.47Zm-2.81,2.47V95h-1.93c-1.31,0-1.73.48-1.73,1.13s.6,1.17,1.59,1.17A2.06,2.06,0,0,0,240.28,95.94Z"/><path class="cls-3" d="M251.87,98.53a3.94,3.94,0,0,1-2.28.61c-2.29,0-3.62-1.17-3.62-3.47v-4h-1.5V89.53H246V87.17h2.81v2.36h2.41v2.16h-2.41v3.94a1.13,1.13,0,0,0,1.2,1.28,1.93,1.93,0,0,0,1.14-.36Z"/><path class="cls-3" d="M262,93.47V99H259.4V97.79a3.18,3.18,0,0,1-3,1.35c-2.27,0-3.62-1.26-3.62-2.93s1.21-2.9,4.16-2.9h2.24c0-1.21-.72-1.91-2.24-1.91a4.65,4.65,0,0,0-2.79.9l-1-2a7.44,7.44,0,0,1,4.18-1.17C260.31,89.17,262,90.54,262,93.47Zm-2.81,2.47V95h-1.93c-1.31,0-1.73.48-1.73,1.13s.59,1.17,1.59,1.17A2.08,2.08,0,0,0,259.22,95.94Z"/><path class="cls-3" d="M269.06,92.7c0-3.8,2.92-6.52,6.84-6.52a6.52,6.52,0,0,1,5.19,2.23l-1.88,1.73a4,4,0,0,0-3.16-1.48,4,4,0,1,0,0,8.07,4,4,0,0,0,3.16-1.49L281.09,97a6.93,6.93,0,0,1-12-4.27Z"/><path class="cls-3" d="M291.94,95h-7.33a2.58,2.58,0,0,0,2.77,1.94,3.3,3.3,0,0,0,2.44-.93l1.49,1.62a5.09,5.09,0,0,1-4,1.56c-3.35,0-5.52-2.1-5.52-5a4.93,4.93,0,0,1,5.16-5,4.79,4.79,0,0,1,5,5C292,94.41,292,94.71,291.94,95Zm-7.36-1.64h4.77a2.31,2.31,0,0,0-2.38-2A2.29,2.29,0,0,0,284.58,93.31Z"/><path class="cls-3" d="M303.77,93.45V99H301V93.89c0-1.57-.72-2.29-2-2.29s-2.32.83-2.32,2.61V99h-2.81V89.31h2.69v1.14a4.22,4.22,0,0,1,3.2-1.28C302,89.17,303.77,90.5,303.77,93.45Z"/><path class="cls-3" d="M312.55,98.53a4,4,0,0,1-2.29.61c-2.28,0-3.62-1.17-3.62-3.47v-4h-1.49V89.53h1.49V87.17h2.81v2.36h2.41v2.16h-2.41v3.94a1.13,1.13,0,0,0,1.21,1.28,1.9,1.9,0,0,0,1.13-.36Z"/><path class="cls-3" d="M323.26,95h-7.33a2.58,2.58,0,0,0,2.77,1.94,3.3,3.3,0,0,0,2.44-.93l1.49,1.62a5.09,5.09,0,0,1-4,1.56c-3.35,0-5.52-2.1-5.52-5a4.93,4.93,0,0,1,5.16-5,4.79,4.79,0,0,1,5,5C323.31,94.41,323.28,94.71,323.26,95Zm-7.36-1.64h4.77a2.31,2.31,0,0,0-2.38-2A2.29,2.29,0,0,0,315.9,93.31Z"/><path class="cls-3" d="M331.2,89.17v2.59c-.24,0-.42,0-.63,0a2.38,2.38,0,0,0-2.58,2.7V99h-2.81V89.31h2.69v1.28A3.91,3.91,0,0,1,331.2,89.17Z"/></g></g></g><g id="Grupo_348" data-name="Grupo 348"><path id="Trazado_608" data-name="Trazado 608" class="cls-5" d="M76.1,49.22V128.4h2.61v-6.09h32.2v6.09h3.48V49.22Zm34.8,70.48H78.71V104.91h32.2Zm0-17.4H78.71V87.51h32.2Zm0-17.4H78.71V70.11h32.2Zm0-17.4H78.71V52.7h32.2Z"/><path id="Trazado_609" data-name="Trazado 609" class="cls-5" d="M81.32,55.31V64h14.8v-8.7Zm6.1,6.09H84.81V58.79h2.61Zm6.09,0H90.9V58.79h2.61Z"/><rect id="Rectángulo_210" data-name="Rectángulo 210" class="cls-5" x="99.6" y="55.31" width="2.61" height="2.61"/><rect id="Rectángulo_211" data-name="Rectángulo 211" class="cls-5" x="104.82" y="55.31" width="2.61" height="2.61"/><rect id="Rectángulo_212" data-name="Rectángulo 212" class="cls-5" x="99.6" y="61.4" width="2.61" height="2.61"/><rect id="Rectángulo_213" data-name="Rectángulo 213" class="cls-5" x="104.82" y="61.4" width="2.61" height="2.61"/><path id="Trazado_610" data-name="Trazado 610" class="cls-5" d="M81.32,72.71v8.7h14.8v-8.7Zm6.1,6.1H84.81V76.19h2.61Zm6.09,0H90.9V76.19h2.61Z"/><rect id="Rectángulo_214" data-name="Rectángulo 214" class="cls-5" x="99.6" y="73.58" width="2.61" height="2.61"/><rect id="Rectángulo_215" data-name="Rectángulo 215" class="cls-5" x="104.82" y="73.58" width="2.61" height="2.61"/><rect id="Rectángulo_216" data-name="Rectángulo 216" class="cls-5" x="99.6" y="78.8" width="2.61" height="2.61"/><rect id="Rectángulo_217" data-name="Rectángulo 217" class="cls-5" x="104.82" y="78.8" width="2.61" height="2.61"/><path id="Trazado_611" data-name="Trazado 611" class="cls-5" d="M81.32,91v8.71h14.8V91Zm6.1,5.23H84.81V93.6h2.61Zm6.09,0H90.9V93.6h2.61Z"/><rect id="Rectángulo_218" data-name="Rectángulo 218" class="cls-5" x="99.6" y="90.99" width="2.61" height="2.61"/><rect id="Rectángulo_219" data-name="Rectángulo 219" class="cls-5" x="104.82" y="90.99" width="2.61" height="2.61"/><rect id="Rectángulo_220" data-name="Rectángulo 220" class="cls-5" x="99.6" y="96.21" width="2.61" height="2.61"/><rect id="Rectángulo_221" data-name="Rectángulo 221" class="cls-5" x="104.82" y="96.21" width="2.61" height="2.61"/><path id="Trazado_612" data-name="Trazado 612" class="cls-5" d="M81.32,108.39v8.7h14.8v-8.7Zm6.1,5.22H84.81V111h2.61Zm6.09,0H90.9V111h2.61Z"/><rect id="Rectángulo_222" data-name="Rectángulo 222" class="cls-5" x="99.6" y="108.39" width="2.61" height="2.61"/><rect id="Rectángulo_223" data-name="Rectángulo 223" class="cls-5" x="104.82" y="108.39" width="2.61" height="2.61"/><rect id="Rectángulo_224" data-name="Rectángulo 224" class="cls-5" x="99.6" y="114.48" width="2.61" height="2.61"/><rect id="Rectángulo_225" data-name="Rectángulo 225" class="cls-5" x="104.82" y="114.48" width="2.61" height="2.61"/><rect id="Rectángulo_226" data-name="Rectángulo 226" class="cls-5" x="82.19" y="125.79" width="2.61" height="2.61"/><rect id="Rectángulo_227" data-name="Rectángulo 227" class="cls-5" x="87.42" y="125.79" width="2.61" height="2.61"/><rect id="Rectángulo_228" data-name="Rectángulo 228" class="cls-5" x="93.51" y="125.79" width="2.61" height="2.61"/><rect id="Rectángulo_229" data-name="Rectángulo 229" class="cls-5" x="99.6" y="125.79" width="2.61" height="2.61"/><rect id="Rectángulo_230" data-name="Rectángulo 230" class="cls-5" x="104.82" y="125.79" width="2.61" height="2.61"/><path id="Trazado_613" data-name="Trazado 613" class="cls-5" d="M55.22,72.71v8.7H66.53v-8.7Zm8.7,6.1H57.83V76.19h6.09Z"/><path id="Trazado_614" data-name="Trazado 614" class="cls-5" d="M55.22,91v8.71H66.53V91Zm8.7,5.23H57.83V93.6h6.09Z"/><path id="Trazado_615" data-name="Trazado 615" class="cls-5" d="M55.22,108.39v8.7H66.53v-8.7Zm8.7,5.22H57.83V111h6.09Z"/><rect id="Rectángulo_231" data-name="Rectángulo 231" class="cls-5" x="55.22" y="125.79" width="2.61" height="2.61"/><rect id="Rectángulo_232" data-name="Rectángulo 232" class="cls-5" x="61.31" y="125.79" width="2.61" height="2.61"/><path id="Trazado_616" data-name="Trazado 616" class="cls-5" d="M136.14,67.49H119.61V48.35A4.35,4.35,0,0,0,115.26,44H74.36A4.35,4.35,0,0,0,70,48.35V67.49H54.35A4.35,4.35,0,0,0,50,71.84v62.65h90.49V71.87a4.35,4.35,0,0,0-4.32-4.38ZM70,131H52.61v-8.7H70Zm0-11.31H52.61V104.91H70Zm0-17.4H52.61V87.51H70Zm0-17.4H52.61V71.59a1.46,1.46,0,0,1,1.45-1.48H70ZM117,131H73.49V48.07A1.46,1.46,0,0,1,75,46.61h40.6A1.46,1.46,0,0,1,117,48.07Zm20,0h-17.4v-8.7H137Zm0-11.31h-17.4V104.91H137Zm0-17.4h-17.4V87.51H137Zm0-17.4H119.61V70.1h15.94A1.47,1.47,0,0,1,137,71.56h0Z"/><path id="Trazado_617" data-name="Trazado 617" class="cls-5" d="M123.09,72.71v8.7H134.4v-8.7Zm8.7,6.1H125.7V76.19h6.09Z"/><path id="Trazado_618" data-name="Trazado 618" class="cls-5" d="M123.09,91v8.71H134.4V91Zm8.7,5.23H125.7V93.6h6.09Z"/><path id="Trazado_619" data-name="Trazado 619" class="cls-5" d="M123.09,108.39v8.7H134.4v-8.7Zm8.7,5.22H125.7V111h6.09Z"/><rect id="Rectángulo_233" data-name="Rectángulo 233" class="cls-5" x="131.79" y="125.79" width="2.61" height="2.61"/><rect id="Rectángulo_234" data-name="Rectángulo 234" class="cls-5" x="125.7" y="125.79" width="2.61" height="2.61"/></g></g></g></svg>