<svg xmlns="http://www.w3.org/2000/svg" xmlns:xlink="http://www.w3.org/1999/xlink" viewBox="0 0 383 190"><defs><style>.cls-1{fill:url(#Degradado_sin_nombre_5);}.cls-2{fill:url(#Degradado_sin_nombre_6);}.cls-3{fill:#fff;}.cls-4{isolation:isolate;}.cls-5{fill:#3e413f;}</style><linearGradient id="Degradado_sin_nombre_5" x1="-376.15" y1="627.32" x2="-376.82" y2="628.18" gradientTransform="matrix(275, 0, 0, -111, 103779.29, 69774.34)" gradientUnits="userSpaceOnUse"><stop offset="0" stop-color="#006b7a"/><stop offset="1" stop-color="#00a5a3"/></linearGradient><linearGradient id="Degradado_sin_nombre_6" x1="-377.36" y1="628.29" x2="-376.6" y2="627.64" gradientTransform="matrix(190, 0, 0, -190, 71723.3, 119410.36)" gradientUnits="userSpaceOnUse"><stop offset="0" stop-color="#00ada9"/><stop offset="1" stop-color="#006a79"/></linearGradient></defs><title>Recurso 14</title><g id="Capa_2" data-name="Capa 2"><g id="Capa_1-2" data-name="Capa 1"><g id="Grupo_357" data-name="Grupo 357"><g id="Grupo_242" data-name="Grupo 242"><path id="Rectángulo_16-2" data-name="Rectángulo 16-2" class="cls-1" d="M163.5,39h164A55.5,55.5,0,0,1,383,94.5h0A55.5,55.5,0,0,1,327.5,150h-164A55.5,55.5,0,0,1,108,94.5h0A55.5,55.5,0,0,1,163.5,39Z"/><circle id="Elipse_3-2" data-name="Elipse 3-2" class="cls-2" cx="95" cy="95" r="95"/><circle id="Elipse_4-5" data-name="Elipse 4-5" class="cls-3" cx="94.5" cy="94.5" r="76.5"/><g id="Redes_LAN_WAN" data-name="Redes LAN WAN" class="cls-4"><g class="cls-4"><path class="cls-3" d="M253.38,86l-2.7-3.9h-3V86h-3.24V72h6.06c3.74,0,6.08,1.94,6.08,5.08a4.55,4.55,0,0,1-2.88,4.42l3.14,4.5Zm-3-11.36H247.7v4.88h2.64c2,0,3-.92,3-2.44S252.32,74.64,250.34,74.64Z"/><path class="cls-3" d="M269.42,81.5h-8.14a2.87,2.87,0,0,0,3.08,2.16,3.65,3.65,0,0,0,2.7-1l1.66,1.8a5.64,5.64,0,0,1-4.44,1.74c-3.72,0-6.14-2.34-6.14-5.54a5.48,5.48,0,0,1,5.74-5.54,5.33,5.33,0,0,1,5.6,5.58C269.48,80.9,269.44,81.24,269.42,81.5Zm-8.18-1.82h5.3a2.69,2.69,0,0,0-5.3,0Z"/><path class="cls-3" d="M282.52,71.16V86h-3V84.76a4.14,4.14,0,0,1-3.36,1.4,5.54,5.54,0,0,1,0-11.08,4.13,4.13,0,0,1,3.22,1.3V71.16Zm-3.06,9.46a2.76,2.76,0,1,0-2.74,3A2.73,2.73,0,0,0,279.46,80.62Z"/><path class="cls-3" d="M295.88,81.5h-8.14a2.87,2.87,0,0,0,3.08,2.16,3.65,3.65,0,0,0,2.7-1l1.66,1.8a5.64,5.64,0,0,1-4.44,1.74c-3.72,0-6.14-2.34-6.14-5.54a5.48,5.48,0,0,1,5.74-5.54,5.33,5.33,0,0,1,5.6,5.58C295.94,80.9,295.9,81.24,295.88,81.5Zm-8.18-1.82H293a2.69,2.69,0,0,0-5.3,0Z"/><path class="cls-3" d="M297,85l1-2.24a7.36,7.36,0,0,0,3.74,1c1.44,0,2-.38,2-1,0-1.76-6.5,0-6.5-4.26,0-2,1.84-3.48,5-3.48a8.85,8.85,0,0,1,4.14.94l-1,2.22a6.18,6.18,0,0,0-3.1-.8c-1.4,0-2,.44-2,1,0,1.84,6.5.06,6.5,4.3,0,2-1.86,3.42-5.08,3.42A9.24,9.24,0,0,1,297,85Z"/></g><g class="cls-4"><path class="cls-3" d="M226.44,96h3.24v11.36h7V110H226.44Z"/><path class="cls-3" d="M247.86,107h-6.5l-1.24,3H236.8L243,96h3.2l6.26,14h-3.4Zm-1-2.46-2.22-5.36-2.22,5.36Z"/><path class="cls-3" d="M266.8,96v14h-2.66l-7-8.5V110H254V96h2.68l7,8.5V96Z"/><path class="cls-3" d="M274.4,93.16h2.78L270.58,112H267.8Z"/><path class="cls-3" d="M299.72,96l-4.58,14h-3.48l-3.08-9.48L285.4,110h-3.46l-4.6-14h3.36l3.16,9.84,3.3-9.84h3l3.2,9.92L296.62,96Z"/><path class="cls-3" d="M310.28,107h-6.5l-1.24,3h-3.32l6.24-14h3.2l6.26,14h-3.4Zm-1-2.46L307,99.18l-2.22,5.36Z"/><path class="cls-3" d="M329.22,96v14h-2.66l-7-8.5V110h-3.2V96h2.68l7,8.5V96Z"/></g></g></g><path id="Trazado_620" data-name="Trazado 620" class="cls-5" d="M146.7,68.18H101.87a2.49,2.49,0,0,0-2.49,2.49V98.92a2.5,2.5,0,0,0,2.49,2.5h16.62v2.49h-3.32a1.66,1.66,0,0,0-1.66,1.66v5a1.66,1.66,0,0,0,1.66,1.66h7.48v12.46H103.54v-2.5a1.67,1.67,0,0,0-1.67-1.66H85.25a1.67,1.67,0,0,0-1.66,1.66v2.5H64.48V112.22H72a1.67,1.67,0,0,0,1.67-1.67v-5A1.66,1.66,0,0,0,72,103.91H68.63v-2.5H85.25a2.49,2.49,0,0,0,2.5-2.49V70.67a2.49,2.49,0,0,0-2.5-2.49H79.5a1.69,1.69,0,0,0,0,3.32h4.92V93.11H51.22a1.69,1.69,0,0,0,0,3.32h33.2v2.49H41.21V96.43H45a1.69,1.69,0,0,0,0-3.32H41.21V71.5h32a1.69,1.69,0,0,0,0-3.32H40.38a2.48,2.48,0,0,0-2.49,2.49V99.75a2.48,2.48,0,0,0,2.49,2.49H57v1.67H53.44c-.91.25-1.43,1.92-1.43,1.92v5.56a1.67,1.67,0,0,0,1.67,1.66h7.47v13.3A1.67,1.67,0,0,0,62.82,128H83.59v3.32A1.66,1.66,0,0,0,85.25,133H101a1.66,1.66,0,0,0,1.66-1.66V128h21.61a1.67,1.67,0,0,0,1.66-1.66v-13.3h7.48a1.67,1.67,0,0,0,1.67-1.66v-5.82a1.66,1.66,0,0,0-1.67-1.66h-3.32v-2.5h16.62a2.48,2.48,0,0,0,2.49-2.49V70.65a2.47,2.47,0,0,0-2.48-2.47h-.06ZM59.49,101.42h5.82v2.49H59.49Zm-4.15,7.48v-1.67h15v1.67Zm44.05,20.77H86.92v-5.82H99.38Zm32.4-22.44v1.67h-15v-1.67ZM121,103.91v-2.49h5.81v2.49Zm24.93-10.8H142a1.69,1.69,0,0,0,0,3.32h3.88v2.5H102.7v-2.5h33.13a1.69,1.69,0,1,0,.64-3.32,1.72,1.72,0,0,0-.64,0H102.7V71.5h43.21Z"/></g></g></g></svg>