<svg xmlns="http://www.w3.org/2000/svg" xmlns:xlink="http://www.w3.org/1999/xlink" viewBox="0 0 383 190"><defs><style>.cls-1{fill:url(#Degradado_sin_nombre_7);}.cls-2{fill:url(#Degradado_sin_nombre_8);}.cls-3{fill:#fff;}.cls-4{isolation:isolate;}.cls-5{fill:#3e413f;}</style><linearGradient id="Degradado_sin_nombre_7" x1="-775.15" y1="627.32" x2="-775.82" y2="628.18" gradientTransform="matrix(275, 0, 0, -111, 213504.29, 69777.34)" gradientUnits="userSpaceOnUse"><stop offset="0" stop-color="#096862"/><stop offset="1" stop-color="#01977d"/></linearGradient><linearGradient id="Degradado_sin_nombre_8" x1="-776.36" y1="628.29" x2="-775.6" y2="627.64" gradientTransform="matrix(190, 0, 0, -190, 147533.3, 119410.36)" gradientUnits="userSpaceOnUse"><stop offset="0" stop-color="#009d81"/><stop offset="1" stop-color="#096862"/></linearGradient></defs><title>Recurso 15</title><g id="Capa_2" data-name="Capa 2"><g id="Capa_1-2" data-name="Capa 1"><g id="Grupo_354" data-name="Grupo 354"><g id="Grupo_244" data-name="Grupo 244"><path id="Rectángulo_16-3" data-name="Rectángulo 16-3" class="cls-1" d="M163.5,42h164A55.5,55.5,0,0,1,383,97.5h0A55.5,55.5,0,0,1,327.5,153h-164A55.5,55.5,0,0,1,108,97.5h0A55.5,55.5,0,0,1,163.5,42Z"/><circle id="Elipse_3-3" data-name="Elipse 3-3" class="cls-2" cx="95" cy="95" r="95"/><circle id="Elipse_4-6" data-name="Elipse 4-6" class="cls-3" cx="94.5" cy="94.5" r="76.5"/><g id="Virtualización" class="cls-4"><g class="cls-4"><path class="cls-3" d="M217.79,85l-6.06,14h-3.2l-6-14H206l4.26,10,4.32-10Z"/><path class="cls-3" d="M218.55,85a1.78,1.78,0,0,1,1.94-1.74,1.75,1.75,0,0,1,1.94,1.68,1.95,1.95,0,0,1-3.88.06Zm.38,3.24h3.12V99h-3.12Z"/><path class="cls-3" d="M231.63,88.08V91c-.26,0-.46,0-.7,0-1.72,0-2.86.94-2.86,3V99H225V88.24h3v1.42A4.34,4.34,0,0,1,231.63,88.08Z"/><path class="cls-3" d="M240.81,98.48a4.46,4.46,0,0,1-2.54.68c-2.54,0-4-1.3-4-3.86V90.88h-1.66v-2.4h1.66V85.86h3.12v2.62h2.68v2.4h-2.68v4.38a1.25,1.25,0,0,0,1.34,1.42,2.1,2.1,0,0,0,1.26-.4Z"/><path class="cls-3" d="M253.41,88.24V99h-3V97.72a4.35,4.35,0,0,1-3.34,1.44c-2.7,0-4.6-1.52-4.6-4.84V88.24h3.12v5.62c0,1.8.8,2.6,2.18,2.6s2.48-.92,2.48-2.9V88.24Z"/><path class="cls-3" d="M265.83,92.86V99h-2.92V97.66a3.53,3.53,0,0,1-3.28,1.5c-2.52,0-4-1.4-4-3.26s1.34-3.22,4.62-3.22h2.48c0-1.34-.8-2.12-2.48-2.12a5.17,5.17,0,0,0-3.1,1L256,89.38a8.27,8.27,0,0,1,4.64-1.3C263.93,88.08,265.83,89.6,265.83,92.86Zm-3.12,2.74V94.5h-2.14c-1.46,0-1.92.54-1.92,1.26s.66,1.3,1.76,1.3A2.3,2.3,0,0,0,262.71,95.6Z"/><path class="cls-3" d="M268.65,84.16h3.12V99h-3.12Z"/><path class="cls-3" d="M274.29,85a1.78,1.78,0,0,1,1.94-1.74,1.75,1.75,0,0,1,1.94,1.68,1.95,1.95,0,0,1-3.88.06Zm.38,3.24h3.12V99h-3.12Z"/><path class="cls-3" d="M289.55,96.6V99H280V97.12l5.48-6.48h-5.34v-2.4h9.28v1.88l-5.48,6.48Z"/><path class="cls-3" d="M301.07,92.86V99h-2.92V97.66a3.53,3.53,0,0,1-3.28,1.5c-2.52,0-4-1.4-4-3.26s1.34-3.22,4.62-3.22H298c0-1.34-.8-2.12-2.48-2.12a5.17,5.17,0,0,0-3.1,1l-1.12-2.18a8.27,8.27,0,0,1,4.64-1.3C299.17,88.08,301.07,89.6,301.07,92.86ZM298,95.6V94.5h-2.14c-1.46,0-1.92.54-1.92,1.26s.66,1.3,1.76,1.3A2.3,2.3,0,0,0,298,95.6Z"/><path class="cls-3" d="M303.21,93.62c0-3.24,2.5-5.54,6-5.54A4.94,4.94,0,0,1,314,90.82l-2.42,1.3a2.68,2.68,0,0,0-2.42-1.48,3,3,0,0,0,0,6,2.65,2.65,0,0,0,2.42-1.48L314,96.44a5,5,0,0,1-4.82,2.72C305.71,99.16,303.21,96.86,303.21,93.62Z"/><path class="cls-3" d="M315.45,85a1.78,1.78,0,0,1,1.94-1.74,1.75,1.75,0,0,1,1.94,1.68,1.95,1.95,0,0,1-3.88.06Zm.38,3.24H319V99h-3.12Z"/><path class="cls-3" d="M321.05,93.62c0-3.24,2.5-5.54,5.92-5.54s5.9,2.3,5.9,5.54-2.48,5.54-5.9,5.54S321.05,96.86,321.05,93.62Zm8.66,0a2.76,2.76,0,1,0-2.74,3A2.72,2.72,0,0,0,329.71,93.62ZM327.81,84h3.36l-3.62,2.88h-2.44Z"/><path class="cls-3" d="M346,92.84V99h-3.12V93.32c0-1.74-.8-2.54-2.18-2.54s-2.58.92-2.58,2.9V99H335V88.24h3V89.5a4.71,4.71,0,0,1,3.56-1.42C344,88.08,346,89.56,346,92.84Z"/></g></g></g><g id="Grupo_351" data-name="Grupo 351"><path id="Trazado_623" data-name="Trazado 623" class="cls-5" d="M136.72,85.27H113.49L100.41,52.81l-9,26.52-4.84-8.76L78.2,86.12H56.79c-3.8-.13-6.66,6.74-6.66,6.74V131a6.91,6.91,0,0,0,6.85,7h79.71a6.88,6.88,0,0,0,6.88-6.88h0V92.24A6.92,6.92,0,0,0,136.72,85.27Zm-9.29,3.4H137a4.09,4.09,0,0,1,4,4.14v29.11a4.08,4.08,0,0,1-4,4.13h-9.57Zm-64.56,0H76.82l-6.45,11.9H66.26v2.54h13.6v-2.54H73.62l13-24.34L92,86l8.58-25.31,15.54,39.84h-8.24v2.54h13.59v-3.4h-2.29l-4.36-11H124v37.38H62.87Zm-10.2,4.17a4.09,4.09,0,0,1,4-4.17h3.64v37.38H56.69a4.08,4.08,0,0,1-4-4.1Zm88.49,38.31h0a4.2,4.2,0,0,1-4.14,4.24H56.81a4.2,4.2,0,0,1-4.14-4.24v-3.87h0l.19.15.09.06.17.11.1.06.18.1.08,0,.24.12h0l.27-.18h.09l.2.85h.41l.22-.85H55l.3.85.08-.85.24.85h82.27l.24-.85h.07l.31.85h.71l.2-.85h.1l.3-.14h0l.26-.13.1-.06.2-.11.1-.06.2-.13.09-.06.22-.16H141v4.24Z"/><rect id="Rectángulo_235" data-name="Rectángulo 235" class="cls-5" x="55.22" y="98.86" width="2.55" height="11.04"/><rect id="Rectángulo_236" data-name="Rectángulo 236" class="cls-5" x="55.22" y="112.46" width="2.55" height="3.4"/><path id="Trazado_624" data-name="Trazado 624" class="cls-5" d="M134,103a4.31,4.31,0,1,0,4.31,4.31A4.31,4.31,0,0,0,134,103Zm0,5.86a1.56,1.56,0,1,1,1.55-1.55,1.55,1.55,0,0,1-1.55,1.55Z"/><path id="Trazado_625" data-name="Trazado 625" class="cls-5" d="M101.38,101.56a6.71,6.71,0,0,0-2.83.62v-.38A7.26,7.26,0,0,0,91.93,94a7.61,7.61,0,0,0-1.35,0,7.2,7.2,0,0,0-4.52,2.22,7.31,7.31,0,0,0-2,5.6v3.45a7.3,7.3,0,0,0,6,7.11v7.74H92.6v-7.74a7.61,7.61,0,0,0,2.6-1,7.13,7.13,0,0,0,5,3.8v4.93h2.55v-4.93a6.87,6.87,0,0,0-1.37-13.59ZM96,104.82a6.42,6.42,0,0,0-1.4,4,5,5,0,0,1-2,1.13v-6H90.05v5.94a4.54,4.54,0,0,1-3.4-4.24v-3.74a4.67,4.67,0,0,1,9.34-.41,2.8,2.8,0,0,1,0,.41Zm6.8,7.64v-4.25h-2.56v4.25a4.07,4.07,0,0,1-2.48-3.08,7.6,7.6,0,0,0,1.11-3.8c1.93-2,5.28-1.37,6.33,1.75a3.09,3.09,0,0,1,.17,1,4.21,4.21,0,0,1-2.56,4.13Z"/><path id="Trazado_626" data-name="Trazado 626" class="cls-5" d="M73.93,52l-2.55,1a9.16,9.16,0,0,1,.56,2.25l2.73-.34A12.61,12.61,0,0,0,73.93,52Z"/><path id="Trazado_627" data-name="Trazado 627" class="cls-5" d="M70.56,47.12l-1.82,2.07a9.59,9.59,0,0,1,1.54,1.7l2.26-1.57A12.56,12.56,0,0,0,70.56,47.12Z"/><path id="Trazado_628" data-name="Trazado 628" class="cls-5" d="M65.31,44.38l-.65,2.67a9.41,9.41,0,0,1,2.17.85l1.27-2.44A12.6,12.6,0,0,0,65.31,44.38Z"/><path id="Trazado_629" data-name="Trazado 629" class="cls-5" d="M66.87,64.88a9.34,9.34,0,0,1-2.16.85l.67,2.67a12.17,12.17,0,0,0,2.78-1.06Z"/><path id="Trazado_630" data-name="Trazado 630" class="cls-5" d="M70.31,61.84a9.22,9.22,0,0,1-1.54,1.7l1.84,2.05a12.25,12.25,0,0,0,2-2.23Z"/><path id="Trazado_631" data-name="Trazado 631" class="cls-5" d="M71.93,57.54a9.74,9.74,0,0,1-.55,2.25l2.55,1a12.15,12.15,0,0,0,.7-2.9Z"/><path id="Trazado_632" data-name="Trazado 632" class="cls-5" d="M62,66a9.35,9.35,0,0,1-2.3-.29l-.67,2.68a12.44,12.44,0,0,0,3,.36h0Z"/><path id="Trazado_633" data-name="Trazado 633" class="cls-5" d="M52.18,49.38A13.27,13.27,0,0,0,50.8,52l2.55,1a9.14,9.14,0,0,1,1.08-2Z"/><path id="Trazado_634" data-name="Trazado 634" class="cls-5" d="M52.75,56.39a8.88,8.88,0,0,1,.07-1.15l-2.73-.33A12.25,12.25,0,0,0,50,56.39a12.58,12.58,0,0,0,.09,1.5l2.73-.33A11.48,11.48,0,0,1,52.75,56.39Z"/><path id="Trazado_635" data-name="Trazado 635" class="cls-5" d="M62,44a12.3,12.3,0,0,0-3,.36l.66,2.66A9.49,9.49,0,0,1,62,46.76Z"/><path id="Trazado_636" data-name="Trazado 636" class="cls-5" d="M56.61,45.46a11.54,11.54,0,0,0-2.45,1.7L56,49.21a9.3,9.3,0,0,1,1.9-1.31Z"/><path id="Trazado_637" data-name="Trazado 637" class="cls-5" d="M53.38,59.79l-2.55,1a12.75,12.75,0,0,0,1.4,2.66l2.26-1.56A9.44,9.44,0,0,1,53.38,59.79Z"/><path id="Trazado_638" data-name="Trazado 638" class="cls-5" d="M56,63.6l-1.82,2.06a12.92,12.92,0,0,0,2.45,1.7l1.28-2.43A10.05,10.05,0,0,1,56,63.6Z"/><path id="Trazado_639" data-name="Trazado 639" class="cls-5" d="M64.68,50.06a6.88,6.88,0,1,0,4.14,6.38v-.07A6.73,6.73,0,0,0,64.68,50.06ZM62,60.57a4.12,4.12,0,0,1-4.13-4.1A4.19,4.19,0,0,1,62,52.31a4.11,4.11,0,0,1,0,8.22Z"/><path id="Trazado_640" data-name="Trazado 640" class="cls-5" d="M133.44,53a10.23,10.23,0,0,0-9.59,6.8,7.16,7.16,0,0,0-4.31.47,6.75,6.75,0,0,0-3.84,4.88,6.88,6.88,0,0,0,5.36,8.12,7,7,0,0,0,1.37.13h10.76a10.37,10.37,0,0,0,10.35-8.52,10.2,10.2,0,0,0-8.39-11.73,10.58,10.58,0,0,0-1.68-.14Zm0,17.85h-11a4.14,4.14,0,0,1-4.13-4.14,4.24,4.24,0,0,1,.11-.94,4,4,0,0,1,1.54-2.35,4.17,4.17,0,0,1,4.26-.43l1.6.77.33-1.7a7.43,7.43,0,1,1,7.29,8.83Z"/><rect id="Rectángulo_237" data-name="Rectángulo 237" class="cls-5" x="108.74" y="44.5" width="20.39" height="2.55"/><rect id="Rectángulo_238" data-name="Rectángulo 238" class="cls-5" x="99.39" y="44.5" width="6.8" height="2.55"/><rect id="Rectángulo_239" data-name="Rectángulo 239" class="cls-5" x="113.84" y="52.14" width="8.49" height="2.55"/><rect id="Rectángulo_240" data-name="Rectángulo 240" class="cls-5" x="79.01" y="54.69" width="11.04" height="2.55"/><rect id="Rectángulo_241" data-name="Rectángulo 241" class="cls-5" x="67.11" y="75.08" width="3.4" height="2.55"/><rect id="Rectángulo_242" data-name="Rectángulo 242" class="cls-5" x="55.22" y="75.08" width="9.34" height="2.55"/><rect id="Rectángulo_243" data-name="Rectángulo 243" class="cls-5" x="67.96" y="109.91" width="16.14" height="2.55"/><rect id="Rectángulo_244" data-name="Rectángulo 244" class="cls-5" x="74.76" y="115.85" width="8.49" height="2.55"/><rect id="Rectángulo_245" data-name="Rectángulo 245" class="cls-5" x="68.81" y="120.1" width="7.64" height="2.55"/><rect id="Rectángulo_246" data-name="Rectángulo 246" class="cls-5" x="108.74" y="115" width="7.64" height="2.55"/><rect id="Rectángulo_247" data-name="Rectángulo 247" class="cls-5" x="66.27" y="91.22" width="4.25" height="2.55"/><rect id="Rectángulo_248" data-name="Rectángulo 248" class="cls-5" x="115.53" y="108.21" width="4.25" height="2.55"/><rect id="Rectángulo_249" data-name="Rectángulo 249" class="cls-5" x="105.56" y="87.75" width="2.77" height="3.13" transform="translate(-25.84 47.09) rotate(-22.23)"/><rect id="Rectángulo_250" data-name="Rectángulo 250" class="cls-5" x="101.27" y="74.94" width="2.75" height="10.64" transform="translate(-22.72 44.74) rotate(-22.21)"/><rect id="Rectángulo_251" data-name="Rectángulo 251" class="cls-5" x="81.88" y="88.07" width="4.87" height="2.75" transform="translate(-34.52 120.88) rotate(-61.51)"/></g></g></g></g></svg>