<svg xmlns="http://www.w3.org/2000/svg" xmlns:xlink="http://www.w3.org/1999/xlink" viewBox="0 0 383 190"><defs><style>.cls-1{fill:url(#Degradado_sin_nombre_9);}.cls-2{fill:url(#Degradado_sin_nombre_10);}.cls-3{fill:#fff;}.cls-4{isolation:isolate;}.cls-5{fill:#3e413f;}</style><linearGradient id="Degradado_sin_nombre_9" x1="-176.15" y1="395.32" x2="-176.82" y2="396.18" gradientTransform="matrix(275, 0, 0, -111, 48779.29, 44022.34)" gradientUnits="userSpaceOnUse"><stop offset="0" stop-color="#c86835"/><stop offset="1" stop-color="#fa8c12"/></linearGradient><linearGradient id="Degradado_sin_nombre_10" x1="-177.36" y1="396.29" x2="-176.6" y2="395.64" gradientTransform="matrix(190, 0, 0, -190, 33723.3, 75330.36)" gradientUnits="userSpaceOnUse"><stop offset="0" stop-color="#fb8d12"/><stop offset="1" stop-color="#c66736"/></linearGradient></defs><title>Recurso 16</title><g id="Capa_2" data-name="Capa 2"><g id="Capa_1-2" data-name="Capa 1"><g id="Grupo_356" data-name="Grupo 356"><g id="Grupo_353" data-name="Grupo 353"><path id="Rectángulo_55-2" data-name="Rectángulo 55-2" class="cls-1" d="M163.5,39h164A55.5,55.5,0,0,1,383,94.5h0A55.5,55.5,0,0,1,327.5,150h-164A55.5,55.5,0,0,1,108,94.5h0A55.5,55.5,0,0,1,163.5,39Z"/><circle id="Elipse_11-2" data-name="Elipse 11-2" class="cls-2" cx="95" cy="95" r="95"/><circle id="Elipse_12-4" data-name="Elipse 12-4" class="cls-3" cx="94.5" cy="94.5" r="76.5"/><g id="Wireless" class="cls-4"><g class="cls-4"><path class="cls-3" d="M259.76,87l-4.58,14H251.7l-3.08-9.48L245.44,101H242l-4.6-14h3.36l3.16,9.84L247.2,87h3l3.2,9.92L256.66,87Z"/><path class="cls-3" d="M261.16,87a1.78,1.78,0,0,1,1.94-1.74A1.75,1.75,0,0,1,265,86.94a1.95,1.95,0,0,1-3.88.06Zm.38,3.24h3.12V101h-3.12Z"/><path class="cls-3" d="M274.24,90.08V93c-.26,0-.46,0-.7,0-1.72,0-2.86.94-2.86,3V101h-3.12V90.24h3v1.42A4.34,4.34,0,0,1,274.24,90.08Z"/><path class="cls-3" d="M286.48,96.5h-8.14a2.87,2.87,0,0,0,3.08,2.16,3.65,3.65,0,0,0,2.7-1l1.66,1.8a5.64,5.64,0,0,1-4.44,1.74c-3.72,0-6.14-2.34-6.14-5.54a5.48,5.48,0,0,1,5.74-5.54,5.33,5.33,0,0,1,5.6,5.58C286.54,95.9,286.5,96.24,286.48,96.5Zm-8.18-1.82h5.3a2.69,2.69,0,0,0-5.3,0Z"/><path class="cls-3" d="M288.62,86.16h3.12V101h-3.12Z"/><path class="cls-3" d="M305.12,96.5H297a2.87,2.87,0,0,0,3.08,2.16,3.65,3.65,0,0,0,2.7-1l1.66,1.8a5.64,5.64,0,0,1-4.44,1.74c-3.72,0-6.14-2.34-6.14-5.54a5.48,5.48,0,0,1,5.74-5.54,5.33,5.33,0,0,1,5.6,5.58C305.18,95.9,305.14,96.24,305.12,96.5Zm-8.18-1.82h5.3a2.69,2.69,0,0,0-5.3,0Z"/><path class="cls-3" d="M306.22,100l1-2.24a7.36,7.36,0,0,0,3.74,1c1.44,0,2-.38,2-1,0-1.76-6.5,0-6.5-4.26,0-2,1.84-3.48,5-3.48a8.85,8.85,0,0,1,4.14.94l-1,2.22a6.18,6.18,0,0,0-3.1-.8c-1.4,0-2,.44-2,1,0,1.84,6.5.06,6.5,4.3,0,2-1.86,3.42-5.08,3.42A9.24,9.24,0,0,1,306.22,100Z"/><path class="cls-3" d="M316.84,100l1-2.24a7.36,7.36,0,0,0,3.74,1c1.44,0,2-.38,2-1,0-1.76-6.5,0-6.5-4.26,0-2,1.84-3.48,5-3.48a8.85,8.85,0,0,1,4.14.94l-1,2.22a6.18,6.18,0,0,0-3.1-.8c-1.4,0-2,.44-2,1,0,1.84,6.5.06,6.5,4.3,0,2-1.86,3.42-5.08,3.42A9.24,9.24,0,0,1,316.84,100Z"/></g></g><g id="Grupo_352" data-name="Grupo 352"><path id="Trazado_641" data-name="Trazado 641" class="cls-5" d="M60.71,130c-1.71-.5-2.73-1.86-3.83-3.08a48.35,48.35,0,0,1-12.26-26.18q-3.28-24.63,13.91-42.6a3.92,3.92,0,0,1,5.52-.37l.17.16a3.86,3.86,0,0,1,.15,5.46l-.23.23A40.68,40.68,0,0,0,52.8,84.77q-4.17,21.72,10.94,38a8.49,8.49,0,0,1,1.17,1.43,3.88,3.88,0,0,1-1.49,5.27h0a4.59,4.59,0,0,1-.5.24c-.22.08-.43.18-.63.27Z"/><path id="Trazado_642" data-name="Trazado 642" class="cls-5" d="M59.26,91.8a33.94,33.94,0,0,1,10-23.22,3.87,3.87,0,0,1,4-1.17,3.73,3.73,0,0,1,2.71,2.86,3.84,3.84,0,0,1-1.14,3.78,27.45,27.45,0,0,0-4.58,6.18,27.1,27.1,0,0,0,4.19,31.45c1.14,1.17,1.92,2.46,1.56,4.1a3.91,3.91,0,0,1-6.65,1.91,33.71,33.71,0,0,1-6.86-9.77A36.43,36.43,0,0,1,59.26,91.8Z"/><path id="Trazado_643" data-name="Trazado 643" class="cls-5" d="M86.75,81.79a4.06,4.06,0,0,1-1.34,3,12,12,0,0,0-1.7,14.38,20.18,20.18,0,0,0,2,2.6,3.87,3.87,0,0,1,.76,4.1,3.72,3.72,0,0,1-3.28,2.46,3.79,3.79,0,0,1-3.11-1.13,20,20,0,0,1,0-28.14,3.91,3.91,0,0,1,6.71,2.74Z"/><path id="Trazado_644" data-name="Trazado 644" class="cls-5" d="M99.21,93.11A5.21,5.21,0,0,1,94,98.31h-.08a5.28,5.28,0,0,1-5.13-5.15,5.22,5.22,0,0,1,10.43-.09Z"/><path id="Trazado_645" data-name="Trazado 645" class="cls-5" d="M127.66,56.13c1.71.5,2.73,1.85,3.82,3.08a48.26,48.26,0,0,1,12.27,26.17Q147,110,129.79,128a3.91,3.91,0,0,1-5.51.37l-.17-.16a3.86,3.86,0,0,1-.14-5.46l.21-.21a40.65,40.65,0,0,0,11.35-21.15c2.77-14.48-.9-27.19-10.94-38a8,8,0,0,1-1.16-1.43,3.87,3.87,0,0,1,1.5-5.26,5.05,5.05,0,0,1,.53-.24,6.18,6.18,0,0,0,.64-.28Z"/><path id="Trazado_646" data-name="Trazado 646" class="cls-5" d="M129.11,94.34a34,34,0,0,1-10.05,23.23,3.82,3.82,0,0,1-4,1.15,3.72,3.72,0,0,1-2.7-2.87,3.86,3.86,0,0,1,1.15-3.78,27,27,0,0,0,.39-37.63c-1.13-1.17-1.92-2.46-1.55-4.1A3.71,3.71,0,0,1,115,67.4a3.78,3.78,0,0,1,3.94,1,33.87,33.87,0,0,1,6.85,9.77A36.6,36.6,0,0,1,129.11,94.34Z"/><path id="Trazado_647" data-name="Trazado 647" class="cls-5" d="M101.66,104.36a4.05,4.05,0,0,1,1.33-3A12,12,0,0,0,104.69,87a20.71,20.71,0,0,0-2-2.59,3.87,3.87,0,0,1-.76-4.1,3.69,3.69,0,0,1,3.28-2.47A3.79,3.79,0,0,1,108.33,79a20,20,0,0,1,0,28.15,3.93,3.93,0,0,1-4.34.82A3.85,3.85,0,0,1,101.66,104.36Z"/><path id="Trazado_648" data-name="Trazado 648" class="cls-5" d="M89.36,93a5.2,5.2,0,0,1,5.22-5.2h.08A5.28,5.28,0,0,1,99.78,93a5.22,5.22,0,1,1-10.43.1h0Z"/></g></g></g></g></g></svg>