<svg xmlns="http://www.w3.org/2000/svg" xmlns:xlink="http://www.w3.org/1999/xlink" viewBox="0 0 383 190"><defs><style>.cls-1{fill:url(#Degradado_sin_nombre_3);}.cls-2{fill:url(#Degradado_sin_nombre_4);}.cls-3{fill:#fff;}.cls-4{isolation:isolate;}.cls-5{fill:#3e413f;}</style><linearGradient id="Degradado_sin_nombre_3" x1="-575.15" y1="395.32" x2="-575.82" y2="396.18" gradientTransform="matrix(275, 0, 0, -111, 158504.29, 44025.34)" gradientUnits="userSpaceOnUse"><stop offset="0" stop-color="#db9222"/><stop offset="1" stop-color="#f4e338"/></linearGradient><linearGradient id="Degradado_sin_nombre_4" x1="-576.36" y1="396.29" x2="-575.6" y2="395.64" gradientTransform="matrix(190, 0, 0, -190, 109533.3, 75330.36)" gradientUnits="userSpaceOnUse"><stop offset="0" stop-color="#f5e539"/><stop offset="1" stop-color="#db9222"/></linearGradient></defs><title>Recurso 17</title><g id="Capa_2" data-name="Capa 2"><g id="Capa_1-2" data-name="Capa 1"><g id="Grupo_355" data-name="Grupo 355"><g id="Grupo_245" data-name="Grupo 245"><path id="Rectángulo_55" data-name="Rectángulo 55" class="cls-1" d="M163.5,42h164A55.5,55.5,0,0,1,383,97.5h0A55.5,55.5,0,0,1,327.5,153h-164A55.5,55.5,0,0,1,108,97.5h0A55.5,55.5,0,0,1,163.5,42Z"/><circle id="Elipse_11" data-name="Elipse 11" class="cls-2" cx="95" cy="95" r="95"/><circle id="Elipse_12-3" data-name="Elipse 12-3" class="cls-3" cx="94.5" cy="94.5" r="76.5"/><g id="Seguridad" class="cls-4"><g class="cls-4"><path class="cls-3" d="M221.65,102.62l1.1-2.44a8.23,8.23,0,0,0,4.62,1.46c1.92,0,2.7-.64,2.7-1.5,0-2.62-8.14-.82-8.14-6,0-2.38,1.92-4.36,5.9-4.36A9.39,9.39,0,0,1,232.69,91l-1,2.46a7.91,7.91,0,0,0-3.88-1.1c-1.92,0-2.66.72-2.66,1.6,0,2.58,8.14.8,8.14,5.94,0,2.34-1.94,4.34-5.94,4.34A10,10,0,0,1,221.65,102.62Z"/><path class="cls-3" d="M245.77,99.5h-8.14a2.87,2.87,0,0,0,3.08,2.16,3.65,3.65,0,0,0,2.7-1l1.66,1.8a5.64,5.64,0,0,1-4.44,1.74c-3.72,0-6.14-2.34-6.14-5.54a5.48,5.48,0,0,1,5.74-5.54,5.33,5.33,0,0,1,5.6,5.58C245.83,98.9,245.79,99.24,245.77,99.5Zm-8.18-1.82h5.3a2.69,2.69,0,0,0-5.3,0Z"/><path class="cls-3" d="M259,93.24v9c0,4-2.16,5.84-6,5.84a8.86,8.86,0,0,1-5.28-1.48l1.24-2.24a6.43,6.43,0,0,0,3.8,1.22c2.2,0,3.16-1,3.16-2.94v-.46a4.43,4.43,0,0,1-3.4,1.34,5.2,5.2,0,1,1,0-10.4,4.32,4.32,0,0,1,3.56,1.54V93.24Zm-3.08,5a2.84,2.84,0,1,0-2.82,2.64A2.61,2.61,0,0,0,255.93,98.28Z"/><path class="cls-3" d="M272.75,93.24V104h-3v-1.28a4.35,4.35,0,0,1-3.34,1.44c-2.7,0-4.6-1.52-4.6-4.84V93.24H265v5.62c0,1.8.8,2.6,2.18,2.6s2.48-.92,2.48-2.9V93.24Z"/><path class="cls-3" d="M282.33,93.08V96c-.26,0-.46,0-.7,0-1.72,0-2.86.94-2.86,3V104h-3.12V93.24h3v1.42A4.34,4.34,0,0,1,282.33,93.08Z"/><path class="cls-3" d="M283.81,90a1.78,1.78,0,0,1,1.94-1.74,1.75,1.75,0,0,1,1.94,1.68,1.95,1.95,0,0,1-3.88.06Zm.38,3.24h3.12V104h-3.12Z"/><path class="cls-3" d="M301.17,89.16V104h-3v-1.24a4.14,4.14,0,0,1-3.36,1.4,5.54,5.54,0,0,1,0-11.08,4.13,4.13,0,0,1,3.22,1.3V89.16Zm-3.06,9.46a2.76,2.76,0,1,0-2.74,3A2.73,2.73,0,0,0,298.11,98.62Z"/><path class="cls-3" d="M313.57,97.86V104h-2.92v-1.34a3.53,3.53,0,0,1-3.28,1.5c-2.52,0-4-1.4-4-3.26s1.34-3.22,4.62-3.22h2.48c0-1.34-.8-2.12-2.48-2.12a5.17,5.17,0,0,0-3.1,1l-1.12-2.18a8.27,8.27,0,0,1,4.64-1.3C311.67,93.08,313.57,94.6,313.57,97.86Zm-3.12,2.74V99.5h-2.14c-1.46,0-1.92.54-1.92,1.26s.66,1.3,1.76,1.3A2.3,2.3,0,0,0,310.45,100.6Z"/><path class="cls-3" d="M327.47,89.16V104h-3v-1.24a4.14,4.14,0,0,1-3.36,1.4,5.54,5.54,0,0,1,0-11.08,4.13,4.13,0,0,1,3.22,1.3V89.16Zm-3.06,9.46a2.76,2.76,0,1,0-2.74,3A2.73,2.73,0,0,0,324.41,98.62Z"/></g></g><g id="Grupo_350" data-name="Grupo 350"><g id="Grupo_349" data-name="Grupo 349"><path id="Trazado_621" data-name="Trazado 621" class="cls-5" d="M133.05,58.26c-10.46,0-29.5-2.13-35.47-10a2.71,2.71,0,0,0-3.72-.88,2.83,2.83,0,0,0-.72.66c-7,7.86-26.11,10.2-37.35,10.2A2.81,2.81,0,0,0,53,61.06v44.81c0,20.18,23.23,32.51,40.83,36.35,2.27.49,42-9.58,42-36.35V61.06A2.81,2.81,0,0,0,133.05,58.26Zm-2.79,47.61c0,21-31.12,29.56-35.84,30.73-4.72-1.17-35.84-9.7-35.84-30.73v-42c21.54-.5,32.29-6.7,36.56-10.06,8.61,7.61,23.66,9.8,35.12,10.06v42Z"/><path id="Trazado_622" data-name="Trazado 622" class="cls-5" d="M80.48,83.37v8.5h-2.8a2.8,2.8,0,0,0-2.79,2.8v22.4a2.81,2.81,0,0,0,2.79,2.8h33.48a2.81,2.81,0,0,0,2.79-2.8V94.67a2.8,2.8,0,0,0-2.79-2.8H86.06v-8.5a8.36,8.36,0,0,1,16.72,0,2.79,2.79,0,1,0,5.58,0v0a13.94,13.94,0,0,0-27.88,0Zm27.89,30.9H80.47V97.47h27.9Z"/><ellipse id="Elipse_120" data-name="Elipse 120" class="cls-5" cx="94.42" cy="105.87" rx="2.79" ry="2.8"/></g></g></g></g></g></g></svg>