<svg xmlns="http://www.w3.org/2000/svg" xmlns:xlink="http://www.w3.org/1999/xlink" viewBox="0 0 1314 342.35"><defs><style>.cls-1{fill:url(#Degradado_sin_nombre_14);}.cls-2{fill:url(#Degradado_sin_nombre_13);}.cls-3{fill:url(#Degradado_sin_nombre_3);}.cls-4{fill:url(#Degradado_sin_nombre_14-2);}.cls-5{fill:url(#Degradado_sin_nombre_5);}.cls-6{fill:url(#Degradado_sin_nombre_6);}.cls-7{fill:url(#Degradado_sin_nombre_15);}.cls-8{fill:url(#Degradado_sin_nombre_11);}.cls-9{fill:url(#Degradado_sin_nombre_11-2);}.cls-10{fill:url(#Degradado_sin_nombre_15-2);}.cls-11{fill:url(#Degradado_sin_nombre_11-3);}.cls-12{isolation:isolate;}.cls-13{fill:#fff;}.cls-14{fill:url(#Degradado_sin_nombre_12);}.cls-15{fill:url(#Degradado_sin_nombre_13-2);}.cls-16{fill:url(#Degradado_sin_nombre_14-3);}.cls-17{fill:url(#Degradado_sin_nombre_15-3);}</style><linearGradient id="Degradado_sin_nombre_14" x1="171.14" y1="576.92" x2="172.58" y2="576.89" gradientTransform="matrix(314.15, 0, 0, -156.94, -53591.99, 90784.91)" gradientUnits="userSpaceOnUse"><stop offset="0" stop-color="#176977"/><stop offset="1" stop-color="#3eaeab"/></linearGradient><linearGradient id="Degradado_sin_nombre_13" x1="171.8" y1="576.4" x2="171.8" y2="577.4" gradientTransform="matrix(314.51, 0, 0, -156.93, -53377, 90630.38)" gradientUnits="userSpaceOnUse"><stop offset="0" stop-color="#a86040"/><stop offset="1" stop-color="#e58f28"/></linearGradient><linearGradient id="Degradado_sin_nombre_3" x1="171.3" y1="576.9" x2="172.3" y2="576.9" gradientTransform="matrix(314.15, 0, 0, -156.94, -53034.98, 90784.91)" gradientUnits="userSpaceOnUse"><stop offset="0" stop-color="#db9022"/><stop offset="0.18" stop-color="#dd9824"/><stop offset="0.47" stop-color="#e4ae2a"/><stop offset="0.82" stop-color="#efd334"/><stop offset="1" stop-color="#f6e83a"/></linearGradient><linearGradient id="Degradado_sin_nombre_14-2" x1="162.9" y1="575.89" x2="165.83" y2="575.89" gradientTransform="matrix(50.63, 0, 0, -64.64, -7855.32, 37536.42)" xlink:href="#Degradado_sin_nombre_14"/><linearGradient id="Degradado_sin_nombre_5" x1="164.29" y1="575.89" x2="163.68" y2="575.89" gradientTransform="matrix(50.63, 0, 0, -64.64, -7301.26, 37536.7)" gradientUnits="userSpaceOnUse"><stop offset="0" stop-color="#f6e83a"/><stop offset="1" stop-color="#dd9624"/></linearGradient><linearGradient id="Degradado_sin_nombre_6" x1="163.68" y1="575.89" x2="164.68" y2="575.89" gradientTransform="matrix(50.63, 0, 0, -64.64, -7587.41, 37258.86)" gradientUnits="userSpaceOnUse"><stop offset="0" stop-color="#e58f28"/><stop offset="1" stop-color="#a86040"/></linearGradient><linearGradient id="Degradado_sin_nombre_15" x1="171.46" y1="576.4" x2="171.46" y2="577.4" gradientTransform="matrix(254.98, 0, 0, -156.94, -43590.34, 90632.57)" gradientUnits="userSpaceOnUse"><stop offset="0" stop-color="#3b3f6b"/><stop offset="1" stop-color="#696fbb"/></linearGradient><linearGradient id="Degradado_sin_nombre_11" x1="170.61" y1="576.9" x2="171.61" y2="576.9" gradientTransform="matrix(213.53, 0, 0, -156.93, -35373.69, 90630.31)" gradientUnits="userSpaceOnUse"><stop offset="0.01" stop-color="#d85656"/><stop offset="0.39" stop-color="#b44b4b"/><stop offset="0.78" stop-color="#974242"/><stop offset="1" stop-color="#8c3f3f"/></linearGradient><linearGradient id="Degradado_sin_nombre_11-2" x1="163.68" y1="575.89" x2="164.68" y2="575.89" gradientTransform="matrix(50.63, 0, 0, -64.64, -7023.55, 37258.86)" xlink:href="#Degradado_sin_nombre_11"/><linearGradient id="Degradado_sin_nombre_15-2" x1="163.68" y1="575.89" x2="164.68" y2="575.89" gradientTransform="matrix(50.63, 0, 0, -64.64, -8146.42, 37258.86)" xlink:href="#Degradado_sin_nombre_15"/><linearGradient id="Degradado_sin_nombre_11-3" x1="170.41" y1="577.05" x2="171.41" y2="577.05" gradientTransform="matrix(195.52, 0, 0, -195.52, -32202.77, 112997.93)" xlink:href="#Degradado_sin_nombre_11"/><linearGradient id="Degradado_sin_nombre_12" x1="170.91" y1="576.57" x2="170.91" y2="577.55" gradientTransform="matrix(195.53, 0, 0, -195.53, -32481.46, 113000.22)" gradientUnits="userSpaceOnUse"><stop offset="0" stop-color="#db9022"/><stop offset="0.2" stop-color="#db9022"/><stop offset="1" stop-color="#f6e83a"/></linearGradient><linearGradient id="Degradado_sin_nombre_13-2" x1="170.41" y1="577.05" x2="171.41" y2="577.05" gradientTransform="matrix(195.52, 0, 0, -195.52, -32760.77, 112997.93)" xlink:href="#Degradado_sin_nombre_13"/><linearGradient id="Degradado_sin_nombre_14-3" x1="170.09" y1="577.05" x2="171.52" y2="577.05" gradientTransform="matrix(195.52, 0, 0, -195.52, -33039.77, 112997.93)" xlink:href="#Degradado_sin_nombre_14"/><linearGradient id="Degradado_sin_nombre_15-3" x1="170.41" y1="577.05" x2="171.41" y2="577.05" gradientTransform="matrix(195.52, 0, 0, -195.52, -33318.77, 112997.93)" xlink:href="#Degradado_sin_nombre_15"/></defs><title>Recurso 6</title><g id="Capa_2" data-name="Capa 2"><g id="Capa_1-2" data-name="Capa 1"><g id="Grupo_260" data-name="Grupo 260"><path id="Trazado_265" data-name="Trazado 265" class="cls-1" d="M498.41,169.7v93.52A27.73,27.73,0,0,1,470.7,291H283.25a27.73,27.73,0,0,1-27.71-27.74h0V169.7H219.9v93.52a63.39,63.39,0,0,0,63.35,63.42H470.7A63.38,63.38,0,0,0,534,263.22h0V169.7Z"/><path id="Trazado_266" data-name="Trazado 266" class="cls-2" d="M534,172.75V79.23a27.74,27.74,0,0,1,27.74-27.74H749.38a27.74,27.74,0,0,1,27.74,27.75h0v93.51H812.8V79.23a63.42,63.42,0,0,0-63.41-63.42H561.71a63.43,63.43,0,0,0-63.42,63.42h0v93.52Z"/><path id="Trazado_267" data-name="Trazado 267" class="cls-3" d="M812.74,169.7v93.52A27.73,27.73,0,0,0,840.45,291H1027.9a27.73,27.73,0,0,0,27.71-27.74h0V169.7h35.64v93.52a63.39,63.39,0,0,1-63.35,63.42H840.45a63.39,63.39,0,0,1-63.35-63.42h0V169.7Z"/><path id="Trazado_268" data-name="Trazado 268" class="cls-4" d="M481.29,308.54,434.2,278a1.77,1.77,0,0,0-2.45.52,1.74,1.74,0,0,0-.28,1v61.1a1.78,1.78,0,0,0,1.76,1.77,1.75,1.75,0,0,0,1-.29l47.09-30.55a1.77,1.77,0,0,0,.52-2.45,1.72,1.72,0,0,0-.52-.52L434.2,278a1.77,1.77,0,0,0-2.45.52,1.73,1.73,0,0,0-.28,1v61.1a1.76,1.76,0,0,0,1.76,1.77,1.74,1.74,0,0,0,1-.28l47.09-30.55a1.76,1.76,0,0,0,.51-2.45A1.8,1.8,0,0,0,481.29,308.54Z"/><path id="Trazado_269" data-name="Trazado 269" class="cls-5" d="M1035.49,308.54,988.4,278a1.77,1.77,0,0,0-2.45.52,1.83,1.83,0,0,0-.28,1v61.1a1.77,1.77,0,0,0,1.77,1.77,1.74,1.74,0,0,0,1-.29l47.09-30.55a1.77,1.77,0,0,0,.52-2.45,1.61,1.61,0,0,0-.52-.52L988.4,278a1.77,1.77,0,0,0-2.45.52,1.82,1.82,0,0,0-.28,1v61.1a1.77,1.77,0,0,0,1.77,1.77,1.82,1.82,0,0,0,1-.28l47.09-30.55a1.78,1.78,0,0,0,.52-2.45A1.84,1.84,0,0,0,1035.49,308.54Z"/><path id="Trazado_270" data-name="Trazado 270" class="cls-6" d="M749.33,30.84,702.24.29a1.77,1.77,0,0,0-2.73,1.48v61.1a1.77,1.77,0,0,0,1.77,1.77,1.79,1.79,0,0,0,1-.28l47.09-30.55a1.77,1.77,0,0,0,.52-2.45,1.61,1.61,0,0,0-.52-.52L702.24.29a1.75,1.75,0,0,0-2.44.52,1.72,1.72,0,0,0-.29,1v61.1a1.77,1.77,0,0,0,1.77,1.77,1.79,1.79,0,0,0,1-.28L749.33,33.8a1.77,1.77,0,0,0,.52-2.45A1.8,1.8,0,0,0,749.33,30.84Z"/><path id="Trazado_271" data-name="Trazado 271" class="cls-7" d="M192.12,15.81H4.44c-1.3,0-2.6.06-3.89.13V51.8a28.21,28.21,0,0,1,3.9-.3H192.12a27.74,27.74,0,0,1,27.74,27.74v93.51h35.68V79.24a63.43,63.43,0,0,0-63.42-63.43Z"/><path id="Trazado_272" data-name="Trazado 272" class="cls-8" d="M1269.14,15.81H1119a63.43,63.43,0,0,0-63.42,63.42h0v93.52h35.68V79.23A27.74,27.74,0,0,1,1119,51.49h150.11Z"/><path id="Trazado_273" data-name="Trazado 273" class="cls-9" d="M1313.19,30.84,1266.1.29a1.77,1.77,0,0,0-2.73,1.48v61.1a1.77,1.77,0,0,0,1.77,1.77,1.79,1.79,0,0,0,1-.28l47.09-30.55a1.77,1.77,0,0,0,.52-2.45,1.61,1.61,0,0,0-.52-.52L1266.1.29a1.75,1.75,0,0,0-2.44.52,1.72,1.72,0,0,0-.29,1v61.1a1.77,1.77,0,0,0,1.77,1.77,1.79,1.79,0,0,0,1-.28l47.09-30.56a1.77,1.77,0,0,0,.52-2.45A1.8,1.8,0,0,0,1313.19,30.84Z"/><path id="Trazado_274" data-name="Trazado 274" class="cls-10" d="M190.3,30.84,143.21.29a1.78,1.78,0,0,0-2.45.52,1.82,1.82,0,0,0-.28,1v61.1a1.77,1.77,0,0,0,1.77,1.77,1.79,1.79,0,0,0,1-.28L190.3,33.81a1.77,1.77,0,0,0,.52-2.45,1.61,1.61,0,0,0-.52-.52L143.21.29a1.77,1.77,0,0,0-2.45.52,1.79,1.79,0,0,0-.28,1v61.1a1.77,1.77,0,0,0,1.77,1.77,1.79,1.79,0,0,0,1-.28L190.3,33.8a1.77,1.77,0,0,0,.52-2.45A1.8,1.8,0,0,0,190.3,30.84Z"/></g><g id="Grupo_262" data-name="Grupo 262"><path id="Rectángulo_89" data-name="Rectángulo 89" class="cls-11" d="M1126.1,74.49h175.32a10.1,10.1,0,0,1,10.1,10.1h0V259.91a10.1,10.1,0,0,1-10.1,10.1H1126.1a10.1,10.1,0,0,1-10.1-10.1h0V84.59A10.1,10.1,0,0,1,1126.1,74.49Z"/><g id="Grupo_261" data-name="Grupo 261"><g id="_05" data-name=" 05" class="cls-12"><g class="cls-12"><path class="cls-13" d="M1169,128.71c0-17.84,9.36-28.48,22.32-28.48s22.4,10.64,22.4,28.48-9.44,28.48-22.4,28.48S1169,146.55,1169,128.71Zm38.8,0c0-15-6.72-23.2-16.48-23.2s-16.48,8.24-16.48,23.2,6.72,23.2,16.48,23.2S1207.84,143.67,1207.84,128.71Z"/><path class="cls-13" d="M1260,140.23c0,9.52-6.64,17-20.32,17-8.08,0-15.76-2.8-20.08-7.2l2.8-4.56c3.6,3.76,10,6.48,17.2,6.48,9.52,0,14.56-4.64,14.56-11.44,0-7.2-4.48-11.68-18.72-11.68h-11.92l2.88-28.08H1257v5.12h-25.6l-1.92,17.84h7.2C1253.6,123.67,1260,130.31,1260,140.23Z"/></g></g><g id="Gestión_de_la_seguridad_física_y_lógica_" data-name="Gestión de la seguridad física y lógica " class="cls-12"><g class="cls-12"><path class="cls-13" d="M1158.42,185.73h1.42v5.34a7.73,7.73,0,0,1-5.14,1.78,7.13,7.13,0,1,1,0-14.25,6.9,6.9,0,0,1,5.2,2l-.92.95a5.68,5.68,0,0,0-4.22-1.65,5.81,5.81,0,1,0,0,11.61,6.06,6.06,0,0,0,3.66-1.08Z"/><path class="cls-13" d="M1172.88,187.91h-8.8a3.89,3.89,0,0,0,4.14,3.66,4.15,4.15,0,0,0,3.22-1.38l.8.92a5.56,5.56,0,0,1-9.58-3.64,5.08,5.08,0,0,1,5.14-5.35,5,5,0,0,1,5.1,5.35C1172.9,187.59,1172.88,187.75,1172.88,187.91Zm-8.8-1.06h7.46a3.74,3.74,0,0,0-7.46,0Z"/><path class="cls-13" d="M1174.34,191.53l.64-1.12a6.35,6.35,0,0,0,3.74,1.18c2,0,2.82-.68,2.82-1.72,0-2.74-6.82-.58-6.82-4.74,0-1.73,1.48-3,4.16-3a7,7,0,0,1,3.72,1l-.62,1.14a5.39,5.39,0,0,0-3.1-.9c-1.9,0-2.74.74-2.74,1.74,0,2.84,6.82.7,6.82,4.74,0,1.82-1.6,3-4.34,3A7,7,0,0,1,1174.34,191.53Z"/><path class="cls-13" d="M1191.12,192.09a3.38,3.38,0,0,1-2.22.74,2.79,2.79,0,0,1-3.08-3.06V183.4h-1.88v-1.2h1.88v-2.3h1.42v2.3h3.2v1.2h-3.2v6.29a1.68,1.68,0,0,0,1.82,1.92,2.35,2.35,0,0,0,1.56-.54Z"/><path class="cls-13" d="M1193.38,178.88a1,1,0,0,1,1-1,1,1,0,0,1,1,1,1,1,0,0,1-2.08,0Zm.32,3.32h1.42v10.53h-1.42Z"/><path class="cls-13" d="M1198,187.47a5.35,5.35,0,1,1,5.36,5.36A5.18,5.18,0,0,1,1198,187.47Zm9.26,0a3.91,3.91,0,1,0-3.9,4.1A3.84,3.84,0,0,0,1207.28,187.47Zm-2.48-9.37h1.9l-3.24,2.48h-1.4Z"/><path class="cls-13" d="M1221.3,186.63v6.1h-1.42v-6c0-2.22-1.16-3.37-3.16-3.37a3.46,3.46,0,0,0-3.68,3.81v5.52h-1.42V182.2H1213v2a4.41,4.41,0,0,1,4-2C1219.54,182.12,1221.3,183.61,1221.3,186.63Z"/><path class="cls-13" d="M1240,177.88v14.85h-1.36v-2.08a4.56,4.56,0,0,1-4.06,2.18,5.36,5.36,0,0,1,0-10.71,4.6,4.6,0,0,1,4,2.09v-6.33Zm-1.4,9.59a3.91,3.91,0,1,0-3.9,4.1A3.86,3.86,0,0,0,1238.6,187.47Z"/><path class="cls-13" d="M1253.12,187.91h-8.8a3.89,3.89,0,0,0,4.14,3.66,4.15,4.15,0,0,0,3.22-1.38l.8.92a5.56,5.56,0,0,1-9.58-3.64,5.08,5.08,0,0,1,5.14-5.35,5,5,0,0,1,5.1,5.35C1253.14,187.59,1253.12,187.75,1253.12,187.91Zm-8.8-1.06h7.46a3.74,3.74,0,0,0-7.46,0Z"/><path class="cls-13" d="M1261.28,177.88h1.42v14.85h-1.42Z"/><path class="cls-13" d="M1274.6,186.21v6.52h-1.36v-1.64a4,4,0,0,1-3.62,1.74c-2.38,0-3.84-1.24-3.84-3.06,0-1.62,1-3,4.06-3h3.34v-.64c0-1.8-1-2.79-3-2.79a5.37,5.37,0,0,0-3.5,1.25l-.64-1.06a6.69,6.69,0,0,1,4.28-1.43C1273.06,182.12,1274.6,183.48,1274.6,186.21Zm-1.42,3.36v-1.72h-3.3c-2,0-2.7.8-2.7,1.88s1,2,2.66,2A3.37,3.37,0,0,0,1273.18,189.57Z"/></g><g class="cls-12"><path class="cls-13" d="M1163.9,210.53l.64-1.12a6.35,6.35,0,0,0,3.74,1.18c2,0,2.82-.68,2.82-1.72,0-2.74-6.82-.58-6.82-4.74,0-1.73,1.48-3,4.16-3a7,7,0,0,1,3.72,1l-.62,1.14a5.39,5.39,0,0,0-3.1-.9c-1.9,0-2.74.74-2.74,1.74,0,2.84,6.82.7,6.82,4.74,0,1.82-1.6,3-4.34,3A7,7,0,0,1,1163.9,210.53Z"/><path class="cls-13" d="M1184.3,206.91h-8.8a3.89,3.89,0,0,0,4.14,3.66,4.15,4.15,0,0,0,3.22-1.38l.8.92a5.56,5.56,0,0,1-9.58-3.64,5.08,5.08,0,0,1,5.14-5.35,5,5,0,0,1,5.1,5.35C1184.32,206.59,1184.3,206.75,1184.3,206.91Zm-8.8-1.06H1183a3.74,3.74,0,0,0-7.46,0Z"/><path class="cls-13" d="M1197,201.2v9.25c0,3.62-1.78,5.26-5.26,5.26a7.34,7.34,0,0,1-4.9-1.62l.72-1.08a6.26,6.26,0,0,0,4.14,1.44c2.66,0,3.88-1.22,3.88-3.82v-1.34a4.73,4.73,0,0,1-4.1,2,5.11,5.11,0,1,1,0-10.21,4.76,4.76,0,0,1,4.16,2.11v-2Zm-1.38,5a4,4,0,1,0-4,3.86A3.77,3.77,0,0,0,1195.58,206.21Z"/><path class="cls-13" d="M1210.42,201.2v10.53h-1.36v-1.92a4.18,4.18,0,0,1-3.78,2c-2.68,0-4.44-1.5-4.44-4.52V201.2h1.42v6c0,2.24,1.16,3.38,3.16,3.38,2.2,0,3.58-1.42,3.58-3.82V201.2Z"/><path class="cls-13" d="M1219.7,201.12v1.39c-.12,0-.24,0-.34,0-2.2,0-3.54,1.41-3.54,3.89v5.36h-1.42V201.2h1.36v2.07A4,4,0,0,1,1219.7,201.12Z"/><path class="cls-13" d="M1221.94,197.88a1,1,0,0,1,1-1,1,1,0,0,1,1,1,1,1,0,0,1-2.08,0Zm.32,3.32h1.42v10.53h-1.42Z"/><path class="cls-13" d="M1237.24,196.88v14.85h-1.36v-2.08a4.56,4.56,0,0,1-4.06,2.18,5.36,5.36,0,0,1,0-10.71,4.6,4.6,0,0,1,4,2.09v-6.33Zm-1.4,9.59a3.91,3.91,0,1,0-3.9,4.1A3.86,3.86,0,0,0,1235.84,206.47Z"/><path class="cls-13" d="M1249.14,205.21v6.52h-1.36v-1.64a4,4,0,0,1-3.62,1.74c-2.38,0-3.84-1.24-3.84-3.06,0-1.62,1-3,4.06-3h3.34v-.64c0-1.8-1-2.79-3-2.79a5.37,5.37,0,0,0-3.5,1.25l-.64-1.06a6.69,6.69,0,0,1,4.28-1.43C1247.6,201.12,1249.14,202.48,1249.14,205.21Zm-1.42,3.36v-1.72h-3.3c-2,0-2.7.8-2.7,1.88s1,2,2.66,2A3.37,3.37,0,0,0,1247.72,208.57Z"/><path class="cls-13" d="M1262.64,196.88v14.85h-1.36v-2.08a4.56,4.56,0,0,1-4.06,2.18,5.36,5.36,0,0,1,0-10.71,4.6,4.6,0,0,1,4,2.09v-6.33Zm-1.4,9.59a3.91,3.91,0,1,0-3.9,4.1A3.86,3.86,0,0,0,1261.24,206.47Z"/></g><g class="cls-12"><path class="cls-13" d="M1153.53,219v1.24h3.24v1.2h-3.2v9.33h-1.42V221.4h-1.88v-1.2h1.88v-1.3a2.9,2.9,0,0,1,3.18-3.12,3.33,3.33,0,0,1,2.1.66l-.48,1.06a2.41,2.41,0,0,0-1.56-.52C1154.17,217,1153.53,217.66,1153.53,219Z"/><path class="cls-13" d="M1162.45,216.1h1.9l-3.24,2.48h-1.4Zm-2.16,4.1h1.42v10.53h-1.42Z"/><path class="cls-13" d="M1164.21,229.53l.64-1.12a6.35,6.35,0,0,0,3.74,1.18c2,0,2.82-.68,2.82-1.72,0-2.74-6.82-.58-6.82-4.74,0-1.73,1.48-3,4.16-3a7,7,0,0,1,3.72,1l-.62,1.14a5.39,5.39,0,0,0-3.1-.9c-1.9,0-2.74.74-2.74,1.74,0,2.84,6.82.7,6.82,4.74,0,1.82-1.6,3-4.34,3A7,7,0,0,1,1164.21,229.53Z"/><path class="cls-13" d="M1175.13,216.88a1,1,0,0,1,1-1,1,1,0,0,1,1,1,1,1,0,0,1-2.08,0Zm.32,3.32h1.42v10.53h-1.42Z"/><path class="cls-13" d="M1179.77,225.47a5.19,5.19,0,0,1,5.42-5.35,4.58,4.58,0,0,1,4.12,2.09l-1.06.72a3.56,3.56,0,0,0-3.06-1.57,4.11,4.11,0,0,0,0,8.21,3.56,3.56,0,0,0,3.06-1.54l1.06.72a4.64,4.64,0,0,1-4.12,2.08A5.19,5.19,0,0,1,1179.77,225.47Z"/><path class="cls-13" d="M1200,224.21v6.52h-1.36v-1.64a4,4,0,0,1-3.62,1.74c-2.38,0-3.84-1.24-3.84-3.06,0-1.62,1-3,4.06-3h3.34v-.64c0-1.8-1-2.79-3-2.79a5.37,5.37,0,0,0-3.5,1.25l-.64-1.06a6.69,6.69,0,0,1,4.28-1.43C1198.49,220.12,1200,221.48,1200,224.21Zm-1.42,3.36v-1.72h-3.3c-2,0-2.7.8-2.7,1.88s1,2,2.66,2A3.37,3.37,0,0,0,1198.61,227.57Z"/><path class="cls-13" d="M1218,220.2,1212.71,232c-.88,2.06-2,2.72-3.5,2.72a3.6,3.6,0,0,1-2.56-1l.66-1.06a2.63,2.63,0,0,0,1.92.8c.94,0,1.58-.44,2.18-1.76l.46-1-4.7-10.51h1.48l4,9,4-9Z"/><path class="cls-13" d="M1225.21,215.88h1.42v14.85h-1.42Z"/><path class="cls-13" d="M1229.53,225.47a5.35,5.35,0,1,1,5.36,5.36A5.18,5.18,0,0,1,1229.53,225.47Zm9.26,0a3.91,3.91,0,1,0-3.9,4.1A3.84,3.84,0,0,0,1238.79,225.47Zm-2.48-9.37h1.9l-3.24,2.48h-1.4Z"/><path class="cls-13" d="M1252.87,220.2v9.25c0,3.62-1.78,5.26-5.26,5.26a7.34,7.34,0,0,1-4.9-1.62l.72-1.08a6.26,6.26,0,0,0,4.14,1.44c2.66,0,3.88-1.22,3.88-3.82v-1.34a4.73,4.73,0,0,1-4.1,2,5.11,5.11,0,1,1,0-10.21,4.76,4.76,0,0,1,4.16,2.11v-2Zm-1.38,5a4,4,0,1,0-4,3.86A3.77,3.77,0,0,0,1251.49,225.21Z"/><path class="cls-13" d="M1256.53,216.88a1,1,0,0,1,1-1,1,1,0,0,1,1,1,1,1,0,0,1-2.08,0Zm.32,3.32h1.42v10.53h-1.42Z"/><path class="cls-13" d="M1261.17,225.47a5.19,5.19,0,0,1,5.42-5.35,4.58,4.58,0,0,1,4.12,2.09l-1.06.72a3.56,3.56,0,0,0-3.06-1.57,4.11,4.11,0,0,0,0,8.21,3.56,3.56,0,0,0,3.06-1.54l1.06.72a4.64,4.64,0,0,1-4.12,2.08A5.19,5.19,0,0,1,1261.17,225.47Z"/><path class="cls-13" d="M1281.43,224.21v6.52h-1.36v-1.64a4,4,0,0,1-3.62,1.74c-2.38,0-3.84-1.24-3.84-3.06,0-1.62,1-3,4.06-3H1280v-.64c0-1.8-1-2.79-3-2.79a5.37,5.37,0,0,0-3.5,1.25l-.64-1.06a6.69,6.69,0,0,1,4.28-1.43C1279.89,220.12,1281.43,221.48,1281.43,224.21Zm-1.42,3.36v-1.72h-3.3c-2,0-2.7.8-2.7,1.88s1,2,2.66,2A3.37,3.37,0,0,0,1280,227.57Z"/></g></g></g></g><g id="Grupo_264" data-name="Grupo 264"><path id="Trazado_275" data-name="Trazado 275" class="cls-14" d="M838,97.8a23.31,23.31,0,0,1,23.31-23.31h148.9a23.31,23.31,0,0,1,23.32,23.31V246.7A23.32,23.32,0,0,1,1010.21,270H861.31A23.31,23.31,0,0,1,838,246.7h0"/><g id="Grupo_263" data-name="Grupo 263"><g id="_04" data-name=" 04" class="cls-12"><g class="cls-12"><path class="cls-13" d="M887.24,128.71c0-17.84,9.36-28.48,22.32-28.48S932,110.87,932,128.71s-9.44,28.48-22.4,28.48S887.24,146.55,887.24,128.71Zm38.8,0c0-15-6.72-23.2-16.48-23.2s-16.48,8.24-16.48,23.2,6.72,23.2,16.48,23.2S926,143.67,926,128.71Z"/><path class="cls-13" d="M987.8,142H976.6v14.72h-5.76V142h-31.6v-4.16l29.68-37.12h6.4l-28.64,36.16H971v-13h5.6v13h11.2Z"/></g></g><g id="Gestión_de_la_continuidad_del_negocio_" data-name="Gestión de la continuidad del negocio " class="cls-12"><g class="cls-12"><path class="cls-13" d="M880.42,184.69h1.42V190a7.73,7.73,0,0,1-5.14,1.78,7.12,7.12,0,1,1,0-14.24,6.9,6.9,0,0,1,5.2,2l-.92.94a5.91,5.91,0,1,0-4.24,10,6.06,6.06,0,0,0,3.66-1.08Z"/><path class="cls-13" d="M894.88,186.87h-8.8a3.89,3.89,0,0,0,4.14,3.66,4.15,4.15,0,0,0,3.22-1.38l.8.92a5.56,5.56,0,0,1-9.58-3.64,5.07,5.07,0,0,1,5.14-5.34,5,5,0,0,1,5.1,5.34C894.9,186.55,894.88,186.71,894.88,186.87Zm-8.8-1.06h7.46a3.74,3.74,0,0,0-7.46,0Z"/><path class="cls-13" d="M896.34,190.49l.64-1.12a6.35,6.35,0,0,0,3.74,1.18c2,0,2.82-.68,2.82-1.72,0-2.74-6.82-.58-6.82-4.74,0-1.72,1.48-3,4.16-3a7.13,7.13,0,0,1,3.72,1l-.62,1.14a5.39,5.39,0,0,0-3.1-.9c-1.9,0-2.74.74-2.74,1.74,0,2.84,6.82.7,6.82,4.74,0,1.82-1.6,3-4.34,3A7,7,0,0,1,896.34,190.49Z"/><path class="cls-13" d="M913.12,191.05a3.38,3.38,0,0,1-2.22.74,2.79,2.79,0,0,1-3.08-3.06v-6.36h-1.88v-1.2h1.88v-2.3h1.42v2.3h3.2v1.2h-3.2v6.28a1.68,1.68,0,0,0,1.82,1.92,2.35,2.35,0,0,0,1.56-.54Z"/><path class="cls-13" d="M915.38,177.85a1,1,0,0,1,1-1,1,1,0,0,1,1,1,1,1,0,0,1-2.08,0Zm.32,3.32h1.42v10.52H915.7Z"/><path class="cls-13" d="M920,186.43a5.35,5.35,0,1,1,5.36,5.36A5.17,5.17,0,0,1,920,186.43Zm9.26,0a3.91,3.91,0,1,0-3.9,4.1A3.84,3.84,0,0,0,929.28,186.43Zm-2.48-9.36h1.9l-3.24,2.48h-1.4Z"/><path class="cls-13" d="M943.3,185.59v6.1h-1.42v-6c0-2.22-1.16-3.36-3.16-3.36a3.45,3.45,0,0,0-3.68,3.8v5.52h-1.42V181.17H935v1.94a4.42,4.42,0,0,1,4-2C941.54,181.09,943.3,182.57,943.3,185.59Z"/><path class="cls-13" d="M962,176.85v14.84h-1.36v-2.08a4.56,4.56,0,0,1-4.06,2.18,5.35,5.35,0,0,1,0-10.7,4.59,4.59,0,0,1,4,2.08v-6.32Zm-1.4,9.58a3.91,3.91,0,1,0-3.9,4.1A3.85,3.85,0,0,0,960.6,186.43Z"/><path class="cls-13" d="M975.12,186.87h-8.8a3.89,3.89,0,0,0,4.14,3.66,4.15,4.15,0,0,0,3.22-1.38l.8.92a5.56,5.56,0,0,1-9.58-3.64,5.07,5.07,0,0,1,5.14-5.34,5,5,0,0,1,5.1,5.34C975.14,186.55,975.12,186.71,975.12,186.87Zm-8.8-1.06h7.46a3.74,3.74,0,0,0-7.46,0Z"/><path class="cls-13" d="M983.28,176.85h1.42v14.84h-1.42Z"/><path class="cls-13" d="M996.6,185.17v6.52h-1.36v-1.64a4,4,0,0,1-3.62,1.74c-2.38,0-3.84-1.24-3.84-3.06,0-1.62,1-3,4.06-3h3.34v-.64c0-1.8-1-2.78-3-2.78a5.36,5.36,0,0,0-3.5,1.24l-.64-1.06a6.68,6.68,0,0,1,4.28-1.42C995.06,181.09,996.6,182.45,996.6,185.17Zm-1.42,3.36v-1.72h-3.3c-2,0-2.7.8-2.7,1.88s1,2,2.66,2A3.37,3.37,0,0,0,995.18,188.53Z"/></g><g class="cls-12"><path class="cls-13" d="M875.92,205.43a5.18,5.18,0,0,1,5.42-5.34,4.59,4.59,0,0,1,4.12,2.08l-1.06.72a3.58,3.58,0,0,0-3.06-1.56,4.1,4.1,0,0,0,0,8.2A3.56,3.56,0,0,0,884.4,208l1.06.72a4.64,4.64,0,0,1-4.12,2.08A5.19,5.19,0,0,1,875.92,205.43Z"/><path class="cls-13" d="M887,205.43a5.35,5.35,0,1,1,5.36,5.36A5.17,5.17,0,0,1,887,205.43Zm9.26,0a3.91,3.91,0,1,0-3.9,4.1A3.84,3.84,0,0,0,896.26,205.43Z"/><path class="cls-13" d="M910.28,204.59v6.1h-1.42v-6c0-2.22-1.16-3.36-3.16-3.36a3.45,3.45,0,0,0-3.68,3.8v5.52H900.6V200.17H902v1.94a4.42,4.42,0,0,1,4-2C908.52,200.09,910.28,201.57,910.28,204.59Z"/><path class="cls-13" d="M919.68,210.05a3.38,3.38,0,0,1-2.22.74,2.79,2.79,0,0,1-3.08-3.06v-6.36H912.5v-1.2h1.88v-2.3h1.42v2.3H919v1.2h-3.2v6.28a1.68,1.68,0,0,0,1.82,1.92,2.35,2.35,0,0,0,1.56-.54Z"/><path class="cls-13" d="M921.94,196.85a1,1,0,0,1,1-1,1,1,0,0,1,1,1,1,1,0,0,1-2.08,0Zm.32,3.32h1.42v10.52h-1.42Z"/><path class="cls-13" d="M937.32,204.59v6.1H935.9v-6c0-2.22-1.16-3.36-3.16-3.36a3.45,3.45,0,0,0-3.68,3.8v5.52h-1.42V200.17H929v1.94a4.42,4.42,0,0,1,4-2C935.56,200.09,937.32,201.57,937.32,204.59Z"/><path class="cls-13" d="M950.66,200.17v10.52H949.3v-1.92a4.18,4.18,0,0,1-3.78,2c-2.68,0-4.44-1.5-4.44-4.52v-6.1h1.42v6c0,2.24,1.16,3.38,3.16,3.38,2.2,0,3.58-1.42,3.58-3.82v-5.52Z"/><path class="cls-13" d="M954.32,196.85a1,1,0,0,1,1-1,1,1,0,0,1,1,1,1,1,0,0,1-2.08,0Zm.32,3.32h1.42v10.52h-1.42Z"/><path class="cls-13" d="M969.62,195.85v14.84h-1.36v-2.08a4.56,4.56,0,0,1-4.06,2.18,5.35,5.35,0,0,1,0-10.7,4.59,4.59,0,0,1,4,2.08v-6.32Zm-1.4,9.58a3.91,3.91,0,1,0-3.9,4.1A3.85,3.85,0,0,0,968.22,205.43Z"/><path class="cls-13" d="M981.52,204.17v6.52h-1.36v-1.64a4,4,0,0,1-3.62,1.74c-2.38,0-3.84-1.24-3.84-3.06,0-1.62,1-3,4.06-3h3.34v-.64c0-1.8-1-2.78-3-2.78a5.36,5.36,0,0,0-3.5,1.24l-.64-1.06a6.68,6.68,0,0,1,4.28-1.42C980,200.09,981.52,201.45,981.52,204.17Zm-1.42,3.36v-1.72h-3.3c-2,0-2.7.8-2.7,1.88s1,2,2.66,2A3.37,3.37,0,0,0,980.1,207.53Z"/><path class="cls-13" d="M995,195.85v14.84h-1.36v-2.08a4.56,4.56,0,0,1-4.06,2.18,5.35,5.35,0,0,1,0-10.7,4.59,4.59,0,0,1,4,2.08v-6.32Zm-1.4,9.58a3.91,3.91,0,1,0-3.9,4.1A3.85,3.85,0,0,0,993.62,205.43Z"/></g><g class="cls-12"><path class="cls-13" d="M888.9,214.85v14.84h-1.36v-2.08a4.56,4.56,0,0,1-4.06,2.18,5.35,5.35,0,0,1,0-10.7,4.59,4.59,0,0,1,4,2.08v-6.32Zm-1.4,9.58a3.91,3.91,0,1,0-3.9,4.1A3.85,3.85,0,0,0,887.5,224.43Z"/><path class="cls-13" d="M902,224.87h-8.8a3.89,3.89,0,0,0,4.14,3.66,4.15,4.15,0,0,0,3.22-1.38l.8.92a5.56,5.56,0,0,1-9.58-3.64,5.07,5.07,0,0,1,5.14-5.34,5,5,0,0,1,5.1,5.34C902,224.55,902,224.71,902,224.87Zm-8.8-1.06h7.46a3.74,3.74,0,0,0-7.46,0Z"/><path class="cls-13" d="M904.94,214.85h1.42v14.84h-1.42Z"/><path class="cls-13" d="M925.24,223.59v6.1h-1.42v-6c0-2.22-1.16-3.36-3.16-3.36a3.45,3.45,0,0,0-3.68,3.8v5.52h-1.42V219.17h1.36v1.94a4.42,4.42,0,0,1,4-2C923.48,219.09,925.24,220.57,925.24,223.59Z"/><path class="cls-13" d="M938.3,224.87h-8.8a3.89,3.89,0,0,0,4.14,3.66,4.15,4.15,0,0,0,3.22-1.38l.8.92a5.56,5.56,0,0,1-9.58-3.64,5.07,5.07,0,0,1,5.14-5.34,5,5,0,0,1,5.1,5.34C938.32,224.55,938.3,224.71,938.3,224.87Zm-8.8-1.06H937a3.74,3.74,0,0,0-7.46,0Z"/><path class="cls-13" d="M951,219.17v9.24c0,3.62-1.78,5.26-5.26,5.26a7.34,7.34,0,0,1-4.9-1.62l.72-1.08a6.26,6.26,0,0,0,4.14,1.44c2.66,0,3.88-1.22,3.88-3.82v-1.34a4.73,4.73,0,0,1-4.1,2,5.1,5.1,0,1,1,0-10.2,4.75,4.75,0,0,1,4.16,2.1v-2Zm-1.38,5a4,4,0,1,0-4,3.86A3.76,3.76,0,0,0,949.58,224.17Z"/><path class="cls-13" d="M953.88,224.43a5.35,5.35,0,1,1,5.36,5.36A5.17,5.17,0,0,1,953.88,224.43Zm9.26,0a3.91,3.91,0,1,0-3.9,4.1A3.84,3.84,0,0,0,963.14,224.43Z"/><path class="cls-13" d="M966.42,224.43a5.18,5.18,0,0,1,5.42-5.34,4.59,4.59,0,0,1,4.12,2.08l-1.06.72a3.58,3.58,0,0,0-3.06-1.56,4.1,4.1,0,0,0,0,8.2A3.56,3.56,0,0,0,974.9,227l1.06.72a4.64,4.64,0,0,1-4.12,2.08A5.19,5.19,0,0,1,966.42,224.43Z"/><path class="cls-13" d="M978.42,215.85a1,1,0,0,1,1-1,1,1,0,0,1,1,1,1,1,0,0,1-2.08,0Zm.32,3.32h1.42v10.52h-1.42Z"/><path class="cls-13" d="M983.06,224.43a5.35,5.35,0,1,1,5.36,5.36A5.17,5.17,0,0,1,983.06,224.43Zm9.26,0a3.91,3.91,0,1,0-3.9,4.1A3.84,3.84,0,0,0,992.32,224.43Z"/></g></g></g></g><g id="Grupo_266" data-name="Grupo 266"><path id="Rectángulo_90" data-name="Rectángulo 90" class="cls-15" d="M568.1,74.49H743.42a10.1,10.1,0,0,1,10.1,10.1h0V259.91a10.1,10.1,0,0,1-10.1,10.1H568.1a10.1,10.1,0,0,1-10.1-10.1h0V84.59A10.1,10.1,0,0,1,568.1,74.49Z"/><g id="Grupo_265" data-name="Grupo 265"><g id="_03" data-name=" 03" class="cls-12"><g class="cls-12"><path class="cls-13" d="M613.74,151.89c0-16.94,8.9-27,21.21-27s21.28,10.11,21.28,27S647.26,179,635,179,613.74,168.84,613.74,151.89Zm36.87,0c0-14.21-6.39-22-15.66-22s-15.66,7.83-15.66,22,6.39,22.05,15.66,22.05S650.61,166.11,650.61,151.89Z"/><path class="cls-13" d="M698.48,163.22c0,8.89-6.46,15.73-19.3,15.73-7.68,0-15-2.66-19.15-6.84l2.66-4.33c3.42,3.57,9.57,6.16,16.49,6.16,8.82,0,13.68-4.11,13.68-10.72,0-6.38-4.48-10.57-14.36-10.57h-3.8v-4l14.74-18.47H662.23v-4.87h34.2v3.88l-15,18.92C692.78,148.7,698.48,154.71,698.48,163.22Z"/></g></g><g id="Gestión_de_cambios_" data-name="Gestión de cambios " class="cls-12"><g class="cls-12"><path class="cls-13" d="M614.25,209.94h1.42v5.35a7.73,7.73,0,0,1-5.14,1.78,7.13,7.13,0,1,1,0-14.25,6.9,6.9,0,0,1,5.2,2l-.92.94a5.91,5.91,0,1,0-4.24,10,6.06,6.06,0,0,0,3.66-1.08Z"/><path class="cls-13" d="M628.71,212.13h-8.8a3.89,3.89,0,0,0,4.14,3.66,4.15,4.15,0,0,0,3.22-1.38l.8.92a5.56,5.56,0,0,1-9.58-3.64,5.08,5.08,0,0,1,5.14-5.35,5,5,0,0,1,5.1,5.35C628.73,211.81,628.71,212,628.71,212.13Zm-8.8-1.06h7.46a3.74,3.74,0,0,0-7.46,0Z"/><path class="cls-13" d="M630.17,215.75l.64-1.12a6.35,6.35,0,0,0,3.74,1.18c2,0,2.82-.68,2.82-1.72,0-2.74-6.82-.58-6.82-4.74,0-1.73,1.48-3,4.16-3a7.13,7.13,0,0,1,3.72,1l-.62,1.15a5.32,5.32,0,0,0-3.1-.9c-1.9,0-2.74.74-2.74,1.74,0,2.84,6.82.7,6.82,4.74,0,1.82-1.6,3-4.34,3A7,7,0,0,1,630.17,215.75Z"/><path class="cls-13" d="M647,216.31a3.38,3.38,0,0,1-2.22.74,2.79,2.79,0,0,1-3.08-3.06v-6.37h-1.88v-1.2h1.88v-2.3h1.42v2.3h3.2v1.2h-3.2v6.29a1.68,1.68,0,0,0,1.82,1.92,2.35,2.35,0,0,0,1.56-.54Z"/><path class="cls-13" d="M649.21,203.1a1,1,0,0,1,1-1,1,1,0,0,1,1,1,1,1,0,0,1-2.08,0Zm.32,3.32H651V217h-1.42Z"/><path class="cls-13" d="M653.85,211.69a5.35,5.35,0,1,1,5.36,5.36A5.18,5.18,0,0,1,653.85,211.69Zm9.26,0a3.91,3.91,0,1,0-3.9,4.1A3.84,3.84,0,0,0,663.11,211.69Zm-2.48-9.37h1.9l-3.24,2.48h-1.4Z"/><path class="cls-13" d="M677.13,210.85V217h-1.42v-6c0-2.22-1.16-3.37-3.16-3.37a3.45,3.45,0,0,0-3.68,3.81V217h-1.42V206.42h1.36v1.94a4.42,4.42,0,0,1,4-2C675.37,206.34,677.13,207.82,677.13,210.85Z"/><path class="cls-13" d="M695.83,202.1V217h-1.36v-2.08a4.56,4.56,0,0,1-4.06,2.18,5.36,5.36,0,0,1,0-10.71,4.6,4.6,0,0,1,4,2.09V202.1Zm-1.4,9.59a3.91,3.91,0,1,0-3.9,4.1A3.86,3.86,0,0,0,694.43,211.69Z"/><path class="cls-13" d="M709,212.13h-8.8a3.89,3.89,0,0,0,4.14,3.66,4.15,4.15,0,0,0,3.22-1.38l.8.92a5.56,5.56,0,0,1-9.58-3.64,5.08,5.08,0,0,1,5.14-5.35,5,5,0,0,1,5.1,5.35C709,211.81,709,212,709,212.13Zm-8.8-1.06h7.46a3.74,3.74,0,0,0-7.46,0Z"/></g><g class="cls-12"><path class="cls-13" d="M614.15,230.69a5.19,5.19,0,0,1,5.42-5.35,4.58,4.58,0,0,1,4.12,2.09l-1.06.72a3.56,3.56,0,0,0-3.06-1.57,4.11,4.11,0,0,0,0,8.21,3.56,3.56,0,0,0,3.06-1.54l1.06.72a4.64,4.64,0,0,1-4.12,2.08A5.19,5.19,0,0,1,614.15,230.69Z"/><path class="cls-13" d="M634.41,229.43V236h-1.36v-1.64a4,4,0,0,1-3.62,1.74c-2.38,0-3.84-1.24-3.84-3.06,0-1.62,1-3,4.06-3H633v-.64c0-1.8-1-2.79-3-2.79a5.41,5.41,0,0,0-3.5,1.24l-.64-1a6.63,6.63,0,0,1,4.28-1.43C632.87,225.34,634.41,226.7,634.41,229.43ZM633,232.79v-1.72h-3.3c-2,0-2.7.8-2.7,1.88s1,2,2.66,2A3.37,3.37,0,0,0,633,232.79Z"/><path class="cls-13" d="M655.63,229.85V236h-1.42v-6c0-2.22-1.12-3.37-3-3.37-2.16,0-3.52,1.4-3.52,3.81V236h-1.42v-6c0-2.22-1.12-3.37-3-3.37-2.14,0-3.52,1.4-3.52,3.81V236h-1.42V225.42h1.36v1.93a4.24,4.24,0,0,1,3.86-2,3.77,3.77,0,0,1,3.74,2.23,4.57,4.57,0,0,1,4.16-2.23C654,225.34,655.63,226.82,655.63,229.85Z"/><path class="cls-13" d="M670.15,230.69a5.11,5.11,0,0,1-5.24,5.36,4.56,4.56,0,0,1-4.06-2.18V236h-1.36V221.1h1.42v6.33a4.6,4.6,0,0,1,4-2.09A5.1,5.1,0,0,1,670.15,230.69Zm-1.42,0a3.92,3.92,0,1,0-3.92,4.1A3.87,3.87,0,0,0,668.73,230.69Z"/><path class="cls-13" d="M672.73,222.1a1,1,0,0,1,1-1,1,1,0,0,1,1,1,1,1,0,0,1-2.08,0Zm.32,3.32h1.42V236h-1.42Z"/><path class="cls-13" d="M677.37,230.69a5.35,5.35,0,1,1,5.36,5.36A5.18,5.18,0,0,1,677.37,230.69Zm9.26,0a3.91,3.91,0,1,0-3.9,4.1A3.84,3.84,0,0,0,686.63,230.69Z"/><path class="cls-13" d="M689.51,234.75l.64-1.12a6.35,6.35,0,0,0,3.74,1.18c2,0,2.82-.68,2.82-1.72,0-2.74-6.82-.58-6.82-4.74,0-1.73,1.48-3,4.16-3a7.13,7.13,0,0,1,3.72,1l-.62,1.15a5.32,5.32,0,0,0-3.1-.9c-1.9,0-2.74.74-2.74,1.74,0,2.84,6.82.7,6.82,4.74,0,1.82-1.6,3-4.34,3A7,7,0,0,1,689.51,234.75Z"/></g></g></g></g><path id="Rectángulo_91" data-name="Rectángulo 91" class="cls-16" d="M289.1,74.49H464.42a10.1,10.1,0,0,1,10.1,10.1h0V259.91a10.1,10.1,0,0,1-10.1,10.1H289.1a10.1,10.1,0,0,1-10.1-10.1h0V84.59A10.1,10.1,0,0,1,289.1,74.49Z"/><g id="_02" data-name=" 02" class="cls-12"><g class="cls-12"><path class="cls-13" d="M332,153.5c0-17.84,9.36-28.49,22.32-28.49s22.4,10.65,22.4,28.49S367.32,182,354.36,182,332,171.34,332,153.5Zm38.8,0c0-15-6.72-23.2-16.48-23.2s-16.48,8.24-16.48,23.2,6.72,23.2,16.48,23.2S370.84,168.46,370.84,153.5Z"/><path class="cls-13" d="M423.08,176.38v5.12H383.8v-4.08l23.28-22.8c6.32-6.24,7.52-10,7.52-13.84,0-6.48-4.56-10.48-13.12-10.48-6.56,0-11.6,2-15.28,6.24L382.12,133c4.32-5.12,11.28-8,19.84-8,11.36,0,18.56,5.77,18.56,15.12,0,5.37-1.68,10.17-9.2,17.53l-19,18.72Z"/></g></g><g id="Gestión_de_riesgos_" data-name="Gestión de riesgos " class="cls-12"><g class="cls-12"><path class="cls-13" d="M335.25,214h1.42v5.34a7.73,7.73,0,0,1-5.14,1.78,7.13,7.13,0,1,1,0-14.25,6.87,6.87,0,0,1,5.2,2l-.92.94a5.91,5.91,0,1,0-4.24,10,6.06,6.06,0,0,0,3.66-1.08Z"/><path class="cls-13" d="M349.71,216.13h-8.8a3.89,3.89,0,0,0,4.14,3.66,4.15,4.15,0,0,0,3.22-1.38l.8.92a5.56,5.56,0,0,1-9.58-3.64,5.07,5.07,0,0,1,5.14-5.34,5,5,0,0,1,5.1,5.34C349.73,215.81,349.71,216,349.71,216.13Zm-8.8-1.06h7.46a3.74,3.74,0,0,0-7.46,0Z"/><path class="cls-13" d="M351.17,219.75l.64-1.12a6.35,6.35,0,0,0,3.74,1.18c2,0,2.82-.68,2.82-1.72,0-2.74-6.82-.58-6.82-4.74,0-1.72,1.48-3,4.16-3a7.13,7.13,0,0,1,3.72,1l-.62,1.14a5.39,5.39,0,0,0-3.1-.9c-1.9,0-2.74.74-2.74,1.74,0,2.84,6.82.7,6.82,4.74,0,1.82-1.6,3-4.34,3A7,7,0,0,1,351.17,219.75Z"/><path class="cls-13" d="M368,220.31a3.38,3.38,0,0,1-2.22.74,2.79,2.79,0,0,1-3.08-3.06v-6.36h-1.88v-1.2h1.88v-2.3h1.42v2.3h3.2v1.2h-3.2v6.28a1.68,1.68,0,0,0,1.82,1.92,2.35,2.35,0,0,0,1.56-.54Z"/><path class="cls-13" d="M370.21,207.11a1,1,0,0,1,1-1,1,1,0,0,1,1,1,1,1,0,0,1-2.08,0Zm.32,3.32H372V221h-1.42Z"/><path class="cls-13" d="M374.85,215.69a5.35,5.35,0,1,1,5.36,5.36A5.17,5.17,0,0,1,374.85,215.69Zm9.26,0a3.91,3.91,0,1,0-3.9,4.1A3.84,3.84,0,0,0,384.11,215.69Zm-2.48-9.37h1.9l-3.24,2.49h-1.4Z"/><path class="cls-13" d="M398.13,214.85V221h-1.42v-6c0-2.22-1.16-3.36-3.16-3.36a3.45,3.45,0,0,0-3.68,3.8V221h-1.42V210.43h1.36v1.94a4.42,4.42,0,0,1,4-2C396.37,210.35,398.13,211.83,398.13,214.85Z"/><path class="cls-13" d="M416.83,206.11V221h-1.36v-2.08a4.56,4.56,0,0,1-4.06,2.18,5.35,5.35,0,0,1,0-10.7,4.59,4.59,0,0,1,4,2.08v-6.32Zm-1.4,9.58a3.91,3.91,0,1,0-3.9,4.1A3.85,3.85,0,0,0,415.43,215.69Z"/><path class="cls-13" d="M430,216.13h-8.8a3.89,3.89,0,0,0,4.14,3.66,4.15,4.15,0,0,0,3.22-1.38l.8.92a5.56,5.56,0,0,1-9.58-3.64,5.07,5.07,0,0,1,5.14-5.34,5,5,0,0,1,5.1,5.34C430,215.81,430,216,430,216.13Zm-8.8-1.06h7.46a3.74,3.74,0,0,0-7.46,0Z"/></g><g class="cls-12"><path class="cls-13" d="M348.71,229.35v1.38l-.34,0c-2.2,0-3.54,1.4-3.54,3.88V240h-1.42V229.43h1.36v2.06A4,4,0,0,1,348.71,229.35Z"/><path class="cls-13" d="M351,226.11a1,1,0,0,1,1-1,1,1,0,0,1,1,1,1,1,0,0,1-2.08,0Zm.32,3.32h1.42V240h-1.42Z"/><path class="cls-13" d="M365.81,235.13H357a3.89,3.89,0,0,0,4.14,3.66,4.15,4.15,0,0,0,3.22-1.38l.8.92a5.56,5.56,0,0,1-9.58-3.64,5.07,5.07,0,0,1,5.14-5.34,5,5,0,0,1,5.1,5.34C365.83,234.81,365.81,235,365.81,235.13Zm-8.8-1.06h7.46a3.74,3.74,0,0,0-7.46,0Z"/><path class="cls-13" d="M367.27,238.75l.64-1.12a6.35,6.35,0,0,0,3.74,1.18c2,0,2.82-.68,2.82-1.72,0-2.74-6.82-.58-6.82-4.74,0-1.72,1.48-3,4.16-3a7.13,7.13,0,0,1,3.72,1l-.62,1.14a5.39,5.39,0,0,0-3.1-.9c-1.9,0-2.74.74-2.74,1.74,0,2.84,6.82.7,6.82,4.74,0,1.82-1.6,3-4.34,3A7,7,0,0,1,367.27,238.75Z"/><path class="cls-13" d="M388.25,229.43v9.24c0,3.62-1.78,5.26-5.26,5.26a7.34,7.34,0,0,1-4.9-1.62l.72-1.08a6.26,6.26,0,0,0,4.14,1.44c2.66,0,3.88-1.22,3.88-3.82v-1.34a4.73,4.73,0,0,1-4.1,2,5.1,5.1,0,1,1,0-10.2,4.75,4.75,0,0,1,4.16,2.1v-2Zm-1.38,5a4,4,0,1,0-4,3.86A3.76,3.76,0,0,0,386.87,234.43Z"/><path class="cls-13" d="M391.17,234.69a5.35,5.35,0,1,1,5.36,5.36A5.17,5.17,0,0,1,391.17,234.69Zm9.26,0a3.91,3.91,0,1,0-3.9,4.1A3.84,3.84,0,0,0,400.43,234.69Z"/><path class="cls-13" d="M403.31,238.75l.64-1.12a6.35,6.35,0,0,0,3.74,1.18c2,0,2.82-.68,2.82-1.72,0-2.74-6.82-.58-6.82-4.74,0-1.72,1.48-3,4.16-3a7.13,7.13,0,0,1,3.72,1l-.62,1.14a5.39,5.39,0,0,0-3.1-.9c-1.9,0-2.74.74-2.74,1.74,0,2.84,6.82.7,6.82,4.74,0,1.82-1.6,3-4.34,3A7,7,0,0,1,403.31,238.75Z"/></g></g><g id="Grupo_270" data-name="Grupo 270"><path id="Rectángulo_92" data-name="Rectángulo 92" class="cls-17" d="M10.1,74.49H185.42a10.1,10.1,0,0,1,10.1,10.1h0V259.91a10.1,10.1,0,0,1-10.1,10.1H10.1A10.1,10.1,0,0,1,0,259.91H0V84.59A10.1,10.1,0,0,1,10.1,74.49Z"/><g id="_01" data-name=" 01" class="cls-12"><g class="cls-12"><path class="cls-13" d="M60.86,154.15c0-18.06,9.48-28.84,22.6-28.84s22.68,10.78,22.68,28.84S96.58,183,83.46,183,60.86,172.21,60.86,154.15Zm39.28,0c0-15.15-6.8-23.49-16.68-23.49S66.77,139,66.77,154.15s6.81,23.49,16.69,23.49S100.14,169.29,100.14,154.15Z"/><path class="cls-13" d="M130,125.8v56.7H124.2V131H110.84V125.8Z"/></g></g><g id="Gestión_de_accesos_" data-name="Gestión de accesos " class="cls-12"><g class="cls-12"><path class="cls-13" d="M56.25,214.94h1.42v5.35a7.73,7.73,0,0,1-5.14,1.78,7.13,7.13,0,1,1,0-14.25,6.9,6.9,0,0,1,5.2,2l-.92.94a5.91,5.91,0,1,0-4.24,10,6.06,6.06,0,0,0,3.66-1.08Z"/><path class="cls-13" d="M70.71,217.13h-8.8a3.89,3.89,0,0,0,4.14,3.66,4.15,4.15,0,0,0,3.22-1.38l.8.92a5.56,5.56,0,0,1-9.58-3.64,5.08,5.08,0,0,1,5.14-5.35,5,5,0,0,1,5.1,5.35C70.73,216.81,70.71,217,70.71,217.13Zm-8.8-1.06h7.46a3.74,3.74,0,0,0-7.46,0Z"/><path class="cls-13" d="M72.17,220.75l.64-1.12a6.35,6.35,0,0,0,3.74,1.18c2,0,2.82-.68,2.82-1.72,0-2.74-6.82-.58-6.82-4.74,0-1.73,1.48-3,4.16-3a7.13,7.13,0,0,1,3.72,1l-.62,1.15a5.32,5.32,0,0,0-3.1-.9c-1.9,0-2.74.74-2.74,1.74,0,2.84,6.82.7,6.82,4.74,0,1.82-1.6,3-4.34,3A7,7,0,0,1,72.17,220.75Z"/><path class="cls-13" d="M89,221.31a3.38,3.38,0,0,1-2.22.74A2.79,2.79,0,0,1,83.65,219v-6.37H81.77v-1.2h1.88v-2.3h1.42v2.3h3.2v1.2h-3.2v6.29a1.68,1.68,0,0,0,1.82,1.92,2.35,2.35,0,0,0,1.56-.54Z"/><path class="cls-13" d="M91.21,208.1a1,1,0,0,1,1-1,1,1,0,0,1,1,1,1,1,0,0,1-2.08,0Zm.32,3.32H93V222H91.53Z"/><path class="cls-13" d="M95.85,216.69a5.35,5.35,0,1,1,5.36,5.36A5.18,5.18,0,0,1,95.85,216.69Zm9.26,0a3.91,3.91,0,1,0-3.9,4.1A3.84,3.84,0,0,0,105.11,216.69Zm-2.48-9.37h1.9l-3.24,2.48h-1.4Z"/><path class="cls-13" d="M119.13,215.85V222h-1.42v-6c0-2.22-1.16-3.37-3.16-3.37a3.45,3.45,0,0,0-3.68,3.81V222h-1.42V211.42h1.36v1.94a4.42,4.42,0,0,1,4-2C117.37,211.34,119.13,212.82,119.13,215.85Z"/><path class="cls-13" d="M137.83,207.1V222h-1.36v-2.08a4.56,4.56,0,0,1-4.06,2.18,5.36,5.36,0,0,1,0-10.71,4.6,4.6,0,0,1,4,2.09V207.1Zm-1.4,9.59a3.91,3.91,0,1,0-3.9,4.1A3.86,3.86,0,0,0,136.43,216.69Z"/><path class="cls-13" d="M151,217.13h-8.8a3.89,3.89,0,0,0,4.14,3.66,4.15,4.15,0,0,0,3.22-1.38l.8.92a5.56,5.56,0,0,1-9.58-3.64,5.08,5.08,0,0,1,5.14-5.35,5,5,0,0,1,5.1,5.35C151,216.81,151,217,151,217.13Zm-8.8-1.06h7.46a3.74,3.74,0,0,0-7.46,0Z"/></g><g class="cls-12"><path class="cls-13" d="M68.83,234.43V241H67.47v-1.64a4,4,0,0,1-3.62,1.74c-2.38,0-3.84-1.24-3.84-3.06,0-1.62,1-3,4.06-3h3.34v-.64c0-1.8-1-2.79-3-2.79a5.41,5.41,0,0,0-3.5,1.24l-.64-1a6.63,6.63,0,0,1,4.28-1.43C67.29,230.34,68.83,231.7,68.83,234.43Zm-1.42,3.36v-1.72h-3.3c-2,0-2.7.8-2.7,1.88s1,2,2.66,2A3.37,3.37,0,0,0,67.41,237.79Z"/><path class="cls-13" d="M71.67,235.69a5.19,5.19,0,0,1,5.42-5.35,4.58,4.58,0,0,1,4.12,2.09l-1.06.72a3.56,3.56,0,0,0-3.06-1.57,4.11,4.11,0,0,0,0,8.21,3.56,3.56,0,0,0,3.06-1.54l1.06.72a4.64,4.64,0,0,1-4.12,2.08A5.19,5.19,0,0,1,71.67,235.69Z"/><path class="cls-13" d="M82.75,235.69a5.19,5.19,0,0,1,5.42-5.35,4.58,4.58,0,0,1,4.12,2.09l-1.06.72a3.56,3.56,0,0,0-3.06-1.57,4.11,4.11,0,0,0,0,8.21,3.56,3.56,0,0,0,3.06-1.54l1.06.72a4.64,4.64,0,0,1-4.12,2.08A5.19,5.19,0,0,1,82.75,235.69Z"/><path class="cls-13" d="M104.05,236.13h-8.8a3.89,3.89,0,0,0,4.14,3.66,4.15,4.15,0,0,0,3.22-1.38l.8.92a5.56,5.56,0,0,1-9.58-3.64A5.08,5.08,0,0,1,99,230.34a5,5,0,0,1,5.1,5.35C104.07,235.81,104.05,236,104.05,236.13Zm-8.8-1.06h7.46a3.74,3.74,0,0,0-7.46,0Z"/><path class="cls-13" d="M105.51,239.75l.64-1.12a6.35,6.35,0,0,0,3.74,1.18c2,0,2.82-.68,2.82-1.72,0-2.74-6.82-.58-6.82-4.74,0-1.73,1.48-3,4.16-3a7.13,7.13,0,0,1,3.72,1l-.62,1.15a5.32,5.32,0,0,0-3.1-.9c-1.9,0-2.74.74-2.74,1.74,0,2.84,6.82.7,6.82,4.74,0,1.82-1.6,3-4.34,3A7,7,0,0,1,105.51,239.75Z"/><path class="cls-13" d="M115.69,235.69a5.35,5.35,0,1,1,5.36,5.36A5.18,5.18,0,0,1,115.69,235.69Zm9.26,0a3.91,3.91,0,1,0-3.9,4.1A3.84,3.84,0,0,0,125,235.69Z"/><path class="cls-13" d="M127.83,239.75l.64-1.12a6.35,6.35,0,0,0,3.74,1.18c2,0,2.82-.68,2.82-1.72,0-2.74-6.82-.58-6.82-4.74,0-1.73,1.48-3,4.16-3a7.13,7.13,0,0,1,3.72,1l-.62,1.15a5.32,5.32,0,0,0-3.1-.9c-1.9,0-2.74.74-2.74,1.74,0,2.84,6.82.7,6.82,4.74,0,1.82-1.6,3-4.34,3A7,7,0,0,1,127.83,239.75Z"/></g></g></g></g></g></svg>