<svg height="512pt" viewBox="0 0 512 512" width="512pt" xmlns="http://www.w3.org/2000/svg"><path d="m512 256c0 141.386719-114.613281 256-256 256s-256-114.613281-256-256 114.613281-256 256-256 256 114.613281 256 256zm0 0" fill="#ffa99b"/><path d="m512 256c0-10.636719-.660156-21.121094-1.921875-31.417969l-101.261719-101.261719-13.988281 6.601563-46.597656-47.214844-184.125 101.539063 21 20.984375-21 40.617187-45.855469 15.652344-26.027344 77.683594 24.671875 24.671875-13.710937 24.824219 121.402344 121.398437c10.292968 1.261719 20.777343 1.921875 31.414062 1.921875 141.386719 0 256-114.613281 256-256zm0 0" fill="#f85b3f"/><path d="m174.261719 388.679688h-71.078125v-142.832032h71.246094v20.304688h-50.9375v102.21875h50.769531zm0 0" fill="#fbdf65"/><path d="m408.816406 266.152344h-71.246094v-20.304688h50.9375v-102.21875h-50.769531v-20.308594h71.078125zm0 0" fill="#fabe5c"/><path d="m113.335938 286.800781-13.539063 30.460938 13.539063 30.460937c16.824218 0 30.464843-13.636718 30.464843-30.460937s-13.640625-30.460938-30.464843-30.460938zm0 0" fill="#3e575f"/><path d="m82.875 317.261719c0 16.824219 13.636719 30.460937 30.460938 30.460937v-60.921875c-16.824219 0-30.460938 13.636719-30.460938 30.460938zm0 0" fill="#5c6f74"/><path d="m256 327.753906-40.617188 50.769532 40.617188 50.769531h92.230469v-101.539063zm0 0" fill="#5c6f74"/><path d="m164.105469 327.753906h91.894531v101.542969h-91.894531zm0 0" fill="#98a09f"/><path d="m246.015625 368.371094h20.308594v20.308594h-20.308594zm0 0" fill="#e7e7e6"/><path d="m205.398438 368.371094h20.308593v20.308594h-20.308593zm0 0" fill="#fff"/><path d="m286.632812 368.371094h20.304688v20.308594h-20.304688zm0 0" fill="#e7e7e6"/><path d="m256 205.230469-40.617188 50.769531 40.617188 50.769531h92.230469v-101.539062zm0 0" fill="#5c6f74"/><path d="m164.105469 205.230469h91.894531v101.539062h-91.894531zm0 0" fill="#98a09f"/><path d="m246.015625 245.847656h20.308594v20.304688h-20.308594zm0 0" fill="#e7e7e6"/><path d="m205.398438 245.847656h20.308593v20.304688h-20.308593zm0 0" fill="#fff"/><path d="m286.632812 245.847656h20.304688v20.304688h-20.304688zm0 0" fill="#e7e7e6"/><path d="m256 82.707031-40.617188 50.769531 40.617188 50.769532h92.230469v-101.539063zm0 0" fill="#5c6f74"/><path d="m164.105469 82.707031h91.894531v101.539063h-91.894531zm0 0" fill="#98a09f"/><path d="m246.015625 123.320312h20.308594v20.308594h-20.308594zm0 0" fill="#e7e7e6"/><path d="m205.398438 123.320312h20.308593v20.308594h-20.308593zm0 0" fill="#fff"/><path d="m286.632812 123.320312h20.304688v20.308594h-20.304688zm0 0" fill="#e7e7e6"/><path d="m398.664062 164.277344-13.539062 30.460937 13.539062 30.460938c16.824219 0 30.460938-13.636719 30.460938-30.460938s-13.636719-30.460937-30.460938-30.460937zm0 0" fill="#203f49"/><path d="m368.199219 194.738281c0 16.824219 13.640625 30.460938 30.464843 30.460938v-60.921875c-16.824218 0-30.464843 13.636718-30.464843 30.460937zm0 0" fill="#3e575f"/></svg>