<svg xmlns="http://www.w3.org/2000/svg" xmlns:xlink="http://www.w3.org/1999/xlink" viewBox="0 0 1082 419"><defs><style>.cls-1{fill:url(#Degradado_sin_nombre_24);}.cls-2{fill:url(#Degradado_sin_nombre_34);}.cls-3{fill:url(#Degradado_sin_nombre_5);}.cls-4{fill:url(#Degradado_sin_nombre_5-2);}.cls-5{fill:url(#Degradado_sin_nombre_34-2);}.cls-6{fill:url(#Degradado_sin_nombre_27);}.cls-7{fill:url(#Degradado_sin_nombre_27-2);}.cls-8{fill:#fff;}</style><linearGradient id="Degradado_sin_nombre_24" x1="136.49" y1="198.82" x2="136.49" y2="80.98" gradientUnits="userSpaceOnUse"><stop offset="0" stop-color="#2b4768"/><stop offset="0.34" stop-color="#3871ce"/><stop offset="0.93" stop-color="#b7d1f7"/></linearGradient><linearGradient id="Degradado_sin_nombre_34" x1="439.47" y1="126.82" x2="439.47" y2="8.98" gradientTransform="matrix(-1, 0, 0, 1, 818.98, 0)" gradientUnits="userSpaceOnUse"><stop offset="0" stop-color="#176977"/><stop offset="1" stop-color="#3eaeab"/></linearGradient><linearGradient id="Degradado_sin_nombre_5" x1="-126.53" y1="126.82" x2="-126.53" y2="8.98" gradientTransform="matrix(-1, 0, 0, 1, 818.98, 0)" gradientUnits="userSpaceOnUse"><stop offset="0" stop-color="#c78e31"/><stop offset="0.18" stop-color="#cb9634"/><stop offset="0.47" stop-color="#d5ac3b"/><stop offset="0.82" stop-color="#e7d147"/><stop offset="1" stop-color="#f1e64e"/></linearGradient><linearGradient id="Degradado_sin_nombre_5-2" x1="-126.53" y1="412.82" x2="-126.53" y2="294.98" xlink:href="#Degradado_sin_nombre_5"/><linearGradient id="Degradado_sin_nombre_34-2" x1="420.73" y1="270.82" x2="420.73" y2="152.98" xlink:href="#Degradado_sin_nombre_34"/><linearGradient id="Degradado_sin_nombre_27" x1="137.73" y1="200.82" x2="137.73" y2="82.98" gradientTransform="matrix(-1, 0, 0, 1, 818.98, 0)" gradientUnits="userSpaceOnUse"><stop offset="0" stop-color="#2880b5"/><stop offset="1" stop-color="#1a3356"/></linearGradient><linearGradient id="Degradado_sin_nombre_27-2" x1="137.73" y1="341.82" x2="137.73" y2="223.98" xlink:href="#Degradado_sin_nombre_27"/></defs><title>Recurso 56</title><g id="Capa_2" data-name="Capa 2"><g id="Capa_4" data-name="Capa 4"><path class="cls-1" d="M227.13,205H13.79A13.78,13.78,0,0,1,0,191.21V85.79A13.78,13.78,0,0,1,13.79,72H227.13a13.94,13.94,0,0,1,11.93,6.74l32.19,53.52a12.1,12.1,0,0,1,0,12.48l-32.19,53.52A13.94,13.94,0,0,1,227.13,205Z"/><path class="cls-2" d="M288.87,133H502.21A13.78,13.78,0,0,0,516,119.21V13.79A13.78,13.78,0,0,0,502.21,0H288.87a13.94,13.94,0,0,0-11.93,6.74L244.75,60.26a12.1,12.1,0,0,0,0,12.48l32.19,53.52A13.94,13.94,0,0,0,288.87,133Z"/><path class="cls-3" d="M854.87,133h213.34A13.78,13.78,0,0,0,1082,119.21V13.79A13.78,13.78,0,0,0,1068.21,0H854.87a13.94,13.94,0,0,0-11.93,6.74L810.75,60.26a12.1,12.1,0,0,0,0,12.48l32.19,53.52A13.94,13.94,0,0,0,854.87,133Z"/><path class="cls-4" d="M854.87,419h213.34A13.78,13.78,0,0,0,1082,405.21V299.79A13.78,13.78,0,0,0,1068.21,286H854.87a13.94,13.94,0,0,0-11.93,6.74l-32.19,53.52a12.1,12.1,0,0,0,0,12.48l32.19,53.52A13.94,13.94,0,0,0,854.87,419Z"/><path class="cls-5" d="M288.87,277H507.44a15.12,15.12,0,0,0,13-7.34l30.9-51.35a15.2,15.2,0,0,0,0-15.62l-30.9-51.35a15.12,15.12,0,0,0-13-7.34H288.87a13.94,13.94,0,0,0-11.93,6.74l-32.19,53.52a12.1,12.1,0,0,0,0,12.48l32.19,53.52A13.94,13.94,0,0,0,288.87,277Z"/><path class="cls-6" d="M571.87,207H790.44a15.12,15.12,0,0,0,13-7.34l30.9-51.35a15.2,15.2,0,0,0,0-15.62l-30.9-51.35a15.12,15.12,0,0,0-13-7.34H571.87a13.94,13.94,0,0,0-11.93,6.74l-32.19,53.52a12.1,12.1,0,0,0,0,12.48l32.19,53.52A13.94,13.94,0,0,0,571.87,207Z"/><path class="cls-7" d="M571.87,348H790.44a15.12,15.12,0,0,0,13-7.34l30.9-51.35a15.2,15.2,0,0,0,0-15.62l-30.9-51.35a15.12,15.12,0,0,0-13-7.34H571.87a13.94,13.94,0,0,0-11.93,6.74l-32.19,53.52a12.1,12.1,0,0,0,0,12.48l32.19,53.52A13.94,13.94,0,0,0,571.87,348Z"/><path class="cls-8" d="M95.83,129.07h6c4.7,0,7.87,3,7.87,7.35s-3.17,7.35-7.87,7.35h-6Zm5.91,13.36c3.9,0,6.42-2.48,6.42-6s-2.52-6-6.42-6H97.39v12Z"/><path class="cls-8" d="M121.2,136.93v6.84h-1.43v-1.72a4.15,4.15,0,0,1-3.8,1.83c-2.5,0-4-1.3-4-3.22,0-1.7,1.09-3.12,4.26-3.12h3.51v-.68c0-1.89-1.07-2.91-3.13-2.91a5.59,5.59,0,0,0-3.67,1.3l-.67-1.12a7,7,0,0,1,4.49-1.49C119.58,132.64,121.2,134.07,121.2,136.93Zm-1.49,3.52v-1.8h-3.46c-2.15,0-2.84.84-2.84,2,0,1.28,1,2.08,2.79,2.08A3.54,3.54,0,0,0,119.71,140.45Z"/><path class="cls-8" d="M131.07,143.1a3.53,3.53,0,0,1-2.33.78,2.93,2.93,0,0,1-3.23-3.22V134h-2v-1.26h2v-2.42H127v2.42h3.36V134H127v6.59a1.77,1.77,0,0,0,1.91,2,2.46,2.46,0,0,0,1.64-.57Z"/><path class="cls-8" d="M132.27,138.25a5.62,5.62,0,1,1,5.63,5.63A5.43,5.43,0,0,1,132.27,138.25Zm9.72,0a4.11,4.11,0,1,0-4.09,4.3A4,4,0,0,0,142,138.25Z"/><path class="cls-8" d="M145,142.51l.67-1.17a6.68,6.68,0,0,0,3.92,1.24c2.1,0,3-.72,3-1.81,0-2.88-7.16-.61-7.16-5,0-1.8,1.55-3.15,4.36-3.15a7.51,7.51,0,0,1,3.91,1l-.65,1.2a5.69,5.69,0,0,0-3.26-1c-2,0-2.87.78-2.87,1.83,0,3,7.16.74,7.16,5,0,1.91-1.68,3.15-4.56,3.15A7.33,7.33,0,0,1,145,142.51Z"/><path class="cls-8" d="M343.25,64.42A7.38,7.38,0,0,1,351,57a7.1,7.1,0,0,1,5.37,2.14l-1,1A5.8,5.8,0,0,0,351,58.33a6.09,6.09,0,1,0,0,12.18,5.73,5.73,0,0,0,4.34-1.76l1,1a7.17,7.17,0,0,1-5.4,2.16A7.38,7.38,0,0,1,343.25,64.42Z"/><path class="cls-8" d="M368.91,60.73v11h-1.43v-2a4.39,4.39,0,0,1-4,2.12c-2.81,0-4.66-1.58-4.66-4.75v-6.4h1.49V67c0,2.36,1.22,3.55,3.32,3.55,2.31,0,3.76-1.49,3.76-4V60.73Z"/><path class="cls-8" d="M381.43,64.93v6.84H380V70.05a4.16,4.16,0,0,1-3.8,1.83c-2.5,0-4-1.3-4-3.22,0-1.7,1.09-3.12,4.26-3.12h3.5v-.68c0-1.89-1.07-2.91-3.12-2.91a5.64,5.64,0,0,0-3.68,1.3l-.67-1.12A7,7,0,0,1,377,60.64C379.81,60.64,381.43,62.07,381.43,64.93Zm-1.5,3.52v-1.8h-3.46c-2.14,0-2.83.84-2.83,2s1,2.08,2.79,2.08A3.52,3.52,0,0,0,379.93,68.45Z"/><path class="cls-8" d="M385.48,56.19H387V71.77h-1.49Z"/><path class="cls-8" d="M390.79,57.24a1.09,1.09,0,0,1,1.1-1.05,1.06,1.06,0,0,1,1.09,1,1.1,1.1,0,0,1-2.19,0Zm.34,3.49h1.49v11h-1.49Z"/><path class="cls-8" d="M402.59,71.1a3.51,3.51,0,0,1-2.33.78A2.93,2.93,0,0,1,397,68.66V62h-2V60.73h2V58.31h1.49v2.42h3.36V62h-3.36v6.59a1.77,1.77,0,0,0,1.91,2,2.46,2.46,0,0,0,1.64-.57Z"/><path class="cls-8" d="M413.64,64.93v6.84h-1.43V70.05a4.15,4.15,0,0,1-3.8,1.83c-2.5,0-4-1.3-4-3.22,0-1.7,1.09-3.12,4.26-3.12h3.51v-.68C412.15,63,411.08,62,409,62a5.59,5.59,0,0,0-3.67,1.3l-.68-1.12a7.06,7.06,0,0,1,4.5-1.49C412,60.64,413.64,62.07,413.64,64.93Zm-1.49,3.52v-1.8h-3.47c-2.14,0-2.83.84-2.83,2s1,2.08,2.79,2.08A3.54,3.54,0,0,0,412.15,68.45Z"/><path class="cls-8" d="M423.51,71.1a3.53,3.53,0,0,1-2.33.78A2.93,2.93,0,0,1,418,68.66V62h-2V60.73h2V58.31h1.49v2.42h3.36V62h-3.36v6.59a1.77,1.77,0,0,0,1.91,2A2.46,2.46,0,0,0,423,70Z"/><path class="cls-8" d="M425.88,57.24a1.09,1.09,0,0,1,1.1-1.05,1.06,1.06,0,1,1,0,2.12A1.08,1.08,0,0,1,425.88,57.24Zm.34,3.49h1.49v11h-1.49Z"/><path class="cls-8" d="M441.15,60.73l-4.91,11H434.7l-4.89-11h1.55l4.14,9.4,4.18-9.4Z"/><path class="cls-8" d="M441.82,66.25a5.62,5.62,0,1,1,5.63,5.63A5.44,5.44,0,0,1,441.82,66.25Zm9.72,0a4.11,4.11,0,1,0-4.09,4.3A4,4,0,0,0,451.54,66.25Z"/><path class="cls-8" d="M334.7,207.42a7.38,7.38,0,0,1,7.71-7.47,7.1,7.1,0,0,1,5.37,2.14l-1,1a5.84,5.84,0,0,0-4.35-1.75,6.09,6.09,0,1,0,0,12.18,5.77,5.77,0,0,0,4.35-1.76l1,1a7.16,7.16,0,0,1-5.39,2.16A7.38,7.38,0,0,1,334.7,207.42Z"/><path class="cls-8" d="M360.36,203.73v11h-1.43v-2a4.38,4.38,0,0,1-4,2.12c-2.82,0-4.66-1.58-4.66-4.75v-6.4h1.49V210c0,2.36,1.21,3.55,3.31,3.55,2.31,0,3.76-1.49,3.76-4v-5.79Z"/><path class="cls-8" d="M372.88,207.93v6.84h-1.43v-1.72a4.15,4.15,0,0,1-3.8,1.83c-2.5,0-4-1.3-4-3.22,0-1.7,1.09-3.12,4.26-3.12h3.51v-.68c0-1.89-1.07-2.91-3.13-2.91a5.64,5.64,0,0,0-3.68,1.3l-.67-1.12a7.06,7.06,0,0,1,4.5-1.49C371.26,203.64,372.88,205.07,372.88,207.93Zm-1.49,3.52v-1.8h-3.47c-2.14,0-2.83.84-2.83,2,0,1.28,1,2.08,2.79,2.08A3.54,3.54,0,0,0,371.39,211.45Z"/><path class="cls-8" d="M387.1,208.37v6.4h-1.49v-6.26c0-2.33-1.22-3.52-3.32-3.52a3.63,3.63,0,0,0-3.87,4v5.79h-1.49v-11h1.43v2a4.65,4.65,0,0,1,4.2-2.12C385.25,203.64,387.1,205.2,387.1,208.37Z"/><path class="cls-8" d="M397,214.1a3.53,3.53,0,0,1-2.33.78,2.93,2.93,0,0,1-3.24-3.22V205h-2v-1.26h2v-2.42h1.49v2.42h3.36V205h-3.36v6.59a1.78,1.78,0,0,0,1.91,2,2.46,2.46,0,0,0,1.64-.57Z"/><path class="cls-8" d="M399.34,200.24a1.08,1.08,0,0,1,1.09-1.05,1.06,1.06,0,0,1,1.09,1,1.09,1.09,0,0,1-2.18,0Zm.34,3.49h1.49v11h-1.49Z"/><path class="cls-8" d="M411.14,214.1a3.53,3.53,0,0,1-2.33.78,2.93,2.93,0,0,1-3.23-3.22V205h-2v-1.26h2v-2.42h1.49v2.42h3.36V205h-3.36v6.59a1.77,1.77,0,0,0,1.91,2,2.46,2.46,0,0,0,1.64-.57Z"/><path class="cls-8" d="M422.19,207.93v6.84h-1.43v-1.72a4.15,4.15,0,0,1-3.8,1.83c-2.5,0-4-1.3-4-3.22,0-1.7,1.09-3.12,4.26-3.12h3.51v-.68c0-1.89-1.08-2.91-3.13-2.91a5.64,5.64,0,0,0-3.68,1.3l-.67-1.12a7,7,0,0,1,4.49-1.49C420.57,203.64,422.19,205.07,422.19,207.93Zm-1.49,3.52v-1.8h-3.47c-2.14,0-2.83.84-2.83,2,0,1.28,1,2.08,2.79,2.08A3.54,3.54,0,0,0,420.7,211.45Z"/><path class="cls-8" d="M432.06,214.1a3.53,3.53,0,0,1-2.33.78,2.93,2.93,0,0,1-3.24-3.22V205h-2v-1.26h2v-2.42H428v2.42h3.36V205H428v6.59a1.78,1.78,0,0,0,1.91,2,2.46,2.46,0,0,0,1.64-.57Z"/><path class="cls-8" d="M434.43,200.24a1.08,1.08,0,0,1,1.09-1.05,1.06,1.06,0,0,1,1.09,1,1.09,1.09,0,0,1-2.18,0Zm.34,3.49h1.49v11h-1.49Z"/><path class="cls-8" d="M449.7,203.73l-4.92,11h-1.53l-4.89-11h1.55l4.14,9.4,4.18-9.4Z"/><path class="cls-8" d="M450.37,209.25a5.62,5.62,0,1,1,5.63,5.63A5.43,5.43,0,0,1,450.37,209.25Zm9.72,0a4.11,4.11,0,1,0-4.09,4.3A4,4,0,0,0,460.09,209.25Z"/><path class="cls-8" d="M601.34,129.07h6c4.7,0,7.87,3,7.87,7.35s-3.17,7.35-7.87,7.35h-6Zm5.9,13.36c3.91,0,6.43-2.48,6.43-6s-2.52-6-6.43-6H602.9v12Z"/><path class="cls-8" d="M626.71,136.93v6.84h-1.43v-1.72a4.15,4.15,0,0,1-3.8,1.83c-2.5,0-4-1.3-4-3.22,0-1.7,1.09-3.12,4.26-3.12h3.51v-.68c0-1.89-1.07-2.91-3.13-2.91a5.59,5.59,0,0,0-3.67,1.3l-.67-1.12a7,7,0,0,1,4.49-1.49C625.09,132.64,626.71,134.07,626.71,136.93Zm-1.49,3.52v-1.8h-3.47c-2.14,0-2.83.84-2.83,2,0,1.28,1,2.08,2.79,2.08A3.54,3.54,0,0,0,625.22,140.45Z"/><path class="cls-8" d="M636.58,143.1a3.53,3.53,0,0,1-2.33.78,2.93,2.93,0,0,1-3.23-3.22V134h-2v-1.26h2v-2.42h1.49v2.42h3.36V134h-3.36v6.59a1.77,1.77,0,0,0,1.91,2,2.46,2.46,0,0,0,1.64-.57Z"/><path class="cls-8" d="M637.78,138.25a5.62,5.62,0,1,1,5.63,5.63A5.43,5.43,0,0,1,637.78,138.25Zm9.72,0a4.11,4.11,0,1,0-4.09,4.3A4,4,0,0,0,647.5,138.25Z"/><path class="cls-8" d="M650.53,142.51l.67-1.17a6.68,6.68,0,0,0,3.92,1.24c2.1,0,3-.72,3-1.81,0-2.88-7.16-.61-7.16-5,0-1.8,1.56-3.15,4.37-3.15a7.51,7.51,0,0,1,3.91,1l-.65,1.2a5.71,5.71,0,0,0-3.26-1c-2,0-2.87.78-2.87,1.83,0,3,7.16.74,7.16,5,0,1.91-1.68,3.15-4.56,3.15A7.33,7.33,0,0,1,650.53,142.51Z"/><path class="cls-8" d="M668.14,129.07h6c4.7,0,7.87,3,7.87,7.35s-3.17,7.35-7.87,7.35h-6Zm5.9,13.36c3.91,0,6.43-2.48,6.43-6s-2.52-6-6.43-6H669.7v12Z"/><path class="cls-8" d="M684.84,129.24a1.08,1.08,0,0,1,1.09-1.05,1.06,1.06,0,0,1,1.09,1,1.09,1.09,0,0,1-2.18,0Zm.33,3.49h1.5v11h-1.5Z"/><path class="cls-8" d="M689.29,142.51l.67-1.17a6.68,6.68,0,0,0,3.93,1.24c2.1,0,3-.72,3-1.81,0-2.88-7.16-.61-7.16-5,0-1.8,1.55-3.15,4.37-3.15a7.45,7.45,0,0,1,3.9,1l-.65,1.2a5.66,5.66,0,0,0-3.25-1c-2,0-2.88.78-2.88,1.83,0,3,7.16.74,7.16,5,0,1.91-1.68,3.15-4.56,3.15A7.36,7.36,0,0,1,689.29,142.51Z"/><path class="cls-8" d="M700,138.25a5.44,5.44,0,0,1,5.69-5.61,4.84,4.84,0,0,1,4.33,2.19l-1.12.75a3.74,3.74,0,0,0-3.21-1.63,4.3,4.3,0,0,0,0,8.6,3.73,3.73,0,0,0,3.21-1.61l1.12.75a4.88,4.88,0,0,1-4.33,2.19A5.45,5.45,0,0,1,700,138.25Z"/><path class="cls-8" d="M718.48,132.64v1.45l-.36,0c-2.31,0-3.71,1.47-3.71,4.07v5.63h-1.49v-11h1.42v2.16C715,133.42,716.44,132.64,718.48,132.64Z"/><path class="cls-8" d="M730.68,138.71h-9.24a4.09,4.09,0,0,0,4.35,3.84,4.37,4.37,0,0,0,3.38-1.44l.84,1A5.84,5.84,0,0,1,720,138.25a5.32,5.32,0,0,1,5.4-5.61,5.27,5.27,0,0,1,5.35,5.61C730.7,138.38,730.68,138.54,730.68,138.71Zm-9.24-1.11h7.83a3.92,3.92,0,0,0-7.83,0Z"/><path class="cls-8" d="M739.56,143.1a3.51,3.51,0,0,1-2.33.78,2.93,2.93,0,0,1-3.23-3.22V134h-2v-1.26h2v-2.42h1.49v2.42h3.36V134h-3.36v6.59a1.77,1.77,0,0,0,1.91,2A2.46,2.46,0,0,0,739,142Z"/><path class="cls-8" d="M740.76,138.25a5.62,5.62,0,1,1,5.63,5.63A5.44,5.44,0,0,1,740.76,138.25Zm9.72,0a4.11,4.11,0,1,0-4.09,4.3A4,4,0,0,0,750.48,138.25Z"/><path class="cls-8" d="M753.51,142.51l.67-1.17a6.68,6.68,0,0,0,3.93,1.24c2.1,0,3-.72,3-1.81,0-2.88-7.16-.61-7.16-5,0-1.8,1.55-3.15,4.36-3.15a7.48,7.48,0,0,1,3.91,1l-.65,1.2a5.69,5.69,0,0,0-3.26-1c-2,0-2.87.78-2.87,1.83,0,3,7.16.74,7.16,5,0,1.91-1.68,3.15-4.56,3.15A7.33,7.33,0,0,1,753.51,142.51Z"/><path class="cls-8" d="M596.1,271.07h6c4.7,0,7.87,3,7.87,7.35s-3.17,7.35-7.87,7.35h-6Zm5.9,13.36c3.91,0,6.43-2.48,6.43-6s-2.52-6-6.43-6h-4.34v12Z"/><path class="cls-8" d="M621.47,278.93v6.84H620v-1.72a4.15,4.15,0,0,1-3.8,1.83c-2.5,0-4-1.3-4-3.22,0-1.7,1.09-3.12,4.26-3.12H620v-.68c0-1.89-1.07-2.91-3.13-2.91a5.59,5.59,0,0,0-3.67,1.3l-.68-1.12a7.08,7.08,0,0,1,4.5-1.49C619.85,274.64,621.47,276.07,621.47,278.93ZM620,282.45v-1.8h-3.46c-2.15,0-2.84.84-2.84,2s1,2.08,2.79,2.08A3.54,3.54,0,0,0,620,282.45Z"/><path class="cls-8" d="M631.34,285.1a3.53,3.53,0,0,1-2.33.78,2.93,2.93,0,0,1-3.23-3.22V276h-2v-1.26h2v-2.42h1.49v2.42h3.36V276h-3.36v6.59a1.77,1.77,0,0,0,1.91,2,2.46,2.46,0,0,0,1.64-.57Z"/><path class="cls-8" d="M632.54,280.25a5.62,5.62,0,1,1,5.63,5.63A5.43,5.43,0,0,1,632.54,280.25Zm9.72,0a4.11,4.11,0,1,0-4.09,4.3A4,4,0,0,0,642.26,280.25Z"/><path class="cls-8" d="M645.29,284.51l.67-1.17a6.68,6.68,0,0,0,3.92,1.24c2.1,0,3-.72,3-1.81,0-2.88-7.16-.61-7.16-5,0-1.8,1.56-3.15,4.37-3.15a7.51,7.51,0,0,1,3.91,1l-.65,1.2a5.69,5.69,0,0,0-3.26-.95c-2,0-2.87.78-2.87,1.83,0,3,7.15.74,7.15,5,0,1.91-1.67,3.15-4.55,3.15A7.33,7.33,0,0,1,645.29,284.51Z"/><path class="cls-8" d="M661.6,278.42a7.38,7.38,0,0,1,7.71-7.47,7.1,7.1,0,0,1,5.37,2.14l-1,1a5.84,5.84,0,0,0-4.35-1.75,6.09,6.09,0,1,0,0,12.18,5.77,5.77,0,0,0,4.35-1.76l1,1a7.16,7.16,0,0,1-5.39,2.16A7.38,7.38,0,0,1,661.6,278.42Z"/><path class="cls-8" d="M676.09,280.25a5.62,5.62,0,1,1,5.63,5.63A5.44,5.44,0,0,1,676.09,280.25Zm9.72,0a4.11,4.11,0,1,0-4.09,4.3A4,4,0,0,0,685.81,280.25Z"/><path class="cls-8" d="M700.53,279.37v6.4H699v-6.26c0-2.33-1.21-3.52-3.31-3.52a3.62,3.62,0,0,0-3.87,4v5.79h-1.49v-11h1.43v2a4.65,4.65,0,0,1,4.2-2.12C698.69,274.64,700.53,276.2,700.53,279.37Z"/><path class="cls-8" d="M710.41,285.1a3.53,3.53,0,0,1-2.33.78,2.93,2.93,0,0,1-3.24-3.22V276h-2v-1.26h2v-2.42h1.49v2.42h3.36V276h-3.36v6.59a1.77,1.77,0,0,0,1.91,2,2.46,2.46,0,0,0,1.64-.57Z"/><path class="cls-8" d="M712.78,271.24a1.08,1.08,0,0,1,1.09-1.05,1.06,1.06,0,0,1,1.09,1,1.09,1.09,0,0,1-2.18,0Zm.34,3.49h1.49v11h-1.49Z"/><path class="cls-8" d="M728.93,279.37v6.4h-1.49v-6.26c0-2.33-1.22-3.52-3.32-3.52a3.63,3.63,0,0,0-3.87,4v5.79h-1.49v-11h1.43v2a4.65,4.65,0,0,1,4.2-2.12C727.08,274.64,728.93,276.2,728.93,279.37Z"/><path class="cls-8" d="M742.93,274.73v11H741.5v-2a4.38,4.38,0,0,1-4,2.12c-2.82,0-4.66-1.58-4.66-4.75v-6.4h1.49V281c0,2.36,1.21,3.55,3.31,3.55,2.31,0,3.76-1.49,3.76-4v-5.79Z"/><path class="cls-8" d="M746,280.25a5.62,5.62,0,1,1,5.63,5.63A5.43,5.43,0,0,1,746,280.25Zm9.72,0a4.11,4.11,0,1,0-4.09,4.3A4,4,0,0,0,755.72,280.25Z"/><path class="cls-8" d="M758.75,284.51l.67-1.17a6.68,6.68,0,0,0,3.93,1.24c2.1,0,3-.72,3-1.81,0-2.88-7.16-.61-7.16-5,0-1.8,1.55-3.15,4.36-3.15a7.48,7.48,0,0,1,3.91,1l-.65,1.2a5.69,5.69,0,0,0-3.26-.95c-2,0-2.87.78-2.87,1.83,0,3,7.16.74,7.16,5,0,1.91-1.68,3.15-4.56,3.15A7.36,7.36,0,0,1,758.75,284.51Z"/><path class="cls-8" d="M877.83,40.38a1.58,1.58,0,0,1,3.15,0,1.58,1.58,0,1,1-3.15,0Z"/><path class="cls-8" d="M904.77,43.45c0,2.5-1.74,4.45-5.33,4.45A7.6,7.6,0,0,1,894.17,46l.74-1.2a6.33,6.33,0,0,0,4.51,1.7c2.5,0,3.82-1.22,3.82-3s-1.17-3.07-4.91-3.07H895.2l.76-7.37h8v1.35h-6.72l-.51,4.68h1.89C903.09,39.1,904.77,40.84,904.77,43.45Z"/><path class="cls-8" d="M923.34,41.37v6.4h-1.49V41.51c0-2.33-1.22-3.52-3.32-3.52a3.62,3.62,0,0,0-3.86,4v5.79h-1.5v-11h1.43v2a4.65,4.65,0,0,1,4.2-2.12C921.49,36.64,923.34,38.2,923.34,41.37Z"/><path class="cls-8" d="M927.06,33.24a1.08,1.08,0,0,1,1.09-1.05,1.06,1.06,0,0,1,1.09,1,1.09,1.09,0,0,1-2.18,0Zm.33,3.49h1.49v11h-1.49Z"/><path class="cls-8" d="M943.2,41.37v6.4h-1.49V41.51c0-2.33-1.21-3.52-3.31-3.52a3.62,3.62,0,0,0-3.87,4v5.79H933v-11h1.43v2a4.65,4.65,0,0,1,4.2-2.12C941.36,36.64,943.2,38.2,943.2,41.37Zm-7.51-6.55h-.91c.05-1.41.78-2.31,1.89-2.31,1.31,0,1.94,1.43,2.75,1.43.63,0,1.05-.51,1.1-1.31h.9c0,1.37-.78,2.27-1.89,2.27-1.3,0-1.91-1.43-2.75-1.43C936.15,33.47,935.73,34,935.69,34.82Z"/><path class="cls-8" d="M946.19,42.25a5.62,5.62,0,1,1,5.62,5.63A5.43,5.43,0,0,1,946.19,42.25Zm9.72,0a4.11,4.11,0,1,0-8.21,0,4.11,4.11,0,1,0,8.21,0Z"/><path class="cls-8" d="M958.93,46.51l.68-1.17a6.68,6.68,0,0,0,3.92,1.24c2.1,0,3-.72,3-1.81,0-2.88-7.16-.61-7.16-5,0-1.8,1.56-3.15,4.37-3.15a7.51,7.51,0,0,1,3.91,1l-.65,1.2a5.71,5.71,0,0,0-3.26-.95c-2,0-2.88.78-2.88,1.83,0,3,7.16.74,7.16,5,0,1.91-1.68,3.15-4.55,3.15A7.39,7.39,0,0,1,958.93,46.51Z"/><path class="cls-8" d="M877.83,65.58a1.58,1.58,0,0,1,3.15,0,1.58,1.58,0,1,1-3.15,0Z"/><path class="cls-8" d="M905.4,65.5c0,5-2.73,7.6-6.72,7.6a6.69,6.69,0,0,1-3.48-.8l.61-1.22a5.08,5.08,0,0,0,2.85.7c3.17,0,5.21-2,5.21-6,0-.34,0-.76-.06-1.2a4.7,4.7,0,0,1-4.49,2.52c-2.92,0-5-1.72-5-4.41s2.16-4.51,5-4.51C903.28,58.15,905.4,60.86,905.4,65.5Zm-2.07-2.92c0-1.62-1.35-3.15-3.89-3.15-2.12,0-3.59,1.24-3.59,3.19s1.43,3.17,3.7,3.17S903.33,64.41,903.33,62.58Z"/><path class="cls-8" d="M918.63,68.58c0,2.75-2.16,4.52-5,4.52-3.91,0-6-2.71-6-7.35,0-5,2.73-7.6,6.72-7.6a6.69,6.69,0,0,1,3.48.8l-.61,1.21a5.16,5.16,0,0,0-2.85-.69c-3.17,0-5.21,2-5.21,6a10.85,10.85,0,0,0,.07,1.19,4.69,4.69,0,0,1,4.49-2.52C916.6,64.17,918.63,65.9,918.63,68.58Zm-1.49,0c0-1.94-1.42-3.17-3.69-3.17s-3.78,1.38-3.78,3.21c0,1.61,1.34,3.15,3.88,3.15C915.67,71.82,917.14,70.58,917.14,68.63Z"/><path class="cls-8" d="M932.68,72.3a3.51,3.51,0,0,1-2.33.78,2.93,2.93,0,0,1-3.23-3.22V63.19h-2V61.93h2V59.51h1.49v2.42H932v1.26h-3.36v6.59a1.77,1.77,0,0,0,1.91,2,2.46,2.46,0,0,0,1.64-.57Z"/><path class="cls-8" d="M941,61.84v1.45l-.36,0c-2.31,0-3.72,1.47-3.72,4.07V73h-1.49v-11h1.43v2.16C937.51,62.62,938.92,61.84,941,61.84Z"/><path class="cls-8" d="M952,66.13V73h-1.43V71.25a4.15,4.15,0,0,1-3.8,1.83c-2.5,0-4-1.3-4-3.22,0-1.7,1.09-3.12,4.26-3.12h3.51v-.68c0-1.89-1.07-2.91-3.13-2.91a5.59,5.59,0,0,0-3.67,1.3L943,63.33a7,7,0,0,1,4.49-1.49C950.34,61.84,952,63.27,952,66.13Zm-1.49,3.52v-1.8H947c-2.15,0-2.84.84-2.84,2,0,1.28,1,2.08,2.79,2.08A3.54,3.54,0,0,0,950.47,69.65Z"/><path class="cls-8" d="M967.21,67.45a5.37,5.37,0,0,1-5.5,5.63,4.8,4.8,0,0,1-4.27-2.29V73H956V57.39h1.5V64a4.81,4.81,0,0,1,4.2-2.19A5.35,5.35,0,0,1,967.21,67.45Zm-1.49,0a4.12,4.12,0,1,0-4.12,4.3A4.06,4.06,0,0,0,965.72,67.45Z"/><path class="cls-8" d="M978.53,66.13V73H977.1V71.25a4.16,4.16,0,0,1-3.8,1.83c-2.5,0-4-1.3-4-3.22,0-1.7,1.09-3.12,4.26-3.12H977v-.68c0-1.89-1.07-2.91-3.12-2.91a5.62,5.62,0,0,0-3.68,1.3l-.67-1.12a7,7,0,0,1,4.49-1.49C976.91,61.84,978.53,63.27,978.53,66.13ZM977,69.65v-1.8h-3.46c-2.14,0-2.83.84-2.83,2,0,1.28,1,2.08,2.79,2.08A3.52,3.52,0,0,0,977,69.65Z"/><path class="cls-8" d="M978.61,76.44l.53-1.14a2.57,2.57,0,0,0,1.72.57c1.17,0,1.83-.71,1.83-2.08V61.93h1.49V73.79a3,3,0,0,1-3.24,3.36A3.66,3.66,0,0,1,978.61,76.44Zm3.74-18a1.08,1.08,0,0,1,1.09-1,1.06,1.06,0,0,1,1.09,1,1.09,1.09,0,0,1-2.18,0Z"/><path class="cls-8" d="M996.67,66.13V73h-1.43V71.25a4.15,4.15,0,0,1-3.8,1.83c-2.5,0-4-1.3-4-3.22,0-1.7,1.09-3.12,4.26-3.12h3.51v-.68c0-1.89-1.07-2.91-3.13-2.91a5.59,5.59,0,0,0-3.67,1.3l-.68-1.12a7.06,7.06,0,0,1,4.5-1.49C995.05,61.84,996.67,63.27,996.67,66.13Zm-1.49,3.52v-1.8h-3.47c-2.14,0-2.83.84-2.83,2,0,1.28,1,2.08,2.79,2.08A3.54,3.54,0,0,0,995.18,69.65Z"/><path class="cls-8" d="M1010.84,57.39V73h-1.42V70.79a4.8,4.8,0,0,1-4.27,2.29,5.62,5.62,0,0,1,0-11.24,4.81,4.81,0,0,1,4.2,2.19V57.39Zm-1.47,10.06a4.1,4.1,0,1,0-4.09,4.3A4,4,0,0,0,1009.37,67.45Z"/><path class="cls-8" d="M1013.89,67.45a5.62,5.62,0,1,1,5.63,5.63A5.43,5.43,0,0,1,1013.89,67.45Zm9.72,0a4.11,4.11,0,1,0-4.09,4.3A4,4,0,0,0,1023.61,67.45Z"/><path class="cls-8" d="M1033.73,61.84v1.45l-.35,0c-2.31,0-3.72,1.47-3.72,4.07V73h-1.49v-11h1.43v2.16C1030.29,62.62,1031.7,61.84,1033.73,61.84Z"/><path class="cls-8" d="M1045.93,67.91h-9.23a4.08,4.08,0,0,0,4.34,3.84,4.36,4.36,0,0,0,3.38-1.44l.84,1a5.83,5.83,0,0,1-10-3.82,5.38,5.38,0,1,1,10.75,0C1046,67.58,1045.93,67.74,1045.93,67.91Zm-9.23-1.11h7.83a3.92,3.92,0,0,0-7.83,0Z"/><path class="cls-8" d="M1047.47,71.71l.67-1.17a6.68,6.68,0,0,0,3.93,1.24c2.1,0,3-.72,3-1.81,0-2.88-7.16-.61-7.16-5,0-1.8,1.55-3.15,4.37-3.15a7.47,7.47,0,0,1,3.9,1l-.65,1.2a5.67,5.67,0,0,0-3.25-.94c-2,0-2.88.77-2.88,1.82,0,3,7.16.74,7.16,5,0,1.91-1.68,3.15-4.56,3.15A7.36,7.36,0,0,1,1047.47,71.71Z"/><path class="cls-8" d="M877.83,90.78a1.58,1.58,0,0,1,3.15,0,1.58,1.58,0,1,1-3.15,0Z"/><path class="cls-8" d="M904.52,94c0,2.46-1.78,4.35-5.33,4.35a7.66,7.66,0,0,1-5.29-1.89l.73-1.2a6.45,6.45,0,0,0,4.56,1.7c2.43,0,3.78-1.13,3.78-3S901.73,91,899,91h-1V89.92l4.07-5.1h-7.51V83.47H904v1.07l-4.16,5.23C903,89.94,904.52,91.6,904.52,94Z"/><path class="cls-8" d="M913.13,82.59h1.49V98.17h-1.49Z"/><path class="cls-8" d="M927.12,91.33v6.84h-1.43V96.45a4.15,4.15,0,0,1-3.8,1.83c-2.5,0-4-1.31-4-3.22,0-1.7,1.09-3.12,4.26-3.12h3.51v-.68c0-1.89-1.07-2.91-3.13-2.91a5.59,5.59,0,0,0-3.67,1.3l-.68-1.12a7.06,7.06,0,0,1,4.5-1.49C925.5,87,927.12,88.47,927.12,91.33Zm-1.49,3.52v-1.8h-3.47c-2.14,0-2.83.84-2.83,2,0,1.28,1,2.08,2.79,2.08A3.54,3.54,0,0,0,925.63,94.85Z"/><path class="cls-8" d="M942.36,92.65a5.35,5.35,0,0,1-5.5,5.63,4.84,4.84,0,0,1-4.2-2.19v6.16h-1.49V87.13h1.43v2.18A4.81,4.81,0,0,1,936.86,87,5.34,5.34,0,0,1,942.36,92.65Zm-1.49,0a4.12,4.12,0,1,0-4.11,4.3A4.06,4.06,0,0,0,940.87,92.65Z"/><path class="cls-8" d="M951.23,97.5a3.58,3.58,0,0,1-2.33.78,2.93,2.93,0,0,1-3.24-3.22V88.39h-2V87.13h2V84.71h1.49v2.42h3.36v1.26h-3.36V95a1.78,1.78,0,0,0,1.91,2,2.46,2.46,0,0,0,1.64-.57Z"/><path class="cls-8" d="M952.42,92.65a5.62,5.62,0,1,1,5.63,5.63A5.44,5.44,0,0,1,952.42,92.65Zm9.73,0a4.11,4.11,0,1,0-4.1,4.3A4,4,0,0,0,962.15,92.65Z"/><path class="cls-8" d="M977.9,92.65a5.36,5.36,0,0,1-5.51,5.63,4.81,4.81,0,0,1-4.19-2.19v6.16h-1.5V87.13h1.43v2.18A4.82,4.82,0,0,1,972.39,87,5.35,5.35,0,0,1,977.9,92.65Zm-1.49,0a4.12,4.12,0,1,0-4.12,4.3A4.07,4.07,0,0,0,976.41,92.65Z"/><path class="cls-8" d="M979.41,96.91l.67-1.17A6.68,6.68,0,0,0,984,97c2.1,0,3-.71,3-1.8,0-2.88-7.16-.61-7.16-5,0-1.8,1.55-3.15,4.36-3.15a7.48,7.48,0,0,1,3.91,1l-.65,1.2a5.69,5.69,0,0,0-3.26-1c-2,0-2.87.78-2.87,1.83,0,3,7.16.74,7.16,5,0,1.91-1.68,3.15-4.56,3.15A7.36,7.36,0,0,1,979.41,96.91Z"/><path class="cls-8" d="M877.83,328.38a1.58,1.58,0,0,1,3.15,0,1.58,1.58,0,1,1-3.15,0Z"/><path class="cls-8" d="M904.52,331.55c0,2.46-1.78,4.35-5.33,4.35A7.66,7.66,0,0,1,893.9,334l.73-1.2a6.45,6.45,0,0,0,4.56,1.7c2.43,0,3.78-1.13,3.78-3s-1.24-2.92-4-2.92h-1v-1.11l4.07-5.1h-7.51v-1.35H904v1.08l-4.16,5.22C903,327.54,904.52,329.2,904.52,331.55Z"/><path class="cls-8" d="M906.67,334.72a1.11,1.11,0,0,1,1.11-1.13,1.12,1.12,0,0,1,1.13,1.13,1.15,1.15,0,0,1-1.13,1.16A1.13,1.13,0,0,1,906.67,334.72Z"/><path class="cls-8" d="M921.34,334.43v1.34H911V334.7l6.11-6c1.66-1.64,2-2.63,2-3.64,0-1.7-1.2-2.75-3.45-2.75a5,5,0,0,0-4,1.64l-1.07-.92a6.59,6.59,0,0,1,5.21-2.1c3,0,4.87,1.51,4.87,4,0,1.4-.44,2.66-2.41,4.59l-5,4.92Z"/><path class="cls-8" d="M933.21,331.45c0,2.5-1.75,4.45-5.34,4.45A7.62,7.62,0,0,1,922.6,334l.74-1.2a6.33,6.33,0,0,0,4.51,1.7c2.5,0,3.82-1.22,3.82-3s-1.17-3.07-4.91-3.07h-3.13l.76-7.37h8v1.35h-6.72l-.5,4.68h1.89C931.53,327.1,933.21,328.84,933.21,331.45Z"/><path class="cls-8" d="M945.7,330.23l-2.6,2.39v3.15h-1.49V320.19h1.49v10.56l6.59-6h1.85l-4.72,4.51,5.16,6.53h-1.83Z"/><path class="cls-8" d="M964,324.73v9.7c0,3.8-1.86,5.52-5.52,5.52a7.7,7.7,0,0,1-5.14-1.7l.75-1.13a6.61,6.61,0,0,0,4.35,1.51c2.79,0,4.07-1.28,4.07-4v-1.41a4.94,4.94,0,0,1-4.3,2.14,5.36,5.36,0,1,1,0-10.71,5,5,0,0,1,4.37,2.21v-2.12ZM962.57,330a4.19,4.19,0,1,0-4.2,4A3.95,3.95,0,0,0,962.57,330Z"/><path class="cls-8" d="M877.83,353.58a1.58,1.58,0,0,1,3.15,0,1.58,1.58,0,1,1-3.15,0Z"/><path class="cls-8" d="M898.87,346.27V361h-1.51V347.62H893.9v-1.35Z"/><path class="cls-8" d="M902.4,359.92a1.11,1.11,0,0,1,1.12-1.13,1.13,1.13,0,0,1,1.13,1.13,1.15,1.15,0,0,1-1.13,1.16A1.14,1.14,0,0,1,902.4,359.92Z"/><path class="cls-8" d="M916.76,356.75c0,2.46-1.78,4.35-5.33,4.35a7.66,7.66,0,0,1-5.29-1.89l.74-1.2a6.4,6.4,0,0,0,4.55,1.7c2.44,0,3.78-1.13,3.78-3s-1.24-2.92-4-2.92h-1v-1.11l4.08-5.1h-7.52v-1.35h9.45v1.08L912,352.57C915.19,352.74,916.76,354.4,916.76,356.75Z"/><path class="cls-8" d="M928.82,359.63V361H918.51V359.9l6.11-6c1.66-1.64,2-2.63,2-3.63,0-1.71-1.19-2.76-3.44-2.76a5,5,0,0,0-4,1.64l-1.07-.92a6.58,6.58,0,0,1,5.21-2.1c3,0,4.87,1.51,4.87,4,0,1.4-.44,2.66-2.42,4.59l-5,4.92Z"/><path class="cls-8" d="M955.42,354.57V361h-1.49v-6.26c0-2.33-1.17-3.52-3.17-3.52-2.26,0-3.69,1.47-3.69,4V361h-1.49v-6.26c0-2.33-1.18-3.52-3.19-3.52-2.25,0-3.7,1.47-3.7,4V361H937.2v-11h1.43v2a4.46,4.46,0,0,1,4-2.1,4,4,0,0,1,3.93,2.33,4.81,4.81,0,0,1,4.36-2.33C953.66,349.84,955.42,351.4,955.42,354.57Z"/><path class="cls-8" d="M959.14,346.44a1.09,1.09,0,0,1,1.1-1.05,1.06,1.06,0,1,1,0,2.12A1.08,1.08,0,0,1,959.14,346.44Zm.34,3.49H961v11h-1.49Z"/><path class="cls-8" d="M965.13,345.39h1.49V361h-1.49Z"/><path class="cls-8" d="M970.78,345.39h1.49V361h-1.49Z"/><path class="cls-8" d="M984.76,354.13V361h-1.43v-1.72a4.15,4.15,0,0,1-3.8,1.83c-2.49,0-4-1.3-4-3.22,0-1.7,1.09-3.12,4.27-3.12h3.5v-.68c0-1.89-1.07-2.91-3.13-2.91a5.61,5.61,0,0,0-3.67,1.3l-.67-1.12a7,7,0,0,1,4.49-1.49C983.15,349.84,984.76,351.27,984.76,354.13Zm-1.49,3.52v-1.8h-3.46c-2.14,0-2.84.84-2.84,2,0,1.28,1,2.08,2.8,2.08A3.53,3.53,0,0,0,983.27,357.65Z"/><path class="cls-8" d="M987.28,359.71l.68-1.17a6.68,6.68,0,0,0,3.92,1.24c2.1,0,3-.72,3-1.81,0-2.88-7.16-.61-7.16-5,0-1.8,1.56-3.15,4.37-3.15a7.51,7.51,0,0,1,3.91,1l-.66,1.2a5.65,5.65,0,0,0-3.25-.94c-2,0-2.88.77-2.88,1.82,0,3,7.16.74,7.16,5,0,1.91-1.68,3.15-4.55,3.15A7.39,7.39,0,0,1,987.28,359.71Z"/><path class="cls-8" d="M877.83,378.78a1.58,1.58,0,0,1,3.15,0,1.58,1.58,0,1,1-3.15,0Z"/><path class="cls-8" d="M905.17,371.47v1.07L899,386.17h-1.64l6-13.35h-7.56v2.75h-1.49v-4.1Z"/><path class="cls-8" d="M906.08,385.12a1.11,1.11,0,0,1,1.11-1.13,1.12,1.12,0,0,1,1.13,1.13,1.15,1.15,0,0,1-1.13,1.16A1.13,1.13,0,0,1,906.08,385.12Z"/><path class="cls-8" d="M920.75,384.83v1.34h-10.3V385.1l6.11-6c1.65-1.64,2-2.63,2-3.64,0-1.7-1.2-2.75-3.44-2.75a5,5,0,0,0-4,1.64l-1.08-.92a6.61,6.61,0,0,1,5.21-2.1c3,0,4.87,1.51,4.87,4,0,1.4-.44,2.66-2.41,4.6l-5,4.91Z"/><path class="cls-8" d="M932.62,381.85c0,2.49-1.74,4.45-5.33,4.45a7.6,7.6,0,0,1-5.27-1.89l.73-1.2a6.38,6.38,0,0,0,4.52,1.7c2.49,0,3.82-1.22,3.82-3s-1.18-3.07-4.92-3.07h-3.12l.75-7.37h8v1.35h-6.72l-.5,4.68h1.89C930.94,377.5,932.62,379.24,932.62,381.85Z"/><path class="cls-8" d="M952.21,380.65a5.35,5.35,0,0,1-5.5,5.63,4.84,4.84,0,0,1-4.2-2.19v6.16H941V375.13h1.43v2.18a4.8,4.8,0,0,1,4.26-2.27A5.34,5.34,0,0,1,952.21,380.65Zm-1.49,0a4.12,4.12,0,1,0-4.11,4.3A4.06,4.06,0,0,0,950.72,380.65Z"/><path class="cls-8" d="M965.21,375.13v11h-1.43v-2a4.38,4.38,0,0,1-4,2.12c-2.82,0-4.67-1.58-4.67-4.75v-6.4h1.5v6.25c0,2.36,1.21,3.55,3.31,3.55,2.31,0,3.76-1.49,3.76-4v-5.79Z"/><path class="cls-8" d="M969.39,370.59h1.49v15.58h-1.49Z"/><path class="cls-8" d="M985.27,375.13v9.7c0,3.8-1.87,5.52-5.53,5.52a7.7,7.7,0,0,1-5.14-1.7l.76-1.13A6.58,6.58,0,0,0,979.7,389c2.79,0,4.07-1.28,4.07-4v-1.41a4.94,4.94,0,0,1-4.3,2.14,5.36,5.36,0,1,1,0-10.71,5,5,0,0,1,4.37,2.21v-2.12Zm-1.45,5.25a4.19,4.19,0,1,0-4.2,4.05A3.95,3.95,0,0,0,983.82,380.38Z"/><path class="cls-8" d="M997.78,379.33v6.84h-1.43v-1.72a4.15,4.15,0,0,1-3.8,1.83c-2.49,0-4-1.31-4-3.22,0-1.7,1.09-3.12,4.27-3.12h3.5v-.68c0-1.89-1.07-2.91-3.13-2.91a5.61,5.61,0,0,0-3.67,1.3l-.67-1.12a7,7,0,0,1,4.49-1.49C996.17,375,997.78,376.47,997.78,379.33Zm-1.49,3.52v-1.8h-3.46c-2.14,0-2.84.84-2.84,2,0,1.28,1,2.08,2.8,2.08A3.54,3.54,0,0,0,996.29,382.85Z"/><path class="cls-8" d="M1012,370.59v15.58h-1.43V384a4.79,4.79,0,0,1-4.26,2.29,5.62,5.62,0,0,1,0-11.24,4.84,4.84,0,0,1,4.2,2.19v-6.64Zm-1.47,10.06a4.11,4.11,0,1,0-4.1,4.3A4,4,0,0,0,1010.49,380.65Z"/><path class="cls-8" d="M1024.45,379.33v6.84H1023v-1.72a4.15,4.15,0,0,1-3.8,1.83c-2.5,0-4-1.31-4-3.22,0-1.7,1.09-3.12,4.26-3.12H1023v-.68c0-1.89-1.07-2.91-3.13-2.91a5.59,5.59,0,0,0-3.67,1.3l-.67-1.12A7,7,0,0,1,1020,375C1022.83,375,1024.45,376.47,1024.45,379.33Zm-1.49,3.52v-1.8h-3.46c-2.15,0-2.84.84-2.84,2,0,1.28,1,2.08,2.79,2.08A3.54,3.54,0,0,0,1023,382.85Z"/><path class="cls-8" d="M1027,384.91l.68-1.17a6.67,6.67,0,0,0,3.92,1.23c2.1,0,3-.71,3-1.8,0-2.88-7.16-.61-7.16-5,0-1.8,1.56-3.15,4.37-3.15a7.51,7.51,0,0,1,3.91,1l-.66,1.2a5.66,5.66,0,0,0-3.25-.95c-2,0-2.88.78-2.88,1.83,0,3,7.16.74,7.16,5,0,1.91-1.68,3.15-4.55,3.15A7.39,7.39,0,0,1,1027,384.91Z"/></g></g></svg>