<svg xmlns="http://www.w3.org/2000/svg" xmlns:xlink="http://www.w3.org/1999/xlink" viewBox="0 0 383 73"><defs><style>.cls-1{fill:url(#Degradado_sin_nombre_5);}.cls-2{isolation:isolate;}.cls-3{fill:#fdfefe;}</style><linearGradient id="Degradado_sin_nombre_5" x1="-592.45" y1="158.7" x2="-592.45" y2="157.7" gradientTransform="matrix(383, 0, 0, -73, 227098.63, 11585.35)" gradientUnits="userSpaceOnUse"><stop offset="0" stop-color="#3abbcf"/><stop offset="1" stop-color="#187d89"/></linearGradient></defs><title>Recurso 4</title><g id="Capa_2" data-name="Capa 2"><g id="Capa_1-2" data-name="Capa 1"><g id="Grupo_351" data-name="Grupo 351"><rect id="Rectángulo_115" data-name="Rectángulo 115" class="cls-1" width="383" height="73"/><g id="Beneficios" class="cls-2"><g class="cls-2"><path class="cls-3" d="M65.72,43.74c0,4.6-3.65,7.26-10.64,7.26H41.32V24.4h13c6.65,0,10.07,2.78,10.07,6.92a6.39,6.39,0,0,1-3.54,5.85A6.57,6.57,0,0,1,65.72,43.74ZM47.44,29v6.27h6.12c3,0,4.63-1.07,4.63-3.16S56.56,29,53.56,29ZM59.52,43.1c0-2.24-1.71-3.31-4.9-3.31H47.44v6.57h7.18C57.81,46.36,59.52,45.38,59.52,43.1Z"/><path class="cls-3" d="M89.88,42.45H74.42c.57,2.55,2.74,4.1,5.85,4.1a6.91,6.91,0,0,0,5.13-2L88.55,48c-1.89,2.16-4.74,3.3-8.43,3.3-7.07,0-11.66-4.44-11.66-10.52s4.67-10.52,10.9-10.52c6,0,10.64,4,10.64,10.6C90,41.31,89.92,42,89.88,42.45ZM74.34,39H84.41a5.11,5.11,0,0,0-10.07,0Z"/><path class="cls-3" d="M114.85,39.3V51h-5.93V40.21c0-3.31-1.52-4.83-4.14-4.83-2.85,0-4.9,1.75-4.9,5.51V51H94V30.56h5.67V33a9,9,0,0,1,6.76-2.69C111.2,30.26,114.85,33.07,114.85,39.3Z"/><path class="cls-3" d="M140.35,42.45H124.88c.58,2.55,2.74,4.1,5.86,4.1a6.94,6.94,0,0,0,5.13-2L139,48c-1.9,2.16-4.75,3.3-8.44,3.3-7.06,0-11.66-4.44-11.66-10.52s4.67-10.52,10.9-10.52c6,0,10.64,4,10.64,10.6C140.46,41.31,140.39,42,140.35,42.45ZM124.81,39h10.07a5.11,5.11,0,0,0-10.07,0Z"/><path class="cls-3" d="M150.91,30.14V31h5.25v4.56h-5.09V51h-5.93V35.57H142V31h3.15V30.1c0-4.59,2.81-7.6,7.9-7.6a8.4,8.4,0,0,1,4.52,1.11L156,27.9a4.1,4.1,0,0,0-2.39-.72C151.86,27.18,150.91,28.13,150.91,30.14Zm10.53-5.74a3.38,3.38,0,0,1,3.68-3.3c2.21,0,3.69,1.37,3.69,3.19a3.7,3.7,0,0,1-7.37.11Zm.72,6.16h5.93V51h-5.93Z"/><path class="cls-3" d="M172.08,40.78c0-6.16,4.75-10.52,11.4-10.52,4.29,0,7.67,1.86,9.16,5.2L188,37.93a5.1,5.1,0,0,0-4.6-2.81c-3,0-5.36,2.09-5.36,5.66s2.36,5.66,5.36,5.66a5,5,0,0,0,4.6-2.81l4.6,2.51c-1.49,3.26-4.87,5.16-9.16,5.16C176.83,51.3,172.08,46.93,172.08,40.78Z"/><path class="cls-3" d="M195.34,24.4A3.38,3.38,0,0,1,199,21.1c2.21,0,3.69,1.37,3.69,3.19a3.7,3.7,0,0,1-7.37.11Zm.72,6.16H202V51h-5.93Z"/><path class="cls-3" d="M206,40.78c0-6.16,4.75-10.52,11.24-10.52s11.21,4.36,11.21,10.52S223.72,51.3,217.22,51.3,206,46.93,206,40.78Zm16.45,0c0-3.53-2.24-5.66-5.21-5.66S212,37.25,212,40.78s2.28,5.66,5.24,5.66S222.43,44.31,222.43,40.78Z"/><path class="cls-3" d="M230.41,49.1l2-4.26a13.93,13.93,0,0,0,7.1,2c2.74,0,3.76-.72,3.76-1.86,0-3.34-12.35.08-12.35-8.09,0-3.88,3.5-6.61,9.47-6.61A16.8,16.8,0,0,1,248.23,32l-2,4.22a11.7,11.7,0,0,0-5.88-1.52c-2.66,0-3.8.83-3.8,1.9,0,3.49,12.34.11,12.34,8.17,0,3.8-3.53,6.49-9.65,6.49A17.6,17.6,0,0,1,230.41,49.1Z"/></g></g></g></g></g></svg>