<svg xmlns="http://www.w3.org/2000/svg" xmlns:xlink="http://www.w3.org/1999/xlink" viewBox="0 0 765 588.13"><defs><style>.cls-1{fill:url(#Degradado_sin_nombre_35);}.cls-2{fill:url(#Degradado_sin_nombre_27);}.cls-3{fill:url(#Degradado_sin_nombre_34);}.cls-4{fill:url(#Degradado_sin_nombre_34-2);}.cls-5{fill:url(#Degradado_sin_nombre_27-2);}.cls-6{fill:url(#Degradado_sin_nombre_27-3);}.cls-7{fill:url(#Degradado_sin_nombre_35-2);}.cls-8{fill:url(#Degradado_sin_nombre_35-3);}.cls-9{fill:url(#Degradado_sin_nombre_35-4);}.cls-10{fill:#363a3a;}.cls-11{fill:#fff;}.cls-12{fill:url(#Degradado_sin_nombre_37);}.cls-13{fill:url(#Degradado_sin_nombre_39);}.cls-14{fill:url(#Degradado_sin_nombre_24);}.cls-15{fill:url(#Degradado_sin_nombre_24-2);}.cls-16{fill:url(#Degradado_sin_nombre_24-3);}</style><linearGradient id="Degradado_sin_nombre_35" x1="382.5" y1="126.33" x2="382.5" y2="-38.75" gradientUnits="userSpaceOnUse"><stop offset="0" stop-color="#d1d1d1"/><stop offset="1" stop-color="#f0f2f1"/></linearGradient><linearGradient id="Degradado_sin_nombre_27" y1="198" x2="504" y2="198" gradientUnits="userSpaceOnUse"><stop offset="0" stop-color="#2880b5"/><stop offset="1" stop-color="#1a3356"/></linearGradient><linearGradient id="Degradado_sin_nombre_34" x1="523" y1="198" x2="765" y2="198" gradientUnits="userSpaceOnUse"><stop offset="0" stop-color="#176977"/><stop offset="1" stop-color="#3eaeab"/></linearGradient><linearGradient id="Degradado_sin_nombre_34-2" y1="333" y2="333" xlink:href="#Degradado_sin_nombre_34"/><linearGradient id="Degradado_sin_nombre_27-2" y1="333" x2="246" y2="333" xlink:href="#Degradado_sin_nombre_27"/><linearGradient id="Degradado_sin_nombre_27-3" x1="261.44" y1="333.15" x2="507.44" y2="333.15" xlink:href="#Degradado_sin_nombre_27"/><linearGradient id="Degradado_sin_nombre_35-2" x1="0.27" y1="449" x2="246.27" y2="449" xlink:href="#Degradado_sin_nombre_35"/><linearGradient id="Degradado_sin_nombre_35-3" x1="261.44" y1="449" x2="507.44" y2="449" xlink:href="#Degradado_sin_nombre_35"/><linearGradient id="Degradado_sin_nombre_35-4" x1="523" y1="449" x2="765" y2="449" xlink:href="#Degradado_sin_nombre_35"/><linearGradient id="Degradado_sin_nombre_37" x1="342" y1="162.5" x2="504" y2="162.5" gradientUnits="userSpaceOnUse"><stop offset="0" stop-color="#1a3356" stop-opacity="0"/><stop offset="0.37" stop-color="#2880b5"/></linearGradient><linearGradient id="Degradado_sin_nombre_39" x1="603" y1="162.5" x2="765" y2="162.5" gradientUnits="userSpaceOnUse"><stop offset="0" stop-color="#176977" stop-opacity="0"/><stop offset="0.43" stop-color="#4fdbd4"/></linearGradient><linearGradient id="Degradado_sin_nombre_24" x1="123.09" y1="563.59" x2="123.09" y2="499.59" gradientUnits="userSpaceOnUse"><stop offset="0" stop-color="#2b4768"/><stop offset="0.34" stop-color="#3871ce"/><stop offset="0.93" stop-color="#b7d1f7"/></linearGradient><linearGradient id="Degradado_sin_nombre_24-2" x1="384.09" y1="563.71" x2="384.09" y2="501.28" xlink:href="#Degradado_sin_nombre_24"/><linearGradient id="Degradado_sin_nombre_24-3" x1="643.09" y1="564.75" x2="643.09" y2="483.49" xlink:href="#Degradado_sin_nombre_24"/></defs><title>Recurso 55</title><g id="Capa_2" data-name="Capa 2"><g id="Capa_4" data-name="Capa 4"><rect class="cls-1" width="765" height="119" rx="7.72"/><rect class="cls-2" y="140" width="504" height="116" rx="7.72"/><rect class="cls-3" x="523" y="140" width="242" height="116" rx="7.72"/><path class="cls-4" d="M530.72,275H757.28a7.72,7.72,0,0,1,7.72,7.72V391a0,0,0,0,1,0,0H523a0,0,0,0,1,0,0V282.72A7.72,7.72,0,0,1,530.72,275Z"/><path class="cls-5" d="M7.72,275H238.28a7.72,7.72,0,0,1,7.72,7.72V391a0,0,0,0,1,0,0H0a0,0,0,0,1,0,0V282.72A7.72,7.72,0,0,1,7.72,275Z"/><path class="cls-6" d="M269.16,275.15H499.72a7.72,7.72,0,0,1,7.72,7.72V391.15a0,0,0,0,1,0,0h-246a0,0,0,0,1,0,0V282.87A7.72,7.72,0,0,1,269.16,275.15Z"/><rect class="cls-7" x="0.27" y="391" width="246" height="116"/><rect class="cls-8" x="261.44" y="391" width="246" height="116"/><rect class="cls-9" x="523" y="391" width="242" height="116"/><path class="cls-10" d="M352.83,61.75c0,2.5-1.85,3.92-5.53,3.92h-6.76V51h6.34c3.28,0,5.17,1.38,5.17,3.78a3.39,3.39,0,0,1-2.25,3.33A3.52,3.52,0,0,1,352.83,61.75ZM342.1,52.26v5.33h4.68c2.35,0,3.71-.9,3.71-2.67s-1.36-2.66-3.71-2.66Zm9.17,9.36c0-1.91-1.41-2.75-4-2.75H342.1v5.52h5.18C349.86,64.39,351.27,63.55,351.27,61.62Z"/><path class="cls-10" d="M365.68,60.61h-9.24a4.1,4.1,0,0,0,4.35,3.85A4.38,4.38,0,0,0,364.17,63l.83,1a5.4,5.4,0,0,1-4.26,1.81A5.47,5.47,0,0,1,355,60.15a5.32,5.32,0,0,1,5.39-5.6,5.26,5.26,0,0,1,5.36,5.6C365.7,60.28,365.68,60.45,365.68,60.61Zm-9.24-1.11h7.83a3.92,3.92,0,0,0-7.83,0Z"/><path class="cls-10" d="M378.91,59.27v6.4h-1.49V59.42c0-2.33-1.22-3.53-3.32-3.53a3.62,3.62,0,0,0-3.86,4v5.79h-1.49v-11h1.42v2a4.63,4.63,0,0,1,4.2-2.12C377.06,54.55,378.91,56.1,378.91,59.27Z"/><path class="cls-10" d="M392.62,60.61h-9.24a4.1,4.1,0,0,0,4.35,3.85A4.38,4.38,0,0,0,391.11,63l.84,1a5.84,5.84,0,0,1-10.06-3.82,5.32,5.32,0,0,1,5.4-5.6,5.26,5.26,0,0,1,5.35,5.6C392.64,60.28,392.62,60.45,392.62,60.61Zm-9.24-1.11h7.83a3.92,3.92,0,0,0-7.83,0Z"/><path class="cls-10" d="M399.28,50a3.48,3.48,0,0,1,2.2.69L401,51.8a2.52,2.52,0,0,0-1.64-.55c-1.28,0-1.95.71-1.95,2.08v1.3h3.4v1.26h-3.36v9.78h-1.49V55.89h-2V54.63h2V53.26A3,3,0,0,1,399.28,50Zm7.05,1.13a1.09,1.09,0,1,1-1.09-1A1.06,1.06,0,0,1,406.33,51.12Zm-1.85,3.51H406v11h-1.5Z"/><path class="cls-10" d="M409,60.15a5.44,5.44,0,0,1,5.69-5.6A4.82,4.82,0,0,1,419,56.73l-1.12.76a3.73,3.73,0,0,0-3.21-1.64,4.31,4.31,0,0,0,0,8.61,3.73,3.73,0,0,0,3.21-1.62l1.12.75a4.87,4.87,0,0,1-4.33,2.19A5.46,5.46,0,0,1,409,60.15Z"/><path class="cls-10" d="M421.62,51.14a1.1,1.1,0,1,1,1.09,1.08A1.08,1.08,0,0,1,421.62,51.14Zm.34,3.49h1.49v11H422Z"/><path class="cls-10" d="M426.49,60.15a5.62,5.62,0,1,1,5.63,5.63A5.43,5.43,0,0,1,426.49,60.15Zm9.73,0a4.11,4.11,0,1,0-4.1,4.31A4,4,0,0,0,436.22,60.15Z"/><path class="cls-10" d="M439.24,64.41l.67-1.17a6.71,6.71,0,0,0,3.93,1.24c2.1,0,3-.72,3-1.81,0-2.88-7.16-.61-7.16-5,0-1.81,1.55-3.15,4.37-3.15a7.38,7.38,0,0,1,3.9,1l-.65,1.19a5.65,5.65,0,0,0-3.25-.94c-2,0-2.88.77-2.88,1.82,0,3,7.16.74,7.16,5,0,1.91-1.68,3.15-4.56,3.15A7.36,7.36,0,0,1,439.24,64.41Z"/><path class="cls-11" d="M211.89,210.82h-5.17v-1.34h11.89v1.34h-5.17v13.35h-1.55Z"/><path class="cls-11" d="M228.5,217.33v6.84h-1.43v-1.72a4.13,4.13,0,0,1-3.8,1.83c-2.5,0-4-1.3-4-3.21,0-1.7,1.09-3.13,4.26-3.13H227v-.67c0-1.89-1.07-2.92-3.13-2.92a5.59,5.59,0,0,0-3.67,1.3l-.68-1.11a7,7,0,0,1,4.5-1.49C226.88,213.05,228.5,214.47,228.5,217.33ZM227,220.86v-1.81h-3.47c-2.14,0-2.83.84-2.83,2,0,1.29,1,2.08,2.79,2.08A3.53,3.53,0,0,0,227,220.86Z"/><path class="cls-11" d="M242.72,217.77v6.4h-1.49v-6.25c0-2.33-1.22-3.53-3.32-3.53a3.63,3.63,0,0,0-3.87,4v5.79h-1.49v-11H234v2a4.63,4.63,0,0,1,4.2-2.12C240.87,213.05,242.72,214.6,242.72,217.77Z"/><path class="cls-11" d="M257,213.13v9.7c0,3.8-1.87,5.52-5.52,5.52a7.73,7.73,0,0,1-5.15-1.7l.76-1.13a6.58,6.58,0,0,0,4.34,1.51c2.8,0,4.08-1.28,4.08-4v-1.41a5,5,0,0,1-4.31,2.14,5.35,5.35,0,1,1,0-10.7,5,5,0,0,1,4.37,2.2v-2.12Zm-1.45,5.25a4.19,4.19,0,1,0-4.2,4.05A3.95,3.95,0,0,0,255.59,218.38Z"/><path class="cls-11" d="M260.88,209.64a1.09,1.09,0,0,1,1.1-1,1.07,1.07,0,0,1,1.09,1,1.1,1.1,0,0,1-2.19,0Zm.34,3.49h1.49v11h-1.49Z"/><path class="cls-11" d="M278.06,218.65a5.36,5.36,0,0,1-5.5,5.63A4.78,4.78,0,0,1,268.3,222v2.18h-1.43V208.59h1.49v6.64a4.8,4.8,0,0,1,4.2-2.18A5.34,5.34,0,0,1,278.06,218.65Zm-1.49,0a4.12,4.12,0,1,0-4.12,4.31A4.06,4.06,0,0,0,276.57,218.65Z"/><path class="cls-11" d="M281.11,208.59h1.49v15.58h-1.49Z"/><path class="cls-11" d="M296.37,219.11h-9.24a4.1,4.1,0,0,0,4.35,3.85,4.38,4.38,0,0,0,3.38-1.45l.84,1a5.84,5.84,0,0,1-10.06-3.82,5.32,5.32,0,0,1,5.4-5.6,5.25,5.25,0,0,1,5.35,5.6C296.39,218.78,296.37,219,296.37,219.11ZM287.13,218H295a3.93,3.93,0,0,0-7.84,0Z"/><path class="cls-11" d="M82.82,324.48h6c4.7,0,7.87,3,7.87,7.35s-3.17,7.34-7.87,7.34h-6Zm5.9,13.35c3.9,0,6.42-2.48,6.42-6s-2.52-6-6.42-6H84.37v12Z"/><path class="cls-11" d="M109.46,334.11h-9.24a4.1,4.1,0,0,0,4.35,3.85,4.36,4.36,0,0,0,3.38-1.45l.84,1a5.84,5.84,0,0,1-10.06-3.82,5.32,5.32,0,0,1,5.4-5.6,5.25,5.25,0,0,1,5.35,5.6C109.48,333.78,109.46,334,109.46,334.11ZM100.22,333h7.84a3.93,3.93,0,0,0-7.84,0Z"/><path class="cls-11" d="M116.12,323.49a3.53,3.53,0,0,1,2.21.69l-.51,1.12a2.52,2.52,0,0,0-1.64-.55c-1.28,0-2,.71-2,2.08v1.3h3.4v1.26h-3.36v9.78h-1.49v-9.78h-2v-1.26h2v-1.37A3,3,0,0,1,116.12,323.49Zm7.06,1.13a1.1,1.1,0,1,1-1.1-1A1.07,1.07,0,0,1,123.18,324.62Zm-1.85,3.51h1.49v11h-1.49Z"/><path class="cls-11" d="M137.14,332.77v6.4h-1.49v-6.25c0-2.33-1.22-3.53-3.32-3.53a3.62,3.62,0,0,0-3.86,4v5.79H127v-11h1.43v2a4.63,4.63,0,0,1,4.2-2.12C135.29,328.05,137.14,329.6,137.14,332.77Z"/><path class="cls-11" d="M140.86,324.64a1.08,1.08,0,0,1,1.09-1.05,1.06,1.06,0,0,1,1.09,1,1.09,1.09,0,0,1-2.18,0Zm.34,3.49h1.49v11H141.2Z"/><path class="cls-11" d="M156.92,323.59v15.58h-1.43V337a4.78,4.78,0,0,1-4.26,2.29,5.62,5.62,0,0,1,0-11.23,4.8,4.8,0,0,1,4.2,2.18v-6.64Zm-1.47,10.06a4.11,4.11,0,1,0-4.09,4.31A4,4,0,0,0,155.45,333.65Z"/><path class="cls-11" d="M160,333.65a5.62,5.62,0,1,1,5.63,5.63A5.43,5.43,0,0,1,160,333.65Zm9.72,0A4.11,4.11,0,1,0,165.6,338,4,4,0,0,0,169.69,333.65Z"/><path class="cls-10" d="M22.66,417.48l-3.36-4.72a11.09,11.09,0,0,1-1.18.06H14.18v4.66H12.62v-14.7h5.5c3.74,0,6,1.89,6,5a4.56,4.56,0,0,1-3.36,4.62l3.59,5Zm-.08-9.66c0-2.35-1.56-3.69-4.5-3.69h-3.9v7.37h3.9C21,411.5,22.58,410.13,22.58,407.82Z"/><path class="cls-10" d="M37.11,412.42H27.87a4.08,4.08,0,0,0,4.34,3.84,4.35,4.35,0,0,0,3.39-1.45l.84,1a5.44,5.44,0,0,1-4.27,1.81A5.47,5.47,0,0,1,26.38,412a5.38,5.38,0,1,1,10.75,0C37.13,412.09,37.11,412.25,37.11,412.42Zm-9.24-1.11H35.7a3.92,3.92,0,0,0-7.83,0Z"/><path class="cls-10" d="M50.25,401.9v15.58H48.82V415.3a4.78,4.78,0,0,1-4.26,2.29,5.62,5.62,0,0,1,0-11.24,4.81,4.81,0,0,1,4.2,2.19V401.9ZM48.78,412a4.11,4.11,0,1,0-4.09,4.3A4,4,0,0,0,48.78,412Z"/><path class="cls-10" d="M64.37,406.44v11H62.94v-2a4.41,4.41,0,0,1-4,2.12c-2.81,0-4.66-1.58-4.66-4.75v-6.4H55.8v6.25c0,2.36,1.22,3.55,3.32,3.55,2.31,0,3.75-1.49,3.75-4v-5.79Z"/><path class="cls-10" d="M67.43,412a5.44,5.44,0,0,1,5.69-5.61,4.83,4.83,0,0,1,4.33,2.19l-1.12.75a3.74,3.74,0,0,0-3.21-1.63,4.3,4.3,0,0,0,0,8.6,3.73,3.73,0,0,0,3.21-1.61l1.12.75a4.87,4.87,0,0,1-4.33,2.19A5.46,5.46,0,0,1,67.43,412Z"/><path class="cls-10" d="M89.79,412.42H80.56a4.08,4.08,0,0,0,4.34,3.84,4.33,4.33,0,0,0,3.38-1.45l.84,1a5.42,5.42,0,0,1-4.26,1.81A5.47,5.47,0,0,1,79.07,412a5.38,5.38,0,1,1,10.75,0C89.82,412.09,89.79,412.25,89.79,412.42Zm-9.23-1.11h7.83a3.92,3.92,0,0,0-7.83,0Z"/><path class="cls-10" d="M107.41,416.14v1.34H97.11v-1.07l6.1-6c1.66-1.64,2-2.63,2-3.64,0-1.7-1.2-2.75-3.44-2.75a5,5,0,0,0-4,1.64l-1.07-.92a6.59,6.59,0,0,1,5.21-2.1c3,0,4.87,1.51,4.87,4,0,1.4-.44,2.66-2.41,4.59l-5,4.92Z"/><path class="cls-10" d="M127,412a5.36,5.36,0,0,1-5.51,5.63,4.81,4.81,0,0,1-4.19-2.19v6.15h-1.5V406.44h1.43v2.18a4.81,4.81,0,0,1,4.26-2.27A5.35,5.35,0,0,1,127,412Zm-1.5,0a4.12,4.12,0,1,0-4.11,4.3A4.06,4.06,0,0,0,125.49,412Z"/><path class="cls-10" d="M138.31,410.64v6.84h-1.43v-1.72a4.16,4.16,0,0,1-3.8,1.83c-2.5,0-4-1.3-4-3.22,0-1.7,1.09-3.12,4.26-3.12h3.5v-.68c0-1.89-1.07-2.91-3.12-2.91A5.64,5.64,0,0,0,130,409l-.67-1.12a7,7,0,0,1,4.49-1.49C136.69,406.35,138.31,407.78,138.31,410.64Zm-1.5,3.52v-1.8h-3.46c-2.14,0-2.83.84-2.83,2,0,1.28,1,2.08,2.79,2.08A3.52,3.52,0,0,0,136.81,414.16Z"/><path class="cls-10" d="M140.83,416.22l.67-1.17a6.68,6.68,0,0,0,3.93,1.24c2.1,0,3-.72,3-1.81,0-2.88-7.16-.61-7.16-5,0-1.8,1.55-3.15,4.36-3.15a7.51,7.51,0,0,1,3.91,1l-.65,1.2a5.69,5.69,0,0,0-3.26-.95c-2,0-2.87.78-2.87,1.83,0,3,7.16.74,7.16,5,0,1.91-1.68,3.15-4.56,3.15A7.33,7.33,0,0,1,140.83,416.22Z"/><path class="cls-10" d="M151.52,412a5.62,5.62,0,1,1,5.62,5.63A5.43,5.43,0,0,1,151.52,412Zm9.72,0a4.11,4.11,0,1,0-4.1,4.3A4,4,0,0,0,161.24,412Z"/><path class="cls-10" d="M164.26,416.22l.67-1.17a6.73,6.73,0,0,0,3.93,1.24c2.1,0,3-.72,3-1.81,0-2.88-7.16-.61-7.16-5,0-1.8,1.55-3.15,4.37-3.15a7.45,7.45,0,0,1,3.9,1l-.65,1.2a5.66,5.66,0,0,0-3.25-.95c-2,0-2.88.78-2.88,1.83,0,3,7.16.74,7.16,5,0,1.91-1.68,3.15-4.55,3.15A7.39,7.39,0,0,1,164.26,416.22Z"/><path class="cls-10" d="M191.18,412.42H182a4.08,4.08,0,0,0,4.34,3.84,4.35,4.35,0,0,0,3.38-1.45l.84,1A5.84,5.84,0,0,1,180.45,412a5.32,5.32,0,0,1,5.4-5.61A5.26,5.26,0,0,1,191.2,412C191.2,412.09,191.18,412.25,191.18,412.42ZM182,411.31h7.83a3.92,3.92,0,0,0-7.83,0Z"/><path class="cls-10" d="M204.41,411.08v6.4h-1.49v-6.26c0-2.33-1.22-3.52-3.32-3.52a3.62,3.62,0,0,0-3.86,4v5.79h-1.49v-11h1.43v2a4.65,4.65,0,0,1,4.2-2.12C202.56,406.35,204.41,407.91,204.41,411.08Z"/><path class="cls-10" d="M21.92,437.62H12.69A4.08,4.08,0,0,0,17,441.46,4.36,4.36,0,0,0,20.41,440l.84,1A5.42,5.42,0,0,1,17,442.79a5.47,5.47,0,0,1-5.79-5.63,5.31,5.31,0,0,1,5.39-5.61A5.27,5.27,0,0,1,22,437.16C22,437.29,21.92,437.45,21.92,437.62Zm-9.23-1.11h7.83a3.92,3.92,0,0,0-7.83,0Z"/><path class="cls-10" d="M25,427.1h1.49v15.58H25Z"/><path class="cls-10" d="M47.33,437.16a5.35,5.35,0,0,1-5.5,5.63,4.84,4.84,0,0,1-4.2-2.19v6.15H36.14V431.64h1.43v2.18a4.81,4.81,0,0,1,4.26-2.27A5.34,5.34,0,0,1,47.33,437.16Zm-1.49,0a4.12,4.12,0,1,0-4.11,4.3A4.06,4.06,0,0,0,45.84,437.16Z"/><path class="cls-10" d="M55.94,431.55V433l-.35,0c-2.31,0-3.72,1.47-3.72,4.07v5.63H50.38v-11h1.43v2.16C52.5,432.33,53.91,431.55,55.94,431.55Z"/><path class="cls-10" d="M57.42,437.16A5.62,5.62,0,1,1,63,442.79,5.43,5.43,0,0,1,57.42,437.16Zm9.72,0a4.11,4.11,0,1,0-4.1,4.3A4,4,0,0,0,67.14,437.16Z"/><path class="cls-10" d="M70.58,437.16a5.44,5.44,0,0,1,5.69-5.61,4.83,4.83,0,0,1,4.33,2.19l-1.11.75a3.77,3.77,0,0,0-3.22-1.63,4.3,4.3,0,0,0,0,8.6,3.76,3.76,0,0,0,3.22-1.61l1.11.75a4.87,4.87,0,0,1-4.33,2.19A5.46,5.46,0,0,1,70.58,437.16Z"/><path class="cls-10" d="M93,437.62H83.71a4.08,4.08,0,0,0,4.34,3.84A4.36,4.36,0,0,0,91.43,440l.84,1a5.83,5.83,0,0,1-10-3.82,5.38,5.38,0,1,1,10.75,0C93,437.29,93,437.45,93,437.62Zm-9.24-1.11h7.83a3.92,3.92,0,0,0-7.83,0Z"/><path class="cls-10" d="M94.48,441.42l.67-1.17a6.71,6.71,0,0,0,3.93,1.23c2.1,0,3-.71,3-1.8,0-2.88-7.16-.61-7.16-5,0-1.8,1.55-3.15,4.37-3.15a7.47,7.47,0,0,1,3.9,1l-.65,1.2a5.66,5.66,0,0,0-3.25-.95c-2,0-2.88.78-2.88,1.83,0,3,7.16.74,7.16,5,0,1.91-1.68,3.15-4.56,3.15A7.36,7.36,0,0,1,94.48,441.42Z"/><path class="cls-10" d="M105.17,437.16a5.62,5.62,0,1,1,5.63,5.63A5.43,5.43,0,0,1,105.17,437.16Zm9.72,0a4.11,4.11,0,1,0-4.09,4.3A4,4,0,0,0,114.89,437.16Z"/><path class="cls-10" d="M135,427.1v15.58H133.6V440.5a4.78,4.78,0,0,1-4.26,2.29,5.62,5.62,0,0,1,0-11.24,4.84,4.84,0,0,1,4.2,2.19V427.1Zm-1.47,10.06a4.11,4.11,0,1,0-4.1,4.3A4,4,0,0,0,133.56,437.16Z"/><path class="cls-10" d="M148.8,437.62h-9.23a4.08,4.08,0,0,0,4.34,3.84,4.36,4.36,0,0,0,3.38-1.44l.84,1a5.83,5.83,0,0,1-10-3.82,5.38,5.38,0,1,1,10.75,0C148.83,437.29,148.8,437.45,148.8,437.62Zm-9.23-1.11h7.83a3.92,3.92,0,0,0-7.83,0Z"/><path class="cls-10" d="M20.64,461v6.84H19.22v-1.72a4.17,4.17,0,0,1-3.8,1.83c-2.5,0-4-1.3-4-3.22,0-1.7,1.1-3.12,4.27-3.12h3.5V461c0-1.89-1.07-2.91-3.13-2.91a5.61,5.61,0,0,0-3.67,1.3l-.67-1.12a7,7,0,0,1,4.49-1.49C19,456.75,20.64,458.18,20.64,461Zm-1.49,3.52v-1.8H15.69c-2.14,0-2.84.84-2.84,2s1,2.08,2.8,2.08A3.53,3.53,0,0,0,19.15,464.56Z"/><path class="cls-10" d="M35.89,462.36a5.35,5.35,0,0,1-5.5,5.63,4.81,4.81,0,0,1-4.2-2.19V472H24.7V456.84h1.42V459a4.83,4.83,0,0,1,4.27-2.27A5.34,5.34,0,0,1,35.89,462.36Zm-1.49,0a4.12,4.12,0,1,0-4.12,4.3A4.07,4.07,0,0,0,34.4,462.36Z"/><path class="cls-10" d="M44.5,456.75v1.45l-.36,0c-2.31,0-3.71,1.47-3.71,4.07v5.63H38.94v-11h1.42V459C41.06,457.53,42.46,456.75,44.5,456.75Z"/><path class="cls-10" d="M46,462.36A5.62,5.62,0,1,1,51.6,468,5.43,5.43,0,0,1,46,462.36Zm9.72,0a4.11,4.11,0,1,0-4.09,4.3A4,4,0,0,0,55.69,462.36Z"/><path class="cls-10" d="M71.44,462.36a5.36,5.36,0,0,1-5.5,5.63,4.78,4.78,0,0,1-4.26-2.29v2.18H60.25V452.3h1.49v6.64a4.84,4.84,0,0,1,4.2-2.19A5.34,5.34,0,0,1,71.44,462.36Zm-1.49,0a4.12,4.12,0,1,0-4.11,4.3A4,4,0,0,0,70,462.36Z"/><path class="cls-10" d="M82.76,461v6.84H81.33v-1.72a4.15,4.15,0,0,1-3.8,1.83c-2.49,0-4-1.3-4-3.22,0-1.7,1.09-3.12,4.26-3.12h3.51V461c0-1.89-1.07-2.91-3.13-2.91a5.59,5.59,0,0,0-3.67,1.3l-.67-1.12a7,7,0,0,1,4.49-1.49C81.14,456.75,82.76,458.18,82.76,461Zm-1.49,3.52v-1.8H77.81c-2.14,0-2.84.84-2.84,2s1,2.08,2.79,2.08A3.54,3.54,0,0,0,81.27,464.56Z"/><path class="cls-10" d="M85.75,462.36a5.44,5.44,0,0,1,5.69-5.61,4.82,4.82,0,0,1,4.32,2.19l-1.11.75a3.76,3.76,0,0,0-3.21-1.63,4.3,4.3,0,0,0,0,8.6,3.74,3.74,0,0,0,3.21-1.61l1.11.75A4.87,4.87,0,0,1,91.44,468,5.45,5.45,0,0,1,85.75,462.36Z"/><path class="cls-10" d="M98.34,453.35a1.09,1.09,0,0,1,1.1-1.05,1.06,1.06,0,1,1,0,2.12A1.08,1.08,0,0,1,98.34,453.35Zm.34,3.49h1.49v11H98.68Z"/><path class="cls-10" d="M103.22,462.36a5.62,5.62,0,1,1,5.62,5.63A5.43,5.43,0,0,1,103.22,462.36Zm9.72,0a4.11,4.11,0,1,0-4.1,4.3A4,4,0,0,0,112.94,462.36Zm-2.61-9.83h2l-3.4,2.61h-1.47Z"/><path class="cls-10" d="M127.66,461.48v6.4h-1.49v-6.26c0-2.33-1.22-3.52-3.32-3.52a3.62,3.62,0,0,0-3.86,4v5.79H117.5v-11h1.42v2a4.64,4.64,0,0,1,4.2-2.13C125.81,456.75,127.66,458.31,127.66,461.48Z"/><path class="cls-10" d="M147.29,452.3v15.58h-1.42V465.7A4.8,4.8,0,0,1,141.6,468a5.62,5.62,0,0,1,0-11.24,4.81,4.81,0,0,1,4.2,2.19V452.3Zm-1.47,10.06a4.11,4.11,0,1,0-4.09,4.3A4,4,0,0,0,145.82,462.36Z"/><path class="cls-10" d="M161.07,462.82h-9.24a4.09,4.09,0,0,0,4.35,3.84,4.35,4.35,0,0,0,3.38-1.45l.84,1a5.84,5.84,0,0,1-10.06-3.82,5.32,5.32,0,0,1,5.4-5.61,5.27,5.27,0,0,1,5.35,5.61C161.09,462.49,161.07,462.65,161.07,462.82Zm-9.24-1.11h7.83a3.92,3.92,0,0,0-7.83,0Z"/><path class="cls-10" d="M23.5,487.56a5.35,5.35,0,0,1-5.5,5.63A4.81,4.81,0,0,1,13.8,491v6.15H12.31V482h1.43v2.18A4.8,4.8,0,0,1,18,482,5.34,5.34,0,0,1,23.5,487.56Zm-1.49,0a4.12,4.12,0,1,0-4.12,4.3A4.08,4.08,0,0,0,22,487.56Z"/><path class="cls-10" d="M32.11,482v1.45l-.36,0c-2.31,0-3.71,1.47-3.71,4.07v5.63H26.55V482H28v2.16C28.67,482.73,30.07,482,32.11,482Z"/><path class="cls-10" d="M44.31,488H35.07a4.09,4.09,0,0,0,4.35,3.84,4.35,4.35,0,0,0,3.38-1.45l.84,1a5.43,5.43,0,0,1-4.26,1.81,5.48,5.48,0,0,1-5.8-5.63A5.32,5.32,0,0,1,39,482a5.27,5.27,0,0,1,5.35,5.61C44.33,487.69,44.31,487.85,44.31,488Zm-9.24-1.11H42.9a3.92,3.92,0,0,0-7.83,0Zm4-6.57H37.61l2.88-2.61h2Z"/><path class="cls-10" d="M45.84,491.82l.68-1.17a6.67,6.67,0,0,0,3.92,1.23c2.1,0,3-.71,3-1.8,0-2.88-7.16-.61-7.16-5,0-1.8,1.56-3.15,4.37-3.15a7.51,7.51,0,0,1,3.91,1l-.65,1.2a5.71,5.71,0,0,0-3.26-.95c-2,0-2.88.78-2.88,1.83,0,3,7.16.73,7.16,5,0,1.91-1.68,3.15-4.55,3.15A7.39,7.39,0,0,1,45.84,491.82Z"/><path class="cls-10" d="M63.46,492.41a3.56,3.56,0,0,1-2.33.78A2.93,2.93,0,0,1,57.9,490V483.3h-2V482h2v-2.42h1.49V482h3.36v1.26H59.39v6.59a1.77,1.77,0,0,0,1.91,2,2.46,2.46,0,0,0,1.64-.57Z"/><path class="cls-10" d="M74.51,486.24v6.84H73.08v-1.72a4.15,4.15,0,0,1-3.8,1.83c-2.5,0-4-1.31-4-3.22,0-1.7,1.09-3.12,4.26-3.12H73v-.68c0-1.89-1.07-2.92-3.13-2.92a5.65,5.65,0,0,0-3.68,1.31l-.67-1.12A7.06,7.06,0,0,1,70,482C72.89,482,74.51,483.38,74.51,486.24ZM73,489.76V488H69.55c-2.14,0-2.83.84-2.83,2s1,2.08,2.79,2.08A3.54,3.54,0,0,0,73,489.76Z"/><path class="cls-10" d="M96.79,486.68v6.4H95.3v-6.26c0-2.33-1.18-3.52-3.18-3.52-2.26,0-3.69,1.47-3.69,4v5.79H86.94v-6.26c0-2.33-1.18-3.52-3.19-3.52-2.25,0-3.7,1.47-3.7,4v5.79H78.56V482H80v2A4.47,4.47,0,0,1,84,482,4,4,0,0,1,88,484.28,4.83,4.83,0,0,1,92.34,482C95,482,96.79,483.51,96.79,486.68Z"/><path class="cls-10" d="M99.77,487.56a5.62,5.62,0,1,1,5.63,5.63A5.44,5.44,0,0,1,99.77,487.56Zm9.72,0a4.11,4.11,0,1,0-4.09,4.3A4,4,0,0,0,109.49,487.56Z"/><path class="cls-10" d="M284.62,402.78h1.56v14.7h-1.56Z"/><path class="cls-10" d="M300.81,411.08v6.4h-1.49v-6.26c0-2.33-1.22-3.52-3.32-3.52a3.62,3.62,0,0,0-3.86,4v5.79h-1.49v-11h1.43v2a4.65,4.65,0,0,1,4.2-2.12C299,406.35,300.81,407.91,300.81,411.08Z"/><path class="cls-10" d="M303.8,412a5.44,5.44,0,0,1,5.69-5.61,4.82,4.82,0,0,1,4.32,2.19l-1.11.75a3.76,3.76,0,0,0-3.21-1.63,4.3,4.3,0,0,0,0,8.6,3.74,3.74,0,0,0,3.21-1.61l1.11.75a4.87,4.87,0,0,1-4.32,2.19A5.45,5.45,0,0,1,303.8,412Z"/><path class="cls-10" d="M322.29,406.35v1.45l-.35,0c-2.31,0-3.72,1.47-3.72,4.07v5.63h-1.49v-11h1.43v2.16C318.85,407.13,320.26,406.35,322.29,406.35Z"/><path class="cls-10" d="M334.5,412.42h-9.24a4.08,4.08,0,0,0,4.34,3.84,4.33,4.33,0,0,0,3.38-1.45l.84,1a5.42,5.42,0,0,1-4.26,1.81,5.47,5.47,0,0,1-5.79-5.63,5.38,5.38,0,1,1,10.75,0C334.52,412.09,334.5,412.25,334.5,412.42Zm-9.24-1.11h7.83a3.92,3.92,0,0,0-7.83,0Z"/><path class="cls-10" d="M355.79,411.08v6.4H354.3v-6.26c0-2.33-1.18-3.52-3.17-3.52-2.27,0-3.7,1.47-3.7,4v5.79h-1.49v-6.26c0-2.33-1.18-3.52-3.19-3.52-2.25,0-3.7,1.47-3.7,4v5.79h-1.49v-11H339v2a4.48,4.48,0,0,1,4.05-2.1,4,4,0,0,1,3.93,2.33,4.83,4.83,0,0,1,4.37-2.33C354,406.35,355.79,407.91,355.79,411.08Z"/><path class="cls-10" d="M369.5,412.42h-9.24a4.09,4.09,0,0,0,4.35,3.84,4.35,4.35,0,0,0,3.38-1.45l.84,1A5.84,5.84,0,0,1,358.77,412a5.32,5.32,0,0,1,5.4-5.61,5.26,5.26,0,0,1,5.35,5.61C369.52,412.09,369.5,412.25,369.5,412.42Zm-9.24-1.11h7.84a3.93,3.93,0,0,0-7.84,0Z"/><path class="cls-10" d="M382.73,411.08v6.4h-1.49v-6.26c0-2.33-1.22-3.52-3.32-3.52a3.62,3.62,0,0,0-3.86,4v5.79h-1.49v-11H374v2a4.64,4.64,0,0,1,4.2-2.12C380.88,406.35,382.73,407.91,382.73,411.08Z"/><path class="cls-10" d="M392.6,416.81a3.58,3.58,0,0,1-2.33.78,2.93,2.93,0,0,1-3.23-3.22V407.7h-2v-1.26h2V404h1.49v2.42h3.36v1.26h-3.36v6.59a1.77,1.77,0,0,0,1.91,2,2.46,2.46,0,0,0,1.64-.57Z"/><path class="cls-10" d="M403.65,410.64v6.84h-1.43v-1.72a4.15,4.15,0,0,1-3.8,1.83c-2.5,0-4-1.3-4-3.22,0-1.7,1.09-3.12,4.26-3.12h3.51v-.68c0-1.89-1.07-2.91-3.13-2.91a5.64,5.64,0,0,0-3.68,1.3l-.67-1.12a7,7,0,0,1,4.5-1.49C402,406.35,403.65,407.78,403.65,410.64Zm-1.49,3.52v-1.8h-3.47c-2.14,0-2.83.84-2.83,2,0,1.28,1,2.08,2.79,2.08A3.54,3.54,0,0,0,402.16,414.16Z"/><path class="cls-10" d="M413.2,401.9h1.49v15.58H413.2Z"/><path class="cls-10" d="M427.19,410.64v6.84h-1.43v-1.72a4.15,4.15,0,0,1-3.8,1.83c-2.5,0-4-1.3-4-3.22,0-1.7,1.09-3.12,4.26-3.12h3.51v-.68c0-1.89-1.07-2.91-3.13-2.91a5.64,5.64,0,0,0-3.68,1.3l-.67-1.12a7.06,7.06,0,0,1,4.5-1.49C425.57,406.35,427.19,407.78,427.19,410.64Zm-1.49,3.52v-1.8h-3.47c-2.14,0-2.83.84-2.83,2,0,1.28,1,2.08,2.79,2.08A3.54,3.54,0,0,0,425.7,414.16Z"/><path class="cls-10" d="M429.71,416.22l.67-1.17a6.68,6.68,0,0,0,3.93,1.24c2.1,0,3-.72,3-1.81,0-2.88-7.16-.61-7.16-5,0-1.8,1.55-3.15,4.37-3.15a7.47,7.47,0,0,1,3.9,1l-.65,1.2a5.68,5.68,0,0,0-3.25-.95c-2,0-2.88.78-2.88,1.83,0,3,7.16.74,7.16,5,0,1.91-1.68,3.15-4.56,3.15A7.36,7.36,0,0,1,429.71,416.22Z"/><path class="cls-10" d="M293.59,431.64l-4.91,11h-1.54l-4.89-11h1.55l4.14,9.4,4.18-9.4Z"/><path class="cls-10" d="M305,437.62h-9.24a4.09,4.09,0,0,0,4.35,3.84,4.37,4.37,0,0,0,3.38-1.44l.84,1a5.84,5.84,0,0,1-10.06-3.82,5.32,5.32,0,0,1,5.4-5.61,5.26,5.26,0,0,1,5.35,5.61C305,437.29,305,437.45,305,437.62Zm-9.24-1.11h7.83a3.92,3.92,0,0,0-7.83,0Z"/><path class="cls-10" d="M318.22,436.28v6.4h-1.49v-6.26c0-2.33-1.22-3.52-3.32-3.52a3.62,3.62,0,0,0-3.86,4v5.79h-1.49v-11h1.43v2a4.65,4.65,0,0,1,4.2-2.12C316.37,431.55,318.22,433.11,318.22,436.28Z"/><path class="cls-10" d="M328.09,442a3.53,3.53,0,0,1-2.33.78,2.93,2.93,0,0,1-3.23-3.22V432.9h-2v-1.26h2v-2.42H324v2.42h3.36v1.26H324v6.59a1.77,1.77,0,0,0,1.91,2,2.46,2.46,0,0,0,1.64-.57Z"/><path class="cls-10" d="M339.14,435.84v6.84h-1.43V441a4.15,4.15,0,0,1-3.8,1.83c-2.5,0-4-1.31-4-3.22,0-1.7,1.09-3.12,4.26-3.12h3.51v-.68c0-1.89-1.07-2.91-3.13-2.91a5.64,5.64,0,0,0-3.68,1.3l-.67-1.12a7,7,0,0,1,4.49-1.49C337.52,431.55,339.14,433,339.14,435.84Zm-1.49,3.52v-1.8h-3.47c-2.14,0-2.83.84-2.83,2,0,1.28,1,2.08,2.79,2.08A3.54,3.54,0,0,0,337.65,439.36Z"/><path class="cls-10" d="M341.66,441.42l.67-1.17a6.68,6.68,0,0,0,3.93,1.23c2.1,0,3-.71,3-1.8,0-2.88-7.16-.61-7.16-5,0-1.8,1.55-3.15,4.36-3.15a7.48,7.48,0,0,1,3.91,1l-.65,1.2a5.69,5.69,0,0,0-3.26-.95c-2,0-2.87.78-2.87,1.83,0,3,7.16.74,7.16,5,0,1.91-1.68,3.15-4.56,3.15A7.33,7.33,0,0,1,341.66,441.42Z"/><path class="cls-10" d="M294.66,467.88l-3.36-4.72a11.09,11.09,0,0,1-1.18.06h-3.94v4.66h-1.56v-14.7h5.5c3.74,0,6,1.89,6,5a4.56,4.56,0,0,1-3.36,4.62l3.59,5Zm-.08-9.66c0-2.35-1.56-3.69-4.5-3.69h-3.9v7.37h3.9C293,461.9,294.58,460.53,294.58,458.22Z"/><path class="cls-10" d="M307.72,461v6.84h-1.43v-1.72a4.15,4.15,0,0,1-3.8,1.83c-2.49,0-4-1.3-4-3.22,0-1.7,1.09-3.12,4.26-3.12h3.51V461c0-1.89-1.07-2.91-3.13-2.91a5.59,5.59,0,0,0-3.67,1.3l-.67-1.12a7,7,0,0,1,4.49-1.49C306.11,456.75,307.72,458.18,307.72,461Zm-1.49,3.52v-1.8h-3.46c-2.15,0-2.84.84-2.84,2s1,2.08,2.79,2.08A3.54,3.54,0,0,0,306.23,464.56Z"/><path class="cls-10" d="M323,462.36a5.35,5.35,0,0,1-5.5,5.63,4.81,4.81,0,0,1-4.2-2.19V472h-1.49V456.84h1.42V459a4.83,4.83,0,0,1,4.27-2.27A5.34,5.34,0,0,1,323,462.36Zm-1.49,0a4.12,4.12,0,1,0-4.12,4.3A4.07,4.07,0,0,0,321.48,462.36Z"/><path class="cls-10" d="M325.68,453.35a1.08,1.08,0,0,1,1.09-1.05,1.06,1.06,0,0,1,1.09,1,1.09,1.09,0,0,1-2.18,0Zm.33,3.49h1.49v11H326Z"/><path class="cls-10" d="M341.74,452.3v15.58h-1.43V465.7a4.78,4.78,0,0,1-4.26,2.29,5.62,5.62,0,0,1,0-11.24,4.83,4.83,0,0,1,4.2,2.19V452.3Zm-1.47,10.06a4.11,4.11,0,1,0-4.09,4.3A4,4,0,0,0,340.27,462.36Z"/><path class="cls-10" d="M355.52,462.82h-9.24a4.08,4.08,0,0,0,4.34,3.84,4.35,4.35,0,0,0,3.39-1.45l.84,1a5.84,5.84,0,0,1-10.06-3.82,5.38,5.38,0,1,1,10.75,0C355.54,462.49,355.52,462.65,355.52,462.82Zm-9.24-1.11h7.83a3.92,3.92,0,0,0-7.83,0Z"/><path class="cls-10" d="M366.27,466.64v1.24h-9v-1l7-8.79h-6.82v-1.26h8.73v1l-6.95,8.82Z"/><path class="cls-10" d="M384,456.84l-5.52,12.37c-.92,2.16-2.1,2.85-3.67,2.85a3.79,3.79,0,0,1-2.69-1l.69-1.11a2.76,2.76,0,0,0,2,.84c1,0,1.66-.46,2.29-1.85l.48-1.07-4.94-11h1.56l4.16,9.38,4.15-9.38Z"/><path class="cls-10" d="M393.3,455.54v1.3h3.4v1.26h-3.36v9.78h-1.49V458.1h-2v-1.26h2v-1.37a3,3,0,0,1,3.34-3.27,3.48,3.48,0,0,1,2.2.69l-.5,1.11a2.57,2.57,0,0,0-1.64-.54C394,453.46,393.3,454.17,393.3,455.54Z"/><path class="cls-10" d="M406.84,461v6.84h-1.43v-1.72a4.15,4.15,0,0,1-3.8,1.83c-2.5,0-4-1.3-4-3.22,0-1.7,1.09-3.12,4.26-3.12h3.51V461c0-1.89-1.07-2.91-3.13-2.91a5.59,5.59,0,0,0-3.67,1.3l-.67-1.12a7,7,0,0,1,4.49-1.49C405.22,456.75,406.84,458.18,406.84,461Zm-1.49,3.52v-1.8h-3.46c-2.15,0-2.84.84-2.84,2s1,2.08,2.79,2.08A3.54,3.54,0,0,0,405.35,464.56Z"/><path class="cls-10" d="M409.82,462.36a5.44,5.44,0,0,1,5.69-5.61,4.83,4.83,0,0,1,4.33,2.19l-1.11.75a3.77,3.77,0,0,0-3.22-1.63,4.3,4.3,0,0,0,0,8.6,3.76,3.76,0,0,0,3.22-1.61l1.11.75a4.87,4.87,0,0,1-4.33,2.19A5.46,5.46,0,0,1,409.82,462.36Z"/><path class="cls-10" d="M422.42,453.35a1.09,1.09,0,0,1,1.1-1.05,1.06,1.06,0,0,1,1.09,1,1.1,1.1,0,0,1-2.19,0Zm.34,3.49h1.49v11h-1.49Z"/><path class="cls-10" d="M428.41,452.3h1.49v15.58h-1.49Z"/><path class="cls-10" d="M433.72,453.35a1.08,1.08,0,0,1,1.09-1.05,1.06,1.06,0,0,1,1.09,1,1.09,1.09,0,0,1-2.18,0Zm.34,3.49h1.49v11h-1.49Z"/><path class="cls-10" d="M449.79,452.3v15.58h-1.43V465.7a4.8,4.8,0,0,1-4.27,2.29,5.62,5.62,0,0,1,0-11.24,4.81,4.81,0,0,1,4.2,2.19V452.3Zm-1.48,10.06a4.1,4.1,0,1,0-4.09,4.3A4,4,0,0,0,448.31,462.36Z"/><path class="cls-10" d="M462.28,461v6.84h-1.43v-1.72a4.15,4.15,0,0,1-3.8,1.83c-2.5,0-4-1.3-4-3.22,0-1.7,1.09-3.12,4.26-3.12h3.51V461c0-1.89-1.07-2.91-3.13-2.91a5.59,5.59,0,0,0-3.67,1.3l-.68-1.12a7.06,7.06,0,0,1,4.5-1.49C460.66,456.75,462.28,458.18,462.28,461Zm-1.49,3.52v-1.8h-3.47c-2.14,0-2.83.84-2.83,2s1,2.08,2.79,2.08A3.54,3.54,0,0,0,460.79,464.56Z"/><path class="cls-10" d="M476.46,452.3v15.58H475V465.7a4.8,4.8,0,0,1-4.27,2.29,5.62,5.62,0,0,1,0-11.24,4.81,4.81,0,0,1,4.2,2.19V452.3ZM475,462.36a4.1,4.1,0,1,0-4.09,4.3A4,4,0,0,0,475,462.36Z"/><path class="cls-10" d="M293.92,488h-9.23a4.08,4.08,0,0,0,4.34,3.84,4.33,4.33,0,0,0,3.38-1.45l.84,1a5.42,5.42,0,0,1-4.26,1.81,5.47,5.47,0,0,1-5.79-5.63,5.38,5.38,0,1,1,10.75,0C294,487.69,293.92,487.85,293.92,488Zm-9.23-1.11h7.83a3.92,3.92,0,0,0-7.83,0Z"/><path class="cls-10" d="M307.15,486.68v6.4h-1.49v-6.26c0-2.33-1.21-3.52-3.31-3.52a3.62,3.62,0,0,0-3.87,4v5.79H297V482h1.43v2a4.65,4.65,0,0,1,4.2-2.12C305.31,482,307.15,483.51,307.15,486.68Z"/><path class="cls-10" d="M326.33,488h-9.24a4.08,4.08,0,0,0,4.34,3.84,4.33,4.33,0,0,0,3.38-1.45l.84,1a5.42,5.42,0,0,1-4.26,1.81,5.47,5.47,0,0,1-5.79-5.63,5.38,5.38,0,1,1,10.75,0C326.35,487.69,326.33,487.85,326.33,488Zm-9.24-1.11h7.83a3.92,3.92,0,0,0-7.83,0Z"/><path class="cls-10" d="M329.39,477.5h1.49v15.58h-1.49Z"/><path class="cls-10" d="M346.11,482v1.45l-.36,0c-2.31,0-3.71,1.47-3.71,4.07v5.63h-1.5V482H342v2.16C342.67,482.73,344.07,482,346.11,482Z"/><path class="cls-10" d="M358.31,488h-9.24a4.09,4.09,0,0,0,4.35,3.84,4.35,4.35,0,0,0,3.38-1.45l.84,1a5.84,5.84,0,0,1-10.06-3.82A5.32,5.32,0,0,1,353,482a5.27,5.27,0,0,1,5.35,5.61C358.33,487.69,358.31,487.85,358.31,488Zm-9.24-1.11h7.83a3.92,3.92,0,0,0-7.83,0Z"/><path class="cls-10" d="M372.57,487.56a5.35,5.35,0,0,1-5.5,5.63,4.81,4.81,0,0,1-4.2-2.19v6.15h-1.49V482h1.42v2.18a4.83,4.83,0,0,1,4.27-2.27A5.34,5.34,0,0,1,372.57,487.56Zm-1.49,0a4.12,4.12,0,1,0-4.12,4.3A4.08,4.08,0,0,0,371.08,487.56Z"/><path class="cls-10" d="M374.5,487.56a5.62,5.62,0,1,1,5.63,5.63A5.44,5.44,0,0,1,374.5,487.56Zm9.72,0a4.11,4.11,0,1,0-4.09,4.3A4,4,0,0,0,384.22,487.56Z"/><path class="cls-10" d="M394.35,482v1.45l-.36,0c-2.31,0-3.72,1.47-3.72,4.07v5.63h-1.49V482h1.43v2.16C390.9,482.73,392.31,482,394.35,482Z"/><path class="cls-10" d="M403.33,492.41a3.56,3.56,0,0,1-2.33.78,2.93,2.93,0,0,1-3.23-3.22V483.3h-2V482h2v-2.42h1.49V482h3.36v1.26h-3.36v6.59a1.77,1.77,0,0,0,1.91,2,2.46,2.46,0,0,0,1.64-.57Z"/><path class="cls-10" d="M415.26,488H406a4.09,4.09,0,0,0,4.35,3.84,4.35,4.35,0,0,0,3.38-1.45l.84,1a5.84,5.84,0,0,1-10.06-3.82,5.32,5.32,0,0,1,5.4-5.61,5.26,5.26,0,0,1,5.35,5.61C415.28,487.69,415.26,487.85,415.26,488ZM406,486.91h7.83a3.92,3.92,0,0,0-7.83,0Z"/><path class="cls-10" d="M426.35,486.24v6.84h-1.43v-1.72a4.15,4.15,0,0,1-3.8,1.83c-2.5,0-4-1.31-4-3.22,0-1.7,1.09-3.12,4.26-3.12h3.51v-.68c0-1.89-1.07-2.92-3.13-2.92a5.65,5.65,0,0,0-3.68,1.31l-.67-1.12a7.06,7.06,0,0,1,4.5-1.49C424.73,482,426.35,483.38,426.35,486.24Zm-1.49,3.52V488h-3.47c-2.14,0-2.83.84-2.83,2s1,2.08,2.79,2.08A3.54,3.54,0,0,0,424.86,489.76Z"/><path class="cls-10" d="M440.52,477.5v15.58H439.1V490.9a4.8,4.8,0,0,1-4.27,2.29,5.62,5.62,0,0,1,0-11.24,4.81,4.81,0,0,1,4.2,2.19V477.5Zm-1.47,10.06a4.11,4.11,0,1,0-4.09,4.3A4,4,0,0,0,439.05,487.56Z"/><path class="cls-10" d="M443.57,487.56a5.62,5.62,0,1,1,5.63,5.63A5.43,5.43,0,0,1,443.57,487.56Zm9.72,0a4.11,4.11,0,1,0-4.09,4.3A4,4,0,0,0,453.29,487.56Z"/><path class="cls-10" d="M463.41,482v1.45l-.35,0c-2.31,0-3.72,1.47-3.72,4.07v5.63h-1.49V482h1.43v2.16C460,482.73,461.38,482,463.41,482Z"/><path class="cls-10" d="M590.89,412.78v14.7H589.4V415.72l-5.78,9.89h-.73l-5.78-9.82v11.69h-1.49v-14.7h1.28l6.39,10.9,6.32-10.9Z"/><path class="cls-10" d="M605,422.42h-9.24a4.09,4.09,0,0,0,4.35,3.84,4.35,4.35,0,0,0,3.38-1.45l.84,1A5.84,5.84,0,0,1,594.25,422a5.32,5.32,0,0,1,5.4-5.61A5.27,5.27,0,0,1,605,422C605,422.09,605,422.25,605,422.42Zm-9.24-1.11h7.83a3.92,3.92,0,0,0-7.83,0Z"/><path class="cls-10" d="M604.08,431l.52-1.14a2.57,2.57,0,0,0,1.72.57c1.18,0,1.83-.71,1.83-2.08V416.44h1.49V428.3a3,3,0,0,1-3.23,3.36A3.64,3.64,0,0,1,604.08,431Zm3.74-18a1.07,1.07,0,0,1,1.09-1.05,1.06,1.06,0,0,1,1.09,1,1.09,1.09,0,0,1-2.18,0Z"/><path class="cls-10" d="M612.69,422a5.62,5.62,0,1,1,5.62,5.63A5.43,5.43,0,0,1,612.69,422Zm9.72,0a4.11,4.11,0,1,0-4.1,4.3A4,4,0,0,0,622.41,422Z"/><path class="cls-10" d="M632.53,416.35v1.45l-.36,0c-2.3,0-3.71,1.47-3.71,4.07v5.63H627v-11h1.42v2.16C629.09,417.13,630.49,416.35,632.53,416.35Z"/><path class="cls-10" d="M659.12,421.08v6.4h-1.5v-6.26c0-2.33-1.17-3.52-3.17-3.52-2.26,0-3.69,1.47-3.69,4v5.79h-1.49v-6.26c0-2.33-1.18-3.52-3.19-3.52-2.25,0-3.7,1.47-3.7,4v5.79h-1.49v-11h1.43v2a4.46,4.46,0,0,1,4-2.1,4,4,0,0,1,3.93,2.33,4.81,4.81,0,0,1,4.36-2.33C657.35,416.35,659.12,417.91,659.12,421.08Z"/><path class="cls-10" d="M671.51,420.64v6.84h-1.43v-1.72a4.16,4.16,0,0,1-3.8,1.83c-2.5,0-4-1.3-4-3.22,0-1.7,1.09-3.12,4.26-3.12H670v-.68c0-1.89-1.08-2.91-3.13-2.91a5.64,5.64,0,0,0-3.68,1.3l-.67-1.12a7,7,0,0,1,4.49-1.49C669.89,416.35,671.51,417.78,671.51,420.64ZM670,424.16v-1.8h-3.47c-2.14,0-2.83.84-2.83,2,0,1.28,1,2.08,2.79,2.08A3.54,3.54,0,0,0,670,424.16Z"/><path class="cls-10" d="M681.12,416.35v1.45l-.35,0c-2.31,0-3.72,1.47-3.72,4.07v5.63h-1.49v-11H677v2.16C677.68,417.13,679.09,416.35,681.12,416.35Z"/><path class="cls-10" d="M682.6,422a5.44,5.44,0,0,1,5.69-5.61,4.82,4.82,0,0,1,4.32,2.19l-1.11.75a3.76,3.76,0,0,0-3.21-1.63,4.3,4.3,0,0,0,0,8.6,3.74,3.74,0,0,0,3.21-1.61l1.11.75a4.87,4.87,0,0,1-4.32,2.19A5.45,5.45,0,0,1,682.6,422Z"/><path class="cls-10" d="M703.87,420.64v6.84h-1.43v-1.72a4.15,4.15,0,0,1-3.8,1.83c-2.5,0-4-1.3-4-3.22,0-1.7,1.09-3.12,4.26-3.12h3.51v-.68c0-1.89-1.07-2.91-3.13-2.91a5.64,5.64,0,0,0-3.68,1.3l-.67-1.12a7,7,0,0,1,4.49-1.49C702.25,416.35,703.87,417.78,703.87,420.64Zm-1.49,3.52v-1.8h-3.47c-2.14,0-2.83.84-2.83,2,0,1.28,1,2.08,2.79,2.08A3.54,3.54,0,0,0,702.38,424.16Z"/><path class="cls-10" d="M575.62,438h1.56v14.7h-1.56Z"/><path class="cls-10" d="M599.88,446.28v6.4h-1.5v-6.26c0-2.33-1.17-3.52-3.17-3.52-2.26,0-3.69,1.47-3.69,4v5.79H590v-6.26c0-2.33-1.18-3.52-3.19-3.52-2.25,0-3.7,1.47-3.7,4v5.79h-1.49v-11h1.43v2a4.46,4.46,0,0,1,4-2.1,4,4,0,0,1,3.93,2.33,4.81,4.81,0,0,1,4.36-2.33C598.11,441.55,599.88,443.11,599.88,446.28Z"/><path class="cls-10" d="M612.27,445.84v6.84h-1.43V451a4.16,4.16,0,0,1-3.8,1.83c-2.5,0-4-1.31-4-3.22,0-1.7,1.09-3.12,4.26-3.12h3.51v-.68c0-1.89-1.08-2.91-3.13-2.91a5.64,5.64,0,0,0-3.68,1.3L603.3,443a7,7,0,0,1,4.49-1.49C610.65,441.55,612.27,443,612.27,445.84Zm-1.49,3.52v-1.8h-3.47c-2.14,0-2.83.84-2.83,2,0,1.28,1,2.08,2.79,2.08A3.54,3.54,0,0,0,610.78,449.36Z"/><path class="cls-10" d="M626.59,441.64v9.7c0,3.8-1.87,5.52-5.52,5.52a7.73,7.73,0,0,1-5.15-1.7l.76-1.13a6.58,6.58,0,0,0,4.34,1.51c2.8,0,4.08-1.28,4.08-4v-1.41a5,5,0,0,1-4.31,2.14,5.36,5.36,0,1,1,0-10.71,5,5,0,0,1,4.37,2.21v-2.12Zm-1.45,5.25a4.19,4.19,0,1,0-4.2,4.05A3.94,3.94,0,0,0,625.14,446.89Z"/><path class="cls-10" d="M640.38,447.62h-9.23a4.08,4.08,0,0,0,4.34,3.84,4.36,4.36,0,0,0,3.38-1.44l.84,1a5.83,5.83,0,0,1-10.05-3.82,5.38,5.38,0,1,1,10.75,0C640.41,447.29,640.38,447.45,640.38,447.62Zm-9.23-1.11H639a3.92,3.92,0,0,0-7.83,0Z"/><path class="cls-10" d="M653.61,446.28v6.4h-1.49v-6.26c0-2.33-1.21-3.52-3.31-3.52a3.62,3.62,0,0,0-3.87,4v5.79h-1.49v-11h1.43v2a4.65,4.65,0,0,1,4.2-2.12C651.77,441.55,653.61,443.11,653.61,446.28Z"/><path class="cls-10" d="M586,476.54v1.34h-10.4v-14.7H585.7v1.35h-8.52v5.23h7.6v1.32h-7.6v5.46Z"/><path class="cls-10" d="M588.27,476.1l.6-1.2a7.22,7.22,0,0,0,4.85,1.79c2.75,0,3.95-1.16,3.95-2.61,0-4-9-1.55-9-7,0-2.16,1.68-4,5.42-4a8.31,8.31,0,0,1,4.56,1.3l-.53,1.24a7.56,7.56,0,0,0-4-1.22c-2.69,0-3.89,1.2-3.89,2.67,0,4,9.05,1.59,9.05,6.95,0,2.16-1.72,4-5.48,4A8,8,0,0,1,588.27,476.1Z"/><path class="cls-10" d="M602.59,463.18h1.55v14.7h-1.55Z"/><path class="cls-10" d="M632.34,471.48v6.4h-1.49v-6.26c0-2.33-1.18-3.52-3.17-3.52-2.27,0-3.7,1.47-3.7,4v5.79h-1.49v-6.26c0-2.33-1.17-3.52-3.19-3.52-2.25,0-3.69,1.47-3.69,4v5.79h-1.49v-11h1.42v2a4.49,4.49,0,0,1,4.06-2.1,4,4,0,0,1,3.92,2.33,4.83,4.83,0,0,1,4.37-2.33C630.58,466.75,632.34,468.31,632.34,471.48Z"/><path class="cls-10" d="M646.05,472.82h-9.23a4.08,4.08,0,0,0,4.34,3.84,4.33,4.33,0,0,0,3.38-1.45l.84,1a5.42,5.42,0,0,1-4.26,1.81,5.47,5.47,0,0,1-5.79-5.63,5.38,5.38,0,1,1,10.75,0C646.08,472.49,646.05,472.65,646.05,472.82Zm-9.23-1.11h7.83a3.92,3.92,0,0,0-7.83,0Z"/><path class="cls-10" d="M645.15,481.35l.53-1.14a2.57,2.57,0,0,0,1.72.57c1.18,0,1.83-.71,1.83-2.08V466.84h1.49V478.7a3,3,0,0,1-3.24,3.36A3.66,3.66,0,0,1,645.15,481.35Zm3.74-18A1.08,1.08,0,0,1,650,462.3a1.06,1.06,0,0,1,1.09,1,1.09,1.09,0,0,1-2.18,0Z"/><path class="cls-10" d="M653.76,472.36a5.62,5.62,0,1,1,5.63,5.63A5.44,5.44,0,0,1,653.76,472.36Zm9.72,0a4.11,4.11,0,1,0-4.09,4.3A4,4,0,0,0,663.48,472.36Z"/><path class="cls-10" d="M673.61,466.75v1.45l-.36,0c-2.31,0-3.72,1.47-3.72,4.07v5.63H668v-11h1.43V469C670.16,467.53,671.57,466.75,673.61,466.75Z"/><path class="cls-10" d="M684.61,471v6.84h-1.43v-1.72a4.15,4.15,0,0,1-3.8,1.83c-2.5,0-4-1.3-4-3.22,0-1.7,1.09-3.12,4.26-3.12h3.51V471c0-1.89-1.07-2.91-3.13-2.91a5.59,5.59,0,0,0-3.67,1.3l-.68-1.12a7.08,7.08,0,0,1,4.5-1.49C683,466.75,684.61,468.18,684.61,471Zm-1.49,3.52v-1.8h-3.46c-2.15,0-2.84.84-2.84,2s1,2.08,2.79,2.08A3.54,3.54,0,0,0,683.12,474.56Z"/><path class="cls-10" d="M698.79,462.3v15.58h-1.43V475.7a4.8,4.8,0,0,1-4.27,2.29,5.62,5.62,0,0,1,0-11.24,4.81,4.81,0,0,1,4.2,2.19V462.3Zm-1.48,10.06a4.1,4.1,0,1,0-4.09,4.3A4,4,0,0,0,697.31,472.36Z"/><path class="cls-10" d="M701.83,472.36a5.62,5.62,0,1,1,5.63,5.63A5.43,5.43,0,0,1,701.83,472.36Zm9.72,0a4.11,4.11,0,1,0-4.09,4.3A4,4,0,0,0,711.55,472.36Z"/><path class="cls-11" d="M328.14,338v1.35H317.75v-14.7h10.08V326h-8.52v5.23h7.6v1.33h-7.6V338Z"/><path class="cls-11" d="M338.2,339.33l-3.5-4.62-3.53,4.62h-1.68l4.37-5.67-4.16-5.38h1.68l3.32,4.33,3.32-4.33h1.63l-4.15,5.38,4.4,5.67Z"/><path class="cls-11" d="M340.87,333.8a5.44,5.44,0,0,1,5.69-5.6,4.82,4.82,0,0,1,4.33,2.18l-1.11.76a3.78,3.78,0,0,0-3.22-1.64,4.31,4.31,0,0,0,0,8.61,3.74,3.74,0,0,0,3.22-1.62l1.11.76a4.87,4.87,0,0,1-4.33,2.18A5.46,5.46,0,0,1,340.87,333.8Z"/><path class="cls-11" d="M363.24,334.27H354a4.08,4.08,0,0,0,4.34,3.84,4.33,4.33,0,0,0,3.38-1.45l.84,1a5.84,5.84,0,0,1-10.05-3.83,5.38,5.38,0,1,1,10.75,0C363.26,333.93,363.24,334.1,363.24,334.27ZM354,333.15h7.83a3.92,3.92,0,0,0-7.83,0Z"/><path class="cls-11" d="M377.49,333.8a5.35,5.35,0,0,1-5.5,5.63,4.83,4.83,0,0,1-4.2-2.18v6.15H366.3V328.28h1.43v2.19A4.81,4.81,0,0,1,372,328.2,5.34,5.34,0,0,1,377.49,333.8Zm-1.49,0a4.12,4.12,0,1,0-4.11,4.31A4.06,4.06,0,0,0,376,333.8Z"/><path class="cls-11" d="M386.36,338.66a3.58,3.58,0,0,1-2.33.77,2.93,2.93,0,0,1-3.24-3.21v-6.68h-2v-1.26h2v-2.41h1.49v2.41h3.36v1.26h-3.36v6.6a1.77,1.77,0,0,0,1.92,2,2.45,2.45,0,0,0,1.63-.57Z"/><path class="cls-11" d="M399,328.28v11.05h-1.43v-2a4.38,4.38,0,0,1-4,2.12c-2.81,0-4.66-1.57-4.66-4.74v-6.41h1.49v6.26c0,2.35,1.22,3.55,3.32,3.55,2.31,0,3.76-1.49,3.76-4v-5.8Z"/><path class="cls-11" d="M411.54,332.48v6.85h-1.43v-1.72a4.16,4.16,0,0,1-3.8,1.82c-2.5,0-4-1.3-4-3.21,0-1.7,1.09-3.13,4.26-3.13H410v-.67c0-1.89-1.07-2.92-3.12-2.92a5.67,5.67,0,0,0-3.68,1.3l-.67-1.11a7,7,0,0,1,4.49-1.49C409.92,328.2,411.54,329.63,411.54,332.48ZM410,336v-1.8h-3.46c-2.14,0-2.83.83-2.83,2s1,2.08,2.79,2.08A3.52,3.52,0,0,0,410,336Z"/><path class="cls-11" d="M425.71,323.75v15.58h-1.43v-2.19a4.78,4.78,0,0,1-4.26,2.29,5.62,5.62,0,0,1,0-11.23,4.84,4.84,0,0,1,4.2,2.18v-6.63Zm-1.47,10.05a4.11,4.11,0,1,0-4.09,4.31A4,4,0,0,0,424.24,333.8Z"/><path class="cls-11" d="M428.76,333.8a5.62,5.62,0,1,1,5.62,5.63A5.43,5.43,0,0,1,428.76,333.8Zm9.72,0a4.11,4.11,0,1,0-4.1,4.31A4,4,0,0,0,438.48,333.8Z"/><path class="cls-11" d="M584.65,332.14v1.34H574.26v-14.7h10.08v1.35h-8.53v5.23h7.6v1.32h-7.6v5.46Z"/><path class="cls-11" d="M594.71,333.48l-3.51-4.62-3.52,4.62H586l4.36-5.67-4.15-5.37h1.68l3.31,4.32,3.32-4.32h1.64L592,327.81l4.41,5.67Z"/><path class="cls-11" d="M597.38,328a5.44,5.44,0,0,1,5.69-5.61,4.84,4.84,0,0,1,4.33,2.19l-1.12.75a3.74,3.74,0,0,0-3.21-1.63,4.3,4.3,0,0,0,0,8.6,3.73,3.73,0,0,0,3.21-1.61l1.12.75a4.88,4.88,0,0,1-4.33,2.19A5.45,5.45,0,0,1,597.38,328Z"/><path class="cls-11" d="M619.74,328.42H610.5a4.09,4.09,0,0,0,4.35,3.84,4.35,4.35,0,0,0,3.38-1.45l.84,1A5.84,5.84,0,0,1,609,328a5.32,5.32,0,0,1,5.4-5.61,5.26,5.26,0,0,1,5.35,5.61C619.76,328.09,619.74,328.25,619.74,328.42Zm-9.24-1.11h7.84a3.93,3.93,0,0,0-7.84,0Z"/><path class="cls-11" d="M634,328a5.35,5.35,0,0,1-5.5,5.63,4.83,4.83,0,0,1-4.2-2.19v6.15h-1.49V322.44h1.43v2.18a4.8,4.8,0,0,1,4.26-2.27A5.34,5.34,0,0,1,634,328Zm-1.49,0a4.12,4.12,0,1,0-4.11,4.3A4.06,4.06,0,0,0,632.51,328Z"/><path class="cls-11" d="M642.86,332.81a3.56,3.56,0,0,1-2.33.78,2.93,2.93,0,0,1-3.23-3.22V323.7h-2v-1.26h2V320h1.49v2.42h3.36v1.26h-3.36v6.59a1.77,1.77,0,0,0,1.91,2,2.46,2.46,0,0,0,1.64-.57Z"/><path class="cls-11" d="M655.53,322.44v11H654.1v-2a4.41,4.41,0,0,1-4,2.12c-2.81,0-4.66-1.58-4.66-4.75v-6.4H647v6.25c0,2.36,1.22,3.55,3.32,3.55,2.31,0,3.76-1.49,3.76-4v-5.79Z"/><path class="cls-11" d="M668,326.64v6.84h-1.43v-1.72a4.15,4.15,0,0,1-3.8,1.83c-2.49,0-4-1.3-4-3.22,0-1.7,1.09-3.12,4.26-3.12h3.51v-.68c0-1.89-1.07-2.91-3.13-2.91a5.61,5.61,0,0,0-3.67,1.3l-.67-1.12a7,7,0,0,1,4.49-1.49C666.42,322.35,668,323.78,668,326.64Zm-1.49,3.52v-1.8h-3.46c-2.14,0-2.84.84-2.84,2,0,1.28,1,2.08,2.79,2.08A3.54,3.54,0,0,0,666.55,330.16Z"/><path class="cls-11" d="M682.22,317.9v15.58h-1.43V331.3a4.79,4.79,0,0,1-4.26,2.29,5.62,5.62,0,0,1,0-11.24,4.84,4.84,0,0,1,4.2,2.19V317.9ZM680.75,328a4.11,4.11,0,1,0-4.1,4.3A4,4,0,0,0,680.75,328Z"/><path class="cls-11" d="M685.26,328a5.62,5.62,0,1,1,5.63,5.63A5.44,5.44,0,0,1,685.26,328Zm9.73,0a4.11,4.11,0,1,0-4.1,4.3A4,4,0,0,0,695,328Z"/><path class="cls-11" d="M703.93,328a5.62,5.62,0,1,1,5.63,5.63A5.44,5.44,0,0,1,703.93,328Zm9.72,0a4.11,4.11,0,1,0-4.09,4.3A4,4,0,0,0,713.65,328Z"/><path class="cls-11" d="M598.15,354.76H590l-1.77,3.92h-1.61l6.71-14.7h1.54l6.72,14.7h-1.64Zm-.57-1.26-3.53-7.9-3.53,7.9Z"/><path class="cls-11" d="M613.83,352.28v6.4h-1.49v-6.26c0-2.33-1.22-3.52-3.32-3.52a3.62,3.62,0,0,0-3.86,4v5.79h-1.49v-11h1.43v2a4.65,4.65,0,0,1,4.2-2.12C612,347.55,613.83,349.11,613.83,352.28Z"/><path class="cls-11" d="M623.7,358a3.53,3.53,0,0,1-2.33.78,2.93,2.93,0,0,1-3.23-3.22V348.9h-2v-1.26h2v-2.42h1.49v2.42H623v1.26h-3.36v6.59a1.77,1.77,0,0,0,1.91,2,2.46,2.46,0,0,0,1.64-.57Z"/><path class="cls-11" d="M626.08,344.15a1.08,1.08,0,0,1,1.09-1,1.06,1.06,0,0,1,1.09,1,1.09,1.09,0,0,1-2.18,0Zm.33,3.49h1.49v11h-1.49Z"/><path class="cls-11" d="M631,353.16a5.44,5.44,0,0,1,5.69-5.61,4.81,4.81,0,0,1,4.32,2.19l-1.11.75a3.76,3.76,0,0,0-3.21-1.63,4.3,4.3,0,0,0,0,8.6,3.74,3.74,0,0,0,3.21-1.61l1.11.75a4.86,4.86,0,0,1-4.32,2.19A5.45,5.45,0,0,1,631,353.16Z"/><path class="cls-11" d="M643.55,344.15a1.08,1.08,0,0,1,1.09-1,1.06,1.06,0,0,1,1.09,1,1.09,1.09,0,0,1-2.18,0Zm.33,3.49h1.5v11h-1.5Z"/><path class="cls-11" d="M660.72,353.16a5.35,5.35,0,0,1-5.5,5.63,4.84,4.84,0,0,1-4.2-2.19v6.15h-1.49V347.64H651v2.18a4.81,4.81,0,0,1,4.26-2.27A5.34,5.34,0,0,1,660.72,353.16Zm-1.49,0a4.12,4.12,0,1,0-4.11,4.3A4.06,4.06,0,0,0,659.23,353.16Z"/><path class="cls-11" d="M672,351.84v6.84h-1.42V357a4.17,4.17,0,0,1-3.8,1.83c-2.5,0-4-1.31-4-3.22,0-1.7,1.1-3.12,4.27-3.12h3.5v-.68c0-1.89-1.07-2.91-3.13-2.91a5.61,5.61,0,0,0-3.67,1.3l-.67-1.12a7,7,0,0,1,4.49-1.49C670.43,347.55,672,349,672,351.84Zm-1.49,3.52v-1.8h-3.46c-2.14,0-2.84.84-2.84,2,0,1.28,1,2.08,2.8,2.08A3.53,3.53,0,0,0,670.55,355.36Z"/><path class="cls-11" d="M686.22,343.1v15.58h-1.43V356.5a4.79,4.79,0,0,1-4.26,2.29,5.62,5.62,0,0,1,0-11.24,4.84,4.84,0,0,1,4.2,2.19V343.1Zm-1.47,10.06a4.11,4.11,0,1,0-4.1,4.3A4,4,0,0,0,684.75,353.16Z"/><path class="cls-11" d="M689.26,353.16a5.62,5.62,0,1,1,5.63,5.63A5.44,5.44,0,0,1,689.26,353.16Zm9.73,0a4.11,4.11,0,1,0-4.1,4.3A4,4,0,0,0,699,353.16Z"/><path class="cls-11" d="M587.05,209.48h1.56v14.69h-1.56Z"/><path class="cls-11" d="M603.24,217.77v6.4h-1.49v-6.25c0-2.33-1.21-3.53-3.31-3.53a3.62,3.62,0,0,0-3.87,4v5.79h-1.49v-11h1.43v2a4.63,4.63,0,0,1,4.2-2.12C601.4,213.05,603.24,214.6,603.24,217.77Z"/><path class="cls-11" d="M613.12,223.5a3.56,3.56,0,0,1-2.34.78,2.93,2.93,0,0,1-3.23-3.21v-6.68h-2v-1.26h2v-2.41H609v2.41h3.36v1.26H609V221a1.77,1.77,0,0,0,1.91,2,2.46,2.46,0,0,0,1.64-.57Z"/><path class="cls-11" d="M624.16,217.33v6.84h-1.43v-1.72a4.13,4.13,0,0,1-3.8,1.83c-2.5,0-4-1.3-4-3.21,0-1.7,1.09-3.13,4.26-3.13h3.51v-.67c0-1.89-1.07-2.92-3.13-2.92a5.59,5.59,0,0,0-3.67,1.3l-.68-1.11a7,7,0,0,1,4.5-1.49C622.54,213.05,624.16,214.47,624.16,217.33Zm-1.49,3.53v-1.81h-3.46c-2.15,0-2.84.84-2.84,2,0,1.29,1,2.08,2.79,2.08A3.53,3.53,0,0,0,622.67,220.86Z"/><path class="cls-11" d="M638.38,217.77v6.4h-1.49v-6.25c0-2.33-1.22-3.53-3.32-3.53a3.62,3.62,0,0,0-3.86,4v5.79h-1.5v-11h1.43v2a4.63,4.63,0,0,1,4.2-2.12C636.53,213.05,638.38,214.6,638.38,217.77Z"/><path class="cls-11" d="M652.7,213.13v9.7c0,3.8-1.87,5.52-5.52,5.52a7.73,7.73,0,0,1-5.15-1.7l.76-1.13a6.58,6.58,0,0,0,4.34,1.51c2.8,0,4.08-1.28,4.08-4v-1.41a5,5,0,0,1-4.31,2.14,5.35,5.35,0,1,1,0-10.7,5,5,0,0,1,4.37,2.2v-2.12Zm-1.45,5.25a4.19,4.19,0,1,0-4.2,4.05A4,4,0,0,0,651.25,218.38Z"/><path class="cls-11" d="M656.54,209.64a1.08,1.08,0,0,1,1.09-1,1.07,1.07,0,0,1,1.1,1,1.1,1.1,0,0,1-2.19,0Zm.34,3.49h1.49v11h-1.49Z"/><path class="cls-11" d="M673.72,218.65a5.36,5.36,0,0,1-5.5,5.63A4.78,4.78,0,0,1,664,222v2.18h-1.43V208.59H664v6.64a4.8,4.8,0,0,1,4.2-2.18A5.34,5.34,0,0,1,673.72,218.65Zm-1.49,0a4.12,4.12,0,1,0-4.12,4.31A4.06,4.06,0,0,0,672.23,218.65Z"/><path class="cls-11" d="M676.77,208.59h1.49v15.58h-1.49Z"/><path class="cls-11" d="M692,219.11h-9.24a4.1,4.1,0,0,0,4.35,3.85,4.38,4.38,0,0,0,3.38-1.45l.84,1a5.84,5.84,0,0,1-10.06-3.82,5.32,5.32,0,0,1,5.4-5.6,5.26,5.26,0,0,1,5.35,5.6C692.05,218.78,692,219,692,219.11ZM682.79,218h7.83a3.92,3.92,0,0,0-7.83,0Z"/><rect class="cls-12" x="342" y="140" width="162" height="45" rx="7.72"/><rect class="cls-13" x="603" y="140" width="162" height="45" rx="7.72"/><path class="cls-11" d="M425,152.48h6c4.7,0,7.87,3,7.87,7.35s-3.17,7.34-7.87,7.34h-6Zm5.9,13.35c3.91,0,6.43-2.48,6.43-6s-2.52-6-6.43-6h-4.34v12Z"/><path class="cls-11" d="M452,156.13v11h-1.43v-2a4.41,4.41,0,0,1-4,2.12c-2.81,0-4.66-1.58-4.66-4.75v-6.4h1.49v6.26c0,2.35,1.22,3.54,3.32,3.54,2.31,0,3.76-1.49,3.76-4v-5.79Z"/><path class="cls-11" d="M461.76,156.05v1.45c-.12,0-.25,0-.35,0-2.32,0-3.72,1.47-3.72,4.08v5.62H456.2v-11h1.43v2.16C458.32,156.82,459.73,156.05,461.76,156.05Z"/><path class="cls-11" d="M463.23,161.65a5.62,5.62,0,1,1,5.63,5.63A5.43,5.43,0,0,1,463.23,161.65Zm9.72,0a4.11,4.11,0,1,0-4.09,4.31A4,4,0,0,0,473,161.65Z"/><path class="cls-11" d="M684.63,165.39l.61-1.2a7.22,7.22,0,0,0,4.85,1.79c2.75,0,3.94-1.16,3.94-2.61,0-4-9-1.55-9-7,0-2.16,1.68-4,5.42-4a8.31,8.31,0,0,1,4.56,1.3l-.53,1.24a7.56,7.56,0,0,0-4-1.22c-2.69,0-3.88,1.2-3.88,2.67,0,4,9.05,1.6,9.05,6.95,0,2.16-1.73,4-5.48,4A8,8,0,0,1,684.63,165.39Z"/><path class="cls-11" d="M708.59,156.13v11h-1.43v-2a4.41,4.41,0,0,1-4,2.12c-2.81,0-4.66-1.58-4.66-4.75v-6.4H700v6.26c0,2.35,1.22,3.54,3.32,3.54,2.31,0,3.76-1.49,3.76-4v-5.79Z"/><path class="cls-11" d="M721.1,160.33v6.84h-1.43v-1.72a4.13,4.13,0,0,1-3.8,1.83c-2.49,0-4-1.3-4-3.21,0-1.7,1.09-3.13,4.27-3.13h3.5v-.67c0-1.89-1.07-2.92-3.13-2.92a5.61,5.61,0,0,0-3.67,1.3l-.67-1.11a7,7,0,0,1,4.49-1.49C719.49,156.05,721.1,157.47,721.1,160.33Zm-1.49,3.53v-1.81h-3.46c-2.14,0-2.84.84-2.84,2,0,1.29,1,2.08,2.8,2.08A3.52,3.52,0,0,0,719.61,163.86Z"/><path class="cls-11" d="M734.23,156.13l-4.92,11h-1.53l-4.89-11h1.55l4.14,9.41,4.18-9.41Z"/><path class="cls-11" d="M745.63,162.11h-9.24a4.1,4.1,0,0,0,4.35,3.85,4.38,4.38,0,0,0,3.38-1.45l.84,1a5.84,5.84,0,0,1-10.06-3.82,5.32,5.32,0,0,1,5.4-5.6,5.25,5.25,0,0,1,5.35,5.6C745.65,161.78,745.63,162,745.63,162.11ZM736.39,161h7.83a3.92,3.92,0,0,0-7.83,0Z"/><path class="cls-14" d="M206,586.13V570H0V529H206V513.79a2,2,0,0,1,3.41-1.43l36.17,35.73a2,2,0,0,1,0,2.83l-36.17,36.62A2,2,0,0,1,206,586.13Z"/><path class="cls-15" d="M467,586.13V570H261V529H467V513.79a2,2,0,0,1,3.41-1.43l36.17,35.73a2,2,0,0,1,0,2.83l-36.17,36.62A2,2,0,0,1,467,586.13Z"/><path class="cls-16" d="M724,586.13V570H522V529H724V513.79a2,2,0,0,1,3.41-1.43l36.17,35.73a2,2,0,0,1,0,2.83l-36.17,36.62A2,2,0,0,1,724,586.13Z"/><path class="cls-11" d="M36.67,540.82H31.51v-1.34H43.39v1.34H38.23v13.35H36.67Z"/><path class="cls-11" d="M54,549.11H44.78A4.09,4.09,0,0,0,49.12,553a4.39,4.39,0,0,0,3.39-1.45l.84,1a5.44,5.44,0,0,1-4.27,1.81,5.47,5.47,0,0,1-5.79-5.63,5.32,5.32,0,0,1,5.39-5.6,5.26,5.26,0,0,1,5.36,5.6C54,548.78,54,549,54,549.11ZM44.78,548h7.83a3.92,3.92,0,0,0-7.83,0Zm4-6.57H47.32l2.88-2.6h2Z"/><path class="cls-11" d="M62.65,543.05v1.45c-.13,0-.25,0-.36,0-2.31,0-3.71,1.47-3.71,4.08v5.62h-1.5v-11h1.43v2.16C59.21,543.82,60.61,543.05,62.65,543.05Z"/><path class="cls-11" d="M83.56,547.77v6.4H82.07v-6.25c0-2.33-1.17-3.53-3.17-3.53-2.27,0-3.69,1.47-3.69,4v5.79h-1.5v-6.25c0-2.33-1.17-3.53-3.19-3.53-2.24,0-3.69,1.47-3.69,4v5.79H65.34v-11h1.43v2a4.44,4.44,0,0,1,4-2.1,4,4,0,0,1,3.92,2.33,4.82,4.82,0,0,1,4.37-2.33C81.8,543.05,83.56,544.6,83.56,547.77Z"/><path class="cls-11" d="M87.28,539.64a1.08,1.08,0,0,1,1.09-1,1.06,1.06,0,0,1,1.09,1,1.08,1.08,0,0,1-1.09,1.1A1.09,1.09,0,0,1,87.28,539.64Zm.34,3.49h1.49v11H87.62Z"/><path class="cls-11" d="M103.43,547.77v6.4h-1.49v-6.25c0-2.33-1.22-3.53-3.32-3.53a3.62,3.62,0,0,0-3.86,4v5.79H93.27v-11H94.7v2a4.6,4.6,0,0,1,4.19-2.12C101.58,543.05,103.43,544.6,103.43,547.77Z"/><path class="cls-11" d="M106.41,548.65a5.62,5.62,0,1,1,5.63,5.63A5.43,5.43,0,0,1,106.41,548.65Zm9.72,0A4.11,4.11,0,1,0,112,553,4,4,0,0,0,116.13,548.65Z"/><path class="cls-11" d="M125.21,546.83a7.38,7.38,0,0,1,7.7-7.48,7.12,7.12,0,0,1,5.38,2.14l-1,1a5.82,5.82,0,0,0-4.34-1.74,6.09,6.09,0,1,0,0,12.17,5.76,5.76,0,0,0,4.34-1.76l1,1a7.15,7.15,0,0,1-5.4,2.16A7.37,7.37,0,0,1,125.21,546.83Z"/><path class="cls-11" d="M139.7,548.65a5.62,5.62,0,1,1,5.62,5.63A5.43,5.43,0,0,1,139.7,548.65Zm9.72,0a4.11,4.11,0,1,0-4.1,4.31A4,4,0,0,0,149.42,548.65Z"/><path class="cls-11" d="M159.54,543.05v1.45l-.36,0c-2.3,0-3.71,1.47-3.71,4.08v5.62H154v-11h1.42v2.16C156.1,543.82,157.5,543.05,159.54,543.05Z"/><path class="cls-11" d="M168.53,553.5a3.53,3.53,0,0,1-2.33.78,2.93,2.93,0,0,1-3.24-3.21v-6.68h-2v-1.26h2v-2.41h1.5v2.41h3.35v1.26h-3.35V551a1.77,1.77,0,0,0,1.91,2,2.45,2.45,0,0,0,1.63-.57Z"/><path class="cls-11" d="M169.73,548.65a5.62,5.62,0,1,1,5.62,5.63A5.43,5.43,0,0,1,169.73,548.65Zm9.72,0a4.11,4.11,0,1,0-4.1,4.31A4,4,0,0,0,179.45,548.65Z"/><path class="cls-11" d="M301.67,540.82h-5.16v-1.34h11.88v1.34h-5.16v13.35h-1.56Z"/><path class="cls-11" d="M319,549.11h-9.24a4.09,4.09,0,0,0,4.34,3.85,4.39,4.39,0,0,0,3.39-1.45l.84,1a5.84,5.84,0,0,1-10.06-3.82,5.32,5.32,0,0,1,5.39-5.6,5.26,5.26,0,0,1,5.36,5.6C319,548.78,319,549,319,549.11ZM309.78,548h7.83a3.92,3.92,0,0,0-7.83,0Zm4-6.57h-1.47l2.88-2.6h2Z"/><path class="cls-11" d="M327.65,543.05v1.45c-.13,0-.25,0-.36,0-2.31,0-3.71,1.47-3.71,4.08v5.62h-1.5v-11h1.43v2.16C324.21,543.82,325.61,543.05,327.65,543.05Z"/><path class="cls-11" d="M348.56,547.77v6.4h-1.49v-6.25c0-2.33-1.17-3.53-3.17-3.53-2.27,0-3.69,1.47-3.69,4v5.79h-1.5v-6.25c0-2.33-1.17-3.53-3.19-3.53-2.24,0-3.69,1.47-3.69,4v5.79h-1.49v-11h1.43v2a4.44,4.44,0,0,1,4.05-2.1,4,4,0,0,1,3.92,2.33,4.82,4.82,0,0,1,4.37-2.33C346.8,543.05,348.56,544.6,348.56,547.77Z"/><path class="cls-11" d="M352.28,539.64a1.08,1.08,0,0,1,1.09-1,1.06,1.06,0,0,1,1.09,1,1.08,1.08,0,0,1-1.09,1.1A1.09,1.09,0,0,1,352.28,539.64Zm.34,3.49h1.49v11h-1.49Z"/><path class="cls-11" d="M368.43,547.77v6.4h-1.49v-6.25c0-2.33-1.22-3.53-3.32-3.53a3.62,3.62,0,0,0-3.86,4v5.79h-1.49v-11h1.43v2a4.6,4.6,0,0,1,4.19-2.12C366.58,543.05,368.43,544.6,368.43,547.77Z"/><path class="cls-11" d="M371.41,548.65a5.62,5.62,0,1,1,5.63,5.63A5.43,5.43,0,0,1,371.41,548.65Zm9.72,0A4.11,4.11,0,1,0,377,553,4,4,0,0,0,381.13,548.65Z"/><path class="cls-11" d="M406.77,539.48v14.69h-1.49V542.42l-5.77,9.89h-.74L393,542.48v11.69h-1.49V539.48h1.28l6.38,10.89,6.32-10.89Z"/><path class="cls-11" d="M420.87,549.11h-9.24A4.09,4.09,0,0,0,416,553a4.36,4.36,0,0,0,3.38-1.45l.84,1a5.83,5.83,0,0,1-10.05-3.82,5.38,5.38,0,1,1,10.75,0C420.89,548.78,420.87,549,420.87,549.11ZM411.63,548h7.83a3.92,3.92,0,0,0-7.83,0Z"/><path class="cls-11" d="M434,538.59v15.58h-1.43V552a4.78,4.78,0,0,1-4.26,2.29,5.62,5.62,0,0,1,0-11.23,4.8,4.8,0,0,1,4.2,2.18v-6.64Zm-1.47,10.06a4.11,4.11,0,1,0-4.09,4.31A4,4,0,0,0,432.54,548.65Z"/><path class="cls-11" d="M437.83,539.64a1.09,1.09,0,0,1,1.1-1,1.06,1.06,0,0,1,1.09,1,1.08,1.08,0,0,1-1.09,1.1A1.09,1.09,0,0,1,437.83,539.64Zm.34,3.49h1.49v11h-1.49Z"/><path class="cls-11" d="M442.71,548.65a5.62,5.62,0,1,1,5.62,5.63A5.43,5.43,0,0,1,442.71,548.65Zm9.72,0a4.11,4.11,0,1,0-4.1,4.31A4,4,0,0,0,452.43,548.65Z"/><path class="cls-11" d="M562.67,540.82h-5.16v-1.34h11.88v1.34h-5.16v13.35h-1.56Z"/><path class="cls-11" d="M580,549.11h-9.24a4.09,4.09,0,0,0,4.34,3.85,4.39,4.39,0,0,0,3.39-1.45l.84,1a5.84,5.84,0,0,1-10.06-3.82,5.32,5.32,0,0,1,5.39-5.6,5.26,5.26,0,0,1,5.36,5.6C580,548.78,580,549,580,549.11ZM570.78,548h7.83a3.92,3.92,0,0,0-7.83,0Zm4-6.57h-1.47l2.88-2.6h2Z"/><path class="cls-11" d="M588.65,543.05v1.45c-.13,0-.25,0-.36,0-2.31,0-3.71,1.47-3.71,4.08v5.62h-1.5v-11h1.43v2.16C585.21,543.82,586.61,543.05,588.65,543.05Z"/><path class="cls-11" d="M609.56,547.77v6.4h-1.49v-6.25c0-2.33-1.17-3.53-3.17-3.53-2.27,0-3.69,1.47-3.69,4v5.79h-1.5v-6.25c0-2.33-1.17-3.53-3.19-3.53-2.24,0-3.69,1.47-3.69,4v5.79h-1.49v-11h1.43v2a4.44,4.44,0,0,1,4.05-2.1,4,4,0,0,1,3.92,2.33,4.82,4.82,0,0,1,4.37-2.33C607.8,543.05,609.56,544.6,609.56,547.77Z"/><path class="cls-11" d="M613.28,539.64a1.08,1.08,0,0,1,1.09-1,1.06,1.06,0,0,1,1.09,1,1.08,1.08,0,0,1-1.09,1.1A1.09,1.09,0,0,1,613.28,539.64Zm.34,3.49h1.49v11h-1.49Z"/><path class="cls-11" d="M629.43,547.77v6.4h-1.49v-6.25c0-2.33-1.22-3.53-3.32-3.53a3.62,3.62,0,0,0-3.86,4v5.79h-1.49v-11h1.43v2a4.6,4.6,0,0,1,4.19-2.12C627.58,543.05,629.43,544.6,629.43,547.77Z"/><path class="cls-11" d="M632.41,548.65a5.62,5.62,0,1,1,5.63,5.63A5.43,5.43,0,0,1,632.41,548.65Zm9.72,0A4.11,4.11,0,1,0,638,553,4,4,0,0,0,642.13,548.65Z"/><path class="cls-11" d="M652.51,539.48h1.55v13.35h8.23v1.34h-9.78Z"/><path class="cls-11" d="M672.94,547.33v6.84h-1.43v-1.72a4.13,4.13,0,0,1-3.8,1.83c-2.5,0-4-1.3-4-3.21,0-1.7,1.09-3.13,4.26-3.13h3.51v-.67c0-1.89-1.07-2.92-3.13-2.92a5.59,5.59,0,0,0-3.67,1.3l-.68-1.11a7,7,0,0,1,4.5-1.49C671.32,543.05,672.94,544.47,672.94,547.33Zm-1.49,3.53v-1.81H668c-2.15,0-2.84.84-2.84,2,0,1.29,1,2.08,2.79,2.08A3.53,3.53,0,0,0,671.45,550.86Z"/><path class="cls-11" d="M682.56,543.05v1.45c-.13,0-.25,0-.36,0-2.31,0-3.71,1.47-3.71,4.08v5.62H677v-11h1.43v2.16C679.12,543.82,680.52,543.05,682.56,543.05Z"/><path class="cls-11" d="M695.37,543.13v9.7c0,3.8-1.87,5.52-5.52,5.52a7.73,7.73,0,0,1-5.15-1.7l.76-1.13A6.58,6.58,0,0,0,689.8,557c2.8,0,4.08-1.28,4.08-4v-1.41a5,5,0,0,1-4.31,2.14,5.35,5.35,0,1,1,0-10.7,5,5,0,0,1,4.37,2.2v-2.12Zm-1.45,5.25a4.19,4.19,0,1,0-4.2,4A3.95,3.95,0,0,0,693.92,548.38Z"/><path class="cls-11" d="M698.44,548.65a5.62,5.62,0,1,1,5.62,5.63A5.43,5.43,0,0,1,698.44,548.65Zm9.72,0a4.11,4.11,0,1,0-4.1,4.31A4,4,0,0,0,708.16,548.65Z"/></g></g></svg>