<svg id="Capa_1" data-name="Capa 1" xmlns="http://www.w3.org/2000/svg" xmlns:xlink="http://www.w3.org/1999/xlink" viewBox="0 0 31.51 21.04"><defs><style>.cls-1{fill:url(#linear-gradient);}.cls-2{fill:url(#linear-gradient-2);}.cls-3{fill:url(#linear-gradient-3);}.cls-4{fill:url(#linear-gradient-4);}</style><linearGradient id="linear-gradient" x1="4.78" y1="16" x2="31.75" y2="16" gradientUnits="userSpaceOnUse"><stop offset="0" stop-color="#5e9ed5"/><stop offset="0.66" stop-color="#5c9bd2"/><stop offset="1" stop-color="#385d8f"/></linearGradient><linearGradient id="linear-gradient-2" x1="2.92" y1="16.37" x2="22.73" y2="16.37" xlink:href="#linear-gradient"/><linearGradient id="linear-gradient-3" x1="0.25" y1="18.71" x2="15.48" y2="18.71" xlink:href="#linear-gradient"/><linearGradient id="linear-gradient-4" x1="2.27" y1="21.66" x2="11.59" y2="21.66" xlink:href="#linear-gradient"/></defs><title>ICONO ECLIPSE 3</title><path class="cls-1" d="M16.61,7.62c7.2-1.27,11,1.79,8.54,6.82S14.82,24.6,7.61,25.87a18.57,18.57,0,0,1-2.83.27,15.08,15.08,0,0,0,6.51.06c8.05-1.42,16.84-7.14,19.62-12.77s-1.5-9-9.56-7.63a30.85,30.85,0,0,0-7.81,2.58A24.56,24.56,0,0,1,16.61,7.62Z" transform="translate(-0.25 -5.48)"/><path class="cls-2" d="M4.79,15.3c4.83-3.14,10.64-4.16,13-2.29s.34,6-4.48,9.09a20.74,20.74,0,0,1-2.09,1.19,24.07,24.07,0,0,0,5.41-2.63c5.39-3.51,7.64-8.06,5-10.16S12.5,9.55,7.11,13.06a18.73,18.73,0,0,0-4.19,3.62A22.12,22.12,0,0,1,4.79,15.3Z" transform="translate(-0.25 -5.48)"/><path class="cls-3" d="M.7,22.11c1.23-2.48,5.11-5,8.66-5.64s5.44.89,4.22,3.37a6.91,6.91,0,0,1-.68,1.05,9,9,0,0,0,2.16-2.64c1.37-2.77-.75-4.46-4.72-3.76S2,18,.66,20.79A3,3,0,0,0,.37,23.1,4,4,0,0,1,.7,22.11Z" transform="translate(-0.25 -5.48)"/><path class="cls-4" d="M3.77,24.58c-1-.81-.14-2.55,1.93-3.9s4.56-1.79,5.57-1a1.05,1.05,0,0,1,.31.39,1.21,1.21,0,0,0-.46-1.15C10,18,7.21,18.53,4.89,20s-3.27,3.45-2.14,4.35a2.52,2.52,0,0,0,1.54.45A2,2,0,0,1,3.77,24.58Z" transform="translate(-0.25 -5.48)"/></svg>