<svg xmlns="http://www.w3.org/2000/svg" xmlns:xlink="http://www.w3.org/1999/xlink" viewBox="0 0 600.77 595.83"><defs><style>.cls-1{opacity:0.85;}.cls-2{fill:#93a2ac;}.cls-117,.cls-146,.cls-2,.cls-54,.cls-87{opacity:0;}.cls-3{fill:#92a0ab;}.cls-118,.cls-147,.cls-3,.cls-55,.cls-88{opacity:0.04;}.cls-4{fill:#919fa9;}.cls-119,.cls-148,.cls-4,.cls-56,.cls-89{opacity:0.08;}.cls-5{fill:#909ea8;}.cls-120,.cls-149,.cls-5,.cls-57,.cls-90{opacity:0.12;}.cls-6{fill:#8f9ca7;}.cls-121,.cls-150,.cls-58,.cls-6,.cls-91{opacity:0.15;}.cls-7{fill:#8d9ba5;}.cls-122,.cls-151,.cls-59,.cls-7,.cls-92{opacity:0.19;}.cls-8{fill:#8c9aa4;}.cls-123,.cls-152,.cls-60,.cls-8,.cls-93{opacity:0.23;}.cls-9{fill:#8b99a3;}.cls-124,.cls-153,.cls-61,.cls-9,.cls-94{opacity:0.27;}.cls-10{fill:#8a97a1;}.cls-10,.cls-125,.cls-154,.cls-62,.cls-95{opacity:0.31;}.cls-11{fill:#8996a0;}.cls-11,.cls-126,.cls-155,.cls-63,.cls-96{opacity:0.35;}.cls-12{fill:#88959f;}.cls-12,.cls-127,.cls-156,.cls-64,.cls-97{opacity:0.38;}.cls-13{fill:#87949d;}.cls-128,.cls-13,.cls-157,.cls-65,.cls-98{opacity:0.42;}.cls-14{fill:#86929c;}.cls-129,.cls-14,.cls-158,.cls-66,.cls-99{opacity:0.46;}.cls-15{fill:#85919b;}.cls-100,.cls-130,.cls-15,.cls-159,.cls-67{opacity:0.5;}.cls-16{fill:#839099;}.cls-101,.cls-131,.cls-16,.cls-160,.cls-68{opacity:0.54;}.cls-17{fill:#828f98;}.cls-102,.cls-132,.cls-161,.cls-17,.cls-69{opacity:0.58;}.cls-18{fill:#818d97;}.cls-103,.cls-133,.cls-162,.cls-18,.cls-70{opacity:0.62;}.cls-19{fill:#808c95;}.cls-104,.cls-134,.cls-163,.cls-19,.cls-71{opacity:0.65;}.cls-20{fill:#7f8b94;}.cls-105,.cls-135,.cls-164,.cls-20,.cls-72{opacity:0.69;}.cls-21{fill:#7e8a93;}.cls-106,.cls-136,.cls-165,.cls-21,.cls-73{opacity:0.73;}.cls-22{fill:#7d8891;}.cls-107,.cls-137,.cls-166,.cls-22,.cls-74{opacity:0.77;}.cls-23{fill:#7c8790;}.cls-108,.cls-138,.cls-167,.cls-23,.cls-75{opacity:0.81;}.cls-24{fill:#7b868f;}.cls-109,.cls-139,.cls-168,.cls-24,.cls-76{opacity:0.85;}.cls-25{fill:#79858d;}.cls-110,.cls-140,.cls-169,.cls-25,.cls-77{opacity:0.88;}.cls-26{fill:#78838c;}.cls-111,.cls-141,.cls-170,.cls-26,.cls-78{opacity:0.92;}.cls-27{fill:#77828b;}.cls-112,.cls-142,.cls-171,.cls-27,.cls-79{opacity:0.96;}.cls-28{fill:#768189;}.cls-29{fill:#1a2e26;}.cls-30{fill:#1f352d;}.cls-31{fill:#335347;}.cls-32{fill:#274554;}.cls-33{fill:#4a7a8d;}.cls-34{fill:#649edc;}.cls-35{fill:#233d6e;}.cls-36{fill:#315792;}.cls-37{fill:url(#linear-gradient);}.cls-38{fill:#3d5a85;}.cls-39{fill:#302a60;}.cls-40{fill:url(#linear-gradient-2);}.cls-41{fill:url(#linear-gradient-3);}.cls-42{fill:#4c75a9;}.cls-43{fill:#4274c7;}.cls-44{fill:#5786b8;}.cls-45{fill:#4c7a6a;}.cls-46{fill:#335246;}.cls-47{fill:url(#linear-gradient-4);}.cls-48{fill:url(#linear-gradient-5);}.cls-49{fill:url(#linear-gradient-6);}.cls-50{fill:url(#linear-gradient-7);}.cls-51{fill:url(#linear-gradient-8);}.cls-52{fill:url(#linear-gradient-9);}.cls-53{opacity:0.58;}.cls-54{fill:#223c52;}.cls-55{fill:#223b51;}.cls-56{fill:#223a51;}.cls-57{fill:#223950;}.cls-58{fill:#223850;}.cls-59{fill:#22374f;}.cls-60{fill:#22364f;}.cls-61{fill:#22354e;}.cls-62{fill:#22344d;}.cls-63{fill:#22334d;}.cls-64{fill:#22324c;}.cls-65{fill:#22314c;}.cls-66{fill:#22304b;}.cls-67,.cls-68{fill:#222f4a;}.cls-69{fill:#222e49;}.cls-70{fill:#222d49;}.cls-71{fill:#222c48;}.cls-72{fill:#222b48;}.cls-73{fill:#222a47;}.cls-74{fill:#232946;}.cls-75{fill:#232846;}.cls-76{fill:#232745;}.cls-77{fill:#232645;}.cls-78{fill:#232544;}.cls-79{fill:#232444;}.cls-80{fill:#232343;}.cls-81{fill:#43768e;}.cls-82{fill:#67a5fb;}.cls-83{fill:url(#linear-gradient-10);}.cls-115,.cls-145,.cls-175,.cls-179,.cls-84{fill:none;stroke-miterlimit:10;}.cls-84{stroke:#67a5fb;}.cls-85{fill:#f6f354;}.cls-85,.cls-86{fill-rule:evenodd;}.cls-116,.cls-86{fill:#383838;}.cls-100,.cls-101,.cls-102,.cls-103,.cls-104,.cls-105,.cls-106,.cls-107,.cls-108,.cls-109,.cls-110,.cls-111,.cls-112,.cls-113,.cls-87,.cls-88,.cls-89,.cls-90,.cls-91,.cls-92,.cls-93,.cls-94,.cls-95,.cls-96,.cls-97,.cls-98,.cls-99{fill:#1d1538;}.cls-114{fill:url(#linear-gradient-11);}.cls-115{stroke:#233d6e;}.cls-117{fill:#632144;}.cls-118{fill:#622043;}.cls-119{fill:#612042;}.cls-120{fill:#602042;}.cls-121{fill:#5f1f41;}.cls-122{fill:#5e1f40;}.cls-123{fill:#5d1f40;}.cls-124{fill:#5c1e3f;}.cls-125{fill:#5b1e3f;}.cls-126{fill:#5a1e3e;}.cls-127{fill:#5a1d3d;}.cls-128{fill:#591d3d;}.cls-129{fill:#581d3c;}.cls-130{fill:#571c3b;}.cls-131{fill:#561c3b;}.cls-132{fill:#551c3a;}.cls-133{fill:#541b39;}.cls-134{fill:#531b39;}.cls-135{fill:#521b38;}.cls-136,.cls-137{fill:#511a37;}.cls-138{fill:#501a36;}.cls-139{fill:#4f1935;}.cls-140{fill:#4e1935;}.cls-141{fill:#4d1934;}.cls-142{fill:#4c1833;}.cls-143{fill:#4b1833;}.cls-144{fill:url(#linear-gradient-12);}.cls-145{stroke:#4c75a9;}.cls-146,.cls-147,.cls-148,.cls-149,.cls-150,.cls-151,.cls-152,.cls-153,.cls-154,.cls-155,.cls-156,.cls-157,.cls-158,.cls-159,.cls-160,.cls-161,.cls-162,.cls-163,.cls-164,.cls-165,.cls-166,.cls-167,.cls-168,.cls-169,.cls-170,.cls-171,.cls-172{fill:#253f5f;}.cls-173{fill:#3d5a8d;}.cls-174{fill:url(#linear-gradient-13);}.cls-175{stroke:#3d5a8d;}.cls-176{fill:url(#DÈgradÈ_sans_nom_18);}.cls-177{fill:url(#linear-gradient-14);}.cls-178{fill:#e4811e;}.cls-179{stroke:#68aecd;}</style><linearGradient id="linear-gradient" x1="283.89" y1="451.26" x2="341.37" y2="458.09" gradientUnits="userSpaceOnUse"><stop offset="0" stop-color="#fff"/><stop offset="1" stop-color="#fff" stop-opacity="0"/></linearGradient><linearGradient id="linear-gradient-2" x1="494.59" y1="200.2" x2="596.25" y2="200.2" xlink:href="#linear-gradient"/><linearGradient id="linear-gradient-3" x1="319.02" y1="474.98" x2="589.48" y2="474.98" xlink:href="#linear-gradient"/><linearGradient id="linear-gradient-4" x1="306.77" y1="151.61" x2="400.35" y2="151.61" gradientUnits="userSpaceOnUse"><stop offset="0" stop-color="#8cc7f1"/><stop offset="1" stop-color="#68aecd"/></linearGradient><linearGradient id="linear-gradient-5" x1="315.16" y1="140.08" x2="225.13" y2="132.87" gradientUnits="userSpaceOnUse"><stop offset="0" stop-color="#467c9a"/><stop offset="1" stop-color="#68aecd"/><stop offset="1" stop-color="#467c9a"/></linearGradient><linearGradient id="linear-gradient-6" x1="291.74" y1="381.48" x2="282.17" y2="424.54" xlink:href="#linear-gradient"/><linearGradient id="linear-gradient-7" x1="623.42" y1="222.82" x2="565.39" y2="222.25" xlink:href="#linear-gradient"/><linearGradient id="linear-gradient-8" x1="488.99" y1="375.1" x2="481.41" y2="428.17" gradientTransform="translate(5.16 0.11) rotate(-0.28)" xlink:href="#linear-gradient"/><linearGradient id="linear-gradient-9" x1="173.87" y1="114.3" x2="200.67" y2="110.61" xlink:href="#linear-gradient"/><linearGradient id="linear-gradient-10" x1="-164.88" y1="138.3" x2="-168.13" y2="166.5" gradientTransform="translate(469.32 -22.52) rotate(14.48)" gradientUnits="userSpaceOnUse"><stop offset="0" stop-color="#fff"/><stop offset="1" stop-color="#d7d7d7"/></linearGradient><linearGradient id="linear-gradient-11" x1="9" y1="221.95" x2="5.15" y2="255.43" gradientTransform="matrix(0.99, -0.1, 0.1, 0.99, 434.86, -129.79)" xlink:href="#linear-gradient-10"/><linearGradient id="linear-gradient-12" x1="-77.31" y1="295.96" x2="-81.73" y2="334.36" gradientTransform="translate(672.21 29.84) rotate(44.03)" xlink:href="#linear-gradient-10"/><linearGradient id="linear-gradient-13" x1="-360.1" y1="281.32" x2="-366.22" y2="334.57" gradientTransform="translate(383.36 -115.79) rotate(-19.79)" xlink:href="#linear-gradient-10"/><linearGradient id="DÈgradÈ_sans_nom_18" x1="142.37" y1="278.65" x2="152.78" y2="291.06" gradientUnits="userSpaceOnUse"><stop offset="0" stop-color="#4e4e4e"/><stop offset="1" stop-color="#202020"/></linearGradient><linearGradient id="linear-gradient-14" x1="-82.59" y1="449.08" x2="-88.31" y2="498.78" gradientTransform="translate(383.36 -115.79) rotate(-19.79)" xlink:href="#linear-gradient-10"/></defs><title>Recurso 66</title><g id="Capa_2" data-name="Capa 2"><g id="Capa_3" data-name="Capa 3"><g class="cls-1"><path class="cls-2" d="M404.36,439.29c-27.1.41-106.77-8.32-169.59-16.06-9.51-1.17-18.74-2.34-27.63-3.52C141.72,411.05,95.27,402,96.62,388.28c1.1-11.21,17.62-18.67,37.21-24.23,7.47-2.13,15.39-4,23.07-5.66,35.42-7.73,98.3-16.84,151.25-24.9,9.89-1.5,19.43-3,28.38-4.38C388,321,429.81,313.55,463,305.71c70.22-16.62,101.41-35.16,101.41-66.54,0-1.66-.08-3.27-.21-4.84-2.61-29.73-30.11-41.44-86-52.31-22.65-4.41-50-8.68-82.17-14-10.34-1.7-20.75-3.38-31.13-5-26.94-4.31-53.62-8.49-78-12.53-34.89-5.78-65.11-11.26-84.75-16.38-15.25-4-24.13-7.72-23.85-11.22.27-3.31,3.53-7.54,13.77-11.59,8.86-3.5,22.94-6.86,44.83-9.36,18.57-2.12,42.74-3.63,74.11-4.08-29.76-3-58.89-4.35-84.07-3.34-18.93.77-35.64,2.86-48.68,6.56-13.64,3.88-23.3,9.51-27.33,17.23-6.89,13.18.05,23.71,10.07,29,5,2.66,10.1,5.08,15.39,7.32,23.61,10,51.25,16.26,93.34,23.34,24.19,4.07,53.17,8.41,88.89,13.87l13,2c36.4,5.6,66.21,10,89.11,14.35,37.06,7.09,55.94,14.21,55,26.49a13.68,13.68,0,0,1-.45,2.67c-3.41,11.95-39.87,19.06-92,25.14-40.44,4.72-90.32,8.83-141.56,14.11-23.46,2.42-47.21,5.08-70.46,8.16C149.49,293,101.19,302.51,66.46,316.39,22.77,333.84.56,358.14,0,395.2c-.85,57.53,69.08,88.51,146.79,105.25,61.56,13.26,163.81,25.31,203.84,26.85L318,580.75,600.68,447.51l-175.12-43Z"/><path class="cls-3" d="M404.65,438.23c-27.1.42-105.39-8-168.21-15.75-9.51-1.17-18.74-2.34-27.63-3.52-65.42-8.66-111.87-17.73-110.52-31.44,1.1-11.2,17.62-18.66,37.21-24.23,7.48-2.12,15.39-4,23.07-5.65,35.42-7.74,98.3-16.84,151.26-24.9,9.88-1.51,19.42-3,28.37-4.39,51.42-8.13,93.29-15.55,126.45-23.4,70.22-16.61,100.87-35.15,100.87-66.53,0-1.67-.07-3.28-.21-4.84-2.61-29.74-29.65-41.33-85.5-52.2-22.65-4.41-49.88-8.8-82.09-14.08-10.33-1.69-20.75-3.37-31.13-5-26.94-4.31-53.61-8.5-78-12.54-34.89-5.78-65.11-11.26-84.75-16.37-15.25-4-24.12-7.72-23.84-11.22.26-3.31,3.52-7.54,13.76-11.59,8.86-3.5,22.94-6.86,44.84-9.37,18.56-2.12,42.74-3.62,74.11-4.08-29.77-3-58.89-4.35-84.08-3.33-18.93.76-35.63,2.85-48.68,6.56-13.64,3.87-23.29,9.51-27.33,17.23-6.89,13.18.06,23.71,10.08,29,5,2.66,10.09,5.08,15.38,7.31,23.62,10,51.25,16.26,93.34,23.35,24.19,4.07,53.17,8.41,88.89,13.86l13,2c36.4,5.59,66.21,10,89.12,14.35,37.06,7.09,55.93,14.2,55,26.48a13.06,13.06,0,0,1-.45,2.68c-3.41,11.95-39.87,19-92,25.14-40.44,4.72-90.32,8.83-141.56,14.11C260,278.28,236.23,280.94,213,284c-61.8,8.19-110.1,17.74-144.84,31.61-43.69,17.46-65.9,41.75-66.45,78.82C.83,452,70.76,483,148.47,499.69c61.56,13.27,162.44,25,202.47,26.55L318.31,579.7,600.68,447.18,425.86,403.5Z"/><path class="cls-4" d="M405,437.18c-27.1.42-104-7.72-166.84-15.46-9.51-1.17-18.74-2.34-27.62-3.51C145.06,409.54,98.62,400.48,100,386.77c1.1-11.21,17.63-18.66,37.21-24.23,7.48-2.13,15.4-4,23.08-5.66C195.66,349.15,258.54,340,311.5,332c9.88-1.5,19.42-3,28.37-4.38,51.42-8.14,93.29-15.55,126.46-23.4,70.22-16.61,100.33-35.16,100.33-66.54,0-1.66-.08-3.27-.22-4.84-2.61-29.73-29.18-41.21-85-52.08-22.65-4.41-49.81-8.91-82-14.19-10.34-1.7-20.76-3.38-31.13-5-26.94-4.3-53.62-8.49-78-12.53-34.89-5.78-65.11-11.26-84.75-16.38-15.25-4-24.12-7.72-23.84-11.22.26-3.31,3.53-7.54,13.77-11.59,8.85-3.5,22.93-6.86,44.83-9.36,18.56-2.12,42.74-3.63,74.11-4.08C284.6,93.32,255.48,92,230.3,93c-18.94.77-35.64,2.86-48.69,6.56-13.63,3.88-23.29,9.51-27.33,17.23-6.88,13.18.06,23.71,10.08,29,5,2.66,10.09,5.08,15.39,7.32,23.61,10,51.24,16.26,93.34,23.34,24.19,4.07,53.16,8.41,88.88,13.87l13,2c36.4,5.59,66.22,10,89.12,14.34,37.06,7.1,55.94,14.21,55,26.49a13,13,0,0,1-.45,2.67c-3.41,11.95-39.87,19.06-92,25.15-40.44,4.71-90.32,8.82-141.55,14.1-23.47,2.42-47.21,5.08-70.47,8.16-61.8,8.19-110.1,17.73-144.83,31.61C26.12,332.33,3.9,356.63,3.35,393.69c-.85,57.53,69.08,88.51,146.8,105.25,61.56,13.26,161,24.72,201.08,26.25L318.6,578.65,600.68,446.86,426.15,402.45Z"/><path class="cls-5" d="M405.24,436.13c-27.1.42-102.64-7.42-165.45-15.16-9.52-1.17-18.75-2.34-27.63-3.52-65.43-8.66-111.87-17.73-110.53-31.44,1.1-11.2,17.63-18.66,37.22-24.23,7.47-2.12,15.39-4,23.07-5.65,35.41-7.74,98.29-16.84,151.25-24.9,9.88-1.5,19.42-3,28.37-4.39,51.42-8.13,93.29-15.55,126.46-23.4,70.22-16.61,99.79-35.15,99.79-66.53,0-1.67-.07-3.28-.21-4.84C565,202.33,538.86,191,483,180.1c-22.65-4.41-49.72-9-81.93-14.31-10.34-1.69-20.75-3.37-31.13-5-26.94-4.31-53.62-8.5-78-12.54-34.88-5.78-65.1-11.26-84.74-16.37-15.25-4-24.13-7.72-23.85-11.22.26-3.31,3.53-7.54,13.77-11.59,8.86-3.5,22.94-6.86,44.83-9.36,18.56-2.13,42.74-3.63,74.11-4.08-29.77-3-58.89-4.36-84.07-3.34-18.93.76-35.64,2.85-48.68,6.56-13.64,3.87-23.3,9.51-27.33,17.23-6.89,13.18,0,23.71,10.07,29,5,2.66,10.1,5.08,15.39,7.31,23.61,10,51.24,16.26,93.34,23.35,24.19,4.07,53.16,8.41,88.89,13.87l13,2c36.41,5.59,66.22,10,89.12,14.35,37.06,7.09,55.94,14.2,55,26.48a13.81,13.81,0,0,1-.46,2.68c-3.41,11.95-39.86,19-92,25.14C387.9,265,338,269.08,286.78,274.36c-23.46,2.41-47.21,5.08-70.47,8.16-61.8,8.18-110.1,17.73-144.83,31.6C27.79,331.58,5.57,355.88,5,392.94c-.85,57.53,69.08,88.5,146.8,105.25,61.56,13.26,159.68,24.42,199.71,25.95L318.9,577.6,600.69,446.53,426.45,401.4Z"/><path class="cls-6" d="M405.54,435.08c-27.1.42-101.26-7.13-164.08-14.87-9.51-1.17-18.74-2.34-27.63-3.51C148.41,408,102,399,103.31,385.26c1.1-11.21,17.62-18.66,37.21-24.23,7.47-2.13,15.39-4,23.07-5.66,35.41-7.73,98.3-16.84,151.25-24.9,9.89-1.5,19.43-3,28.38-4.38,51.42-8.14,93.28-15.55,126.45-23.4,70.22-16.61,99.26-35.16,99.26-66.53,0-1.67-.08-3.28-.22-4.84-2.61-29.74-28.26-41-84.11-51.86C462,175.05,435,170.32,402.74,165c-10.34-1.7-20.75-3.37-31.13-5-26.94-4.31-53.62-8.5-78-12.54-34.89-5.78-65.11-11.26-84.75-16.38-15.25-4-24.13-7.72-23.85-11.22.27-3.3,3.53-7.54,13.77-11.58,8.86-3.5,22.94-6.87,44.83-9.37,18.57-2.12,42.74-3.63,74.11-4.08-29.76-3-58.89-4.35-84.07-3.34-18.93.77-35.64,2.86-48.68,6.56-13.64,3.88-23.3,9.51-27.33,17.24-6.89,13.17.05,23.7,10.07,29,5,2.66,10.1,5.08,15.39,7.32,23.61,10,51.25,16.26,93.34,23.34,24.19,4.07,53.17,8.41,88.89,13.87l13,2c36.41,5.59,66.22,10,89.12,14.35,37.06,7.09,55.94,14.2,55,26.48a13,13,0,0,1-.46,2.67c-3.4,12-39.86,19.06-92,25.15-40.44,4.72-90.32,8.82-141.56,14.1C265,276,241.24,278.68,218,281.76,156.18,290,107.88,299.5,73.15,313.37,29.46,330.82,7.25,355.12,6.7,392.18c-.85,57.54,69.07,88.51,146.79,105.25,61.56,13.26,158.3,24.13,198.33,25.66l-32.63,53.46,281.5-130.34-174-45.86Z"/><path class="cls-7" d="M405.83,434c-27.1.42-99.88-6.83-162.7-14.57-9.51-1.17-18.74-2.34-27.63-3.52C150.08,407.28,103.63,398.21,105,384.5c1.1-11.2,17.62-18.66,37.21-24.23,7.47-2.12,15.39-4,23.07-5.65,35.42-7.74,98.3-16.84,151.25-24.9,9.89-1.5,19.43-3,28.38-4.39,51.42-8.13,93.28-15.55,126.45-23.4,70.22-16.61,98.72-35.15,98.72-66.53,0-1.67-.08-3.27-.21-4.84-2.61-29.74-27.8-40.87-83.66-51.74-22.65-4.41-49.57-9.26-81.78-14.54-10.33-1.69-20.75-3.37-31.13-5-26.94-4.31-53.61-8.49-78-12.54-34.89-5.77-65.11-11.26-84.75-16.37-15.25-4-24.12-7.72-23.85-11.22.27-3.31,3.53-7.54,13.77-11.59,8.86-3.5,22.94-6.86,44.83-9.36C263.84,96,288,94.54,319.39,94.09c-29.77-3-58.89-4.36-84.08-3.34-18.93.76-35.63,2.85-48.68,6.56-13.64,3.88-23.29,9.51-27.33,17.23-6.89,13.18.06,23.71,10.07,29,5,2.66,10.1,5.08,15.39,7.31,23.61,10,51.25,16.26,93.34,23.35,24.19,4.07,53.17,8.41,88.89,13.87l13,2c36.4,5.59,66.21,10,89.12,14.35,37.06,7.09,55.93,14.21,55,26.49a13.08,13.08,0,0,1-.45,2.67c-3.41,12-39.87,19.06-92,25.14-40.44,4.72-90.32,8.83-141.56,14.11-23.46,2.42-47.2,5.08-70.46,8.16-61.81,8.18-110.1,17.73-144.84,31.61-43.69,17.45-65.9,41.75-66.45,78.81C7.52,449,77.45,479.93,155.16,496.68c61.56,13.26,156.93,23.83,197,25.36L319.49,575.5l281.2-129.62L427,399.29Z"/><path class="cls-8" d="M406.13,433c-27.1.42-98.51-6.53-161.33-14.27-9.51-1.18-18.74-2.35-27.62-3.52-65.43-8.67-111.88-17.73-110.53-31.44,1.1-11.21,17.63-18.66,37.21-24.23,7.48-2.13,15.4-4,23.08-5.65,35.41-7.74,98.29-16.85,151.25-24.9,9.88-1.51,19.42-3,28.37-4.39C398,316.44,439.85,309,473,301.18c70.22-16.61,98.17-35.16,98.17-66.53,0-1.67-.07-3.28-.21-4.84-2.61-29.74-27.34-40.76-83.19-51.63-22.65-4.41-49.5-9.37-81.7-14.65-10.34-1.7-20.76-3.37-31.14-5-26.94-4.31-53.61-8.5-78-12.54-34.89-5.78-65.11-11.26-84.75-16.37-15.25-4-24.12-7.73-23.84-11.23.26-3.3,3.53-7.54,13.77-11.58,8.85-3.5,22.93-6.86,44.83-9.37,18.56-2.12,42.74-3.63,74.11-4.08C291.29,90.31,262.17,89,237,90c-18.94.76-35.64,2.85-48.69,6.55-13.63,3.88-23.29,9.51-27.33,17.24-6.88,13.18.06,23.7,10.08,29,5,2.66,10.09,5.08,15.39,7.32,23.61,10,51.24,16.26,93.33,23.34,24.2,4.07,53.17,8.41,88.89,13.87l13,2c36.4,5.59,66.22,10,89.12,14.35,37.06,7.09,55.94,14.2,55,26.48a13,13,0,0,1-.45,2.67c-3.41,12-39.87,19.06-92,25.15-40.44,4.72-90.32,8.82-141.55,14.1-23.47,2.42-47.21,5.08-70.47,8.16-61.8,8.19-110.1,17.74-144.83,31.61C32.81,329.31,10.59,353.61,10,390.68c-.85,57.53,69.08,88.5,146.8,105.24,61.55,13.27,155.54,23.54,195.57,25.07l-32.63,53.46L600.7,445.56,427.33,398.24Z"/><path class="cls-9" d="M406.42,431.93c-27.1.41-97.13-6.24-159.94-14-9.52-1.17-18.75-2.34-27.63-3.52C153.42,405.77,107,396.7,108.32,383c1.1-11.2,17.63-18.66,37.22-24.22,7.47-2.13,15.39-4,23.07-5.66,35.41-7.73,98.29-16.84,151.25-24.9,9.88-1.5,19.42-3,28.37-4.39,51.42-8.13,93.29-15.55,126.46-23.39,70.22-16.62,97.64-35.16,97.64-66.54,0-1.66-.08-3.27-.22-4.84-2.61-29.73-26.87-40.64-82.72-51.51-22.66-4.41-49.42-9.49-81.63-14.77-10.34-1.69-20.76-3.37-31.13-5-26.94-4.31-53.62-8.49-78-12.54-34.88-5.77-65.11-11.25-84.74-16.37-15.25-4-24.13-7.72-23.85-11.22.26-3.31,3.53-7.54,13.77-11.59,8.86-3.5,22.94-6.86,44.83-9.36,18.56-2.13,42.74-3.63,74.11-4.08-29.77-3-58.89-4.36-84.07-3.34C219.72,90,203,92.09,190,95.8c-13.64,3.88-23.3,9.51-27.33,17.23-6.89,13.18,0,23.71,10.07,29,5,2.66,10.1,5.08,15.39,7.31,23.61,10,51.24,16.26,93.34,23.35,24.19,4.07,53.16,8.41,88.88,13.87l13,2c36.41,5.59,66.22,10,89.12,14.35,37.06,7.09,55.94,14.21,55,26.49a13.08,13.08,0,0,1-.45,2.67c-3.41,11.95-39.87,19.06-92,25.14-40.44,4.72-90.31,8.83-141.55,14.11-23.46,2.42-47.21,5.08-70.47,8.16-61.8,8.18-110.1,17.73-144.83,31.61-43.69,17.45-65.91,41.75-66.46,78.81-.85,57.53,69.08,88.5,146.8,105.25,61.56,13.26,154.17,23.23,194.19,24.77l-32.62,53.45L600.7,445.23l-173.07-48Z"/><path class="cls-10" d="M406.72,430.88c-27.1.41-95.75-5.94-158.57-13.68-9.51-1.18-18.74-2.35-27.63-3.52C155.1,405,108.65,396,110,382.24c1.1-11.2,17.62-18.66,37.21-24.23,7.47-2.12,15.39-4,23.07-5.65,35.41-7.74,98.3-16.84,151.25-24.9,9.89-1.51,19.43-3,28.37-4.39,51.43-8.13,93.29-15.55,126.46-23.4,70.22-16.61,97.1-35.16,97.1-66.53,0-1.67-.08-3.28-.21-4.84-2.61-29.74-26.42-40.53-82.27-51.4-22.65-4.41-49.34-9.6-81.55-14.88-10.34-1.69-20.75-3.37-31.13-5-26.94-4.31-53.62-8.5-78-12.54-34.89-5.78-65.11-11.26-84.75-16.37-15.25-4-24.13-7.73-23.85-11.22.27-3.31,3.53-7.55,13.77-11.59,8.86-3.5,22.94-6.86,44.83-9.37,18.57-2.12,42.74-3.63,74.11-4.08-29.76-3-58.89-4.35-84.07-3.33-18.93.76-35.64,2.85-48.68,6.56-13.64,3.87-23.3,9.51-27.33,17.23-6.89,13.18.05,23.7,10.07,29,5,2.65,10.1,5.07,15.39,7.31,23.61,10,51.25,16.26,93.34,23.34,24.19,4.08,53.17,8.42,88.89,13.87l13,2c36.41,5.59,66.22,10,89.12,14.35,37.06,7.09,55.94,14.2,55,26.48a13,13,0,0,1-.46,2.67c-3.4,12-39.86,19.06-92,25.15-40.44,4.72-90.32,8.83-141.56,14.1-23.46,2.42-47.21,5.08-70.46,8.16-61.81,8.19-110.11,17.74-144.84,31.61C36.15,327.8,13.93,352.1,13.39,389.17c-.86,57.53,69.07,88.5,146.79,105.24C221.74,507.68,313,517.35,353,518.89l-32.63,53.45L600.7,444.9,427.92,396.14Z"/><path class="cls-11" d="M407,429.82c-27.1.42-94.37-5.64-157.19-13.38-9.51-1.17-18.74-2.34-27.63-3.52-65.42-8.66-111.87-17.73-110.52-31.43,1.1-11.21,17.62-18.67,37.21-24.23,7.47-2.13,15.39-4,23.07-5.66,35.42-7.73,98.3-16.84,151.25-24.9,9.89-1.5,19.43-3,28.38-4.39C403,314.18,444.86,306.76,478,298.92c70.22-16.62,96.57-35.16,96.57-66.54,0-1.66-.08-3.27-.22-4.84-2.61-29.73-26-40.41-81.8-51.28-22.65-4.4-49.27-9.71-81.48-15-10.34-1.7-20.75-3.38-31.13-5-26.94-4.31-53.61-8.49-78-12.53-34.89-5.78-65.11-11.26-84.75-16.38-15.25-4-24.12-7.72-23.85-11.22.27-3.31,3.53-7.54,13.77-11.59C216,101,230.07,97.65,252,95.15c18.57-2.12,42.75-3.63,74.12-4.08-29.77-3-58.89-4.35-84.08-3.34-18.93.77-35.63,2.86-48.68,6.56C179.68,98.17,170,103.8,166,111.52c-6.89,13.18.06,23.71,10.07,29,5,2.66,10.1,5.08,15.39,7.32,23.61,10,51.25,16.26,93.34,23.34,24.19,4.07,53.17,8.41,88.89,13.87l13,2c36.4,5.59,66.21,10,89.12,14.35,37.06,7.09,55.93,14.21,55,26.49a13,13,0,0,1-.45,2.67c-3.41,11.95-39.87,19.06-92,25.14-40.44,4.72-90.32,8.83-141.56,14.11-23.46,2.42-47.21,5.08-70.46,8.16-61.81,8.18-110.11,17.73-144.84,31.61-43.69,17.45-65.9,41.75-66.45,78.81-.85,57.53,69.08,88.51,146.79,105.25,61.56,13.26,151.42,22.64,191.44,24.17l-32.62,53.46,280-126.71L428.22,395.09Z"/><path class="cls-12" d="M407.31,428.77c-27.11.42-93-5.34-155.82-13.08-9.51-1.18-18.74-2.34-27.62-3.52-65.43-8.66-111.88-17.73-110.53-31.44,1.1-11.2,17.62-18.66,37.21-24.23,7.48-2.12,15.39-4,23.08-5.65C209,343.11,271.92,334,324.88,326c9.88-1.51,19.42-3,28.37-4.39,51.42-8.13,93.29-15.55,126.45-23.4,70.22-16.61,96-35.16,96-66.53,0-1.67-.08-3.28-.22-4.84-2.6-29.74-25.49-40.3-81.34-51.17-22.65-4.4-49.19-9.83-81.39-15.11-10.34-1.69-20.76-3.37-31.14-5-26.94-4.31-53.61-8.5-78-12.54-34.89-5.78-65.11-11.26-84.75-16.37-15.25-4-24.12-7.73-23.84-11.22.26-3.31,3.52-7.54,13.77-11.59,8.85-3.5,22.93-6.86,44.83-9.37,18.56-2.12,42.74-3.63,74.11-4.08C298,87.29,268.86,86,243.67,87c-18.93.76-35.63,2.85-48.68,6.56-13.64,3.87-23.29,9.51-27.33,17.23-6.89,13.18.06,23.7,10.08,29,5,2.65,10.09,5.07,15.39,7.31,23.61,10,51.24,16.26,93.33,23.35,24.19,4.07,53.17,8.41,88.89,13.86l13,2c36.4,5.59,66.22,10,89.12,14.35,37.06,7.09,55.94,14.2,55,26.48a13.17,13.17,0,0,1-.45,2.68c-3.41,11.95-39.87,19-92,25.14-40.44,4.72-90.32,8.83-141.56,14.11-23.46,2.41-47.2,5.07-70.46,8.15-61.8,8.19-110.1,17.74-144.84,31.61-43.69,17.46-65.9,41.75-66.45,78.82-.85,57.53,69.08,88.5,146.79,105.24,61.56,13.27,150,22.35,190.07,23.88L321,570.24l279.75-126L428.51,394Z"/><path class="cls-13" d="M407.6,427.72c-27.1.42-91.62-5.05-154.43-12.79-9.52-1.17-18.75-2.34-27.63-3.51C160.11,402.75,113.67,393.69,115,380c1.1-11.21,17.63-18.66,37.21-24.23,7.48-2.13,15.4-4,23.08-5.66,35.41-7.73,98.29-16.84,151.25-24.9,9.88-1.5,19.42-3,28.37-4.38,51.42-8.14,93.29-15.56,126.46-23.4,70.22-16.62,95.48-35.16,95.48-66.54,0-1.66-.07-3.27-.21-4.84-2.61-29.73-25-40.18-80.88-51.05-22.65-4.4-49.11-9.94-81.32-15.22-10.34-1.7-20.76-3.38-31.13-5-26.94-4.31-53.62-8.49-78-12.53-34.88-5.78-65.11-11.26-84.75-16.38-15.24-4-24.12-7.72-23.84-11.22.26-3.31,3.53-7.54,13.77-11.59,8.86-3.5,22.94-6.86,44.83-9.36,18.56-2.12,42.74-3.63,74.11-4.08-29.77-3-58.89-4.35-84.07-3.34-18.94.77-35.64,2.86-48.68,6.56-13.64,3.88-23.3,9.51-27.34,17.23-6.88,13.18.06,23.71,10.08,29,5,2.66,10.1,5.08,15.39,7.32,23.61,10,51.24,16.26,93.34,23.34,24.19,4.07,53.16,8.41,88.88,13.87l13,2c36.4,5.6,66.22,10,89.12,14.35,37.06,7.09,55.94,14.21,55,26.49a13,13,0,0,1-.45,2.67c-3.41,12-39.87,19.06-92,25.14-40.44,4.72-90.32,8.83-141.55,14.11-23.47,2.42-47.21,5.08-70.47,8.16-61.8,8.19-110.1,17.73-144.83,31.61C41.17,325.54,19,349.84,18.4,386.9c-.85,57.53,69.08,88.51,146.8,105.25,61.56,13.26,148.66,22.05,188.68,23.58l-32.62,53.46L600.71,443.93,428.81,393Z"/><path class="cls-14" d="M407.9,426.67c-27.11.42-90.25-4.75-153.06-12.49-9.51-1.17-18.74-2.34-27.63-3.52-65.42-8.66-111.87-17.73-110.53-31.44,1.1-11.2,17.63-18.66,37.22-24.23,7.47-2.12,15.39-4,23.07-5.65,35.41-7.74,98.3-16.84,151.25-24.9,9.89-1.51,19.42-3,28.37-4.39,51.43-8.13,93.29-15.55,126.46-23.4C553.27,280,578,261.5,578,230.12c0-1.67-.08-3.28-.22-4.84-2.61-29.74-24.57-40.06-80.42-50.93-22.65-4.41-49-10.07-81.24-15.35-10.34-1.69-20.75-3.37-31.13-5-26.94-4.31-53.62-8.5-78-12.54-34.88-5.78-65.1-11.26-84.74-16.37-15.25-4-24.13-7.72-23.85-11.22.27-3.31,3.53-7.54,13.77-11.59,8.86-3.5,22.94-6.86,44.83-9.37,18.57-2.12,42.74-3.62,74.11-4.07-29.77-3-58.89-4.36-84.07-3.34-18.93.76-35.64,2.85-48.68,6.56C184.7,95.9,175,101.54,171,109.26c-6.89,13.18.05,23.71,10.07,29,5,2.66,10.1,5.08,15.39,7.31,23.61,10,51.25,16.26,93.34,23.35C314,173,343,177.36,378.7,182.82l13,2c36.41,5.59,66.22,10,89.12,14.35,37.06,7.09,55.94,14.2,55,26.48a13.09,13.09,0,0,1-.46,2.68c-3.41,12-39.86,19.05-92,25.14-40.44,4.72-90.32,8.83-141.56,14.11-23.46,2.41-47.21,5.08-70.46,8.16-61.81,8.18-110.11,17.73-144.84,31.6-43.69,17.46-65.91,41.76-66.45,78.82-.86,57.53,69.07,88.5,146.79,105.25,61.56,13.26,147.28,21.75,187.31,23.28l-32.63,53.46L600.72,443.6,429.1,391.93Z"/><path class="cls-15" d="M408.19,425.62c-27.1.42-88.86-4.46-151.68-12.2-9.51-1.17-18.74-2.34-27.63-3.51-65.42-8.67-111.87-17.73-110.52-31.44,1.1-11.21,17.62-18.66,37.21-24.23,7.47-2.13,15.39-4,23.07-5.66,35.42-7.73,98.3-16.84,151.25-24.9,9.89-1.5,19.43-3,28.38-4.38,51.42-8.14,93.28-15.55,126.45-23.4,70.22-16.61,94.41-35.16,94.41-66.54,0-1.66-.08-3.27-.21-4.84-2.61-29.73-24.11-39.94-80-50.81-22.65-4.41-49-10.18-81.17-15.46-10.34-1.7-20.75-3.38-31.13-5-26.94-4.3-53.61-8.49-78-12.53-34.89-5.78-65.11-11.26-84.75-16.38-15.25-4-24.13-7.72-23.85-11.22.27-3.31,3.53-7.54,13.77-11.58,8.86-3.51,22.94-6.87,44.83-9.37,18.57-2.12,42.74-3.63,74.11-4.08-29.76-3-58.89-4.35-84.07-3.34-18.93.77-35.64,2.86-48.68,6.56-13.64,3.88-23.29,9.51-27.33,17.23-6.89,13.18.06,23.71,10.07,29,5,2.66,10.1,5.08,15.39,7.32,23.61,10,51.25,16.26,93.34,23.34,24.19,4.07,53.17,8.41,88.89,13.87l13,2c36.4,5.59,66.21,10,89.11,14.35,37.07,7.09,55.94,14.2,55,26.48a13.68,13.68,0,0,1-.45,2.67c-3.41,11.95-39.87,19.06-92,25.15-40.44,4.71-90.32,8.82-141.56,14.1C280,269.23,256.29,271.89,233,275c-61.81,8.19-110.11,17.73-144.84,31.61C44.51,324,22.3,348.33,21.75,385.39c-.85,57.53,69.08,88.51,146.79,105.25,61.56,13.26,145.91,21.46,185.93,23l-32.62,53.46L600.72,443.28,429.4,390.88Z"/><path class="cls-16" d="M408.49,424.57c-27.11.42-87.49-4.16-150.31-11.9-9.51-1.17-18.74-2.34-27.62-3.52-65.43-8.66-111.88-17.73-110.53-31.44,1.1-11.2,17.62-18.66,37.21-24.23,7.48-2.12,15.39-4,23.07-5.65,35.42-7.74,98.3-16.84,151.26-24.9,9.88-1.5,19.42-3,28.37-4.39,51.42-8.13,93.29-15.55,126.45-23.4,70.22-16.61,93.87-35.15,93.87-66.53,0-1.67-.07-3.28-.21-4.84-2.61-29.74-23.64-39.83-79.5-50.7-22.65-4.41-48.88-10.3-81.09-15.58-10.33-1.69-20.75-3.37-31.13-5-26.94-4.31-53.61-8.5-78-12.54-34.89-5.78-65.11-11.26-84.75-16.37-15.25-4-24.12-7.72-23.84-11.22.26-3.31,3.52-7.54,13.76-11.59,8.86-3.5,22.94-6.86,44.84-9.36,18.56-2.13,42.74-3.63,74.11-4.08-29.77-3-58.89-4.36-84.08-3.34-18.93.76-35.63,2.85-48.68,6.56C188,94.39,178.39,100,174.35,107.75c-6.89,13.18.06,23.71,10.08,29,5,2.66,10.09,5.08,15.38,7.31,23.62,10,51.25,16.26,93.34,23.35,24.19,4.07,53.17,8.41,88.89,13.87l13,2c36.4,5.59,66.21,10,89.12,14.35,37.06,7.09,55.93,14.2,55,26.49a13.08,13.08,0,0,1-.45,2.67c-3.41,11.95-39.87,19.05-92,25.14-40.44,4.72-90.32,8.83-141.56,14.11-23.46,2.41-47.2,5.08-70.46,8.16-61.8,8.18-110.1,17.73-144.84,31.6C46.18,323.28,24,347.58,23.42,384.64c-.85,57.53,69.08,88.5,146.79,105.25,61.56,13.26,144.53,21.16,184.56,22.69L322.14,566,600.72,443l-171-53.12Z"/><path class="cls-17" d="M408.78,423.52c-27.1.41-86.11-3.87-148.93-11.61-9.51-1.17-18.74-2.34-27.62-3.51C166.8,399.73,120.36,390.67,121.7,377c1.1-11.21,17.63-18.66,37.21-24.23,7.48-2.13,15.4-4,23.08-5.65,35.41-7.74,98.29-16.85,151.25-24.9,9.88-1.51,19.42-3,28.37-4.39,51.42-8.14,93.29-15.55,126.46-23.4,70.22-16.61,93.33-35.16,93.33-66.53,0-1.67-.08-3.28-.22-4.84-2.61-29.74-23.18-39.72-79-50.59-22.65-4.41-48.8-10.41-81-15.69-10.34-1.7-20.76-3.37-31.13-5-26.94-4.31-53.62-8.5-78-12.54-34.89-5.78-65.11-11.26-84.75-16.38-15.25-4-24.12-7.72-23.84-11.22.26-3.3,3.53-7.54,13.77-11.58,8.86-3.5,22.93-6.87,44.83-9.37,18.56-2.12,42.74-3.63,74.11-4.08-29.77-3-58.89-4.35-84.07-3.33-18.94.76-35.64,2.85-48.68,6.55C189.72,93.64,180.06,99.27,176,107c-6.88,13.17.06,23.7,10.08,29,5,2.66,10.1,5.08,15.39,7.32,23.61,10,51.24,16.26,93.34,23.34,24.19,4.07,53.16,8.41,88.88,13.87l13,2c36.4,5.59,66.22,10,89.12,14.35,37.06,7.09,55.94,14.2,55,26.48a13,13,0,0,1-.45,2.67c-3.41,11.95-39.87,19.06-92,25.15C408,255.92,358.08,260,306.85,265.3c-23.47,2.42-47.21,5.08-70.47,8.16-61.8,8.19-110.1,17.74-144.83,31.61-43.69,17.45-65.91,41.75-66.46,78.82-.85,57.53,69.08,88.5,146.8,105.24C233.45,502.39,315,510,355.06,511.53L322.43,565l278.3-122.36L430,388.78Z"/><path class="cls-18" d="M409.08,422.47c-27.11.41-84.74-3.57-147.55-11.31-9.52-1.17-18.75-2.34-27.63-3.52C168.48,399,122,389.91,123.37,376.2,124.47,365,141,357.54,160.59,352c7.47-2.12,15.39-4,23.07-5.65,35.41-7.74,98.3-16.84,151.25-24.9,9.88-1.5,19.42-3,28.37-4.39,51.43-8.13,93.29-15.55,126.46-23.39C560,277,582.53,258.48,582.53,227.1c0-1.67-.07-3.27-.21-4.84-2.61-29.74-22.72-39.6-78.58-50.47C481.09,167.38,455,161.26,422.81,156c-10.34-1.69-20.75-3.37-31.13-5-26.94-4.31-53.62-8.49-78-12.54-34.88-5.77-65.1-11.25-84.74-16.37-15.25-4-24.13-7.72-23.85-11.22.26-3.31,3.53-7.54,13.77-11.59,8.86-3.5,22.94-6.86,44.83-9.36,18.57-2.13,42.74-3.63,74.11-4.08-29.77-3-58.89-4.36-84.07-3.34C234.78,83.21,218.07,85.3,205,89c-13.64,3.88-23.3,9.51-27.33,17.23-6.89,13.18.05,23.71,10.07,29,5,2.66,10.1,5.08,15.39,7.31,23.61,10,51.24,16.26,93.34,23.35,24.19,4.07,53.16,8.41,88.89,13.87l13,2c36.41,5.59,66.22,10,89.12,14.35,37.06,7.09,55.94,14.21,55,26.49a13.12,13.12,0,0,1-.46,2.67c-3.41,11.95-39.86,19.06-92,25.14-40.44,4.72-90.32,8.83-141.56,14.11-23.46,2.42-47.21,5.08-70.46,8.16C176.25,280.89,128,290.44,93.22,304.32c-43.69,17.45-65.91,41.75-66.45,78.81-.86,57.53,69.07,88.5,146.79,105.25,61.56,13.26,141.77,20.56,181.8,22.09l-32.63,53.46,278-121.63L430.28,387.73Z"/><path class="cls-19" d="M409.37,421.41c-27.1.42-83.35-3.26-146.17-11-9.51-1.18-18.74-2.35-27.63-3.52-65.42-8.66-111.87-17.73-110.52-31.44,1.1-11.2,17.62-18.66,37.21-24.23,7.47-2.13,15.39-4,23.07-5.65,35.42-7.74,98.3-16.84,151.25-24.9,9.89-1.51,19.43-3,28.38-4.39,51.42-8.14,93.28-15.55,126.45-23.4,70.22-16.61,92.26-35.16,92.26-66.53,0-1.67-.08-3.28-.22-4.84-2.61-29.74-22.26-39.49-78.11-50.36-22.65-4.41-48.65-10.64-80.86-15.92-10.34-1.7-20.75-3.37-31.13-5-26.94-4.31-53.62-8.5-78-12.54-34.89-5.78-65.11-11.26-84.75-16.37-15.25-4-24.13-7.73-23.85-11.23.27-3.3,3.53-7.54,13.77-11.58,8.86-3.5,22.94-6.86,44.83-9.37C283.91,87,308.08,85.48,339.45,85c-29.76-3-58.89-4.35-84.07-3.33-18.93.76-35.64,2.85-48.68,6.56-13.64,3.87-23.3,9.5-27.33,17.23-6.89,13.18,0,23.7,10.07,29,5,2.66,10.1,5.08,15.39,7.32,23.61,10,51.25,16.26,93.34,23.34,24.19,4.08,53.17,8.41,88.89,13.87l13,2c36.4,5.59,66.21,10,89.11,14.35,37.06,7.09,55.94,14.2,55,26.48a13.68,13.68,0,0,1-.45,2.67c-3.41,12-39.87,19.06-92,25.15-40.44,4.72-90.32,8.83-141.56,14.1-23.46,2.42-47.21,5.08-70.46,8.16-61.81,8.19-110.11,17.74-144.84,31.61C51.2,321,29,345.31,28.44,382.38c-.85,57.53,69.07,88.5,146.79,105.24,61.56,13.27,140.4,20.27,180.42,21.8L323,562.88,600.74,442,430.58,386.68Z"/><path class="cls-20" d="M409.67,420.36c-27.11.42-82-3-144.8-10.71-9.51-1.17-18.74-2.34-27.63-3.52-65.42-8.66-111.87-17.73-110.52-31.44,1.1-11.2,17.62-18.66,37.21-24.22,7.48-2.13,15.39-4,23.07-5.66,35.42-7.73,98.3-16.84,151.26-24.9,9.88-1.5,19.42-3,28.37-4.39,51.42-8.13,93.29-15.55,126.45-23.39C563.3,275.51,584.8,257,584.8,225.59c0-1.66-.08-3.27-.21-4.84-2.61-29.73-21.8-39.37-77.66-50.24-22.65-4.41-48.57-10.75-80.78-16-10.33-1.69-20.75-3.37-31.13-5-26.94-4.31-53.61-8.49-78-12.53-34.89-5.78-65.11-11.26-84.75-16.38-15.25-4-24.12-7.72-23.84-11.22.26-3.31,3.52-7.54,13.76-11.59,8.86-3.5,22.94-6.86,44.84-9.36,18.56-2.13,42.74-3.63,74.11-4.08-29.77-3-58.89-4.36-84.08-3.34-18.93.77-35.63,2.85-48.68,6.56C194.73,91.38,185.08,97,181,104.73c-6.89,13.18.06,23.71,10.08,29,5,2.66,10.09,5.08,15.38,7.32,23.62,10,51.25,16.25,93.34,23.34,24.19,4.07,53.17,8.41,88.89,13.87l13,2c36.4,5.59,66.21,10,89.12,14.35,37.06,7.09,55.93,14.21,55,26.49a13.08,13.08,0,0,1-.45,2.67c-3.41,12-39.87,19.06-92,25.14C413,253.65,363.1,257.76,311.86,263c-23.46,2.42-47.2,5.08-70.46,8.16-61.8,8.18-110.1,17.73-144.84,31.61-43.69,17.45-65.9,41.75-66.45,78.81-.85,57.53,69.08,88.5,146.79,105.25,61.56,13.26,139,20,179,21.5l-32.63,53.46L600.74,441.65l-169.87-56Z"/><path class="cls-21" d="M410,419.31c-27.1.42-80.6-2.67-143.42-10.41-9.51-1.18-18.74-2.34-27.62-3.52-65.43-8.66-111.87-17.73-110.53-31.44,1.1-11.2,17.63-18.66,37.21-24.23,7.48-2.12,15.4-4,23.08-5.65,35.41-7.74,98.29-16.84,151.25-24.9,9.88-1.51,19.42-3,28.37-4.39,51.42-8.13,93.29-15.55,126.46-23.4,70.22-16.61,91.17-35.16,91.17-66.53,0-1.67-.07-3.28-.21-4.84-2.61-29.74-21.34-39.26-77.19-50.13-22.65-4.41-48.5-10.87-80.7-16.15-10.34-1.69-20.76-3.37-31.13-5-26.95-4.31-53.62-8.5-78-12.54-34.89-5.78-65.11-11.26-84.75-16.37-15.25-4-24.12-7.73-23.84-11.22.26-3.31,3.53-7.54,13.77-11.59,8.85-3.5,22.93-6.86,44.83-9.37,18.56-2.12,42.74-3.63,74.11-4.08-29.77-3-58.89-4.35-84.07-3.33C239.79,81,223.09,83,210,86.75c-13.63,3.87-23.29,9.51-27.33,17.23-6.88,13.18.06,23.7,10.08,29,5,2.65,10.09,5.07,15.39,7.31,23.61,10,51.24,16.26,93.33,23.34,24.2,4.08,53.17,8.42,88.89,13.87l13,2c36.4,5.59,66.22,10,89.12,14.35,37.06,7.09,55.94,14.2,55,26.48a13,13,0,0,1-.45,2.67c-3.41,12-39.87,19.06-92,25.15-40.44,4.72-90.32,8.83-141.55,14.1-23.47,2.42-47.21,5.08-70.47,8.16-61.8,8.19-110.1,17.74-144.83,31.61C54.55,319.5,32.33,343.8,31.78,380.87c-.85,57.53,69.08,88.5,146.8,105.24,61.56,13.27,137.64,19.68,177.66,21.21l-32.63,53.46L600.74,441.32,431.17,384.58Z"/><path class="cls-22" d="M410.26,418.26c-27.11.42-79.23-2.38-142-10.12-9.52-1.17-18.75-2.34-27.63-3.52C175.16,396,128.72,386.9,130.06,373.19c1.1-11.21,17.63-18.67,37.22-24.23,7.47-2.13,15.39-4,23.07-5.66,35.41-7.73,98.29-16.84,151.25-24.9,9.88-1.5,19.42-3,28.37-4.38,51.42-8.14,93.29-15.56,126.46-23.4,70.22-16.62,90.64-35.16,90.64-66.54,0-1.66-.08-3.27-.22-4.84-2.61-29.73-20.87-39.14-76.72-50-22.65-4.41-48.42-11-80.63-16.26-10.34-1.7-20.75-3.38-31.13-5-26.94-4.31-53.62-8.49-78-12.53-34.88-5.78-65.11-11.26-84.74-16.38-15.25-4-24.13-7.72-23.85-11.22.26-3.31,3.53-7.54,13.77-11.59,8.86-3.5,22.94-6.86,44.83-9.36,18.56-2.12,42.74-3.63,74.11-4.08-29.77-3-58.89-4.35-84.07-3.34-18.93.77-35.64,2.86-48.68,6.56-13.64,3.88-23.3,9.51-27.33,17.23-6.89,13.18.05,23.71,10.07,29,5,2.66,10.1,5.08,15.39,7.32,23.61,10,51.24,16.26,93.34,23.34,24.19,4.07,53.16,8.41,88.88,13.87l13,2c36.41,5.59,66.22,10,89.12,14.35,37.06,7.09,55.94,14.21,55,26.49a13.71,13.71,0,0,1-.46,2.67c-3.41,11.95-39.86,19.06-92,25.14-40.43,4.72-90.31,8.83-141.55,14.11-23.46,2.42-47.21,5.08-70.47,8.16-61.8,8.18-110.1,17.73-144.83,31.61C56.22,318.75,34,343.05,33.45,380.11c-.85,57.53,69.08,88.51,146.8,105.25,61.56,13.26,136.26,19.38,176.29,20.91l-32.63,53.46L600.75,441,431.46,383.52Z"/><path class="cls-23" d="M410.55,417.21c-27.1.42-77.84-2.08-140.66-9.82-9.51-1.17-18.74-2.34-27.63-3.52-65.42-8.66-111.87-17.73-110.52-31.44,1.1-11.2,17.62-18.66,37.21-24.23,7.47-2.12,15.39-4,23.07-5.65,35.41-7.74,98.3-16.84,151.25-24.9,9.89-1.51,19.43-3,28.38-4.39,51.42-8.13,93.28-15.55,126.45-23.4,70.22-16.61,90.1-35.15,90.1-66.53,0-1.67-.08-3.28-.21-4.84-2.61-29.74-20.42-39-76.27-49.9-22.65-4.4-48.34-11.1-80.55-16.38-10.34-1.69-20.75-3.37-31.13-5-26.94-4.31-53.62-8.5-78-12.54-34.89-5.78-65.11-11.26-84.75-16.37-15.25-4-24.13-7.72-23.85-11.22.27-3.31,3.53-7.54,13.77-11.59,8.86-3.5,22.94-6.86,44.83-9.37C290.6,84,314.77,82.47,346.14,82c-29.76-3-58.89-4.35-84.07-3.33-18.93.76-35.64,2.85-48.68,6.56-13.64,3.87-23.3,9.51-27.33,17.23-6.89,13.18.05,23.71,10.07,29,5,2.66,10.1,5.08,15.39,7.31,23.61,10,51.25,16.26,93.34,23.35,24.19,4.07,53.17,8.41,88.89,13.86l13,2c36.41,5.59,66.22,10,89.12,14.35,37.06,7.09,55.94,14.2,55,26.48a13.09,13.09,0,0,1-.46,2.68c-3.4,11.95-39.86,19.05-92,25.14-40.44,4.72-90.32,8.83-141.56,14.11-23.46,2.41-47.21,5.07-70.46,8.15-61.81,8.19-110.11,17.74-144.84,31.61C57.89,318,35.68,342.29,35.13,379.36c-.85,57.53,69.07,88.5,146.79,105.24,61.56,13.27,134.89,19.09,174.91,20.62L324.2,558.68l276.55-118-169-58.2Z"/><path class="cls-24" d="M410.85,416.16c-27.11.42-76.47-1.79-139.29-9.53-9.51-1.17-18.74-2.34-27.63-3.51-65.42-8.67-111.87-17.73-110.52-31.44,1.1-11.21,17.62-18.66,37.21-24.23,7.47-2.13,15.39-4,23.07-5.66,35.42-7.73,98.3-16.84,151.25-24.9,9.89-1.5,19.43-3,28.38-4.38,51.42-8.14,93.28-15.55,126.45-23.4C570,272.49,589.34,254,589.34,222.57c0-1.66-.08-3.27-.22-4.84-2.61-29.73-20-38.91-75.8-49.78-22.65-4.4-48.27-11.21-80.48-16.49-10.34-1.7-20.75-3.38-31.13-5-26.94-4.3-53.61-8.49-78-12.53-34.89-5.78-65.11-11.26-84.75-16.38-15.25-4-24.12-7.72-23.85-11.22.27-3.31,3.53-7.54,13.77-11.59,8.86-3.5,22.94-6.86,44.83-9.36,18.57-2.12,42.75-3.63,74.12-4.08-29.77-3-58.89-4.35-84.08-3.34-18.93.77-35.63,2.86-48.68,6.56-13.64,3.88-23.29,9.51-27.33,17.23-6.89,13.18.06,23.71,10.07,29,5,2.66,10.1,5.08,15.39,7.32,23.61,10,51.25,16.26,93.34,23.34,24.19,4.07,53.17,8.41,88.89,13.87l13,2c36.4,5.59,66.21,10,89.12,14.34,37.06,7.1,55.93,14.21,55,26.49a13,13,0,0,1-.45,2.67c-3.41,11.95-39.87,19.06-92,25.14-40.44,4.72-90.32,8.83-141.56,14.11-23.46,2.42-47.2,5.08-70.46,8.16-61.81,8.19-110.11,17.73-144.84,31.61-43.69,17.45-65.9,41.75-66.45,78.81-.85,57.53,69.08,88.51,146.79,105.25,61.56,13.26,133.51,18.78,173.54,20.32L324.5,557.63,600.75,440.35l-168.7-58.93Z"/><path class="cls-25" d="M411.14,415.11c-27.1.41-75.09-1.49-137.91-9.23-9.51-1.17-18.74-2.34-27.62-3.52-65.43-8.66-111.88-17.73-110.53-31.44,1.1-11.2,17.63-18.66,37.21-24.23,7.48-2.12,15.4-4,23.08-5.65,35.41-7.74,98.29-16.84,151.25-24.9,9.88-1.51,19.42-3,28.37-4.39,51.42-8.13,93.29-15.55,126.46-23.4,70.22-16.61,89-35.15,89-66.53,0-1.67-.08-3.28-.21-4.84-2.61-29.74-19.5-38.79-75.35-49.66-22.65-4.41-48.19-11.34-80.39-16.62-10.34-1.69-20.76-3.37-31.14-5-26.94-4.31-53.61-8.5-78-12.54-34.89-5.78-65.11-11.26-84.75-16.37-15.25-4-24.12-7.72-23.84-11.22C217,102.23,220.3,98,230.55,94c8.85-3.5,22.93-6.86,44.83-9.36,18.56-2.13,42.74-3.63,74.11-4.08-29.77-3-58.89-4.36-84.07-3.34-18.94.76-35.64,2.85-48.69,6.56C203.1,87.6,193.44,93.24,189.4,101c-6.88,13.18.06,23.71,10.08,29,5,2.66,10.09,5.08,15.39,7.31,23.61,10,51.24,16.26,93.33,23.35,24.2,4.07,53.17,8.41,88.89,13.87l13,2c36.4,5.59,66.22,10,89.12,14.35,37.06,7.09,55.94,14.2,55,26.48a13.06,13.06,0,0,1-.45,2.68c-3.41,11.95-39.87,19-92,25.14-40.44,4.72-90.32,8.83-141.55,14.11-23.47,2.41-47.21,5.08-70.47,8.16-61.8,8.18-110.1,17.73-144.83,31.6C61.24,316.49,39,340.79,38.47,377.85c-.85,57.53,69.08,88.5,146.8,105.25,61.55,13.26,132.13,18.48,172.15,20l-32.63,53.45L600.76,440,432.34,380.37Z"/><path class="cls-26" d="M411.44,414.05c-27.11.42-73.72-1.19-136.53-8.93-9.52-1.17-18.75-2.34-27.63-3.51-65.43-8.67-111.87-17.73-110.53-31.44,1.1-11.21,17.63-18.66,37.22-24.23,7.47-2.13,15.39-4,23.07-5.66,35.41-7.73,98.29-16.84,151.25-24.9,9.88-1.5,19.42-3,28.37-4.38,51.42-8.14,93.29-15.55,126.46-23.4,70.22-16.61,88.48-35.16,88.48-66.53,0-1.67-.07-3.28-.21-4.84-2.61-29.74-19-38.68-74.88-49.55-22.65-4.41-48.11-11.45-80.32-16.73-10.34-1.7-20.76-3.37-31.13-5-26.94-4.31-53.62-8.5-78-12.54-34.88-5.78-65.11-11.26-84.74-16.38-15.25-4-24.13-7.72-23.85-11.22.26-3.3,3.53-7.54,13.77-11.58,8.86-3.5,22.94-6.87,44.83-9.37,18.56-2.12,42.74-3.63,74.11-4.08-29.77-3-58.89-4.35-84.07-3.34-18.94.77-35.64,2.86-48.68,6.56-13.64,3.88-23.3,9.51-27.33,17.23-6.89,13.18,0,23.71,10.07,29,5,2.66,10.1,5.08,15.39,7.32,23.61,10,51.24,16.26,93.34,23.34,24.19,4.07,53.16,8.41,88.88,13.87l13,2c36.41,5.59,66.22,10,89.12,14.35,37.06,7.09,55.94,14.2,55,26.48a13,13,0,0,1-.45,2.67c-3.41,12-39.87,19.06-92,25.15-40.44,4.71-90.31,8.82-141.55,14.1-23.46,2.42-47.21,5.08-70.47,8.16-61.8,8.19-110.1,17.74-144.83,31.61C62.91,315.73,40.69,340,40.14,377.09c-.85,57.53,69.08,88.51,146.8,105.25,61.56,13.26,130.75,18.19,170.78,19.72l-32.63,53.46L600.76,439.69,432.64,379.32Z"/><path class="cls-27" d="M411.73,413c-27.1.42-72.33-.89-135.15-8.63-9.51-1.17-18.74-2.34-27.63-3.52-65.42-8.66-111.87-17.73-110.52-31.44,1.1-11.2,17.62-18.66,37.21-24.23,7.47-2.12,15.39-4,23.07-5.65,35.41-7.74,98.3-16.84,151.25-24.9,9.89-1.5,19.43-3,28.37-4.39,51.43-8.13,93.29-15.55,126.46-23.4,70.22-16.61,87.95-35.15,87.95-66.53,0-1.67-.08-3.27-.22-4.84C589.91,185.73,574,176.91,518.1,166c-22.65-4.41-48-11.57-80.24-16.85-10.34-1.69-20.75-3.37-31.13-5-26.94-4.31-53.62-8.5-78-12.54-34.89-5.77-65.11-11.26-84.75-16.37-15.25-4-24.13-7.72-23.85-11.22.27-3.31,3.53-7.54,13.77-11.59,8.86-3.5,22.94-6.86,44.83-9.36C297.29,81,321.46,79.45,352.83,79c-29.76-3-58.89-4.36-84.07-3.34-18.93.76-35.64,2.85-48.68,6.56-13.64,3.87-23.3,9.51-27.33,17.23-6.89,13.18.05,23.71,10.07,29,5,2.66,10.1,5.08,15.39,7.31,23.61,10,51.25,16.26,93.34,23.35,24.19,4.07,53.17,8.41,88.89,13.87l13,2c36.41,5.59,66.22,10,89.12,14.35,37.06,7.09,55.94,14.2,55,26.49a13.12,13.12,0,0,1-.46,2.67c-3.4,12-39.86,19.05-92,25.14-40.44,4.72-90.32,8.83-141.56,14.11-23.46,2.41-47.21,5.08-70.46,8.16C191.3,274.1,143,283.65,108.27,297.52,64.58,315,42.36,339.28,41.82,376.34c-.86,57.53,69.07,88.5,146.79,105.25C250.17,494.85,318,499.48,358,501l-32.63,53.46,275.38-115.1-167.83-61.1Z"/><path class="cls-28" d="M412,412c-27.11.42-71-.59-133.78-8.34-9.51-1.17-18.74-2.34-27.63-3.51-65.42-8.67-111.87-17.73-110.52-31.44,1.1-11.21,17.62-18.66,37.21-24.23,7.47-2.13,15.39-4,23.07-5.65,35.42-7.74,98.3-16.85,151.25-24.9,9.89-1.51,19.43-3,28.38-4.39,51.42-8.14,93.28-15.55,126.45-23.4,70.22-16.61,87.41-35.16,87.41-66.53,0-1.67-.08-3.28-.21-4.84-2.61-29.74-18.11-38.45-74-49.32-22.65-4.41-48-11.68-80.17-17-10.34-1.7-20.75-3.37-31.13-5-26.94-4.31-53.61-8.5-78-12.54-34.89-5.78-65.11-11.26-84.75-16.37-15.25-4-24.12-7.73-23.85-11.23.27-3.3,3.53-7.54,13.77-11.58,8.86-3.5,22.94-6.87,44.83-9.37,18.57-2.12,42.75-3.63,74.12-4.08-29.77-3-58.89-4.35-84.08-3.33-18.93.76-35.63,2.85-48.68,6.55C208.11,85.34,198.46,91,194.42,98.7c-6.89,13.17.06,23.7,10.07,29,5,2.66,10.1,5.08,15.39,7.32,23.61,10,51.25,16.26,93.34,23.34,24.19,4.07,53.17,8.41,88.89,13.87l13,2c36.4,5.59,66.21,10,89.12,14.35,37.06,7.09,55.93,14.2,55,26.48a13,13,0,0,1-.45,2.67c-3.41,12-39.87,19.06-92,25.15-40.44,4.72-90.32,8.82-141.56,14.1-23.46,2.42-47.21,5.08-70.46,8.16C193,273.35,144.67,282.9,109.94,296.77,66.25,314.22,44,338.52,43.49,375.59c-.85,57.53,69.08,88.5,146.79,105.24,61.56,13.27,128,17.6,168,19.13l-32.63,53.46L600.77,439,433.23,377.22Z"/></g><path class="cls-29" d="M347.36,86.15V79.49S296.45,79.22,268,83l6.53,7.2C292.74,88.08,316.51,86.59,347.36,86.15Z"/><path class="cls-30" d="M274.49,90.16V83.54c-18.61.75-44.83,7.54-57.66,11.18l13.58,4.65C239.12,95.93,253,92.62,274.49,90.16Z"/><path class="cls-31" d="M216.88,116.16c.26-3.25,3.47-12.81,13.53-16.79V92.75l-13.58,2c-13.41,3.81-29.59,14.77-29.59,14.77s.07,6.66,0,9.71c-.17,8.32,5.42,13.92,12.63,17.75,4.92,2.61,9.92,5,15.13,7.19l25.32-16.94C225.33,123.29,216.6,119.6,216.88,116.16Z"/><path class="cls-32" d="M240.32,127.2,215,135v9.18c23.21,9.81,50.38,16,91.77,23l16.87-23.8C289.34,137.61,259.63,132.22,240.32,127.2Z"/><path class="cls-33" d="M323.64,143.29l-16.87,15v8.77c23.78,4,52.27,8.27,87.39,13.64l6.19-25.11C373.86,151.38,347.63,147.27,323.64,143.29Z"/><path class="cls-34" d="M596.46,230.49v-12s-33.63,7.64-47.77,7.57a13.42,13.42,0,0,1-.45,2.63c-3.35,11.75-39.19,18.73-90.48,24.72l39,40.94C565.8,278,596.46,261.34,596.46,230.49Z"/><path class="cls-35" d="M249.31,275.33c-60.77,8.05-108.26,17.44-142.4,31.08,24.43,16.73,51,34.3,66.23,45.33,7.35-2.09,15.13-3.91,22.69-5.56,34.81-7.61,96.64-16.56,148.7-24.48l0-10.53-25.92-43.86C295.52,269.68,272.17,272.3,249.31,275.33Z"/><path class="cls-36" d="M41.57,383.9c-.84,56.56,67.92,87,144.32,103.47L245.22,408c-64.32-8.52-110-17.44-108.67-30.91,1.09-11,17.33-19.88,36.59-25.35,0-3.14-.19-10.54-.19-10.54s-44.76-20.21-66-34.79c-39.51,15.78-65.34,66.08-65.34,66.08S41.61,381,41.57,383.9Z"/><path class="cls-37" d="M384.85,507.07c1.39,0,41.42-46.9,52.08-88.53-5.48-.68-56.57,6.22-164.55-7.09q-14-1.72-27.16-3.45L186,475.25l-.15,12.12C272.17,506,368.21,506.71,384.85,507.07Z"/><path class="cls-38" d="M496.76,294.38v-10.5l-39-30.44c-39.76,4.64-88.8,8.68-139.17,13.87l25.92,43.86,0,10.53c9.72-1.48,19.1-2.93,27.9-4.32C423,309.38,464.15,302.09,496.76,294.38Z"/><path class="cls-39" d="M431,160.57c-10.16-1.67-20.4-3.32-30.6-4.95L394.16,172v8.77l12.81,2c35.79,5.5,65.1,9.8,87.62,14.11l17.15-22.51C489.47,170,462.62,165.76,431,160.57Z"/><path class="cls-40" d="M596.25,225.73c-2.56-29.23-29.6-40.75-84.51-51.44L494.59,188v8.77c36.44,7,55,17.22,54.1,29.29C562.83,226.16,583.29,225.92,596.25,225.73Z"/><polygon class="cls-41" points="424.76 388.36 319.01 546.72 319.01 561.6 589.48 449.15 589.48 434.26 424.76 388.36"/><path class="cls-42" d="M41.57,371.87c-.84,56.57,67.92,87,144.32,103.48L245.22,396c-64.32-8.52-110-17.43-108.67-30.91,1.09-11,17.33-18.35,36.59-23.82-15.22-11-41.8-30.12-66.23-46.86C64,311.54,42.11,335.43,41.57,371.87Z"/><path class="cls-29" d="M347.36,79.53c-29.27-3-57.9-4.28-82.66-3.28l9.79,7.29C292.74,81.45,316.51,80,347.36,79.53Z"/><path class="cls-43" d="M384.85,495.05c1.39,0,41.42-46.9,52.08-88.54-5.48-.67-56.57,6.23-164.55-7.08q-14-1.73-27.16-3.46l-59.33,79.38C272.17,493.94,368.21,494.69,384.85,495.05Z"/><path class="cls-35" d="M249.31,263.31c-60.77,8-108.26,17.43-142.4,31.07,24.43,16.74,51,35.84,66.23,46.86,7.35-2.09,15.13-3.91,22.69-5.56,34.81-7.6,96.64-16.56,148.7-24.48l-25.94-55.92C295.52,257.66,272.17,260.28,249.31,263.31Z"/><path class="cls-34" d="M596.46,218.47c0-1.64-.07-3.22-.21-4.76-13,.18-33.42.43-47.56.36a13.2,13.2,0,0,1-.45,2.62c-3.35,11.76-39.19,18.74-90.48,24.73l39,42.46C565.8,267.55,596.46,249.32,596.46,218.47Z"/><path class="cls-42" d="M431,148.55c-10.16-1.67-20.4-3.32-30.6-5L394.16,172l12.81,2c35.79,5.5,65.1,9.8,87.62,14.11l17.15-25.76C489.47,157.94,462.62,153.74,431,148.55Z"/><path class="cls-44" d="M596.25,213.71c-2.56-29.24-29.6-40.75-84.51-51.44L494.59,188c36.44,7,55,14,54.1,26C562.83,214.14,583.29,213.89,596.25,213.71Z"/><path class="cls-38" d="M496.76,283.88l-39-42.46c-39.76,4.63-88.8,8.67-139.17,13.86l25.94,55.92c9.72-1.48,19.1-2.92,27.9-4.31C423,298.89,464.15,291.6,496.76,283.88Z"/><path class="cls-45" d="M216.88,104.14c.26-3.25,3.47-7.41,13.53-11.39l-13.58-10c-13.41,3.81-22.9,9.35-26.87,16.94-6.77,13,.06,23.31,9.91,28.54,4.92,2.61,9.92,5,15.13,7.19l25.32-20.2C225.33,111.27,216.6,107.58,216.88,104.14Z"/><path class="cls-46" d="M274.49,83.54l-9.79-7.29c-18.62.75-35,2.8-47.87,6.45l13.58,10C239.12,89.31,253,86,274.49,83.54Z"/><path class="cls-47" d="M323.64,131.27l-16.87,27c23.78,4,52.27,8.27,87.39,13.64l6.19-28.36C373.86,139.36,347.63,135.24,323.64,131.27Z"/><path class="cls-48" d="M240.32,115.17,215,135.37c23.21,9.81,50.38,16,91.77,22.95l16.87-27C289.34,125.59,259.63,120.2,240.32,115.17Z"/><polygon class="cls-35" points="424.76 373.48 319.01 546.72 589.48 434.26 424.76 373.48"/><path class="cls-49" d="M178.36,388.39s116.28,19.91,218.75,22.24C343.18,466.14,234,437.66,178.36,388.39Z"/><path class="cls-50" d="M548.6,171.7c28.6,8.2,53.61,25.38,44.78,58.07-7.28,26.93-44.81,36.48-62.91,42.52C567.53,251,592,193,548.6,171.7Z"/><polygon class="cls-51" points="427.6 378.97 398.03 430.68 577.49 434.34 427.6 378.97"/><path class="cls-52" d="M203.17,88.57c-6.7,3.14-14.94,10.71-15.18,20.37s8.21,18.32,21.47,22.15C203.17,119.61,198.93,106.34,203.17,88.57Z"/><g class="cls-53"><ellipse class="cls-54" cx="259.08" cy="135.41" rx="28.39" ry="6.55"/><ellipse class="cls-55" cx="259.6" cy="135.35" rx="27.48" ry="6.34"/><ellipse class="cls-56" cx="260.12" cy="135.3" rx="26.56" ry="6.13"/><ellipse class="cls-57" cx="260.64" cy="135.24" rx="25.65" ry="5.92"/><ellipse class="cls-58" cx="261.16" cy="135.18" rx="24.74" ry="5.71"/><ellipse class="cls-59" cx="261.67" cy="135.12" rx="23.83" ry="5.5"/><ellipse class="cls-60" cx="262.19" cy="135.06" rx="22.91" ry="5.29"/><ellipse class="cls-61" cx="262.71" cy="135" rx="22" ry="5.08"/><ellipse class="cls-62" cx="263.23" cy="134.94" rx="21.09" ry="4.87"/><ellipse class="cls-63" cx="263.75" cy="134.89" rx="20.18" ry="4.66"/><ellipse class="cls-64" cx="264.27" cy="134.83" rx="19.26" ry="4.45"/><ellipse class="cls-65" cx="264.79" cy="134.77" rx="18.35" ry="4.24"/><ellipse class="cls-66" cx="265.31" cy="134.71" rx="17.44" ry="4.02"/><ellipse class="cls-67" cx="265.82" cy="134.65" rx="16.53" ry="3.81"/><ellipse class="cls-68" cx="266.34" cy="134.59" rx="15.61" ry="3.6"/><ellipse class="cls-69" cx="266.86" cy="134.54" rx="14.7" ry="3.39"/><ellipse class="cls-70" cx="267.38" cy="134.48" rx="13.79" ry="3.18"/><ellipse class="cls-71" cx="267.9" cy="134.42" rx="12.88" ry="2.97"/><ellipse class="cls-72" cx="268.42" cy="134.36" rx="11.96" ry="2.76"/><ellipse class="cls-73" cx="268.94" cy="134.3" rx="11.05" ry="2.55"/><ellipse class="cls-74" cx="269.45" cy="134.24" rx="10.14" ry="2.34"/><path class="cls-75" d="M279.2,134.18c0,1.18-4.13,2.13-9.23,2.13s-9.22-.95-9.22-2.13,4.13-2.13,9.22-2.13S279.2,133,279.2,134.18Z"/><path class="cls-76" d="M278.81,134.13c0,1.06-3.73,1.91-8.32,1.91s-8.31-.85-8.31-1.91,3.72-1.92,8.31-1.92S278.81,133.07,278.81,134.13Z"/><path class="cls-77" d="M278.41,134.07c0,.94-3.31,1.71-7.4,1.71s-7.4-.77-7.4-1.71,3.31-1.71,7.4-1.71S278.41,133.12,278.41,134.07Z"/><path class="cls-78" d="M278,134c0,.83-2.91,1.5-6.49,1.5S265,134.84,265,134s2.91-1.5,6.49-1.5S278,133.18,278,134Z"/><path class="cls-79" d="M277.62,134c0,.71-2.49,1.29-5.57,1.29s-5.58-.58-5.58-1.29,2.5-1.29,5.58-1.29S277.62,133.24,277.62,134Z"/><path class="cls-80" d="M277.23,133.89c0,.6-2.09,1.08-4.66,1.08s-4.67-.48-4.67-1.08,2.09-1.07,4.67-1.07S277.23,133.3,277.23,133.89Z"/></g><path class="cls-81" d="M301.47,58.7a30.73,30.73,0,1,0-57.84,20.81,32.13,32.13,0,0,0,1.84,4.14l23.38,51.11h3l26.83-49.42A30.7,30.7,0,0,0,301.47,58.7Z"/><path class="cls-82" d="M304.43,58.7a30.73,30.73,0,1,0-57.84,20.81,32.13,32.13,0,0,0,1.84,4.14l23.38,51.11L301.6,85.34A30.66,30.66,0,0,0,304.43,58.7Z"/><circle class="cls-83" cx="275.06" cy="70.26" r="23.45" transform="translate(8.19 167.06) rotate(-34.27)"/><circle class="cls-84" cx="275.06" cy="70.26" r="20.45" transform="translate(135.12 317.26) rotate(-74.79)"/><path class="cls-85" d="M274.21,62.15l.7,2.71-.22-3.14A1.65,1.65,0,0,1,274.21,62.15Z"/><path class="cls-86" d="M279,65.43a1.51,1.51,0,0,1-.22-.48,1.66,1.66,0,1,1,2.06,1.14,1.67,1.67,0,0,1-1.21-.11l-2,2.62a2.29,2.29,0,0,1,.18.29l6.58-1.51a2.45,2.45,0,0,1,.65-1.55,2.39,2.39,0,0,1,2.48-.63,13.06,13.06,0,0,0-11.31-8,2.24,2.24,0,0,1-.64.23l.74,10.21A2.59,2.59,0,0,1,277,68Z"/><path class="cls-86" d="M274.5,76.13a1.66,1.66,0,1,1-1.36-.2,1.59,1.59,0,0,1,.57-.06l1.17-3.64-.11,0-6.54,6.62a2.38,2.38,0,0,1,.11,2.34,13,13,0,0,0,6.08,2.1,2.42,2.42,0,0,1,.63-1.41,2.37,2.37,0,0,1,.92-.6L275.5,73Z"/><path class="cls-86" d="M288.5,69.14a2.4,2.4,0,0,1-3.35.07,2.57,2.57,0,0,1-.49-.66l-6.56,1.5a3.1,3.1,0,0,1-.09.61l6,3a1.65,1.65,0,0,1,.65-.36,1.66,1.66,0,1,1-1.14,2.06,1.62,1.62,0,0,1,0-1l-5.93-3a2.23,2.23,0,0,1-.19.24,2.42,2.42,0,0,1-.8.56l.51,8.93a2.38,2.38,0,0,1,1.27.62,2.32,2.32,0,0,1,.65,1.06,13,13,0,0,0,9.47-12.54C288.55,69.89,288.53,69.51,288.5,69.14Z"/><path class="cls-85" d="M268,67.45l-.22,0a2.53,2.53,0,0,1,.28,1l4.89.6-4.12-2.14A1.7,1.7,0,0,1,268,67.45Z"/><path class="cls-86" d="M273.34,70.29l-5.48-.66a2.82,2.82,0,0,1-.42.62A2.39,2.39,0,0,1,264,67a2.36,2.36,0,0,1,2-.74,1.66,1.66,0,0,1,3.21-.85,1.52,1.52,0,0,1,0,.76l4.62,2.4a1.39,1.39,0,0,1,.15-.19,2.36,2.36,0,0,1,.85-.57l-1.41-5.41a1.66,1.66,0,1,1,1.12-2.84l-.16-2.12-.28-.11A13,13,0,0,0,265,78a2.39,2.39,0,0,1,2.33,0l6.46-6.54A2.36,2.36,0,0,1,273.34,70.29Z"/><g class="cls-53"><ellipse class="cls-87" cx="452.95" cy="166.15" rx="51.84" ry="11.96"/><ellipse class="cls-88" cx="453.31" cy="166.19" rx="50.09" ry="11.56"/><ellipse class="cls-89" cx="453.68" cy="166.23" rx="48.34" ry="11.15"/><path class="cls-90" d="M500.63,166.27c0,5.94-20.86,10.75-46.59,10.75s-46.58-4.81-46.58-10.75,20.86-10.75,46.58-10.75S500.63,160.34,500.63,166.27Z"/><path class="cls-91" d="M499.24,166.31c0,5.72-20.07,10.35-44.83,10.35s-44.83-4.63-44.83-10.35S429.65,156,454.41,156,499.24,160.6,499.24,166.31Z"/><path class="cls-92" d="M497.85,166.36c0,5.49-19.29,9.94-43.08,9.94s-43.08-4.45-43.08-9.94,19.29-9.94,43.08-9.94S497.85,160.87,497.85,166.36Z"/><path class="cls-93" d="M496.46,166.4c0,5.27-18.5,9.54-41.32,9.54s-41.33-4.27-41.33-9.54,18.5-9.54,41.33-9.54S496.46,161.13,496.46,166.4Z"/><path class="cls-94" d="M495.08,166.44c0,5.05-17.72,9.13-39.58,9.13s-39.57-4.08-39.57-9.13,17.72-9.13,39.57-9.13S495.08,161.4,495.08,166.44Z"/><path class="cls-95" d="M493.69,166.48c0,4.82-16.94,8.73-37.82,8.73s-37.82-3.91-37.82-8.73,16.93-8.72,37.82-8.72S493.69,161.66,493.69,166.48Z"/><path class="cls-96" d="M492.3,166.53c0,4.59-16.15,8.32-36.07,8.32s-36.07-3.73-36.07-8.32,16.15-8.33,36.07-8.33S492.3,161.93,492.3,166.53Z"/><path class="cls-97" d="M490.91,166.57c0,4.37-15.36,7.92-34.31,7.92s-34.32-3.55-34.32-7.92,15.37-7.92,34.32-7.92S490.91,162.2,490.91,166.57Z"/><path class="cls-98" d="M489.52,166.61c0,4.15-14.57,7.52-32.56,7.52s-32.56-3.37-32.56-7.52S439,159.1,457,159.1,489.52,162.46,489.52,166.61Z"/><path class="cls-99" d="M488.14,166.65c0,3.93-13.8,7.11-30.81,7.11s-30.81-3.18-30.81-7.11,13.79-7.11,30.81-7.11S488.14,162.73,488.14,166.65Z"/><path class="cls-100" d="M486.75,166.7c0,3.7-13,6.7-29.06,6.7s-29.06-3-29.06-6.7,13-6.71,29.06-6.71S486.75,163,486.75,166.7Z"/><path class="cls-101" d="M485.36,166.74c0,3.48-12.22,6.3-27.3,6.3s-27.31-2.82-27.31-6.3,12.23-6.3,27.31-6.3S485.36,163.26,485.36,166.74Z"/><path class="cls-102" d="M484,166.78c0,3.26-11.44,5.9-25.55,5.9s-25.55-2.64-25.55-5.9,11.44-5.9,25.55-5.9S484,163.52,484,166.78Z"/><path class="cls-103" d="M482.59,166.82c0,3-10.66,5.5-23.8,5.5s-23.8-2.46-23.8-5.5,10.65-5.49,23.8-5.49S482.59,163.79,482.59,166.82Z"/><path class="cls-104" d="M481.2,166.87c0,2.81-9.87,5.08-22.05,5.08s-22-2.27-22-5.08,9.87-5.09,22-5.09S481.2,164.06,481.2,166.87Z"/><path class="cls-105" d="M479.81,166.91c0,2.58-9.09,4.68-20.29,4.68s-20.3-2.1-20.3-4.68,9.09-4.69,20.3-4.69S479.81,164.32,479.81,166.91Z"/><path class="cls-106" d="M478.42,167c0,2.36-8.3,4.28-18.54,4.28s-18.54-1.92-18.54-4.28,8.3-4.28,18.54-4.28S478.42,164.59,478.42,167Z"/><path class="cls-107" d="M477,167c0,2.14-7.52,3.88-16.79,3.88s-16.8-1.74-16.8-3.88,7.52-3.87,16.8-3.87S477,164.85,477,167Z"/><path class="cls-108" d="M475.65,167c0,1.92-6.73,3.48-15,3.48s-15-1.56-15-3.48,6.74-3.47,15-3.47S475.65,165.12,475.65,167Z"/><path class="cls-109" d="M474.26,167.08c0,1.69-5.95,3.06-13.28,3.06s-13.29-1.37-13.29-3.06S453.64,164,461,164,474.26,165.38,474.26,167.08Z"/><path class="cls-110" d="M472.87,167.12c0,1.47-5.16,2.66-11.53,2.66s-11.53-1.19-11.53-2.66,5.16-2.66,11.53-2.66S472.87,165.65,472.87,167.12Z"/><path class="cls-111" d="M471.49,167.16c0,1.25-4.38,2.26-9.79,2.26s-9.78-1-9.78-2.26,4.38-2.25,9.78-2.25S471.49,165.92,471.49,167.16Z"/><path class="cls-112" d="M470.1,167.2c0,1-3.6,1.86-8,1.86s-8-.83-8-1.86,3.6-1.85,8-1.85S470.1,166.18,470.1,167.2Z"/><path class="cls-113" d="M468.71,167.25c0,.8-2.81,1.45-6.28,1.45s-6.27-.65-6.27-1.45,2.81-1.45,6.27-1.45S468.71,166.45,468.71,167.25Z"/></g><path class="cls-81" d="M498.34,76.39a36.5,36.5,0,1,0-68.69,24.71,37.67,37.67,0,0,0,2.19,4.92l27.76,60.7h3.52L495,108A36.45,36.45,0,0,0,498.34,76.39Z"/><path class="cls-35" d="M501.86,76.39A36.5,36.5,0,1,0,435.36,106l27.76,60.7L498.5,108A36.45,36.45,0,0,0,501.86,76.39Z"/><circle class="cls-114" cx="466.99" cy="90.12" r="27.85" transform="translate(-8.02 113.92) rotate(-13.79)"/><path class="cls-115" d="M489.84,81.89a24.29,24.29,0,1,1-31.07-14.63A24.29,24.29,0,0,1,489.84,81.89Z"/><path class="cls-116" d="M453.47,92.4a14.78,14.78,0,0,1,1.57-.58c1.45-.42,2.87-.92,4.27-1.47a3.82,3.82,0,0,0,1.62-1.09,6.54,6.54,0,0,1,.76-.65h0a2.11,2.11,0,0,1-.35-.32,1.45,1.45,0,0,0-.43-.39.62.62,0,0,1-.34-.69,1.75,1.75,0,0,1,.12-.56,5.58,5.58,0,0,0,.48-1.37h.05a2.25,2.25,0,0,1-.09-.35,2.26,2.26,0,0,1-.55-.35,2.06,2.06,0,0,1-.31-.65,10.25,10.25,0,0,0-.56-1.58,1.88,1.88,0,0,1-.1-1c0-.32.31-.41.52-.57a10.38,10.38,0,0,1-.41-2.45c0-.14,0-.28,0-.42l-.7-.19c-.52-.12-1.06-.1-1.58-.26a1,1,0,0,0-.38,0c-.26,0-.5.1-.76.11a.83.83,0,0,0-.73.34.76.76,0,0,1-.32.2,1,1,0,0,0-.58.62c-.07.18-.19.34-.24.52s0,.38-.06.57a5.66,5.66,0,0,0-.08,1.16,7.13,7.13,0,0,0,.28,1.64c-.14.1-.33.16-.35.38a1.28,1.28,0,0,0,.07.67,6.22,6.22,0,0,1,.37,1,1.32,1.32,0,0,0,.21.43,1.59,1.59,0,0,0,.36.23,3.47,3.47,0,0,0,.43,1.12.82.82,0,0,1,.1.61c-.05.26-.11.51-.16.72a3.73,3.73,0,0,0-.5.44A2.54,2.54,0,0,1,454,89c-.94.37-1.88.7-2.85,1a7.65,7.65,0,0,0-1,.39A2.1,2.1,0,0,0,449,91.61c-.23.63-.46,1.25-.67,1.88a4.37,4.37,0,0,0-.22,1.24,3.35,3.35,0,0,0,.05.63.48.48,0,0,0,.48.4h2.56l.55-1.53A3.22,3.22,0,0,1,453.47,92.4Z"/><path class="cls-116" d="M481.74,96.44a5,5,0,0,0-.6-1.49,2.78,2.78,0,0,0-1.66-1.34c-.42-.12-.83-.28-1.24-.44-1.54-.6-3.05-1.27-4.64-1.75a2.36,2.36,0,0,1-1.18-.81,2.21,2.21,0,0,0-.65-.57,1,1,0,0,1-.51-1,2.45,2.45,0,0,1,.19-.85,8.66,8.66,0,0,0,.71-2,.5.5,0,0,0,.6-.24,4.66,4.66,0,0,0,.35-.87c.19-.68.35-1.36.52-2a.74.74,0,0,0,0-.14.46.46,0,0,0-.27-.54,2.91,2.91,0,0,0-.28-.1c0-.16.06-.27.09-.39a6.36,6.36,0,0,0-.56-4.39A4.37,4.37,0,0,0,470,75.06c-.35-.11-.71-.2-1.06-.29-.78-.18-1.6-.15-2.37-.39a1.63,1.63,0,0,0-.58,0c-.38,0-.74.16-1.14.16a1.34,1.34,0,0,0-1.09.51,1,1,0,0,1-.48.31,1.63,1.63,0,0,0-.87.93c-.1.27-.29.51-.36.78s0,.58-.09.86a7.84,7.84,0,0,0-.12,1.74,11,11,0,0,0,.42,2.46c-.21.16-.5.25-.52.57a1.79,1.79,0,0,0,.09,1,8.76,8.76,0,0,1,.57,1.58,1.86,1.86,0,0,0,.31.65,2.07,2.07,0,0,0,.54.34,5.44,5.44,0,0,0,.65,1.69,1.28,1.28,0,0,1,.15.92c-.08.38-.17.76-.24,1.07a5.81,5.81,0,0,0-.76.66,3.77,3.77,0,0,1-1.62,1.08c-1.4.55-2.82,1.06-4.27,1.48a11,11,0,0,0-1.57.58,3.11,3.11,0,0,0-1.77,1.85c-.34.93-.69,1.87-1,2.82a6.17,6.17,0,0,0-.33,1.86,4.21,4.21,0,0,0,.07.94.75.75,0,0,0,.73.61l.58,0,27.39.06h.44c.53,0,.73-.21.81-.75a4.32,4.32,0,0,0-.08-1.52C482.2,98.58,482,97.5,481.74,96.44Z"/><path class="cls-116" d="M486.9,94.56c-.14-.7-.18-.89-.33-1.59a4.65,4.65,0,0,0-.48-1.1,1.44,1.44,0,0,0-1-.73l-.86-.23c-1-.28-.36-.07-1.4-.38a13.89,13.89,0,0,1-1.64-.71c0-.32-.09-1.09-.36-1.15a1.32,1.32,0,0,0-.67.14.82.82,0,0,0-.2-.19c-.29-.15-.26-.73-.23-1s.38-.42.46-.59l.19-.42a3.2,3.2,0,0,0,2,1.38,5.07,5.07,0,0,1-.48-2.77h0a9.63,9.63,0,0,0-.08-4.94,2.4,2.4,0,0,0-3-1.94,5.29,5.29,0,0,0-3.59,0,6.38,6.38,0,0,1,0,3c0,.11-.06.23-.09.39a1.54,1.54,0,0,1,.28.09.46.46,0,0,1,.27.54s0,.1,0,.14c-.17.69-.33,1.37-.52,2a5.5,5.5,0,0,1-.36.87.48.48,0,0,1-.59.24,8.79,8.79,0,0,1-.64,1.87,2.21,2.21,0,0,0,1.63-1,3,3,0,0,0,.2.4c.12.19.44.39.41.6s-.11.5-.16.71a1.87,1.87,0,0,0-.27.36,1.42,1.42,0,0,0-.71-.17c-.31.07-.42,1.06-.33,1.24l-.18.11c.11.11.22.22.31.33a2.36,2.36,0,0,0,1.18.81c1.59.48,3.1,1.15,4.64,1.75.41.16.82.32,1.24.44a2.78,2.78,0,0,1,1.66,1.34,5.35,5.35,0,0,1,.6,1.49l0,.12h2.64c.35,0,.47-.14.53-.49A3,3,0,0,0,486.9,94.56Z"/><g class="cls-53"><ellipse class="cls-117" cx="386.51" cy="279.52" rx="51.84" ry="11.96"/><ellipse class="cls-118" cx="387.26" cy="279.38" rx="50.09" ry="11.56"/><ellipse class="cls-119" cx="388.01" cy="279.23" rx="48.34" ry="11.15"/><ellipse class="cls-120" cx="388.77" cy="279.09" rx="46.58" ry="10.75"/><ellipse class="cls-121" cx="389.52" cy="278.95" rx="44.83" ry="10.35"/><ellipse class="cls-122" cx="390.27" cy="278.8" rx="43.08" ry="9.94"/><ellipse class="cls-123" cx="391.03" cy="278.66" rx="41.33" ry="9.54"/><ellipse class="cls-124" cx="391.78" cy="278.51" rx="39.57" ry="9.13"/><ellipse class="cls-125" cx="392.53" cy="278.37" rx="37.82" ry="8.73"/><ellipse class="cls-126" cx="393.29" cy="278.23" rx="36.07" ry="8.32"/><ellipse class="cls-127" cx="394.04" cy="278.08" rx="34.32" ry="7.92"/><ellipse class="cls-128" cx="394.79" cy="277.94" rx="32.56" ry="7.51"/><ellipse class="cls-129" cx="395.54" cy="277.79" rx="30.81" ry="7.11"/><ellipse class="cls-130" cx="396.3" cy="277.65" rx="29.06" ry="6.71"/><ellipse class="cls-131" cx="397.05" cy="277.51" rx="27.31" ry="6.3"/><ellipse class="cls-132" cx="397.8" cy="277.36" rx="25.55" ry="5.9"/><ellipse class="cls-133" cx="398.56" cy="277.22" rx="23.8" ry="5.49"/><ellipse class="cls-134" cx="399.31" cy="277.08" rx="22.05" ry="5.09"/><ellipse class="cls-135" cx="400.06" cy="276.93" rx="20.3" ry="4.68"/><ellipse class="cls-136" cx="400.82" cy="276.79" rx="18.54" ry="4.28"/><ellipse class="cls-137" cx="401.57" cy="276.64" rx="16.79" ry="3.87"/><ellipse class="cls-138" cx="402.32" cy="276.5" rx="15.04" ry="3.47"/><ellipse class="cls-139" cx="403.08" cy="276.36" rx="13.29" ry="3.07"/><ellipse class="cls-140" cx="403.83" cy="276.21" rx="11.53" ry="2.66"/><ellipse class="cls-141" cx="404.58" cy="276.07" rx="9.78" ry="2.26"/><ellipse class="cls-142" cx="405.34" cy="275.92" rx="8.03" ry="1.85"/><ellipse class="cls-143" cx="406.09" cy="275.78" rx="6.28" ry="1.45"/></g><path class="cls-35" d="M447.14,173.25a41.86,41.86,0,0,0-78.77,28.34,40.94,40.94,0,0,0,2.51,5.64l31.83,69.6h4l36.53-67.3A41.79,41.79,0,0,0,447.14,173.25Z"/><path class="cls-42" d="M451.17,173.25a41.86,41.86,0,1,0-76.26,34l31.84,69.6,40.57-67.3A41.76,41.76,0,0,0,451.17,173.25Z"/><circle class="cls-144" cx="410.84" cy="188.99" r="31.94" transform="translate(59.94 474.26) rotate(-63.81)"/><circle class="cls-145" cx="411.18" cy="188.99" r="27.85" transform="translate(-21.73 320.8) rotate(-41.62)"/><path class="cls-86" d="M407,198.09l.08,0,.11-.06h0l1.07-.44h.05s1.12,0,2.43,0a21,21,0,0,0,2.5-.14,24.12,24.12,0,0,0,7.33-2,17.6,17.6,0,0,0,5.78-4.06,12.7,12.7,0,0,0,2.08-3h0a18.6,18.6,0,0,0,1-3.19c0-.2.06-.4.08-.61a10,10,0,0,0-1.25-6,15.38,15.38,0,0,0-6.48-6.06,24,24,0,0,0-9.07-2.61,26,26,0,0,0-8.92.72,20.45,20.45,0,0,0-8.06,4,13.32,13.32,0,0,0-3.29,3.91,10.17,10.17,0,0,0-.46,9.31,13.13,13.13,0,0,0,4,5.06c.38.31.77.59,1.22.94-.15.8-.3,1.55-.44,2.31-.28,1.43-.57,2.85-.82,4.29a1.63,1.63,0,0,0,1.21,1.9,2.15,2.15,0,0,0,1.73-.21c2.72-1.35,5.45-2.68,8.16-4.05Zm-3.79-2-2.31,1.12-.62.27.54-2.84c.07-.39.16-.78.24-1.18a1.73,1.73,0,0,0-.84-1.9c-.69-.45-1.38-.92-2-1.42a9.58,9.58,0,0,1-2.06-2.29,7.58,7.58,0,0,1-1.3-3.93,7.2,7.2,0,0,1,.71-3.32,10.1,10.1,0,0,1,2.89-3.56,15.73,15.73,0,0,1,5.69-2.89,21.71,21.71,0,0,1,14.59.75,13.87,13.87,0,0,1,4.55,3,9.51,9.51,0,0,1,1.85,2.56,7.2,7.2,0,0,1,0,6.37,9.69,9.69,0,0,1-2.58,3.28,15,15,0,0,1-4.41,2.58,21.51,21.51,0,0,1-9.76,1.32,2.82,2.82,0,0,0-1.57.3Z"/><path class="cls-86" d="M429.7,185.86a14.2,14.2,0,0,1-1,2.95,6.48,6.48,0,0,1,.52.89,5.23,5.23,0,0,1,.52,2.42,5.58,5.58,0,0,1-.95,2.88,7.06,7.06,0,0,1-1.51,1.67c-.47.37-1,.71-1.48,1a1.25,1.25,0,0,0-.61,1.39c0,.29.12.57.17.86.13.65.25,1.3.4,2.08l-.46-.2-1.69-.82-2.64-1.3a2,2,0,0,0-1.14-.22,15.75,15.75,0,0,1-7.13-1,10.78,10.78,0,0,1-1.24-.58l-.63,0c-1.17,0-2.31.09-2.53.07l-.78.32a13.26,13.26,0,0,0,3.4,2.21A18.06,18.06,0,0,0,416.3,202a20.18,20.18,0,0,0,3,.08,2.52,2.52,0,0,1,1.31.3c2.07,1,4.15,2.06,6.22,3.09a1.61,1.61,0,0,0,1.27.15,1.2,1.2,0,0,0,.88-1.39c-.18-1-.4-2.09-.6-3.14-.11-.55-.21-1.1-.33-1.69.33-.25.62-.46.89-.68a9.59,9.59,0,0,0,2.92-3.7,7.45,7.45,0,0,0-.34-6.81A9.38,9.38,0,0,0,429.7,185.86Z"/><ellipse class="cls-146" cx="113.39" cy="396.34" rx="51.84" ry="11.96"/><ellipse class="cls-147" cx="114.15" cy="396.19" rx="50.09" ry="11.56"/><ellipse class="cls-148" cx="114.9" cy="396.05" rx="48.34" ry="11.15"/><ellipse class="cls-149" cx="115.65" cy="395.91" rx="46.58" ry="10.75"/><ellipse class="cls-150" cx="116.41" cy="395.76" rx="44.83" ry="10.35"/><ellipse class="cls-151" cx="117.16" cy="395.62" rx="43.08" ry="9.94"/><ellipse class="cls-152" cx="117.91" cy="395.47" rx="41.33" ry="9.54"/><ellipse class="cls-153" cx="118.67" cy="395.33" rx="39.57" ry="9.13"/><ellipse class="cls-154" cx="119.42" cy="395.19" rx="37.82" ry="8.73"/><ellipse class="cls-155" cx="120.17" cy="395.04" rx="36.07" ry="8.32"/><ellipse class="cls-156" cx="120.92" cy="394.9" rx="34.32" ry="7.92"/><ellipse class="cls-157" cx="121.68" cy="394.76" rx="32.56" ry="7.51"/><ellipse class="cls-158" cx="122.43" cy="394.61" rx="30.81" ry="7.11"/><ellipse class="cls-159" cx="123.18" cy="394.47" rx="29.06" ry="6.71"/><ellipse class="cls-160" cx="123.94" cy="394.32" rx="27.31" ry="6.3"/><path class="cls-161" d="M150.24,394.18c0,3.26-11.44,5.9-25.55,5.9s-25.55-2.64-25.55-5.9,11.44-5.9,25.55-5.9S150.24,390.92,150.24,394.18Z"/><path class="cls-162" d="M149.24,394c0,3-10.65,5.49-23.8,5.49s-23.8-2.46-23.8-5.49,10.66-5.5,23.8-5.5S149.24,391,149.24,394Z"/><path class="cls-163" d="M148.25,393.89c0,2.81-9.88,5.09-22,5.09s-22-2.28-22-5.09,9.87-5.09,22-5.09S148.25,391.08,148.25,393.89Z"/><path class="cls-164" d="M147.25,393.75c0,2.59-9.09,4.68-20.3,4.68s-20.3-2.09-20.3-4.68,9.09-4.68,20.3-4.68S147.25,391.16,147.25,393.75Z"/><path class="cls-165" d="M146.25,393.61c0,2.36-8.31,4.27-18.55,4.27s-18.54-1.91-18.54-4.27,8.3-4.28,18.54-4.28S146.25,391.24,146.25,393.61Z"/><path class="cls-166" d="M145.25,393.46c0,2.14-7.52,3.88-16.79,3.88s-16.79-1.74-16.79-3.88,7.51-3.87,16.79-3.87S145.25,391.32,145.25,393.46Z"/><path class="cls-167" d="M144.25,393.32c0,1.91-6.73,3.47-15,3.47s-15-1.56-15-3.47,6.73-3.47,15-3.47S144.25,391.4,144.25,393.32Z"/><path class="cls-168" d="M143.25,393.17c0,1.7-5.95,3.07-13.29,3.07s-13.28-1.37-13.28-3.07,5.95-3.06,13.28-3.06S143.25,391.48,143.25,393.17Z"/><path class="cls-169" d="M142.25,393c0,1.47-5.16,2.66-11.53,2.66s-11.54-1.19-11.54-2.66,5.17-2.66,11.54-2.66S142.25,391.56,142.25,393Z"/><path class="cls-170" d="M141.25,392.89c0,1.24-4.38,2.25-9.78,2.25s-9.78-1-9.78-2.25,4.38-2.26,9.78-2.26S141.25,391.64,141.25,392.89Z"/><path class="cls-171" d="M140.25,392.74c0,1-3.59,1.85-8,1.85s-8-.82-8-1.85,3.6-1.85,8-1.85S140.25,391.72,140.25,392.74Z"/><path class="cls-172" d="M139.25,392.6c0,.8-2.81,1.45-6.27,1.45s-6.28-.65-6.28-1.45,2.81-1.45,6.28-1.45S139.25,391.8,139.25,392.6Z"/><path class="cls-42" d="M189.69,249.16a58.05,58.05,0,0,0-109.25,39.3,58.72,58.72,0,0,0,3.48,7.83l44.15,96.53h5.6l50.67-93.35A57.93,57.93,0,0,0,189.69,249.16Z"/><path class="cls-173" d="M195.28,249.16A58,58,0,0,0,86,288.46a58.72,58.72,0,0,0,3.48,7.83l44.15,96.53,56.27-93.35A57.9,57.9,0,0,0,195.28,249.16Z"/><path class="cls-174" d="M181.5,256a44.3,44.3,0,1,1-56.68-26.68A44.31,44.31,0,0,1,181.5,256Z"/><circle class="cls-175" cx="139.82" cy="270.99" r="38.62" transform="translate(-100.92 83.83) rotate(-24.85)"/><path class="cls-116" d="M164.78,267.87a.65.65,0,0,0-.85-.06,43.31,43.31,0,0,1-34.1,8.7l.48-5a.64.64,0,0,0-.9-.65l-18.86,8.59a.62.62,0,0,0-.37.52.64.64,0,0,0,.26.58l8.42,6.05,8.41,6a.64.64,0,0,0,.37.13.66.66,0,0,0,.27-.06.65.65,0,0,0,.37-.52l.44-4.4,1.14,0c19.7,0,34.82-18.93,35-19.13A.64.64,0,0,0,164.78,267.87Z"/><path class="cls-176" d="M153.87,285.38a27.62,27.62,0,0,0-3.38-2.63,50.48,50.48,0,0,1-4.78,2.59,66.51,66.51,0,0,1-4.49,5.67v-3.85c-.64.22-1.28.42-1.93.61v3.28c-.93-.87-1.79-1.76-2.58-2.65-.83.18-1.68.32-2.53.44.61.73,1.25,1.47,1.95,2.19a18.27,18.27,0,0,1-5-1.93c-.43,0-.85,0-1.28,0l-.29,3a21.7,21.7,0,0,0,10.66,2.78,22,22,0,0,0,21.91-21.38c-1.09,1.08-2.39,2.3-3.89,3.57A17.57,17.57,0,0,1,153.87,285.38Zm-10.09,5.78a37.08,37.08,0,0,0,4.9-6.9,24.75,24.75,0,0,1,3.71,2.68A18.55,18.55,0,0,1,143.78,291.16Z"/><path class="cls-116" d="M122.22,272.76h-.5a18.34,18.34,0,0,1,4.43-11.87,26.33,26.33,0,0,0,4,3.1,24.72,24.72,0,0,0-1.74,5.95l.46-.21a1.94,1.94,0,0,1,1.65,0,23.55,23.55,0,0,1,1.55-4.7,20.54,20.54,0,0,0,7.22,2.21v5.48h-7.8l-.19,1.93h8v1.12c.62,0,1.27-.08,1.93-.15v-1h5.72a42.5,42.5,0,0,0,5.93-1.93H152c0-.65,0-.35,0-.57a21.24,21.24,0,0,0-1.53-8,28.15,28.15,0,0,0,4-3.22,18.29,18.29,0,0,1,4.09,8.94c1-.6,2-1.26,3-2a21.92,21.92,0,0,0-43.26,5c0,.52,0,1,.06,1.54Zm30.83-13.16a26.39,26.39,0,0,1-3.45,2.76,30.93,30.93,0,0,0-5.36-7.48A18.55,18.55,0,0,1,153.05,259.6Zm-11.83-5c2.57,2.82,5.27,5.75,6.74,8.78a17.2,17.2,0,0,1-6.74,1.88Zm0,12.7a17.48,17.48,0,0,0,7.49-2.08,19,19,0,0,1,1.22,6.92c0,.22,0-.06,0,.59h-8.68Zm-1.93-12.61v10.51a16,16,0,0,1-6.24-2A29.84,29.84,0,0,1,139.29,254.72Zm-3.24.21a36.12,36.12,0,0,0-5,7.29,24.52,24.52,0,0,1-3.47-2.74A18.58,18.58,0,0,1,136.05,254.93Z"/><path class="cls-42" d="M504.25,314.51a54.18,54.18,0,1,0-98.71,44l41.2,90.1H452l47.29-87.12A54.07,54.07,0,0,0,504.25,314.51Z"/><path class="cls-173" d="M509.48,314.51a54.18,54.18,0,1,0-98.72,44L452,448.6l52.51-87.12A54.1,54.1,0,0,0,509.48,314.51Z"/><path class="cls-177" d="M496.61,320.89a41.34,41.34,0,1,1-52.9-24.9A41.34,41.34,0,0,1,496.61,320.89Z"/><circle class="cls-175" cx="457.71" cy="334.89" r="36.05" transform="translate(-98.35 223.32) rotate(-24.85)"/><path class="cls-178" d="M436.29,345.45l-3.34-17h3.4l1.06,7c.31,2,.61,4.21.83,5.93h.05c.23-1.85.56-3.89.91-6l1.19-7h3.38l1.12,7.16c.32,2,.55,3.81.76,5.7h0c.21-1.89.52-3.88.81-5.9l1.15-7h3.23l-3.63,17h-3.44l-1.19-7.32c-.27-1.71-.5-3.3-.66-5.24h0c-.25,1.91-.48,3.53-.81,5.24l-1.33,7.32Z"/><path class="cls-178" d="M465.22,336.77c0,5.57-2.79,9-6.9,9s-6.6-3.8-6.6-8.65c0-5.09,2.68-8.9,6.83-8.9C462.87,328.17,465.22,332.08,465.22,336.77Zm-10.15.23c0,3.33,1.29,5.67,3.42,5.67s3.38-2.47,3.38-5.77c0-3.06-1.21-5.68-3.4-5.68S455.07,333.69,455.07,337Z"/><path class="cls-178" d="M469.44,345.45l-3.34-17h3.4l1.06,7c.32,2,.61,4.21.84,5.93h0c.23-1.85.56-3.89.92-6l1.18-7h3.38l1.13,7.16c.31,2,.54,3.81.75,5.7h0c.21-1.89.52-3.88.81-5.9l1.15-7H484l-3.63,17H477l-1.19-7.32c-.27-1.71-.5-3.3-.66-5.24h0c-.25,1.91-.48,3.53-.82,5.24l-1.33,7.32Z"/><polyline class="cls-179" points="178.36 22.39 254.36 22.39 269.4 42.69"/><path d="M105.68.76h1.82v9.47c0,3.75-1.84,4.91-4.28,4.91a5.87,5.87,0,0,1-2-.34l.27-1.49a4.33,4.33,0,0,0,1.53.27c1.64,0,2.61-.73,2.61-3.5Z"/><path d="M119.68,9.74c0,3.76-2.6,5.4-5.06,5.4-2.75,0-4.87-2-4.87-5.23,0-3.4,2.23-5.4,5-5.4S119.68,6.63,119.68,9.74Zm-8.06.11c0,2.22,1.28,3.9,3.09,3.9s3.08-1.66,3.08-3.94c0-1.73-.86-3.91-3-3.91S111.62,7.92,111.62,9.85Z"/><path d="M130.52,12.14c0,1,0,2,.08,2.77H129l-.11-1.66h0a3.83,3.83,0,0,1-3.36,1.89c-1.6,0-3.51-.88-3.51-4.45V4.75h1.85v5.62c0,1.93.59,3.24,2.27,3.24a2.61,2.61,0,0,0,2.6-2.63V4.75h1.85Z"/><path d="M133.59,7.92c0-1.2,0-2.23-.09-3.17h1.62l.06,2h.09a3.05,3.05,0,0,1,2.81-2.23,2.13,2.13,0,0,1,.53.07V6.32a2.93,2.93,0,0,0-.63-.06,2.58,2.58,0,0,0-2.48,2.37,5.29,5.29,0,0,0-.09.86v5.42h-1.82Z"/><path d="M140.54,7.5c0-1,0-1.92-.09-2.75h1.64l.11,1.67h0a3.74,3.74,0,0,1,3.36-1.91c1.4,0,3.59.84,3.59,4.33v6.07h-1.85V9.05c0-1.64-.61-3-2.35-3a2.63,2.63,0,0,0-2.48,1.89,2.75,2.75,0,0,0-.12.86v6.11h-1.85Z"/><path d="M153.22,10.16a3.26,3.26,0,0,0,3.49,3.53,6.74,6.74,0,0,0,2.81-.52l.32,1.32a8.32,8.32,0,0,1-3.38.63c-3.13,0-5-2.06-5-5.13s1.8-5.48,4.77-5.48c3.31,0,4.19,2.92,4.19,4.79a7.27,7.27,0,0,1-.06.86Zm5.42-1.32c0-1.18-.48-3-2.56-3-1.87,0-2.69,1.72-2.84,3Z"/><path d="M163.39,4.75l2.22,6c.23.67.48,1.47.65,2.08h0c.19-.61.4-1.39.66-2.12l2-6h1.95L168.15,12c-1.32,3.48-2.22,5.27-3.48,6.36a5.11,5.11,0,0,1-2.27,1.2L161.94,18a4.73,4.73,0,0,0,1.61-.9A5.52,5.52,0,0,0,165.11,15a1.34,1.34,0,0,0,.14-.44,1.69,1.69,0,0,0-.12-.48l-3.76-9.36Z"/><path d="M185.83,0V12.28c0,.91,0,1.93.09,2.63h-1.66l-.09-1.77h0a3.74,3.74,0,0,1-3.46,2c-2.46,0-4.35-2.08-4.35-5.17,0-3.38,2.08-5.46,4.56-5.46a3.39,3.39,0,0,1,3.06,1.56h0V0ZM184,8.88a3.44,3.44,0,0,0-.08-.78A2.72,2.72,0,0,0,181.23,6c-1.91,0-3,1.68-3,3.93,0,2.06,1,3.76,3,3.76a2.77,2.77,0,0,0,2.71-2.21,3.31,3.31,0,0,0,.08-.79Z"/><path d="M189.93,10.16a3.26,3.26,0,0,0,3.48,3.53,6.75,6.75,0,0,0,2.82-.52l.31,1.32a8.28,8.28,0,0,1-3.38.63c-3.13,0-5-2.06-5-5.13s1.8-5.48,4.76-5.48c3.32,0,4.2,2.92,4.2,4.79a7.27,7.27,0,0,1-.06.86Zm5.42-1.32c0-1.18-.49-3-2.57-3-1.86,0-2.68,1.72-2.83,3Z"/><path d="M199.42,0h1.85V14.91h-1.85Z"/><path d="M216.07,14.53a6.81,6.81,0,0,1-2.92.59,4.83,4.83,0,0,1-5.06-5.19,5.16,5.16,0,0,1,5.46-5.39,6.16,6.16,0,0,1,2.56.52l-.42,1.43A4.28,4.28,0,0,0,213.55,6,3.52,3.52,0,0,0,210,9.85a3.49,3.49,0,0,0,3.53,3.8,5.28,5.28,0,0,0,2.27-.51Z"/><path d="M218.24,0h1.84V14.91h-1.84Z"/><path d="M225.25,1.89a1.15,1.15,0,0,1-2.29,0A1.13,1.13,0,0,1,224.12.74,1.09,1.09,0,0,1,225.25,1.89Zm-2.06,13V4.75H225V14.91Z"/><path d="M229.14,10.16a3.25,3.25,0,0,0,3.48,3.53,6.82,6.82,0,0,0,2.82-.52l.31,1.32a8.28,8.28,0,0,1-3.38.63c-3.13,0-5-2.06-5-5.13s1.81-5.48,4.77-5.48c3.32,0,4.2,2.92,4.2,4.79a5.34,5.34,0,0,1-.07.86Zm5.41-1.32c0-1.18-.48-3-2.56-3-1.87,0-2.69,1.72-2.83,3Z"/><path d="M238.63,7.5c0-1,0-1.92-.09-2.75h1.64l.11,1.67h0a3.74,3.74,0,0,1,3.36-1.91c1.4,0,3.59.84,3.59,4.33v6.07h-1.85V9.05c0-1.64-.61-3-2.35-3a2.63,2.63,0,0,0-2.48,1.89,2.75,2.75,0,0,0-.12.86v6.11h-1.85Z"/><path d="M252.42,1.83V4.75h2.65v1.4h-2.65v5.48c0,1.26.36,2,1.39,2a4.21,4.21,0,0,0,1.07-.13l.09,1.39a4.73,4.73,0,0,1-1.64.25,2.59,2.59,0,0,1-2-.78,3.8,3.8,0,0,1-.71-2.65V6.15H249V4.75h1.58V2.31Z"/><path d="M258.05,10.16a3.26,3.26,0,0,0,3.49,3.53,6.74,6.74,0,0,0,2.81-.52l.32,1.32a8.32,8.32,0,0,1-3.38.63c-3.13,0-5-2.06-5-5.13s1.81-5.48,4.77-5.48c3.31,0,4.19,2.92,4.19,4.79a7.27,7.27,0,0,1-.06.86Zm5.42-1.32c0-1.18-.48-3-2.56-3-1.87,0-2.69,1.72-2.84,3Z"/><polyline class="cls-115" points="557.11 32.54 481.11 32.54 466.07 52.85"/><path d="M432.6,11.57a22,22,0,0,1,3.51-.27,5.81,5.81,0,0,1,4,1.18,3.82,3.82,0,0,1,1.24,3,4.13,4.13,0,0,1-1.1,3A5.84,5.84,0,0,1,435.9,20a6.57,6.57,0,0,1-1.47-.12v5.67H432.6Zm1.83,6.83a6.4,6.4,0,0,0,1.51.14c2.2,0,3.55-1.07,3.55-3s-1.33-2.77-3.34-2.77a7.21,7.21,0,0,0-1.72.15Z"/><path d="M444.21,20.81a3.26,3.26,0,0,0,3.49,3.53,6.56,6.56,0,0,0,2.81-.53l.32,1.33a8.28,8.28,0,0,1-3.38.63c-3.13,0-5-2.06-5-5.13s1.81-5.48,4.77-5.48c3.31,0,4.2,2.92,4.2,4.79a6.84,6.84,0,0,1-.07.86Zm5.42-1.32c0-1.18-.48-3-2.56-3-1.87,0-2.69,1.72-2.84,3Z"/><path d="M453.71,18.57c0-1.2,0-2.23-.09-3.18h1.62l.06,2h.09a3,3,0,0,1,2.81-2.23,1.64,1.64,0,0,1,.52.07V17a2.8,2.8,0,0,0-.63-.06,2.58,2.58,0,0,0-2.47,2.37,4.45,4.45,0,0,0-.09.86v5.42h-1.82Z"/><path d="M461.39,25.56V16.8H460V15.39h1.43v-.54a4.07,4.07,0,0,1,4.43-4.43,5,5,0,0,1,2.58.67l-.52,1.41a3.84,3.84,0,0,0-2.14-.59c-1.95,0-2.52,1.36-2.52,3v.5h5.9V25.56h-1.83V16.8h-4.07v8.76Z"/><path d="M472.19,10.65H474V25.56h-1.84Z"/><path d="M478.17,20.81a3.26,3.26,0,0,0,3.49,3.53,6.56,6.56,0,0,0,2.81-.53l.31,1.33a8.28,8.28,0,0,1-3.38.63c-3.12,0-5-2.06-5-5.13s1.8-5.48,4.76-5.48c3.32,0,4.2,2.92,4.2,4.79a7.27,7.27,0,0,1-.06.86Zm5.42-1.32c0-1.18-.49-3-2.56-3-1.87,0-2.69,1.72-2.84,3Z"/><path d="M487.41,23.67a4.92,4.92,0,0,0,2.44.73c1.34,0,2-.67,2-1.51s-.53-1.36-1.89-1.87c-1.83-.65-2.69-1.66-2.69-2.87,0-1.64,1.33-3,3.51-3a5.15,5.15,0,0,1,2.5.63l-.46,1.35a4,4,0,0,0-2.08-.59c-1.1,0-1.7.63-1.7,1.38s.6,1.22,1.93,1.73c1.76.67,2.66,1.55,2.66,3.06,0,1.79-1.38,3.05-3.8,3.05a5.77,5.77,0,0,1-2.85-.7Z"/><path d="M509.21,10.65V22.93c0,.9,0,1.93.08,2.63h-1.66l-.08-1.77h0a3.76,3.76,0,0,1-3.47,2c-2.45,0-4.34-2.08-4.34-5.17,0-3.38,2.07-5.46,4.55-5.46a3.4,3.4,0,0,1,3.07,1.56h0V10.65Zm-1.85,8.88a3.5,3.5,0,0,0-.08-.78,2.74,2.74,0,0,0-2.67-2.14c-1.91,0-3,1.68-3,3.93,0,2.06,1,3.76,3,3.76a2.78,2.78,0,0,0,2.71-2.21,3.34,3.34,0,0,0,.08-.8Z"/><path d="M513.3,20.81a3.26,3.26,0,0,0,3.49,3.53,6.56,6.56,0,0,0,2.81-.53l.32,1.33a8.32,8.32,0,0,1-3.38.63c-3.13,0-5-2.06-5-5.13s1.81-5.48,4.77-5.48c3.31,0,4.19,2.92,4.19,4.79a7.27,7.27,0,0,1-.06.86Zm5.42-1.32c0-1.18-.48-3-2.56-3-1.87,0-2.69,1.72-2.84,3Z"/><path d="M534.49,25.18a6.81,6.81,0,0,1-2.92.59,4.83,4.83,0,0,1-5.06-5.19,5.17,5.17,0,0,1,5.46-5.4,6.18,6.18,0,0,1,2.56.53l-.42,1.43a4.28,4.28,0,0,0-2.14-.49,3.52,3.52,0,0,0-3.59,3.85,3.48,3.48,0,0,0,3.53,3.8,5.28,5.28,0,0,0,2.27-.51Z"/><path d="M536.65,10.65h1.85V25.56h-1.85Z"/><path d="M543.67,12.54a1.15,1.15,0,0,1-2.29,0,1.13,1.13,0,0,1,1.16-1.16A1.1,1.1,0,0,1,543.67,12.54Zm-2.06,13V15.39h1.85V25.56Z"/><path d="M547.55,20.81A3.26,3.26,0,0,0,551,24.34a6.56,6.56,0,0,0,2.81-.53l.32,1.33a8.32,8.32,0,0,1-3.38.63c-3.13,0-5-2.06-5-5.13s1.81-5.48,4.77-5.48c3.31,0,4.2,2.92,4.2,4.79a6.84,6.84,0,0,1-.07.86ZM553,19.49c0-1.18-.48-3-2.56-3-1.87,0-2.69,1.72-2.84,3Z"/><path d="M557.05,18.15c0-1.06,0-1.92-.09-2.76h1.64l.1,1.68h0a3.74,3.74,0,0,1,3.36-1.91c1.4,0,3.59.84,3.59,4.33v6.07h-1.85V19.7c0-1.64-.61-3-2.35-3A2.62,2.62,0,0,0,559,18.59a2.73,2.73,0,0,0-.13.86v6.11h-1.84Z"/><path d="M570.84,12.48v2.91h2.65V16.8h-2.65v5.48c0,1.26.36,2,1.39,2a4.31,4.31,0,0,0,1.07-.12l.08,1.38a4.37,4.37,0,0,1-1.63.26,2.59,2.59,0,0,1-2-.78,3.8,3.8,0,0,1-.71-2.65V16.8h-1.58V15.39H569V13Z"/><path d="M576.47,20.81A3.26,3.26,0,0,0,580,24.34a6.56,6.56,0,0,0,2.81-.53l.31,1.33a8.28,8.28,0,0,1-3.38.63c-3.12,0-5-2.06-5-5.13s1.8-5.48,4.76-5.48c3.32,0,4.2,2.92,4.2,4.79a7.27,7.27,0,0,1-.06.86Zm5.42-1.32c0-1.18-.49-3-2.56-3-1.87,0-2.69,1.72-2.84,3Z"/><path d="M585.71,23.67a4.92,4.92,0,0,0,2.44.73c1.34,0,2-.67,2-1.51s-.52-1.36-1.89-1.87c-1.83-.65-2.69-1.66-2.69-2.87,0-1.64,1.33-3,3.51-3a5.15,5.15,0,0,1,2.5.63l-.46,1.35a4,4,0,0,0-2.08-.59c-1.09,0-1.7.63-1.7,1.38s.61,1.22,1.93,1.73c1.76.67,2.66,1.55,2.66,3.06,0,1.79-1.38,3.05-3.8,3.05a5.77,5.77,0,0,1-2.85-.7Z"/><line class="cls-145" x1="248.62" y1="238.68" x2="398.74" y2="238.68"/><path d="M239.73,195.2a9,9,0,0,1-3.74.67c-4,0-7-2.52-7-7.16a7,7,0,0,1,7.39-7.43,7.62,7.62,0,0,1,3.36.63l-.44,1.49a6.77,6.77,0,0,0-2.86-.59c-3.31,0-5.52,2.12-5.52,5.84,0,3.47,2,5.69,5.44,5.69a7.28,7.28,0,0,0,3-.59Z"/><path d="M250.92,190.5c0,3.76-2.6,5.4-5.06,5.4-2.75,0-4.87-2-4.87-5.23,0-3.4,2.23-5.4,5-5.4S250.92,187.39,250.92,190.5Zm-8.06.1c0,2.23,1.28,3.91,3.08,3.91s3.09-1.66,3.09-3.95c0-1.72-.86-3.9-3-3.9S242.86,188.67,242.86,190.6Z"/><path d="M253.25,188.25c0-1.05,0-1.91-.08-2.75h1.62l.08,1.64h.06a3.51,3.51,0,0,1,3.2-1.87,3,3,0,0,1,2.87,2h0a4.16,4.16,0,0,1,1.14-1.32,3.42,3.42,0,0,1,2.24-.72c1.35,0,3.34.88,3.34,4.41v6H266v-5.75c0-1.95-.72-3.13-2.21-3.13a2.39,2.39,0,0,0-2.18,1.68,2.88,2.88,0,0,0-.15.93v6.27h-1.8v-6.08c0-1.62-.72-2.8-2.13-2.8a2.52,2.52,0,0,0-2.28,1.85,2.43,2.43,0,0,0-.15.9v6.13h-1.81Z"/><path d="M279.27,192.89c0,1.05,0,2,.09,2.77h-1.64l-.11-1.66h0a3.82,3.82,0,0,1-3.36,1.9c-1.59,0-3.51-.89-3.51-4.46V185.5h1.85v5.63c0,1.93.59,3.23,2.27,3.23a2.68,2.68,0,0,0,2.44-1.68,2.81,2.81,0,0,0,.16-.94V185.5h1.85Z"/><path d="M282.34,188.25c0-1.05,0-1.91-.09-2.75h1.64l.11,1.68h0a3.74,3.74,0,0,1,3.36-1.91c1.41,0,3.59.84,3.59,4.33v6.06h-1.85v-5.85c0-1.64-.61-3-2.35-3a2.64,2.64,0,0,0-2.48,1.89,2.79,2.79,0,0,0-.12.86v6.11h-1.85Z"/><path d="M296.05,182.65a1.09,1.09,0,0,1-1.17,1.13,1.1,1.1,0,0,1-1.12-1.13,1.14,1.14,0,0,1,1.16-1.16A1.1,1.1,0,0,1,296.05,182.65Zm-2.06,13V185.5h1.85v10.16Z"/><path d="M306.15,195.29a6.84,6.84,0,0,1-2.92.58,4.82,4.82,0,0,1-5.06-5.18,5.17,5.17,0,0,1,5.46-5.4,6.18,6.18,0,0,1,2.56.53l-.42,1.43a4.17,4.17,0,0,0-2.14-.49A3.51,3.51,0,0,0,300,190.6a3.48,3.48,0,0,0,3.53,3.8,5.3,5.3,0,0,0,2.27-.5Z"/><path d="M313.94,195.66l-.14-1.28h-.07a3.77,3.77,0,0,1-3.1,1.52,2.9,2.9,0,0,1-3.11-2.92c0-2.46,2.18-3.8,6.11-3.78V189a2.09,2.09,0,0,0-2.31-2.35,5.1,5.1,0,0,0-2.65.75l-.42-1.22a6.37,6.37,0,0,1,3.34-.9c3.11,0,3.87,2.12,3.87,4.16v3.8a14.93,14.93,0,0,0,.16,2.43Zm-.27-5.18c-2,0-4.3.31-4.3,2.29a1.63,1.63,0,0,0,1.74,1.76,2.54,2.54,0,0,0,2.46-1.7,2,2,0,0,0,.1-.59Z"/><path d="M325.68,195.29a6.84,6.84,0,0,1-2.92.58,4.82,4.82,0,0,1-5.06-5.18,5.17,5.17,0,0,1,5.46-5.4,6.18,6.18,0,0,1,2.56.53l-.42,1.43a4.17,4.17,0,0,0-2.14-.49,3.51,3.51,0,0,0-3.59,3.84,3.48,3.48,0,0,0,3.53,3.8,5.3,5.3,0,0,0,2.27-.5Z"/><path d="M329.9,182.65a1.08,1.08,0,0,1-1.17,1.13,1.09,1.09,0,0,1-1.11-1.13,1.13,1.13,0,0,1,1.15-1.16A1.1,1.1,0,0,1,329.9,182.65Zm-2,13V185.5h1.84v10.16Z"/><path d="M342,190.5c0,3.76-2.61,5.4-5.06,5.4-2.75,0-4.87-2-4.87-5.23,0-3.4,2.22-5.4,5-5.4S342,187.39,342,190.5Zm-8.06.1c0,2.23,1.28,3.91,3.08,3.91s3.09-1.66,3.09-3.95c0-1.72-.86-3.9-3.05-3.9S333.9,188.67,333.9,190.6Zm5.85-9.49-2.56,3h-1.32l1.85-3Z"/><path d="M344.29,188.25c0-1.05,0-1.91-.08-2.75h1.63l.11,1.68h0a3.74,3.74,0,0,1,3.36-1.91c1.41,0,3.59.84,3.59,4.33v6.06h-1.85v-5.85c0-1.64-.61-3-2.35-3a2.64,2.64,0,0,0-2.48,1.89,2.79,2.79,0,0,0-.12.86v6.11h-1.85Z"/><path d="M238.55,206v12.28c0,.9,0,1.93.09,2.62H237l-.09-1.76h0a3.76,3.76,0,0,1-3.46,2c-2.46,0-4.35-2.07-4.35-5.16,0-3.38,2.08-5.46,4.56-5.46a3.41,3.41,0,0,1,3.06,1.55h0V206Zm-1.85,8.88a3.44,3.44,0,0,0-.08-.78,2.72,2.72,0,0,0-2.67-2.14c-1.91,0-3,1.68-3,3.93,0,2.05,1,3.75,3,3.75a2.77,2.77,0,0,0,2.71-2.2,3.34,3.34,0,0,0,.08-.8Z"/><path d="M243.68,207.85a1.15,1.15,0,0,1-2.29,0,1.13,1.13,0,0,1,1.15-1.16A1.1,1.1,0,0,1,243.68,207.85Zm-2.06,13V210.7h1.85v10.16Z"/><path d="M246.53,213.87c0-1.19,0-2.22-.08-3.17h1.62l.06,2h.08a3.05,3.05,0,0,1,2.82-2.23,2.06,2.06,0,0,1,.52.06v1.75a2.88,2.88,0,0,0-.63-.07,2.61,2.61,0,0,0-2.48,2.38,5.36,5.36,0,0,0-.08.86v5.41h-1.83Z"/><path d="M255.54,207.85a1.09,1.09,0,0,1-1.17,1.13,1.1,1.1,0,0,1-1.12-1.13,1.14,1.14,0,0,1,1.16-1.16A1.1,1.1,0,0,1,255.54,207.85Zm-2.06,13V210.7h1.85v10.16Z"/><path d="M267.15,210.7c0,.74-.08,1.56-.08,2.8v5.89c0,2.34-.46,3.76-1.45,4.64a5.35,5.35,0,0,1-3.69,1.22,6.49,6.49,0,0,1-3.38-.84L259,223a5.72,5.72,0,0,0,3,.79c1.89,0,3.27-1,3.27-3.55v-1.13h0a3.62,3.62,0,0,1-3.23,1.7c-2.52,0-4.33-2.14-4.33-4.95,0-3.45,2.25-5.4,4.58-5.4a3.39,3.39,0,0,1,3.17,1.77h0l.09-1.54Zm-1.91,4a2.77,2.77,0,0,0-.1-.84,2.66,2.66,0,0,0-2.58-2c-1.77,0-3,1.49-3,3.84,0,2,1,3.66,3,3.66a2.71,2.71,0,0,0,2.57-1.89,3.43,3.43,0,0,0,.14-1Z"/><path d="M272.07,207.85a1.15,1.15,0,0,1-2.29,0,1.13,1.13,0,0,1,1.16-1.16A1.1,1.1,0,0,1,272.07,207.85Zm-2.06,13V210.7h1.85v10.16Z"/><path d="M283.7,206v12.28c0,.9,0,1.93.09,2.62h-1.66L282,219.1h0a3.76,3.76,0,0,1-3.46,2c-2.46,0-4.35-2.07-4.35-5.16,0-3.38,2.08-5.46,4.56-5.46a3.41,3.41,0,0,1,3.06,1.55h0V206Zm-1.85,8.88a3.44,3.44,0,0,0-.08-.78,2.72,2.72,0,0,0-2.67-2.14c-1.91,0-3,1.68-3,3.93,0,2.05,1,3.75,3,3.75a2.77,2.77,0,0,0,2.71-2.2,3.34,3.34,0,0,0,.08-.8Z"/><path d="M292.4,220.86l-.15-1.28h-.06a3.79,3.79,0,0,1-3.11,1.51,2.89,2.89,0,0,1-3.11-2.91c0-2.46,2.18-3.8,6.11-3.78v-.21a2.09,2.09,0,0,0-2.31-2.35,5.06,5.06,0,0,0-2.64.75l-.42-1.22a6.34,6.34,0,0,1,3.34-.9c3.1,0,3.86,2.12,3.86,4.16v3.8a13.82,13.82,0,0,0,.17,2.43Zm-.28-5.18c-2,0-4.3.31-4.3,2.29a1.64,1.64,0,0,0,1.74,1.76A2.52,2.52,0,0,0,292,218a2,2,0,0,0,.1-.59Z"/><polyline class="cls-115" points="93.06 595.83 93.06 424.39 130.62 390.46"/><path d="M129.81,558.65a9.06,9.06,0,0,1-3.74.67c-4,0-7-2.52-7-7.16a7,7,0,0,1,7.39-7.43,7.66,7.66,0,0,1,3.36.63l-.44,1.49a6.62,6.62,0,0,0-2.86-.59c-3.32,0-5.52,2.12-5.52,5.84,0,3.46,2,5.69,5.44,5.69a7.28,7.28,0,0,0,3-.59Z"/><path d="M137.51,559.11l-.14-1.28h-.07a3.75,3.75,0,0,1-3.1,1.51,2.9,2.9,0,0,1-3.11-2.92c0-2.45,2.18-3.8,6.11-3.77v-.21a2.1,2.1,0,0,0-2.31-2.36,5.1,5.1,0,0,0-2.65.76l-.42-1.22a6.37,6.37,0,0,1,3.34-.9c3.11,0,3.87,2.12,3.87,4.16v3.8a14.93,14.93,0,0,0,.16,2.43Zm-.27-5.18c-2,0-4.3.31-4.3,2.28a1.63,1.63,0,0,0,1.74,1.77,2.54,2.54,0,0,0,2.46-1.7,2,2,0,0,0,.1-.59Z"/><path d="M142,551.7c0-1.05,0-1.91-.09-2.75h1.64l.11,1.68h0a3.72,3.72,0,0,1,3.36-1.91c1.41,0,3.59.84,3.59,4.32v6.07h-1.85v-5.86c0-1.63-.61-3-2.35-3a2.63,2.63,0,0,0-2.48,1.89,2.79,2.79,0,0,0-.12.86v6.11H142Z"/><path d="M159.29,559.11l-.15-1.28h-.06a3.79,3.79,0,0,1-3.11,1.51,2.89,2.89,0,0,1-3.1-2.92c0-2.45,2.18-3.8,6.11-3.77v-.21a2.11,2.11,0,0,0-2.31-2.36,5.08,5.08,0,0,0-2.65.76l-.42-1.22a6.37,6.37,0,0,1,3.34-.9c3.11,0,3.86,2.12,3.86,4.16v3.8a13.82,13.82,0,0,0,.17,2.43Zm-.27-5.18c-2,0-4.31.31-4.31,2.28a1.64,1.64,0,0,0,1.75,1.77,2.52,2.52,0,0,0,2.45-1.7,1.76,1.76,0,0,0,.11-.59Z"/><path d="M163.79,544.21h1.84v14.9h-1.84Z"/><path d="M169.77,554.37a3.25,3.25,0,0,0,3.49,3.52,6.74,6.74,0,0,0,2.81-.52l.32,1.32a8.21,8.21,0,0,1-3.39.63c-3.12,0-5-2.06-5-5.12s1.8-5.48,4.76-5.48c3.32,0,4.2,2.92,4.2,4.79a7.45,7.45,0,0,1-.06.86Zm5.42-1.33c0-1.17-.48-3-2.56-3-1.87,0-2.69,1.72-2.84,3Z"/><path d="M179,557.22a4.82,4.82,0,0,0,2.44.74c1.34,0,2-.67,2-1.51s-.52-1.37-1.89-1.87c-1.83-.65-2.69-1.66-2.69-2.88,0-1.64,1.33-3,3.51-3a5,5,0,0,1,2.5.63l-.46,1.34a4,4,0,0,0-2.08-.59c-1.09,0-1.7.64-1.7,1.39s.61,1.22,1.93,1.72c1.76.67,2.66,1.56,2.66,3.07,0,1.78-1.38,3-3.8,3a5.77,5.77,0,0,1-2.85-.69Z"/><path d="M192.7,549l2.23,6c.23.67.48,1.46.65,2.07h0c.19-.61.4-1.38.65-2.12l2-6h2l-2.77,7.24c-1.32,3.49-2.23,5.27-3.49,6.37a5,5,0,0,1-2.26,1.19l-.47-1.55a4.94,4.94,0,0,0,1.62-.9,5.7,5.7,0,0,0,1.55-2.06,1.25,1.25,0,0,0,.15-.44,1.53,1.53,0,0,0-.13-.49L190.69,549Z"/><path d="M206.37,551.7c0-1.05,0-1.91-.08-2.75h1.62l.08,1.64h.06a3.51,3.51,0,0,1,3.19-1.87,3,3,0,0,1,2.88,2h0a4.32,4.32,0,0,1,1.14-1.33,3.45,3.45,0,0,1,2.24-.71c1.35,0,3.34.88,3.34,4.41v6h-1.8v-5.75c0-2-.72-3.13-2.21-3.13a2.39,2.39,0,0,0-2.18,1.68,2.86,2.86,0,0,0-.15.92v6.28h-1.81V553c0-1.61-.71-2.79-2.12-2.79a2.52,2.52,0,0,0-2.28,1.85,2.43,2.43,0,0,0-.15.9v6.13h-1.81Z"/><path d="M233.08,554c0,3.76-2.6,5.39-5.06,5.39-2.75,0-4.87-2-4.87-5.22,0-3.41,2.23-5.4,5-5.4S233.08,550.84,233.08,554Zm-8.06.1c0,2.23,1.28,3.91,3.09,3.91s3.08-1.66,3.08-4c0-1.72-.86-3.91-3-3.91S225,552.12,225,554.05Z"/><path d="M235.42,551.7c0-1.05,0-1.91-.09-2.75H237l.08,1.64h.07a3.49,3.49,0,0,1,3.19-1.87,3,3,0,0,1,2.87,2h.05a4.17,4.17,0,0,1,1.13-1.33,3.48,3.48,0,0,1,2.25-.71c1.34,0,3.33.88,3.33,4.41v6h-1.8v-5.75c0-2-.72-3.13-2.21-3.13a2.4,2.4,0,0,0-2.18,1.68,3.16,3.16,0,0,0-.15.92v6.28h-1.8V553c0-1.61-.72-2.79-2.12-2.79a2.52,2.52,0,0,0-2.29,1.85,2.43,2.43,0,0,0-.15.9v6.13h-1.8Z"/><path d="M254,554.37a3.25,3.25,0,0,0,3.48,3.52,6.75,6.75,0,0,0,2.82-.52l.31,1.32a8.11,8.11,0,0,1-3.38.63c-3.13,0-5-2.06-5-5.12s1.81-5.48,4.77-5.48c3.32,0,4.2,2.92,4.2,4.79a7.45,7.45,0,0,1-.06.86Zm5.42-1.33c0-1.17-.49-3-2.57-3-1.86,0-2.68,1.72-2.83,3Z"/><path d="M263.45,551.7c0-1.05,0-1.91-.08-2.75H265l.11,1.68h0a3.72,3.72,0,0,1,3.36-1.91c1.41,0,3.59.84,3.59,4.32v6.07h-1.85v-5.86c0-1.63-.61-3-2.35-3a2.63,2.63,0,0,0-2.48,1.89,2.79,2.79,0,0,0-.12.86v6.11h-1.85Z"/><path d="M277.25,546V549h2.64v1.41h-2.64v5.48c0,1.26.35,2,1.38,2a3.74,3.74,0,0,0,1.07-.13l.09,1.39a4.51,4.51,0,0,1-1.64.25,2.6,2.6,0,0,1-2-.77,3.8,3.8,0,0,1-.71-2.65v-5.54h-1.57V549h1.57v-2.44Z"/><path d="M291,554c0,3.76-2.6,5.39-5.06,5.39-2.75,0-4.87-2-4.87-5.22,0-3.41,2.23-5.4,5-5.4S291,550.84,291,554Zm-8.06.1c0,2.23,1.28,3.91,3.09,3.91s3.08-1.66,3.08-4c0-1.72-.86-3.91-3-3.91S283,552.12,283,554.05Z"/><path d="M293.12,557.22a4.86,4.86,0,0,0,2.44.74c1.34,0,2-.67,2-1.51s-.52-1.37-1.89-1.87c-1.82-.65-2.68-1.66-2.68-2.88,0-1.64,1.32-3,3.5-3a5,5,0,0,1,2.5.63l-.46,1.34a4,4,0,0,0-2.08-.59c-1.09,0-1.7.64-1.7,1.39s.61,1.22,1.93,1.72c1.76.67,2.67,1.56,2.67,3.07,0,1.78-1.39,3-3.8,3a5.81,5.81,0,0,1-2.86-.69Z"/><path d="M119.85,577.47c0-1.3,0-2.35-.08-3.32h1.66l.08,1.74h0a4,4,0,0,1,3.62-2c2.45,0,4.3,2.08,4.3,5.16,0,3.66-2.23,5.46-4.62,5.46a3.56,3.56,0,0,1-3.13-1.59h0v5.52h-1.83Zm1.83,2.71a4.31,4.31,0,0,0,.08.75,2.86,2.86,0,0,0,2.78,2.16c1.95,0,3.08-1.59,3.08-3.92,0-2-1.07-3.78-3-3.78a2.94,2.94,0,0,0-2.79,2.29,2.68,2.68,0,0,0-.13.75Z"/><path d="M132.83,579.57a3.25,3.25,0,0,0,3.49,3.52,6.74,6.74,0,0,0,2.81-.52l.31,1.32a8.11,8.11,0,0,1-3.38.63c-3.12,0-5-2.06-5-5.12s1.8-5.48,4.76-5.48c3.32,0,4.2,2.92,4.2,4.79a7.45,7.45,0,0,1-.06.86Zm5.42-1.32c0-1.18-.49-3-2.56-3-1.87,0-2.69,1.72-2.84,3Z"/><path d="M142.32,577.32c0-1.2,0-2.23-.08-3.17h1.62l.06,2H144a3.05,3.05,0,0,1,2.82-2.23,2.06,2.06,0,0,1,.52.06v1.75a2.38,2.38,0,0,0-.63-.07,2.6,2.6,0,0,0-2.48,2.37,5.61,5.61,0,0,0-.08.87v5.41h-1.83Z"/><path d="M148.94,582.42a4.78,4.78,0,0,0,2.43.74c1.35,0,2-.67,2-1.51s-.53-1.37-1.89-1.87c-1.83-.65-2.69-1.66-2.69-2.88,0-1.64,1.32-3,3.51-3a5,5,0,0,1,2.49.63l-.46,1.34a4,4,0,0,0-2.08-.58c-1.09,0-1.7.62-1.7,1.38s.61,1.22,1.94,1.72c1.76.67,2.66,1.56,2.66,3.07,0,1.78-1.38,3-3.8,3a5.77,5.77,0,0,1-2.85-.69Z"/><path d="M166.7,579.15c0,3.76-2.6,5.39-5.06,5.39-2.75,0-4.87-2-4.87-5.22,0-3.41,2.23-5.4,5-5.4S166.7,576,166.7,579.15Zm-8.06.1c0,2.23,1.28,3.91,3.09,3.91s3.08-1.66,3.08-3.95c0-1.72-.86-3.9-3-3.9S158.64,577.32,158.64,579.25Z"/><path d="M169,576.9c0-1,0-1.91-.09-2.75h1.64l.1,1.68h.05a3.72,3.72,0,0,1,3.36-1.91c1.4,0,3.59.84,3.59,4.33v6.06h-1.85v-5.86c0-1.63-.61-3-2.35-3a2.62,2.62,0,0,0-2.48,1.89,2.51,2.51,0,0,0-.13.86v6.11H169Z"/><path d="M186.32,584.31l-.15-1.28h-.06a3.79,3.79,0,0,1-3.11,1.51,2.9,2.9,0,0,1-3.11-2.92c0-2.45,2.19-3.79,6.11-3.77v-.21a2.1,2.1,0,0,0-2.31-2.36,5.07,5.07,0,0,0-2.64.76l-.42-1.22a6.37,6.37,0,0,1,3.34-.9c3.1,0,3.86,2.12,3.86,4.16v3.8a13.82,13.82,0,0,0,.17,2.43Zm-.28-5.18c-2,0-4.3.31-4.3,2.29a1.64,1.64,0,0,0,1.74,1.76,2.52,2.52,0,0,0,2.46-1.7,2,2,0,0,0,.1-.59Z"/><path d="M190.81,569.41h1.85v14.9h-1.85Z"/><path d="M197.83,571.29a1.15,1.15,0,0,1-2.29,0,1.12,1.12,0,0,1,1.15-1.15A1.09,1.09,0,0,1,197.83,571.29Zm-2.06,13V574.15h1.85v10.16Z"/><path d="M199.53,583.24l4.6-6c.44-.55.86-1,1.32-1.58v0H200v-1.49h7.75l0,1.16-4.53,5.9c-.42.56-.84,1.07-1.3,1.59v0h5.94v1.47h-8.25Z"/><path d="M215.3,584.31l-.15-1.28h-.06a3.79,3.79,0,0,1-3.11,1.51,2.9,2.9,0,0,1-3.11-2.92c0-2.45,2.19-3.79,6.11-3.77v-.21a2.1,2.1,0,0,0-2.31-2.36A5.07,5.07,0,0,0,210,576l-.42-1.22a6.37,6.37,0,0,1,3.34-.9c3.1,0,3.86,2.12,3.86,4.16v3.8a13.82,13.82,0,0,0,.17,2.43Zm-.28-5.18c-2,0-4.3.31-4.3,2.29a1.64,1.64,0,0,0,1.74,1.76,2.52,2.52,0,0,0,2.46-1.7,2,2,0,0,0,.1-.59Z"/><path d="M228.57,569.41v12.28c0,.9,0,1.93.08,2.62H227l-.08-1.76h0a3.77,3.77,0,0,1-3.47,2c-2.45,0-4.34-2.08-4.34-5.16,0-3.38,2.08-5.46,4.55-5.46a3.39,3.39,0,0,1,3.07,1.55h0v-6.06Zm-1.85,8.88a3.44,3.44,0,0,0-.08-.78,2.72,2.72,0,0,0-2.67-2.14c-1.91,0-3,1.68-3,3.92,0,2.06,1,3.76,3,3.76a2.78,2.78,0,0,0,2.71-2.2,3.39,3.39,0,0,0,.08-.8Z"/><path d="M240.83,579.15c0,3.76-2.6,5.39-5.06,5.39-2.75,0-4.87-2-4.87-5.22,0-3.41,2.23-5.4,5-5.4S240.83,576,240.83,579.15Zm-8.06.1c0,2.23,1.28,3.91,3.09,3.91s3.08-1.66,3.08-3.95c0-1.72-.86-3.9-3-3.9S232.77,577.32,232.77,579.25Z"/><path d="M242.91,582.42a4.86,4.86,0,0,0,2.44.74c1.34,0,2-.67,2-1.51s-.52-1.37-1.89-1.87c-1.82-.65-2.68-1.66-2.68-2.88,0-1.64,1.32-3,3.5-3a5,5,0,0,1,2.5.63l-.46,1.34a4,4,0,0,0-2.08-.58c-1.09,0-1.7.62-1.7,1.38s.61,1.22,1.93,1.72c1.77.67,2.67,1.56,2.67,3.07,0,1.78-1.39,3-3.8,3a5.81,5.81,0,0,1-2.86-.69Z"/><circle class="cls-178" cx="86.06" cy="9.03" r="5.88"/><circle class="cls-178" cx="416.94" cy="19.25" r="5.88"/><circle class="cls-178" cx="214.17" cy="188.65" r="5.88"/><circle class="cls-178" cx="106.91" cy="551.88" r="5.88"/></g></g></svg>