<svg xmlns="http://www.w3.org/2000/svg" xmlns:xlink="http://www.w3.org/1999/xlink" viewBox="0 0 383 73"><defs><style>.cls-1{fill:url(#Degradado_sin_nombre_4);}.cls-2{isolation:isolate;}.cls-3{fill:#fff;}</style><linearGradient id="Degradado_sin_nombre_4" x1="-593.5" y1="267.98" x2="-593.5" y2="266.98" gradientTransform="matrix(383, 0, 0, -73, 227501.68, 19562.79)" gradientUnits="userSpaceOnUse"><stop offset="0" stop-color="#03615f"/><stop offset="1" stop-color="#074044"/></linearGradient></defs><title>Recurso 3</title><g id="Capa_2" data-name="Capa 2"><g id="Capa_1-2" data-name="Capa 1"><g id="Grupo_353" data-name="Grupo 353"><rect id="Rectángulo_117" data-name="Rectángulo 117" class="cls-1" width="383" height="73"/><g id="Funciones" class="cls-2"><g class="cls-2"><path class="cls-3" d="M59.31,28.34v7H71.62v4.94H59.31V50H53.15V23.4h20.1v4.94Z"/><path class="cls-3" d="M97.08,29.56V50H91.46V47.57a8.3,8.3,0,0,1-6.35,2.73c-5.13,0-8.74-2.88-8.74-9.19V29.56H82.3V40.23c0,3.42,1.52,4.94,4.14,4.94s4.71-1.74,4.71-5.5V29.56Z"/><path class="cls-3" d="M123.49,38.3V50h-5.93V39.21c0-3.31-1.52-4.83-4.14-4.83-2.85,0-4.9,1.75-4.9,5.51V50h-5.93V29.56h5.66V32a9,9,0,0,1,6.77-2.7C119.84,29.25,123.49,32.07,123.49,38.3Z"/><path class="cls-3" d="M127.56,39.78c0-6.16,4.75-10.53,11.4-10.53,4.29,0,7.67,1.87,9.15,5.21l-4.6,2.47a5.08,5.08,0,0,0-4.59-2.81c-3,0-5.36,2.09-5.36,5.66s2.36,5.66,5.36,5.66a5,5,0,0,0,4.59-2.81l4.6,2.51c-1.48,3.26-4.86,5.16-9.15,5.16C132.31,50.3,127.56,45.93,127.56,39.78Z"/><path class="cls-3" d="M150.81,23.4a3.39,3.39,0,0,1,3.69-3.3c2.2,0,3.68,1.37,3.68,3.19a3.7,3.7,0,0,1-7.37.11Zm.72,6.16h5.93V50h-5.93Z"/><path class="cls-3" d="M161.45,39.78c0-6.16,4.75-10.53,11.25-10.53s11.21,4.37,11.21,10.53S179.2,50.3,172.7,50.3,161.45,45.93,161.45,39.78Zm16.45,0c0-3.53-2.24-5.66-5.2-5.66s-5.24,2.13-5.24,5.66,2.27,5.66,5.24,5.66S177.9,43.31,177.9,39.78Z"/><path class="cls-3" d="M208.76,38.3V50h-5.93V39.21c0-3.31-1.52-4.83-4.14-4.83-2.85,0-4.9,1.75-4.9,5.51V50h-5.93V29.56h5.66V32a9,9,0,0,1,6.77-2.7C205.11,29.25,208.76,32.07,208.76,38.3Z"/><path class="cls-3" d="M234.26,41.45H218.79c.57,2.55,2.74,4.1,5.85,4.1a6.91,6.91,0,0,0,5.13-2L232.93,47c-1.9,2.16-4.75,3.3-8.44,3.3-7.06,0-11.66-4.44-11.66-10.52s4.67-10.53,10.9-10.53c6,0,10.64,4,10.64,10.61C234.37,40.31,234.29,41,234.26,41.45ZM218.72,38h10.07a5.11,5.11,0,0,0-10.07,0Z"/><path class="cls-3" d="M236.35,48.1l2-4.26a13.93,13.93,0,0,0,7.1,2c2.74,0,3.76-.72,3.76-1.86,0-3.35-12.35.07-12.35-8.09,0-3.88,3.5-6.62,9.46-6.62A16.81,16.81,0,0,1,254.17,31l-2,4.22a11.71,11.71,0,0,0-5.89-1.52c-2.65,0-3.79.83-3.79,1.9,0,3.49,12.34.11,12.34,8.17,0,3.8-3.53,6.49-9.65,6.49A17.6,17.6,0,0,1,236.35,48.1Z"/></g></g></g></g></g></svg>