<?xml version="1.0" encoding="iso-8859-1"?>
<!-- Generator: Adobe Illustrator 19.0.0, SVG Export Plug-In . SVG Version: 6.00 Build 0)  -->
<svg version="1.1" id="Capa_1" xmlns="http://www.w3.org/2000/svg" xmlns:xlink="http://www.w3.org/1999/xlink" x="0px" y="0px"
	 viewBox="0 0 512 512" style="enable-background:new 0 0 512 512;" xml:space="preserve">
<polygon style="fill:#B7E4F8;" points="291.512,64.249 291.512,209.493 351.289,209.493 350.802,244.682 416.363,209.493 
	490.621,209.493 490.621,64.249 "/>
<polygon style="fill:#6FC8F1;" points="391.067,64.249 391.067,223.07 416.363,209.493 490.621,209.493 490.621,64.249 "/>
<polygon style="fill:#B7E4F8;" points="257.35,0 21.38,0 21.38,170.365 109.377,170.365 185.059,210.987 184.498,170.365 
	257.35,170.365 "/>
<polygon style="fill:#6FC8F1;" points="257.35,0 139.365,0 139.365,186.461 185.059,210.987 184.498,170.365 257.35,170.365 "/>
<path style="fill:#265D77;" d="M159.314,394.714c18.219-14.056,29.987-36.084,29.987-60.822c0-42.348-34.452-76.801-76.8-76.801
	c-42.349,0-76.802,34.453-76.802,76.801c0,24.738,11.768,46.767,29.988,60.822C26.96,412.509,0,451.663,0,497v15h225.001v-15
	C225.001,451.663,198.041,412.509,159.314,394.714z"/>
<path style="fill:#132F3B;" d="M446.313,394.715c18.219-14.056,29.988-36.085,29.988-60.822c0-42.348-34.453-76.801-76.801-76.801
	s-76.801,34.453-76.801,76.801c0,24.738,11.768,46.767,29.988,60.822C313.96,412.51,287,451.664,287,497v15h225v-15
	C512,451.664,485.04,412.51,446.313,394.715z"/>
<path style="fill:#4BBAED;" d="M303.138,381.797c22.531-15.196,37.377-40.954,37.377-70.116c0-46.602-37.913-84.515-84.516-84.515
	c-46.602,0-84.515,37.913-84.515,84.515c0,29.161,14.846,54.92,37.377,70.116c-45.616,18.646-77.845,63.499-77.845,115.745V512
	h249.966v-14.458C380.983,445.296,348.755,400.443,303.138,381.797z"/>
<g>
	<rect x="90.32" y="68.66" style="fill:#FFFFFF;" width="98.08" height="30"/>
	<rect x="350.8" y="120.62" style="fill:#FFFFFF;" width="80.53" height="30"/>
</g>
<path style="fill:#388CB2;" d="M303.138,381.797c22.531-15.196,37.377-40.954,37.377-70.116c0-46.602-37.913-84.515-84.515-84.515
	V512h124.983v-14.458C380.983,445.296,348.755,400.443,303.138,381.797z"/>
<g>
	<rect x="139.37" y="68.66" style="fill:#B7E4F8;" width="49.04" height="30"/>
	<rect x="391.07" y="120.62" style="fill:#B7E4F8;" width="40.26" height="30"/>
</g>
<g>
</g>
<g>
</g>
<g>
</g>
<g>
</g>
<g>
</g>
<g>
</g>
<g>
</g>
<g>
</g>
<g>
</g>
<g>
</g>
<g>
</g>
<g>
</g>
<g>
</g>
<g>
</g>
<g>
</g>
</svg>
