<svg xmlns="http://www.w3.org/2000/svg" xmlns:xlink="http://www.w3.org/1999/xlink" viewBox="0 0 383 190"><defs><style>.cls-1{fill:url(#Degradado_sin_nombre_3);}.cls-2{fill:url(#Degradado_sin_nombre_4);}.cls-3{fill:#fff;}.cls-4{isolation:isolate;}.cls-5{fill:#3a3f3d;}</style><linearGradient id="Degradado_sin_nombre_3" x1="-407.96" y1="685.65" x2="-408.63" y2="686.51" gradientTransform="matrix(275, 0, 0, -111, 112526.3, 76252.3)" gradientUnits="userSpaceOnUse"><stop offset="0" stop-color="#006b7a"/><stop offset="1" stop-color="#00a5a3"/></linearGradient><linearGradient id="Degradado_sin_nombre_4" x1="-409.33" y1="686.41" x2="-408.58" y2="685.76" gradientTransform="matrix(190, 0, 0, -190, 77798.08, 130452.48)" gradientUnits="userSpaceOnUse"><stop offset="0" stop-color="#00ada9"/><stop offset="1" stop-color="#006a79"/></linearGradient></defs><title>Recurso 6</title><g id="Capa_2" data-name="Capa 2"><g id="Capa_1-2" data-name="Capa 1"><path id="Rectángulo_16-2" data-name="Rectángulo 16-2" class="cls-1" d="M163.5,42h164A55.5,55.5,0,0,1,383,97.5h0A55.5,55.5,0,0,1,327.5,153h-164A55.5,55.5,0,0,1,108,97.5h0A55.5,55.5,0,0,1,163.5,42Z"/><circle id="Elipse_3-2" data-name="Elipse 3-2" class="cls-2" cx="95" cy="95" r="95"/><circle id="Elipse_4-4" data-name="Elipse 4-4" class="cls-3" cx="94.5" cy="94.5" r="76.5"/><g id="Inteligencia_Artificial" data-name="Inteligencia Artificial" class="cls-4"><g class="cls-4"><path class="cls-3" d="M214.59,85h3.24V99h-3.24Z"/><path class="cls-3" d="M231.93,92.84V99h-3.12V93.32c0-1.74-.8-2.54-2.18-2.54s-2.58.92-2.58,2.9V99h-3.12V88.24h3V89.5a4.71,4.71,0,0,1,3.56-1.42C230,88.08,231.93,89.56,231.93,92.84Z"/><path class="cls-3" d="M241.69,98.48a4.46,4.46,0,0,1-2.54.68c-2.54,0-4-1.3-4-3.86V90.88h-1.66v-2.4h1.66V85.86h3.12v2.62h2.68v2.4h-2.68v4.38a1.25,1.25,0,0,0,1.34,1.42,2.1,2.1,0,0,0,1.26-.4Z"/><path class="cls-3" d="M253.59,94.5h-8.14a2.87,2.87,0,0,0,3.08,2.16,3.65,3.65,0,0,0,2.7-1l1.66,1.8a5.64,5.64,0,0,1-4.44,1.74c-3.72,0-6.14-2.34-6.14-5.54a5.48,5.48,0,0,1,5.74-5.54,5.33,5.33,0,0,1,5.6,5.58C253.65,93.9,253.61,94.24,253.59,94.5Zm-8.18-1.82h5.3a2.69,2.69,0,0,0-5.3,0Z"/><path class="cls-3" d="M255.73,84.16h3.12V99h-3.12Z"/><path class="cls-3" d="M261.37,85a1.78,1.78,0,0,1,1.94-1.74,1.75,1.75,0,0,1,1.94,1.68,1.95,1.95,0,0,1-3.88.06Zm.38,3.24h3.12V99h-3.12Z"/><path class="cls-3" d="M278.87,88.24v9c0,4-2.16,5.84-6,5.84a8.86,8.86,0,0,1-5.28-1.48l1.24-2.24a6.43,6.43,0,0,0,3.8,1.22c2.2,0,3.16-1,3.16-2.94v-.46a4.43,4.43,0,0,1-3.4,1.34,5.2,5.2,0,1,1,0-10.4,4.32,4.32,0,0,1,3.56,1.54V88.24Zm-3.08,5A2.84,2.84,0,1,0,273,95.92,2.61,2.61,0,0,0,275.79,93.28Z"/><path class="cls-3" d="M292.25,94.5h-8.14a2.87,2.87,0,0,0,3.08,2.16,3.65,3.65,0,0,0,2.7-1l1.66,1.8a5.64,5.64,0,0,1-4.44,1.74c-3.72,0-6.14-2.34-6.14-5.54a5.48,5.48,0,0,1,5.74-5.54,5.33,5.33,0,0,1,5.6,5.58C292.31,93.9,292.27,94.24,292.25,94.5Zm-8.18-1.82h5.3a2.69,2.69,0,0,0-5.3,0Z"/><path class="cls-3" d="M305.39,92.84V99h-3.12V93.32c0-1.74-.8-2.54-2.18-2.54s-2.58.92-2.58,2.9V99h-3.12V88.24h3V89.5a4.71,4.71,0,0,1,3.56-1.42C303.47,88.08,305.39,89.56,305.39,92.84Z"/><path class="cls-3" d="M307.53,93.62c0-3.24,2.5-5.54,6-5.54a4.94,4.94,0,0,1,4.82,2.74l-2.42,1.3a2.68,2.68,0,0,0-2.42-1.48,3,3,0,0,0,0,6,2.65,2.65,0,0,0,2.42-1.48l2.42,1.32a5,5,0,0,1-4.82,2.72C310,99.16,307.53,96.86,307.53,93.62Z"/><path class="cls-3" d="M319.77,85a1.78,1.78,0,0,1,1.94-1.74,1.75,1.75,0,0,1,1.94,1.68,1.95,1.95,0,0,1-3.88.06Zm.38,3.24h3.12V99h-3.12Z"/><path class="cls-3" d="M335.69,92.86V99h-2.92V97.66a3.53,3.53,0,0,1-3.28,1.5c-2.52,0-4-1.4-4-3.26s1.34-3.22,4.62-3.22h2.48c0-1.34-.8-2.12-2.48-2.12a5.17,5.17,0,0,0-3.1,1l-1.12-2.18a8.27,8.27,0,0,1,4.64-1.3C333.79,88.08,335.69,89.6,335.69,92.86Zm-3.12,2.74V94.5h-2.14c-1.46,0-1.92.54-1.92,1.26s.66,1.3,1.76,1.3A2.3,2.3,0,0,0,332.57,95.6Z"/></g><g class="cls-4"><path class="cls-3" d="M240.62,120h-6.5l-1.24,3h-3.32l6.24-14H239l6.26,14h-3.4Zm-1-2.46-2.22-5.36-2.22,5.36Z"/><path class="cls-3" d="M253.18,112.08V115c-.26,0-.46,0-.7,0-1.72,0-2.86.94-2.86,3V123H246.5V112.24h3v1.42A4.34,4.34,0,0,1,253.18,112.08Z"/><path class="cls-3" d="M262.36,122.48a4.46,4.46,0,0,1-2.54.68c-2.54,0-4-1.3-4-3.86v-4.42h-1.66v-2.4h1.66v-2.62h3.12v2.62h2.68v2.4h-2.68v4.38a1.25,1.25,0,0,0,1.34,1.42,2.1,2.1,0,0,0,1.26-.4Z"/><path class="cls-3" d="M263.74,109a1.78,1.78,0,0,1,1.94-1.74,1.75,1.75,0,0,1,1.94,1.68,1.95,1.95,0,0,1-3.88.06Zm.38,3.24h3.12V123h-3.12Z"/><path class="cls-3" d="M273.56,112v.46h2.76v2.4h-2.68V123h-3.12v-8.12h-1.66v-2.4h1.66V112c0-2.42,1.48-4,4.16-4a4.42,4.42,0,0,1,2.38.58l-.82,2.26a2.18,2.18,0,0,0-1.26-.38C274.06,110.46,273.56,111,273.56,112Zm5.54-3a1.78,1.78,0,0,1,1.94-1.74,1.75,1.75,0,0,1,1.94,1.68,1.95,1.95,0,0,1-3.88.06Zm.38,3.24h3.12V123h-3.12Z"/><path class="cls-3" d="M284.7,117.62c0-3.24,2.5-5.54,6-5.54a4.94,4.94,0,0,1,4.82,2.74l-2.42,1.3a2.68,2.68,0,0,0-2.42-1.48,3,3,0,0,0,0,6,2.65,2.65,0,0,0,2.42-1.48l2.42,1.32a5,5,0,0,1-4.82,2.72C287.2,123.16,284.7,120.86,284.7,117.62Z"/><path class="cls-3" d="M296.94,109a1.78,1.78,0,0,1,1.94-1.74,1.75,1.75,0,0,1,1.94,1.68,1.95,1.95,0,0,1-3.88.06Zm.38,3.24h3.12V123h-3.12Z"/><path class="cls-3" d="M312.86,116.86V123h-2.92v-1.34a3.53,3.53,0,0,1-3.28,1.5c-2.52,0-4-1.4-4-3.26s1.34-3.22,4.62-3.22h2.48c0-1.34-.8-2.12-2.48-2.12a5.17,5.17,0,0,0-3.1,1L303,113.38a8.27,8.27,0,0,1,4.64-1.3C311,112.08,312.86,113.6,312.86,116.86Zm-3.12,2.74v-1.1H307.6c-1.46,0-1.92.54-1.92,1.26s.66,1.3,1.76,1.3A2.3,2.3,0,0,0,309.74,119.6Z"/><path class="cls-3" d="M315.68,108.16h3.12V123h-3.12Z"/></g></g><g id="Grupo_264" data-name="Grupo 264"><path id="Trazado_240" data-name="Trazado 240" class="cls-5" d="M127,85.3h5.2a1.73,1.73,0,0,0,1.73-1.73h0v-5.2a1.73,1.73,0,1,0-3.46-.08v3.54H127a1.74,1.74,0,0,0,0,3.47Z"/><path id="Trazado_241" data-name="Trazado 241" class="cls-5" d="M86.25,78.37a6.93,6.93,0,1,0-6.93-6.93,6.93,6.93,0,0,0,6.93,6.93Zm0-10.39a3.47,3.47,0,1,1-3.46,3.47h0A3.46,3.46,0,0,1,86.25,68Z"/><path id="Trazado_242" data-name="Trazado 242" class="cls-5" d="M48.42,77.8a5.17,5.17,0,0,0,7-2.23,5.79,5.79,0,0,0,.29-.68l13.63-.21-2.38,2a1.74,1.74,0,0,0-.4,2.2l3.24,5.59.07,7.8H61.18a1.59,1.59,0,0,0-.3.06,5.2,5.2,0,1,0,0,3.34,1.59,1.59,0,0,0,.3.06H71.57A1.74,1.74,0,0,0,73.31,94v0l-.08-8.78,5.54-2.08a12.11,12.11,0,0,0,1.14.67l1.17,7a1.73,1.73,0,0,0,1.71,1.45h.91v8.66H78.5a1.73,1.73,0,0,0-1.73,1.73h0v25.27L61.69,143a1.73,1.73,0,0,0,1.23,2.95h55.42a1.72,1.72,0,0,0,1.73-1.73,1.69,1.69,0,0,0-.51-1.22L108,131.35v-9.2l3.88-6.46c6.54,4,10.5,6,11.71,6h10.39a1.74,1.74,0,0,0,1.73-1.73h0v-9.67l3-3a1.69,1.69,0,0,0,.51-1.22v-5.2h2.53a3.47,3.47,0,0,0,3.47-3.47,3.39,3.39,0,0,0-.3-1.4l-5.38-12.13a13.46,13.46,0,0,0,3.15-8.69,30.05,30.05,0,0,0-16.72-27l-5-2.52a1.72,1.72,0,0,0-2.18.55l-.73,1H106.22V43.73A1.73,1.73,0,0,0,104.48,42H87.16a1.73,1.73,0,0,0-1.73,1.73h0v6.93H82.79a1.73,1.73,0,0,0-1.71,1.44l-1.17,7c-.38.2-.77.43-1.14.67l-6.67-2.5a1.72,1.72,0,0,0-2.11.76l-1.75,3-.12,0H57.72V55.53a5.2,5.2,0,1,0-3.47,0v7.25A1.73,1.73,0,0,0,56,64.51H66.35a1.7,1.7,0,0,0,.57,1.73l5.49,4.53c0,.12,0,.25,0,.38l-16.73.26a5.2,5.2,0,1,0-7.25,6.38ZM56,95.7A1.74,1.74,0,1,1,57.72,94,1.74,1.74,0,0,1,56,95.7Zm0-46.77a1.74,1.74,0,1,1-1.74,1.74A1.74,1.74,0,0,1,56,48.93Zm31.17,43.3h2.55a1.73,1.73,0,0,0,1.71-1.44l1.17-7c.39-.2.77-.43,1.15-.67l6.67,2.5a1.74,1.74,0,0,0,2.11-.76l.73-1.27h8.16a1.59,1.59,0,0,0,.38-.07l3.09,4.12V90.5H108V94h4l-4.64,1.85a1.73,1.73,0,0,0-1.09,1.61v3.46h-19ZM106,64.06l-.73-1.27h4.43v6.93h-8.3l4.2-3.47a1.72,1.72,0,0,0,.4-2.19Zm3.7,9.12v6.93h-4.43l.73-1.27a1.71,1.71,0,0,0-.4-2.2l-4.2-3.46ZM98.06,116l6.42,6.43v1H94.09v-19h3.47v10.39a1.72,1.72,0,0,0,.5,1.22Zm-11,23h.08v-.09l6.5-7.43a1.76,1.76,0,0,0,.42-1.14v-3.46h3.47v15.58H84.05Zm-20,3.46,12.63-12.64a1.69,1.69,0,0,0,.51-1.22V104.36H90.62v25.32l-3.46,4v-8.5H83.69v12.47l-4.25,4.85Zm47.06,0H101V126.87h3.46v5.2a1.69,1.69,0,0,0,.51,1.22Zm-8.29-23.58L101,114v-9.67h5.2v6.92a1.72,1.72,0,0,0,.82,1.47c.64.41,1.23.77,1.84,1.14Zm14.75-69.47,3.7,1.85a26.6,26.6,0,0,1,14.8,23.94,10,10,0,0,1-3,7.14,1.73,1.73,0,0,0-.36,1.93l5.85,13.15h-4.26a1.73,1.73,0,0,0-1.73,1.74h0v5.2h-.3a10.06,10.06,0,0,1-7.14-3,1.73,1.73,0,0,0-2.45,0,1.74,1.74,0,0,0,0,2.45,13.42,13.42,0,0,0,7.6,3.81l-.67.67a1.72,1.72,0,0,0-.5,1.22v8.66h-8.5a91,91,0,0,1-11.56-6.39h0l-2.44-1.5V98.6l7.57-3A1.74,1.74,0,0,0,118.34,94V87a1.78,1.78,0,0,0-.35-1l-4.85-6.46V59.88ZM88.89,45.46h13.86v3.47a1.73,1.73,0,0,0,1.73,1.73h11L110,58.31a1.68,1.68,0,0,0-.32,1h-6.43l-.74-1.27a1.72,1.72,0,0,0-2.1-.75l-6.67,2.5c-.38-.25-.76-.47-1.14-.67l-1.18-7a1.73,1.73,0,0,0-1.71-1.45h-.82ZM70.25,64.52l2-3.47,6.15,2.31A1.75,1.75,0,0,0,80,63.12a10.58,10.58,0,0,1,2.11-1.23,1.74,1.74,0,0,0,1-1.3l1.07-6.47h4l1.08,6.47a1.74,1.74,0,0,0,1,1.31,10.08,10.08,0,0,1,2.11,1.22,1.7,1.7,0,0,0,1.64.24l6.15-2.31,2,3.47-5.07,4.17a1.73,1.73,0,0,0-.62,1.54,9,9,0,0,1,0,2.43,1.76,1.76,0,0,0,.62,1.55l5.07,4.16-2,3.47L94.1,79.53a1.72,1.72,0,0,0-1.64.23A10.12,10.12,0,0,1,90.35,81a1.74,1.74,0,0,0-1,1.31l-1.08,6.46h-4L83.17,82.3a1.72,1.72,0,0,0-1-1.31A10.12,10.12,0,0,1,80,79.76a1.72,1.72,0,0,0-1.64-.23l-6.15,2.3-2-3.46,5.06-4.17.09-.09.1-.1a1.64,1.64,0,0,0,.31-.48v0a1.77,1.77,0,0,0,.11-.6s0,0,0-.08,0,0,0,0a.48.48,0,0,1,0-.12,9.06,9.06,0,0,1,0-2.44,1.74,1.74,0,0,0-.63-1.54Zm-21,7.86a1.74,1.74,0,1,1-.1,1.33A1.72,1.72,0,0,1,49.25,72.38Z"/><path id="Trazado_243" data-name="Trazado 243" class="cls-5" d="M83.7,111.28h3.46v3.47H83.7Z"/><path id="Trazado_244" data-name="Trazado 244" class="cls-5" d="M83.7,118.21h3.46v3.46H83.7Z"/><path id="Trazado_245" data-name="Trazado 245" class="cls-5" d="M94.09,90.5h3.46V94H94.09Z"/><path id="Trazado_246" data-name="Trazado 246" class="cls-5" d="M101,90.5h3.46V94H101Z"/><path id="Trazado_247" data-name="Trazado 247" class="cls-5" d="M116.61,59.32h3.46v6.93h-3.46Z"/><path id="Trazado_248" data-name="Trazado 248" class="cls-5" d="M116.61,69.71h3.46v3.47h-3.46Z"/><path id="Trazado_249" data-name="Trazado 249" class="cls-5" d="M116.61,76.64h3.46V80.1h-3.46Z"/></g></g></g></svg>