<svg xmlns="http://www.w3.org/2000/svg" xmlns:xlink="http://www.w3.org/1999/xlink" viewBox="0 0 383 190"><defs><style>.cls-1{fill:url(#Degradado_sin_nombre_11);}.cls-2{fill:url(#Degradado_sin_nombre_2);}.cls-3{fill:#fff;}.cls-4{isolation:isolate;}.cls-5{fill:#3a3f3d;}</style><linearGradient id="Degradado_sin_nombre_11" x1="124.04" y1="685.65" x2="123.37" y2="686.51" gradientTransform="matrix(275, 0, 0, -111, -33773.7, 76252.3)" gradientUnits="userSpaceOnUse"><stop offset="0" stop-color="#354377"/><stop offset="1" stop-color="#4770be"/></linearGradient><linearGradient id="Degradado_sin_nombre_2" x1="122.67" y1="686.41" x2="123.42" y2="685.76" gradientTransform="matrix(190, 0, 0, -190, -23281.92, 130452.48)" gradientUnits="userSpaceOnUse"><stop offset="0" stop-color="#4770be"/><stop offset="1" stop-color="#344072"/></linearGradient></defs><title>Recurso 5</title><g id="Capa_2" data-name="Capa 2"><g id="Capa_1-2" data-name="Capa 1"><path id="Rectángulo_16" data-name="Rectángulo 16" class="cls-1" d="M163.5,42h164A55.5,55.5,0,0,1,383,97.5h0A55.5,55.5,0,0,1,327.5,153h-164A55.5,55.5,0,0,1,108,97.5h0A55.5,55.5,0,0,1,163.5,42Z"/><circle id="Elipse_3" data-name="Elipse 3" class="cls-2" cx="95" cy="95" r="95"/><circle id="Elipse_4-3" data-name="Elipse 4-3" class="cls-3" cx="94.5" cy="94.5" r="76.5"/><g id="Análisis_de_Datos" data-name="Análisis de Datos" class="cls-4"><g class="cls-4"><path class="cls-3" d="M229.43,96h-6.5l-1.24,3h-3.32l6.24-14h3.2l6.26,14h-3.4Zm-1-2.46-2.22-5.36L224,93.54Z"/><path class="cls-3" d="M246.31,92.84V99h-3.12V93.32c0-1.74-.8-2.54-2.18-2.54s-2.58.92-2.58,2.9V99h-3.12V88.24h3V89.5a4.71,4.71,0,0,1,3.56-1.42C244.39,88.08,246.31,89.56,246.31,92.84Z"/><path class="cls-3" d="M258.65,92.86V99h-2.92V97.66a3.53,3.53,0,0,1-3.28,1.5c-2.52,0-4-1.4-4-3.26s1.34-3.22,4.62-3.22h2.48c0-1.34-.8-2.12-2.48-2.12a5.17,5.17,0,0,0-3.1,1l-1.12-2.18a8.27,8.27,0,0,1,4.64-1.3C256.75,88.08,258.65,89.6,258.65,92.86Zm-3.12,2.74V94.5h-2.14c-1.46,0-1.92.54-1.92,1.26s.66,1.3,1.76,1.3A2.3,2.3,0,0,0,255.53,95.6Zm-1.12-8.74H252l2.7-2.88H258Z"/><path class="cls-3" d="M261.47,84.16h3.12V99h-3.12Z"/><path class="cls-3" d="M267.11,85a1.78,1.78,0,0,1,1.94-1.74A1.75,1.75,0,0,1,271,84.94a1.95,1.95,0,0,1-3.88.06Zm.38,3.24h3.12V99h-3.12Z"/><path class="cls-3" d="M272.47,98l1-2.24a7.36,7.36,0,0,0,3.74,1c1.44,0,2-.38,2-1,0-1.76-6.5,0-6.5-4.26,0-2,1.84-3.48,5-3.48a8.85,8.85,0,0,1,4.14.94l-1,2.22a6.18,6.18,0,0,0-3.1-.8c-1.4,0-2,.44-2,1,0,1.84,6.5.06,6.5,4.3,0,2-1.86,3.42-5.08,3.42A9.24,9.24,0,0,1,272.47,98Z"/><path class="cls-3" d="M283.75,85a1.78,1.78,0,0,1,1.94-1.74,1.75,1.75,0,0,1,1.94,1.68,1.95,1.95,0,0,1-3.88.06Zm.38,3.24h3.12V99h-3.12Z"/><path class="cls-3" d="M289.11,98l1-2.24a7.36,7.36,0,0,0,3.74,1c1.44,0,2-.38,2-1,0-1.76-6.5,0-6.5-4.26,0-2,1.84-3.48,5-3.48a8.85,8.85,0,0,1,4.14.94l-1,2.22a6.18,6.18,0,0,0-3.1-.8c-1.4,0-2,.44-2,1,0,1.84,6.5.06,6.5,4.3,0,2-1.86,3.42-5.08,3.42A9.24,9.24,0,0,1,289.11,98Z"/><path class="cls-3" d="M317.39,84.16V99h-3V97.76a4.14,4.14,0,0,1-3.36,1.4,5.54,5.54,0,0,1,0-11.08,4.13,4.13,0,0,1,3.22,1.3V84.16Zm-3.06,9.46a2.76,2.76,0,1,0-2.74,3A2.73,2.73,0,0,0,314.33,93.62Z"/><path class="cls-3" d="M330.75,94.5h-8.14a2.87,2.87,0,0,0,3.08,2.16,3.65,3.65,0,0,0,2.7-1l1.66,1.8a5.64,5.64,0,0,1-4.44,1.74c-3.72,0-6.14-2.34-6.14-5.54a5.48,5.48,0,0,1,5.74-5.54,5.33,5.33,0,0,1,5.6,5.58C330.81,93.9,330.77,94.24,330.75,94.5Zm-8.18-1.82h5.3a2.69,2.69,0,0,0-5.3,0Z"/></g><g class="cls-4"><path class="cls-3" d="M246.19,109h6.36c4.58,0,7.72,2.76,7.72,7s-3.14,7-7.72,7h-6.36Zm6.2,11.34c2.78,0,4.6-1.66,4.6-4.34s-1.82-4.34-4.6-4.34h-3v8.68Z"/><path class="cls-3" d="M272,116.86V123h-2.92v-1.34a3.53,3.53,0,0,1-3.28,1.5c-2.52,0-4-1.4-4-3.26s1.34-3.22,4.62-3.22h2.48c0-1.34-.8-2.12-2.48-2.12a5.17,5.17,0,0,0-3.1,1l-1.12-2.18a8.27,8.27,0,0,1,4.64-1.3C270.11,112.08,272,113.6,272,116.86Zm-3.12,2.74v-1.1h-2.14c-1.46,0-1.92.54-1.92,1.26s.66,1.3,1.76,1.3A2.3,2.3,0,0,0,268.89,119.6Z"/><path class="cls-3" d="M281.77,122.48a4.46,4.46,0,0,1-2.54.68c-2.54,0-4-1.3-4-3.86v-4.42h-1.66v-2.4h1.66v-2.62h3.12v2.62H281v2.4h-2.68v4.38a1.25,1.25,0,0,0,1.34,1.42,2.1,2.1,0,0,0,1.26-.4Z"/><path class="cls-3" d="M282.39,117.62c0-3.24,2.5-5.54,5.92-5.54s5.9,2.3,5.9,5.54-2.48,5.54-5.9,5.54S282.39,120.86,282.39,117.62Zm8.66,0a2.76,2.76,0,1,0-2.74,3A2.72,2.72,0,0,0,291.05,117.62Z"/><path class="cls-3" d="M295.25,122l1-2.24a7.36,7.36,0,0,0,3.74,1c1.44,0,2-.38,2-1,0-1.76-6.5,0-6.5-4.26,0-2,1.84-3.48,5-3.48a8.85,8.85,0,0,1,4.14.94l-1,2.22a6.18,6.18,0,0,0-3.1-.8c-1.4,0-2,.44-2,1,0,1.84,6.5.06,6.5,4.3,0,2-1.86,3.42-5.08,3.42A9.24,9.24,0,0,1,295.25,122Z"/></g></g><g id="Grupo_263" data-name="Grupo 263"><g id="Grupo_238" data-name="Grupo 238"><g id="Grupo_237" data-name="Grupo 237"><path id="Trazado_236" data-name="Trazado 236" class="cls-5" d="M119.67,49.52H55.39a8,8,0,0,0-8,8V109a8,8,0,0,0,6,7.78l.8-3.11A4.82,4.82,0,0,1,50.57,109V57.55a4.82,4.82,0,0,1,4.82-4.82h64.28a4.82,4.82,0,0,1,4.82,4.82h0v1.61h3.21V57.55A8,8,0,0,0,119.67,49.52Z"/></g></g><g id="Grupo_240" data-name="Grupo 240"><g id="Grupo_239" data-name="Grupo 239"><rect id="Rectángulo_86" data-name="Rectángulo 86" class="cls-5" x="53.79" y="55.95" width="3.21" height="3.21"/></g></g><g id="Grupo_242" data-name="Grupo 242"><g id="Grupo_241" data-name="Grupo 241"><rect id="Rectángulo_87" data-name="Rectángulo 87" class="cls-5" x="60.21" y="55.95" width="3.21" height="3.21"/></g></g><g id="Grupo_244" data-name="Grupo 244"><g id="Grupo_243" data-name="Grupo 243"><rect id="Rectángulo_88" data-name="Rectángulo 88" class="cls-5" x="66.64" y="55.95" width="3.21" height="3.21"/></g></g><g id="Grupo_246" data-name="Grupo 246"><g id="Grupo_245" data-name="Grupo 245"><path id="Trazado_237" data-name="Trazado 237" class="cls-5" d="M141.68,138.36l-15.23-15.24a21.78,21.78,0,0,0,1.9-4.51h2.56v-3.22h-1.86a21.77,21.77,0,0,0-1.35-11.51V88.08h-3.22V98.31A22.46,22.46,0,0,0,121.27,95V81.65h-3.21V92.73a21.55,21.55,0,0,0-3.22-1.53v-16h-3.21v15a21.75,21.75,0,0,0-3.21-.45V78.43H105.2V89.76a23.19,23.19,0,0,0-3.21.46V84.86H98.78v6.33a23,23,0,0,0-3.21,1.53V83.26H92.35V95a22.53,22.53,0,0,0-3.21,3.34V86.47H85.93v17.41a21.56,21.56,0,0,0-1.35,11.51H63.43v3.22H85.26a22.44,22.44,0,0,0,34.46,12l14.87,14.88a1.6,1.6,0,0,0,2.27,0l4.82-4.82a1.59,1.59,0,0,0,0-2.26S141.7,138.35,141.68,138.36Zm-34.87-6.9a19.28,19.28,0,1,1,19.28-19.28,19.28,19.28,0,0,1-19.28,19.28ZM135.73,142l-13.52-13.52a21.85,21.85,0,0,0,2.42-2.67l13.65,13.64Z"/></g></g><g id="Grupo_248" data-name="Grupo 248"><g id="Grupo_247" data-name="Grupo 247"><path id="Trazado_238" data-name="Trazado 238" class="cls-5" d="M106.81,96.11a16.07,16.07,0,1,0,16.07,16.07,16.06,16.06,0,0,0-16.07-16.07Zm0,28.92a12.84,12.84,0,0,1-11.11-6.42h22.23A12.85,12.85,0,0,1,106.81,125Zm-12.43-9.64a12.71,12.71,0,0,1,4.4-13.23v10H102V100.27a12.75,12.75,0,0,1,3.21-.83v12.74h3.22V99.44a12.75,12.75,0,0,1,3.21.83v11.91h3.21v-10a12.73,12.73,0,0,1,4.4,13.23Z"/></g></g><g id="Grupo_250" data-name="Grupo 250"><g id="Grupo_249" data-name="Grupo 249"><path id="Trazado_239" data-name="Trazado 239" class="cls-5" d="M129.3,62.37H65a8.05,8.05,0,0,0-8,8v51.41a8,8,0,0,0,8,8H85.92v-3.21H65a4.82,4.82,0,0,1-4.82-4.82h0V70.41A4.82,4.82,0,0,1,65,65.59H129.3a4.82,4.82,0,0,1,4.82,4.82h0v51.41a4.86,4.86,0,0,1-1.2,3.19l2.41,2.12a8,8,0,0,0,2-5.31V70.41A8,8,0,0,0,129.3,62.37Z"/></g></g><g id="Grupo_252" data-name="Grupo 252"><g id="Grupo_251" data-name="Grupo 251"><rect id="Rectángulo_89" data-name="Rectángulo 89" class="cls-5" x="63.43" y="68.8" width="3.21" height="3.21"/></g></g><g id="Grupo_254" data-name="Grupo 254"><g id="Grupo_253" data-name="Grupo 253"><rect id="Rectángulo_90" data-name="Rectángulo 90" class="cls-5" x="69.85" y="68.8" width="3.21" height="3.21"/></g></g><g id="Grupo_256" data-name="Grupo 256"><g id="Grupo_255" data-name="Grupo 255"><rect id="Rectángulo_91" data-name="Rectángulo 91" class="cls-5" x="76.28" y="68.8" width="3.21" height="3.21"/></g></g><g id="Grupo_258" data-name="Grupo 258"><g id="Grupo_257" data-name="Grupo 257"><rect id="Rectángulo_92" data-name="Rectángulo 92" class="cls-5" x="66.64" y="102.54" width="3.21" height="9.64"/></g></g><g id="Grupo_260" data-name="Grupo 260"><g id="Grupo_259" data-name="Grupo 259"><rect id="Rectángulo_93" data-name="Rectángulo 93" class="cls-5" x="73.07" y="92.9" width="3.21" height="19.28"/></g></g><g id="Grupo_262" data-name="Grupo 262"><g id="Grupo_261" data-name="Grupo 261"><rect id="Rectángulo_94" data-name="Rectángulo 94" class="cls-5" x="79.49" y="97.72" width="3.21" height="14.46"/></g></g></g></g></g></svg>