<?xml version="1.0" encoding="UTF-8"?>
<!DOCTYPE svg PUBLIC "-//W3C//DTD SVG 1.1//EN" "http://www.w3.org/Graphics/SVG/1.1/DTD/svg11.dtd">
<!-- Creator: CorelDRAW X5 -->
<svg xmlns="http://www.w3.org/2000/svg" xml:space="preserve" width="92.7944mm" height="15.7818mm" style="shape-rendering:geometricPrecision; text-rendering:geometricPrecision; image-rendering:optimizeQuality; fill-rule:evenodd; clip-rule:evenodd"
viewBox="0 0 13.8487 2.35529"
 xmlns:xlink="http://www.w3.org/1999/xlink">
 <defs>
  <style type="text/css">
   <![CDATA[
    .fil0 {fill:#2B2A29;fill-rule:nonzero}
   ]]>
  </style>
 </defs>
 <g id="Layer_x0020_1">
  <metadata id="CorelCorpID_0Corel-Layer"/>
  <path class="fil0" d="M-0 0.914818c0.000417875,0.10614 0.0155808,0.206386 0.0459066,0.300736 0.0299079,0.0943502 0.0728595,0.180268 0.128467,0.258187 0.0555923,0.0779188 0.121721,0.145734 0.198371,0.202177 0.0766652,0.0568609 0.161748,0.101081 0.255247,0.131825 0.0939174,0.0311765 0.193327,0.0467572 0.299467,0.0471751 0.10614,-0.000417875 0.205968,-0.0159986 0.299467,-0.0471751 0.0934996,-0.0307437 0.178582,-0.0749638 0.255232,-0.131825 0.0766652,-0.056443 0.142794,-0.124258 0.198386,-0.202177 0.0555923,-0.0779188 0.0985588,-0.163837 0.128467,-0.258187 0.0303258,-0.0943502 0.0454887,-0.194596 0.0459066,-0.300736 -0.000417875,-0.103185 -0.0155808,-0.200491 -0.0459066,-0.292304 -0.0299079,-0.0918131 -0.0728744,-0.175642 -0.128467,-0.251456 -0.0555923,-0.0758145 -0.121721,-0.14151 -0.198386,-0.196685 -0.0766502,-0.0556072 -0.161733,-0.098141 -0.255232,-0.128467 -0.0934996,-0.0303258 -0.193327,-0.0454887 -0.299467,-0.0459066 -0.10614,0.000417875 -0.20555,0.0155808 -0.299467,0.0459066 -0.0934996,0.0303258 -0.178582,0.0728595 -0.255247,0.128467 -0.0766502,0.0551744 -0.142779,0.12087 -0.198371,0.196685 -0.0556072,0.0758145 -0.0985588,0.159643 -0.128467,0.251456 -0.0303258,0.0918131 -0.0454887,0.189118 -0.0459066,0.292304zm0.336106 0c0.000417875,-0.0888731 0.0159986,-0.171 0.0463244,-0.245546 0.0303258,-0.0749787 0.0724566,-0.140257 0.126362,-0.195431 0.053488,-0.0556072 0.116244,-0.0985588 0.18785,-0.129317 0.071188,-0.0303258 0.148256,-0.0459066 0.230816,-0.0463244 0.0825453,0.000417875 0.159628,0.0159986 0.231234,0.0463244 0.0711731,0.0307586 0.133929,0.0737102 0.18785,0.129317 0.0539059,0.0551744 0.0960367,0.120453 0.12593,0.195431 0.0303258,0.0745459 0.0459215,0.156673 0.0463394,0.245546 -0.000417875,0.0926638 -0.0160136,0.178164 -0.0463394,0.256083 -0.029893,0.0779188 -0.0720238,0.145734 -0.12593,0.203446 -0.0539208,0.0572787 -0.116677,0.102335 -0.18785,0.133929 -0.0716059,0.0320122 -0.148689,0.0480109 -0.231234,0.0484437 -0.0825602,-0.000432799 -0.159628,-0.0164314 -0.230816,-0.0484437 -0.0716059,-0.0315943 -0.134362,-0.0766502 -0.18785,-0.133929 -0.0539059,-0.0577115 -0.0960367,-0.125527 -0.126362,-0.203446 -0.0303258,-0.0779188 -0.0459066,-0.163419 -0.0463244,-0.256083zm1.79933 1.41521l0.320958 0 0 -0.54082c-0.000432799,-0.0332658 -0.00126855,-0.0602188 -0.0025371,-0.080441 -0.00168642,-0.0198043 -0.00252217,-0.0303258 -0.00252217,-0.0307437l0.00505927 0c0,0.000417875 0.00462647,0.00673077 0.0138943,0.0185208 0.00926787,0.011805 0.0235801,0.0261172 0.0425337,0.0438172 0.0189536,0.0172672 0.0429665,0.0349523 0.0724566,0.0522195 0.0290572,0.0176851 0.0635916,0.0320122 0.103603,0.0438023 0.0400115,0.01179 0.0855002,0.0181179 0.136466,0.0185357 0.0850824,-0.000417875 0.163419,-0.0164314 0.235025,-0.0480109 0.071188,-0.0315943 0.133526,-0.0766652 0.186596,-0.136048 0.0526373,-0.0589652 0.0934996,-0.129735 0.122975,-0.212698 0.0290722,-0.0825602 0.0438172,-0.175224 0.0442351,-0.277991 -0.000417875,-0.100245 -0.0134765,-0.191641 -0.0400115,-0.273768 -0.0265351,-0.0825602 -0.0648751,-0.153733 -0.114572,-0.213549 -0.0501152,-0.0598158 -0.109931,-0.105722 -0.180268,-0.138153 -0.0699195,-0.0324301 -0.148674,-0.0488615 -0.236279,-0.0492794 -0.0606516,0.000417875 -0.113722,0.00799932 -0.159643,0.0219086 -0.0459066,0.0143122 -0.0846496,0.0320122 -0.11708,0.0526373 -0.032445,0.0210728 -0.0589801,0.0421308 -0.0791873,0.0631887 -0.0202222,0.02064 -0.0349672,0.0383251 -0.0446529,0.0522195 -0.00926787,0.0143271 -0.0138943,0.0219086 -0.0138943,0.0223265l-0.00505927 0c0,-0.00083575 0.000850674,-0.00968575 0.0025371,-0.0261172 0.00125363,-0.0168493 0.0021043,-0.0374744 0.00252217,-0.062338l0 -0.0934996 -0.293154 0 0 1.79428zm0.310839 -1.14228c0.000417875,-0.0711731 0.00926787,-0.132675 0.0269529,-0.184059 0.0177,-0.0513837 0.041698,-0.0934996 0.0720238,-0.126362 0.0307586,-0.032848 0.0648751,-0.0572787 0.103618,-0.0732774 0.0383251,-0.0155957 0.0787695,-0.0231771 0.120885,-0.0231771 0.0635916,0.000432799 0.119617,0.0172821 0.167628,0.0501301 0.0480258,0.0332658 0.0855002,0.0800231 0.112468,0.140257 0.0269529,0.0606516 0.0404294,0.131825 0.0408473,0.213967 -0.000417875,0.0640244 -0.00883507,0.120453 -0.0256844,0.170165 -0.0168493,0.0492645 -0.0400115,0.0909625 -0.0695016,0.125079 -0.0299079,0.0341165 -0.0640244,0.0598158 -0.103185,0.0775009 -0.0387579,0.0177 -0.0804559,0.0265351 -0.125094,0.0265351 -0.0530701,-0.000417875 -0.0998274,-0.01179 -0.139839,-0.0336837 -0.0400115,-0.0223265 -0.0732923,-0.0522344 -0.100245,-0.0897238 -0.0269529,-0.0379072 -0.0471751,-0.0800231 -0.0606516,-0.127198 -0.0134765,-0.0471751 -0.0202222,-0.0956039 -0.0202222,-0.146152zm1.22819 0.636842l0.326002 0 0.0758145 -1.00327c0.0016715,-0.0303258 0.00294005,-0.0615023 0.00379072,-0.0939324 0.000417875,-0.0324301 0.000417875,-0.0627559 0.000417875,-0.0909774 -0.000417875,-0.0282215 -0.000417875,-0.0509658 -0.000850674,-0.0686509 -0.000417875,-0.0172672 -0.00083575,-0.0265351 -0.00083575,-0.0269529l0.00505927 0c0,0.00083575 0.00335793,0.0105215 0.00925295,0.0290572 0.00632782,0.0189536 0.0143271,0.0429665 0.0240129,0.0724416 0.00968575,0.0290722 0.0202222,0.0598158 0.0315943,0.0914102 0.01179,0.0319973 0.0227443,0.0610695 0.0336986,0.0876045l0.288095 0.694956 0.285558 0 0.290617 -0.694956c0.0109543,-0.0265351 0.0219086,-0.0556072 0.0332808,-0.0871867 0.0109543,-0.0315943 0.0214758,-0.0619201 0.0307437,-0.0905595 0.00968575,-0.0290572 0.0172672,-0.0526523 0.0231622,-0.071188 0.00590995,-0.0189536 0.00885,-0.0286394 0.00885,-0.0290572l0.00505927 0c0,0.000417875 -0.000417875,0.00926787 -0.000850674,0.0265351 0,0.0176851 -0.000417875,0.0400115 -0.00083575,0.0678152 0,0.0278036 0,0.0581294 0.00083575,0.0901267 0.000432799,0.0320122 0.00168642,0.0631887 0.00337285,0.0935145l0.0758145 1.00327 0.32348 0 -0.144048 -1.79427 -0.348747 0 -0.351269 0.887015c-0.0101185,0.0269679 -0.02064,0.0556072 -0.0307586,0.085933 -0.0105215,0.0299079 -0.0197894,0.0585473 -0.0286394,0.0855002 -0.00883507,0.0265351 -0.0155808,0.0484287 -0.0210579,0.0652781 -0.00505927,0.0168493 -0.00799932,0.0256993 -0.00799932,0.0261172l-0.00505927 0c0,-0.000417875 -0.00294005,-0.00926787 -0.0084172,-0.0261172 -0.00547715,-0.0168493 -0.0130586,-0.038743 -0.0219086,-0.0652781 -0.00883507,-0.0269529 -0.0189536,-0.0555923 -0.0294751,-0.0855002 -0.0105364,-0.0303258 -0.0210579,-0.0589652 -0.0311765,-0.085933l-0.351269 -0.887015 -0.348747 0 -0.14657 1.79427zm2.11521 -0.371491c0.000417875,0.0644423 0.0126407,0.121721 0.0358029,0.171418 0.0235801,0.0501301 0.0560102,0.0918281 0.0964545,0.125945 0.0408473,0.0345344 0.0871867,0.0602337 0.139406,0.0779188 0.0526523,0.0176851 0.107409,0.0265351 0.165538,0.0265351 0.0585324,-0.00083575 0.109498,-0.0084172 0.153733,-0.0235801 0.0438023,-0.0151629 0.0808588,-0.0341165 0.111617,-0.056443 0.0307437,-0.0223265 0.0551744,-0.0450708 0.0741281,-0.0673973 0.0185208,-0.0223265 0.0324301,-0.0412801 0.0408473,-0.056443 0.00799932,-0.0151629 0.0122228,-0.0231622 0.0113722,-0.0235801l0.00505927 0c0,0.00083575 -0.000850674,0.00968575 -0.00252217,0.0265351 -0.00126855,0.0172672 -0.00211922,0.038743 -0.0025371,0.0644423l0 0.10614 0.295677 0 0 -0.806156c-0.000417875,-0.109095 -0.0214758,-0.201759 -0.0635916,-0.277991 -0.0421308,-0.0762324 -0.1032,-0.134362 -0.182805,-0.174373 -0.0796052,-0.0400115 -0.17606,-0.0602337 -0.289349,-0.0606516 -0.0610844,0.000417875 -0.117945,0.00589502 -0.170165,0.0164314 -0.0518165,0.0105215 -0.0985588,0.023998 -0.139839,0.0395937 -0.0412801,0.0155808 -0.0766502,0.0315794 -0.105722,0.0471751 -0.0290572,0.0155808 -0.0509658,0.0286394 -0.0665466,0.0395787 -0.0151629,0.0105364 -0.0231622,0.0160136 -0.0231622,0.0164314l0.121303 0.229966c0.000417875,-0.00083575 0.0101036,-0.00714865 0.02949,-0.0193715 0.0189536,-0.0122079 0.0450559,-0.0265351 0.0783367,-0.0425337 0.032848,-0.0160136 0.0707552,-0.0303258 0.112871,-0.0425486 0.0421308,-0.0122079 0.0867688,-0.0189536 0.133108,-0.0193715 0.047593,-0.000417875 0.0901267,0.0067457 0.127198,0.0214758 0.0370566,0.0143271 0.0665466,0.03834 0.0876045,0.0716059 0.0214758,0.0332808 0.0324301,0.0783516 0.032848,0.134362l0 0.0176851 -0.0429516 0c-0.0358029,-0.000417875 -0.0787695,0.000850674 -0.129317,0.00379072 -0.050533,0.00295497 -0.104454,0.00926787 -0.161733,0.0185357 -0.0572787,0.00926787 -0.113722,0.023595 -0.169314,0.0425486 -0.0556072,0.0193715 -0.10614,0.0450559 -0.151629,0.0770681 -0.0454887,0.0320122 -0.0821423,0.0724566 -0.109095,0.120885 -0.0273708,0.0484437 -0.0412801,0.106558 -0.0421158,0.174373zm0.32348 -0.0151629c0.000417875,-0.0358029 0.0101036,-0.0657109 0.0290572,-0.0901267 0.0185357,-0.0240129 0.0438023,-0.0438172 0.0749638,-0.0585473 0.0311765,-0.0151629 0.0657109,-0.0261172 0.103618,-0.0341165 0.0374894,-0.00758145 0.0758145,-0.0130586 0.11414,-0.0155957 0.0387579,-0.00294005 0.0745609,-0.0042086 0.107827,-0.00379072l0.0556072 0 0 0.0303258c0,0.0395937 -0.00716357,0.0791873 -0.0214907,0.119199 -0.0143122,0.0395937 -0.0345344,0.0758145 -0.0602337,0.109095 -0.0261023,0.032848 -0.0568609,0.059383 -0.092231,0.0796052 -0.0353851,0.0197894 -0.0741281,0.0303258 -0.116677,0.0307437 -0.0438023,-0.000417875 -0.0800231,-0.0084172 -0.108662,-0.0240129 -0.0290572,-0.0155808 -0.050548,-0.0362208 -0.0648602,-0.0614873 -0.0139093,-0.0248486 -0.0210579,-0.0522344 -0.0210579,-0.0812916zm1.13468 0.386654l0.320958 0 0 -0.591353c0,-0.0303258 0.00125363,-0.0598009 0.00462647,-0.0888731 0.00337285,-0.0286394 0.00926787,-0.056443 0.0181179,-0.0829781 0.0159986,-0.0518016 0.0404294,-0.0972903 0.0728595,-0.136884 0.0324301,-0.0391609 0.0716059,-0.0699195 0.11793,-0.092231 0.0463394,-0.0219086 0.098141,-0.0332808 0.15542,-0.0336986 0.0543387,0.000417875 0.0964545,0.0113722 0.125945,0.0332658 0.029893,0.0219086 0.050533,0.0522344 0.062338,0.0918281 0.0113722,0.0391609 0.0168344,0.0850824 0.0164165,0.13772l0 0.763204 0.318421 0 0 -0.8289c-0.000417875,-0.113304 -0.0176851,-0.206386 -0.0526523,-0.278827 -0.0345344,-0.0724566 -0.0850674,-0.125527 -0.151629,-0.160061 -0.0665466,-0.0345344 -0.147405,-0.0518016 -0.243024,-0.0513837 -0.0648602,0.000417875 -0.12299,0.00926787 -0.173523,0.0265351 -0.050548,0.0172672 -0.0947681,0.0395937 -0.13184,0.0665466 -0.0374894,0.0273857 -0.0686509,0.056443 -0.0939174,0.0871867 -0.0248636,0.0307437 -0.0442351,0.0598158 -0.0581294,0.0876045l-0.00505927 0c0,-0.00083575 0.000850674,-0.00968575 0.0025371,-0.0261023 0.00125363,-0.0168493 0.0021043,-0.0374894 0.00252217,-0.062338l0 -0.149107 -0.308317 0 0 1.28885zm1.44048 -0.371491c0.000417875,0.0644423 0.0126407,0.121721 0.0358029,0.171418 0.0235801,0.0501301 0.0560102,0.0918281 0.0964545,0.125945 0.0408473,0.0345344 0.0871867,0.0602337 0.139406,0.0779188 0.0526523,0.0176851 0.107409,0.0265351 0.165538,0.0265351 0.0585324,-0.00083575 0.109498,-0.0084172 0.153733,-0.0235801 0.0438023,-0.0151629 0.0808588,-0.0341165 0.111617,-0.056443 0.0307437,-0.0223265 0.0551744,-0.0450708 0.0741281,-0.0673973 0.0185208,-0.0223265 0.0324301,-0.0412801 0.0408473,-0.056443 0.00799932,-0.0151629 0.0122228,-0.0231622 0.0113722,-0.0235801l0.00505927 0c0,0.00083575 -0.000850674,0.00968575 -0.00252217,0.0265351 -0.00126855,0.0172672 -0.00211922,0.038743 -0.0025371,0.0644423l0 0.10614 0.295677 0 0 -0.806156c-0.000417875,-0.109095 -0.0214758,-0.201759 -0.0635916,-0.277991 -0.0421308,-0.0762324 -0.1032,-0.134362 -0.182805,-0.174373 -0.0796052,-0.0400115 -0.17606,-0.0602337 -0.289349,-0.0606516 -0.0610844,0.000417875 -0.117945,0.00589502 -0.170165,0.0164314 -0.0518165,0.0105215 -0.0985588,0.023998 -0.139839,0.0395937 -0.0412801,0.0155808 -0.0766502,0.0315794 -0.105722,0.0471751 -0.0290572,0.0155808 -0.0509658,0.0286394 -0.0665466,0.0395787 -0.0151629,0.0105364 -0.0231622,0.0160136 -0.0231622,0.0164314l0.121303 0.229966c0.000417875,-0.00083575 0.0101036,-0.00714865 0.02949,-0.0193715 0.0189536,-0.0122079 0.0450559,-0.0265351 0.0783367,-0.0425337 0.032848,-0.0160136 0.0707552,-0.0303258 0.112871,-0.0425486 0.0421308,-0.0122079 0.0867688,-0.0189536 0.133108,-0.0193715 0.047593,-0.000417875 0.0901267,0.0067457 0.127198,0.0214758 0.0370566,0.0143271 0.0665466,0.03834 0.0876045,0.0716059 0.0214758,0.0332808 0.0324301,0.0783516 0.032848,0.134362l0 0.0176851 -0.0429516 0c-0.0358029,-0.000417875 -0.0787695,0.000850674 -0.129317,0.00379072 -0.050533,0.00295497 -0.104454,0.00926787 -0.161733,0.0185357 -0.0572787,0.00926787 -0.113722,0.023595 -0.169314,0.0425486 -0.0556072,0.0193715 -0.10614,0.0450559 -0.151629,0.0770681 -0.0454887,0.0320122 -0.0821423,0.0724566 -0.109095,0.120885 -0.0273708,0.0484437 -0.0412801,0.106558 -0.0421158,0.174373zm0.32348 -0.0151629c0.000417875,-0.0358029 0.0101036,-0.0657109 0.0290572,-0.0901267 0.0185357,-0.0240129 0.0438023,-0.0438172 0.0749638,-0.0585473 0.0311765,-0.0151629 0.0657109,-0.0261172 0.103618,-0.0341165 0.0374894,-0.00758145 0.0758145,-0.0130586 0.11414,-0.0155957 0.0387579,-0.00294005 0.0745609,-0.0042086 0.107827,-0.00379072l0.0556072 0 0 0.0303258c0,0.0395937 -0.00716357,0.0791873 -0.0214907,0.119199 -0.0143122,0.0395937 -0.0345344,0.0758145 -0.0602337,0.109095 -0.0261023,0.032848 -0.0568609,0.059383 -0.092231,0.0796052 -0.0353851,0.0197894 -0.0741281,0.0303258 -0.116677,0.0307437 -0.0438023,-0.000417875 -0.0800231,-0.0084172 -0.108662,-0.0240129 -0.0290572,-0.0155808 -0.050548,-0.0362208 -0.0648602,-0.0614873 -0.0139093,-0.0248486 -0.0210579,-0.0522344 -0.0210579,-0.0812916zm1.2661 0.561027l-0.0960367 0.245129c0.041698,0.0219086 0.0876045,0.0412801 0.137735,0.0581294 0.0501152,0.0164314 0.10235,0.0294751 0.156673,0.038743 0.0543387,0.00926787 0.108677,0.0143271 0.163001,0.0143271 0.0678152,0 0.134362,-0.0067457 0.199655,-0.0210579 0.0656959,-0.0139093 0.127198,-0.0358029 0.184895,-0.0661287 0.0577115,-0.0299079 0.108662,-0.0686509 0.152898,-0.116244 0.0442201,-0.0480258 0.0787545,-0.105305 0.104036,-0.172269 0.0252665,-0.0673973 0.0379072,-0.144898 0.0383251,-0.233338l0 -1.21051 -0.300736 0 0 0.0985588c0,0.0101036 0.000417875,0.0185357 0.00126855,0.0252665 0.00083575,0.00632782 0.00126855,0.00970067 0.00126855,0.0101185l-0.00758145 0c0,-0.000417875 -0.00422352,-0.00632782 -0.0126407,-0.0172672 -0.00885,-0.0109543 -0.0223265,-0.0244308 -0.0408622,-0.0404443 -0.0185208,-0.0164165 -0.0429516,-0.0324301 -0.0724416,-0.0488466 -0.0299079,-0.0160136 -0.0661287,-0.02949 -0.108245,-0.0404443 -0.0421158,-0.0109394 -0.0913953,-0.0168493 -0.14742,-0.0172672 -0.0930817,0.000417875 -0.174791,0.0172672 -0.245964,0.050548 -0.071188,0.0332658 -0.130571,0.0791873 -0.179015,0.13772 -0.0480109,0.0585473 -0.0846645,0.12678 -0.10908,0.203863 -0.0244308,0.0775009 -0.0370715,0.160897 -0.0370715,0.24977 0,0.0888731 0.0130586,0.172687 0.038743,0.251024 0.0252814,0.0783367 0.0627708,0.14742 0.112468,0.207654 0.0492794,0.0598009 0.109931,0.106976 0.181537,0.141093 0.071591,0.0341165 0.153733,0.0513837 0.245964,0.0522344 0.0855002,0 0.157106,-0.0151629 0.215653,-0.0446529 0.0581294,-0.0294751 0.105722,-0.0728595 0.143212,-0.12972l0.00504435 0c0,0.000417875 -0.000417875,0.00379072 -0.00125363,0.0109394 -0.000850674,0.00716357 -0.00168642,0.0155957 -0.0025371,0.0261172 -0.00083575,0.0105364 -0.00125363,0.02064 -0.00125363,0.0311765l0 0.0758145c-0.000432799,0.0572787 -0.0101185,0.10614 -0.0290722,0.146152 -0.0189536,0.0400115 -0.0454887,0.0720238 -0.0787545,0.0968724 -0.0336986,0.0244308 -0.0724566,0.0425337 -0.115826,0.0539059 -0.0438172,0.0109543 -0.0905595,0.0164314 -0.140257,0.0164314 -0.0488615,-0.000417875 -0.0947681,-0.00462647 -0.137735,-0.0130586 -0.0429665,-0.00799932 -0.0808738,-0.0176851 -0.113304,-0.0286394 -0.032848,-0.0109543 -0.0585473,-0.0202222 -0.0770681,-0.0286394 -0.0185357,-0.00843212 -0.0278036,-0.0126407 -0.0282215,-0.0130586zm0.429606 -0.47005c-0.0690688,-0.00083575 -0.128034,-0.0176851 -0.17606,-0.0513837 -0.0480109,-0.0336986 -0.0846496,-0.0800231 -0.109498,-0.138988 -0.0252814,-0.0585473 -0.0379072,-0.125527 -0.0379072,-0.201341 0,-0.0728595 0.01179,-0.136033 0.0353701,-0.189536 0.023595,-0.0539059 0.0577115,-0.095186 0.102767,-0.124661 0.0450708,-0.02949 0.100245,-0.0442351 0.16512,-0.0446529 0.0438023,-0.000417875 0.0850674,0.00505927 0.123407,0.0168493 0.0383251,0.0113722 0.0720238,0.0311615 0.101081,0.0589652 0.02949,0.0278036 0.0522344,0.0657109 0.0686509,0.113722 0.0164314,0.0484437 0.0248486,0.109095 0.0252814,0.181955 -0.000432799,0.0724416 -0.00843212,0.133093 -0.0248636,0.181955 -0.0164165,0.0488615 -0.0383251,0.0876045 -0.0665466,0.116677 -0.0277887,0.0286394 -0.0598009,0.0496973 -0.095186,0.0619052 -0.0353851,0.0126407 -0.0728595,0.0189536 -0.111617,0.0185357zm0.874389 -0.348747c0.000432799,0.0922459 0.0164314,0.179015 0.0480258,0.259874 0.0320122,0.0812916 0.0779188,0.152898 0.138153,0.214803 0.0602188,0.062338 0.132675,0.110782 0.217743,0.146167 0.0855002,0.0353701 0.181537,0.0530701 0.288528,0.0539059 0.0644423,-0.000417875 0.123407,-0.0067457 0.177313,-0.0193715 0.053488,-0.0122228 0.101514,-0.0273857 0.14363,-0.0454887 0.0421158,-0.0181179 0.0779188,-0.0366536 0.107409,-0.0547566 0.0290572,-0.0181179 0.0513837,-0.0332808 0.0665466,-0.0454887 0.0155808,-0.0126407 0.0231622,-0.0189536 0.0231622,-0.0193715l-0.123825 -0.229981c0,0.000432799 -0.00632782,0.00547715 -0.0185357,0.014745 -0.0126407,0.00926787 -0.0299079,0.0210579 -0.0526523,0.0349672 -0.0223265,0.0138943 -0.0492794,0.0282066 -0.0800231,0.0421158 -0.0307437,0.0138943 -0.0648602,0.0256844 -0.101932,0.0349523 -0.0374894,0.00926787 -0.0766502,0.0143271 -0.118348,0.014745 -0.0484437,0 -0.0943502,-0.00716357 -0.138585,-0.0214758 -0.0442201,-0.014745 -0.0838138,-0.0362208 -0.119184,-0.0648751 -0.0353851,-0.0286394 -0.0644423,-0.0640095 -0.0867688,-0.106558 -0.0227443,-0.0425337 -0.0366387,-0.092231 -0.0421158,-0.148256l0.889552 0c0,-0.000417875 0.000417875,-0.00505927 0.00125363,-0.0138943 0.000850674,-0.00926787 0.00168642,-0.0202222 0.0025371,-0.0336986 0.00083575,-0.0134765 0.00168642,-0.0273708 0.00252217,-0.0408622 0.000850674,-0.0138943 0.00126855,-0.0256844 0.00126855,-0.0353701 0,-0.085933 -0.0122228,-0.165538 -0.0370715,-0.239666 -0.0244308,-0.0737102 -0.0610695,-0.13857 -0.10908,-0.194163 -0.0484437,-0.0555923 -0.107827,-0.0989767 -0.179015,-0.130153 -0.0711731,-0.0311615 -0.152883,-0.0471751 -0.245964,-0.047593 -0.0964545,0.000417875 -0.184492,0.0168493 -0.264515,0.0496973 -0.0796052,0.0324301 -0.148674,0.0787695 -0.206803,0.139003 -0.0581294,0.0598009 -0.103185,0.130989 -0.13478,0.213116 -0.0320122,0.0825602 -0.0480109,0.173105 -0.0484437,0.272932zm0.338643 -0.15921c0.0101036,-0.0560102 0.0290572,-0.103618 0.0568609,-0.14363 0.0278036,-0.0400115 0.0627559,-0.0703373 0.10529,-0.0918131 0.0425486,-0.0214758 0.0914102,-0.0324301 0.146167,-0.0324301 0.047593,0 0.0901267,0.0101036 0.128034,0.0307437 0.0374894,0.0202222 0.0678152,0.050548 0.0901416,0.0901416 0.0227443,0.0395787 0.0349523,0.0888582 0.0370566,0.146988l-0.563549 0zm1.15237 0.803634l0.320958 0 0 -0.510479c0,-0.0379072 0.0021043,-0.0745609 0.0063129,-0.109513 0.0042086,-0.0353851 0.0113722,-0.0686509 0.0214758,-0.100245 0.0210579,-0.0640244 0.0501301,-0.115826 0.0876045,-0.15542 0.0374894,-0.0400115 0.0796052,-0.0690688 0.125527,-0.0876045 0.0459066,-0.0185357 0.0918131,-0.0278036 0.138153,-0.0273857 0.0218937,0 0.0400115,0.000850674 0.0539059,0.0025371 0.0143271,0.00125363 0.0214758,0.0021043 0.0219086,0.00252217l0 -0.315884c-0.000432799,-0.000432799 -0.00632782,-0.00126855 -0.0177,-0.0025371 -0.0113722,-0.00168642 -0.0248486,-0.00252217 -0.0404294,-0.00252217 -0.0661287,0.00083575 -0.126362,0.0155808 -0.180686,0.044638 -0.0547566,0.02949 -0.101514,0.0686658 -0.14069,0.118363 -0.038743,0.0496973 -0.068233,0.105722 -0.0880224,0.168046l-0.00505927 0c0,-0.000417875 0.000417875,-0.00462647 0.00126855,-0.0130437 0.00083575,-0.00843212 0.00168642,-0.0193864 0.00252217,-0.0328629 0.000850674,-0.0138943 0.00126855,-0.0290572 0.00126855,-0.0450708l0 -0.222384 -0.308317 0 0 1.28885z"/>
 </g>
</svg>
