<svg xmlns="http://www.w3.org/2000/svg" xmlns:xlink="http://www.w3.org/1999/xlink" viewBox="0 0 481.28 544.13"><defs><style>.cls-1{mask:url(#mask);filter:url(#luminosity-noclip-6);}.cls-10,.cls-2,.cls-4,.cls-6,.cls-8{mix-blend-mode:multiply;}.cls-2{fill:url(#linear-gradient);}.cls-3{mask:url(#mask-2);filter:url(#luminosity-noclip-7);}.cls-4{fill:url(#linear-gradient-2);}.cls-5{mask:url(#mask-3);filter:url(#luminosity-noclip-8);}.cls-6{fill:url(#linear-gradient-3);}.cls-7{mask:url(#mask-4);filter:url(#luminosity-noclip-9);}.cls-8{fill:url(#linear-gradient-4);}.cls-9{mask:url(#mask-5);filter:url(#luminosity-noclip-10);}.cls-10{fill:url(#linear-gradient-5);}.cls-11{opacity:0.3;}.cls-12,.cls-13,.cls-14{fill:#211915;}.cls-12{opacity:0.01;}.cls-13{opacity:0.02;}.cls-14{opacity:0.03;}.cls-15{fill:url(#linear-gradient-6);}.cls-16{fill:url(#linear-gradient-7);}.cls-17{fill:url(#linear-gradient-8);}.cls-18{fill:url(#linear-gradient-9);}.cls-19{fill:url(#linear-gradient-10);}.cls-20{fill:url(#radial-gradient);}.cls-21{fill:url(#linear-gradient-11);}.cls-22{fill:url(#linear-gradient-12);}.cls-23{fill:url(#linear-gradient-13);}.cls-24{fill:url(#linear-gradient-14);}.cls-25{fill:url(#radial-gradient-2);}.cls-26{mask:url(#mask-6);}.cls-27{fill:url(#linear-gradient-15);}.cls-28{mask:url(#mask-7);}.cls-29{fill:url(#linear-gradient-16);}.cls-30{mask:url(#mask-8);}.cls-31{fill:url(#linear-gradient-17);}.cls-32{fill:url(#linear-gradient-18);}.cls-33{fill:url(#linear-gradient-19);}.cls-34{fill:url(#radial-gradient-3);}.cls-35{fill:#5b5b5f;}.cls-36{fill:url(#linear-gradient-20);}.cls-37{fill:url(#linear-gradient-21);}.cls-38{fill:url(#radial-gradient-4);}.cls-39{fill:url(#linear-gradient-22);}.cls-40{fill:url(#linear-gradient-23);}.cls-41{fill:url(#radial-gradient-5);}.cls-42{fill:url(#linear-gradient-24);}.cls-43{fill:url(#linear-gradient-25);}.cls-44{fill:url(#radial-gradient-6);}.cls-45{fill:url(#linear-gradient-26);}.cls-46{fill:url(#linear-gradient-27);}.cls-47{fill:url(#radial-gradient-7);}.cls-48{fill:url(#linear-gradient-28);}.cls-49{fill:url(#linear-gradient-29);}.cls-50{fill:url(#radial-gradient-8);}.cls-51{fill:url(#linear-gradient-30);}.cls-52{fill:url(#linear-gradient-31);}.cls-53{fill:url(#radial-gradient-9);}.cls-54{fill:url(#linear-gradient-32);}.cls-55{fill:url(#linear-gradient-33);}.cls-56{fill:url(#radial-gradient-10);}.cls-57{fill:url(#linear-gradient-34);}.cls-58{mask:url(#mask-9);}.cls-59{fill:url(#linear-gradient-35);}.cls-60{mask:url(#mask-10);}.cls-61{fill:url(#linear-gradient-36);}.cls-62{filter:url(#luminosity-noclip-5);}.cls-63{filter:url(#luminosity-noclip-4);}.cls-64{filter:url(#luminosity-noclip-3);}.cls-65{filter:url(#luminosity-noclip-2);}.cls-66{filter:url(#luminosity-noclip);}</style><filter id="luminosity-noclip" x="150.49" y="-6034.65" width="150.61" height="32766" filterUnits="userSpaceOnUse" color-interpolation-filters="sRGB"><feFlood flood-color="#fff" result="bg"/><feBlend in="SourceGraphic" in2="bg"/></filter><mask id="mask" x="150.49" y="-6034.65" width="150.61" height="32766" maskUnits="userSpaceOnUse"><g class="cls-66"/></mask><linearGradient id="linear-gradient" x1="237.65" y1="275.36" x2="202.55" y2="192.68" gradientUnits="userSpaceOnUse"><stop offset="0"/><stop offset="0.1" stop-color="#101010"/><stop offset="0.29" stop-color="#3a3a3a"/><stop offset="0.55" stop-color="#7e7e7e"/><stop offset="0.88" stop-color="#dadada"/><stop offset="1" stop-color="#fff"/></linearGradient><filter id="luminosity-noclip-2" x="153.71" y="-6034.65" width="68.82" height="32766" filterUnits="userSpaceOnUse" color-interpolation-filters="sRGB"><feFlood flood-color="#fff" result="bg"/><feBlend in="SourceGraphic" in2="bg"/></filter><mask id="mask-2" x="153.71" y="-6034.65" width="68.82" height="32766" maskUnits="userSpaceOnUse"><g class="cls-65"/></mask><linearGradient id="linear-gradient-2" x1="224.03" y1="361.49" x2="160.84" y2="212.64" gradientUnits="userSpaceOnUse"><stop offset="0"/><stop offset="0.08" stop-color="#0a0a0a"/><stop offset="0.23" stop-color="#242424"/><stop offset="0.41" stop-color="#4e4e4e"/><stop offset="0.62" stop-color="#888"/><stop offset="0.86" stop-color="#d2d2d2"/><stop offset="1" stop-color="#fff"/></linearGradient><filter id="luminosity-noclip-3" x="224.56" y="-6034.65" width="73.15" height="32766" filterUnits="userSpaceOnUse" color-interpolation-filters="sRGB"><feFlood flood-color="#fff" result="bg"/><feBlend in="SourceGraphic" in2="bg"/></filter><mask id="mask-3" x="224.56" y="-6034.65" width="73.15" height="32766" maskUnits="userSpaceOnUse"><g class="cls-64"/></mask><linearGradient id="linear-gradient-3" x1="-685.35" y1="360.95" x2="-748.14" y2="213.01" gradientTransform="matrix(-1.16, 0, 0, 1, -570.96, 0)" xlink:href="#linear-gradient-2"/><filter id="luminosity-noclip-4" x="159.8" y="-6034.65" width="67.5" height="32766" filterUnits="userSpaceOnUse" color-interpolation-filters="sRGB"><feFlood flood-color="#fff" result="bg"/><feBlend in="SourceGraphic" in2="bg"/></filter><mask id="mask-4" x="159.8" y="-6034.65" width="67.5" height="32766" maskUnits="userSpaceOnUse"><g class="cls-63"/></mask><linearGradient id="linear-gradient-4" x1="159.8" y1="143.95" x2="227.3" y2="143.95" gradientUnits="userSpaceOnUse"><stop offset="0" stop-color="#fff"/><stop offset="0.14" stop-color="#d2d2d2"/><stop offset="0.38" stop-color="#888"/><stop offset="0.59" stop-color="#4e4e4e"/><stop offset="0.77" stop-color="#242424"/><stop offset="0.92" stop-color="#0a0a0a"/><stop offset="1"/></linearGradient><filter id="luminosity-noclip-5" x="228.21" y="-6034.65" width="67.37" height="32766" filterUnits="userSpaceOnUse" color-interpolation-filters="sRGB"><feFlood flood-color="#fff" result="bg"/><feBlend in="SourceGraphic" in2="bg"/></filter><mask id="mask-5" x="228.21" y="-6034.65" width="67.37" height="32766" maskUnits="userSpaceOnUse"><g class="cls-62"/></mask><linearGradient id="linear-gradient-5" x1="2903.25" y1="147.25" x2="2972.39" y2="147.25" gradientTransform="matrix(-0.97, 0, 0, 1, 3124.5, 0)" xlink:href="#linear-gradient-4"/><linearGradient id="linear-gradient-6" x1="25.64" y1="224.09" x2="431.87" y2="224.09" gradientUnits="userSpaceOnUse"><stop offset="0" stop-color="#99991f"/><stop offset="0.01" stop-color="#a2a21f"/><stop offset="0.06" stop-color="#b8b71e"/><stop offset="0.11" stop-color="#c9c71d"/><stop offset="0.17" stop-color="#d4d31c"/><stop offset="0.26" stop-color="#dbd91c"/><stop offset="0.51" stop-color="#dddb1c"/><stop offset="0.75" stop-color="#dbd91c"/><stop offset="0.83" stop-color="#d4d31c"/><stop offset="0.89" stop-color="#c9c71d"/><stop offset="0.94" stop-color="#b8b71e"/><stop offset="0.99" stop-color="#a2a21f"/><stop offset="1" stop-color="#99991f"/></linearGradient><linearGradient id="linear-gradient-7" x1="340.82" y1="418.18" x2="116.7" y2="29.99" gradientUnits="userSpaceOnUse"><stop offset="0" stop-color="#717175"/><stop offset="0.02" stop-color="#77787c"/><stop offset="0.15" stop-color="#adaeb3"/><stop offset="0.22" stop-color="#c2c3c8"/><stop offset="0.35" stop-color="#dcdddf"/><stop offset="0.5" stop-color="#fff"/><stop offset="0.66" stop-color="#d7d8db"/><stop offset="0.76" stop-color="#c2c3c8"/><stop offset="1" stop-color="#717175"/></linearGradient><linearGradient id="linear-gradient-8" x1="350.35" y1="56.73" x2="107.17" y2="391.44" xlink:href="#linear-gradient-7"/><linearGradient id="linear-gradient-9" x1="228.76" y1="409.7" x2="228.76" y2="38.48" gradientUnits="userSpaceOnUse"><stop offset="0" stop-color="#006fb3"/><stop offset="0.01" stop-color="#1179ba"/><stop offset="0.04" stop-color="#308cc7"/><stop offset="0.08" stop-color="#4c9cd2"/><stop offset="0.12" stop-color="#62aadb"/><stop offset="0.16" stop-color="#73b4e2"/><stop offset="0.22" stop-color="#7ebbe6"/><stop offset="0.29" stop-color="#85bfe9"/><stop offset="0.51" stop-color="#87c0ea"/><stop offset="0.72" stop-color="#85bfe9"/><stop offset="0.79" stop-color="#7ebbe6"/><stop offset="0.85" stop-color="#73b4e2"/><stop offset="0.89" stop-color="#62aadb"/><stop offset="0.93" stop-color="#4c9cd2"/><stop offset="0.96" stop-color="#308cc7"/><stop offset="0.99" stop-color="#1179ba"/><stop offset="1" stop-color="#006fb3"/></linearGradient><linearGradient id="linear-gradient-10" x1="228.76" y1="286.24" x2="228.76" y2="55.9" gradientUnits="userSpaceOnUse"><stop offset="0" stop-color="#87c0ea"/><stop offset="0.43" stop-color="#89c1ea"/><stop offset="0.59" stop-color="#90c5ec"/><stop offset="0.7" stop-color="#9bcbee"/><stop offset="0.79" stop-color="#acd4f1"/><stop offset="0.87" stop-color="#c2dff4"/><stop offset="0.94" stop-color="#ddedf9"/><stop offset="1" stop-color="#fcfeff"/><stop offset="1" stop-color="#fff"/></linearGradient><radialGradient id="radial-gradient" cx="228.76" cy="-3670.83" r="71.77" gradientTransform="translate(0 6013.43) scale(1 1.58)" gradientUnits="userSpaceOnUse"><stop offset="0" stop-color="#fff"/><stop offset="0.23" stop-color="#fcfcfc"/><stop offset="0.39" stop-color="#f3f3f4"/><stop offset="0.53" stop-color="#e4e4e5"/><stop offset="0.65" stop-color="#cfcfd0"/><stop offset="0.76" stop-color="#b3b3b5"/><stop offset="0.87" stop-color="#919194"/><stop offset="0.97" stop-color="#69696d"/><stop offset="1" stop-color="#5b5b5f"/></radialGradient><linearGradient id="linear-gradient-11" x1="171.75" y1="161.96" x2="283.19" y2="161.96" gradientTransform="translate(0.12)" gradientUnits="userSpaceOnUse"><stop offset="0" stop-color="#f7f7f8"/><stop offset="0.13" stop-color="#ececed"/><stop offset="0.35" stop-color="#ceced0"/><stop offset="0.64" stop-color="#9e9ea1"/><stop offset="0.99" stop-color="#5c5c60"/><stop offset="1" stop-color="#5b5b5f"/></linearGradient><linearGradient id="linear-gradient-12" x1="263.24" y1="373.29" x2="207.01" y2="177.19" gradientUnits="userSpaceOnUse"><stop offset="0" stop-color="#211915"/><stop offset="0.44" stop-color="#fff"/><stop offset="0.49" stop-color="#f8f8f8"/><stop offset="0.57" stop-color="#e6e5e5"/><stop offset="0.66" stop-color="#c8c6c5"/><stop offset="0.76" stop-color="#9f9b9a"/><stop offset="0.87" stop-color="#696461"/><stop offset="0.99" stop-color="#29221e"/><stop offset="1" stop-color="#211915"/></linearGradient><linearGradient id="linear-gradient-13" x1="131.44" y1="282.68" x2="320.22" y2="282.68" gradientUnits="userSpaceOnUse"><stop offset="0" stop-color="#211915"/><stop offset="0.3" stop-color="#fff"/><stop offset="0.35" stop-color="#f8f8f8"/><stop offset="0.44" stop-color="#e5e5e6"/><stop offset="0.53" stop-color="#c6c6c7"/><stop offset="0.64" stop-color="#9a9a9d"/><stop offset="0.73" stop-color="#717175"/><stop offset="0.78" stop-color="#6b6b6e"/><stop offset="0.84" stop-color="#5b595b"/><stop offset="0.92" stop-color="#413c3c"/><stop offset="1" stop-color="#211915"/></linearGradient><linearGradient id="linear-gradient-14" x1="146.63" y1="282.37" x2="303.39" y2="282.37" gradientUnits="userSpaceOnUse"><stop offset="0" stop-color="#211915"/><stop offset="0.06" stop-color="#48413e"/><stop offset="0.17" stop-color="#888482"/><stop offset="0.27" stop-color="#bbb9b8"/><stop offset="0.36" stop-color="#e0dfde"/><stop offset="0.43" stop-color="#f7f6f6"/><stop offset="0.47" stop-color="#fff"/><stop offset="0.52" stop-color="#f8f8f8"/><stop offset="0.59" stop-color="#e6e5e5"/><stop offset="0.68" stop-color="#c8c6c5"/><stop offset="0.77" stop-color="#9f9b9a"/><stop offset="0.88" stop-color="#696461"/><stop offset="0.99" stop-color="#29221e"/><stop offset="1" stop-color="#211915"/></linearGradient><radialGradient id="radial-gradient-2" cx="77.54" cy="-403.84" r="89.97" gradientTransform="translate(122.43 714.04) scale(1.33 1.07)" gradientUnits="userSpaceOnUse"><stop offset="0" stop-color="#c2c3c8"/><stop offset="0.11" stop-color="#bcbdc2"/><stop offset="0.27" stop-color="#acacb0"/><stop offset="0.46" stop-color="#929193"/><stop offset="0.66" stop-color="#6e6a6a"/><stop offset="0.87" stop-color="#403937"/><stop offset="1" stop-color="#211915"/></radialGradient><filter id="luminosity-noclip-6" x="150.49" y="198.2" width="150.61" height="99.85" filterUnits="userSpaceOnUse" color-interpolation-filters="sRGB"><feFlood flood-color="#fff" result="bg"/><feBlend in="SourceGraphic" in2="bg"/></filter><mask id="mask-6" x="150.49" y="198.2" width="150.61" height="99.85" maskUnits="userSpaceOnUse"><g class="cls-1"><path class="cls-2" d="M250.29,236.63a111.56,111.56,0,0,1,50.81,11.79,158.6,158.6,0,0,0-3.72-36.36c-77.15-31.19-140.36,0-140.36,0-11.11,34.15-6.81,62.91,3.7,86C164.81,263.62,203.33,236.63,250.29,236.63Z"/></g></mask><linearGradient id="linear-gradient-15" x1="237.65" y1="275.36" x2="202.55" y2="192.68" gradientUnits="userSpaceOnUse"><stop offset="0" stop-color="#fff"/><stop offset="1" stop-color="#fff"/></linearGradient><filter id="luminosity-noclip-7" x="153.71" y="206.23" width="68.82" height="155.89" filterUnits="userSpaceOnUse" color-interpolation-filters="sRGB"><feFlood flood-color="#fff" result="bg"/><feBlend in="SourceGraphic" in2="bg"/></filter><mask id="mask-7" x="153.71" y="206.23" width="68.82" height="155.89" maskUnits="userSpaceOnUse"><g class="cls-3"><path class="cls-4" d="M158.73,213.73s-31.6,87.13,63.81,148.39c0,0-56.79-69.2-31.6-155.89C190.94,206.23,173.29,206.06,158.73,213.73Z"/></g></mask><linearGradient id="linear-gradient-16" x1="224.03" y1="361.49" x2="160.84" y2="212.64" xlink:href="#linear-gradient-15"/><filter id="luminosity-noclip-8" x="224.56" y="206.22" width="73.15" height="155.9" filterUnits="userSpaceOnUse" color-interpolation-filters="sRGB"><feFlood flood-color="#fff" result="bg"/><feBlend in="SourceGraphic" in2="bg"/></filter><mask id="mask-8" x="224.56" y="206.22" width="73.15" height="155.9" maskUnits="userSpaceOnUse"><g class="cls-5"><path class="cls-6" d="M294.59,213.46s25.63,106-70,148.66c0,0,65.64-69.2,36.51-155.89A84.76,84.76,0,0,1,294.59,213.46Z"/></g></mask><linearGradient id="linear-gradient-17" x1="-685.35" y1="360.95" x2="-748.14" y2="213.01" gradientTransform="matrix(-1.16, 0, 0, 1, -570.96, 0)" xlink:href="#linear-gradient-15"/><linearGradient id="linear-gradient-18" x1="-2008.77" y1="-2971.6" x2="-2007.87" y2="-2971.6" gradientTransform="matrix(-0.23, -10.7, 10.7, -0.23, 31503.68, -21962.08)" gradientUnits="userSpaceOnUse"><stop offset="0" stop-color="#211915"/><stop offset="0.22" stop-color="#4a4441"/><stop offset="0.73" stop-color="#b1b0b0"/><stop offset="1" stop-color="#ecedef"/></linearGradient><linearGradient id="linear-gradient-19" x1="-2054.36" y1="-2963.82" x2="-2053.46" y2="-2963.82" gradientTransform="translate(25807.85 -18388.41) rotate(-91.21) scale(8.79)" gradientUnits="userSpaceOnUse"><stop offset="0" stop-color="#ecedef"/><stop offset="0.27" stop-color="#b1b0b0"/><stop offset="0.78" stop-color="#4a4441"/><stop offset="1" stop-color="#211915"/></linearGradient><radialGradient id="radial-gradient-3" cx="-2437.17" cy="-2898.48" r="0.9" gradientTransform="matrix(-0.07, -3.51, 3.51, -0.07, 10142.85, -8564.04)" gradientUnits="userSpaceOnUse"><stop offset="0" stop-color="#d7d8dc"/><stop offset="0.57" stop-color="#9b9b9f"/><stop offset="1" stop-color="#727276"/></radialGradient><linearGradient id="linear-gradient-20" x1="-2009.08" y1="-2956.54" x2="-2008.19" y2="-2956.54" xlink:href="#linear-gradient-18"/><linearGradient id="linear-gradient-21" x1="-2054.74" y1="-2945.47" x2="-2053.84" y2="-2945.47" xlink:href="#linear-gradient-19"/><radialGradient id="radial-gradient-4" cx="-2438.14" cy="-2852.55" r="0.9" xlink:href="#radial-gradient-3"/><linearGradient id="linear-gradient-22" x1="-2024.68" y1="-2964.64" x2="-2023.78" y2="-2964.64" xlink:href="#linear-gradient-18"/><linearGradient id="linear-gradient-23" x1="-2073.74" y1="-2955.34" x2="-2072.84" y2="-2955.34" xlink:href="#linear-gradient-19"/><radialGradient id="radial-gradient-5" cx="-2485.68" cy="-2877.25" r="0.9" xlink:href="#radial-gradient-3"/><linearGradient id="linear-gradient-24" x1="-2007.28" y1="-2964.27" x2="-2006.38" y2="-2964.27" xlink:href="#linear-gradient-18"/><linearGradient id="linear-gradient-25" x1="-2052.54" y1="-2954.89" x2="-2051.64" y2="-2954.89" xlink:href="#linear-gradient-19"/><radialGradient id="radial-gradient-6" cx="-2432.63" cy="-2876.13" r="0.9" xlink:href="#radial-gradient-3"/><linearGradient id="linear-gradient-26" x1="-2015.66" y1="-2956.68" x2="-2014.76" y2="-2956.68" xlink:href="#linear-gradient-18"/><linearGradient id="linear-gradient-27" x1="-2062.75" y1="-2945.65" x2="-2061.86" y2="-2945.65" xlink:href="#linear-gradient-19"/><radialGradient id="radial-gradient-7" cx="-2458.19" cy="-2853" r="0.9" xlink:href="#radial-gradient-3"/><linearGradient id="linear-gradient-28" x1="-2021.5" y1="-2959.72" x2="-2020.6" y2="-2959.72" xlink:href="#linear-gradient-18"/><linearGradient id="linear-gradient-29" x1="-2069.87" y1="-2949.34" x2="-2068.97" y2="-2949.34" xlink:href="#linear-gradient-19"/><radialGradient id="radial-gradient-8" cx="-2475.99" cy="-2862.25" r="0.9" xlink:href="#radial-gradient-3"/><linearGradient id="linear-gradient-30" x1="-2015.33" y1="-2972.18" x2="-2014.44" y2="-2972.18" xlink:href="#linear-gradient-18"/><linearGradient id="linear-gradient-31" x1="-2062.36" y1="-2964.53" x2="-2061.46" y2="-2964.53" xlink:href="#linear-gradient-19"/><radialGradient id="radial-gradient-9" cx="-2457.2" cy="-2900.26" r="0.9" xlink:href="#radial-gradient-3"/><linearGradient id="linear-gradient-32" x1="-2021.3" y1="-2969.04" x2="-2020.41" y2="-2969.04" xlink:href="#linear-gradient-18"/><linearGradient id="linear-gradient-33" x1="-2069.63" y1="-2960.71" x2="-2068.73" y2="-2960.71" xlink:href="#linear-gradient-19"/><radialGradient id="radial-gradient-10" cx="-2475.39" cy="-2890.68" r="0.9" xlink:href="#radial-gradient-3"/><linearGradient id="linear-gradient-34" x1="210.4" y1="290.39" x2="239.62" y2="290.39" gradientUnits="userSpaceOnUse"><stop offset="0" stop-color="#211915"/><stop offset="1" stop-color="#5b5b5f"/></linearGradient><filter id="luminosity-noclip-9" x="159.8" y="98.4" width="67.5" height="91.08" filterUnits="userSpaceOnUse" color-interpolation-filters="sRGB"><feFlood flood-color="#fff" result="bg"/><feBlend in="SourceGraphic" in2="bg"/></filter><mask id="mask-9" x="159.8" y="98.4" width="67.5" height="91.08" maskUnits="userSpaceOnUse"><g class="cls-7"><path class="cls-8" d="M159.8,189.49l9-3.16s-7.31-87.54,58.46-87.54C227.3,98.79,159.8,87.3,159.8,189.49Z"/></g></mask><linearGradient id="linear-gradient-35" x1="159.8" y1="143.95" x2="227.3" y2="143.95" xlink:href="#linear-gradient-15"/><filter id="luminosity-noclip-10" x="228.21" y="105.01" width="67.37" height="84.48" filterUnits="userSpaceOnUse" color-interpolation-filters="sRGB"><feFlood flood-color="#fff" result="bg"/><feBlend in="SourceGraphic" in2="bg"/></filter><mask id="mask-10" x="228.21" y="105.01" width="67.37" height="84.48" maskUnits="userSpaceOnUse"><g class="cls-9"><path class="cls-10" d="M295.57,189.49l-8.8-3.16s11.75-76.19-58.56-81.17C228.21,105.16,295.57,97.53,295.57,189.49Z"/></g></mask><linearGradient id="linear-gradient-36" x1="2903.25" y1="147.25" x2="2972.39" y2="147.25" gradientTransform="matrix(-0.97, 0, 0, 1, 3124.5, 0)" xlink:href="#linear-gradient-15"/></defs><title>Recurso 10</title><g id="Capa_2" data-name="Capa 2"><g id="Capa_6" data-name="Capa 6"><g class="cls-11"><path class="cls-12" d="M481.28,525.44c0,10.33-107.72,18.69-240.64,18.69S0,535.77,0,525.44s107.74-18.68,240.64-18.68S481.28,515.13,481.28,525.44Z"/><path class="cls-13" d="M471.58,525.44c0,9.91-103.39,17.93-230.94,17.93s-230.9-8-230.9-17.93,103.38-17.92,230.9-17.92S471.58,515.54,471.58,525.44Z"/><path class="cls-14" d="M461.84,525.44c0,9.49-99,17.18-221.2,17.18S19.46,534.93,19.46,525.44s99-17.17,221.18-17.17S461.84,516,461.84,525.44Z"/><path class="cls-14" d="M454.9,525.44c0,9.2-95.92,16.64-214.26,16.64S26.41,534.64,26.41,525.44s95.91-16.62,214.23-16.62S454.9,516.26,454.9,525.44Z"/><path class="cls-14" d="M444.5,525.44c0,8.76-91.26,15.83-203.86,15.83S36.79,534.2,36.79,525.44s91.27-15.82,203.85-15.82S444.5,516.7,444.5,525.44Z"/><path class="cls-14" d="M437.6,525.44c0,8.45-88.18,15.31-197,15.31S43.71,533.89,43.71,525.44s88.17-15.28,196.93-15.28S437.6,517,437.6,525.44Z"/><path class="cls-14" d="M427.21,525.85c0,8.23-85.85,14.9-191.76,14.9s-191.74-6.67-191.74-14.9S129.56,511,235.45,511,427.21,517.63,427.21,525.85Z"/><path class="cls-14" d="M413.35,525.85c0,7.64-79.64,13.82-177.9,13.82S57.56,533.49,57.56,525.85,137.19,512,235.45,512,413.35,518.22,413.35,525.85Z"/><path class="cls-14" d="M403,525.85c0,7.2-75,13-167.51,13s-167.51-5.81-167.51-13,75-13,167.51-13S403,518.66,403,525.85Z"/><path class="cls-14" d="M396,525.85c0,6.89-71.88,12.46-160.56,12.46S74.88,532.74,74.88,525.85s71.9-12.47,160.57-12.47S396,519,396,525.85Z"/><path class="cls-14" d="M389.08,525.85c0,6.59-68.79,11.93-153.63,11.93S81.84,532.44,81.84,525.85s68.76-11.93,153.61-11.93S389.08,519.26,389.08,525.85Z"/><path class="cls-14" d="M381.55,525.85c0,6.26-65.39,11.34-146.1,11.34S89.34,532.11,89.34,525.85s65.41-11.35,146.11-11.35S381.55,519.58,381.55,525.85Z"/><path class="cls-14" d="M367.67,525.85c0,5.68-59.2,10.28-132.22,10.28s-132.21-4.6-132.21-10.28,59.19-10.27,132.21-10.27S367.67,520.18,367.67,525.85Z"/><path class="cls-14" d="M385.69,525.44c0,6.23-64.94,11.27-145,11.27s-145-5-145-11.27,64.94-11.26,145-11.26S385.69,519.22,385.69,525.44Z"/><path class="cls-14" d="M381.14,525.44c0,6-62.88,10.91-140.5,10.91s-140.49-4.88-140.49-10.91,62.91-10.91,140.49-10.91S381.14,519.42,381.14,525.44Z"/><path class="cls-14" d="M374.33,525.44c0,5.75-59.84,10.39-133.69,10.39S107,531.19,107,525.44s59.85-10.38,133.67-10.38S374.33,519.71,374.33,525.44Z"/><path class="cls-14" d="M369.79,525.44c0,5.55-57.81,10-129.15,10s-129.13-4.48-129.13-10,57.81-10,129.13-10S369.79,519.91,369.79,525.44Z"/><path class="cls-14" d="M363,525.71c0,5.4-56.28,9.76-125.72,9.76s-125.74-4.36-125.74-9.76S167.79,516,237.25,516,363,520.33,363,525.71Z"/><path class="cls-14" d="M353.91,525.71c0,5-52.24,9.06-116.66,9.06s-116.66-4-116.66-9.06,52.23-9.07,116.66-9.07S353.91,520.7,353.91,525.71Z"/><path class="cls-14" d="M347.08,525.71c0,4.72-49.18,8.53-109.83,8.53s-109.84-3.81-109.84-8.53,49.17-8.53,109.84-8.53S347.08,521,347.08,525.71Z"/><path class="cls-14" d="M342.52,525.71c0,4.52-47.13,8.18-105.27,8.18S132,530.23,132,525.71s47.13-8.17,105.29-8.17S342.52,521.19,342.52,525.71Z"/><path class="cls-14" d="M338,525.71c0,4.33-45.09,7.83-100.72,7.83s-100.74-3.5-100.74-7.83,45.09-7.82,100.74-7.82S338,521.38,338,525.71Z"/><path class="cls-14" d="M333.05,525.71c0,4.11-42.9,7.44-95.8,7.44s-95.81-3.33-95.81-7.44,42.89-7.44,95.81-7.44S333.05,521.6,333.05,525.71Z"/><path class="cls-14" d="M324,525.71c0,3.71-38.82,6.73-86.7,6.73s-86.7-3-86.7-6.73,38.82-6.73,86.7-6.73S324,522,324,525.71Z"/><path class="cls-14" d="M339.12,525.44c0,4.22-44.1,7.65-98.48,7.65s-98.46-3.43-98.46-7.65,44.08-7.64,98.46-7.64S339.12,521.22,339.12,525.44Z"/><path class="cls-14" d="M336,525.44c0,4.1-42.71,7.41-95.39,7.41s-95.37-3.31-95.37-7.41,42.71-7.39,95.37-7.39S336,521.36,336,525.44Z"/><path class="cls-14" d="M331.4,525.44c0,3.89-40.62,7-90.76,7s-90.74-3.16-90.74-7,40.64-7,90.74-7S331.4,521.56,331.4,525.44Z"/><path class="cls-14" d="M328.32,525.44c0,3.77-39.24,6.82-87.68,6.82s-87.66-3-87.66-6.82,39.24-6.8,87.66-6.8S328.32,521.68,328.32,525.44Z"/><path class="cls-14" d="M323.7,525.63c0,3.66-38.23,6.63-85.36,6.63s-85.36-3-85.36-6.63S191.19,519,238.34,519,323.7,522,323.7,525.63Z"/><path class="cls-14" d="M317.52,525.63c0,3.4-35.44,6.13-79.18,6.13s-79.19-2.73-79.19-6.13,35.45-6.16,79.19-6.16S317.52,522.23,317.52,525.63Z"/><path class="cls-14" d="M312.89,525.63c0,3.2-33.37,5.79-74.55,5.79s-74.58-2.59-74.58-5.79,33.4-5.8,74.58-5.8S312.89,522.42,312.89,525.63Z"/><path class="cls-14" d="M309.81,525.63c0,3.06-32,5.55-71.47,5.55s-71.48-2.49-71.48-5.55,32-5.56,71.48-5.56S309.81,522.56,309.81,525.63Z"/><path class="cls-14" d="M306.73,525.63c0,2.93-30.63,5.31-68.39,5.31s-68.4-2.38-68.4-5.31,30.63-5.3,68.4-5.3S306.73,522.69,306.73,525.63Z"/><path class="cls-14" d="M303.39,525.63c0,2.79-29.13,5-65,5s-65.06-2.25-65.06-5,29.14-5,65.06-5S303.39,522.83,303.39,525.63Z"/><path class="cls-14" d="M297.2,525.63c0,2.52-26.36,4.57-58.86,4.57s-58.86-2.05-58.86-4.57,26.34-4.57,58.86-4.57S297.2,523.1,297.2,525.63Z"/><path class="cls-14" d="M305.22,525.44c0,2.78-28.91,5-64.58,5s-64.57-2.25-64.57-5,28.92-5,64.57-5S305.22,522.69,305.22,525.44Z"/><path class="cls-14" d="M303.18,525.44c0,2.7-28,4.87-62.54,4.87s-62.53-2.17-62.53-4.87,28-4.85,62.53-4.85S303.18,522.76,303.18,525.44Z"/><path class="cls-14" d="M300.15,525.44c0,2.56-26.65,4.63-59.51,4.63s-59.5-2.07-59.5-4.63,26.65-4.62,59.5-4.62S300.15,522.9,300.15,525.44Z"/><path class="cls-14" d="M298.13,525.44c0,2.48-25.72,4.47-57.49,4.47s-57.48-2-57.48-4.47S208.9,521,240.64,521,298.13,523,298.13,525.44Z"/><path class="cls-14" d="M295.11,525.57c0,2.4-25.08,4.34-56,4.34s-56-1.94-56-4.34,25.06-4.36,56-4.36S295.11,523.17,295.11,525.57Z"/><path class="cls-14" d="M291.05,525.57c0,2.23-23.24,4-51.93,4s-51.91-1.8-51.91-4,23.24-4,51.91-4S291.05,523.33,291.05,525.57Z"/><path class="cls-14" d="M288,525.57c0,2.1-21.9,3.79-48.91,3.79s-48.88-1.69-48.88-3.79,21.88-3.79,48.88-3.79S288,523.47,288,525.57Z"/><path class="cls-14" d="M286,525.57c0,2-21,3.64-46.89,3.64s-46.86-1.63-46.86-3.64,21-3.64,46.86-3.64S286,523.55,286,525.57Z"/><path class="cls-14" d="M284,525.57c0,1.92-20.09,3.48-44.87,3.48s-44.83-1.56-44.83-3.48,20.08-3.49,44.83-3.49S284,523.64,284,525.57Z"/><path class="cls-14" d="M281.79,525.57c0,1.83-19.1,3.31-42.67,3.31s-42.62-1.48-42.62-3.31,19.09-3.32,42.62-3.32S281.79,523.74,281.79,525.57Z"/><path class="cls-14" d="M277.75,525.57c0,1.65-17.31,3-38.63,3s-38.59-1.34-38.59-3,17.3-3,38.59-3S277.75,523.9,277.75,525.57Z"/></g><path class="cls-15" d="M431.87,224.09c0,112.18-90.94,203.11-203.11,203.11S25.64,336.27,25.64,224.09,116.58,21,228.76,21,431.87,111.91,431.87,224.09Z"/><path class="cls-16" d="M452.85,224.09c0,123.76-100.33,224.08-224.09,224.08S4.67,347.85,4.67,224.09,105,0,228.76,0,452.85,100.33,452.85,224.09Z"/><path class="cls-17" d="M435.6,224.09c0,114.23-92.6,206.84-206.84,206.84S21.92,338.32,21.92,224.09,114.52,17.24,228.76,17.24,435.6,109.85,435.6,224.09Z"/><path class="cls-18" d="M414.37,224.09c0,102.5-83.1,185.61-185.61,185.61S43.16,326.59,43.16,224.09,126.25,38.48,228.76,38.48,414.37,121.58,414.37,224.09Z"/><path class="cls-19" d="M396.94,224.09c0,92.89-75.3,54.13-168.18,54.13S60.58,317,60.58,224.09a168.18,168.18,0,1,1,336.36,0Z"/><path class="cls-20" d="M298.3,214.77l.21-37.5s1.67-82.41-71.34-82.41c-71.81,0-69.25,82.41-69.25,82.41l0,37.5H180l-.08-37.5s-.19-57.46,47.27-57.46,47.18,57.46,47.18,57.46v37.5Z"/><path class="cls-21" d="M227.57,109.16c-56,0-55.76,63.9-55.76,63.9l.1,41.71H180l-.07-37.5s-.19-57.46,47.26-57.46,47.16,57.46,47.16,57.46v37.5h8.88V173.06S283.56,109.16,227.57,109.16Z"/><path class="cls-22" d="M137.11,199.18s80.55-40.45,180.61,0c0,0,38.35,129.49-92.24,184.94C225.48,384.12,94.66,329.62,137.11,199.18Z"/><path class="cls-23" d="M139.52,200.87s79.51-38.58,174.92,0c0,0,40.05,128.41-90.66,180.77C223.78,381.64,99.05,325.26,139.52,200.87Z"/><path class="cls-24" d="M153.47,210s65-32.63,145.69,0c0,0,30.94,114.52-74.4,159.23C224.76,369.24,119.23,315.23,153.47,210Z"/><path class="cls-25" d="M157,212.06s63.21-31.19,140.36,0c0,0,28.52,111.65-72.18,154.4C225.2,366.46,124.29,312.66,157,212.06Z"/><g class="cls-26"><path class="cls-27" d="M250.29,236.63a111.56,111.56,0,0,1,50.81,11.79,158.6,158.6,0,0,0-3.72-36.36c-77.15-31.19-140.36,0-140.36,0-11.11,34.15-6.81,62.91,3.7,86C164.81,263.62,203.33,236.63,250.29,236.63Z"/></g><g class="cls-28"><path class="cls-29" d="M158.73,213.73s-31.6,87.13,63.81,148.39c0,0-56.79-69.2-31.6-155.89C190.94,206.23,173.29,206.06,158.73,213.73Z"/></g><g class="cls-30"><path class="cls-31" d="M294.59,213.46s25.63,106-70,148.66c0,0,65.64-69.2,36.51-155.89A84.76,84.76,0,0,1,294.59,213.46Z"/></g><path class="cls-32" d="M146.77,202.29a4.8,4.8,0,1,1-4.69,4.9A4.79,4.79,0,0,1,146.77,202.29Z"/><path class="cls-33" d="M146.82,203.15a3.94,3.94,0,1,1-3.85,4A3.94,3.94,0,0,1,146.82,203.15Z"/><path class="cls-34" d="M146.84,203.94a3.15,3.15,0,1,1-3.08,3.21A3.16,3.16,0,0,1,146.84,203.94Z"/><path class="cls-35" d="M149.14,206.76l0,.57-4.63.1,0-.57Zm-2.07-2h-.57l0,2h.58Zm.06,2.6-.58,0,0,2h.57Z"/><path class="cls-36" d="M308.09,202.29a4.8,4.8,0,1,1-4.69,4.9A4.79,4.79,0,0,1,308.09,202.29Z"/><path class="cls-37" d="M308.14,203.15a3.94,3.94,0,1,1-3.85,4A4,4,0,0,1,308.14,203.15Z"/><path class="cls-38" d="M308.16,203.94a3.15,3.15,0,1,1-3.08,3.21A3.16,3.16,0,0,1,308.16,203.94Z"/><path class="cls-35" d="M310.46,206.76l0,.57-4.64.1v-.57Zm-2.07-2h-.57l0,2h.57Zm.06,2.6-.58,0,.05,2h.57Z"/><path class="cls-39" d="M224.91,371a4.8,4.8,0,1,1-4.69,4.9A4.79,4.79,0,0,1,224.91,371Z"/><path class="cls-40" d="M225,371.9a3.94,3.94,0,1,1-3.84,4A3.95,3.95,0,0,1,225,371.9Z"/><path class="cls-41" d="M225,372.69a3.15,3.15,0,1,1-3.08,3.21A3.14,3.14,0,0,1,225,372.69Z"/><path class="cls-35" d="M227.28,375.51l0,.57-4.64.1v-.58Zm-2.07-2-.57,0,0,2h.58Zm.06,2.61h-.58l.05,2h.57Z"/><path class="cls-42" d="M224.91,184.68a4.81,4.81,0,1,1-4.69,4.91A4.79,4.79,0,0,1,224.91,184.68Z"/><path class="cls-43" d="M225,185.55a3.93,3.93,0,1,1-3.84,4A3.94,3.94,0,0,1,225,185.55Z"/><path class="cls-44" d="M225,186.33a3.15,3.15,0,1,1-3.08,3.22A3.16,3.16,0,0,1,225,186.33Z"/><path class="cls-35" d="M227.28,189.15l0,.57-4.64.11v-.58Zm-2.07-2h-.57l0,2h.58Zm.06,2.61h-.58l.05,2h.57Z"/><path class="cls-45" d="M308,272.72a4.81,4.81,0,1,1-4.7,4.91A4.81,4.81,0,0,1,308,272.72Z"/><path class="cls-46" d="M308.07,273.58a3.94,3.94,0,1,1-3.85,4A4,4,0,0,1,308.07,273.58Z"/><path class="cls-47" d="M308.09,274.37a3.15,3.15,0,1,1-3.09,3.22A3.15,3.15,0,0,1,308.09,274.37Z"/><path class="cls-35" d="M310.39,277.19v.58l-4.63.09,0-.57Zm-2.07-2-.57,0,0,2h.57Zm.05,2.62h-.57l0,2h.58Z"/><path class="cls-48" d="M276.84,335.9a4.8,4.8,0,1,1-4.69,4.9A4.8,4.8,0,0,1,276.84,335.9Z"/><path class="cls-49" d="M276.9,336.76a3.94,3.94,0,1,1-3.85,4A3.94,3.94,0,0,1,276.9,336.76Z"/><path class="cls-50" d="M276.92,337.55a3.15,3.15,0,1,1-3.09,3.21A3.14,3.14,0,0,1,276.92,337.55Z"/><path class="cls-35" d="M279.22,340.37v.57l-4.63.09v-.57Zm-2.07-2h-.57l0,2h.57Zm.05,2.61h-.57l0,2h.58Z"/><path class="cls-51" d="M142,272.72a4.81,4.81,0,1,1-4.69,4.91A4.8,4.8,0,0,1,142,272.72Z"/><path class="cls-52" d="M142.07,273.58a3.94,3.94,0,1,1-3.85,4A3.94,3.94,0,0,1,142.07,273.58Z"/><path class="cls-53" d="M142.09,274.37a3.15,3.15,0,1,1-3.09,3.22A3.17,3.17,0,0,1,142.09,274.37Z"/><path class="cls-35" d="M144.39,277.19v.58l-4.63.09,0-.57Zm-2.08-2-.57,0,0,2h.58Zm.06,2.62h-.57l0,2h.58Z"/><path class="cls-54" d="M177,335.9a4.8,4.8,0,1,1-4.69,4.9A4.8,4.8,0,0,1,177,335.9Z"/><path class="cls-55" d="M177,336.76a3.94,3.94,0,1,1-3.85,4A3.94,3.94,0,0,1,177,336.76Z"/><path class="cls-56" d="M177.06,337.55a3.15,3.15,0,1,1-3.09,3.21A3.14,3.14,0,0,1,177.06,337.55Z"/><path class="cls-35" d="M179.36,340.37v.57l-4.63.09v-.57Zm-2.07-2h-.57l0,2h.58Zm.05,2.61h-.57l0,2h.58Z"/><path class="cls-57" d="M239.62,324.14l-7.68-41.35a14.12,14.12,0,1,0-13.74.61l-6.84,40.74Z"/><g class="cls-58"><path class="cls-59" d="M159.8,189.49l9-3.16s-7.31-87.54,58.46-87.54C227.3,98.79,159.8,87.3,159.8,189.49Z"/></g><g class="cls-60"><path class="cls-61" d="M295.57,189.49l-8.8-3.16s11.75-76.19-58.56-81.17C228.21,105.16,295.57,97.53,295.57,189.49Z"/></g></g></g></svg>