<?xml version="1.0" encoding="iso-8859-1"?>
<!-- Generator: Adobe Illustrator 19.0.0, SVG Export Plug-In . SVG Version: 6.00 Build 0)  -->
<svg version="1.1" id="Layer_1" xmlns="http://www.w3.org/2000/svg" xmlns:xlink="http://www.w3.org/1999/xlink" x="0px" y="0px"
	 viewBox="0 0 297 297" style="enable-background:new 0 0 297 297;" xml:space="preserve">
<g>
	<g>
		<g>
			<g>
				<circle style="fill:#86C867;" cx="148.5" cy="148.5" r="148.5"/>
			</g>
		</g>
	</g>
	<path style="fill:#609345;" d="M294.057,118.959L244.33,69.177L52.957,195.105l101.756,101.756
		C233.845,293.603,297,228.432,297,148.5C297,138.384,295.984,128.507,294.057,118.959z"/>
	<g>
		<rect x="123.75" y="181.5" style="fill:#2B2B2B;" width="49.5" height="49.5"/>
	</g>
	<g>
		<rect x="149.5" y="181.5" width="23.75" height="49.5"/>
	</g>
	<g>
		<path style="fill:#32373B;" d="M60.333,198h176.333c5.983,0,10.833-4.85,10.833-10.833V76.834C247.5,70.85,242.65,66,236.667,66
			H60.333C54.35,66,49.5,70.85,49.5,76.834v110.333C49.5,193.15,54.35,198,60.333,198z"/>
	</g>
	<g>
		<path style="fill:#292D30;" d="M236.667,66H149.5v132h87.167c5.983,0,10.833-4.85,10.833-10.833V76.833
			C247.5,70.85,242.65,66,236.667,66z"/>
	</g>
	<g>
		<rect x="66" y="82.5" style="fill:#FFFFFF;" width="165" height="99"/>
	</g>
	<g>
		<rect x="149.5" y="82.5" style="fill:#E3E5E4;" width="81.5" height="99"/>
	</g>
	<g>
		<path style="fill:#32373B;" d="M119.25,234.25h58.5c4.556,0,8.25-3.694,8.25-8.25l0,0c0-4.556-3.694-8.25-8.25-8.25h-58.5
			c-4.556,0-8.25,3.694-8.25,8.25l0,0C111,230.556,114.694,234.25,119.25,234.25z"/>
	</g>
	<g>
		<path style="fill:#292D30;" d="M177.75,217.75H149.5v16.5h28.25c4.556,0,8.25-3.694,8.25-8.25S182.306,217.75,177.75,217.75z"/>
	</g>
	<path style="fill:#86C867;" d="M185.375,126.5h-6.881c-2.272-12.415-12.079-22.222-24.494-24.494v-6.572c0-3.037-2.463-5.5-5.5-5.5
		s-5.5,2.463-5.5,5.5v6.572c-12.416,2.272-22.231,12.08-24.502,24.494h-7.123c-3.037,0-5.5,2.463-5.5,5.5s2.463,5.5,5.5,5.5h7.123
		c2.271,12.414,12.087,22.222,24.502,24.494v6.572c0,3.037,2.463,5.5,5.5,5.5s5.5-2.463,5.5-5.5v-6.572
		c12.415-2.272,22.222-12.079,24.494-24.494h6.881c3.037,0,5.5-2.463,5.5-5.5S188.412,126.5,185.375,126.5z M163.846,137.5h2.318
		c-1.805,5.785-6.38,10.36-12.165,12.165v-2.628c0-3.037-2.463-5.5-5.5-5.5s-5.5,2.463-5.5,5.5v2.628
		c-5.784-1.805-10.346-6.382-12.152-12.165h2.48c3.037,0,5.5-2.463,5.5-5.5s-2.463-5.5-5.5-5.5h-2.48
		c1.806-5.783,6.368-10.361,12.152-12.165v2.628c0,3.037,2.463,5.5,5.5,5.5s5.5-2.463,5.5-5.5v-2.628
		c5.785,1.805,10.36,6.38,12.165,12.165h-2.318c-3.037,0-5.5,2.463-5.5,5.5S160.809,137.5,163.846,137.5z"/>
	<path style="fill:#86C867;" d="M185.375,126.5h-6.881c-2.272-12.415-12.079-22.222-24.494-24.494v-6.572
		c0-2.695-1.941-4.934-4.5-5.405v32.338c2.559-0.471,4.5-2.71,4.5-5.405v-2.628c5.785,1.805,10.36,6.38,12.165,12.165h-2.318
		c-3.037,0-5.5,2.463-5.5,5.5s2.463,5.5,5.5,5.5h2.318c-1.805,5.785-6.38,10.36-12.165,12.165v-2.628c0-2.695-1.941-4.934-4.5-5.405
		v32.338c2.559-0.471,4.5-2.71,4.5-5.405v-6.572c12.415-2.272,22.222-12.079,24.494-24.494h6.881c3.037,0,5.5-2.463,5.5-5.5
		S188.412,126.5,185.375,126.5z"/>
</g>
<g>
</g>
<g>
</g>
<g>
</g>
<g>
</g>
<g>
</g>
<g>
</g>
<g>
</g>
<g>
</g>
<g>
</g>
<g>
</g>
<g>
</g>
<g>
</g>
<g>
</g>
<g>
</g>
<g>
</g>
</svg>
