<svg xmlns="http://www.w3.org/2000/svg" xmlns:xlink="http://www.w3.org/1999/xlink" viewBox="0 0 383 73"><defs><style>.cls-1{fill:url(#Degradado_sin_nombre_2);}.cls-2{isolation:isolate;}.cls-3{fill:#fff;}</style><linearGradient id="Degradado_sin_nombre_2" x1="-592.45" y1="480.27" x2="-592.45" y2="479.27" gradientTransform="matrix(383, 0, 0, -73, 227098.63, 35059.93)" gradientUnits="userSpaceOnUse"><stop offset="0" stop-color="#015f9e"/><stop offset="1" stop-color="#083e63"/></linearGradient></defs><title>Recurso 1</title><g id="Capa_2" data-name="Capa 2"><g id="Capa_1-2" data-name="Capa 1"><g id="Grupo_354" data-name="Grupo 354"><rect id="Rectángulo_118" data-name="Rectángulo 118" class="cls-1" width="383" height="73"/><g id="Servicios" class="cls-2"><g class="cls-2"><path class="cls-3" d="M51.06,47.38l2.09-4.64a15.64,15.64,0,0,0,8.78,2.78c3.65,0,5.13-1.22,5.13-2.85,0-5-15.46-1.56-15.46-11.44,0-4.52,3.64-8.28,11.2-8.28A17.92,17.92,0,0,1,72,25.3L70.14,30a15,15,0,0,0-7.37-2.09c-3.65,0-5.06,1.36-5.06,3,0,4.9,15.47,1.52,15.47,11.28,0,4.45-3.69,8.25-11.29,8.25C57.67,50.46,53.42,49.2,51.06,47.38Z"/><path class="cls-3" d="M96.89,41.45H81.42c.57,2.55,2.74,4.1,5.86,4.1a6.9,6.9,0,0,0,5.12-2L95.56,47c-1.9,2.16-4.75,3.3-8.44,3.3-7.06,0-11.66-4.44-11.66-10.52s4.67-10.53,10.9-10.53c6,0,10.64,4,10.64,10.61C97,40.31,96.93,41,96.89,41.45ZM81.35,38H91.42a5.11,5.11,0,0,0-10.07,0Z"/><path class="cls-3" d="M113.65,29.25v5.48c-.5,0-.88-.08-1.33-.08-3.27,0-5.44,1.79-5.44,5.7V50H101V29.56h5.66v2.7C108.06,30.28,110.49,29.25,113.65,29.25Z"/><path class="cls-3" d="M138.19,29.56,129.57,50h-6.12l-8.59-20.44H121l5.66,13.9,5.85-13.9Z"/><path class="cls-3" d="M139.91,23.4a3.38,3.38,0,0,1,3.68-3.3c2.21,0,3.69,1.37,3.69,3.19a3.7,3.7,0,0,1-7.37.11Zm.72,6.16h5.93V50h-5.93Z"/><path class="cls-3" d="M150.55,39.78c0-6.16,4.75-10.53,11.39-10.53,4.3,0,7.68,1.87,9.16,5.21l-4.6,2.47a5.08,5.08,0,0,0-4.59-2.81c-3,0-5.36,2.09-5.36,5.66s2.35,5.66,5.36,5.66a5,5,0,0,0,4.59-2.81l4.6,2.51c-1.48,3.26-4.86,5.16-9.16,5.16C155.3,50.3,150.55,45.93,150.55,39.78Z"/><path class="cls-3" d="M173.8,23.4a3.39,3.39,0,0,1,3.69-3.3c2.2,0,3.68,1.37,3.68,3.19a3.7,3.7,0,0,1-7.37.11Zm.72,6.16h5.93V50h-5.93Z"/><path class="cls-3" d="M184.44,39.78c0-6.16,4.75-10.53,11.25-10.53s11.21,4.37,11.21,10.53S202.19,50.3,195.69,50.3,184.44,45.93,184.44,39.78Zm16.45,0c0-3.53-2.24-5.66-5.2-5.66s-5.25,2.13-5.25,5.66,2.28,5.66,5.25,5.66S200.89,43.31,200.89,39.78Z"/><path class="cls-3" d="M208.88,48.1l2-4.26a14,14,0,0,0,7.11,2c2.73,0,3.76-.72,3.76-1.86,0-3.35-12.35.07-12.35-8.09,0-3.88,3.5-6.62,9.46-6.62A16.77,16.77,0,0,1,226.69,31l-2,4.22a11.74,11.74,0,0,0-5.89-1.52c-2.66,0-3.8.83-3.8,1.9,0,3.49,12.35.11,12.35,8.17,0,3.8-3.53,6.49-9.65,6.49A17.57,17.57,0,0,1,208.88,48.1Z"/></g></g></g></g></g></svg>