<svg xmlns="http://www.w3.org/2000/svg" xmlns:xlink="http://www.w3.org/1999/xlink" viewBox="0 0 383 73"><defs><style>.cls-1{fill:url(#Degradado_sin_nombre);}.cls-2{isolation:isolate;}.cls-3{fill:#fff;}</style><linearGradient id="Degradado_sin_nombre" x1="-698.17" y1="-156.1" x2="-698.17" y2="-155.1" gradientTransform="translate(267590.63 11395.21) scale(383 73)" gradientUnits="userSpaceOnUse"><stop offset="0" stop-color="#015f9e"/><stop offset="1" stop-color="#083e63"/></linearGradient></defs><title>Recurso 5</title><g id="Capa_2" data-name="Capa 2"><g id="Capa_1-2" data-name="Capa 1"><g id="Capa_1-2-2" data-name="Capa 1-2"><g id="Grupo_354" data-name="Grupo 354"><rect id="Rectángulo_118" data-name="Rectángulo 118" class="cls-1" width="383" height="73"/></g></g><g id="Servicios" class="cls-2"><g class="cls-2"><path class="cls-3" d="M52.12,47.58,54.21,43A15.71,15.71,0,0,0,63,45.72c3.65,0,5.13-1.22,5.13-2.85,0-5-15.46-1.56-15.46-11.44,0-4.52,3.64-8.28,11.2-8.28a17.83,17.83,0,0,1,9.24,2.36l-1.9,4.67a15,15,0,0,0-7.37-2.09c-3.65,0-5.06,1.37-5.06,3,0,4.9,15.47,1.52,15.47,11.28,0,4.45-3.69,8.25-11.29,8.25C58.73,50.66,54.48,49.41,52.12,47.58Z"/><path class="cls-3" d="M76.52,40c0-6.15,4.75-10.52,11.25-10.52S99,33.83,99,40s-4.71,10.53-11.2,10.53S76.52,46.14,76.52,40ZM93,40c0-3.53-2.24-5.66-5.2-5.66S82.52,36.45,82.52,40s2.28,5.66,5.25,5.66S93,43.52,93,40Z"/><path class="cls-3" d="M102.93,22h5.93V50.2h-5.93Z"/><path class="cls-3" d="M135,29.76V50.2h-5.62V47.77A8.27,8.27,0,0,1,123,50.51c-5.13,0-8.74-2.89-8.74-9.2V29.76h5.93V40.44c0,3.42,1.52,4.94,4.14,4.94S129,43.63,129,39.87V29.76Z"/><path class="cls-3" d="M139,40c0-6.15,4.75-10.52,11.4-10.52,4.29,0,7.68,1.86,9.16,5.2l-4.6,2.47a5.11,5.11,0,0,0-4.6-2.81c-3,0-5.35,2.09-5.35,5.66s2.35,5.66,5.35,5.66a5,5,0,0,0,4.6-2.81l4.6,2.51c-1.48,3.27-4.87,5.17-9.16,5.17C143.7,50.51,139,46.14,139,40Z"/><path class="cls-3" d="M162.21,23.61a3.39,3.39,0,0,1,3.68-3.31c2.21,0,3.69,1.37,3.69,3.19a3.7,3.7,0,0,1-7.37.12Zm.72,6.15h5.93V50.2h-5.93Z"/><path class="cls-3" d="M172.85,40c0-6.15,4.75-10.52,11.24-10.52S195.3,33.83,195.3,40s-4.71,10.53-11.21,10.53S172.85,46.14,172.85,40Zm16.45,0c0-3.53-2.24-5.66-5.21-5.66s-5.24,2.13-5.24,5.66,2.28,5.66,5.24,5.66S189.3,43.52,189.3,40Z"/><path class="cls-3" d="M220.16,38.5V50.2h-5.93V39.41c0-3.3-1.52-4.82-4.14-4.82-2.85,0-4.9,1.75-4.9,5.51V50.2h-5.93V29.76h5.66v2.4a8.93,8.93,0,0,1,6.76-2.7C216.51,29.46,220.16,32.27,220.16,38.5Z"/><path class="cls-3" d="M245.65,41.65H230.19c.57,2.55,2.74,4.11,5.85,4.11a6.93,6.93,0,0,0,5.13-2l3.15,3.42c-1.9,2.17-4.75,3.31-8.43,3.31-7.07,0-11.67-4.45-11.67-10.53s4.68-10.52,10.91-10.52c6,0,10.64,4,10.64,10.6C245.77,40.52,245.69,41.16,245.65,41.65ZM230.11,38.2h10.07a5.11,5.11,0,0,0-10.07,0Z"/><path class="cls-3" d="M247.75,48.3l2-4.25a14,14,0,0,0,7.11,2c2.73,0,3.76-.72,3.76-1.86,0-3.34-12.35.08-12.35-8.09,0-3.88,3.5-6.61,9.46-6.61a16.84,16.84,0,0,1,7.87,1.78l-2,4.22a11.74,11.74,0,0,0-5.89-1.52c-2.66,0-3.8.84-3.8,1.9,0,3.5,12.35.12,12.35,8.17,0,3.8-3.53,6.5-9.65,6.5A17.47,17.47,0,0,1,247.75,48.3Z"/></g></g></g></g></svg>