<?xml version="1.0" encoding="iso-8859-1"?>
<!-- Generator: Adobe Illustrator 19.0.0, SVG Export Plug-In . SVG Version: 6.00 Build 0)  -->
<svg version="1.1" id="Layer_1" xmlns="http://www.w3.org/2000/svg" xmlns:xlink="http://www.w3.org/1999/xlink" x="0px" y="0px"
	 viewBox="0 0 297 297" style="enable-background:new 0 0 297 297;" xml:space="preserve">
<g>
	<g>
		<g>
			<g>
				<g>
					<g>
						<circle style="fill:#D5C295;" cx="148.5" cy="148.5" r="148.5"/>
					</g>
				</g>
			</g>
		</g>
	</g>
	<path style="fill:#AD996F;" d="M296.764,140.183l-70.146-70.146L69.953,226.148l70.642,70.642c2.618,0.137,5.253,0.21,7.905,0.21
		c82.014,0,148.5-66.486,148.5-148.5C297,145.708,296.916,142.937,296.764,140.183z"/>
	<g>
		<path style="fill:#79302A;" d="M80.334,231h136.333c7.916,0,14.333-6.417,14.333-14.333V80.334C231,72.417,224.583,66,216.667,66
			H80.334C72.417,66,66,72.417,66,80.334v136.333C66,224.583,72.417,231,80.334,231z"/>
	</g>
	<g>
		<path style="fill:#662621;" d="M216.667,66h-68.5v165h68.5c7.916,0,14.333-6.417,14.333-14.333V80.333
			C231,72.417,224.583,66,216.667,66z"/>
	</g>
	<g>
		<path style="fill:#F86E51;" d="M93.967,214.5h109.066c6.333,0,11.467-5.134,11.467-11.467V93.967
			c0-6.333-5.134-11.467-11.467-11.467H93.967c-6.333,0-11.467,5.134-11.467,11.467v109.066C82.5,209.366,87.634,214.5,93.967,214.5
			z"/>
	</g>
	<g>
		<path style="fill:#D85944;" d="M203.033,82.5h-54.866v132h54.866c6.333,0,11.467-5.134,11.467-11.467V93.967
			C214.5,87.634,209.366,82.5,203.033,82.5z"/>
	</g>
	<path style="fill:#32373B;" d="M193.868,168.92l-17.247-9.958c1.213-3.258,1.879-6.782,1.879-10.462s-0.666-7.205-1.879-10.462
		l17.247-9.958c2.392-1.381,3.211-4.438,1.83-6.83c-1.38-2.392-4.438-3.214-6.83-1.83l-17.251,9.96
		c-4.494-5.428-10.865-9.24-18.117-10.457V99c0-2.762-2.238-5-5-5s-5,2.238-5,5v19.923c-7.252,1.217-13.623,5.03-18.117,10.457
		l-17.251-9.96c-2.394-1.384-5.45-0.561-6.83,1.83c-1.381,2.392-0.562,5.449,1.83,6.83l17.247,9.958
		c-1.213,3.258-1.879,6.782-1.879,10.462s0.666,7.205,1.879,10.462l-17.247,9.958c-2.392,1.381-3.211,4.438-1.83,6.83
		c0.926,1.604,2.606,2.501,4.335,2.501c0.848,0,1.708-0.216,2.495-0.671l17.251-9.96c4.494,5.428,10.865,9.24,18.117,10.457V198
		c0,2.762,2.238,5,5,5s5-2.238,5-5v-19.923c7.252-1.217,13.623-5.03,18.117-10.457l17.251,9.96c0.787,0.455,1.647,0.671,2.495,0.671
		c1.729,0,3.409-0.897,4.335-2.501C197.079,173.358,196.26,170.301,193.868,168.92z"/>
	<path style="fill:#292D30;" d="M193.868,168.92l-17.247-9.958c1.213-3.258,1.879-6.782,1.879-10.462s-0.666-7.205-1.879-10.462
		l17.247-9.958c2.392-1.381,3.211-4.438,1.83-6.83c-1.38-2.392-4.438-3.214-6.83-1.83l-17.251,9.96
		c-4.494-5.428-10.865-9.24-18.117-10.457V99c0-2.762-2.238-5-5-5c-0.114,0-0.221,0.026-0.333,0.034v108.933
		c0.112,0.008,0.219,0.034,0.333,0.034c2.762,0,5-2.238,5-5v-19.923c7.252-1.217,13.623-5.03,18.117-10.457l17.251,9.96
		c0.787,0.455,1.647,0.671,2.495,0.671c1.729,0,3.409-0.897,4.335-2.501C197.079,173.358,196.26,170.301,193.868,168.92z"/>
</g>
<g>
</g>
<g>
</g>
<g>
</g>
<g>
</g>
<g>
</g>
<g>
</g>
<g>
</g>
<g>
</g>
<g>
</g>
<g>
</g>
<g>
</g>
<g>
</g>
<g>
</g>
<g>
</g>
<g>
</g>
</svg>
