<svg id="Capa_1" enable-background="new 0 0 496.111 496.111" height="512" viewBox="0 0 496.111 496.111" width="512" xmlns="http://www.w3.org/2000/svg"><path d="m312.264 171.929h99.577 44.684c6.642 0 12.026 5.384 12.026 12.026v245.419h-440.233v-245.419c0-6.642 5.384-12.026 12.026-12.026h42.291 101.486z" fill="#b4d2e2"/><path d="m472.733 469.71h-449.354c-12.912 0-23.379-10.467-23.379-23.379v-18.786c0-1.751 1.42-3.171 3.171-3.171h489.769c1.751 0 3.171 1.42 3.171 3.171v18.786c0 12.912-10.467 23.379-23.378 23.379z" fill="#6cabca"/><path d="m53.318 202.511v191.281c0 3.083 2.499 5.582 5.582 5.582h379.069c3.083 0 5.582-2.499 5.582-5.582v-191.281c0-3.083-2.499-5.582-5.582-5.582h-379.069c-3.083 0-5.582 2.499-5.582 5.582z" fill="#99e6fc"/><path d="m234.465 374.525c-84.332 0-152.697-68.365-152.697-152.697v-24.899h-22.868c-3.083 0-5.582 2.499-5.582 5.582v191.281c0 3.083 2.499 5.582 5.582 5.582h379.069c3.083 0 5.582-2.499 5.582-5.582v-19.267z" fill="#62dbfb"/><path d="m349.439 171.929c0-56.154-45.92-101.582-102.257-100.783-54.06.767-98.256 44.717-99.309 98.772-.771 39.564 21.261 74.055 53.841 91.228 4.981 2.626 8.103 7.786 8.103 13.417v31.216h76.481v-30.604c0-5.714 3.224-10.915 8.308-13.524 32.554-16.709 54.833-50.611 54.833-89.722z" fill="#fee45a"/><path d="m249.475 261.147c-32.579-17.173-54.611-51.665-53.841-91.229.903-46.372 33.559-85.305 76.953-95.92-8.128-1.98-16.641-2.976-25.406-2.852-54.06.768-98.256 44.717-99.309 98.772-.771 39.564 21.261 74.055 53.841 91.229 4.981 2.625 8.103 7.786 8.103 13.417v31.216h47.763v-31.216c-.001-5.631-3.123-10.792-8.104-13.417z" fill="#fec165"/><path d="m333.983 424.374h-171.855l3.575 15.516c.965 4.186 4.692 7.152 8.987 7.152h146.73c4.296 0 8.023-2.966 8.987-7.152z" fill="#3692bc"/><g fill="#01d0fb"><path d="m173.589 295.298c-1.4 0-2.815-.392-4.077-1.21-3.23-2.097-6.415-4.349-9.465-6.693-3.284-2.524-3.9-7.232-1.375-10.517s7.232-3.901 10.517-1.376c2.736 2.103 5.592 4.123 8.49 6.004 3.475 2.256 4.462 6.9 2.208 10.375-1.436 2.212-3.843 3.417-6.298 3.417z"/><path d="m346.894 276.377c-1.903 0-3.807-.72-5.269-2.163-2.947-2.91-2.978-7.658-.067-10.606 4.924-4.987 9.476-10.404 13.53-16.103 2.402-3.375 7.084-4.164 10.459-1.763 3.375 2.402 4.164 7.085 1.763 10.46-4.519 6.35-9.591 12.387-15.078 17.944-1.468 1.486-3.403 2.231-5.338 2.231zm-198.761-2.352c-1.996 0-3.988-.792-5.463-2.36-5.345-5.68-10.271-11.836-14.642-18.298-2.321-3.431-1.42-8.094 2.01-10.414 3.432-2.32 8.094-1.422 10.415 2.01 3.923 5.8 8.344 11.325 13.141 16.423 2.839 3.017 2.694 7.764-.322 10.602-1.449 1.363-3.296 2.037-5.139 2.037zm224.448-33.767c-1.111 0-2.238-.248-3.302-.771-3.717-1.827-5.25-6.321-3.424-10.039 3.086-6.28 5.68-12.859 7.708-19.554 1.202-3.966 5.391-6.206 9.353-5.003 3.964 1.201 6.204 5.389 5.002 9.354-2.264 7.47-5.158 14.811-8.601 21.818-1.304 2.654-3.967 4.195-6.736 4.195zm-249.269-2.95c-2.833 0-5.543-1.612-6.812-4.353-3.28-7.088-6.003-14.491-8.092-22.004-1.11-3.99 1.225-8.126 5.216-9.235 3.992-1.116 8.125 1.226 9.235 5.216 1.873 6.734 4.314 13.37 7.254 19.724 1.739 3.76.103 8.217-3.657 9.957-1.018.471-2.089.695-3.144.695zm262.144-39.47c-.331 0-.665-.021-1.001-.066-4.105-.549-6.99-4.321-6.442-8.427.482-3.617.819-7.311 1-10.978.107-2.176.162-4.38.162-6.552 0-1.166-.015-2.328-.046-3.486-.109-4.141 3.159-7.586 7.3-7.694 4.105-.106 7.586 3.159 7.695 7.3.034 1.289.051 2.582.051 3.881 0 2.418-.061 4.872-.181 7.293-.202 4.08-.576 8.192-1.114 12.221-.502 3.768-3.722 6.508-7.424 6.508zm-274.03-3.222c-3.776 0-7.026-2.845-7.446-6.685-.574-5.242-.865-10.588-.865-15.89 0-2.418.061-4.872.181-7.293l.009-.192c.183-4.138 3.68-7.374 7.825-7.16 4.138.183 7.344 3.687 7.161 7.824l-.014.278c-.107 2.167-.162 4.371-.162 6.543 0 4.759.261 9.555.776 14.257.451 4.118-2.522 7.821-6.639 8.271-.278.032-.553.047-.826.047zm272.819-41.083c-3.531 0-6.676-2.504-7.36-6.1-1.306-6.871-3.186-13.686-5.587-20.256-1.422-3.891.58-8.197 4.47-9.618 3.889-1.423 8.197.578 9.619 4.47 2.679 7.331 4.776 14.936 6.234 22.602.773 4.069-1.898 7.995-5.967 8.77-.473.089-.944.132-1.409.132zm-270.544-3.181c-.521 0-1.049-.055-1.578-.168-4.05-.868-6.63-4.854-5.763-8.905 1.635-7.636 3.907-15.189 6.75-22.45 1.51-3.857 5.861-5.758 9.718-4.249 3.857 1.51 5.759 5.861 4.249 9.718-2.548 6.509-4.584 13.279-6.05 20.124-.753 3.52-3.865 5.93-7.326 5.93zm255.36-38.434c-2.623 0-5.169-1.378-6.545-3.827-3.425-6.096-7.375-11.965-11.738-17.442-2.581-3.24-2.046-7.959 1.193-10.539 3.24-2.582 7.958-2.048 10.539 1.193 4.863 6.104 9.265 12.646 13.083 19.44 2.029 3.611.747 8.184-2.865 10.212-1.161.653-2.423.963-3.667.963zm-239.21-2.835c-1.302 0-2.62-.339-3.82-1.051-3.563-2.114-4.736-6.715-2.623-10.277 3.978-6.703 8.536-13.14 13.548-19.131 2.658-3.178 7.389-3.598 10.565-.939 3.177 2.657 3.598 7.388.94 10.564-4.497 5.375-8.585 11.148-12.153 17.16-1.402 2.362-3.897 3.674-6.457 3.674zm211.592-31.832c-1.8 0-3.606-.645-5.043-1.95-5.186-4.715-10.786-9.039-16.645-12.853-3.472-2.26-4.454-6.906-2.194-10.378s6.906-4.453 10.377-2.194c6.531 4.252 12.773 9.071 18.553 14.325 3.064 2.787 3.291 7.53.504 10.595-1.481 1.628-3.513 2.455-5.552 2.455zm-183.145-2.168c-2.101 0-4.189-.877-5.673-2.59-2.711-3.131-2.372-7.868.759-10.579 5.9-5.11 12.253-9.777 18.884-13.872 3.524-2.179 8.146-1.085 10.322 2.439s1.084 8.146-2.44 10.322c-5.949 3.675-11.65 7.863-16.945 12.448-1.419 1.229-3.167 1.832-4.907 1.832zm145.988-22.005c-1.01 0-2.037-.205-3.021-.639-6.4-2.821-13.083-5.139-19.864-6.889-4.011-1.034-6.423-5.125-5.388-9.136s5.125-6.428 9.136-5.388c7.565 1.952 15.023 4.538 22.166 7.686 3.79 1.671 5.509 6.098 3.838 9.888-1.237 2.807-3.985 4.478-6.867 4.478zm-108.287-1.272c-2.945 0-5.739-1.746-6.934-4.637-1.583-3.828.238-8.214 4.066-9.797 7.213-2.981 14.724-5.394 22.322-7.17 4.034-.944 8.067 1.562 9.011 5.596.943 4.033-1.563 8.067-5.596 9.01-6.811 1.593-13.542 3.755-20.008 6.428-.936.386-1.907.57-2.861.57zm65.384-9.817c-.229 0-.46-.011-.693-.032-1.862-.171-3.748-.304-5.604-.395-5.154-.253-10.354-.205-15.436.138-4.141.271-7.71-2.844-7.989-6.977-.28-4.132 2.844-7.709 6.977-7.988 5.661-.385 11.455-.438 17.186-.155 2.066.102 4.164.25 6.236.439 4.125.378 7.162 4.028 6.784 8.153-.357 3.892-3.628 6.816-7.461 6.817z"/><path d="m320.761 297.14c-2.522 0-4.983-1.271-6.399-3.577-2.167-3.53-1.062-8.149 2.469-10.315 2.938-1.804 5.845-3.751 8.64-5.788 3.347-2.44 8.04-1.704 10.479 1.643 2.44 3.348 1.705 8.039-1.643 10.479-3.114 2.27-6.354 4.44-9.629 6.45-1.225.749-2.58 1.108-3.917 1.108z"/></g><path d="m248.644 101.907c38.68 0 70.03 31.35 70.03 70.02 0 38.68-31.35 70.03-70.03 70.03-38.67 0-70.02-31.35-70.02-70.03 0-38.67 31.35-70.02 70.02-70.02z" fill="#99e6fc"/><path d="m318.674 171.927c0 38.68-31.35 70.03-70.03 70.03 10.19 0 19.09-14.19 23.82-35.26 26.95-5.15 46.21-18.77 46.21-34.77z" fill="#01d0fb"/><path d="m272.464 206.697c-4.73 21.07-13.63 35.26-23.82 35.26s-19.08-14.19-23.81-35.26c7.43 1.42 15.45 2.19 23.81 2.19s16.39-.77 23.82-2.19z" fill="#01c0fa"/><path d="m224.834 206.697c4.73 21.07 13.62 35.26 23.81 35.26-38.67 0-70.02-31.35-70.02-70.03 0 16 19.26 29.62 46.21 34.77z" fill="#08a9f1"/><path d="m272.464 137.167c26.95 5.14 46.21 18.76 46.21 34.76s-19.26 29.62-46.21 34.77c2.3-10.24 3.61-22.11 3.61-34.77 0-12.65-1.31-24.52-3.61-34.76z" fill="#62dbfb"/><path d="m272.464 137.167c2.3 10.24 3.61 22.11 3.61 34.76 0 12.66-1.31 24.53-3.61 34.77-7.43 1.42-15.46 2.19-23.82 2.19s-16.38-.77-23.81-2.19c-2.3-10.24-3.61-22.11-3.61-34.77 0-12.65 1.31-24.52 3.61-34.76 7.43-1.42 15.45-2.19 23.81-2.19s16.39.77 23.82 2.19z" fill="#01d0fb"/><path d="m224.834 137.167c-2.3 10.24-3.61 22.11-3.61 34.76 0 12.66 1.31 24.53 3.61 34.77-26.95-5.15-46.21-18.77-46.21-34.77s19.26-29.62 46.21-34.76z" fill="#01c0fa"/><path d="m248.644 101.907c-10.19 0-19.08 14.19-23.81 35.26-26.95 5.14-46.21 18.76-46.21 34.76 0-38.67 31.35-70.02 70.02-70.02z" fill="#01d0fb"/><path d="m248.644 101.907c10.19 0 19.09 14.19 23.82 35.26-7.43-1.42-15.46-2.19-23.82-2.19s-16.38.77-23.81 2.19c4.73-21.07 13.62-35.26 23.81-35.26z" fill="#62dbfb"/><path d="m273.745 323.199h-51.622v25.759c0 7.841 6.357 14.198 14.198 14.198h23.226c7.841 0 14.198-6.357 14.198-14.198z" fill="#d8e8f0"/><path d="m247.934 348.959v-25.759h-25.811v25.759c0 7.841 6.357 14.198 14.198 14.198h23.226c.436 0 .866-.027 1.292-.065-7.234-.655-12.905-6.728-12.905-14.133z" fill="#b4d2e2"/><path d="m293.023 302.779h-90.177c-1.258 0-2.278 1.02-2.278 2.278v14.704c0 3.556 2.883 6.438 6.438 6.438h81.856c3.556 0 6.438-2.883 6.438-6.438v-14.704c.001-1.258-1.019-2.278-2.277-2.278z" fill="#b4d2e2"/><path d="m236.293 319.761v-14.705c0-1.258 1.02-2.277 2.278-2.277h-35.725c-1.258 0-2.278 1.02-2.278 2.277v14.705c0 3.556 2.883 6.438 6.438 6.438h35.725c-3.555.001-6.438-2.882-6.438-6.438z" fill="#8abbd5"/></svg>