<svg xmlns="http://www.w3.org/2000/svg" xmlns:xlink="http://www.w3.org/1999/xlink" viewBox="0 0 383 73"><defs><style>.cls-1{fill:url(#Degradado_sin_nombre_3);}.cls-2{isolation:isolate;}.cls-3{fill:#fff;}</style><linearGradient id="Degradado_sin_nombre_3" x1="-593.5" y1="385.32" x2="-593.5" y2="384.32" gradientTransform="matrix(383, 0, 0, -73, 227501.68, 28128.72)" gradientUnits="userSpaceOnUse"><stop offset="0" stop-color="#77bb62"/><stop offset="1" stop-color="#57904a"/></linearGradient></defs><title>Recurso 2</title><g id="Capa_2" data-name="Capa 2"><g id="Capa_1-2" data-name="Capa 1"><g id="Grupo_352" data-name="Grupo 352"><rect id="Rectángulo_116" data-name="Rectángulo 116" class="cls-1" width="383" height="73"/><g id="Ventajas" class="cls-2"><g class="cls-2"><path class="cls-3" d="M78.72,23.4,67.21,50H61.13L49.66,23.4h6.65l8.09,19,8.21-19Z"/><path class="cls-3" d="M98.9,41.45H83.44c.57,2.55,2.73,4.1,5.85,4.1a6.93,6.93,0,0,0,5.13-2L97.57,47c-1.9,2.16-4.75,3.3-8.43,3.3-7.07,0-11.67-4.44-11.67-10.52s4.68-10.53,10.91-10.53c6,0,10.64,4,10.64,10.61C99,40.31,98.94,41,98.9,41.45ZM83.36,38H93.43a5.11,5.11,0,0,0-10.07,0Z"/><path class="cls-3" d="M123.87,38.3V50h-5.93V39.21c0-3.31-1.52-4.83-4.14-4.83-2.85,0-4.9,1.75-4.9,5.51V50H103V29.56h5.66V32a9,9,0,0,1,6.77-2.7C120.22,29.25,123.87,32.07,123.87,38.3Z"/><path class="cls-3" d="M142.41,49a8.4,8.4,0,0,1-4.82,1.29c-4.83,0-7.64-2.47-7.64-7.33v-8.4H126.8V30H130V25h5.93v5H141v4.56h-5.09V42.9a2.38,2.38,0,0,0,2.54,2.69,4,4,0,0,0,2.4-.76Z"/><path class="cls-3" d="M163.84,38.34V50H158.3V47.45c-1.11,1.87-3.23,2.85-6.23,2.85-4.79,0-7.64-2.66-7.64-6.19S147,38,153.21,38h4.71c0-2.54-1.52-4-4.71-4a9.8,9.8,0,0,0-5.89,1.9l-2.13-4.15A15.76,15.76,0,0,1,154,29.25C160.23,29.25,163.84,32.14,163.84,38.34Zm-5.92,5.2V41.45h-4.07c-2.77,0-3.65,1-3.65,2.39s1.26,2.47,3.35,2.47A4.38,4.38,0,0,0,157.92,43.54Z"/><path class="cls-3" d="M162.94,56.53l1.59-4.29A4.33,4.33,0,0,0,167,53c1.48,0,2.43-1,2.43-3V29.56h5.93V50c0,4.71-2.78,7.71-7.72,7.71A8.57,8.57,0,0,1,162.94,56.53Zm5.81-33.13a3.38,3.38,0,0,1,3.68-3.3c2.21,0,3.69,1.37,3.69,3.19a3.7,3.7,0,0,1-7.37.11Z"/><path class="cls-3" d="M199,38.34V50h-5.55V47.45c-1.1,1.87-3.23,2.85-6.23,2.85-4.79,0-7.64-2.66-7.64-6.19S182.09,38,188.32,38H193c0-2.54-1.52-4-4.71-4a9.8,9.8,0,0,0-5.89,1.9l-2.13-4.15a15.76,15.76,0,0,1,8.81-2.47C195.35,29.25,199,32.14,199,38.34ZM193,43.54V41.45H189c-2.77,0-3.64,1-3.64,2.39s1.25,2.47,3.34,2.47A4.38,4.38,0,0,0,193,43.54Z"/><path class="cls-3" d="M202.34,48.1l2-4.26a14,14,0,0,0,7.11,2c2.74,0,3.76-.72,3.76-1.86,0-3.35-12.35.07-12.35-8.09,0-3.88,3.5-6.62,9.46-6.62A16.81,16.81,0,0,1,220.16,31l-2,4.22a11.71,11.71,0,0,0-5.89-1.52c-2.66,0-3.8.83-3.8,1.9,0,3.49,12.35.11,12.35,8.17,0,3.8-3.53,6.49-9.65,6.49A17.57,17.57,0,0,1,202.34,48.1Z"/></g></g></g></g></g></svg>