<svg xmlns="http://www.w3.org/2000/svg" width="43.206" height="42.665" viewBox="0 0 43.206 42.665">
  <g id="Grupo_568" data-name="Grupo 568" transform="translate(-367 -1122.002)">
    <g id="Grupo_364" data-name="Grupo 364" transform="translate(-330.914 -196.934)">
      <path id="Trazado_649" data-name="Trazado 649" d="M405.641,1220.442l-4.464,1.577.214,1.125a10.082,10.082,0,0,1,.185,2.286,16.7,16.7,0,1,1-16.489-16.53,16.511,16.511,0,0,1,7.375,1.827l1.191.6.6-1.191c.345-.661.673-1.286.976-1.857l.631-1.191-1.191-.6a21.388,21.388,0,1,0,11.227,15.554Z" transform="translate(334.41 114.85)" fill="#007f8d"/>
      <path id="Trazado_650" data-name="Trazado 650" d="M411.248,1213.513a1.951,1.951,0,0,0-1.327-.5,3.051,3.051,0,0,0-2.185,1.071l-17.768,19.465-9.655-11.238a2.244,2.244,0,0,0-3.143-.208,2.2,2.2,0,0,0-.239,3.105l.007.008,11.036,12.846a1.99,1.99,0,0,0,.6.47,1.956,1.956,0,0,0,1.28.464,3.043,3.043,0,0,0,2.185-1.077l19.018-20.834a3.414,3.414,0,0,0,.827-1.571A2.077,2.077,0,0,0,411.248,1213.513Z" transform="translate(329.19 111.237)" fill="#007f8d"/>
    </g>
  </g>
</svg>
