<svg id="Grupo_362" data-name="Grupo 362" xmlns="http://www.w3.org/2000/svg" width="40.112" height="43.449" viewBox="0 0 40.112 43.449">
  <path id="Trazado_665" data-name="Trazado 665" d="M1039.059,1257a2.9,2.9,0,0,0-2.8-2.9,2.964,2.964,0,0,0-3.089,2.6,8.309,8.309,0,0,0,0,.932v3.29a4.369,4.369,0,0,1-.058.637h-28.18l-.142-.127v-4.454a2.905,2.905,0,0,0-2.887-2.9,2.941,2.941,0,0,0-2.9,2.971v7.529a2.894,2.894,0,0,0,1.658,2.653,3.18,3.18,0,0,0,1.041.116h34.474a4.824,4.824,0,0,0,1.349-.1,2.894,2.894,0,0,0,1.588-2.583C1039.076,1262.077,1039.076,1259.529,1039.059,1257Z" transform="translate(-999 -1223.92)" fill="#007f8d" fill-rule="evenodd"/>
  <path id="Trazado_666" data-name="Trazado 666" d="M1014.572,1225.4l9.4,9.406c.168.162.324.348.51.51a1.28,1.28,0,0,0,1.7,0,3.659,3.659,0,0,0,.359-.376l9.7-9.672a3.861,3.861,0,0,0,.475-.544,1,1,0,0,0-.324-1.378,1.048,1.048,0,0,0-.347-.133,2.35,2.35,0,0,0-.817.214h-4.472v-18.464a7.524,7.524,0,0,0,0-1.132,2.2,2.2,0,0,0-1.9-1.833h-6.992a2.233,2.233,0,0,0-2.117,2.125v17.955a4.185,4.185,0,0,1-.092,1.158.707.707,0,0,1-.764-.388h-3.261a.958.958,0,0,1-.834.388,1.008,1.008,0,0,0-.695,1.622A5.445,5.445,0,0,0,1014.572,1225.4Z" transform="translate(-1005.263 -1202)" fill="#007f8d" fill-rule="evenodd"/>
</svg>
