<svg id="Grupo_361" data-name="Grupo 361" xmlns="http://www.w3.org/2000/svg" width="48.59" height="44.853" viewBox="0 0 48.59 44.853">
  <path id="Trazado_663" data-name="Trazado 663" d="M411.348,1459h-2.99v.748H370.98V1459h-2.99v1.5H365v8.97h2.99v2.243H365v8.971h48.59v-8.971h-2.243v-2.243h2.243v-9.718h-2.243Zm-38.125,5.98h2.99v2.99h-2.99Zm-3.738,0h2.243v2.99h-2.243Zm-.748,14.2H366.5v-2.99h2.243Zm0-11.213H366.5v-2.99h2.243Zm2.99,11.213h-2.243v-2.99h2.243Zm4.485,0h-2.99v-2.99h2.99Zm32.877-7.475H370.98v-2.243H409.1Z" transform="translate(-365 -1435.826)" fill="#007f8d" fill-rule="evenodd"/>
  <path id="Trazado_664" data-name="Trazado 664" d="M411.348,1428h-2.99v.748H370.98V1428h-2.99v1.5H365v8.97h2.99v2.243H365v8.97h48.59v-8.97h-2.243v-2.243h2.243v-9.718h-2.243Zm-38.125,5.98h2.99v2.99h-2.99Zm-3.738,0h2.243v2.99h-2.243Zm-.748,14.2H366.5v-2.99h2.243Zm0-11.213H366.5v-2.99h2.243Zm2.99,11.213h-2.243v-2.99h2.243Zm4.485,0h-2.99v-2.99h2.99Zm32.877-7.475H370.98v-2.243H409.1Z" transform="translate(-365 -1428)" fill="#007f8d" fill-rule="evenodd"/>
</svg>
