<svg xmlns="http://www.w3.org/2000/svg" width="63.337" height="50.133" viewBox="0 0 63.337 50.133">
  <g id="Grupo_363" data-name="Grupo 363" transform="translate(0.5 0.5)">
    <path id="Trazado_667" data-name="Trazado 667" d="M1053.53,1432H992.9a.852.852,0,0,0-.852.852v33.372a.852.852,0,0,0,.851.854h25.386v5.979l-11.971,3.623a.851.851,0,0,0-.569,1.062h0a4.739,4.739,0,0,0,5.9,3.176l.018-.006,11.552-3.5,11.552,3.5a4.747,4.747,0,0,0,5.919-3.169h0a.851.851,0,0,0-.568-1.062h0L1027.941,1473v-5.918h25.589a.852.852,0,0,0,.852-.852v-33.374a.852.852,0,0,0-.852-.852Zm-26.688,42.444,11.849,3.586a3.048,3.048,0,0,1-3.433,1.251l-11.8-3.57a.84.84,0,0,0-.494,0l-11.8,3.57a3.048,3.048,0,0,1-3.433-1.251l11.647-3.525a.85.85,0,0,0,.6-.816v-6.612h6.252v6.55a.853.853,0,0,0,.6.816Zm25.836-9.071H993.75V1433.7h58.928Z" transform="translate(-992.045 -1432)" fill="#007f8d" stroke="#007f8d" stroke-width="1"/>
    <path id="Trazado_668" data-name="Trazado 668" d="M999.646,1463.949h50.689a.852.852,0,0,0,.852-.852v-23.633a.852.852,0,0,0-.852-.852H999.646a.852.852,0,0,0-.852.852v23.632a.852.852,0,0,0,.851.854Zm.852-23.632h48.984v21.927H1000.5Z" transform="translate(-993.823 -1433.741)" fill="#007f8d" stroke="#007f8d" stroke-width="1"/>
    <path id="Trazado_669" data-name="Trazado 669" d="M1013.382,1445.223h-7.125a.852.852,0,0,0-.852.852v5a.852.852,0,0,0,.852.852h7.125a.852.852,0,0,0,.852-.852v-5A.852.852,0,0,0,1013.382,1445.223Zm-.852,5h-5.42v-3.292h5.42Z" transform="translate(-995.564 -1435.483)" fill="#007f8d" stroke="#007f8d" stroke-width="1"/>
    <path id="Trazado_670" data-name="Trazado 670" d="M1013.382,1457.009h-7.125a.852.852,0,0,0-.852.852v5a.852.852,0,0,0,.852.852h7.125a.852.852,0,0,0,.852-.852v-5a.852.852,0,0,0-.852-.852Zm-.852,5h-5.42v-3.292h5.42Z" transform="translate(-995.564 -1438.587)" fill="#007f8d" stroke="#007f8d" stroke-width="1"/>
    <path id="Trazado_671" data-name="Trazado 671" d="M1028.6,1445.223h-7.124a.852.852,0,0,0-.852.852v13.891a.852.852,0,0,0,.852.852h7.124a.852.852,0,0,0,.852-.852v-13.891A.852.852,0,0,0,1028.6,1445.223Zm-.852,13.893h-5.419v-12.189h5.419Z" transform="translate(-999.571 -1435.483)" fill="#007f8d" stroke="#007f8d" stroke-width="1"/>
    <path id="Trazado_672" data-name="Trazado 672" d="M1055.017,1445.223h-18.332a.852.852,0,0,0-.852.852v13.891a.852.852,0,0,0,.852.852h18.332a.852.852,0,0,0,.852-.852v-13.891A.852.852,0,0,0,1055.017,1445.223Zm-.852,13.893h-16.627v-12.189h16.627Z" transform="translate(-1003.578 -1435.483)" fill="#007f8d" stroke="#007f8d" stroke-width="1"/>
    <path id="Trazado_673" data-name="Trazado 673" d="M1046.651,1457.536a.851.851,0,0,0,1.156-.046l4.308-4.307a.852.852,0,0,0-1.206-1.205l-3.749,3.75-2.511-2.143a.852.852,0,0,0-1.107,1.3Z" transform="translate(-1005.529 -1437.196)" fill="#007f8d" stroke="#007f8d" stroke-width="1"/>
  </g>
</svg>
