<svg xmlns="http://www.w3.org/2000/svg" width="60.785" height="58.362" viewBox="0 0 60.785 58.362">
  <g id="Grupo_334" data-name="Grupo 334" transform="translate(-546.527 -442.825)">
    <path id="Trazado_333" data-name="Trazado 333" d="M546.527,470.237a1.775,1.775,0,0,1,1.668-.76c3.937.027,7.875,0,11.812.025a.781.781,0,0,0,.857-.591c.483-1.167,1.041-2.3,1.569-3.452l.255-.554h-.714q-3.027,0-6.055,0a1.2,1.2,0,0,1-1.2-.717.985.985,0,0,1,.233-1.247,2.017,2.017,0,0,1,1.123-.393q3.739-.051,7.479,0a1.532,1.532,0,0,0,1.338-.64,23.456,23.456,0,0,1,12.579-7.926c.485-.123.641-.32.609-.8-.042-.63-.025-1.266,0-1.9a.537.537,0,0,0-.4-.609,4.018,4.018,0,0,1,1.36-7.807q4.273-.066,8.547,0a3.981,3.981,0,0,1,3.993,3.383,4.031,4.031,0,0,1-2.625,4.421.529.529,0,0,0-.4.6c.022.672.035,1.347,0,2.017-.025.433.151.569.544.665a23.031,23.031,0,0,1,10.1,5.279,24.024,24.024,0,0,1,4.4,30.815,1.2,1.2,0,1,1-2.006-1.244,21.618,21.618,0,1,0-22.073,9.66,21.322,21.322,0,0,0,15.315-2.952,3.7,3.7,0,0,1,.412-.236,1.168,1.168,0,0,1,1.508.433,1.114,1.114,0,0,1-.273,1.536,13.832,13.832,0,0,1-1.506.946,24,24,0,0,1-32.057-8.435,35.34,35.34,0,0,1-1.762-3.488.781.781,0,0,0-.826-.561c-2.473.022-4.946.011-7.42.009a3.748,3.748,0,0,1-.709-.039,1.143,1.143,0,0,1-.908-1.161,1.125,1.125,0,0,1,.9-1.1,4.007,4.007,0,0,1,.767-.055q3.205-.006,6.411,0h.726c-.042-.266-.075-.468-.106-.669-.175-1.132-.374-2.262-.512-3.4-.047-.383-.172-.5-.545-.5-1.424.015-2.849.006-4.274.005a5.85,5.85,0,0,1-.593-.015,1.176,1.176,0,0,1-1.115-1.169,1.153,1.153,0,0,1,1.16-1.18c1.5-.027,3.008-.045,4.51,0,.625.019.792-.184.834-.785.087-1.238.272-2.47.426-3.778h-.664c-3.66,0-7.321-.012-10.981.01a1.766,1.766,0,0,1-1.708-.8Zm36.785-21.7c1.382,0,2.765.012,4.147,0a1.672,1.672,0,0,0,1.784-1.657,1.631,1.631,0,0,0-1.72-1.654c-2.8-.022-5.608-.012-8.412,0a1.632,1.632,0,0,0-1.425.71,1.565,1.565,0,0,0-.145,1.63,1.626,1.626,0,0,0,1.566.976C580.508,448.544,581.91,448.539,583.312,448.54Zm2.842,4.771v-2.358h-5.662v2.358Z" fill="#177e8a"/>
    <path id="Trazado_334" data-name="Trazado 334" d="M546.527,716.7a3.747,3.747,0,0,1,.885-.7,1.074,1.074,0,0,1,1.365.616,1.185,1.185,0,0,1-.4,1.464,1.212,1.212,0,0,1-1.556-.2c-.1-.112-.2-.231-.294-.347Z" transform="translate(0 -232.575)" fill="#177e8a"/>
    <path id="Trazado_335" data-name="Trazado 335" d="M688.866,587.292a18.411,18.411,0,1,1,18.423-18.37A18.433,18.433,0,0,1,688.866,587.292Zm-.024-34.465a16.048,16.048,0,1,0,16.078,16.029A16.068,16.068,0,0,0,688.842,552.827Z" transform="translate(-105.545 -91.668)" fill="#177e8a"/>
    <path id="Trazado_336" data-name="Trazado 336" d="M897.574,776.388a1.175,1.175,0,1,1-2.349.038,1.175,1.175,0,0,1,2.349-.038Z" transform="translate(-296.945 -283.087)" fill="#177e8a"/>
    <path id="Trazado_337" data-name="Trazado 337" d="M758.43,623.579a3.674,3.674,0,0,1-3.457-4.845.7.7,0,0,0-.208-.868c-.69-.652-1.35-1.334-2.02-2.008-.688-.692-.764-1.379-.215-1.908s1.2-.444,1.868.214c.7.7,1.384,1.414,2.11,2.084a.86.86,0,0,0,.7.162,3.617,3.617,0,0,1,2.387,0,.73.73,0,0,0,.914-.241q2.439-2.47,4.9-4.918a6.6,6.6,0,0,1,.693-.647,1.171,1.171,0,0,1,1.521.106,1.149,1.149,0,0,1,.125,1.516,3.855,3.855,0,0,1-.437.482c-1.7,1.708-3.4,3.421-5.125,5.113a.8.8,0,0,0-.248.963A3.662,3.662,0,0,1,758.43,623.579Zm.031-4.987a1.3,1.3,0,0,0-1.311,1.306,1.315,1.315,0,0,0,1.275,1.292,1.3,1.3,0,0,0,1.335-1.286A1.276,1.276,0,0,0,758.461,618.591Z" transform="translate(-175.12 -142.679)" fill="#177e8a"/>
    <path id="Trazado_338" data-name="Trazado 338" d="M788.781,746.36a4.667,4.667,0,0,1-.006.71,1.154,1.154,0,0,1-1.149,1,1.115,1.115,0,0,1-1.163-.974,6.565,6.565,0,0,1-.005-1.478A1.149,1.149,0,0,1,787.6,744.6a1.2,1.2,0,0,1,1.173.986,5.869,5.869,0,0,1,.043.768Z" transform="translate(-204.288 -256.991)" fill="#177e8a"/>
    <path id="Trazado_339" data-name="Trazado 339" d="M866.559,666.644c.178,0,.356-.01.533,0a1.175,1.175,0,0,1,1.157,1.121,1.137,1.137,0,0,1-1.054,1.211,6.119,6.119,0,0,1-1.358,0,1.109,1.109,0,0,1-1.029-1.224,1.137,1.137,0,0,1,1.158-1.107C866.163,666.635,866.361,666.644,866.559,666.644Z" transform="translate(-271.041 -190.597)" fill="#177e8a"/>
    <path id="Trazado_340" data-name="Trazado 340" d="M788.977,582.768c0,.217.016.436,0,.651a1.161,1.161,0,0,1-1.131,1.08,1.12,1.12,0,0,1-1.175-.954,6.331,6.331,0,0,1-.027-1.415,1.146,1.146,0,0,1,1.189-1.081,1.172,1.172,0,0,1,1.15,1.186c.009.177,0,.355,0,.533Z" transform="translate(-204.455 -117.709)" fill="#177e8a"/>
    <path id="Trazado_341" data-name="Trazado 341" d="M702.7,668.783a6.922,6.922,0,0,1-.71-.04A1.153,1.153,0,0,1,701,667.59a1.133,1.133,0,0,1,1-1.141,7.841,7.841,0,0,1,1.361-.016,1.125,1.125,0,0,1,1.1,1.167,1.137,1.137,0,0,1-1.107,1.16c-.215.02-.434,0-.652,0Z" transform="translate(-131.545 -190.402)" fill="#177e8a"/>
  </g>
</svg>
