<svg xmlns="http://www.w3.org/2000/svg" width="42.75" height="57.685" viewBox="0 0 42.75 57.685">
  <g id="Grupo_250" data-name="Grupo 250" transform="translate(-193.531 -233.234)">
    <g id="Grupo_238" data-name="Grupo 238" transform="translate(194.031 267.251)">
      <path id="Trazado_240" data-name="Trazado 240" d="M205.614,371.557A11.584,11.584,0,1,1,217.2,359.974,11.6,11.6,0,0,1,205.614,371.557Zm0-21.706a10.122,10.122,0,1,0,10.122,10.122A10.133,10.133,0,0,0,205.614,349.852Z" transform="translate(-194.031 -348.39)" fill="#377c86" stroke="#377c86" stroke-width="1"/>
    </g>
    <g id="Grupo_239" data-name="Grupo 239" transform="translate(199.171 242.285)">
      <path id="Trazado_241" data-name="Trazado 241" d="M213.075,290.307h-1.462V262.984H221v1.462h-7.928Z" transform="translate(-211.614 -262.984)" fill="#377c86" stroke="#377c86" stroke-width="1"/>
    </g>
    <g id="Grupo_240" data-name="Grupo 240" transform="translate(213.713 242.285)">
      <path id="Trazado_242" data-name="Trazado 242" d="M274.246,308.076H261.358v-1.462h12.326l8.21-7.4V264.446h-7.929v-1.462h9.391v36.875Z" transform="translate(-261.358 -262.984)" fill="#377c86" stroke="#377c86" stroke-width="1"/>
    </g>
    <g id="Grupo_241" data-name="Grupo 241" transform="translate(207.83 233.734)">
      <path id="Trazado_243" data-name="Trazado 243" d="M260.344,246.487H241.233v-7.82h5.152v-.914a4.582,4.582,0,0,1,4.4-4.02c3.145,0,4.842,2.7,4.842,3.8,0,.316,0,.759,0,1.133h4.712Zm-17.649-1.462h16.188v-4.9h-4.708l0-.729s0-1.207,0-1.866a3.549,3.549,0,0,0-3.38-2.339c-2.373,0-2.94,2.553-2.942,2.58v2.354h-5.152Z" transform="translate(-241.233 -233.734)" fill="#377c86" stroke="#377c86" stroke-width="1"/>
    </g>
    <g id="Grupo_242" data-name="Grupo 242" transform="translate(216.234 236.897)">
      <circle id="Elipse_96" data-name="Elipse 96" cx="1.295" cy="1.295" r="1.295" transform="translate(0 0)" fill="#377c86" stroke="#377c86" stroke-width="1"/>
    </g>
    <g id="Grupo_243" data-name="Grupo 243" transform="translate(199.553 275.281)">
      <path id="Trazado_244" data-name="Trazado 244" d="M218.211,383.965l-5.013-3.98a.731.731,0,1,1,.909-1.145l4.03,3.2,6.446-5.986a.731.731,0,1,1,.995,1.071Z" transform="translate(-212.921 -375.859)" fill="#377c86" stroke="#377c86" stroke-width="1"/>
    </g>
    <g id="Grupo_244" data-name="Grupo 244" transform="translate(205.267 250.369)">
      <path id="Trazado_245" data-name="Trazado 245" d="M256.343,292.1H233.2a.731.731,0,0,1,0-1.462h23.144a.731.731,0,1,1,0,1.462Z" transform="translate(-232.468 -290.64)" fill="#377c86" stroke="#377c86" stroke-width="1"/>
    </g>
    <g id="Grupo_245" data-name="Grupo 245" transform="translate(205.267 256.618)">
      <path id="Trazado_246" data-name="Trazado 246" d="M256.343,313.477H233.2a.731.731,0,1,1,0-1.462h23.144a.731.731,0,1,1,0,1.462Z" transform="translate(-232.468 -312.015)" fill="#377c86" stroke="#377c86" stroke-width="1"/>
    </g>
    <g id="Grupo_246" data-name="Grupo 246" transform="translate(205.267 261.935)">
      <path id="Trazado_247" data-name="Trazado 247" d="M256.343,331.665H233.2a.731.731,0,1,1,0-1.462h23.144a.731.731,0,1,1,0,1.462Z" transform="translate(-232.468 -330.203)" fill="#377c86" stroke="#377c86" stroke-width="1"/>
    </g>
    <g id="Grupo_247" data-name="Grupo 247" transform="translate(217.888 268.046)">
      <path id="Trazado_248" data-name="Trazado 248" d="M286.895,352.57H276.371a.731.731,0,1,1,0-1.462h10.524a.731.731,0,1,1,0,1.462Z" transform="translate(-275.64 -351.108)" fill="#377c86" stroke="#377c86" stroke-width="1"/>
    </g>
    <g id="Grupo_248" data-name="Grupo 248" transform="translate(219.121 273.555)">
      <path id="Trazado_249" data-name="Trazado 249" d="M289.88,371.414h-9.291a.731.731,0,0,1,0-1.462h9.291a.731.731,0,0,1,0,1.462Z" transform="translate(-279.858 -369.952)" fill="#377c86" stroke="#377c86" stroke-width="1"/>
    </g>
    <g id="Grupo_249" data-name="Grupo 249" transform="translate(226.32 278.835)">
      <path id="Trazado_250" data-name="Trazado 250" d="M304.483,395.825v-7.811h8.66Z" transform="translate(-304.483 -388.015)" fill="#377c86" stroke="#377c86" stroke-width="1"/>
    </g>
  </g>
</svg>
