<svg xmlns="http://www.w3.org/2000/svg" xmlns:xlink="http://www.w3.org/1999/xlink" viewBox="0 0 1314 342.35"><defs><style>.cls-1{fill:url(#Degradado_sin_nombre_14);}.cls-2{fill:url(#Degradado_sin_nombre_13);}.cls-3{fill:url(#Degradado_sin_nombre_3);}.cls-4{fill:url(#Degradado_sin_nombre_14-2);}.cls-5{fill:url(#Degradado_sin_nombre_5);}.cls-6{fill:url(#Degradado_sin_nombre_6);}.cls-7{fill:url(#Degradado_sin_nombre_15);}.cls-8{fill:url(#Degradado_sin_nombre_11);}.cls-9{fill:url(#Degradado_sin_nombre_11-2);}.cls-10{fill:url(#Degradado_sin_nombre_15-2);}.cls-11{fill:url(#Degradado_sin_nombre_11-3);}.cls-12{isolation:isolate;}.cls-13{fill:#fff;}.cls-14{fill:url(#Degradado_sin_nombre_12);}.cls-15{fill:url(#Degradado_sin_nombre_13-2);}.cls-16{fill:url(#Degradado_sin_nombre_14-3);}.cls-17{fill:url(#Degradado_sin_nombre_15-3);}</style><linearGradient id="Degradado_sin_nombre_14" x1="88.41" y1="587.72" x2="89.85" y2="587.69" gradientTransform="matrix(314.15, 0, 0, -156.94, -27602.5, 92479.48)" gradientUnits="userSpaceOnUse"><stop offset="0" stop-color="#176977"/><stop offset="1" stop-color="#3eaeab"/></linearGradient><linearGradient id="Degradado_sin_nombre_13" x1="89.07" y1="587.2" x2="89.07" y2="588.2" gradientTransform="matrix(314.51, 0, 0, -156.93, -27357.04, 92324.94)" gradientUnits="userSpaceOnUse"><stop offset="0" stop-color="#a86040"/><stop offset="1" stop-color="#e58f28"/></linearGradient><linearGradient id="Degradado_sin_nombre_3" x1="88.57" y1="587.7" x2="89.57" y2="587.7" gradientTransform="matrix(314.15, 0, 0, -156.94, -27045.39, 92479.48)" gradientUnits="userSpaceOnUse"><stop offset="0" stop-color="#db9022"/><stop offset="0.18" stop-color="#dd9824"/><stop offset="0.47" stop-color="#e4ae2a"/><stop offset="0.82" stop-color="#efd334"/><stop offset="1" stop-color="#f6e83a"/></linearGradient><linearGradient id="Degradado_sin_nombre_14-2" x1="81.55" y1="586.78" x2="84.47" y2="586.78" gradientTransform="matrix(50.63, 0, 0, -64.64, -3736.41, 38240.73)" xlink:href="#Degradado_sin_nombre_14"/><linearGradient id="Degradado_sin_nombre_5" x1="82.93" y1="586.78" x2="82.32" y2="586.78" gradientTransform="matrix(50.63, 0, 0, -64.64, -3182.28, 38241.01)" gradientUnits="userSpaceOnUse"><stop offset="0" stop-color="#f6e83a"/><stop offset="1" stop-color="#dd9624"/></linearGradient><linearGradient id="Degradado_sin_nombre_6" x1="82.32" y1="586.78" x2="83.32" y2="586.78" gradientTransform="matrix(50.63, 0, 0, -64.64, -3468.44, 37963.17)" gradientUnits="userSpaceOnUse"><stop offset="0" stop-color="#e58f28"/><stop offset="1" stop-color="#a86040"/></linearGradient><linearGradient id="Degradado_sin_nombre_15" x1="88.79" y1="587.2" x2="88.79" y2="588.2" gradientTransform="matrix(254.98, 0, 0, -156.94, -22511.09, 92327.17)" gradientUnits="userSpaceOnUse"><stop offset="0" stop-color="#3b3f6b"/><stop offset="1" stop-color="#696fbb"/></linearGradient><linearGradient id="Degradado_sin_nombre_11" x1="88" y1="587.7" x2="89" y2="587.7" gradientTransform="matrix(213.53, 0, 0, -156.93, -17734.91, 92324.87)" gradientUnits="userSpaceOnUse"><stop offset="0.01" stop-color="#d85656"/><stop offset="0.39" stop-color="#b44b4b"/><stop offset="0.78" stop-color="#974242"/><stop offset="1" stop-color="#8c3f3f"/></linearGradient><linearGradient id="Degradado_sin_nombre_11-2" x1="82.32" y1="586.78" x2="83.32" y2="586.78" gradientTransform="matrix(50.63, 0, 0, -64.64, -2904.58, 37963.17)" xlink:href="#Degradado_sin_nombre_11"/><linearGradient id="Degradado_sin_nombre_15-2" x1="82.32" y1="586.78" x2="83.32" y2="586.78" gradientTransform="matrix(50.63, 0, 0, -64.64, -4027.46, 37963.17)" xlink:href="#Degradado_sin_nombre_15"/><linearGradient id="Degradado_sin_nombre_11-3" x1="87.84" y1="587.83" x2="88.84" y2="587.83" gradientTransform="matrix(195.52, 0, 0, -195.52, -16058.32, 115106.52)" xlink:href="#Degradado_sin_nombre_11"/><linearGradient id="Degradado_sin_nombre_12" x1="88.34" y1="587.36" x2="88.34" y2="588.33" gradientTransform="matrix(195.53, 0, 0, -195.53, -16336.67, 115108.86)" gradientUnits="userSpaceOnUse"><stop offset="0" stop-color="#db9022"/><stop offset="0.2" stop-color="#db9022"/><stop offset="1" stop-color="#f6e83a"/></linearGradient><linearGradient id="Degradado_sin_nombre_13-2" x1="87.84" y1="587.83" x2="88.84" y2="587.83" gradientTransform="matrix(195.52, 0, 0, -195.52, -16616.32, 115106.52)" xlink:href="#Degradado_sin_nombre_13"/><linearGradient id="Degradado_sin_nombre_14-3" x1="87.52" y1="587.83" x2="88.95" y2="587.83" gradientTransform="matrix(195.52, 0, 0, -195.52, -16895.32, 115106.52)" xlink:href="#Degradado_sin_nombre_14"/><linearGradient id="Degradado_sin_nombre_15-3" x1="87.84" y1="587.83" x2="88.84" y2="587.83" gradientTransform="matrix(195.52, 0, 0, -195.52, -17174.32, 115106.52)" xlink:href="#Degradado_sin_nombre_15"/></defs><title>Recurso 7</title><g id="Capa_2" data-name="Capa 2"><g id="Capa_1-2" data-name="Capa 1"><g id="Grupo_260" data-name="Grupo 260"><path id="Trazado_265" data-name="Trazado 265" class="cls-1" d="M498.41,169.7v93.52A27.73,27.73,0,0,1,470.7,291H283.25a27.73,27.73,0,0,1-27.71-27.74h0V169.7H219.9v93.52a63.39,63.39,0,0,0,63.35,63.42H470.7A63.38,63.38,0,0,0,534,263.22h0V169.7Z"/><path id="Trazado_266" data-name="Trazado 266" class="cls-2" d="M534,172.75V79.23a27.74,27.74,0,0,1,27.74-27.74H749.38a27.74,27.74,0,0,1,27.74,27.75h0v93.51H812.8V79.23a63.42,63.42,0,0,0-63.41-63.42H561.71a63.43,63.43,0,0,0-63.42,63.42h0v93.52Z"/><path id="Trazado_267" data-name="Trazado 267" class="cls-3" d="M812.74,169.7v93.52A27.73,27.73,0,0,0,840.45,291H1027.9a27.73,27.73,0,0,0,27.71-27.74h0V169.7h35.64v93.52a63.39,63.39,0,0,1-63.35,63.42H840.45a63.39,63.39,0,0,1-63.35-63.42h0V169.7Z"/><path id="Trazado_268" data-name="Trazado 268" class="cls-4" d="M481.29,308.54,434.2,278a1.77,1.77,0,0,0-2.45.52,1.74,1.74,0,0,0-.28,1v61.1a1.78,1.78,0,0,0,1.76,1.77,1.75,1.75,0,0,0,1-.29l47.09-30.55a1.77,1.77,0,0,0,.52-2.45,1.72,1.72,0,0,0-.52-.52L434.2,278a1.77,1.77,0,0,0-2.45.52,1.73,1.73,0,0,0-.28,1v61.1a1.76,1.76,0,0,0,1.76,1.77,1.74,1.74,0,0,0,1-.28l47.09-30.55a1.76,1.76,0,0,0,.51-2.45A1.8,1.8,0,0,0,481.29,308.54Z"/><path id="Trazado_269" data-name="Trazado 269" class="cls-5" d="M1035.49,308.54,988.4,278a1.77,1.77,0,0,0-2.45.52,1.83,1.83,0,0,0-.28,1v61.1a1.77,1.77,0,0,0,1.77,1.77,1.74,1.74,0,0,0,1-.29l47.09-30.55a1.77,1.77,0,0,0,.52-2.45,1.61,1.61,0,0,0-.52-.52L988.4,278a1.77,1.77,0,0,0-2.45.52,1.82,1.82,0,0,0-.28,1v61.1a1.77,1.77,0,0,0,1.77,1.77,1.82,1.82,0,0,0,1-.28l47.09-30.55a1.78,1.78,0,0,0,.52-2.45A1.84,1.84,0,0,0,1035.49,308.54Z"/><path id="Trazado_270" data-name="Trazado 270" class="cls-6" d="M749.33,30.84,702.24.29a1.77,1.77,0,0,0-2.73,1.48v61.1a1.77,1.77,0,0,0,1.77,1.77,1.79,1.79,0,0,0,1-.28l47.09-30.55a1.77,1.77,0,0,0,.52-2.45,1.61,1.61,0,0,0-.52-.52L702.24.29a1.75,1.75,0,0,0-2.44.52,1.72,1.72,0,0,0-.29,1v61.1a1.77,1.77,0,0,0,1.77,1.77,1.79,1.79,0,0,0,1-.28L749.33,33.8a1.77,1.77,0,0,0,.52-2.45A1.8,1.8,0,0,0,749.33,30.84Z"/><path id="Trazado_271" data-name="Trazado 271" class="cls-7" d="M192.12,15.81H4.44c-1.3,0-2.6.06-3.89.13V51.8a28.21,28.21,0,0,1,3.9-.3H192.12a27.74,27.74,0,0,1,27.74,27.74v93.51h35.68V79.24a63.43,63.43,0,0,0-63.42-63.43Z"/><path id="Trazado_272" data-name="Trazado 272" class="cls-8" d="M1269.14,15.81H1119a63.43,63.43,0,0,0-63.42,63.42h0v93.52h35.68V79.23A27.74,27.74,0,0,1,1119,51.49h150.11Z"/><path id="Trazado_273" data-name="Trazado 273" class="cls-9" d="M1313.19,30.84,1266.1.29a1.77,1.77,0,0,0-2.73,1.48v61.1a1.77,1.77,0,0,0,1.77,1.77,1.79,1.79,0,0,0,1-.28l47.09-30.55a1.77,1.77,0,0,0,.52-2.45,1.61,1.61,0,0,0-.52-.52L1266.1.29a1.75,1.75,0,0,0-2.44.52,1.72,1.72,0,0,0-.29,1v61.1a1.77,1.77,0,0,0,1.77,1.77,1.79,1.79,0,0,0,1-.28l47.09-30.56a1.77,1.77,0,0,0,.52-2.45A1.8,1.8,0,0,0,1313.19,30.84Z"/><path id="Trazado_274" data-name="Trazado 274" class="cls-10" d="M190.3,30.84,143.21.29a1.78,1.78,0,0,0-2.45.52,1.82,1.82,0,0,0-.28,1v61.1a1.77,1.77,0,0,0,1.77,1.77,1.79,1.79,0,0,0,1-.28L190.3,33.81a1.77,1.77,0,0,0,.52-2.45,1.61,1.61,0,0,0-.52-.52L143.21.29a1.77,1.77,0,0,0-2.45.52,1.79,1.79,0,0,0-.28,1v61.1a1.77,1.77,0,0,0,1.77,1.77,1.79,1.79,0,0,0,1-.28L190.3,33.8a1.77,1.77,0,0,0,.52-2.45A1.8,1.8,0,0,0,190.3,30.84Z"/></g><g id="Grupo_262" data-name="Grupo 262"><path id="Rectángulo_89" data-name="Rectángulo 89" class="cls-11" d="M1126.1,74.49h175.32a10.1,10.1,0,0,1,10.1,10.1h0V259.91a10.1,10.1,0,0,1-10.1,10.1H1126.1a10.1,10.1,0,0,1-10.1-10.1h0V84.59A10.1,10.1,0,0,1,1126.1,74.49Z"/><g id="Grupo_261" data-name="Grupo 261"><g id="_05" data-name=" 05" class="cls-12"><g class="cls-12"><path class="cls-13" d="M1169,143.71c0-17.84,9.36-28.48,22.32-28.48s22.4,10.64,22.4,28.48-9.44,28.48-22.4,28.48S1169,161.55,1169,143.71Zm38.8,0c0-15-6.72-23.2-16.48-23.2s-16.48,8.24-16.48,23.2,6.72,23.2,16.48,23.2S1207.84,158.67,1207.84,143.71Z"/><path class="cls-13" d="M1260,155.23c0,9.52-6.64,17-20.32,17-8.08,0-15.76-2.8-20.08-7.2l2.8-4.56c3.6,3.76,10,6.48,17.2,6.48,9.52,0,14.56-4.64,14.56-11.44,0-7.2-4.48-11.68-18.72-11.68h-11.92l2.88-28.08H1257v5.12h-25.6l-1.92,17.84h7.2C1253.6,138.67,1260,145.31,1260,155.23Z"/></g></g><g id="Gestión_de_capacidad_" data-name="Gestión de capacidad " class="cls-12"><g class="cls-12"><path class="cls-13" d="M1172.25,200.73h1.42v5.34a7.73,7.73,0,0,1-5.14,1.78,7.13,7.13,0,1,1,0-14.25,6.9,6.9,0,0,1,5.2,2l-.92.95a5.68,5.68,0,0,0-4.22-1.65,5.81,5.81,0,1,0,0,11.61,6.06,6.06,0,0,0,3.66-1.08Z"/><path class="cls-13" d="M1186.71,202.91h-8.8a3.89,3.89,0,0,0,4.14,3.66,4.15,4.15,0,0,0,3.22-1.38l.8.92a5.56,5.56,0,0,1-9.58-3.64,5.08,5.08,0,0,1,5.14-5.35,5,5,0,0,1,5.1,5.35C1186.73,202.59,1186.71,202.75,1186.71,202.91Zm-8.8-1.06h7.46a3.74,3.74,0,0,0-7.46,0Z"/><path class="cls-13" d="M1188.17,206.53l.64-1.12a6.35,6.35,0,0,0,3.74,1.18c2,0,2.82-.68,2.82-1.72,0-2.74-6.82-.58-6.82-4.74,0-1.73,1.48-3,4.16-3a7,7,0,0,1,3.72,1l-.62,1.14a5.39,5.39,0,0,0-3.1-.9c-1.9,0-2.74.74-2.74,1.74,0,2.84,6.82.7,6.82,4.74,0,1.82-1.6,3-4.34,3A7,7,0,0,1,1188.17,206.53Z"/><path class="cls-13" d="M1205,207.09a3.38,3.38,0,0,1-2.22.74,2.79,2.79,0,0,1-3.08-3.06V198.4h-1.88v-1.2h1.88v-2.3h1.42v2.3h3.2v1.2h-3.2v6.29a1.68,1.68,0,0,0,1.82,1.92,2.35,2.35,0,0,0,1.56-.54Z"/><path class="cls-13" d="M1207.21,193.88a1,1,0,0,1,1-1,1,1,0,0,1,1,1,1,1,0,0,1-2.08,0Zm.32,3.32H1209v10.53h-1.42Z"/><path class="cls-13" d="M1211.85,202.47a5.35,5.35,0,1,1,5.36,5.36A5.18,5.18,0,0,1,1211.85,202.47Zm9.26,0a3.91,3.91,0,1,0-3.9,4.1A3.84,3.84,0,0,0,1221.11,202.47Zm-2.48-9.37h1.9l-3.24,2.48h-1.4Z"/><path class="cls-13" d="M1235.13,201.63v6.1h-1.42v-6c0-2.22-1.16-3.37-3.16-3.37a3.46,3.46,0,0,0-3.68,3.81v5.52h-1.42V197.2h1.36v2a4.41,4.41,0,0,1,4-2C1233.37,197.12,1235.13,198.61,1235.13,201.63Z"/><path class="cls-13" d="M1253.83,192.88v14.85h-1.36v-2.08a4.56,4.56,0,0,1-4.06,2.18,5.36,5.36,0,0,1,0-10.71,4.6,4.6,0,0,1,4,2.09v-6.33Zm-1.4,9.59a3.91,3.91,0,1,0-3.9,4.1A3.86,3.86,0,0,0,1252.43,202.47Z"/><path class="cls-13" d="M1267,202.91h-8.8a3.89,3.89,0,0,0,4.14,3.66,4.15,4.15,0,0,0,3.22-1.38l.8.92a5.56,5.56,0,0,1-9.58-3.64,5.08,5.08,0,0,1,5.14-5.35,5,5,0,0,1,5.1,5.35C1267,202.59,1267,202.75,1267,202.91Zm-8.8-1.06h7.46a3.74,3.74,0,0,0-7.46,0Z"/></g><g class="cls-12"><path class="cls-13" d="M1162.92,221.47a5.19,5.19,0,0,1,5.42-5.35,4.58,4.58,0,0,1,4.12,2.09l-1.06.72a3.56,3.56,0,0,0-3.06-1.57,4.11,4.11,0,0,0,0,8.21,3.56,3.56,0,0,0,3.06-1.54l1.06.72a4.64,4.64,0,0,1-4.12,2.08A5.19,5.19,0,0,1,1162.92,221.47Z"/><path class="cls-13" d="M1183.18,220.21v6.52h-1.36v-1.64a4,4,0,0,1-3.62,1.74c-2.38,0-3.84-1.24-3.84-3.06,0-1.62,1-3,4.06-3h3.34v-.64c0-1.8-1-2.79-3-2.79a5.37,5.37,0,0,0-3.5,1.25l-.64-1.06a6.69,6.69,0,0,1,4.28-1.43C1181.64,216.12,1183.18,217.48,1183.18,220.21Zm-1.42,3.36v-1.72h-3.3c-2,0-2.7.8-2.7,1.88s1,2,2.66,2A3.37,3.37,0,0,0,1181.76,223.57Z"/><path class="cls-13" d="M1197.7,221.47a5.09,5.09,0,0,1-5.24,5.36,4.59,4.59,0,0,1-4-2.08v5.86H1187V216.2h1.36v2.09a4.59,4.59,0,0,1,4.06-2.17A5.1,5.1,0,0,1,1197.7,221.47Zm-1.42,0a3.92,3.92,0,1,0-3.92,4.1A3.88,3.88,0,0,0,1196.28,221.47Z"/><path class="cls-13" d="M1208.48,220.21v6.52h-1.36v-1.64a4,4,0,0,1-3.62,1.74c-2.38,0-3.84-1.24-3.84-3.06,0-1.62,1-3,4.06-3h3.34v-.64c0-1.8-1-2.79-3-2.79a5.37,5.37,0,0,0-3.5,1.25l-.64-1.06a6.69,6.69,0,0,1,4.28-1.43C1206.94,216.12,1208.48,217.48,1208.48,220.21Zm-1.42,3.36v-1.72h-3.3c-2,0-2.7.8-2.7,1.88s1,2,2.66,2A3.37,3.37,0,0,0,1207.06,223.57Z"/><path class="cls-13" d="M1211.32,221.47a5.19,5.19,0,0,1,5.42-5.35,4.58,4.58,0,0,1,4.12,2.09l-1.06.72a3.56,3.56,0,0,0-3.06-1.57,4.11,4.11,0,0,0,0,8.21,3.56,3.56,0,0,0,3.06-1.54l1.06.72a4.64,4.64,0,0,1-4.12,2.08A5.19,5.19,0,0,1,1211.32,221.47Z"/><path class="cls-13" d="M1223.32,212.88a1,1,0,0,1,1-1,1,1,0,0,1,1,1,1,1,0,0,1-2.08,0Zm.32,3.32h1.42v10.53h-1.42Z"/><path class="cls-13" d="M1238.62,211.88v14.85h-1.36v-2.08a4.56,4.56,0,0,1-4.06,2.18,5.36,5.36,0,0,1,0-10.71,4.6,4.6,0,0,1,4,2.09v-6.33Zm-1.4,9.59a3.91,3.91,0,1,0-3.9,4.1A3.86,3.86,0,0,0,1237.22,221.47Z"/><path class="cls-13" d="M1250.52,220.21v6.52h-1.36v-1.64a4,4,0,0,1-3.62,1.74c-2.38,0-3.84-1.24-3.84-3.06,0-1.62,1-3,4.06-3h3.34v-.64c0-1.8-1-2.79-3-2.79a5.37,5.37,0,0,0-3.5,1.25l-.64-1.06a6.69,6.69,0,0,1,4.28-1.43C1249,216.12,1250.52,217.48,1250.52,220.21Zm-1.42,3.36v-1.72h-3.3c-2,0-2.7.8-2.7,1.88s1,2,2.66,2A3.37,3.37,0,0,0,1249.1,223.57Z"/><path class="cls-13" d="M1264,211.88v14.85h-1.36v-2.08a4.56,4.56,0,0,1-4.06,2.18,5.36,5.36,0,0,1,0-10.71,4.6,4.6,0,0,1,4,2.09v-6.33Zm-1.4,9.59a3.91,3.91,0,1,0-3.9,4.1A3.86,3.86,0,0,0,1262.62,221.47Z"/></g></g></g></g><g id="Grupo_264" data-name="Grupo 264"><path id="Trazado_275" data-name="Trazado 275" class="cls-14" d="M838,97.8a23.31,23.31,0,0,1,23.31-23.31h148.9a23.31,23.31,0,0,1,23.32,23.31V246.7A23.32,23.32,0,0,1,1010.21,270H861.31A23.31,23.31,0,0,1,838,246.7h0"/><g id="Grupo_263" data-name="Grupo 263"><g id="_04" data-name=" 04" class="cls-12"><g class="cls-12"><path class="cls-13" d="M887.24,143.71c0-17.84,9.36-28.48,22.32-28.48S932,125.87,932,143.71s-9.44,28.48-22.4,28.48S887.24,161.55,887.24,143.71Zm38.8,0c0-15-6.72-23.2-16.48-23.2s-16.48,8.24-16.48,23.2,6.72,23.2,16.48,23.2S926,158.67,926,143.71Z"/><path class="cls-13" d="M987.8,157H976.6v14.72h-5.76V157h-31.6v-4.16l29.68-37.12h6.4l-28.64,36.16H971v-13h5.6v13h11.2Z"/></g></g><g id="Gestión_de_disponibilidad_" data-name="Gestión de disponibilidad " class="cls-12"><g class="cls-12"><path class="cls-13" d="M894.25,199.69h1.42V205a7.73,7.73,0,0,1-5.14,1.78,7.12,7.12,0,1,1,0-14.24,6.9,6.9,0,0,1,5.2,2l-.92.94a5.91,5.91,0,1,0-4.24,10,6.06,6.06,0,0,0,3.66-1.08Z"/><path class="cls-13" d="M908.71,201.87h-8.8a3.89,3.89,0,0,0,4.14,3.66,4.15,4.15,0,0,0,3.22-1.38l.8.92a5.56,5.56,0,0,1-9.58-3.64,5.07,5.07,0,0,1,5.14-5.34,5,5,0,0,1,5.1,5.34C908.73,201.55,908.71,201.71,908.71,201.87Zm-8.8-1.06h7.46a3.74,3.74,0,0,0-7.46,0Z"/><path class="cls-13" d="M910.17,205.49l.64-1.12a6.35,6.35,0,0,0,3.74,1.18c2,0,2.82-.68,2.82-1.72,0-2.74-6.82-.58-6.82-4.74,0-1.72,1.48-3,4.16-3a7.13,7.13,0,0,1,3.72,1l-.62,1.14a5.39,5.39,0,0,0-3.1-.9c-1.9,0-2.74.74-2.74,1.74,0,2.84,6.82.7,6.82,4.74,0,1.82-1.6,3-4.34,3A7,7,0,0,1,910.17,205.49Z"/><path class="cls-13" d="M927,206.05a3.38,3.38,0,0,1-2.22.74,2.79,2.79,0,0,1-3.08-3.06v-6.36h-1.88v-1.2h1.88v-2.3h1.42v2.3h3.2v1.2h-3.2v6.28a1.68,1.68,0,0,0,1.82,1.92,2.35,2.35,0,0,0,1.56-.54Z"/><path class="cls-13" d="M929.21,192.85a1,1,0,0,1,1-1,1,1,0,0,1,1,1,1,1,0,0,1-2.08,0Zm.32,3.32H931v10.52h-1.42Z"/><path class="cls-13" d="M933.85,201.43a5.35,5.35,0,1,1,5.36,5.36A5.17,5.17,0,0,1,933.85,201.43Zm9.26,0a3.91,3.91,0,1,0-3.9,4.1A3.84,3.84,0,0,0,943.11,201.43Zm-2.48-9.36h1.9l-3.24,2.48h-1.4Z"/><path class="cls-13" d="M957.13,200.59v6.1h-1.42v-6c0-2.22-1.16-3.36-3.16-3.36a3.45,3.45,0,0,0-3.68,3.8v5.52h-1.42V196.17h1.36v1.94a4.42,4.42,0,0,1,4-2C955.37,196.09,957.13,197.57,957.13,200.59Z"/><path class="cls-13" d="M975.83,191.85v14.84h-1.36v-2.08a4.56,4.56,0,0,1-4.06,2.18,5.35,5.35,0,0,1,0-10.7,4.59,4.59,0,0,1,4,2.08v-6.32Zm-1.4,9.58a3.91,3.91,0,1,0-3.9,4.1A3.85,3.85,0,0,0,974.43,201.43Z"/><path class="cls-13" d="M989,201.87h-8.8a3.89,3.89,0,0,0,4.14,3.66,4.15,4.15,0,0,0,3.22-1.38l.8.92a5.56,5.56,0,0,1-9.58-3.64,5.07,5.07,0,0,1,5.14-5.34,5,5,0,0,1,5.1,5.34C989,201.55,989,201.71,989,201.87Zm-8.8-1.06h7.46a3.74,3.74,0,0,0-7.46,0Z"/></g><g class="cls-12"><path class="cls-13" d="M876.38,210.85v14.84H875v-2.08a4.56,4.56,0,0,1-4.06,2.18,5.35,5.35,0,0,1,0-10.7,4.59,4.59,0,0,1,4,2.08v-6.32Zm-1.4,9.58a3.91,3.91,0,1,0-3.9,4.1A3.85,3.85,0,0,0,875,220.43Z"/><path class="cls-13" d="M880,211.85a1,1,0,0,1,1-1,1,1,0,0,1,1,1,1,1,0,0,1-2.08,0Zm.32,3.32h1.42v10.52h-1.42Z"/><path class="cls-13" d="M884.26,224.49l.64-1.12a6.35,6.35,0,0,0,3.74,1.18c2,0,2.82-.68,2.82-1.72,0-2.74-6.82-.58-6.82-4.74,0-1.72,1.48-3,4.16-3a7.13,7.13,0,0,1,3.72,1l-.62,1.14a5.39,5.39,0,0,0-3.1-.9c-1.9,0-2.74.74-2.74,1.74,0,2.84,6.82.7,6.82,4.74,0,1.82-1.6,3-4.34,3A7,7,0,0,1,884.26,224.49Z"/><path class="cls-13" d="M906.16,220.43a5.09,5.09,0,0,1-5.24,5.36,4.59,4.59,0,0,1-4-2.08v5.86H895.5v-14.4h1.36v2.08a4.58,4.58,0,0,1,4.06-2.16A5.09,5.09,0,0,1,906.16,220.43Zm-1.42,0a3.92,3.92,0,1,0-3.92,4.1A3.87,3.87,0,0,0,904.74,220.43Z"/><path class="cls-13" d="M908,220.43a5.35,5.35,0,1,1,5.36,5.36A5.17,5.17,0,0,1,908,220.43Zm9.26,0a3.91,3.91,0,1,0-3.9,4.1A3.84,3.84,0,0,0,917.26,220.43Z"/><path class="cls-13" d="M931.28,219.59v6.1h-1.42v-6c0-2.22-1.16-3.36-3.16-3.36a3.45,3.45,0,0,0-3.68,3.8v5.52H921.6V215.17H923v1.94a4.42,4.42,0,0,1,4-2C929.52,215.09,931.28,216.57,931.28,219.59Z"/><path class="cls-13" d="M934.82,211.85a1,1,0,0,1,1-1,1,1,0,0,1,1,1,1,1,0,0,1-2.08,0Zm.32,3.32h1.42v10.52h-1.42Z"/><path class="cls-13" d="M951.18,220.43a5.11,5.11,0,0,1-5.24,5.36,4.56,4.56,0,0,1-4.06-2.18v2.08h-1.36V210.85h1.42v6.32a4.59,4.59,0,0,1,4-2.08A5.09,5.09,0,0,1,951.18,220.43Zm-1.42,0a3.92,3.92,0,1,0-3.92,4.1A3.86,3.86,0,0,0,949.76,220.43Z"/><path class="cls-13" d="M953.76,211.85a1,1,0,0,1,1-1,1,1,0,0,1,1,1,1,1,0,0,1-2.08,0Zm.32,3.32h1.42v10.52h-1.42Z"/><path class="cls-13" d="M959.46,210.85h1.42v14.84h-1.42Z"/><path class="cls-13" d="M964.52,211.85a1,1,0,0,1,1-1,1,1,0,0,1,1,1,1,1,0,0,1-2.08,0Zm.32,3.32h1.42v10.52h-1.42Z"/><path class="cls-13" d="M979.82,210.85v14.84h-1.36v-2.08a4.56,4.56,0,0,1-4.06,2.18,5.35,5.35,0,0,1,0-10.7,4.59,4.59,0,0,1,4,2.08v-6.32Zm-1.4,9.58a3.91,3.91,0,1,0-3.9,4.1A3.85,3.85,0,0,0,978.42,220.43Z"/><path class="cls-13" d="M991.72,219.17v6.52h-1.36v-1.64a4,4,0,0,1-3.62,1.74c-2.38,0-3.84-1.24-3.84-3.06,0-1.62,1-3,4.06-3h3.34v-.64c0-1.8-1-2.78-3-2.78a5.36,5.36,0,0,0-3.5,1.24l-.64-1.06a6.68,6.68,0,0,1,4.28-1.42C990.18,215.09,991.72,216.45,991.72,219.17Zm-1.42,3.36v-1.72H987c-2,0-2.7.8-2.7,1.88s1,2,2.66,2A3.37,3.37,0,0,0,990.3,222.53Z"/><path class="cls-13" d="M1005.22,210.85v14.84h-1.36v-2.08a4.56,4.56,0,0,1-4.06,2.18,5.35,5.35,0,0,1,0-10.7,4.59,4.59,0,0,1,4,2.08v-6.32Zm-1.4,9.58a3.91,3.91,0,1,0-3.9,4.1A3.85,3.85,0,0,0,1003.82,220.43Z"/></g></g></g></g><g id="Grupo_266" data-name="Grupo 266"><path id="Rectángulo_90" data-name="Rectángulo 90" class="cls-15" d="M568.1,74.49H743.42a10.1,10.1,0,0,1,10.1,10.1h0V259.91a10.1,10.1,0,0,1-10.1,10.1H568.1a10.1,10.1,0,0,1-10.1-10.1h0V84.59A10.1,10.1,0,0,1,568.1,74.49Z"/><g id="Grupo_265" data-name="Grupo 265"><g id="_03" data-name=" 03" class="cls-12"><g class="cls-12"><path class="cls-13" d="M613.74,151.89c0-16.94,8.9-27,21.21-27s21.28,10.11,21.28,27S647.26,179,635,179,613.74,168.84,613.74,151.89Zm36.87,0c0-14.21-6.39-22-15.66-22s-15.66,7.83-15.66,22,6.39,22.05,15.66,22.05S650.61,166.11,650.61,151.89Z"/><path class="cls-13" d="M698.48,163.22c0,8.89-6.46,15.73-19.3,15.73-7.68,0-15-2.66-19.15-6.84l2.66-4.33c3.42,3.57,9.57,6.16,16.49,6.16,8.82,0,13.68-4.11,13.68-10.72,0-6.38-4.48-10.57-14.36-10.57h-3.8v-4l14.74-18.47H662.23v-4.87h34.2v3.88l-15,18.92C692.78,148.7,698.48,154.71,698.48,163.22Z"/></g></g><g id="Gestión_de_Cambios_" data-name="Gestión de Cambios " class="cls-12"><g class="cls-12"><path class="cls-13" d="M614.25,209.94h1.42v5.35a7.73,7.73,0,0,1-5.14,1.78,7.13,7.13,0,1,1,0-14.25,6.9,6.9,0,0,1,5.2,2l-.92.94a5.91,5.91,0,1,0-4.24,10,6.06,6.06,0,0,0,3.66-1.08Z"/><path class="cls-13" d="M628.71,212.13h-8.8a3.89,3.89,0,0,0,4.14,3.66,4.15,4.15,0,0,0,3.22-1.38l.8.92a5.56,5.56,0,0,1-9.58-3.64,5.08,5.08,0,0,1,5.14-5.35,5,5,0,0,1,5.1,5.35C628.73,211.81,628.71,212,628.71,212.13Zm-8.8-1.06h7.46a3.74,3.74,0,0,0-7.46,0Z"/><path class="cls-13" d="M630.17,215.75l.64-1.12a6.35,6.35,0,0,0,3.74,1.18c2,0,2.82-.68,2.82-1.72,0-2.74-6.82-.58-6.82-4.74,0-1.73,1.48-3,4.16-3a7.13,7.13,0,0,1,3.72,1l-.62,1.15a5.32,5.32,0,0,0-3.1-.9c-1.9,0-2.74.74-2.74,1.74,0,2.84,6.82.7,6.82,4.74,0,1.82-1.6,3-4.34,3A7,7,0,0,1,630.17,215.75Z"/><path class="cls-13" d="M647,216.31a3.38,3.38,0,0,1-2.22.74,2.79,2.79,0,0,1-3.08-3.06v-6.37h-1.88v-1.2h1.88v-2.29h1.42v2.29h3.2v1.2h-3.2v6.29a1.68,1.68,0,0,0,1.82,1.92,2.35,2.35,0,0,0,1.56-.54Z"/><path class="cls-13" d="M649.21,203.1a1,1,0,0,1,1-1,1,1,0,0,1,1,1,1,1,0,0,1-2.08,0Zm.32,3.32H651V217h-1.42Z"/><path class="cls-13" d="M653.85,211.69a5.35,5.35,0,1,1,5.36,5.36A5.18,5.18,0,0,1,653.85,211.69Zm9.26,0a3.91,3.91,0,1,0-3.9,4.1A3.84,3.84,0,0,0,663.11,211.69Zm-2.48-9.37h1.9l-3.24,2.48h-1.4Z"/><path class="cls-13" d="M677.13,210.85V217h-1.42v-6c0-2.22-1.16-3.37-3.16-3.37a3.45,3.45,0,0,0-3.68,3.81V217h-1.42V206.42h1.36v1.94a4.42,4.42,0,0,1,4-2C675.37,206.34,677.13,207.82,677.13,210.85Z"/><path class="cls-13" d="M695.83,202.1V217h-1.36v-2.08a4.56,4.56,0,0,1-4.06,2.18,5.36,5.36,0,0,1,0-10.71,4.6,4.6,0,0,1,4,2.09V202.1Zm-1.4,9.59a3.91,3.91,0,1,0-3.9,4.1A3.86,3.86,0,0,0,694.43,211.69Z"/><path class="cls-13" d="M709,212.13h-8.8a3.89,3.89,0,0,0,4.14,3.66,4.15,4.15,0,0,0,3.22-1.38l.8.92a5.56,5.56,0,0,1-9.58-3.64,5.08,5.08,0,0,1,5.14-5.35,5,5,0,0,1,5.1,5.35C709,211.81,709,212,709,212.13Zm-8.8-1.06h7.46a3.74,3.74,0,0,0-7.46,0Z"/></g><g class="cls-12"><path class="cls-13" d="M612.79,228.94a7,7,0,0,1,7.34-7.12,6.78,6.78,0,0,1,5.12,2l-.94.94a5.55,5.55,0,0,0-4.14-1.66,5.81,5.81,0,1,0,0,11.61,5.49,5.49,0,0,0,4.14-1.68l.94.94a6.81,6.81,0,0,1-5.14,2.06A7,7,0,0,1,612.79,228.94Z"/><path class="cls-13" d="M635.89,229.43V236h-1.36v-1.64a4,4,0,0,1-3.62,1.74c-2.38,0-3.84-1.24-3.84-3.06,0-1.62,1-3,4.06-3h3.34v-.64c0-1.8-1-2.79-3-2.79a5.41,5.41,0,0,0-3.5,1.24l-.64-1a6.63,6.63,0,0,1,4.28-1.43C634.35,225.34,635.89,226.7,635.89,229.43Zm-1.42,3.36v-1.72h-3.3c-2,0-2.7.8-2.7,1.88s1,2,2.66,2A3.37,3.37,0,0,0,634.47,232.79Z"/><path class="cls-13" d="M657.11,229.85V236h-1.42v-6c0-2.22-1.12-3.37-3-3.37-2.16,0-3.52,1.4-3.52,3.81V236h-1.42v-6c0-2.22-1.12-3.37-3-3.37-2.14,0-3.52,1.4-3.52,3.81V236h-1.42V225.42h1.36v1.93a4.24,4.24,0,0,1,3.86-2,3.77,3.77,0,0,1,3.74,2.23,4.57,4.57,0,0,1,4.16-2.23C655.43,225.34,657.11,226.82,657.11,229.85Z"/><path class="cls-13" d="M671.63,230.69a5.11,5.11,0,0,1-5.24,5.36,4.56,4.56,0,0,1-4.06-2.18V236H661V221.1h1.42v6.33a4.6,4.6,0,0,1,4-2.09A5.1,5.1,0,0,1,671.63,230.69Zm-1.42,0a3.92,3.92,0,1,0-3.92,4.1A3.87,3.87,0,0,0,670.21,230.69Z"/><path class="cls-13" d="M674.21,222.1a1,1,0,0,1,1-1,1,1,0,0,1,1,1,1,1,0,0,1-2.08,0Zm.32,3.32H676V236h-1.42Z"/><path class="cls-13" d="M678.85,230.69a5.35,5.35,0,1,1,5.36,5.36A5.18,5.18,0,0,1,678.85,230.69Zm9.26,0a3.91,3.91,0,1,0-3.9,4.1A3.84,3.84,0,0,0,688.11,230.69Z"/><path class="cls-13" d="M691,234.75l.64-1.12a6.35,6.35,0,0,0,3.74,1.18c2,0,2.82-.68,2.82-1.72,0-2.74-6.82-.58-6.82-4.74,0-1.73,1.48-3,4.16-3a7.13,7.13,0,0,1,3.72,1l-.62,1.15a5.32,5.32,0,0,0-3.1-.9c-1.9,0-2.74.74-2.74,1.74,0,2.84,6.82.7,6.82,4.74,0,1.82-1.6,3-4.34,3A7,7,0,0,1,691,234.75Z"/></g></g></g></g><path id="Rectángulo_91" data-name="Rectángulo 91" class="cls-16" d="M289.1,74.49H464.42a10.1,10.1,0,0,1,10.1,10.1h0V259.91a10.1,10.1,0,0,1-10.1,10.1H289.1a10.1,10.1,0,0,1-10.1-10.1h0V84.59A10.1,10.1,0,0,1,289.1,74.49Z"/><g id="_02" data-name=" 02" class="cls-12"><g class="cls-12"><path class="cls-13" d="M332,153.5c0-17.84,9.36-28.49,22.32-28.49s22.4,10.65,22.4,28.49S367.32,182,354.36,182,332,171.34,332,153.5Zm38.8,0c0-15-6.72-23.2-16.48-23.2s-16.48,8.24-16.48,23.2,6.72,23.2,16.48,23.2S370.84,168.46,370.84,153.5Z"/><path class="cls-13" d="M423.08,176.38v5.12H383.8v-4.08l23.28-22.8c6.32-6.24,7.52-10,7.52-13.84,0-6.48-4.56-10.48-13.12-10.48-6.56,0-11.6,2-15.28,6.24L382.12,133c4.32-5.12,11.28-8,19.84-8,11.36,0,18.56,5.77,18.56,15.12,0,5.37-1.68,10.17-9.2,17.53l-19,18.72Z"/></g></g><g id="Gestión_de_problemas_" data-name="Gestión de problemas " class="cls-12"><g class="cls-12"><path class="cls-13" d="M335.25,214h1.42v5.34a7.73,7.73,0,0,1-5.14,1.78,7.13,7.13,0,1,1,0-14.25,6.87,6.87,0,0,1,5.2,2l-.92.94a5.91,5.91,0,1,0-4.24,10,6.06,6.06,0,0,0,3.66-1.08Z"/><path class="cls-13" d="M349.71,216.13h-8.8a3.89,3.89,0,0,0,4.14,3.66,4.15,4.15,0,0,0,3.22-1.38l.8.92a5.56,5.56,0,0,1-9.58-3.64,5.07,5.07,0,0,1,5.14-5.34,5,5,0,0,1,5.1,5.34C349.73,215.81,349.71,216,349.71,216.13Zm-8.8-1.06h7.46a3.74,3.74,0,0,0-7.46,0Z"/><path class="cls-13" d="M351.17,219.75l.64-1.12a6.35,6.35,0,0,0,3.74,1.18c2,0,2.82-.68,2.82-1.72,0-2.74-6.82-.58-6.82-4.74,0-1.72,1.48-3,4.16-3a7.13,7.13,0,0,1,3.72,1l-.62,1.14a5.39,5.39,0,0,0-3.1-.9c-1.9,0-2.74.74-2.74,1.74,0,2.84,6.82.7,6.82,4.74,0,1.82-1.6,3-4.34,3A7,7,0,0,1,351.17,219.75Z"/><path class="cls-13" d="M368,220.31a3.38,3.38,0,0,1-2.22.74,2.79,2.79,0,0,1-3.08-3.06v-6.36h-1.88v-1.2h1.88v-2.3h1.42v2.3h3.2v1.2h-3.2v6.28a1.68,1.68,0,0,0,1.82,1.92,2.35,2.35,0,0,0,1.56-.54Z"/><path class="cls-13" d="M370.21,207.11a1,1,0,0,1,1-1,1,1,0,0,1,1,1,1,1,0,0,1-2.08,0Zm.32,3.32H372V221h-1.42Z"/><path class="cls-13" d="M374.85,215.69a5.35,5.35,0,1,1,5.36,5.36A5.17,5.17,0,0,1,374.85,215.69Zm9.26,0a3.91,3.91,0,1,0-3.9,4.1A3.84,3.84,0,0,0,384.11,215.69Zm-2.48-9.37h1.9l-3.24,2.49h-1.4Z"/><path class="cls-13" d="M398.13,214.85V221h-1.42v-6c0-2.22-1.16-3.36-3.16-3.36a3.45,3.45,0,0,0-3.68,3.8V221h-1.42V210.43h1.36v1.94a4.42,4.42,0,0,1,4-2C396.37,210.35,398.13,211.83,398.13,214.85Z"/><path class="cls-13" d="M416.83,206.11V221h-1.36v-2.08a4.56,4.56,0,0,1-4.06,2.18,5.35,5.35,0,0,1,0-10.7,4.59,4.59,0,0,1,4,2.08v-6.32Zm-1.4,9.58a3.91,3.91,0,1,0-3.9,4.1A3.85,3.85,0,0,0,415.43,215.69Z"/><path class="cls-13" d="M430,216.13h-8.8a3.89,3.89,0,0,0,4.14,3.66,4.15,4.15,0,0,0,3.22-1.38l.8.92a5.56,5.56,0,0,1-9.58-3.64,5.07,5.07,0,0,1,5.14-5.34,5,5,0,0,1,5.1,5.34C430,215.81,430,216,430,216.13Zm-8.8-1.06h7.46a3.74,3.74,0,0,0-7.46,0Z"/></g><g class="cls-12"><path class="cls-13" d="M335.8,234.69a5.09,5.09,0,0,1-5.24,5.36,4.59,4.59,0,0,1-4-2.08v5.86h-1.42v-14.4h1.36v2.08a4.58,4.58,0,0,1,4.06-2.16A5.09,5.09,0,0,1,335.8,234.69Zm-1.42,0a3.92,3.92,0,1,0-3.92,4.1A3.87,3.87,0,0,0,334.38,234.69Z"/><path class="cls-13" d="M344,229.35v1.38l-.34,0c-2.2,0-3.54,1.4-3.54,3.88V240H338.7V229.43h1.36v2.06A4,4,0,0,1,344,229.35Z"/><path class="cls-13" d="M345.4,234.69a5.35,5.35,0,1,1,5.36,5.36A5.17,5.17,0,0,1,345.4,234.69Zm9.26,0a3.91,3.91,0,1,0-3.9,4.1A3.84,3.84,0,0,0,354.66,234.69Z"/><path class="cls-13" d="M369.66,234.69a5.11,5.11,0,0,1-5.24,5.36,4.56,4.56,0,0,1-4.06-2.18V240H359V225.11h1.42v6.32a4.59,4.59,0,0,1,4-2.08A5.09,5.09,0,0,1,369.66,234.69Zm-1.42,0a3.92,3.92,0,1,0-3.92,4.1A3.86,3.86,0,0,0,368.24,234.69Z"/><path class="cls-13" d="M372.56,225.11H374V240h-1.42Z"/><path class="cls-13" d="M387.1,235.13h-8.8a3.89,3.89,0,0,0,4.14,3.66,4.15,4.15,0,0,0,3.22-1.38l.8.92a5.56,5.56,0,0,1-9.58-3.64,5.07,5.07,0,0,1,5.14-5.34,5,5,0,0,1,5.1,5.34C387.12,234.81,387.1,235,387.1,235.13Zm-8.8-1.06h7.46a3.74,3.74,0,0,0-7.46,0Z"/><path class="cls-13" d="M407.38,233.85V240H406v-6c0-2.22-1.12-3.36-3-3.36-2.16,0-3.52,1.4-3.52,3.8V240H398v-6c0-2.22-1.12-3.36-3-3.36-2.14,0-3.52,1.4-3.52,3.8V240H390V229.43h1.36v1.92a4.25,4.25,0,0,1,3.86-2,3.78,3.78,0,0,1,3.74,2.22,4.58,4.58,0,0,1,4.16-2.22C405.7,229.35,407.38,230.83,407.38,233.85Z"/><path class="cls-13" d="M419.18,233.43V240h-1.36v-1.64a4,4,0,0,1-3.62,1.74c-2.38,0-3.84-1.24-3.84-3.06,0-1.62,1-3,4.06-3h3.34v-.64c0-1.8-1-2.78-3-2.78a5.36,5.36,0,0,0-3.5,1.24l-.64-1.06a6.68,6.68,0,0,1,4.28-1.42C417.64,229.35,419.18,230.71,419.18,233.43Zm-1.42,3.36v-1.72h-3.3c-2,0-2.7.8-2.7,1.88s1,2,2.66,2A3.37,3.37,0,0,0,417.76,236.79Z"/><path class="cls-13" d="M421.58,238.75l.64-1.12a6.35,6.35,0,0,0,3.74,1.18c2,0,2.82-.68,2.82-1.72,0-2.74-6.82-.58-6.82-4.74,0-1.72,1.48-3,4.16-3a7.13,7.13,0,0,1,3.72,1l-.62,1.14a5.39,5.39,0,0,0-3.1-.9c-1.9,0-2.74.74-2.74,1.74,0,2.84,6.82.7,6.82,4.74,0,1.82-1.6,3-4.34,3A7,7,0,0,1,421.58,238.75Z"/></g></g><g id="Grupo_270" data-name="Grupo 270"><path id="Rectángulo_92" data-name="Rectángulo 92" class="cls-17" d="M10.1,74.49H185.42a10.1,10.1,0,0,1,10.1,10.1h0V259.91a10.1,10.1,0,0,1-10.1,10.1H10.1A10.1,10.1,0,0,1,0,259.91H0V84.59A10.1,10.1,0,0,1,10.1,74.49Z"/><g id="_01" data-name=" 01" class="cls-12"><g class="cls-12"><path class="cls-13" d="M60.86,154.15c0-18.06,9.48-28.84,22.6-28.84s22.68,10.78,22.68,28.84S96.58,183,83.46,183,60.86,172.21,60.86,154.15Zm39.28,0c0-15.15-6.8-23.49-16.68-23.49S66.77,139,66.77,154.15s6.81,23.49,16.69,23.49S100.14,169.29,100.14,154.15Z"/><path class="cls-13" d="M130,125.8v56.7H124.2V131H110.84V125.8Z"/></g></g><g id="Gestión_de_incidentes_" data-name="Gestión de incidentes " class="cls-12"><g class="cls-12"><path class="cls-13" d="M56.25,214.94h1.42v5.35a7.73,7.73,0,0,1-5.14,1.78,7.13,7.13,0,1,1,0-14.25,6.9,6.9,0,0,1,5.2,2l-.92.94a5.91,5.91,0,1,0-4.24,10,6.06,6.06,0,0,0,3.66-1.08Z"/><path class="cls-13" d="M70.71,217.13h-8.8a3.89,3.89,0,0,0,4.14,3.66,4.15,4.15,0,0,0,3.22-1.38l.8.92a5.56,5.56,0,0,1-9.58-3.64,5.08,5.08,0,0,1,5.14-5.35,5,5,0,0,1,5.1,5.35C70.73,216.81,70.71,217,70.71,217.13Zm-8.8-1.06h7.46a3.74,3.74,0,0,0-7.46,0Z"/><path class="cls-13" d="M72.17,220.75l.64-1.12a6.35,6.35,0,0,0,3.74,1.18c2,0,2.82-.68,2.82-1.72,0-2.74-6.82-.58-6.82-4.74,0-1.73,1.48-3,4.16-3a7.13,7.13,0,0,1,3.72,1l-.62,1.15a5.32,5.32,0,0,0-3.1-.9c-1.9,0-2.74.74-2.74,1.74,0,2.84,6.82.7,6.82,4.74,0,1.82-1.6,3-4.34,3A7,7,0,0,1,72.17,220.75Z"/><path class="cls-13" d="M89,221.31a3.38,3.38,0,0,1-2.22.74A2.79,2.79,0,0,1,83.65,219v-6.37H81.77v-1.2h1.88v-2.3h1.42v2.3h3.2v1.2h-3.2v6.29a1.68,1.68,0,0,0,1.82,1.92,2.35,2.35,0,0,0,1.56-.54Z"/><path class="cls-13" d="M91.21,208.1a1,1,0,0,1,1-1,1,1,0,0,1,1,1,1,1,0,0,1-2.08,0Zm.32,3.32H93V222H91.53Z"/><path class="cls-13" d="M95.85,216.69a5.35,5.35,0,1,1,5.36,5.36A5.18,5.18,0,0,1,95.85,216.69Zm9.26,0a3.91,3.91,0,1,0-3.9,4.1A3.84,3.84,0,0,0,105.11,216.69Zm-2.48-9.37h1.9l-3.24,2.48h-1.4Z"/><path class="cls-13" d="M119.13,215.85V222h-1.42v-6c0-2.22-1.16-3.37-3.16-3.37a3.45,3.45,0,0,0-3.68,3.81V222h-1.42V211.42h1.36v1.94a4.42,4.42,0,0,1,4-2C117.37,211.34,119.13,212.82,119.13,215.85Z"/><path class="cls-13" d="M137.83,207.1V222h-1.36v-2.08a4.56,4.56,0,0,1-4.06,2.18,5.36,5.36,0,0,1,0-10.71,4.6,4.6,0,0,1,4,2.09V207.1Zm-1.4,9.59a3.91,3.91,0,1,0-3.9,4.1A3.86,3.86,0,0,0,136.43,216.69Z"/><path class="cls-13" d="M151,217.13h-8.8a3.89,3.89,0,0,0,4.14,3.66,4.15,4.15,0,0,0,3.22-1.38l.8.92a5.56,5.56,0,0,1-9.58-3.64,5.08,5.08,0,0,1,5.14-5.35,5,5,0,0,1,5.1,5.35C151,216.81,151,217,151,217.13Zm-8.8-1.06h7.46a3.74,3.74,0,0,0-7.46,0Z"/></g><g class="cls-12"><path class="cls-13" d="M44.85,227.1a1,1,0,0,1,1-1,1,1,0,0,1,1,1,1,1,0,0,1-2.08,0Zm.32,3.32h1.42V241H45.17Z"/><path class="cls-13" d="M60.23,234.85V241H58.81v-6c0-2.22-1.16-3.37-3.16-3.37A3.45,3.45,0,0,0,52,235.43V241H50.55V230.42h1.36v1.94a4.42,4.42,0,0,1,4-2C58.47,230.34,60.23,231.82,60.23,234.85Z"/><path class="cls-13" d="M63.07,235.69a5.19,5.19,0,0,1,5.42-5.35,4.58,4.58,0,0,1,4.12,2.09l-1.06.72a3.56,3.56,0,0,0-3.06-1.57,4.11,4.11,0,0,0,0,8.21,3.56,3.56,0,0,0,3.06-1.54l1.06.72a4.64,4.64,0,0,1-4.12,2.08A5.19,5.19,0,0,1,63.07,235.69Z"/><path class="cls-13" d="M75.07,227.1a1,1,0,0,1,1-1,1,1,0,0,1,1,1,1,1,0,0,1-2.08,0Zm.32,3.32h1.42V241H75.39Z"/><path class="cls-13" d="M90.37,226.1V241H89v-2.08A4.56,4.56,0,0,1,85,241.05a5.36,5.36,0,0,1,0-10.71,4.6,4.6,0,0,1,4,2.09V226.1ZM89,235.69a3.91,3.91,0,1,0-3.9,4.1A3.86,3.86,0,0,0,89,235.69Z"/><path class="cls-13" d="M103.49,236.13h-8.8a3.89,3.89,0,0,0,4.14,3.66,4.15,4.15,0,0,0,3.22-1.38l.8.92a5.56,5.56,0,0,1-9.58-3.64,5.08,5.08,0,0,1,5.14-5.35,5,5,0,0,1,5.1,5.35C103.51,235.81,103.49,236,103.49,236.13Zm-8.8-1.06h7.46a3.74,3.74,0,0,0-7.46,0Z"/><path class="cls-13" d="M116.09,234.85V241h-1.42v-6c0-2.22-1.16-3.37-3.16-3.37a3.45,3.45,0,0,0-3.68,3.81V241h-1.42V230.42h1.36v1.94a4.42,4.42,0,0,1,4-2C114.33,230.34,116.09,231.82,116.09,234.85Z"/><path class="cls-13" d="M125.49,240.31a3.38,3.38,0,0,1-2.22.74,2.79,2.79,0,0,1-3.08-3.06v-6.37h-1.88v-1.2h1.88v-2.3h1.42v2.3h3.2v1.2h-3.2v6.29a1.68,1.68,0,0,0,1.82,1.92,2.35,2.35,0,0,0,1.56-.54Z"/><path class="cls-13" d="M136.85,236.13h-8.8a3.89,3.89,0,0,0,4.14,3.66,4.15,4.15,0,0,0,3.22-1.38l.8.92a5.56,5.56,0,0,1-9.58-3.64,5.08,5.08,0,0,1,5.14-5.35,5,5,0,0,1,5.1,5.35C136.87,235.81,136.85,236,136.85,236.13Zm-8.8-1.06h7.46a3.74,3.74,0,0,0-7.46,0Z"/><path class="cls-13" d="M138.31,239.75l.64-1.12a6.35,6.35,0,0,0,3.74,1.18c2,0,2.82-.68,2.82-1.72,0-2.74-6.82-.58-6.82-4.74,0-1.73,1.48-3,4.16-3a7.13,7.13,0,0,1,3.72,1l-.62,1.15a5.32,5.32,0,0,0-3.1-.9c-1.9,0-2.74.74-2.74,1.74,0,2.84,6.82.7,6.82,4.74,0,1.82-1.6,3-4.34,3A7,7,0,0,1,138.31,239.75Z"/></g></g></g></g></g></svg>