<svg xmlns="http://www.w3.org/2000/svg" width="51.501" height="50.849" viewBox="0 0 51.501 50.849">
  <g id="manager" transform="translate(1.25 -0.728)">
    <path id="Trazado_277" data-name="Trazado 277" d="M125.43,11.233A4.627,4.627,0,1,0,120.8,6.605,4.633,4.633,0,0,0,125.43,11.233Z" transform="translate(-100.872)" fill="none" stroke="#377c86" stroke-width="2.5"/>
    <path id="Trazado_278" data-name="Trazado 278" d="M95.924,81.46h14.589a1.72,1.72,0,0,0,1.72-1.72V73.379a4.073,4.073,0,0,0-2.8-3.871l-.008,0-2.448-.405a.41.41,0,0,0-.506.252l-2.777,7.62a.5.5,0,0,1-.942,0l-2.777-7.62a.41.41,0,0,0-.385-.27c-.04,0-2.568.423-2.568.423A4.1,4.1,0,0,0,94.2,73.4v6.34a1.72,1.72,0,0,0,1.72,1.72Z" transform="translate(-78.662 -56.033)" fill="none" stroke="#377c86" stroke-width="2.5"/>
    <path id="Trazado_279" data-name="Trazado 279" d="M205.7,212.9l-.027-.009-1.325-.406a1.183,1.183,0,0,0-1.14.253l-2.855,2.582L197.5,212.74a1.181,1.181,0,0,0-1.14-.253l-1.325.406L195,212.9a4.883,4.883,0,0,0-3.343,4.638v7.338a1.182,1.182,0,0,0,1.182,1.182h15.015a1.182,1.182,0,0,0,1.182-1.182V217.54A4.883,4.883,0,0,0,205.7,212.9Z" transform="translate(-160.039 -175.734)" fill="none" stroke="#377c86" stroke-width="2.5"/>
    <path id="Trazado_280" data-name="Trazado 280" d="M219.349,157.846a4.936,4.936,0,1,0-4.936-4.936A4.942,4.942,0,0,0,219.349,157.846Z" transform="translate(-179.038 -121.909)" fill="none" stroke="#377c86" stroke-width="2.5"/>
    <path id="Trazado_281" data-name="Trazado 281" d="M14.036,212.9l-.027-.009-1.325-.406a1.181,1.181,0,0,0-1.14.253L8.69,215.322,5.834,212.74a1.181,1.181,0,0,0-1.14-.253l-1.352.415A4.883,4.883,0,0,0,0,217.54v7.338a1.182,1.182,0,0,0,1.182,1.182H16.2a1.182,1.182,0,0,0,1.182-1.182V217.54A4.883,4.883,0,0,0,14.036,212.9Z" transform="translate(0 -175.734)" fill="none" stroke="#377c86" stroke-width="2.5"/>
    <path id="Trazado_282" data-name="Trazado 282" d="M22.751,152.909a4.936,4.936,0,1,0,4.936-4.936A4.942,4.942,0,0,0,22.751,152.909Z" transform="translate(-18.997 -121.908)" fill="none" stroke="#377c86" stroke-width="2.5"/>
    <path id="Trazado_283" data-name="Trazado 283" d="M238.408,59.732a1.266,1.266,0,0,0-1.316,2.048l1.732,1.971a1.267,1.267,0,0,0,1.9,0l1.732-1.971a1.267,1.267,0,0,0-1.5-1.98,13,13,0,0,0-3.122-7.4,1.267,1.267,0,1,0-1.9,1.672A10.422,10.422,0,0,1,238.408,59.732Z" transform="translate(-196.748 -41.747)" fill="#377c86"/>
    <path id="Trazado_284" data-name="Trazado 284" d="M20.768,63.752a1.267,1.267,0,0,0,1.9,0L24.4,61.782a1.266,1.266,0,0,0-1.316-2.048,10.423,10.423,0,0,1,2.47-5.655,1.267,1.267,0,0,0-1.9-1.672,13,13,0,0,0-3.122,7.4,1.267,1.267,0,0,0-1.5,1.98Z" transform="translate(-15.632 -41.749)" fill="#377c86"/>
    <path id="Trazado_285" data-name="Trazado 285" d="M143.665,68.748a.569.569,0,0,0-.421-.175h-1.178a.569.569,0,0,0-.421.175.547.547,0,0,0-.072.644l.63.949-.295,2.487.58,1.544a.177.177,0,0,0,.333,0l.58-1.544-.295-2.487.63-.949A.546.546,0,0,0,143.665,68.748Z" transform="translate(-118.154 -55.608)" fill="none" stroke="#377c86" stroke-width="2.5"/>
  </g>
</svg>
