<svg xmlns="http://www.w3.org/2000/svg" xmlns:xlink="http://www.w3.org/1999/xlink" viewBox="0 0 383 190"><defs><style>.cls-1{fill:url(#Degradado_sin_nombre_9);}.cls-2{fill:url(#Degradado_sin_nombre_2);}.cls-3{fill:#fff;}.cls-4{fill:#353d3a;}.cls-5{isolation:isolate;}</style><linearGradient id="Degradado_sin_nombre_9" x1="115.63" y1="678.71" x2="114.96" y2="679.58" gradientTransform="matrix(275, 0, 0, -111, -31461.83, 75482.33)" gradientUnits="userSpaceOnUse"><stop offset="0" stop-color="#354377"/><stop offset="1" stop-color="#4770be"/></linearGradient><linearGradient id="Degradado_sin_nombre_2" x1="114.28" y1="679.5" x2="115.03" y2="678.85" gradientTransform="matrix(190, 0, 0, -190, -21687.24, 129139.4)" gradientUnits="userSpaceOnUse"><stop offset="0" stop-color="#4770be"/><stop offset="1" stop-color="#344072"/></linearGradient></defs><title>Recurso 1</title><g id="Capa_2" data-name="Capa 2"><g id="Capa_1-2" data-name="Capa 1"><g id="Grupo_68" data-name="Grupo 68"><path id="Rectángulo_16" data-name="Rectángulo 16" class="cls-1" d="M163.5,42h164A55.5,55.5,0,0,1,383,97.5h0A55.5,55.5,0,0,1,327.5,153h-164A55.5,55.5,0,0,1,108,97.5h0A55.5,55.5,0,0,1,163.5,42Z"/><circle id="Elipse_3" data-name="Elipse 3" class="cls-2" cx="95" cy="95" r="95"/><circle id="Elipse_4-4" data-name="Elipse 4-4" class="cls-3" cx="94.5" cy="94.5" r="76.5"/><g id="Grupo_33" data-name="Grupo 33"><g id="Grupo_2" data-name="Grupo 2"><g id="Grupo_1" data-name="Grupo 1"><path id="Trazado_1" data-name="Trazado 1" class="cls-4" d="M101.71,112.38a7.8,7.8,0,1,0,7.8,7.8h0A7.8,7.8,0,0,0,101.71,112.38Zm0,12.48a4.68,4.68,0,1,1,4.68-4.68,4.68,4.68,0,0,1-4.68,4.68Z"/></g></g><g id="Grupo_4" data-name="Grupo 4"><g id="Grupo_3" data-name="Grupo 3"><path id="Trazado_2" data-name="Trazado 2" class="cls-4" d="M115.75,115.5h-2.47c0-.06,0-.13-.08-.19l1.75-1.75a1.57,1.57,0,0,0,0-2.2L110.54,107a1.62,1.62,0,0,0-2.21,0l-1.74,1.75-.19-.08v-2.47a1.56,1.56,0,0,0-1.56-1.56H98.6A1.56,1.56,0,0,0,97,106.15v2.47l-.19.08L95.1,107a1.57,1.57,0,0,0-2.2,0l-4.41,4.41a1.57,1.57,0,0,0,0,2.2l1.75,1.75c0,.06,0,.13-.08.19H87.69a1.56,1.56,0,0,0-1.56,1.56h0v6.24a1.56,1.56,0,0,0,1.56,1.56h2.47c0,.06,0,.12.08.19l-1.75,1.74a1.57,1.57,0,0,0,0,2.2l4.41,4.42a1.61,1.61,0,0,0,2.2,0l1.75-1.75.19.08v2.47a1.57,1.57,0,0,0,1.56,1.56h6.24a1.56,1.56,0,0,0,1.56-1.56h0v-2.47l.19-.08,1.74,1.74a1.56,1.56,0,0,0,2.21,0L115,129a1.57,1.57,0,0,0,0-2.2l-1.75-1.74.08-.2h2.47a1.55,1.55,0,0,0,1.56-1.55h0v-6.24a1.56,1.56,0,0,0-1.56-1.56Zm-1.56,6.24h-2a1.55,1.55,0,0,0-1.49,1.11,10.24,10.24,0,0,1-.73,1.78,1.54,1.54,0,0,0,.26,1.84l1.43,1.43-2.2,2.2L108,128.67a1.56,1.56,0,0,0-1.84-.27,9.55,9.55,0,0,1-1.78.74,1.56,1.56,0,0,0-1.12,1.5v2h-3.11v-2a1.58,1.58,0,0,0-1.12-1.5,8.8,8.8,0,0,1-1.77-.73,1.56,1.56,0,0,0-1.85.27L94,130.1l-2.2-2.2,1.42-1.42a1.56,1.56,0,0,0,.27-1.85,8.8,8.8,0,0,1-.73-1.77,1.55,1.55,0,0,0-1.5-1.12h-2v-3.12h2a1.55,1.55,0,0,0,1.49-1.12,9.42,9.42,0,0,1,.73-1.77,1.57,1.57,0,0,0-.26-1.85l-1.43-1.42,2.21-2.2,1.42,1.42a1.56,1.56,0,0,0,1.85.27,8.8,8.8,0,0,1,1.77-.73,1.57,1.57,0,0,0,1.11-1.5v-2h3.12v2a1.58,1.58,0,0,0,1.12,1.5,9.42,9.42,0,0,1,1.77.73,1.56,1.56,0,0,0,1.85-.27l1.42-1.42,2.2,2.2-1.42,1.42a1.56,1.56,0,0,0-.27,1.85,8.8,8.8,0,0,1,.73,1.77,1.56,1.56,0,0,0,1.5,1.12h2Z"/></g></g><g id="Grupo_6" data-name="Grupo 6"><g id="Grupo_5" data-name="Grupo 5"><path id="Trazado_3" data-name="Trazado 3" class="cls-4" d="M131.34,92.11a7.8,7.8,0,1,0,7.8,7.8h0A7.81,7.81,0,0,0,131.34,92.11Zm0,12.48A4.68,4.68,0,1,1,136,99.91a4.68,4.68,0,0,1-4.67,4.68Z"/></g></g><g id="Grupo_8" data-name="Grupo 8"><g id="Grupo_7" data-name="Grupo 7"><path id="Trazado_4" data-name="Trazado 4" class="cls-4" d="M145.37,95.23H142.9l-.07-.19,1.74-1.75a1.55,1.55,0,0,0,0-2.2l-4.41-4.41a1.61,1.61,0,0,0-2.2,0l-1.74,1.75-.2-.08V85.88a1.56,1.56,0,0,0-1.56-1.56h-3.11V50a1.56,1.56,0,0,0-1.56-1.56H59.62A1.56,1.56,0,0,0,58.06,50h0v90.43A1.56,1.56,0,0,0,59.62,142h70.16a1.56,1.56,0,0,0,1.56-1.56V115.5h3.12a1.56,1.56,0,0,0,1.56-1.56v-2.47l.19-.08,1.74,1.75a1.55,1.55,0,0,0,2.2,0l4.41-4.41a1.55,1.55,0,0,0,0-2.2l-1.74-1.75a1.54,1.54,0,0,1,.08-.19h2.47a1.55,1.55,0,0,0,1.55-1.56h0V96.8A1.56,1.56,0,0,0,145.37,95.23ZM123.55,51.58h4.67V84.32a1.56,1.56,0,0,0-1.56,1.56h0v2.47l-.19.08-1.74-1.75a1.59,1.59,0,0,0-1.11-.46h-.07Zm-3.12,87.31H61.17V51.58h59.25v37.2l-2.31,2.31a1.55,1.55,0,0,0,0,2.2L119.85,95a1.08,1.08,0,0,1-.08.19H117.3a1.56,1.56,0,0,0-1.56,1.56h0V103a1.56,1.56,0,0,0,1.56,1.56h2.47c0,.06,0,.13.08.19l-1.74,1.75a1.55,1.55,0,0,0,0,2.2l2.31,2.31Zm7.8,0h-4.68v-25.3a1.49,1.49,0,0,0,1.18-.45l1.75-1.75.19.08v2.47a1.56,1.56,0,0,0,1.56,1.56h0Zm15.58-37.42h-2a1.55,1.55,0,0,0-1.49,1.11,9.52,9.52,0,0,1-.73,1.78,1.55,1.55,0,0,0,.27,1.84l1.42,1.43-2.2,2.2-1.42-1.43a1.56,1.56,0,0,0-1.85-.26,10.24,10.24,0,0,1-1.78.73,1.55,1.55,0,0,0-1.11,1.49v2h-3.12v-2a1.57,1.57,0,0,0-1.11-1.5,8.89,8.89,0,0,1-1.78-.73,1.56,1.56,0,0,0-1.85.27l-1.42,1.42-2.2-2.2,1.42-1.42a1.56,1.56,0,0,0,.27-1.85,9.42,9.42,0,0,1-.73-1.77,1.56,1.56,0,0,0-1.49-1.12h-2V98.35h2a1.53,1.53,0,0,0,1.49-1.11,9.52,9.52,0,0,1,.73-1.78,1.55,1.55,0,0,0-.27-1.84l-1.42-1.43,2.2-2.2L125,91.42a1.6,1.6,0,0,0,.47.31l.17,0a1.21,1.21,0,0,0,.37.07l.1,0,.17,0a.34.34,0,0,0,.14,0,1.69,1.69,0,0,0,.43-.15,8.8,8.8,0,0,1,1.77-.73,1.56,1.56,0,0,0,1.12-1.49v-2h3.12v2A1.57,1.57,0,0,0,134,91a8.65,8.65,0,0,1,1.78.73,1.56,1.56,0,0,0,1.85-.27L139.06,90l2.2,2.2-1.42,1.42a1.55,1.55,0,0,0-.27,1.84,9.8,9.8,0,0,1,.73,1.78,1.58,1.58,0,0,0,1.5,1.12h2Z"/></g></g><g id="Grupo_10" data-name="Grupo 10"><g id="Grupo_9" data-name="Grupo 9"><rect id="Rectángulo_17" data-name="Rectángulo 17" class="cls-4" x="100.16" y="59.37" width="15.59" height="3.12"/></g></g><g id="Grupo_12" data-name="Grupo 12"><g id="Grupo_11" data-name="Grupo 11"><rect id="Rectángulo_18" data-name="Rectángulo 18" class="cls-4" x="65.85" y="59.37" width="31.18" height="3.12"/></g></g><g id="Grupo_14" data-name="Grupo 14"><g id="Grupo_13" data-name="Grupo 13"><rect id="Rectángulo_19" data-name="Rectángulo 19" class="cls-4" x="79.89" y="65.61" width="35.86" height="3.12"/></g></g><g id="Grupo_16" data-name="Grupo 16"><g id="Grupo_15" data-name="Grupo 15"><rect id="Rectángulo_20" data-name="Rectángulo 20" class="cls-4" x="65.85" y="65.61" width="10.91" height="3.12"/></g></g><g id="Grupo_18" data-name="Grupo 18"><g id="Grupo_17" data-name="Grupo 17"><rect id="Rectángulo_21" data-name="Rectángulo 21" class="cls-4" x="97.04" y="71.85" width="18.71" height="3.12"/></g></g><g id="Grupo_20" data-name="Grupo 20"><g id="Grupo_19" data-name="Grupo 19"><rect id="Rectángulo_22" data-name="Rectángulo 22" class="cls-4" x="65.85" y="71.85" width="28.07" height="3.12"/></g></g><g id="Grupo_22" data-name="Grupo 22"><g id="Grupo_21" data-name="Grupo 21"><rect id="Rectángulo_23" data-name="Rectángulo 23" class="cls-4" x="65.85" y="78.08" width="49.89" height="3.12"/></g></g><g id="Grupo_24" data-name="Grupo 24"><g id="Grupo_23" data-name="Grupo 23"><rect id="Rectángulo_24" data-name="Rectángulo 24" class="cls-4" x="100.16" y="84.32" width="15.59" height="3.12"/></g></g><g id="Grupo_26" data-name="Grupo 26"><g id="Grupo_25" data-name="Grupo 25"><rect id="Rectángulo_25" data-name="Rectángulo 25" class="cls-4" x="65.85" y="84.32" width="31.18" height="3.12"/></g></g><g id="Grupo_28" data-name="Grupo 28"><g id="Grupo_27" data-name="Grupo 27"><rect id="Rectángulo_26" data-name="Rectángulo 26" class="cls-4" x="76.77" y="90.56" width="38.98" height="3.12"/></g></g><g id="Grupo_30" data-name="Grupo 30"><g id="Grupo_29" data-name="Grupo 29"><rect id="Rectángulo_27" data-name="Rectángulo 27" class="cls-4" x="65.85" y="90.56" width="7.8" height="3.12"/></g></g><g id="Grupo_32" data-name="Grupo 32"><g id="Grupo_31" data-name="Grupo 31"><rect id="Rectángulo_28" data-name="Rectángulo 28" class="cls-4" x="65.85" y="96.79" width="23.39" height="3.12"/></g></g></g><g id="Gestión_Documental" data-name="Gestión Documental" class="cls-5"><g class="cls-5"><path class="cls-3" d="M246,91.78h3v5.68a9.66,9.66,0,0,1-5.66,1.78c-4.4,0-7.64-3-7.64-7.24s3.24-7.24,7.7-7.24a7.46,7.46,0,0,1,5.86,2.42l-2.08,1.92a4.74,4.74,0,0,0-3.62-1.58,4.48,4.48,0,1,0,0,9,5.14,5.14,0,0,0,2.52-.6Z"/><path class="cls-3" d="M262.19,94.5h-8.14a2.87,2.87,0,0,0,3.08,2.16,3.65,3.65,0,0,0,2.7-1l1.66,1.8a5.64,5.64,0,0,1-4.44,1.74c-3.72,0-6.14-2.34-6.14-5.54a5.48,5.48,0,0,1,5.74-5.54,5.33,5.33,0,0,1,5.6,5.58C262.25,93.9,262.21,94.24,262.19,94.5ZM254,92.68h5.3a2.69,2.69,0,0,0-5.3,0Z"/><path class="cls-3" d="M263.29,98l1-2.24a7.36,7.36,0,0,0,3.74,1c1.44,0,2-.38,2-1,0-1.76-6.5,0-6.5-4.26,0-2,1.84-3.48,5-3.48a8.85,8.85,0,0,1,4.14.94l-1,2.22a6.18,6.18,0,0,0-3.1-.8c-1.4,0-2,.44-2,1,0,1.84,6.5.06,6.5,4.3,0,2-1.86,3.42-5.08,3.42A9.24,9.24,0,0,1,263.29,98Z"/><path class="cls-3" d="M281.89,98.48a4.46,4.46,0,0,1-2.54.68c-2.54,0-4-1.3-4-3.86V90.88h-1.66v-2.4h1.66V85.86h3.12v2.62h2.68v2.4h-2.68v4.38a1.25,1.25,0,0,0,1.34,1.42,2.1,2.1,0,0,0,1.26-.4Z"/><path class="cls-3" d="M283.27,85a1.78,1.78,0,0,1,1.94-1.74,1.75,1.75,0,0,1,1.94,1.68,1.95,1.95,0,0,1-3.88.06Zm.38,3.24h3.12V99h-3.12Z"/><path class="cls-3" d="M288.87,93.62c0-3.24,2.5-5.54,5.92-5.54s5.9,2.3,5.9,5.54-2.48,5.54-5.9,5.54S288.87,96.86,288.87,93.62Zm8.66,0a2.76,2.76,0,1,0-2.74,3A2.72,2.72,0,0,0,297.53,93.62ZM295.63,84H299l-3.62,2.88h-2.44Z"/><path class="cls-3" d="M313.77,92.84V99h-3.12V93.32c0-1.74-.8-2.54-2.18-2.54s-2.58.92-2.58,2.9V99h-3.12V88.24h3V89.5a4.71,4.71,0,0,1,3.56-1.42C311.85,88.08,313.77,89.56,313.77,92.84Z"/></g><g class="cls-5"><path class="cls-3" d="M211.77,109h6.36c4.58,0,7.72,2.76,7.72,7s-3.14,7-7.72,7h-6.36Zm6.2,11.34c2.78,0,4.6-1.66,4.6-4.34s-1.82-4.34-4.6-4.34h-3v8.68Z"/><path class="cls-3" d="M227.27,117.62c0-3.24,2.5-5.54,5.92-5.54s5.9,2.3,5.9,5.54-2.48,5.54-5.9,5.54S227.27,120.86,227.27,117.62Zm8.66,0a2.76,2.76,0,1,0-2.74,3A2.72,2.72,0,0,0,235.93,117.62Z"/><path class="cls-3" d="M240.37,117.62c0-3.24,2.5-5.54,6-5.54a4.94,4.94,0,0,1,4.82,2.74l-2.42,1.3a2.68,2.68,0,0,0-2.42-1.48,3,3,0,0,0,0,6,2.65,2.65,0,0,0,2.42-1.48l2.42,1.32a5,5,0,0,1-4.82,2.72C242.87,123.16,240.37,120.86,240.37,117.62Z"/><path class="cls-3" d="M263.83,112.24V123h-3v-1.28a4.35,4.35,0,0,1-3.34,1.44c-2.7,0-4.6-1.52-4.6-4.84v-6.08h3.12v5.62c0,1.8.8,2.6,2.18,2.6s2.48-.92,2.48-2.9v-5.32Z"/><path class="cls-3" d="M284.91,116.84V123h-3.12v-5.68c0-1.74-.78-2.54-2-2.54s-2.38.9-2.38,2.82V123h-3.12v-5.68c0-1.74-.74-2.54-2-2.54s-2.36.9-2.36,2.82V123h-3.12V112.24h3v1.24a4.36,4.36,0,0,1,3.38-1.4,4,4,0,0,1,3.54,1.76,4.84,4.84,0,0,1,3.88-1.76C283.07,112.08,284.91,113.56,284.91,116.84Z"/><path class="cls-3" d="M298.31,118.5h-8.14a2.87,2.87,0,0,0,3.08,2.16,3.65,3.65,0,0,0,2.7-1l1.66,1.8a5.64,5.64,0,0,1-4.44,1.74c-3.72,0-6.14-2.34-6.14-5.54a5.48,5.48,0,0,1,5.74-5.54,5.33,5.33,0,0,1,5.6,5.58C298.37,117.9,298.33,118.24,298.31,118.5Zm-8.18-1.82h5.3a2.69,2.69,0,0,0-5.3,0Z"/><path class="cls-3" d="M311.45,116.84V123h-3.12v-5.68c0-1.74-.8-2.54-2.18-2.54s-2.58.92-2.58,2.9V123h-3.12V112.24h3v1.26a4.71,4.71,0,0,1,3.56-1.42C309.53,112.08,311.45,113.56,311.45,116.84Z"/><path class="cls-3" d="M321.21,122.48a4.46,4.46,0,0,1-2.54.68c-2.54,0-4-1.3-4-3.86v-4.42H313v-2.4h1.66v-2.62h3.12v2.62h2.68v2.4h-2.68v4.38a1.25,1.25,0,0,0,1.34,1.42,2.1,2.1,0,0,0,1.26-.4Z"/><path class="cls-3" d="M332.49,116.86V123h-2.92v-1.34a3.53,3.53,0,0,1-3.28,1.5c-2.52,0-4-1.4-4-3.26s1.34-3.22,4.62-3.22h2.48c0-1.34-.8-2.12-2.48-2.12a5.17,5.17,0,0,0-3.1,1l-1.12-2.18a8.27,8.27,0,0,1,4.64-1.3C330.59,112.08,332.49,113.6,332.49,116.86Zm-3.12,2.74v-1.1h-2.14c-1.46,0-1.92.54-1.92,1.26s.66,1.3,1.76,1.3A2.3,2.3,0,0,0,329.37,119.6Z"/><path class="cls-3" d="M335.31,108.16h3.12V123h-3.12Z"/></g></g></g></g></g></svg>