<svg xmlns="http://www.w3.org/2000/svg" xmlns:xlink="http://www.w3.org/1999/xlink" viewBox="0 0 383 190"><defs><style>.cls-1{fill:url(#Degradado_sin_nombre_7);}.cls-2{fill:url(#Degradado_sin_nombre_8);}.cls-3{fill:#fff;}.cls-4{isolation:isolate;}.cls-5{fill:none;stroke:#353d3a;stroke-linecap:round;stroke-linejoin:round;stroke-width:6px;}.cls-6{fill:#353d3a;}</style><linearGradient id="Degradado_sin_nombre_7" x1="-416.37" y1="442.71" x2="-417.04" y2="443.58" gradientTransform="matrix(275, 0, 0, -111, 114838.17, 49286.33)" gradientUnits="userSpaceOnUse"><stop offset="0" stop-color="#c86835"/><stop offset="1" stop-color="#fa8c12"/></linearGradient><linearGradient id="Degradado_sin_nombre_8" x1="-417.72" y1="443.5" x2="-416.97" y2="442.85" gradientTransform="matrix(190, 0, 0, -190, 79392.76, 84299.4)" gradientUnits="userSpaceOnUse"><stop offset="0" stop-color="#fb8d12"/><stop offset="1" stop-color="#c66736"/></linearGradient></defs><title>Recurso 4</title><g id="Capa_2" data-name="Capa 2"><g id="Capa_1-2" data-name="Capa 1"><g id="Grupo_65" data-name="Grupo 65"><path id="Rectángulo_55" data-name="Rectángulo 55" class="cls-1" d="M163.5,42h164A55.5,55.5,0,0,1,383,97.5h0A55.5,55.5,0,0,1,327.5,153h-164A55.5,55.5,0,0,1,108,97.5h0A55.5,55.5,0,0,1,163.5,42Z"/><circle id="Elipse_11" data-name="Elipse 11" class="cls-2" cx="95" cy="95" r="95"/><circle id="Elipse_12-2" data-name="Elipse 12-2" class="cls-3" cx="94.5" cy="94.5" r="76.5"/><g id="Procesos_de_Negocio" data-name="Procesos de Negocio" class="cls-4"><g class="cls-4"><path class="cls-3" d="M225.43,90.08c0,3.12-2.34,5.06-6.08,5.06h-2.82V99h-3.24V85h6.06C223.09,85,225.43,86.94,225.43,90.08Zm-3.28,0c0-1.54-1-2.44-3-2.44h-2.64V92.5h2.64C221.15,92.5,222.15,91.6,222.15,90.08Z"/><path class="cls-3" d="M234.19,88.08V91c-.26,0-.46,0-.7,0-1.72,0-2.86.94-2.86,3V99h-3.12V88.24h3v1.42A4.34,4.34,0,0,1,234.19,88.08Z"/><path class="cls-3" d="M235.15,93.62c0-3.24,2.5-5.54,5.92-5.54s5.9,2.3,5.9,5.54-2.48,5.54-5.9,5.54S235.15,96.86,235.15,93.62Zm8.66,0a2.76,2.76,0,1,0-2.74,3A2.72,2.72,0,0,0,243.81,93.62Z"/><path class="cls-3" d="M248.25,93.62c0-3.24,2.5-5.54,6-5.54a4.94,4.94,0,0,1,4.82,2.74l-2.42,1.3a2.68,2.68,0,0,0-2.42-1.48,3,3,0,0,0,0,6,2.65,2.65,0,0,0,2.42-1.48l2.42,1.32a5,5,0,0,1-4.82,2.72C250.75,99.16,248.25,96.86,248.25,93.62Z"/><path class="cls-3" d="M271.21,94.5h-8.14a2.87,2.87,0,0,0,3.08,2.16,3.65,3.65,0,0,0,2.7-1l1.66,1.8a5.64,5.64,0,0,1-4.44,1.74c-3.72,0-6.14-2.34-6.14-5.54a5.48,5.48,0,0,1,5.74-5.54,5.33,5.33,0,0,1,5.6,5.58C271.27,93.9,271.23,94.24,271.21,94.5ZM263,92.68h5.3a2.69,2.69,0,0,0-5.3,0Z"/><path class="cls-3" d="M272.31,98l1-2.24a7.36,7.36,0,0,0,3.74,1c1.44,0,2-.38,2-1,0-1.76-6.5,0-6.5-4.26,0-2,1.84-3.48,5-3.48a8.85,8.85,0,0,1,4.14.94l-1,2.22a6.18,6.18,0,0,0-3.1-.8c-1.4,0-2,.44-2,1,0,1.84,6.5.06,6.5,4.3,0,2-1.86,3.42-5.08,3.42A9.24,9.24,0,0,1,272.31,98Z"/><path class="cls-3" d="M283.17,93.62c0-3.24,2.5-5.54,5.92-5.54s5.9,2.3,5.9,5.54-2.48,5.54-5.9,5.54S283.17,96.86,283.17,93.62Zm8.66,0a2.76,2.76,0,1,0-2.74,3A2.72,2.72,0,0,0,291.83,93.62Z"/><path class="cls-3" d="M296,98l1-2.24a7.36,7.36,0,0,0,3.74,1c1.44,0,2-.38,2-1,0-1.76-6.5,0-6.5-4.26,0-2,1.84-3.48,5-3.48a8.85,8.85,0,0,1,4.14.94l-1,2.22a6.18,6.18,0,0,0-3.1-.8c-1.4,0-2,.44-2,1,0,1.84,6.5.06,6.5,4.3,0,2-1.86,3.42-5.08,3.42A9.24,9.24,0,0,1,296,98Z"/><path class="cls-3" d="M324.31,84.16V99h-3V97.76a4.14,4.14,0,0,1-3.36,1.4,5.54,5.54,0,0,1,0-11.08,4.13,4.13,0,0,1,3.22,1.3V84.16Zm-3.06,9.46a2.76,2.76,0,1,0-2.74,3A2.73,2.73,0,0,0,321.25,93.62Z"/><path class="cls-3" d="M337.67,94.5h-8.14a2.87,2.87,0,0,0,3.08,2.16,3.65,3.65,0,0,0,2.7-1l1.66,1.8a5.64,5.64,0,0,1-4.44,1.74c-3.72,0-6.14-2.34-6.14-5.54a5.48,5.48,0,0,1,5.74-5.54,5.33,5.33,0,0,1,5.6,5.58C337.73,93.9,337.69,94.24,337.67,94.5Zm-8.18-1.82h5.3a2.69,2.69,0,0,0-5.3,0Z"/></g><g class="cls-4"><path class="cls-3" d="M246.09,109v14h-2.66l-7-8.5V123h-3.2V109h2.68l7,8.5V109Z"/><path class="cls-3" d="M259.67,118.5h-8.14a2.87,2.87,0,0,0,3.08,2.16,3.65,3.65,0,0,0,2.7-1l1.66,1.8a5.64,5.64,0,0,1-4.44,1.74c-3.72,0-6.14-2.34-6.14-5.54a5.48,5.48,0,0,1,5.74-5.54,5.33,5.33,0,0,1,5.6,5.58C259.73,117.9,259.69,118.24,259.67,118.5Zm-8.18-1.82h5.3a2.69,2.69,0,0,0-5.3,0Z"/><path class="cls-3" d="M272.91,112.24v9c0,4-2.16,5.84-6,5.84a8.86,8.86,0,0,1-5.28-1.48l1.24-2.24a6.43,6.43,0,0,0,3.8,1.22c2.2,0,3.16-1,3.16-2.94v-.46a4.43,4.43,0,0,1-3.4,1.34,5.2,5.2,0,1,1,0-10.4,4.32,4.32,0,0,1,3.56,1.54v-1.38Zm-3.08,5a2.84,2.84,0,1,0-2.82,2.64A2.61,2.61,0,0,0,269.83,117.28Z"/><path class="cls-3" d="M275,117.62c0-3.24,2.5-5.54,5.92-5.54s5.9,2.3,5.9,5.54-2.48,5.54-5.9,5.54S275,120.86,275,117.62Zm8.66,0a2.76,2.76,0,1,0-2.74,3A2.72,2.72,0,0,0,283.67,117.62Z"/><path class="cls-3" d="M288.11,117.62c0-3.24,2.5-5.54,6-5.54a4.94,4.94,0,0,1,4.82,2.74l-2.42,1.3a2.68,2.68,0,0,0-2.42-1.48,3,3,0,0,0,0,6,2.65,2.65,0,0,0,2.42-1.48l2.42,1.32a5,5,0,0,1-4.82,2.72C290.61,123.16,288.11,120.86,288.11,117.62Z"/><path class="cls-3" d="M300.35,109a1.78,1.78,0,0,1,1.94-1.74,1.75,1.75,0,0,1,1.94,1.68,1.95,1.95,0,0,1-3.88.06Zm.38,3.24h3.12V123h-3.12Z"/><path class="cls-3" d="M306,117.62c0-3.24,2.5-5.54,5.92-5.54s5.9,2.3,5.9,5.54-2.48,5.54-5.9,5.54S306,120.86,306,117.62Zm8.66,0a2.76,2.76,0,1,0-2.74,3A2.72,2.72,0,0,0,314.61,117.62Z"/></g></g><g id="Grupo_64" data-name="Grupo 64"><path id="Trazado_24" data-name="Trazado 24" class="cls-5" d="M65.77,54.88l35.3.19L92.55,47.5"/><line id="Línea_1" data-name="Línea 1" class="cls-5" x1="92.08" y1="64.07" x2="100.6" y2="55.55"/><path id="Rectángulo_66" data-name="Rectángulo 66" class="cls-5" d="M116.7,47.5h7.57A8.52,8.52,0,0,1,132.79,56h0a8.51,8.51,0,0,1-8.52,8.52H116.7A8.51,8.51,0,0,1,108.18,56h0A8.52,8.52,0,0,1,116.7,47.5Z"/><line id="Línea_2" data-name="Línea 2" class="cls-5" x1="83.78" y1="92.34" x2="92.3" y2="99.91"/><line id="Línea_3" data-name="Línea 3" class="cls-5" x1="92.78" y1="83.34" x2="84.26" y2="91.86"/><path id="Trazado_25" data-name="Trazado 25" class="cls-5" d="M84.51,92h36V70.22"/><path id="Trazado_26" data-name="Trazado 26" class="cls-5" d="M66,81,56.1,98.21H76Z"/><line id="Línea_4" data-name="Línea 4" class="cls-5" x1="102.27" y1="127.37" x2="93.75" y2="134.94"/><line id="Línea_5" data-name="Línea 5" class="cls-5" x1="93.28" y1="118.37" x2="101.8" y2="126.89"/><path id="Trazado_27" data-name="Trazado 27" class="cls-5" d="M101.55,127h-36V105.25"/><path id="Trazado_28" data-name="Trazado 28" class="cls-6" d="M117.5,141.32c-6-.54-10.25-3.81-10.25-9.32h6a4.87,4.87,0,0,0,4.3,4.73V126c-4.88-1.22-10.25-2.58-10.25-9.46,0-5.47,4.2-9.23,10.25-9.77v-4h3.17v4c5.62.48,9.42,3.56,9.86,9.08h-6a5,5,0,0,0-3.9-4.35V122c4.88,1.17,10.2,2.49,10.2,9.37,0,4.74-3.61,9.33-10.2,9.91v4h-3.17Zm0-20.16V111.3c-2.69.34-4.59,2-4.59,4.93s2,4.1,4.59,4.93Zm3.17,5.66v9.91a5.05,5.05,0,0,0,4.59-5.07c0-2.79-2-4-4.59-4.84Z"/></g></g></g></g></svg>