<svg xmlns="http://www.w3.org/2000/svg" xmlns:xlink="http://www.w3.org/1999/xlink" viewBox="0 0 383 190"><defs><style>.cls-1{fill:url(#Degradado_sin_nombre_3);}.cls-2{fill:url(#Degradado_sin_nombre_4);}.cls-3{fill:#fff;}.cls-4{isolation:isolate;}.cls-5{fill:#353d3a;}</style><linearGradient id="Degradado_sin_nombre_3" x1="-416.37" y1="678.71" x2="-417.04" y2="679.58" gradientTransform="matrix(275, 0, 0, -111, 114838.17, 75482.33)" gradientUnits="userSpaceOnUse"><stop offset="0" stop-color="#006b7a"/><stop offset="1" stop-color="#00a5a3"/></linearGradient><linearGradient id="Degradado_sin_nombre_4" x1="-417.72" y1="679.5" x2="-416.97" y2="678.85" gradientTransform="matrix(190, 0, 0, -190, 79392.76, 129139.4)" gradientUnits="userSpaceOnUse"><stop offset="0" stop-color="#00ada9"/><stop offset="1" stop-color="#006a79"/></linearGradient></defs><title>Recurso 2</title><g id="Capa_2" data-name="Capa 2"><g id="Capa_1-2" data-name="Capa 1"><g id="Grupo_66" data-name="Grupo 66"><path id="Rectángulo_16-2" data-name="Rectángulo 16-2" class="cls-1" d="M163.5,42h164A55.5,55.5,0,0,1,383,97.5h0A55.5,55.5,0,0,1,327.5,153h-164A55.5,55.5,0,0,1,108,97.5h0A55.5,55.5,0,0,1,163.5,42Z"/><circle id="Elipse_3-2" data-name="Elipse 3-2" class="cls-2" cx="95" cy="95" r="95"/><circle id="Elipse_4-5" data-name="Elipse 4-5" class="cls-3" cx="94.5" cy="94.5" r="76.5"/><g id="Marketing_Digital_Cognitivo" data-name="Marketing Digital Cognitivo" class="cls-4"><g class="cls-4"><path class="cls-3" d="M235.4,99l0-8.4-4.12,6.92H229.8l-4.1-6.74V99h-3V85h2.68l5.24,8.7,5.16-8.7h2.66l0,14Z"/><path class="cls-3" d="M251.06,92.86V99h-2.92V97.66a3.53,3.53,0,0,1-3.28,1.5c-2.52,0-4-1.4-4-3.26s1.34-3.22,4.62-3.22h2.48c0-1.34-.8-2.12-2.48-2.12a5.17,5.17,0,0,0-3.1,1l-1.12-2.18a8.27,8.27,0,0,1,4.64-1.3C249.16,88.08,251.06,89.6,251.06,92.86Zm-3.12,2.74V94.5H245.8c-1.46,0-1.92.54-1.92,1.26s.66,1.3,1.76,1.3A2.3,2.3,0,0,0,247.94,95.6Z"/><path class="cls-3" d="M260.56,88.08V91c-.26,0-.46,0-.7,0-1.72,0-2.86.94-2.86,3V99h-3.12V88.24h3v1.42A4.34,4.34,0,0,1,260.56,88.08Z"/><path class="cls-3" d="M267,94.78l-1.5,1.48V99h-3.12V84.16h3.12v8.4l4.56-4.32h3.72l-4.48,4.56,4.88,6.2h-3.78Z"/><path class="cls-3" d="M285.64,94.5H277.5a2.87,2.87,0,0,0,3.08,2.16,3.65,3.65,0,0,0,2.7-1l1.66,1.8a5.64,5.64,0,0,1-4.44,1.74c-3.72,0-6.14-2.34-6.14-5.54a5.48,5.48,0,0,1,5.74-5.54,5.33,5.33,0,0,1,5.6,5.58C285.7,93.9,285.66,94.24,285.64,94.5Zm-8.18-1.82h5.3a2.69,2.69,0,0,0-5.3,0Z"/><path class="cls-3" d="M294.72,98.48a4.46,4.46,0,0,1-2.54.68c-2.54,0-4-1.3-4-3.86V90.88H286.5v-2.4h1.66V85.86h3.12v2.62H294v2.4h-2.68v4.38a1.25,1.25,0,0,0,1.34,1.42,2.1,2.1,0,0,0,1.26-.4Z"/><path class="cls-3" d="M296.1,85A1.78,1.78,0,0,1,298,83.26,1.75,1.75,0,0,1,300,84.94a1.95,1.95,0,0,1-3.88.06Zm.38,3.24h3.12V99h-3.12Z"/><path class="cls-3" d="M313.5,92.84V99h-3.12V93.32c0-1.74-.8-2.54-2.18-2.54s-2.58.92-2.58,2.9V99H302.5V88.24h3V89.5A4.71,4.71,0,0,1,309,88.08C311.58,88.08,313.5,89.56,313.5,92.84Z"/><path class="cls-3" d="M327.54,88.24v9c0,4-2.16,5.84-6,5.84a8.86,8.86,0,0,1-5.28-1.48l1.24-2.24a6.43,6.43,0,0,0,3.8,1.22c2.2,0,3.16-1,3.16-2.94v-.46a4.43,4.43,0,0,1-3.4,1.34,5.2,5.2,0,1,1,0-10.4,4.32,4.32,0,0,1,3.56,1.54V88.24Zm-3.08,5a2.84,2.84,0,1,0-2.82,2.64A2.61,2.61,0,0,0,324.46,93.28Z"/></g><g class="cls-4"><path class="cls-3" d="M241.85,109h6.36c4.58,0,7.72,2.76,7.72,7s-3.14,7-7.72,7h-6.36Zm6.2,11.34c2.78,0,4.6-1.66,4.6-4.34s-1.82-4.34-4.6-4.34h-3v8.68Z"/><path class="cls-3" d="M257.77,109a1.78,1.78,0,0,1,1.94-1.74,1.75,1.75,0,0,1,1.94,1.68,1.95,1.95,0,0,1-3.88.06Zm.38,3.24h3.12V123h-3.12Z"/><path class="cls-3" d="M275.27,112.24v9c0,4-2.16,5.84-6,5.84a8.86,8.86,0,0,1-5.28-1.48l1.24-2.24a6.43,6.43,0,0,0,3.8,1.22c2.2,0,3.16-1,3.16-2.94v-.46a4.43,4.43,0,0,1-3.4,1.34,5.2,5.2,0,1,1,0-10.4,4.32,4.32,0,0,1,3.56,1.54v-1.38Zm-3.08,5a2.84,2.84,0,1,0-2.82,2.64A2.61,2.61,0,0,0,272.19,117.28Z"/><path class="cls-3" d="M277.79,109a1.78,1.78,0,0,1,1.94-1.74,1.75,1.75,0,0,1,1.94,1.68,1.95,1.95,0,0,1-3.88.06Zm.38,3.24h3.12V123h-3.12Z"/><path class="cls-3" d="M291.13,122.48a4.46,4.46,0,0,1-2.54.68c-2.54,0-4-1.3-4-3.86v-4.42h-1.66v-2.4h1.66v-2.62h3.12v2.62h2.68v2.4h-2.68v4.38a1.25,1.25,0,0,0,1.34,1.42,2.1,2.1,0,0,0,1.26-.4Z"/><path class="cls-3" d="M302.41,116.86V123h-2.92v-1.34a3.53,3.53,0,0,1-3.28,1.5c-2.52,0-4-1.4-4-3.26s1.34-3.22,4.62-3.22h2.48c0-1.34-.8-2.12-2.48-2.12a5.17,5.17,0,0,0-3.1,1l-1.12-2.18a8.27,8.27,0,0,1,4.64-1.3C300.51,112.08,302.41,113.6,302.41,116.86Zm-3.12,2.74v-1.1h-2.14c-1.46,0-1.92.54-1.92,1.26s.66,1.3,1.76,1.3A2.3,2.3,0,0,0,299.29,119.6Z"/><path class="cls-3" d="M305.23,108.16h3.12V123h-3.12Z"/></g></g><g id="Grupo_34" data-name="Grupo 34"><path id="Trazado_5" data-name="Trazado 5" class="cls-5" d="M102.31,129.21H99.24v-15a1.54,1.54,0,0,0-3.07,0h0v15H56.29V98.51H69.05a1.53,1.53,0,0,0,0-3.06H54.75A1.53,1.53,0,0,0,53.22,97h0v32.23H50.15a1.52,1.52,0,0,0-1.53,1.53v3.07a7.67,7.67,0,0,0,7.67,7.67H96.17a7.68,7.68,0,0,0,7.67-7.67v-3.07A1.53,1.53,0,0,0,102.31,129.21Zm-1.54,4.6a4.6,4.6,0,0,1-4.6,4.6H93.11v-1.54a1.54,1.54,0,0,0-3.07,0h0v1.54H62.43v-1.54a1.54,1.54,0,0,0-3.07,0h0v1.54H56.29a4.6,4.6,0,0,1-4.6-4.6v-1.54h49.09Z"/><path id="Trazado_6" data-name="Trazado 6" class="cls-5" d="M128.38,58.62h3.07a1.54,1.54,0,0,0,0-3.07h-3.07a4.6,4.6,0,0,0-4.6,4.6v1.53h-1.53a1.54,1.54,0,0,0,0,3.07h1.53v4.6a1.54,1.54,0,1,0,3.07,0h0v-4.6h1.54a1.54,1.54,0,0,0,0-3.07h-1.54V60.15A1.53,1.53,0,0,1,128.38,58.62Z"/><path id="Trazado_7" data-name="Trazado 7" class="cls-5" d="M136.05,49.41h-18.4a4.6,4.6,0,0,0-4.6,4.6v3.07a1.54,1.54,0,1,0,3.07,0h0V54a1.53,1.53,0,0,1,1.53-1.53h18.4A1.54,1.54,0,0,1,137.59,54V72.43A1.54,1.54,0,0,1,136.05,74h-18.4a1.53,1.53,0,0,1-1.53-1.53V63.22a1.54,1.54,0,0,0-3.07,0h0v9.21a4.6,4.6,0,0,0,4.6,4.6h18.4a4.6,4.6,0,0,0,4.6-4.6V54A4.6,4.6,0,0,0,136.05,49.41Z"/><path id="Trazado_8" data-name="Trazado 8" class="cls-5" d="M120.71,110.79a6.14,6.14,0,1,0,6.14-6.13A6.15,6.15,0,0,0,120.71,110.79Zm9.2,0a3.07,3.07,0,1,1-3.06-3.07,3.06,3.06,0,0,1,3.06,3.07h0Z"/><path id="Trazado_9" data-name="Trazado 9" class="cls-5" d="M136.05,97h-18.4a4.6,4.6,0,0,0-4.6,4.6V120a4.6,4.6,0,0,0,4.6,4.6h18.4a4.6,4.6,0,0,0,4.6-4.6v-3.07a1.53,1.53,0,1,0-3.06,0h0V120a1.53,1.53,0,0,1-1.54,1.53h-18.4a1.53,1.53,0,0,1-1.54-1.53V101.59a1.54,1.54,0,0,1,1.54-1.54h18.4a1.54,1.54,0,0,1,1.54,1.54v9.2a1.53,1.53,0,1,0,3.06,0h0v-9.21a4.6,4.6,0,0,0-4.6-4.6Z"/><path id="Trazado_10" data-name="Trazado 10" class="cls-5" d="M83.09,67.59a1.49,1.49,0,0,0,1.5.06l9.2-4.6a1.54,1.54,0,0,0,0-2.73l-9.2-4.6a1.54,1.54,0,0,0-2.23,1.37V66.3A1.56,1.56,0,0,0,83.09,67.59Zm2.34-8,4.24,2.12L85.43,63.8Z"/><path id="Trazado_11" data-name="Trazado 11" class="cls-5" d="M87,75.5a13.81,13.81,0,1,0-13.8-13.83v0A13.82,13.82,0,0,0,87,75.5Zm0-24.56A10.75,10.75,0,1,1,76.23,61.69h0A10.76,10.76,0,0,1,87,50.94Z"/><path id="Trazado_12" data-name="Trazado 12" class="cls-5" d="M102.31,81.64a1.54,1.54,0,0,0,1.23-.62l4.6-6.14A1.54,1.54,0,0,0,105.68,73l-4.6,6.14a1.54,1.54,0,0,0,1.23,2.46Z"/><path id="Trazado_13" data-name="Trazado 13" class="cls-5" d="M105.68,87.16a1.53,1.53,0,0,0,2.15.31h0l6.14-4.6a1.54,1.54,0,0,0,.3-2.15,1.52,1.52,0,0,0-2.14-.31L106,85a1.53,1.53,0,0,0-.31,2.15Z"/><path id="Trazado_14" data-name="Trazado 14" class="cls-5" d="M120.71,90.54a1.53,1.53,0,0,0-1.78-1.24h-.06l-7.67,1.53a1.54,1.54,0,1,0,.31,3.07h.31l7.67-1.53a1.55,1.55,0,0,0,1.24-1.78h0A.13.13,0,0,0,120.71,90.54Z"/><path id="Trazado_15" data-name="Trazado 15" class="cls-5" d="M50.16,90.84h18.4a1.53,1.53,0,0,0,1.54-1.53V64.76a1.54,1.54,0,0,0-1.54-1.54H50.16a1.54,1.54,0,0,0-1.54,1.54V89.31A1.53,1.53,0,0,0,50.16,90.84Zm1.53-24.55H67V87.77H51.69Z"/><path id="Trazado_16" data-name="Trazado 16" class="cls-5" d="M62.43,69.36H59.36a1.54,1.54,0,0,0,0,3.07h3.07a1.54,1.54,0,0,0,0-3.07Z"/><path id="Trazado_17" data-name="Trazado 17" class="cls-5" d="M62.43,75.5H56.29a1.52,1.52,0,0,0-1.49,1.57,1.54,1.54,0,0,0,1.49,1.5h6.14a1.54,1.54,0,0,0,0-3.07Z"/><path id="Trazado_18" data-name="Trazado 18" class="cls-5" d="M62.43,81.64H56.29a1.53,1.53,0,0,0,0,3.06h6.14a1.53,1.53,0,0,0,0-3.06Z"/><path id="Trazado_19" data-name="Trazado 19" class="cls-5" d="M101,90.38a1.54,1.54,0,1,0-2.67,1.54h0l6.76,11.7-24.54,9.21h-.23l-4,2.3-2.65,1.54a3.06,3.06,0,0,1-4.18-1.12h0l-3.06-5.31a3.07,3.07,0,0,1,1.15-4.06l5.3-3.06,3.84,6.64a1.54,1.54,0,0,0,2.67-1.53l-4-6.85L94.64,85.5l.63,1.09a1.54,1.54,0,1,0,2.67-1.54h0L96.4,82.4a1.55,1.55,0,0,0-2.13-.54,1,1,0,0,0-.18.13L72.61,99.7l-6.53,3.77a6.14,6.14,0,0,0-2.82,7l-1.54.88a4.6,4.6,0,0,0,1.1,8.44,4.87,4.87,0,0,0,1.2.15,4.63,4.63,0,0,0,2.3-.61l1.54-.88a5.81,5.81,0,0,0,2.68,1.6,5.9,5.9,0,0,0,1.61.22,6,6,0,0,0,3.07-.83l1.33-.77L79.62,124a4.6,4.6,0,1,0,8.08-4.4,1.32,1.32,0,0,0-.12-.2h0l-2.79-4.87,23-8.64a1.53,1.53,0,0,0,.9-2,2,2,0,0,0-.1-.21ZM64.73,116.61A1.54,1.54,0,1,1,63.19,114h0l1.34-.77,1.53,2.66Zm20.18,4.3a1.53,1.53,0,0,1-2.65,1.53l-3.07-5.32,2.55-1.46h.12Z"/></g></g></g></g></svg>