<svg xmlns="http://www.w3.org/2000/svg" xmlns:xlink="http://www.w3.org/1999/xlink" viewBox="0 0 383 190"><defs><style>.cls-1{fill:url(#Degradado_sin_nombre_5);}.cls-2{fill:url(#Degradado_sin_nombre_6);}.cls-3{fill:#fff;}.cls-4{isolation:isolate;}.cls-5{fill:#353d3a;}</style><linearGradient id="Degradado_sin_nombre_5" x1="115.63" y1="442.71" x2="114.96" y2="443.58" gradientTransform="matrix(275, 0, 0, -111, -31461.83, 49286.33)" gradientUnits="userSpaceOnUse"><stop offset="0" stop-color="#096862"/><stop offset="1" stop-color="#01977d"/></linearGradient><linearGradient id="Degradado_sin_nombre_6" x1="114.28" y1="443.5" x2="115.03" y2="442.85" gradientTransform="matrix(190, 0, 0, -190, -21687.24, 84299.4)" gradientUnits="userSpaceOnUse"><stop offset="0" stop-color="#009d81"/><stop offset="1" stop-color="#096862"/></linearGradient></defs><title>Recurso 3</title><g id="Capa_2" data-name="Capa 2"><g id="Capa_1-2" data-name="Capa 1"><g id="Grupo_67" data-name="Grupo 67"><path id="Rectángulo_16-3" data-name="Rectángulo 16-3" class="cls-1" d="M163.5,42h164A55.5,55.5,0,0,1,383,97.5h0A55.5,55.5,0,0,1,327.5,153h-164A55.5,55.5,0,0,1,108,97.5h0A55.5,55.5,0,0,1,163.5,42Z"/><circle id="Elipse_3-3" data-name="Elipse 3-3" class="cls-2" cx="95" cy="95" r="95"/><circle id="Elipse_4-6" data-name="Elipse 4-6" class="cls-3" cx="94.5" cy="94.5" r="76.5"/><g id="Gestión_del_Cambio" data-name="Gestión del Cambio" class="cls-4"><g class="cls-4"><path class="cls-3" d="M226.9,91.78h3v5.68a9.66,9.66,0,0,1-5.66,1.78c-4.4,0-7.64-3-7.64-7.24s3.24-7.24,7.7-7.24a7.46,7.46,0,0,1,5.86,2.42L228,89.1a4.74,4.74,0,0,0-3.62-1.58,4.48,4.48,0,1,0,0,9,5.14,5.14,0,0,0,2.52-.6Z"/><path class="cls-3" d="M243.12,94.5H235a2.87,2.87,0,0,0,3.08,2.16,3.65,3.65,0,0,0,2.7-1l1.66,1.8A5.64,5.64,0,0,1,238,99.16c-3.72,0-6.14-2.34-6.14-5.54a5.48,5.48,0,0,1,5.74-5.54,5.33,5.33,0,0,1,5.6,5.58C243.18,93.9,243.14,94.24,243.12,94.5Zm-8.18-1.82h5.3a2.69,2.69,0,0,0-5.3,0Z"/><path class="cls-3" d="M244.22,98l1-2.24a7.36,7.36,0,0,0,3.74,1c1.44,0,2-.38,2-1,0-1.76-6.5,0-6.5-4.26,0-2,1.84-3.48,5-3.48a8.85,8.85,0,0,1,4.14.94l-1,2.22a6.18,6.18,0,0,0-3.1-.8c-1.4,0-2,.44-2,1,0,1.84,6.5.06,6.5,4.3,0,2-1.86,3.42-5.08,3.42A9.24,9.24,0,0,1,244.22,98Z"/><path class="cls-3" d="M262.82,98.48a4.46,4.46,0,0,1-2.54.68c-2.54,0-4-1.3-4-3.86V90.88H254.6v-2.4h1.66V85.86h3.12v2.62h2.68v2.4h-2.68v4.38a1.25,1.25,0,0,0,1.34,1.42,2.1,2.1,0,0,0,1.26-.4Z"/><path class="cls-3" d="M264.2,85a1.78,1.78,0,0,1,1.94-1.74,1.75,1.75,0,0,1,1.94,1.68,1.95,1.95,0,0,1-3.88.06Zm.38,3.24h3.12V99h-3.12Z"/><path class="cls-3" d="M269.8,93.62c0-3.24,2.5-5.54,5.92-5.54s5.9,2.3,5.9,5.54-2.48,5.54-5.9,5.54S269.8,96.86,269.8,93.62Zm8.66,0a2.76,2.76,0,1,0-2.74,3A2.72,2.72,0,0,0,278.46,93.62ZM276.56,84h3.36l-3.62,2.88h-2.44Z"/><path class="cls-3" d="M294.7,92.84V99h-3.12V93.32c0-1.74-.8-2.54-2.18-2.54s-2.58.92-2.58,2.9V99H283.7V88.24h3V89.5a4.71,4.71,0,0,1,3.56-1.42C292.78,88.08,294.7,89.56,294.7,92.84Z"/><path class="cls-3" d="M314.14,84.16V99h-3V97.76a4.14,4.14,0,0,1-3.36,1.4,5.54,5.54,0,0,1,0-11.08,4.13,4.13,0,0,1,3.22,1.3V84.16Zm-3.06,9.46a2.76,2.76,0,1,0-2.74,3A2.73,2.73,0,0,0,311.08,93.62Z"/><path class="cls-3" d="M327.5,94.5h-8.14a2.87,2.87,0,0,0,3.08,2.16,3.65,3.65,0,0,0,2.7-1l1.66,1.8a5.64,5.64,0,0,1-4.44,1.74c-3.72,0-6.14-2.34-6.14-5.54A5.48,5.48,0,0,1,322,88.08a5.33,5.33,0,0,1,5.6,5.58C327.56,93.9,327.52,94.24,327.5,94.5Zm-8.18-1.82h5.3a2.69,2.69,0,0,0-5.3,0Z"/><path class="cls-3" d="M329.64,84.16h3.12V99h-3.12Z"/></g><g class="cls-4"><path class="cls-3" d="M235.37,116c0-4.22,3.24-7.24,7.6-7.24a7.23,7.23,0,0,1,5.76,2.48l-2.08,1.92a4.5,4.5,0,0,0-3.52-1.64,4.48,4.48,0,1,0,0,9,4.46,4.46,0,0,0,3.52-1.66l2.08,1.92a7.19,7.19,0,0,1-5.78,2.5C238.61,123.24,235.37,120.22,235.37,116Z"/><path class="cls-3" d="M260.13,116.86V123h-2.92v-1.34a3.53,3.53,0,0,1-3.28,1.5c-2.52,0-4-1.4-4-3.26s1.34-3.22,4.62-3.22H257c0-1.34-.8-2.12-2.48-2.12a5.17,5.17,0,0,0-3.1,1l-1.12-2.18a8.27,8.27,0,0,1,4.64-1.3C258.23,112.08,260.13,113.6,260.13,116.86ZM257,119.6v-1.1h-2.14c-1.46,0-1.92.54-1.92,1.26s.66,1.3,1.76,1.3A2.3,2.3,0,0,0,257,119.6Z"/><path class="cls-3" d="M281.13,116.84V123H278v-5.68c0-1.74-.78-2.54-2-2.54s-2.38.9-2.38,2.82V123h-3.12v-5.68c0-1.74-.74-2.54-2-2.54s-2.36.9-2.36,2.82V123H263V112.24h3v1.24a4.36,4.36,0,0,1,3.38-1.4,4,4,0,0,1,3.54,1.76,4.84,4.84,0,0,1,3.88-1.76C279.29,112.08,281.13,113.56,281.13,116.84Z"/><path class="cls-3" d="M295.65,117.62a5.23,5.23,0,0,1-5.36,5.54,4.18,4.18,0,0,1-3.38-1.4V123h-3V108.16h3.12v5.22a4.18,4.18,0,0,1,3.24-1.3A5.23,5.23,0,0,1,295.65,117.62Zm-3.16,0a2.75,2.75,0,1,0-2.74,3A2.72,2.72,0,0,0,292.49,117.62Z"/><path class="cls-3" d="M297.35,109a1.78,1.78,0,0,1,1.94-1.74,1.75,1.75,0,0,1,1.94,1.68,1.95,1.95,0,0,1-3.88.06Zm.38,3.24h3.12V123h-3.12Z"/><path class="cls-3" d="M303,117.62c0-3.24,2.5-5.54,5.92-5.54s5.9,2.3,5.9,5.54-2.48,5.54-5.9,5.54S303,120.86,303,117.62Zm8.66,0a2.76,2.76,0,1,0-2.74,3A2.72,2.72,0,0,0,311.61,117.62Z"/></g></g><g id="Grupo_63" data-name="Grupo 63"><g id="Grupo_36" data-name="Grupo 36"><g id="Grupo_35" data-name="Grupo 35"><path id="Trazado_20" data-name="Trazado 20" class="cls-5" d="M71.28,91.73a7.13,7.13,0,0,0,.7-3.14,7.54,7.54,0,1,0-15.07,0,7.42,7.42,0,0,0,.7,3.14,9.88,9.88,0,0,0-8.25,9.73v14.27a1.51,1.51,0,0,0,1.51,1.5H55.4v19.6a1.5,1.5,0,0,0,1.5,1.51H72a1.51,1.51,0,0,0,1.51-1.5h0v-19.6H78a1.52,1.52,0,0,0,1.51-1.51h0V101.45A9.88,9.88,0,0,0,71.28,91.73Zm5.23,22.49h-3V99.14h-3v36.19H66V114.22h-3v21.11H58.41V99.14h-3v15.08h-3V101.45a6.85,6.85,0,0,1,6.84-6.83h1.27a1.52,1.52,0,0,0,1-2.65,4.45,4.45,0,0,1-1.57-3.39,4.53,4.53,0,0,1,9,0A4.44,4.44,0,0,1,67.41,92a1.51,1.51,0,0,0,1,2.65h1.27a6.83,6.83,0,0,1,6.84,6.83Z"/></g></g><g id="Grupo_38" data-name="Grupo 38"><g id="Grupo_37" data-name="Grupo 37"><path id="Trazado_21" data-name="Trazado 21" class="cls-5" d="M124.76,53.91a4.54,4.54,0,0,1-4.52-4.53,1.51,1.51,0,1,0-3,0h0a4.53,4.53,0,0,1-4.52,4.53,1.51,1.51,0,0,0,0,3,4.52,4.52,0,0,1,4.52,4.52,1.51,1.51,0,1,0,3,0h0a4.53,4.53,0,0,1,4.52-4.52,1.51,1.51,0,1,0,.08-3Zm-6,3a7.5,7.5,0,0,0-1.51-1.52,7.71,7.71,0,0,0,1.51-1.51,7.71,7.71,0,0,0,1.51,1.51A7.5,7.5,0,0,0,118.73,56.93Z"/></g></g><g id="Grupo_40" data-name="Grupo 40"><g id="Grupo_39" data-name="Grupo 39"><path id="Trazado_22" data-name="Trazado 22" class="cls-5" d="M138.33,127.79h-6v-4.53a1.5,1.5,0,0,0-1.51-1.5h-3V86l11.86-20.76a1.51,1.51,0,0,0-.47-2l-4.52-3a1.54,1.54,0,0,0-1.18-.21,1.45,1.45,0,0,0-1,.71l-6.76,11.58a7.54,7.54,0,0,0-14,0L105,60.69a1.5,1.5,0,0,0-2.06-.55l-.07,0-4.53,3a1.52,1.52,0,0,0-.47,2L109.68,86v35.78h-3a1.52,1.52,0,0,0-1.51,1.51h0v4.52h-6a1.52,1.52,0,0,0-1.51,1.51h0v9.05h3V130.8h6a1.51,1.51,0,0,0,1.51-1.51h0v-4.52h21.11v4.52a1.5,1.5,0,0,0,1.5,1.51h6v7.54h3v-9.05A1.51,1.51,0,0,0,138.33,127.79ZM124.76,85.57v36.19h-4.52v-18.1h-3v18.1H112.7V85.57a1.53,1.53,0,0,0-.2-.75L101.14,64.94l2-1.35,9.75,16.71a1.5,1.5,0,0,0,1.3.75h.57a1.52,1.52,0,0,0,1-2.65A4.44,4.44,0,0,1,114.21,75a4.52,4.52,0,1,1,9,0,4.44,4.44,0,0,1-1.56,3.38,1.51,1.51,0,0,0-.14,2.13,1.49,1.49,0,0,0,1.13.52h.57a1.51,1.51,0,0,0,1.3-.75l9.75-16.71,2,1.35L125,84.82a1.53,1.53,0,0,0-.2.75Z"/></g></g><g id="Grupo_42" data-name="Grupo 42"><g id="Grupo_41" data-name="Grupo 41"><rect id="Rectángulo_56" data-name="Rectángulo 56" class="cls-5" x="91.59" y="82.56" width="3.02" height="3.02"/></g></g><g id="Grupo_44" data-name="Grupo 44"><g id="Grupo_43" data-name="Grupo 43"><rect id="Rectángulo_57" data-name="Rectángulo 57" class="cls-5" x="97.62" y="85.57" width="3.02" height="3.02"/></g></g><g id="Grupo_46" data-name="Grupo 46"><g id="Grupo_45" data-name="Grupo 45"><rect id="Rectángulo_58" data-name="Rectángulo 58" class="cls-5" x="103.65" y="88.59" width="3.02" height="3.02"/></g></g><g id="Grupo_48" data-name="Grupo 48"><g id="Grupo_47" data-name="Grupo 47"><rect id="Rectángulo_59" data-name="Rectángulo 59" class="cls-5" x="91.59" y="93.11" width="3.02" height="3.02"/></g></g><g id="Grupo_50" data-name="Grupo 50"><g id="Grupo_49" data-name="Grupo 49"><rect id="Rectángulo_60" data-name="Rectángulo 60" class="cls-5" x="97.62" y="96.13" width="3.02" height="3.02"/></g></g><g id="Grupo_52" data-name="Grupo 52"><g id="Grupo_51" data-name="Grupo 51"><rect id="Rectángulo_61" data-name="Rectángulo 61" class="cls-5" x="103.65" y="99.14" width="3.02" height="3.02"/></g></g><g id="Grupo_54" data-name="Grupo 54"><g id="Grupo_53" data-name="Grupo 53"><rect id="Rectángulo_62" data-name="Rectángulo 62" class="cls-5" x="130.79" y="97.63" width="3.02" height="3.02"/></g></g><g id="Grupo_56" data-name="Grupo 56"><g id="Grupo_55" data-name="Grupo 55"><rect id="Rectángulo_63" data-name="Rectángulo 63" class="cls-5" x="136.82" y="100.65" width="3.02" height="3.02"/></g></g><g id="Grupo_58" data-name="Grupo 58"><g id="Grupo_57" data-name="Grupo 57"><rect id="Rectángulo_64" data-name="Rectángulo 64" class="cls-5" x="130.79" y="108.19" width="3.02" height="3.02"/></g></g><g id="Grupo_60" data-name="Grupo 60"><g id="Grupo_59" data-name="Grupo 59"><rect id="Rectángulo_65" data-name="Rectángulo 65" class="cls-5" x="136.82" y="111.2" width="3.02" height="3.02"/></g></g><g id="Grupo_62" data-name="Grupo 62"><g id="Grupo_61" data-name="Grupo 61"><path id="Trazado_23" data-name="Trazado 23" class="cls-5" d="M92.55,61.8l-9.09-7.54a1.5,1.5,0,0,0-2.12.19,1.53,1.53,0,0,0-.35,1l0,3H61.43a1.5,1.5,0,0,0-1.5,1.51h0V75a1.5,1.5,0,0,0,1.5,1.51h6A1.5,1.5,0,0,0,69,75h0V67.48H81v3a1.51,1.51,0,0,0,2.48,1.16l9-7.54a1.51,1.51,0,0,0,.2-2.12,1.21,1.21,0,0,0-.2-.19Zm-8.5,5.48V66a1.5,1.5,0,0,0-1.5-1.51H67.47A1.5,1.5,0,0,0,66,66h0v7.54h-3V61.45h19.6a1.51,1.51,0,0,0,1.51-1.51h0V58.65L89.23,63Z"/></g></g></g></g></g></g></svg>