<svg xmlns="http://www.w3.org/2000/svg" width="49.155" height="42.27" viewBox="0 0 49.155 42.27">
  <g id="Grupo_369" data-name="Grupo 369" transform="translate(-371 -1265.008)">
    <g id="danger" transform="translate(371 1229.151)">
      <g id="Grupo_357" data-name="Grupo 357" transform="translate(0 35.857)">
        <g id="Grupo_356" data-name="Grupo 356" transform="translate(0 0)">
          <path id="Trazado_613" data-name="Trazado 613" d="M48.521,71.431,28.359,37.993a4.416,4.416,0,0,0-7.563,0L.633,71.431a4.416,4.416,0,0,0,3.782,6.7H44.74a4.416,4.416,0,0,0,3.782-6.7ZM45.8,74.309a1.218,1.218,0,0,1-1.059.618H4.414a1.216,1.216,0,0,1-1.041-1.843L23.536,39.645a1.216,1.216,0,0,1,2.082,0L45.781,73.084A1.217,1.217,0,0,1,45.8,74.309Z" transform="translate(0 -35.857)" fill="#083e63"/>
        </g>
      </g>
      <g id="Grupo_359" data-name="Grupo 359" transform="translate(22.425 49.024)">
        <g id="Grupo_358" data-name="Grupo 358">
          <path id="Trazado_614" data-name="Trazado 614" d="M235.745,173.005c-1.217,0-2.167.653-2.167,1.811,0,3.533.416,8.61.416,12.144,0,.92.8,1.306,1.752,1.306.713,0,1.722-.386,1.722-1.306,0-3.533.416-8.61.416-12.144A1.908,1.908,0,0,0,235.745,173.005Z" transform="translate(-233.578 -173.005)" fill="#083e63"/>
        </g>
      </g>
      <g id="Grupo_361" data-name="Grupo 361" transform="translate(22.336 66.334)">
        <g id="Grupo_360" data-name="Grupo 360">
          <path id="Trazado_615" data-name="Trazado 615" d="M234.937,353.306a2.286,2.286,0,1,0,0,4.573,2.286,2.286,0,0,0,0-4.573Z" transform="translate(-232.651 -353.306)" fill="#083e63"/>
        </g>
      </g>
    </g>
  </g>
</svg>
