<svg xmlns="http://www.w3.org/2000/svg" width="40.456" height="45.485" viewBox="0 0 40.456 45.485">
  <g id="floppy-disk" transform="translate(-0.25 0.25)">
    <path id="Trazado_3424" data-name="Trazado 3424" d="M39.756,5.289,35.165.7a2.375,2.375,0,0,0-1.69-.7H2.89A2.392,2.392,0,0,0,.5,2.389V42.6a2.392,2.392,0,0,0,2.39,2.389H38.067A2.392,2.392,0,0,0,40.456,42.6V6.978A2.372,2.372,0,0,0,39.756,5.289ZM17.593,1.757H31.106v9.757H17.593Zm-1.767,0v9.757H9.851V1.757Zm17.5,37.028H7.628V28.14h25.7Zm-25.7,4.443V40.543h25.7v2.686ZM38.7,42.6a.633.633,0,0,1-.632.632H35.085V27.261a.879.879,0,0,0-.879-.879H6.749a.879.879,0,0,0-.879.879V43.228H2.89a.633.633,0,0,1-.633-.632V2.389a.633.633,0,0,1,.633-.632h5.2V12.393a.879.879,0,0,0,.879.879H31.984a.879.879,0,0,0,.879-.879V1.757h.612a.638.638,0,0,1,.447.185l4.591,4.589a.627.627,0,0,1,.185.447Zm0,0" transform="translate(0 0)" fill="#003b68" stroke="#003b68" stroke-width="0.5"/>
    <path id="Trazado_3425" data-name="Trazado 3425" d="M294.734,47.769a.879.879,0,0,1-.879-.879V42.73a.879.879,0,0,1,1.757,0v4.16A.879.879,0,0,1,294.734,47.769Zm0,0" transform="translate(-267.581 -38.174)" fill="#003b68" stroke="#003b68" stroke-width="0.5"/>
    <path id="Trazado_3426" data-name="Trazado 3426" d="M132.647,349.144H118.855a.879.879,0,0,1,0-1.757h13.792a.879.879,0,1,1,0,1.757Zm0,0" transform="translate(-107.155 -316.865)" fill="#003b68" stroke="#003b68" stroke-width="0.5"/>
    <path id="Trazado_3427" data-name="Trazado 3427" d="M318.66,349.143a.876.876,0,0,1-.171-.017.9.9,0,0,1-.164-.05.849.849,0,0,1-.152-.081.853.853,0,0,1-.243-.242.868.868,0,0,1-.081-.152.887.887,0,0,1-.068-.336.894.894,0,0,1,.017-.172.918.918,0,0,1,.05-.164.9.9,0,0,1,.081-.151.831.831,0,0,1,.109-.134.9.9,0,0,1,.133-.11.879.879,0,0,1,.316-.131.861.861,0,0,1,.344,0,.916.916,0,0,1,.164.05.886.886,0,0,1,.151.081.854.854,0,0,1,.134.11.914.914,0,0,1,.11.134.9.9,0,0,1,.081.151.923.923,0,0,1,.05.164.883.883,0,0,1,.017.172.863.863,0,0,1-.017.171.883.883,0,0,1-.05.164.906.906,0,0,1-.081.152.92.92,0,0,1-.11.134.828.828,0,0,1-.134.109.882.882,0,0,1-.151.081.918.918,0,0,1-.164.05A.884.884,0,0,1,318.66,349.143Zm0,0" transform="translate(-289.404 -316.864)" fill="#003b68" stroke="#003b68" stroke-width="0.5"/>
    <path id="Trazado_3428" data-name="Trazado 3428" d="M132.647,387.789H118.855a.879.879,0,0,1,0-1.757h13.792a.879.879,0,1,1,0,1.757Zm0,0" transform="translate(-107.155 -352.114)" fill="#003b68" stroke="#003b68" stroke-width="0.5"/>
    <path id="Trazado_3429" data-name="Trazado 3429" d="M318.66,387.791a.886.886,0,0,1-.487-.147.924.924,0,0,1-.133-.11.838.838,0,0,1-.109-.134.885.885,0,0,1-.081-.151.914.914,0,0,1-.05-.164.854.854,0,0,1,0-.344.9.9,0,0,1,.131-.316.862.862,0,0,1,.243-.243.872.872,0,0,1,.152-.081.882.882,0,0,1,.164-.05.864.864,0,0,1,.344,0,.928.928,0,0,1,.164.05.885.885,0,0,1,.151.081.837.837,0,0,1,.134.109.92.92,0,0,1,.11.134.868.868,0,0,1,.081.152.881.881,0,0,1,.05.164.9.9,0,0,1,0,.344.918.918,0,0,1-.05.164.885.885,0,0,1-.081.151.883.883,0,0,1-.244.244.884.884,0,0,1-.151.081.913.913,0,0,1-.164.05A.883.883,0,0,1,318.66,387.791Zm0,0" transform="translate(-289.404 -352.116)" fill="#003b68" stroke="#003b68" stroke-width="0.5"/>
  </g>
</svg>
