<?xml version="1.0"?>
<svg xmlns="http://www.w3.org/2000/svg" height="512px" viewBox="0 0 496 496" width="512px" class=""><g><path d="m184 312c0-10.414062-6.710938-19.214844-16-22.527344v-33.472656c0-26.472656-21.527344-48-48-48s-48 21.527344-48 48v33.472656c-9.289062 3.3125-16 12.113282-16 22.527344v80c0 13.230469 10.769531 24 24 24h80c13.230469 0 24-10.769531 24-24zm-64-88c17.648438 0 32 14.351562 32 32v32h-64v-32c0-17.648438 14.351562-32 32-32zm48 168c0 4.414062-3.59375 8-8 8h-80c-4.40625 0-8-3.585938-8-8v-80c0-4.414062 3.59375-8 8-8h80c4.40625 0 8 3.585938 8 8zm0 0" data-original="#000000" class="active-path" data-old_color="#000000" fill="#187D89"/><path d="m120 320c-13.230469 0-24 10.769531-24 24 0 10.414062 6.710938 19.214844 16 22.527344v17.472656h16v-17.472656c9.289062-3.3125 16-12.113282 16-22.527344 0-13.230469-10.769531-24-24-24zm0 32c-4.40625 0-8-3.585938-8-8s3.59375-8 8-8 8 3.585938 8 8-3.59375 8-8 8zm0 0" data-original="#000000" class="active-path" data-old_color="#000000" fill="#187D89"/><path d="m128 0v155.878906l-8-5.71875-15.078125 10.785156c-28.449219 20.3125-61.96875 31.054688-96.921875 31.054688h-8v96c0 53.304688 17.617188 106.152344 49.601562 148.800781l1.132813 1.511719 69.265625 34.632812 8-4v27.054688h368v-496zm184 96c-13.230469 0-24-10.769531-24-24s10.769531-24 24-24 24 10.769531 24 24-10.769531 24-24 24zm24 7.792969v48.40625c-6.703125-5.070313-14.960938-8.199219-24-8.199219s-17.296875 3.128906-24 8.207031v-48.40625c6.703125 5.070313 14.960938 8.199219 24 8.199219s17.296875-3.128906 24-8.207031zm-24 56.207031c13.230469 0 24 10.769531 24 24s-10.769531 24-24 24-24-10.769531-24-24 10.769531-24 24-24zm39.191406-96c-3.71875-18.230469-19.878906-32-39.191406-32s-35.472656 13.769531-39.191406 32h-72.808594c-28.152344 0-51.457031-20.910156-55.359375-48h334.71875c-3.902344 27.089844-27.207031 48-55.359375 48zm-289.910156 361.695312c-29.21875-39.632812-45.28125-88.457031-45.28125-137.695312v-80.167969c35.40625-1.519531 69.214844-13.160156 98.222656-33.863281l5.777344-4.136719 5.785156 4.128907c29 20.710937 62.808594 32.34375 98.214844 33.863281v80.175781c0 49.238281-16.0625 98.0625-45.28125 137.695312l-58.71875 29.359376zm418.71875 54.304688h-336v-19.054688l45.265625-22.632812 1.132813-1.511719c31.984374-42.648437 49.601562-95.496093 49.601562-148.800781v-96h-8c-31.375 0-61.558594-8.726562-88-25.191406v-113.65625c13.207031 16.351562 33.390625 26.847656 56 26.847656h72v104c0 22.054688 17.945312 40 40 40s40-17.945312 40-40v-104h72c22.609375 0 42.792969-10.496094 56-26.847656zm0 0" data-original="#000000" class="active-path" data-old_color="#000000" fill="#187D89"/><path d="m320 72c0 4.417969-3.582031 8-8 8s-8-3.582031-8-8 3.582031-8 8-8 8 3.582031 8 8zm0 0" data-original="#000000" class="active-path" data-old_color="#000000" fill="#187D89"/><path d="m320 184c0 4.417969-3.582031 8-8 8s-8-3.582031-8-8 3.582031-8 8-8 8 3.582031 8 8zm0 0" data-original="#000000" class="active-path" data-old_color="#000000" fill="#187D89"/><path d="m288 464h176v-112h-176zm16-96h144v80h-144zm0 0" data-original="#000000" class="active-path" data-old_color="#000000" fill="#187D89"/><path d="m320 384h112v16h-112zm0 0" data-original="#000000" class="active-path" data-old_color="#000000" fill="#187D89"/><path d="m320 416h80v16h-80zm0 0" data-original="#000000" class="active-path" data-old_color="#000000" fill="#187D89"/><path d="m416 416h16v16h-16zm0 0" data-original="#000000" class="active-path" data-old_color="#000000" fill="#187D89"/></g> </svg>
