<svg id="router" xmlns="http://www.w3.org/2000/svg" width="64.843" height="64.843" viewBox="0 0 64.843 64.843">
  <path id="Trazado_3466" data-name="Trazado 3466" d="M43.046,216.538l-1.537-3.481L6.163,228.668H0V244.75l2.6,2.6h2.06v3.525h3.8v-3.525H40.375v3.525h3.8v-3.525h1.663l2.6-2.6V228.668H15.581Zm1.594,26.637-.374.374H4.178l-.374-.374v-10.7H8.928v3.915h3.8v-3.915h5.123v3.915h3.8v-3.915h5.123v3.915h3.8v-3.915h5.123v3.915h3.8v-3.915H44.64v10.7Z" transform="translate(0 -186.035)" fill="#003b68"/>
  <path id="Trazado_3467" data-name="Trazado 3467" d="M347,0V3.8a17.047,17.047,0,0,1,17.027,17.027h3.8A20.856,20.856,0,0,0,347,0Z" transform="translate(-302.989)" fill="#003b68"/>
  <path id="Trazado_3468" data-name="Trazado 3468" d="M347,60.684v3.8a9.341,9.341,0,0,1,9.331,9.331h3.8A13.151,13.151,0,0,0,347,60.684Z" transform="translate(-302.989 -52.987)" fill="#003b68"/>
  <path id="Trazado_3469" data-name="Trazado 3469" d="M347,119.669v3.8a1.852,1.852,0,0,1,1.85,1.85h3.8A5.661,5.661,0,0,0,347,119.669Z" transform="translate(-302.989 -104.491)" fill="#003b68"/>
</svg>
