<?xml version="1.0"?>
<svg xmlns="http://www.w3.org/2000/svg" xmlns:xlink="http://www.w3.org/1999/xlink" version="1.1" id="Capa_1" x="0px" y="0px" viewBox="0 0 512 512" style="enable-background:new 0 0 512 512;" xml:space="preserve" width="512px" height="512px"><g><g>
	<g>
		<path d="M313,241h-2v-23c0-30.327-24.673-55-55-55c-30.327,0-55,24.673-55,55v23h-2c-8.284,0-15,6.716-15,15v78    c0,8.284,6.716,15,15,15h114c8.284,0,15-6.716,15-15v-78C328,247.716,321.284,241,313,241z M231,218c0-13.785,11.215-25,25-25    c13.785,0,25,11.215,25,25v23h-50V218z M298,319h-84v-48c10.29,0,76.539,0,84,0V319z" data-original="#000000" class="active-path" data-old_color="#000000" fill="#083E63"/>
	</g>
</g><g>
	<g>
		<path d="M462,412c-8.333,0-16.19,2.06-23.106,5.681l-34.878-34.877C433.287,348.685,451,304.374,451,256    c0-48.374-17.713-92.685-46.984-126.803l34.878-34.877C445.81,97.94,453.667,100,462,100c27.57,0,50-22.43,50-50S489.57,0,462,0    s-50,22.43-50,50c0,8.333,2.06,16.19,5.681,23.106l-34.878,34.877C348.685,78.713,304.374,61,256,61    c-48.374,0-92.685,17.713-126.803,46.984L94.319,73.106C97.94,66.19,100,58.333,100,50c0-27.57-22.43-50-50-50S0,22.43,0,50    s22.43,50,50,50c8.333,0,16.19-2.06,23.106-5.681l34.878,34.877C78.713,163.315,61,207.626,61,256    c0,48.374,17.713,92.685,46.984,126.803L73.106,417.68C66.19,414.06,58.333,412,50,412c-27.57,0-50,22.43-50,50s22.43,50,50,50    s50-22.43,50-50c0-8.333-2.06-16.19-5.681-23.106l34.878-34.877C163.315,433.287,207.626,451,256,451    c48.374,0,92.685-17.713,126.803-46.984l34.878,34.877C414.06,445.81,412,453.667,412,462c0,27.57,22.43,50,50,50s50-22.43,50-50    S489.57,412,462,412z M462,30c11.028,0,20,8.972,20,20s-8.972,20-20,20s-20-8.972-20-20S450.972,30,462,30z M50,70    c-11.028,0-20-8.972-20-20s8.972-20,20-20s20,8.972,20,20S61.028,70,50,70z M50,482c-11.028,0-20-8.972-20-20s8.972-20,20-20    s20,8.972,20,20S61.028,482,50,482z M256,421c-90.981,0-165-74.019-165-165S165.019,91,256,91s165,74.019,165,165    S346.981,421,256,421z M462,482c-11.028,0-20-8.972-20-20s8.972-20,20-20s20,8.972,20,20S473.028,482,462,482z" data-original="#000000" class="active-path" data-old_color="#000000" fill="#083E63"/>
	</g>
</g></g> </svg>
