<svg xmlns="http://www.w3.org/2000/svg" width="45.657" height="47.079" viewBox="0 0 45.657 47.079">
  <g id="Grupo_352" data-name="Grupo 352" transform="translate(-375.469 -1743.451)">
    <g id="Grupo_285" data-name="Grupo 285" transform="translate(84.561 380.3)">
      <g id="Grupo_152" data-name="Grupo 152">
        <path id="Trazado_67" data-name="Trazado 67" d="M305.075,1369.011a18.784,18.784,0,0,1,25.159,8.088l-2.005.833,6.278,5.5.537-8.328-1.764.733-.005-.01a22.1,22.1,0,0,0-29.707-9.719c-.126.064-.249.129-.373.2l1.48,2.919C304.807,1369.149,304.94,1369.08,305.075,1369.011Z" fill="#164060" stroke="#164060" stroke-width="1"/>
        <path id="Trazado_68" data-name="Trazado 68" d="M332.774,1386.437c-.008.149-.017.3-.028.45a18.784,18.784,0,0,1-19.958,17.324l.328-2.147-7.956,2.52L312,1409.36l.288-1.889h.011a22.1,22.1,0,0,0,23.709-20.367c.011-.141.019-.281.027-.421Z" fill="#164060" stroke="#164060" stroke-width="1"/>
        <path id="Trazado_69" data-name="Trazado 69" d="M298.055,1376l1.672,1.386,1.938-8.117-7.619,3.406,1.471,1.22-.007.008a22.1,22.1,0,0,0,5.252,30.813c.115.081.231.16.347.239l1.893-2.671c-.125-.083-.248-.168-.372-.256A18.783,18.783,0,0,1,298.055,1376Z" fill="#164060" stroke="#164060" stroke-width="1"/>
      </g>
    </g>
    <path id="Trazado_286" data-name="Trazado 286" d="M2351.729,1766.836l7.406,6.313,14.917-14.478" transform="translate(-1964)" fill="none" stroke="#164060" stroke-width="4"/>
  </g>
</svg>
