<svg xmlns="http://www.w3.org/2000/svg" width="35.858" height="39.682" viewBox="0 0 35.858 39.682">
  <g id="Page-1" transform="translate(-0.621 0.248)">
    <g id="_050---Human-Brain" data-name="050---Human-Brain" transform="translate(0.869 -0.001)">
      <path id="Shape" d="M36.226,16.066a19.572,19.572,0,0,0-.684-5.546,10.824,10.824,0,0,0-3.9-5.617C27.95,2.014,24.5.817,20.475,1.021a43.832,43.832,0,0,0-6.318.9A11.919,11.919,0,0,0,7.613,5.092,12.4,12.4,0,0,0,4.992,9.36,17.261,17.261,0,0,0,4.4,11.5l-.052.226A8.305,8.305,0,0,1,3.793,13.2c-.135.3-.27.6-.387.914a2.2,2.2,0,0,0-.176,1.1,2.494,2.494,0,0,0,.953,1.455c.321.294.531.5.533.688a1.131,1.131,0,0,1-.114.278,25.241,25.241,0,0,1-2.86,4.651,2.722,2.722,0,0,0-.86,1.92,2.03,2.03,0,0,0,.946,1.219,4.856,4.856,0,0,0,.681.392c.282.144.754.384.784.557a1.116,1.116,0,0,1-.071.653c-.1.2-.2.38-.284.534C2.7,27.983,2.3,28.693,2.9,29.2c.141.124.383.314.6.483a1.649,1.649,0,0,0-.21.945.939.939,0,0,0,.385.636,4.947,4.947,0,0,0,.457.282c.384.219.534.321.588.523a1.818,1.818,0,0,1-.071.792c-.038.172-.074.343-.1.514a3.8,3.8,0,0,0,.219,1.755,2.417,2.417,0,0,0,2.846,1.727,53.285,53.285,0,0,0,5.51-1.648c1.468.867,2.4,3.491,2.638,4.476a.653.653,0,0,0,.634.5L32.8,40.139a.653.653,0,0,0,.622-.845,5.037,5.037,0,0,0-.666-1.25,6.162,6.162,0,0,1-.418-.693,12.832,12.832,0,0,1-.738-1.868,21.743,21.743,0,0,1-.769-3.863,11.031,11.031,0,0,1,.854-5.734,14.665,14.665,0,0,1,1.773-2.8c.392-.531.8-1.08,1.169-1.659A10.043,10.043,0,0,0,36.226,16.066Zm-3.817,6.249a15.875,15.875,0,0,0-1.922,3.056,12.338,12.338,0,0,0-.954,6.413,22.9,22.9,0,0,0,.814,4.091,14.239,14.239,0,0,0,.81,2.052,7.238,7.238,0,0,0,.5.843l.047.071L16.9,38.884a10.427,10.427,0,0,0-2.3-4.172c.167-.058.327-.112.471-.165.5-.173.869-.3,1.056-.363,2.8-.879,4.2-2.152,4.163-3.783a.679.679,0,0,0-.669-.638.653.653,0,0,0-.637.669c.016.673-.535,1.654-3.249,2.506-.2.061-.582.2-1.1.377-.466.163-1.037.363-1.662.577a54.337,54.337,0,0,1-5.615,1.694,1.159,1.159,0,0,1-1.348-.877,2.535,2.535,0,0,1-.157-1.152c.018-.135.048-.27.078-.406a2.9,2.9,0,0,0,.061-1.4,2.155,2.155,0,0,0-1.2-1.336l-.14-.08a2.426,2.426,0,0,1,.25-.4.653.653,0,0,0-.125-.928c-.157-.116-.53-.4-.8-.611.033-.061.071-.131.105-.189.1-.177.215-.381.327-.615a2.417,2.417,0,0,0,.176-1.46c-.152-.8-.914-1.192-1.477-1.477a3.771,3.771,0,0,1-.543-.315,3.4,3.4,0,0,1-.384-.311c0-.1.1-.337.607-.95a26.369,26.369,0,0,0,2.984-4.852,1.884,1.884,0,0,0,.256-.885,2.274,2.274,0,0,0-.957-1.633c-.261-.242-.513-.47-.541-.671a1.134,1.134,0,0,1,.1-.457c.107-.283.232-.562.357-.84a9.453,9.453,0,0,0,.634-1.714l.053-.228a16,16,0,0,1,.546-1.978A11.1,11.1,0,0,1,8.561,5.99a10.72,10.72,0,0,1,5.853-2.784,42.469,42.469,0,0,1,6.127-.879c3.7-.2,6.868.924,10.288,3.607a9.421,9.421,0,0,1,3.453,4.945,18.244,18.244,0,0,1,.636,5.17,8.77,8.77,0,0,1-1.4,4.689c-.342.537-.735,1.067-1.116,1.579Z" transform="translate(-0.869 -0.999)" fill="#187d89" stroke="#187d89" stroke-width="0.5"/>
      <path id="Shape-2" data-name="Shape" d="M19.96,17.306h.653a.653.653,0,0,0,0-1.306H19.96A1.96,1.96,0,0,0,18,17.96v.653a1.96,1.96,0,0,0,1.96,1.96h.653a.653.653,0,0,0,0-1.306H19.96a.653.653,0,0,1-.653-.653V17.96A.653.653,0,0,1,19.96,17.306Z" transform="translate(-6.811 -6.202)" fill="#187d89" stroke="#187d89" stroke-width="0.5"/>
      <path id="Shape-3" data-name="Shape" d="M26.613,15a.653.653,0,0,0-.653.653V16.96a.653.653,0,0,1-.653.653h-.653a.653.653,0,0,0,0,1.306h.653a1.96,1.96,0,0,0,1.96-1.96V15.653A.653.653,0,0,0,26.613,15Z" transform="translate(-8.891 -5.855)" fill="#187d89" stroke="#187d89" stroke-width="0.5"/>
      <path id="Shape-4" data-name="Shape" d="M29.225,13.613V12.96A1.96,1.96,0,0,0,27.266,11H25.96A1.96,1.96,0,0,0,24,12.96v.653a.653.653,0,1,0,1.306,0V12.96a.653.653,0,0,1,.653-.653h1.306a.653.653,0,0,1,.653.653v.653a.653.653,0,1,0,1.306,0Z" transform="translate(-8.891 -4.468)" fill="#187d89" stroke="#187d89" stroke-width="0.5"/>
      <path id="Shape-5" data-name="Shape" d="M33.613,20.96H32.96a.653.653,0,0,1-.653-.653v-.653a.653.653,0,0,0-1.306,0v.653a1.96,1.96,0,0,0,1.96,1.96h.653a.653.653,0,1,0,0-1.306Z" transform="translate(-11.319 -7.242)" fill="#187d89" stroke="#187d89" stroke-width="0.5"/>
      <path id="Shape-6" data-name="Shape" d="M38.266,17.266a.653.653,0,0,0-.653-.653H36.96a.653.653,0,0,1,0-1.306h.653a.653.653,0,0,0,0-1.306H36.96a1.96,1.96,0,0,0,0,3.919h.653A.653.653,0,0,0,38.266,17.266Z" transform="translate(-12.707 -5.508)" fill="#187d89" stroke="#187d89" stroke-width="0.5"/>
      <path id="Shape-7" data-name="Shape" d="M41.613,19a.653.653,0,0,0-.653.653V20.96a.653.653,0,0,1-.653.653h-.653a.653.653,0,0,0,0,1.306h.653a1.96,1.96,0,0,0,1.96-1.96V19.653A.653.653,0,0,0,41.613,19Z" transform="translate(-14.094 -7.242)" fill="#187d89" stroke="#187d89" stroke-width="0.5"/>
      <path id="Shape-8" data-name="Shape" d="M36.7,16.1c0-.01-.005-.019-.006-.029a16.068,16.068,0,0,0-.554-3.451,8.154,8.154,0,0,0-3-4.272A13.516,13.516,0,0,0,24.457,5c-.24,0-.483.007-.732.018-.223.012-.445.037-.668.056-.015,0-.027-.008-.042-.008a.591.591,0,0,0-.1.02,45.9,45.9,0,0,0-5.124.788,15.262,15.262,0,0,0-2.184.6c-.015.006-.03.009-.044.016a7.554,7.554,0,0,0-2.931,1.785,9.7,9.7,0,0,0-1.882,2.946.647.647,0,0,0-.049.116c-.044.107-.094.208-.135.317-.2.544-.516,1.9-.556,2.069-.147.731-.511,3.236.971,4.807a4.663,4.663,0,0,0,4.268,1.1l.879-.125c4.191-.6,6.294-.905,8.1.865.348.34.7.688,1.076,1.025-.411,1.292-.944,4.05,1.241,5.683,2.348,1.764,2.348,2.241,2.348,3.4a.653.653,0,0,0,.945.588c.171-.089,1.668-.922,1.668-3.854,0-1.6,1.2-2.99,2.376-4.137l.02-.018a6.317,6.317,0,0,0,1.633-1.633,7.551,7.551,0,0,0,1-2.436.647.647,0,0,0,.059-.268,7.785,7.785,0,0,0,.137-1.3c.007-.438,0-.873-.027-1.3A.076.076,0,0,0,36.7,16.1ZM30.2,27.208a4.994,4.994,0,0,1-.23,1.6c-.305-.764-1.012-1.555-2.644-2.779a3.413,3.413,0,0,1-.926-3.723,7.007,7.007,0,0,0,4.311,1.542,7.505,7.505,0,0,0,.762-.044A5.683,5.683,0,0,0,30.2,27.208Zm4.233-6.483a4.246,4.246,0,0,1-1.861,1.547,5.737,5.737,0,0,1-3.678-.055v-.887a.653.653,0,0,1,.653-.653h1.96a.653.653,0,0,0,0-1.306h-1.96a1.96,1.96,0,0,0-1.96,1.96v.2a17.737,17.737,0,0,1-2.446-2.1,5.562,5.562,0,0,0-2.779-1.529v-.5a.653.653,0,1,0-1.306,0v.337a29.073,29.073,0,0,0-5.118.464l-.877.125a6.3,6.3,0,0,1-1.191.061v-.334a.653.653,0,0,0-1.306,0v.031a2.19,2.19,0,0,1-.638-.457,2.935,2.935,0,0,1-.689-1.534h.674a1.96,1.96,0,0,0,1.96-1.96.653.653,0,1,0-1.306,0,.653.653,0,0,1-.653.653h-.732a6.342,6.342,0,0,1,.1-.8c.086-.371.327-1.372.479-1.816H13.87a.653.653,0,0,0,0-1.306H12.356a8.122,8.122,0,0,1,1.219-1.7,5.435,5.435,0,0,1,1.6-1.109v.854a1.96,1.96,0,0,0,1.96,1.96.653.653,0,1,0,0-1.306.653.653,0,0,1-.653-.653V7.554a15.1,15.1,0,0,1,1.568-.4c.557-.112,1.126-.22,1.7-.323V6.96a.653.653,0,0,0,1.306,0V6.615c.435-.065.871-.125,1.306-.173V6.96a.653.653,0,0,0,1.306,0V6.334c.041,0,.083-.008.123-.01.4-.017.8-.017,1.183,0v2.6a.653.653,0,0,0,.653.653h1.306a.653.653,0,1,0,0-1.306H26.28v-1.8A11.007,11.007,0,0,1,29.554,7.57c0,.015-.008.027-.008.042v1.96a.653.653,0,1,0,1.306,0V8.325c.428.278.862.581,1.306.922v1.632a.653.653,0,0,1-.653.653.653.653,0,0,0,0,1.306,1.96,1.96,0,0,0,1.96-1.96v-.447a6.415,6.415,0,0,1,1.423,2.547,14.239,14.239,0,0,1,.447,2.472H34.118a.653.653,0,1,0,0,1.306h1.293c0,.214.015.426.012.641s-.028.446-.053.665H34.118a.653.653,0,1,0,0,1.306h.956A6.388,6.388,0,0,1,34.432,20.724Z" transform="translate(-3.987 -2.387)" fill="#187d89" stroke="#187d89" stroke-width="0.5"/>
    </g>
  </g>
</svg>
