<svg xmlns="http://www.w3.org/2000/svg" width="31.282" height="42.616" viewBox="0 0 31.282 42.616">
  <g id="Grupo_377" data-name="Grupo 377" transform="translate(-297.388 -1537.884)">
    <g id="Grupo_156" data-name="Grupo 156">
      <path id="Trazado_75" data-name="Trazado 75" d="M326.208,1558.648c-.5-.193-1.049-.387-1.743-.616l-3.932-1.066a35.769,35.769,0,0,0-7.5-.8,40.52,40.52,0,0,0-7.505.8,36.282,36.282,0,0,0-3.932,1.065c-.7.23-1.245.425-1.744.617a1.581,1.581,0,0,0-.962,1.413v15.007a1.6,1.6,0,0,0,.955,1.415,35.8,35.8,0,0,0,26.372,0,1.6,1.6,0,0,0,.955-1.415v-15.007A1.581,1.581,0,0,0,326.208,1558.648Zm-11.621,8.621v5.266a1.377,1.377,0,0,1-.71,1.214,1.577,1.577,0,0,1-2.406-1.331v-5.149a3.069,3.069,0,0,1-1.557-2.637,3.132,3.132,0,0,1,4.357-2.874,2.892,2.892,0,0,1,1.627,1.634A3.058,3.058,0,0,1,314.587,1567.269Z" fill="none" stroke="#187d89" stroke-width="3"/>
      <path id="Trazado_76" data-name="Trazado 76" d="M305.526,1550.75a7.372,7.372,0,0,1,5.088-7.055,7.531,7.531,0,0,1,9.919,7.125v5.635l3.932,1.066v-6.7a11.436,11.436,0,1,0-22.871,0v6.7a36.282,36.282,0,0,1,3.932-1.065Z" fill="none" stroke="#187d89" stroke-width="3"/>
    </g>
  </g>
</svg>
