<svg xmlns="http://www.w3.org/2000/svg" width="44.766" height="44.722" viewBox="0 0 44.766 44.722">
  <g id="Grupo_355" data-name="Grupo 355" transform="translate(290.662 -104)">
    <path id="Trazado_608" data-name="Trazado 608" d="M-253.905,104.25c.584.137,1.177.245,1.751.417a.862.862,0,0,1,.381,1.557c-1.046,1.071-2.108,2.126-3.141,3.209a1.357,1.357,0,0,0-.279.667,2.154,2.154,0,0,0,.921,2.309.363.363,0,0,1,.09.093,2.018,2.018,0,0,0,2.134.919,1.188,1.188,0,0,0,.783-.341c1.024-1.052,2.063-2.089,3.1-3.128.68-.682,1.4-.524,1.648.4a8.62,8.62,0,0,1-7.182,11.1,9.03,9.03,0,0,1-3-.141.624.624,0,0,0-.489.119c-1.641,1.615-3.268,3.244-4.935,4.908l1.262,1.164c.2-.188.376-.373.57-.537a.837.837,0,0,1,1.172,0,.841.841,0,0,1,.042,1.2c-.137.165-.3.313-.558.589a2.811,2.811,0,0,1,.435.273q5.636,5.161,11.266,10.328a5.432,5.432,0,0,1,1.756,3.962,5.132,5.132,0,0,1-5.409,5.136,5.063,5.063,0,0,1-3.567-1.7q-5.234-5.687-10.471-11.37c-.1-.1-.2-.2-.23-.223a11.233,11.233,0,0,1-1.272.584c-.135.044-.4-.106-.517-.244-.659-.8.076-1.228.519-1.747l-1.157-1.258-3.108,3.11c-.59.591-1.189,1.173-1.762,1.779a.615.615,0,0,0-.144.481,8.66,8.66,0,0,1-6.941,10.472,8.5,8.5,0,0,1-4.133-.3.854.854,0,0,1-.372-1.514q1.612-1.624,3.249-3.224a1.1,1.1,0,0,0,.311-.708,2.161,2.161,0,0,0-.951-2.259.242.242,0,0,1-.061-.061,2.175,2.175,0,0,0-2.373-.959,1.091,1.091,0,0,0-.552.242c-1.078,1.059-2.136,2.138-3.2,3.208-.677.678-1.366.506-1.653-.408a8.667,8.667,0,0,1,8.944-11.149,4.52,4.52,0,0,1,1.062.17.768.768,0,0,0,.893-.283c1.863-1.883,3.74-3.75,5.613-5.623.1-.1.194-.206.308-.326-.109-.117-.2-.223-.3-.323q-4.987-5-9.97-10a.907.907,0,0,0-.75-.312c-.5.026-1.007,0-1.511.01a.974.974,0,0,1-.931-.506q-1.771-2.961-3.547-5.921a.865.865,0,0,1,.154-1.239q1.123-1.136,2.259-2.259c.13-.129.281-.238.422-.356h.518c2.046,1.227,4.089,2.459,6.14,3.678a1.049,1.049,0,0,1,.6,1.008c-.018.5.014,1.008-.011,1.511a.869.869,0,0,0,.295.714q5.01,5,10.008,10.02c.1.1.2.184.31.279.07-.06.116-.093.156-.133,2-1.994,3.993-3.985,5.975-5.993a.7.7,0,0,0,.126-.56,8.66,8.66,0,0,1,6.407-10.278c.389-.093.783-.164,1.174-.246Zm-.105,1.929-.1-.162c-.1-.011-.192-.027-.289-.032a6.9,6.9,0,0,0-6.991,8.846,1.236,1.236,0,0,1-.359,1.386q-8.287,8.26-16.544,16.55a1.43,1.43,0,0,1-1.608.418,6.888,6.888,0,0,0-8.428,4.634,6.391,6.391,0,0,0-.243,2.733c.154-.144.259-.236.358-.335.741-.745,1.461-1.512,2.232-2.225a1.61,1.61,0,0,1,.9-.384,13.752,13.752,0,0,1,2.113,0,1.536,1.536,0,0,1,.871.36q1.173,1.082,2.258,2.259a1.542,1.542,0,0,1,.352.875c.051.687,0,1.381.021,2.071a1.215,1.215,0,0,1-.4.957c-.753.732-1.5,1.476-2.241,2.216-.1.1-.184.2-.325.354.174.019.269.034.365.039a6.9,6.9,0,0,0,6.981-8.821,1.264,1.264,0,0,1,.366-1.421q8.3-8.275,16.576-16.579a1.334,1.334,0,0,1,1.494-.4,6.9,6.9,0,0,0,8.786-6.984,2.366,2.366,0,0,0-.052-.3c-.871.85-1.72,1.667-2.555,2.5a1.237,1.237,0,0,1-.957.4c-.69-.018-1.385.034-2.071-.022a1.591,1.591,0,0,1-.9-.382c-.752-.712-1.47-1.461-2.157-2.236a1.591,1.591,0,0,1-.348-.877c-.052-.643.007-1.3-.023-1.941a1.413,1.413,0,0,1,.492-1.182C-255.623,107.735-254.82,106.952-254.011,106.179Zm-10.668,27.69,2.215,2.4q4.282,4.653,8.565,9.3a3.438,3.438,0,0,0,4.505.579,3.442,3.442,0,0,0,.371-5.446q-4.441-4.1-8.9-8.171l-2.838-2.6Zm-23.69-26.126c.718,1.2,1.453,2.433,2.192,3.663.273.455.458,1.082.863,1.307a3.334,3.334,0,0,0,1.6.083,1.479,1.479,0,0,1,1.182.492q5.109,5.145,10.235,10.273a1.807,1.807,0,0,1,.24.367l1.358-1.31a4,4,0,0,1-.4-.313c-3.325-3.328-6.637-6.669-9.98-9.979a1.892,1.892,0,0,1-.723-1.772,1.661,1.661,0,0,0-1.09-1.97c-1.374-.711-2.671-1.57-3.971-2.349Zm22.42,24.74,3.809-3.808-1.112-1.021-3.741,3.7Z" fill="#187d89" stroke="#187d89" stroke-width="0.5"/>
    <path id="Trazado_609" data-name="Trazado 609" d="M-140.124,242.862a2.305,2.305,0,0,1-.332.548q-5.315,5.338-10.649,10.657a.874.874,0,0,1-1.3.072.875.875,0,0,1,.094-1.3q5.308-5.315,10.62-10.625a.9.9,0,0,1,1.054-.264A.9.9,0,0,1-140.124,242.862Z" transform="translate(-121.854 -121.773)" fill="#187d89" stroke="#187d89" stroke-width="0.5"/>
    <path id="Trazado_610" data-name="Trazado 610" d="M-173.043,358.681a.884.884,0,0,1-.851-.865.863.863,0,0,1,.9-.852.843.843,0,0,1,.82.877A.863.863,0,0,1-173.043,358.681Z" transform="translate(-103.06 -223.61)" fill="#187d89" stroke="#187d89" stroke-width="0.5"/>
    <path id="Trazado_611" data-name="Trazado 611" d="M-35.818,221.477a.866.866,0,0,1-.856.852.845.845,0,0,1-.862-.879.865.865,0,0,1,.868-.838A.883.883,0,0,1-35.818,221.477Z" transform="translate(-223.716 -102.96)" fill="#187d89" stroke="#187d89" stroke-width="0.5"/>
    <path id="Trazado_612" data-name="Trazado 612" d="M-32.776,364.472c.227-.283.364-.6.6-.7a1.525,1.525,0,0,1,.848.018c.133.026.244.191.355.3q3.7,3.681,7.394,7.365a2.212,2.212,0,0,1,.309.358.819.819,0,0,1-.127,1.062.818.818,0,0,1-1.065.1,2.556,2.556,0,0,1-.355-.313q-3.7-3.682-7.386-7.372A5.989,5.989,0,0,1-32.776,364.472Z" transform="translate(-227.927 -229.584)" fill="#187d89" stroke="#187d89" stroke-width="0.5"/>
  </g>
</svg>
