<svg xmlns="http://www.w3.org/2000/svg" width="51.093" height="56.812" viewBox="0 0 51.093 56.812">
  <g id="support" transform="translate(-25.75 0.25)">
    <g id="Grupo_797" data-name="Grupo 797" transform="translate(62.295 43.554)">
      <g id="Grupo_796" data-name="Grupo 796">
        <path id="Trazado_3413" data-name="Trazado 3413" d="M357.1,396a1.1,1.1,0,1,0,1.1,1.1A1.1,1.1,0,0,0,357.1,396Z" transform="translate(-356 -396)" fill="#007f8d" stroke="#007f8d" stroke-width="0.5"/>
      </g>
    </g>
    <g id="Grupo_799" data-name="Grupo 799" transform="translate(26)">
      <g id="Grupo_798" data-name="Grupo 798">
        <path id="Trazado_3414" data-name="Trazado 3414" d="M66.1,40l-5.228-1.742L59,34.5a12.046,12.046,0,0,0,3.26-6.373l.234-1.4h2a3.3,3.3,0,0,0,3.3-3.3V16.5a16.5,16.5,0,1,0-33,0v6.929a3.3,3.3,0,0,0,2.2,3.11v1.289a3.3,3.3,0,0,0,3.3,3.3h.966a11.932,11.932,0,0,0,1.845,2.857c.156.179.318.353.485.521l-1.876,3.751L36.49,40C30.412,42.024,26,48.423,26,55.213a1.1,1.1,0,0,0,1.1,1.1H75.493a1.1,1.1,0,0,0,1.1-1.1C76.593,48.423,72.182,42.024,66.1,40Zm-.508-16.571a1.1,1.1,0,0,1-1.1,1.1H62.816c.28-2.166.466-4.47.541-6.74,0-.064,0-.126.006-.189h2.232Zm-27.5,1.1a1.1,1.1,0,0,1-1.1-1.1V17.6h2.232q.005.172.012.346s0,.008,0,.012h0c.077,2.208.261,4.452.534,6.57H38.1Zm2.2,4.4a1.1,1.1,0,0,1-1.1-1.1v-1.1h.9l.234,1.4c.045.267.1.532.163.8ZM39.2,15.4H37.04a14.3,14.3,0,0,1,28.512,0h-2.16a11.14,11.14,0,0,0-11.112-11H50.312A11.14,11.14,0,0,0,39.2,15.4ZM50.312,6.6h1.969A8.943,8.943,0,0,1,61.2,15.553c0,.346,0,.647-.009.922,0,0,0,.007,0,.011l-1.376-.2a17.673,17.673,0,0,1-9.936-4.968A1.1,1.1,0,0,0,49.1,11a9.95,9.95,0,0,0-7.65,3.619A8.941,8.941,0,0,1,50.312,6.6ZM42.777,28.926a62.866,62.866,0,0,1-1.32-10.674l1.48-1.974a7.742,7.742,0,0,1,5.725-3.067A19.894,19.894,0,0,0,59.5,18.466l1.619.231c-.108,2.3-.329,4.6-.646,6.722v0c-.1.682-.18,1.12-.383,2.345a9.342,9.342,0,0,1-6.631,7.513,8.654,8.654,0,0,1-9.714-4.155h2.242a3.3,3.3,0,0,0,3.11,2.2h2.2a3.3,3.3,0,1,0,0-6.6H49.1a3.3,3.3,0,0,0-3.112,2.2ZM49,37.507A11.032,11.032,0,0,0,53.1,37.6l-1.943,2.055Zm.635,3.746-3.489,3.689a41.905,41.905,0,0,1-2.462-5.71L45,36.612Zm7.768-5.014,1.5,2.993a41.893,41.893,0,0,1-2.463,5.712L52.708,41.21ZM48,30.026a1.1,1.1,0,0,1,1.1-1.1h2.2a1.1,1.1,0,1,1,0,2.2H49.1A1.1,1.1,0,0,1,48,30.026ZM28.244,54.113c.436-5.449,4.062-10.4,8.942-12.028l4.63-1.543a44.09,44.09,0,0,0,3.131,6.79l.006.011h0a44.1,44.1,0,0,0,3.011,4.6l1.353,2.172Zm23.053-.98L49.8,50.738q-.025-.04-.053-.078a41.934,41.934,0,0,1-2.478-3.7L51.2,42.809l4.133,4.133a41.891,41.891,0,0,1-2.487,3.717C52.788,50.731,52.864,50.618,51.3,53.132Zm1.981.98,1.353-2.172a44.084,44.084,0,0,0,3.032-4.634l.016-.029,0,0a44.053,44.053,0,0,0,3.1-6.733l4.63,1.543c4.88,1.627,8.506,6.58,8.942,12.028Z" transform="translate(-26)" fill="#007f8d" stroke="#007f8d" stroke-width="0.5"/>
      </g>
    </g>
    <g id="Grupo_801" data-name="Grupo 801" transform="translate(66.16 45.654)">
      <g id="Grupo_800" data-name="Grupo 800">
        <path id="Trazado_3415" data-name="Trazado 3415" d="M396.023,419.1a11,11,0,0,0-3.114-3.78,1.1,1.1,0,0,0-1.341,1.743,8.783,8.783,0,0,1,2.487,3.019,1.1,1.1,0,0,0,1.968-.983Z" transform="translate(-391.139 -415.089)" fill="#007f8d" stroke="#007f8d" stroke-width="0.5"/>
      </g>
    </g>
  </g>
</svg>
