<?xml version="1.0"?>
<svg xmlns="http://www.w3.org/2000/svg" id="Layer_5" enable-background="new 0 0 64 64" height="512px" viewBox="0 0 64 64" width="512px" class=""><g><path d="m5 5h2v2h-2z" data-original="#000000" class="active-path" data-old_color="#000000" fill="#083E63"/><path d="m13 5h2v2h-2z" data-original="#000000" class="active-path" data-old_color="#000000" fill="#083E63"/><path d="m9 5h2v2h-2z" data-original="#000000" class="active-path" data-old_color="#000000" fill="#083E63"/><path d="m60 1h-56c-1.654 0-3 1.346-3 3v44c0 1.654 1.346 3 3 3h24.429l7.071 12h15.148l6.928-12h2.424c1.654 0 3-1.346 3-3v-44c0-1.654-1.346-3-3-3zm-56 2h56c.551 0 1 .449 1 1v3h-42.414l-2 2h-13.586v-5c0-.551.449-1 1-1zm45.495 58h-12.852l-6.482-11 6.482-11h12.852l6.351 11zm10.505-12h-2.423l-6.928-12h-15.149l-7.072 12h-24.428c-.551 0-1-.448-1-1v-37h14.414l2-2h41.586v39c0 .552-.449 1-1 1z" data-original="#000000" class="active-path" data-old_color="#000000" fill="#083E63"/><path d="m32.549 50.353h2v2h-2z" transform="matrix(.85 -.527 .527 .85 -22.038 25.414)" data-original="#000000" class="active-path" data-old_color="#000000" fill="#083E63"/><path d="m34.659 53.752h2v2h-2z" transform="matrix(.85 -.527 .527 .85 -23.513 27.038)" data-original="#000000" class="active-path" data-old_color="#000000" fill="#083E63"/><path d="m36.769 57.15h2v2h-2z" transform="matrix(.85 -.528 .528 .85 -24.994 28.674)" data-original="#000000" class="active-path" data-old_color="#000000" fill="#083E63"/><path d="m43.188 41h-.375c-1.551 0-2.813 1.262-2.813 2.812l.89 5.311c.126 1.07 1.032 1.877 2.11 1.877s1.984-.807 2.101-1.816l.856-4.76.043-.612c0-1.55-1.262-2.812-2.812-2.812zm-.064 7.891c-.015.125-.224.186-.256-.061l-.846-4.703-.022-.34c.014-.436.373-.787.812-.787h.375c.448 0 .812.364.814.752z" data-original="#000000" class="active-path" data-old_color="#000000" fill="#083E63"/><path d="m43 53c-1.654 0-3 1.346-3 3s1.346 3 3 3 3-1.346 3-3-1.346-3-3-3zm0 4c-.551 0-1-.448-1-1s.449-1 1-1 1 .448 1 1-.449 1-1 1z" data-original="#000000" class="active-path" data-old_color="#000000" fill="#083E63"/><path d="m9 25h-2c-1.103 0-2 .897-2 2v6c0 1.103.897 2 2 2h2c1.103 0 2-.897 2-2v-6c0-1.103-.897-2-2-2zm-2 8v-6h2l.001 6z" data-original="#000000" class="active-path" data-old_color="#000000" fill="#083E63"/><path d="m13 25h2v10h-2z" data-original="#000000" class="active-path" data-old_color="#000000" fill="#083E63"/><path d="m9 37h-2c-1.103 0-2 .897-2 2v6c0 1.103.897 2 2 2h2c1.103 0 2-.897 2-2v-6c0-1.103-.897-2-2-2zm0 8h-2v-6h2z" data-original="#000000" class="active-path" data-old_color="#000000" fill="#083E63"/><path d="m13 37h2v10h-2z" data-original="#000000" class="active-path" data-old_color="#000000" fill="#083E63"/><path d="m21 37h-2c-1.103 0-2 .897-2 2v6c0 1.103.897 2 2 2h2c1.103 0 2-.897 2-2v-6c0-1.103-.897-2-2-2zm0 8h-2v-6h2z" data-original="#000000" class="active-path" data-old_color="#000000" fill="#083E63"/><path d="m9 13h-2c-1.103 0-2 .897-2 2v6c0 1.103.897 2 2 2h2c1.103 0 2-.897 2-2v-6c0-1.103-.897-2-2-2zm0 8h-2v-6h2z" data-original="#000000" class="active-path" data-old_color="#000000" fill="#083E63"/><path d="m19 21v-6c0-1.103-.897-2-2-2h-2c-1.103 0-2 .897-2 2v6c0 1.103.897 2 2 2h2c1.103 0 2-.897 2-2zm-4-6h2v6h-2z" data-original="#000000" class="active-path" data-old_color="#000000" fill="#083E63"/><path d="m21 25h-2c-1.103 0-2 .897-2 2v6c0 1.103.897 2 2 2h2c1.103 0 2-.897 2-2v-6c0-1.103-.897-2-2-2zm-2 8v-6h2l.001 6z" data-original="#000000" class="active-path" data-old_color="#000000" fill="#083E63"/><path d="m29 25h-2c-1.103 0-2 .897-2 2v6c0 1.103.897 2 2 2h2c1.103 0 2-.897 2-2v-6c0-1.103-.897-2-2-2zm-2 8v-6h2l.001 6z" data-original="#000000" class="active-path" data-old_color="#000000" fill="#083E63"/><path d="m41 25h2v10h-2z" data-original="#000000" class="active-path" data-old_color="#000000" fill="#083E63"/><path d="m37 25h2v10h-2z" data-original="#000000" class="active-path" data-old_color="#000000" fill="#083E63"/><path d="m49 25h-2c-1.103 0-2 .897-2 2v6c0 1.103.897 2 2 2h2c1.103 0 2-.897 2-2v-6c0-1.103-.897-2-2-2zm-2 8v-6h2l.001 6z" data-original="#000000" class="active-path" data-old_color="#000000" fill="#083E63"/><path d="m25 37h2v10h-2z" data-original="#000000" class="active-path" data-old_color="#000000" fill="#083E63"/><path d="m21 13h2v10h-2z" data-original="#000000" class="active-path" data-old_color="#000000" fill="#083E63"/><path d="m25 13h2v10h-2z" data-original="#000000" class="active-path" data-old_color="#000000" fill="#083E63"/><path d="m41 13h-2c-1.103 0-2 .897-2 2v6c0 1.103.897 2 2 2h2c1.103 0 2-.897 2-2v-6c0-1.103-.897-2-2-2zm0 8h-2v-6h2z" data-original="#000000" class="active-path" data-old_color="#000000" fill="#083E63"/><path d="m49 13h-2c-1.103 0-2 .897-2 2v6c0 1.103.897 2 2 2h2c1.103 0 2-.897 2-2v-6c0-1.103-.897-2-2-2zm0 8h-2v-6h2z" data-original="#000000" class="active-path" data-old_color="#000000" fill="#083E63"/><path d="m53 13h2v10h-2z" data-original="#000000" class="active-path" data-old_color="#000000" fill="#083E63"/><path d="m57 13h2v10h-2z" data-original="#000000" class="active-path" data-old_color="#000000" fill="#083E63"/><path d="m53 25h2v10h-2z" data-original="#000000" class="active-path" data-old_color="#000000" fill="#083E63"/><path d="m57 25h2v10h-2z" data-original="#000000" class="active-path" data-old_color="#000000" fill="#083E63"/></g> </svg>
