<?xml version="1.0"?>
<svg xmlns="http://www.w3.org/2000/svg" height="512px" viewBox="0 0 480 480" width="512px"><g><path d="m472 0h-464c-4.417969 0-8 3.582031-8 8v384c0 4.417969 3.582031 8 8 8h200v16h-88c-4.417969 0-8 3.582031-8 8v48c0 4.417969 3.582031 8 8 8h240c4.417969 0 8-3.582031 8-8v-48c0-4.417969-3.582031-8-8-8h-88v-16h200c4.417969 0 8-3.582031 8-8v-384c0-4.417969-3.582031-8-8-8zm-120 432v32h-224v-32zm-128-16v-16h32v16zm240-32h-448v-368h448zm0 0" data-original="#000000" class="active-path" data-old_color="#000000" fill="#57904A"/><path d="m40 368h400c4.417969 0 8-3.582031 8-8v-320c0-4.417969-3.582031-8-8-8h-400c-4.417969 0-8 3.582031-8 8v320c0 4.417969 3.582031 8 8 8zm8-320h384v304h-384zm0 0" data-original="#000000" class="active-path" data-old_color="#000000" fill="#57904A"/><path d="m240 160c-22.089844 0-40 17.910156-40 40s17.910156 40 40 40 40-17.910156 40-40c-.027344-22.082031-17.917969-39.972656-40-40zm0 64c-13.253906 0-24-10.746094-24-24s10.746094-24 24-24 24 10.746094 24 24-10.746094 24-24 24zm0 0" data-original="#000000" class="active-path" data-old_color="#000000" fill="#57904A"/><path d="m80 80h32v-16h-48v48h16zm0 0" data-original="#000000" class="active-path" data-old_color="#000000" fill="#57904A"/><path d="m400 320h-32v16h48v-48h-16zm0 0" data-original="#000000" class="active-path" data-old_color="#000000" fill="#57904A"/><path d="m280.320312 132.367188c-13.25-2.867188-26.765624-4.332032-40.320312-4.367188-57.027344.917969-111.21875 25.035156-150.070312 66.792969-2.6875 3.128906-2.550782 7.789062.308593 10.757812 29.238281 28.53125 65.132813 49.316407 104.433594 60.464844l-21.984375 21.984375h-108.6875v16h115.3125l34.183594-34.183594c8.765625 1.40625 17.625 2.136719 26.503906 2.183594 84.710938 0 147.144531-63.734375 149.761719-66.449219 2.859375-2.96875 2.996093-7.628906.308593-10.757812-25.117187-26.828125-56.726562-46.726563-91.773437-57.777344l57.015625-57.015625h60.6875v-16h-67.3125zm-172.945312 67.359374c22.335938-21.394531 49.1875-37.5 78.578125-47.132812-23.496094 26.597656-23.988281 66.386719-1.152344 93.558594-28.507812-10.453125-54.777343-26.203125-77.425781-46.425782zm132.625 56.273438c-30.929688 0-56-25.070312-56-56s25.070312-56 56-56 56 25.070312 56 56c-.035156 30.914062-25.085938 55.964844-56 56zm132.640625-56.265625c-22.636719 20.253906-48.917969 36.019531-77.441406 46.457031 22.867187-27.167968 22.394531-66.984375-1.109375-93.597656 29.378906 9.640625 56.222656 25.75 78.550781 47.140625zm0 0" data-original="#000000" class="active-path" data-old_color="#000000" fill="#57904A"/><path d="m360 96h48v16h-48zm0 0" data-original="#000000" class="active-path" data-old_color="#000000" fill="#57904A"/><path d="m360 128h32v16h-32zm0 0" data-original="#000000" class="active-path" data-old_color="#000000" fill="#57904A"/><path d="m64 320h32v16h-32zm0 0" data-original="#000000" class="active-path" data-old_color="#000000" fill="#57904A"/><path d="m112 320h16v16h-16zm0 0" data-original="#000000" class="active-path" data-old_color="#000000" fill="#57904A"/><path d="m144 320h48v16h-48zm0 0" data-original="#000000" class="active-path" data-old_color="#000000" fill="#57904A"/><path d="m400 256h16v16h-16zm0 0" data-original="#000000" class="active-path" data-old_color="#000000" fill="#57904A"/></g> </svg>
